<?xml version="1.0" encoding="utf-8" standalone="no"?>
<!DOCTYPE svg PUBLIC "-//W3C//DTD SVG 1.1//EN"
  "http://www.w3.org/Graphics/SVG/1.1/DTD/svg11.dtd">
<svg xmlns:xlink="http://www.w3.org/1999/xlink" width="1059.111262pt" height="578.747852pt" viewBox="0 0 1059.111262 578.747852" xmlns="http://www.w3.org/2000/svg" version="1.1">
 <metadata>
  <rdf:RDF xmlns:dc="http://purl.org/dc/elements/1.1/" xmlns:cc="http://creativecommons.org/ns#" xmlns:rdf="http://www.w3.org/1999/02/22-rdf-syntax-ns#">
   <cc:Work>
    <dc:type rdf:resource="http://purl.org/dc/dcmitype/StillImage"/>
    <dc:date>2024-10-21T12:03:10.493790</dc:date>
    <dc:format>image/svg+xml</dc:format>
    <dc:creator>
     <cc:Agent>
      <dc:title>Matplotlib v3.8.4, https://matplotlib.org/</dc:title>
     </cc:Agent>
    </dc:creator>
   </cc:Work>
  </rdf:RDF>
 </metadata>
 <defs>
  <style type="text/css">*{stroke-linejoin: round; stroke-linecap: butt}</style>
 </defs>
 <g id="figure_1">
  <g id="patch_1">
   <path d="M 0 578.747852 
L 1059.111262 578.747852 
L 1059.111262 0 
L 0 0 
z
" style="fill: #ffffff"/>
  </g>
  <g id="axes_1">
   <g id="patch_2">
    <path d="M 159.111262 485.28 
L 1051.911262 485.28 
L 1051.911262 7.2 
L 159.111262 7.2 
z
" style="fill: #ffffff"/>
   </g>
   <g id="matplotlib.axis_1">
    <g id="xtick_1">
     <g id="line2d_1">
      <path d="M 199.69308 485.28 
L 199.69308 7.2 
" clip-path="url(#p0ee498c5a8)" style="fill: none; stroke: #b0b0b0; stroke-width: 0.8; stroke-linecap: square"/>
     </g>
     <g id="line2d_2">
      <defs>
       <path id="m07c1f28fbc" d="M 0 0 
L 0 3.5 
" style="stroke: #000000; stroke-width: 0.8"/>
      </defs>
      <g>
       <use xlink:href="#m07c1f28fbc" x="199.69308" y="485.28" style="stroke: #000000; stroke-width: 0.8"/>
      </g>
     </g>
     <g id="text_1">
      <!-- $\mathdefault{0.00}$ -->
      <g transform="translate(183.276219 507.616997) scale(0.2 -0.2)">
       <defs>
        <path id="CMR17-30" d="M 2688 2025 
C 2688 2416 2682 3080 2413 3591 
C 2176 4039 1798 4198 1466 4198 
C 1158 4198 768 4058 525 3597 
C 269 3118 243 2524 243 2025 
C 243 1661 250 1106 448 619 
C 723 -39 1216 -128 1466 -128 
C 1760 -128 2208 -7 2470 600 
C 2662 1042 2688 1559 2688 2025 
z
M 1466 -26 
C 1056 -26 813 325 723 812 
C 653 1188 653 1738 653 2096 
C 653 2588 653 2997 736 3387 
C 858 3929 1216 4096 1466 4096 
C 1728 4096 2067 3923 2189 3400 
C 2272 3036 2278 2607 2278 2096 
C 2278 1680 2278 1169 2202 792 
C 2067 95 1690 -26 1466 -26 
z
" transform="scale(0.015625)"/>
        <path id="CMMI12-3a" d="M 1178 307 
C 1178 492 1024 619 870 619 
C 685 619 557 466 557 313 
C 557 128 710 0 864 0 
C 1050 0 1178 153 1178 307 
z
" transform="scale(0.015625)"/>
       </defs>
       <use xlink:href="#CMR17-30" transform="scale(0.996264)"/>
       <use xlink:href="#CMMI12-3a" transform="translate(45.690477 0) scale(0.996264)"/>
       <use xlink:href="#CMR17-30" transform="translate(72.787654 0) scale(0.996264)"/>
       <use xlink:href="#CMR17-30" transform="translate(118.478131 0) scale(0.996264)"/>
      </g>
     </g>
    </g>
    <g id="xtick_2">
     <g id="line2d_3">
      <path d="M 370.803815 485.28 
L 370.803815 7.2 
" clip-path="url(#p0ee498c5a8)" style="fill: none; stroke: #b0b0b0; stroke-width: 0.8; stroke-linecap: square"/>
     </g>
     <g id="line2d_4">
      <g>
       <use xlink:href="#m07c1f28fbc" x="370.803815" y="485.28" style="stroke: #000000; stroke-width: 0.8"/>
      </g>
     </g>
     <g id="text_2">
      <!-- $\mathdefault{0.01}$ -->
      <g transform="translate(354.386954 507.616997) scale(0.2 -0.2)">
       <defs>
        <path id="CMR17-31" d="M 1702 4058 
C 1702 4192 1696 4192 1606 4192 
C 1357 3916 979 3827 621 3827 
C 602 3827 570 3827 563 3808 
C 557 3795 557 3782 557 3648 
C 755 3648 1088 3686 1344 3839 
L 1344 461 
C 1344 236 1331 160 781 160 
L 589 160 
L 589 0 
C 896 0 1216 0 1523 0 
C 1830 0 2150 0 2458 0 
L 2458 160 
L 2266 160 
C 1715 160 1702 230 1702 458 
L 1702 4058 
z
" transform="scale(0.015625)"/>
       </defs>
       <use xlink:href="#CMR17-30" transform="scale(0.996264)"/>
       <use xlink:href="#CMMI12-3a" transform="translate(45.690477 0) scale(0.996264)"/>
       <use xlink:href="#CMR17-30" transform="translate(72.787654 0) scale(0.996264)"/>
       <use xlink:href="#CMR17-31" transform="translate(118.478131 0) scale(0.996264)"/>
      </g>
     </g>
    </g>
    <g id="xtick_3">
     <g id="line2d_5">
      <path d="M 541.914549 485.28 
L 541.914549 7.2 
" clip-path="url(#p0ee498c5a8)" style="fill: none; stroke: #b0b0b0; stroke-width: 0.8; stroke-linecap: square"/>
     </g>
     <g id="line2d_6">
      <g>
       <use xlink:href="#m07c1f28fbc" x="541.914549" y="485.28" style="stroke: #000000; stroke-width: 0.8"/>
      </g>
     </g>
     <g id="text_3">
      <!-- $\mathdefault{0.02}$ -->
      <g transform="translate(525.497689 507.616997) scale(0.2 -0.2)">
       <defs>
        <path id="CMR17-32" d="M 2669 989 
L 2554 989 
C 2490 536 2438 459 2413 420 
C 2381 369 1920 369 1830 369 
L 602 369 
C 832 619 1280 1072 1824 1597 
C 2214 1967 2669 2402 2669 3035 
C 2669 3790 2067 4224 1395 4224 
C 691 4224 262 3604 262 3030 
C 262 2780 448 2748 525 2748 
C 589 2748 781 2787 781 3010 
C 781 3207 614 3264 525 3264 
C 486 3264 448 3258 422 3245 
C 544 3790 915 4058 1306 4058 
C 1862 4058 2227 3617 2227 3035 
C 2227 2479 1901 2000 1536 1584 
L 262 146 
L 262 0 
L 2515 0 
L 2669 989 
z
" transform="scale(0.015625)"/>
       </defs>
       <use xlink:href="#CMR17-30" transform="scale(0.996264)"/>
       <use xlink:href="#CMMI12-3a" transform="translate(45.690477 0) scale(0.996264)"/>
       <use xlink:href="#CMR17-30" transform="translate(72.787654 0) scale(0.996264)"/>
       <use xlink:href="#CMR17-32" transform="translate(118.478131 0) scale(0.996264)"/>
      </g>
     </g>
    </g>
    <g id="xtick_4">
     <g id="line2d_7">
      <path d="M 713.025284 485.28 
L 713.025284 7.2 
" clip-path="url(#p0ee498c5a8)" style="fill: none; stroke: #b0b0b0; stroke-width: 0.8; stroke-linecap: square"/>
     </g>
     <g id="line2d_8">
      <g>
       <use xlink:href="#m07c1f28fbc" x="713.025284" y="485.28" style="stroke: #000000; stroke-width: 0.8"/>
      </g>
     </g>
     <g id="text_4">
      <!-- $\mathdefault{0.03}$ -->
      <g transform="translate(696.608423 507.616997) scale(0.2 -0.2)">
       <defs>
        <path id="CMR17-33" d="M 1414 2157 
C 1984 2157 2234 1662 2234 1090 
C 2234 320 1824 25 1453 25 
C 1114 25 563 194 390 693 
C 422 680 454 680 486 680 
C 640 680 755 782 755 948 
C 755 1133 614 1216 486 1216 
C 378 1216 211 1165 211 926 
C 211 335 787 -128 1466 -128 
C 2176 -128 2720 430 2720 1085 
C 2720 1707 2208 2157 1600 2227 
C 2086 2328 2554 2756 2554 3329 
C 2554 3820 2048 4179 1472 4179 
C 890 4179 378 3829 378 3329 
C 378 3110 544 3072 627 3072 
C 762 3072 877 3155 877 3321 
C 877 3486 762 3569 627 3569 
C 602 3569 570 3569 544 3557 
C 730 3959 1235 4032 1459 4032 
C 1683 4032 2106 3925 2106 3320 
C 2106 3143 2080 2828 1862 2550 
C 1670 2304 1453 2304 1242 2284 
C 1210 2284 1062 2269 1037 2269 
C 992 2263 966 2257 966 2208 
C 966 2163 973 2157 1101 2157 
L 1414 2157 
z
" transform="scale(0.015625)"/>
       </defs>
       <use xlink:href="#CMR17-30" transform="scale(0.996264)"/>
       <use xlink:href="#CMMI12-3a" transform="translate(45.690477 0) scale(0.996264)"/>
       <use xlink:href="#CMR17-30" transform="translate(72.787654 0) scale(0.996264)"/>
       <use xlink:href="#CMR17-33" transform="translate(118.478131 0) scale(0.996264)"/>
      </g>
     </g>
    </g>
    <g id="xtick_5">
     <g id="line2d_9">
      <path d="M 884.136019 485.28 
L 884.136019 7.2 
" clip-path="url(#p0ee498c5a8)" style="fill: none; stroke: #b0b0b0; stroke-width: 0.8; stroke-linecap: square"/>
     </g>
     <g id="line2d_10">
      <g>
       <use xlink:href="#m07c1f28fbc" x="884.136019" y="485.28" style="stroke: #000000; stroke-width: 0.8"/>
      </g>
     </g>
     <g id="text_5">
      <!-- $\mathdefault{0.04}$ -->
      <g transform="translate(867.719158 507.616997) scale(0.2 -0.2)">
       <defs>
        <path id="CMR17-34" d="M 2150 4122 
C 2150 4256 2144 4256 2029 4256 
L 128 1254 
L 128 1088 
L 1779 1088 
L 1779 457 
C 1779 224 1766 160 1318 160 
L 1197 160 
L 1197 0 
C 1402 0 1747 0 1965 0 
C 2182 0 2528 0 2733 0 
L 2733 160 
L 2611 160 
C 2163 160 2150 224 2150 457 
L 2150 1088 
L 2803 1088 
L 2803 1254 
L 2150 1254 
L 2150 4122 
z
M 1798 3703 
L 1798 1254 
L 256 1254 
L 1798 3703 
z
" transform="scale(0.015625)"/>
       </defs>
       <use xlink:href="#CMR17-30" transform="scale(0.996264)"/>
       <use xlink:href="#CMMI12-3a" transform="translate(45.690477 0) scale(0.996264)"/>
       <use xlink:href="#CMR17-30" transform="translate(72.787654 0) scale(0.996264)"/>
       <use xlink:href="#CMR17-34" transform="translate(118.478131 0) scale(0.996264)"/>
      </g>
     </g>
    </g>
    <g id="text_6">
     <!-- $\frac{y}{a}$ -->
     <g transform="translate(598.790265 558.664646) scale(0.375 -0.375)">
      <defs>
       <path id="CMMI12-79" d="M 1683 -700 
C 1510 -939 1261 -1152 947 -1152 
C 870 -1152 563 -1152 467 -889 
C 486 -895 518 -895 531 -895 
C 723 -895 851 -729 851 -582 
C 851 -435 730 -384 634 -384 
C 531 -384 307 -458 307 -759 
C 307 -1071 582 -1286 947 -1286 
C 1587 -1286 2234 -700 2413 6 
L 3040 2485 
C 3046 2517 3059 2556 3059 2594 
C 3059 2689 2982 2753 2886 2753 
C 2829 2753 2694 2727 2643 2535 
L 2170 658 
C 2138 543 2138 530 2086 460 
C 1958 281 1747 64 1440 64 
C 1082 64 1050 415 1050 588 
C 1050 952 1222 1443 1395 1903 
C 1466 2088 1504 2178 1504 2305 
C 1504 2574 1312 2816 998 2816 
C 410 2816 173 1890 173 1839 
C 173 1814 198 1782 243 1782 
C 301 1782 307 1807 333 1897 
C 486 2433 730 2689 979 2689 
C 1037 2689 1146 2689 1146 2478 
C 1146 2312 1075 2127 979 1884 
C 666 1047 666 837 666 683 
C 666 77 1101 -64 1421 -64 
C 1606 -64 1837 -6 2061 230 
L 2067 224 
C 1971 -147 1907 -392 1683 -700 
z
" transform="scale(0.015625)"/>
       <path id="CMMI12-61" d="M 1926 760 
C 1894 651 1894 639 1805 517 
C 1664 338 1382 64 1082 64 
C 819 64 672 300 672 677 
C 672 1028 870 1743 992 2012 
C 1210 2459 1510 2689 1760 2689 
C 2182 2689 2266 2165 2266 2114 
C 2266 2108 2246 2024 2240 2012 
L 1926 760 
z
M 2336 2395 
C 2266 2561 2093 2816 1760 2816 
C 1037 2816 256 1884 256 939 
C 256 307 627 -64 1062 -64 
C 1414 -64 1715 211 1894 422 
C 1958 45 2259 -64 2451 -64 
C 2643 -64 2797 51 2912 281 
C 3014 498 3104 888 3104 913 
C 3104 945 3078 971 3040 971 
C 2982 971 2976 939 2950 843 
C 2854 466 2733 64 2470 64 
C 2285 64 2272 230 2272 358 
C 2272 505 2291 575 2349 824 
C 2394 984 2426 1124 2477 1309 
C 2714 2267 2771 2497 2771 2535 
C 2771 2625 2701 2695 2605 2695 
C 2400 2695 2349 2472 2336 2395 
z
" transform="scale(0.015625)"/>
      </defs>
      <use xlink:href="#CMMI12-79" transform="translate(0.024186 39.953917) scale(0.697382)"/>
      <use xlink:href="#CMMI12-61" transform="translate(0 -34.355253) scale(0.697382)"/>
      <path d="M 0 24.410885 
L 35.845347 24.410885 
L 35.845347 25.40233 
L 0 25.40233 
L 0 24.410885 
z
"/>
     </g>
    </g>
   </g>
   <g id="matplotlib.axis_2">
    <g id="ytick_1">
     <g id="line2d_11">
      <path d="M 159.111262 405.249234 
L 1051.911262 405.249234 
" clip-path="url(#p0ee498c5a8)" style="fill: none; stroke: #b0b0b0; stroke-width: 0.8; stroke-linecap: square"/>
     </g>
     <g id="line2d_12">
      <defs>
       <path id="mab4136d2a7" d="M 0 0 
L -3.5 0 
" style="stroke: #000000; stroke-width: 0.8"/>
      </defs>
      <g>
       <use xlink:href="#mab4136d2a7" x="159.111262" y="405.249234" style="stroke: #000000; stroke-width: 0.8"/>
      </g>
     </g>
     <g id="text_7">
      <!-- $\mathdefault{−0.0005}$ -->
      <g transform="translate(84.003862 412.167733) scale(0.2 -0.2)">
       <defs>
        <path id="CMSY10-0" d="M 4218 1472 
C 4326 1472 4442 1472 4442 1600 
C 4442 1728 4326 1728 4218 1728 
L 755 1728 
C 646 1728 531 1728 531 1600 
C 531 1472 646 1472 755 1472 
L 4218 1472 
z
" transform="scale(0.015625)"/>
        <path id="CMR17-35" d="M 730 3692 
C 794 3666 1056 3584 1325 3584 
C 1920 3584 2246 3911 2432 4100 
C 2432 4157 2432 4192 2394 4192 
C 2387 4192 2374 4192 2323 4163 
C 2099 4058 1837 3973 1517 3973 
C 1325 3973 1037 3999 723 4139 
C 653 4171 640 4171 634 4171 
C 602 4171 595 4164 595 4037 
L 595 2203 
C 595 2089 595 2057 659 2057 
C 691 2057 704 2070 736 2114 
C 941 2401 1222 2522 1542 2522 
C 1766 2522 2246 2382 2246 1289 
C 2246 1085 2246 715 2054 421 
C 1894 159 1645 25 1370 25 
C 947 25 518 320 403 814 
C 429 807 480 795 506 795 
C 589 795 749 840 749 1038 
C 749 1210 627 1280 506 1280 
C 358 1280 262 1190 262 1011 
C 262 454 704 -128 1382 -128 
C 2042 -128 2669 440 2669 1264 
C 2669 2030 2170 2624 1549 2624 
C 1222 2624 947 2503 730 2274 
L 730 3692 
z
" transform="scale(0.015625)"/>
       </defs>
       <use xlink:href="#CMSY10-0" transform="scale(0.996264)"/>
       <use xlink:href="#CMR17-30" transform="translate(77.487468 0) scale(0.996264)"/>
       <use xlink:href="#CMMI12-3a" transform="translate(123.177945 0) scale(0.996264)"/>
       <use xlink:href="#CMR17-30" transform="translate(150.275122 0) scale(0.996264)"/>
       <use xlink:href="#CMR17-30" transform="translate(195.965599 0) scale(0.996264)"/>
       <use xlink:href="#CMR17-30" transform="translate(241.656076 0) scale(0.996264)"/>
       <use xlink:href="#CMR17-35" transform="translate(287.346553 0) scale(0.996264)"/>
      </g>
     </g>
    </g>
    <g id="ytick_2">
     <g id="line2d_13">
      <path d="M 159.111262 316.714903 
L 1051.911262 316.714903 
" clip-path="url(#p0ee498c5a8)" style="fill: none; stroke: #b0b0b0; stroke-width: 0.8; stroke-linecap: square"/>
     </g>
     <g id="line2d_14">
      <g>
       <use xlink:href="#mab4136d2a7" x="159.111262" y="316.714903" style="stroke: #000000; stroke-width: 0.8"/>
      </g>
     </g>
     <g id="text_8">
      <!-- $\mathdefault{0.0000}$ -->
      <g transform="translate(99.501349 323.633402) scale(0.2 -0.2)">
       <use xlink:href="#CMR17-30" transform="scale(0.996264)"/>
       <use xlink:href="#CMMI12-3a" transform="translate(45.690477 0) scale(0.996264)"/>
       <use xlink:href="#CMR17-30" transform="translate(72.787654 0) scale(0.996264)"/>
       <use xlink:href="#CMR17-30" transform="translate(118.478131 0) scale(0.996264)"/>
       <use xlink:href="#CMR17-30" transform="translate(164.168608 0) scale(0.996264)"/>
       <use xlink:href="#CMR17-30" transform="translate(209.859086 0) scale(0.996264)"/>
      </g>
     </g>
    </g>
    <g id="ytick_3">
     <g id="line2d_15">
      <path d="M 159.111262 228.180573 
L 1051.911262 228.180573 
" clip-path="url(#p0ee498c5a8)" style="fill: none; stroke: #b0b0b0; stroke-width: 0.8; stroke-linecap: square"/>
     </g>
     <g id="line2d_16">
      <g>
       <use xlink:href="#mab4136d2a7" x="159.111262" y="228.180573" style="stroke: #000000; stroke-width: 0.8"/>
      </g>
     </g>
     <g id="text_9">
      <!-- $\mathdefault{0.0005}$ -->
      <g transform="translate(99.501349 235.099071) scale(0.2 -0.2)">
       <use xlink:href="#CMR17-30" transform="scale(0.996264)"/>
       <use xlink:href="#CMMI12-3a" transform="translate(45.690477 0) scale(0.996264)"/>
       <use xlink:href="#CMR17-30" transform="translate(72.787654 0) scale(0.996264)"/>
       <use xlink:href="#CMR17-30" transform="translate(118.478131 0) scale(0.996264)"/>
       <use xlink:href="#CMR17-30" transform="translate(164.168608 0) scale(0.996264)"/>
       <use xlink:href="#CMR17-35" transform="translate(209.859086 0) scale(0.996264)"/>
      </g>
     </g>
    </g>
    <g id="ytick_4">
     <g id="line2d_17">
      <path d="M 159.111262 139.646242 
L 1051.911262 139.646242 
" clip-path="url(#p0ee498c5a8)" style="fill: none; stroke: #b0b0b0; stroke-width: 0.8; stroke-linecap: square"/>
     </g>
     <g id="line2d_18">
      <g>
       <use xlink:href="#mab4136d2a7" x="159.111262" y="139.646242" style="stroke: #000000; stroke-width: 0.8"/>
      </g>
     </g>
     <g id="text_10">
      <!-- $\mathdefault{0.0010}$ -->
      <g transform="translate(99.501349 146.56474) scale(0.2 -0.2)">
       <use xlink:href="#CMR17-30" transform="scale(0.996264)"/>
       <use xlink:href="#CMMI12-3a" transform="translate(45.690477 0) scale(0.996264)"/>
       <use xlink:href="#CMR17-30" transform="translate(72.787654 0) scale(0.996264)"/>
       <use xlink:href="#CMR17-30" transform="translate(118.478131 0) scale(0.996264)"/>
       <use xlink:href="#CMR17-31" transform="translate(164.168608 0) scale(0.996264)"/>
       <use xlink:href="#CMR17-30" transform="translate(209.859086 0) scale(0.996264)"/>
      </g>
     </g>
    </g>
    <g id="ytick_5">
     <g id="line2d_19">
      <path d="M 159.111262 51.111911 
L 1051.911262 51.111911 
" clip-path="url(#p0ee498c5a8)" style="fill: none; stroke: #b0b0b0; stroke-width: 0.8; stroke-linecap: square"/>
     </g>
     <g id="line2d_20">
      <g>
       <use xlink:href="#mab4136d2a7" x="159.111262" y="51.111911" style="stroke: #000000; stroke-width: 0.8"/>
      </g>
     </g>
     <g id="text_11">
      <!-- $\mathdefault{0.0015}$ -->
      <g transform="translate(99.501349 58.03041) scale(0.2 -0.2)">
       <use xlink:href="#CMR17-30" transform="scale(0.996264)"/>
       <use xlink:href="#CMMI12-3a" transform="translate(45.690477 0) scale(0.996264)"/>
       <use xlink:href="#CMR17-30" transform="translate(72.787654 0) scale(0.996264)"/>
       <use xlink:href="#CMR17-30" transform="translate(118.478131 0) scale(0.996264)"/>
       <use xlink:href="#CMR17-31" transform="translate(164.168608 0) scale(0.996264)"/>
       <use xlink:href="#CMR17-35" transform="translate(209.859086 0) scale(0.996264)"/>
      </g>
     </g>
    </g>
    <g id="text_12">
     <!-- $\frac{-\overline{u^\prime v^\prime}}{U_{0m}^2}$ -->
     <g transform="translate(43.808294 275.991241) rotate(-90) scale(0.375 -0.375)">
      <defs>
       <path id="CMMI12-75" d="M 2182 370 
C 2266 13 2573 -64 2726 -64 
C 2931 -64 3085 70 3187 287 
C 3296 517 3379 894 3379 913 
C 3379 945 3354 971 3315 971 
C 3258 971 3251 939 3226 843 
C 3110 402 2995 64 2739 64 
C 2547 64 2547 275 2547 358 
C 2547 505 2566 568 2630 837 
C 2675 1009 2720 1181 2758 1360 
L 3021 2401 
C 3066 2561 3066 2574 3066 2593 
C 3066 2689 2989 2753 2893 2753 
C 2707 2753 2662 2593 2624 2433 
C 2560 2184 2214 811 2170 588 
C 2163 588 1914 64 1446 64 
C 1114 64 1050 351 1050 588 
C 1050 952 1229 1462 1395 1890 
C 1472 2095 1504 2178 1504 2305 
C 1504 2580 1306 2816 998 2816 
C 410 2816 173 1890 173 1839 
C 173 1814 198 1782 243 1782 
C 301 1782 307 1807 333 1896 
C 486 2441 736 2682 979 2682 
C 1043 2682 1146 2682 1146 2478 
C 1146 2312 1075 2127 979 1884 
C 698 1124 666 881 666 690 
C 666 38 1158 -64 1421 -64 
C 1830 -64 2054 217 2182 370 
z
" transform="scale(0.015625)"/>
       <path id="CMSY10-30" d="M 1619 3040 
C 1651 3117 1677 3174 1677 3238 
C 1677 3424 1510 3578 1312 3578 
C 1133 3578 1018 3456 973 3290 
L 211 493 
C 211 480 186 410 186 403 
C 186 333 352 288 403 288 
C 442 288 448 307 486 390 
L 1619 3040 
z
" transform="scale(0.015625)"/>
       <path id="CMMI12-76" d="M 2925 2389 
C 2925 2791 2720 2816 2669 2816 
C 2515 2816 2374 2663 2374 2535 
C 2374 2459 2419 2414 2445 2389 
C 2509 2331 2675 2159 2675 1827 
C 2675 1558 2291 64 1523 64 
C 1133 64 1056 390 1056 626 
C 1056 945 1203 1392 1376 1852 
C 1478 2114 1504 2178 1504 2305 
C 1504 2574 1312 2816 998 2816 
C 410 2816 173 1890 173 1839 
C 173 1814 198 1782 243 1782 
C 301 1782 307 1807 333 1897 
C 486 2446 736 2689 979 2689 
C 1037 2689 1146 2689 1146 2478 
C 1146 2312 1075 2127 979 1884 
C 672 1067 672 869 672 715 
C 672 575 691 313 890 134 
C 1120 -64 1440 -64 1498 -64 
C 2560 -64 2925 2024 2925 2389 
z
" transform="scale(0.015625)"/>
       <path id="CMMI12-55" d="M 3238 1474 
C 3014 581 2272 57 1670 57 
C 1210 57 896 363 896 891 
C 896 916 896 1107 966 1387 
L 1594 3887 
C 1651 4103 1664 4167 2118 4167 
C 2234 4167 2298 4167 2298 4282 
C 2298 4352 2240 4352 2202 4352 
C 2086 4352 1952 4352 1830 4352 
L 1075 4352 
C 954 4352 819 4352 698 4352 
C 653 4352 576 4352 576 4231 
C 576 4167 621 4167 742 4167 
C 1126 4167 1126 4116 1126 4046 
C 1126 4008 1082 3824 1050 3715 
L 493 1488 
C 474 1418 435 1246 435 1075 
C 435 374 941 -128 1638 -128 
C 2285 -128 3002 384 3328 1197 
C 3373 1305 3430 1530 3469 1702 
C 3533 1933 3667 2496 3712 2662 
L 3955 3623 
C 4038 3956 4090 4167 4653 4167 
C 4704 4173 4730 4224 4730 4282 
C 4730 4352 4672 4352 4646 4352 
C 4557 4352 4442 4352 4352 4352 
L 4051 4352 
C 3654 4352 3450 4352 3443 4352 
C 3405 4352 3328 4352 3328 4231 
C 3328 4167 3379 4167 3424 4167 
C 3808 4167 3834 4020 3834 3905 
C 3834 3848 3834 3828 3808 3739 
L 3238 1474 
z
" transform="scale(0.015625)"/>
       <path id="CMMI12-6d" d="M 1318 1871 
C 1331 1910 1491 2229 1728 2433 
C 1894 2586 2112 2689 2362 2689 
C 2618 2689 2707 2497 2707 2242 
C 2707 2203 2707 2076 2630 1775 
L 2470 1118 
C 2419 926 2298 453 2285 383 
C 2259 287 2221 121 2221 96 
C 2221 6 2291 -64 2387 -64 
C 2579 -64 2611 83 2669 313 
L 3053 1839 
C 3066 1890 3398 2689 4102 2689 
C 4358 2689 4448 2497 4448 2242 
C 4448 1884 4198 1188 4058 805 
C 4000 651 3968 568 3968 453 
C 3968 166 4166 -64 4474 -64 
C 5069 -64 5293 875 5293 913 
C 5293 945 5267 971 5229 971 
C 5171 971 5165 952 5133 843 
C 4986 332 4749 64 4493 64 
C 4429 64 4326 64 4326 269 
C 4326 436 4403 640 4429 710 
C 4544 1018 4832 1773 4832 2145 
C 4832 2528 4608 2816 4122 2816 
C 3693 2816 3347 2574 3091 2197 
C 3072 2542 2861 2816 2381 2816 
C 1811 2816 1510 2415 1395 2255 
C 1376 2618 1114 2816 832 2816 
C 646 2816 499 2727 378 2484 
C 262 2254 173 1865 173 1839 
C 173 1814 198 1782 243 1782 
C 294 1782 301 1788 339 1935 
C 435 2312 557 2689 813 2689 
C 960 2689 1011 2586 1011 2395 
C 1011 2254 947 2005 902 1807 
L 723 1118 
C 698 996 627 709 595 594 
C 550 428 480 128 480 96 
C 480 6 550 -64 646 -64 
C 723 -64 813 -26 864 70 
C 877 102 934 326 966 453 
L 1107 1028 
L 1318 1871 
z
" transform="scale(0.015625)"/>
      </defs>
      <use xlink:href="#CMSY10-0" transform="translate(0 39.226102) scale(0.697382)"/>
      <use xlink:href="#CMMI12-75" transform="translate(54.240993 39.226102) scale(0.697382)"/>
      <use xlink:href="#CMSY10-30" transform="translate(93.105049 59.372674) scale(0.498132)"/>
      <use xlink:href="#CMMI12-76" transform="translate(107.301781 39.226102) scale(0.697382)"/>
      <use xlink:href="#CMSY10-30" transform="translate(142.816231 59.372674) scale(0.498132)"/>
      <use xlink:href="#CMMI12-55" transform="translate(22.314864 -34.355253) scale(0.697382)"/>
      <use xlink:href="#CMR17-32" transform="translate(75.975772 -14.20868) scale(0.498132)"/>
      <use xlink:href="#CMR17-30" transform="translate(68.691139 -51.595716) scale(0.498132)"/>
      <use xlink:href="#CMMI12-6d" transform="translate(91.536377 -51.595716) scale(0.498132)"/>
      <path d="M 54.240993 90.021094 
L 157.012962 90.021094 
L 157.012962 91.012539 
L 54.240993 91.012539 
L 54.240993 90.021094 
z
"/>
      <path d="M 0 24.410885 
L 157.012962 24.410885 
L 157.012962 25.40233 
L 0 25.40233 
L 0 24.410885 
z
"/>
     </g>
    </g>
   </g>
   <g id="line2d_21">
    <path d="M 199.69308 316.714903 
L 200.869216 316.634822 
L 201.159483 316.421144 
L 201.479502 315.730648 
L 202.22131 311.263893 
L 202.430508 309.358209 
L 202.650166 308.700813 
L 202.880808 307.335842 
L 203.122981 307.368936 
L 203.377263 306.710572 
L 203.644259 307.228477 
L 203.924605 307.110448 
L 204.218968 307.879443 
L 204.528049 308.126833 
L 204.852585 309.010689 
L 205.193347 309.507287 
L 205.551147 310.443991 
L 205.926837 311.115874 
L 206.735511 312.877368 
L 208.106559 315.760017 
L 210.888499 320.973062 
L 213.658003 325.65973 
L 217.024353 330.844907 
L 221.116173 336.573085 
L 226.089805 342.865838 
L 232.135287 349.714628 
L 237.509975 355.154117 
L 241.55592 358.946767 
L 246.016575 362.836223 
L 248.415536 364.845253 
L 253.579301 368.841681 
L 259.272352 372.87885 
L 265.548941 376.926136 
L 272.468879 380.947364 
L 280.098112 384.900177 
L 288.509341 388.735325 
L 297.782721 392.395876 
L 302.76999 394.12215 
L 308.006622 395.816367 
L 313.505086 397.398201 
L 319.278474 398.921925 
L 325.34053 400.318262 
L 331.70569 401.627429 
L 338.389107 402.791772 
L 345.406695 403.836806 
L 352.775163 404.716959 
L 360.512054 405.442632 
L 368.63579 405.980663 
L 377.165712 406.327135 
L 386.12213 406.460574 
L 395.52637 406.364123 
L 405.400821 406.026097 
L 415.768995 405.419264 
L 426.655578 404.541675 
L 438.08649 403.357681 
L 450.088947 401.875255 
L 462.691527 400.053027 
L 475.924237 397.909544 
L 489.818582 395.401248 
L 504.407643 392.558723 
L 519.726159 389.340658 
L 535.810599 385.792355 
L 570.432358 377.667877 
L 629.131123 363.373947 
L 650.685812 358.263048 
L 673.318235 353.056686 
L 697.08228 347.909969 
L 722.034527 342.855889 
L 748.234386 338.077377 
L 775.744238 333.603969 
L 804.629583 329.620096 
L 834.959195 326.116012 
L 866.805288 323.232261 
L 900.243685 320.875282 
L 935.354003 319.102008 
L 972.219836 317.635075 
L 1005.77029 316.714903 
L 1005.77029 316.714903 
" clip-path="url(#p0ee498c5a8)" style="fill: none; stroke: #000000; stroke-width: 1.2; stroke-linecap: square"/>
   </g>
   <g id="line2d_22">
    <path d="M 199.69308 316.714903 
L 199.954066 316.692818 
L 200.049902 316.407556 
L 200.15053 314.878258 
L 200.256189 304.903967 
L 200.367132 275.614957 
L 200.605935 170.638478 
L 200.869216 136.5567 
L 201.01081 129.252781 
L 201.159483 127.662906 
L 201.31559 123.888928 
L 201.479502 123.308939 
L 201.651611 120.654831 
L 201.832324 120.525608 
L 202.022073 118.530716 
L 202.22131 118.72771 
L 202.430508 117.241848 
L 202.650166 117.706057 
L 202.880808 116.652442 
L 203.122981 117.34065 
L 203.377263 116.665687 
L 203.644259 117.543851 
L 203.924605 117.205633 
L 204.218968 118.2483 
L 204.528049 118.213898 
L 204.852585 119.403634 
L 205.193347 119.648018 
L 205.551147 120.974318 
L 205.926837 121.479399 
L 206.321312 122.937417 
L 206.735511 123.691057 
L 207.170419 125.280432 
L 207.627073 126.275494 
L 208.106559 127.999389 
L 208.61002 129.232911 
L 209.138654 131.097263 
L 209.69372 132.569761 
L 210.888499 136.297593 
L 212.914162 142.773209 
L 215.259121 150.000009 
L 218.970522 161.452416 
L 226.089805 182.57153 
L 235.630326 208.732579 
L 237.509975 213.267218 
L 239.483607 218.507341 
L 241.55592 223.204281 
L 243.731849 228.707107 
L 246.016575 233.505222 
L 248.415536 239.216345 
L 250.934446 244.035345 
L 253.579301 249.877443 
L 256.356399 254.627227 
L 259.272352 260.500638 
L 262.334103 265.099344 
L 265.548941 270.894537 
L 268.92452 275.297141 
L 272.468879 280.889349 
L 276.190456 285.078515 
L 280.098112 290.360087 
L 284.201151 294.347641 
L 288.509341 299.228501 
L 293.032941 303.024967 
L 297.782721 307.475986 
L 302.76999 311.106756 
L 308.006622 315.156645 
L 319.278474 322.337658 
L 331.70569 329.076761 
L 338.389107 332.263441 
L 345.406695 335.403354 
L 352.775163 338.426599 
L 360.512054 341.314892 
L 368.63579 344.147719 
L 377.165712 346.778324 
L 386.12213 349.382893 
L 395.52637 351.733797 
L 405.400821 354.062756 
L 415.768995 356.098996 
L 426.655578 358.097092 
L 438.08649 359.773631 
L 450.088947 361.37956 
L 462.691527 362.64412 
L 475.924237 363.794578 
L 489.818582 364.5888 
L 504.407643 365.220977 
L 519.726159 365.484381 
L 535.810599 365.54013 
L 552.699262 365.216359 
L 570.432358 364.645351 
L 589.052109 363.688046 
L 608.602848 362.454505 
L 629.131123 360.835289 
L 650.685812 358.927076 
L 673.318235 356.645656 
L 697.08228 354.084001 
L 748.234386 348.029029 
L 900.243685 329.134851 
L 1005.77029 316.714903 
L 1005.77029 316.714903 
" clip-path="url(#p0ee498c5a8)" style="fill: none; stroke-dasharray: 4.44,1.92; stroke-dashoffset: 0; stroke: #000000; stroke-width: 1.2"/>
   </g>
   <g id="line2d_23">
    <path d="M 199.69308 316.714903 
L 199.954066 316.662679 
L 200.049902 315.892396 
L 200.15053 310.973954 
L 200.256189 279.459184 
L 200.605935 83.48194 
L 200.734365 63.544358 
L 200.869216 61.472863 
L 201.01081 53.424202 
L 201.159483 52.951206 
L 201.31559 47.00126 
L 201.479502 46.937748 
L 201.651611 41.980713 
L 201.832324 42.26578 
L 202.022073 38.061293 
L 202.22131 38.646426 
L 202.430508 35.071326 
L 202.650166 35.889759 
L 202.880808 32.845104 
L 203.122981 33.833198 
L 203.377263 31.233949 
L 203.644259 32.336054 
L 203.924605 30.116682 
L 204.218968 31.292394 
L 204.528049 29.401422 
L 204.852585 30.625073 
L 205.193347 29.021656 
L 205.551147 30.278398 
L 205.926837 28.930909 
L 206.321312 30.213558 
L 206.735511 29.098034 
L 207.170419 30.404803 
L 207.627073 29.503537 
L 208.106559 30.83652 
L 208.61002 30.136902 
L 209.138654 31.501082 
L 209.69372 30.994681 
L 210.276539 32.397331 
L 210.888499 32.079203 
L 211.531056 33.529569 
L 212.205742 33.397747 
L 212.914162 34.906877 
L 213.658003 34.961958 
L 214.439036 36.542641 
L 215.259121 36.787502 
L 216.12021 38.452366 
L 217.024353 38.893894 
L 217.973704 40.656844 
L 218.970522 41.304421 
L 220.017181 43.180952 
L 221.116173 44.046189 
L 222.270115 46.053504 
L 223.481753 47.150252 
L 224.753974 49.307423 
L 226.089805 50.651817 
L 227.492429 52.97994 
L 228.965183 54.59043 
L 230.511575 57.112703 
L 232.135287 59.009991 
L 233.840184 61.751673 
L 235.630326 63.958599 
L 237.509975 66.946967 
L 239.483607 69.488362 
L 241.55592 72.752371 
L 243.731849 75.65466 
L 246.016575 79.225217 
L 248.415536 82.517964 
L 250.934446 86.429513 
L 253.579301 90.1451 
L 256.356399 94.432469 
L 259.272352 98.60168 
L 262.334103 103.302381 
L 265.548941 107.954895 
L 268.92452 113.103049 
L 272.468879 118.269743 
L 280.098112 129.604451 
L 288.509341 142.004793 
L 297.782721 155.494645 
L 308.006622 170.063426 
L 319.278474 185.649015 
L 331.70569 202.115756 
L 345.406695 219.229509 
L 360.512054 236.636657 
L 377.165712 253.863141 
L 395.52637 270.356547 
L 415.768995 285.571214 
L 438.08649 299.058213 
L 450.088947 304.770255 
L 462.691527 310.559686 
L 475.924237 315.33994 
L 489.818582 320.050797 
L 504.407643 323.945364 
L 519.726159 327.657245 
L 535.810599 330.715149 
L 552.699262 333.51636 
L 570.432358 335.765725 
L 589.052109 337.714611 
L 608.602848 339.16056 
L 629.131123 340.281619 
L 650.685812 340.913075 
L 673.318235 341.206126 
L 697.08228 341.004425 
L 722.034527 340.458761 
L 748.234386 339.404281 
L 775.744238 338.011222 
L 804.629583 336.093661 
L 834.959195 333.860651 
L 866.805288 331.090286 
L 900.243685 328.054436 
L 935.354003 324.476425 
L 1005.77029 316.714903 
L 1005.77029 316.714903 
" clip-path="url(#p0ee498c5a8)" style="fill: none; stroke-dasharray: 8.32,2.08,1.3,2.08; stroke-dashoffset: 0; stroke: #000000; stroke-width: 1.3"/>
   </g>
   <g id="line2d_24">
    <path d="M 199.69308 316.714903 
L 200.049902 316.644431 
L 200.15053 316.43367 
L 200.256189 314.914459 
L 200.367132 310.740653 
L 200.605935 272.31462 
L 200.869216 225.775355 
L 201.01081 210.953166 
L 201.159483 208.374524 
L 201.31559 201.386982 
L 201.479502 200.901607 
L 201.651611 196.059983 
L 201.832324 196.046858 
L 202.022073 191.97304 
L 202.22131 192.158242 
L 202.430508 188.487213 
L 202.650166 188.795567 
L 202.880808 185.417245 
L 203.122981 185.804135 
L 203.377263 182.674778 
L 203.644259 183.102057 
L 203.924605 180.19297 
L 204.218968 180.628062 
L 204.528049 177.913128 
L 204.852585 178.33033 
L 205.193347 175.784518 
L 205.551147 176.165066 
L 205.926837 173.765261 
L 206.321312 174.096387 
L 206.735511 171.822169 
L 207.170419 172.095813 
L 207.627073 169.929774 
L 208.106559 170.141395 
L 208.61002 168.069126 
L 209.138654 168.216754 
L 209.69372 166.226653 
L 210.276539 166.310219 
L 210.888499 164.393242 
L 211.531056 164.414127 
L 212.205742 162.56355 
L 212.914162 162.524317 
L 213.658003 160.735534 
L 214.439036 160.639783 
L 215.259121 158.910149 
L 216.12021 158.762473 
L 217.024353 157.091199 
L 217.973704 156.897207 
L 218.970522 155.285299 
L 220.017181 155.051693 
L 221.116173 153.501936 
L 222.270115 153.236626 
L 223.481753 151.753609 
L 224.753974 151.465872 
L 226.089805 150.056036 
L 227.492429 149.756698 
L 228.965183 148.428432 
L 230.511575 148.130085 
L 232.135287 146.893832 
L 233.840184 146.611077 
L 235.630326 145.479482 
L 237.509975 145.229203 
L 239.483607 144.217271 
L 241.55592 144.01893 
L 243.731849 143.144211 
L 246.016575 143.020181 
L 248.415536 142.302961 
L 250.934446 142.278879 
L 253.579301 141.742393 
L 256.356399 141.847535 
L 259.272352 141.518144 
L 262.334103 141.785777 
L 265.548941 141.693238 
L 268.92452 142.161225 
L 272.468879 142.338585 
L 276.190456 143.048194 
L 280.098112 143.533413 
L 284.201151 144.528628 
L 288.509341 145.36554 
L 293.032941 146.694538 
L 297.782721 147.930914 
L 308.006622 151.332905 
L 319.278474 155.680823 
L 331.70569 161.087267 
L 345.406695 167.663755 
L 360.512054 175.513895 
L 377.165712 184.723039 
L 395.52637 195.343197 
L 450.088947 227.857907 
L 462.691527 235.189702 
L 475.924237 242.743651 
L 489.818582 250.407134 
L 504.407643 258.119366 
L 519.726159 265.819853 
L 535.810599 273.333646 
L 552.699262 280.691828 
L 570.432358 287.589184 
L 589.052109 294.183946 
L 608.602848 300.06198 
L 629.131123 305.508572 
L 650.685812 310.075078 
L 673.318235 314.130943 
L 697.08228 317.273172 
L 722.034527 319.894723 
L 748.234386 321.658071 
L 775.744238 322.941439 
L 804.629583 323.44961 
L 834.959195 323.543247 
L 866.805288 322.945235 
L 900.243685 322.016235 
L 935.354003 320.491049 
L 972.219836 318.613026 
L 1005.77029 316.714903 
L 1005.77029 316.714903 
" clip-path="url(#p0ee498c5a8)" style="fill: none; stroke-dasharray: 1.8,2.97; stroke-dashoffset: 0; stroke: #000000; stroke-width: 1.8"/>
   </g>
   <g id="PathCollection_1">
    <defs>
     <path id="m74215831b4" d="M -6.123724 0 
L 6.123724 0 
M 0 6.123724 
L 0 -6.123724 
" style="stroke: #000000; stroke-width: 1.2"/>
    </defs>
    <g clip-path="url(#p0ee498c5a8)">
     <use xlink:href="#m74215831b4" x="202.750614" y="296.086404" style="stroke: #000000; stroke-width: 1.2"/>
     <use xlink:href="#m74215831b4" x="204.307177" y="323.532047" style="stroke: #000000; stroke-width: 1.2"/>
     <use xlink:href="#m74215831b4" x="205.808148" y="309.100951" style="stroke: #000000; stroke-width: 1.2"/>
     <use xlink:href="#m74215831b4" x="208.03181" y="325.347001" style="stroke: #000000; stroke-width: 1.2"/>
     <use xlink:href="#m74215831b4" x="209.699556" y="310.20763" style="stroke: #000000; stroke-width: 1.2"/>
     <use xlink:href="#m74215831b4" x="211.923217" y="315.918094" style="stroke: #000000; stroke-width: 1.2"/>
     <use xlink:href="#m74215831b4" x="215.258709" y="328.711305" style="stroke: #000000; stroke-width: 1.2"/>
     <use xlink:href="#m74215831b4" x="218.038285" y="335.528449" style="stroke: #000000; stroke-width: 1.2"/>
     <use xlink:href="#m74215831b4" x="221.373777" y="334.997243" style="stroke: #000000; stroke-width: 1.2"/>
     <use xlink:href="#m74215831b4" x="224.153354" y="337.786074" style="stroke: #000000; stroke-width: 1.2"/>
     <use xlink:href="#m74215831b4" x="227.488846" y="332.119877" style="stroke: #000000; stroke-width: 1.2"/>
     <use xlink:href="#m74215831b4" x="230.824338" y="355.360139" style="stroke: #000000; stroke-width: 1.2"/>
     <use xlink:href="#m74215831b4" x="236.383491" y="367.445075" style="stroke: #000000; stroke-width: 1.2"/>
     <use xlink:href="#m74215831b4" x="248.613628" y="384.089529" style="stroke: #000000; stroke-width: 1.2"/>
     <use xlink:href="#m74215831b4" x="259.731934" y="358.812978" style="stroke: #000000; stroke-width: 1.2"/>
     <use xlink:href="#m74215831b4" x="273.073902" y="389.53439" style="stroke: #000000; stroke-width: 1.2"/>
     <use xlink:href="#m74215831b4" x="299.757837" y="321.805627" style="stroke: #000000; stroke-width: 1.2"/>
     <use xlink:href="#m74215831b4" x="321.99445" y="412.464782" style="stroke: #000000; stroke-width: 1.2"/>
     <use xlink:href="#m74215831b4" x="352.569792" y="411.048233" style="stroke: #000000; stroke-width: 1.2"/>
     <use xlink:href="#m74215831b4" x="380.365558" y="410.959698" style="stroke: #000000; stroke-width: 1.2"/>
     <use xlink:href="#m74215831b4" x="408.161324" y="337.210601" style="stroke: #000000; stroke-width: 1.2"/>
     <use xlink:href="#m74215831b4" x="435.95709" y="463.549091" style="stroke: #000000; stroke-width: 1.2"/>
     <use xlink:href="#m74215831b4" x="547.140153" y="391.26081" style="stroke: #000000; stroke-width: 1.2"/>
     <use xlink:href="#m74215831b4" x="599.952109" y="392.544558" style="stroke: #000000; stroke-width: 1.2"/>
     <use xlink:href="#m74215831b4" x="655.54364" y="420.609941" style="stroke: #000000; stroke-width: 1.2"/>
     <use xlink:href="#m74215831b4" x="766.726704" y="363.815167" style="stroke: #000000; stroke-width: 1.2"/>
     <use xlink:href="#m74215831b4" x="877.909767" y="326.984886" style="stroke: #000000; stroke-width: 1.2"/>
     <use xlink:href="#m74215831b4" x="1011.329444" y="260.805474" style="stroke: #000000; stroke-width: 1.2"/>
    </g>
   </g>
   <g id="PathCollection_2">
    <defs>
     <path id="mf4b83e74c5" d="M 0 0 
L 0 6.123724 
M 0 0 
L 4.898979 -3.061862 
M 0 0 
L -4.898979 -3.061862 
" style="stroke: #000000; stroke-width: 1.2"/>
    </defs>
    <g clip-path="url(#p0ee498c5a8)">
     <use xlink:href="#mf4b83e74c5" x="202.750614" y="237.653746" style="stroke: #000000; stroke-width: 1.2"/>
     <use xlink:href="#mf4b83e74c5" x="204.307177" y="253.634193" style="stroke: #000000; stroke-width: 1.2"/>
     <use xlink:href="#mf4b83e74c5" x="205.808148" y="239.512967" style="stroke: #000000; stroke-width: 1.2"/>
     <use xlink:href="#mf4b83e74c5" x="208.03181" y="220.920758" style="stroke: #000000; stroke-width: 1.2"/>
     <use xlink:href="#mf4b83e74c5" x="209.699556" y="242.257531" style="stroke: #000000; stroke-width: 1.2"/>
     <use xlink:href="#mf4b83e74c5" x="211.923217" y="229.464321" style="stroke: #000000; stroke-width: 1.2"/>
     <use xlink:href="#mf4b83e74c5" x="215.258709" y="217.777789" style="stroke: #000000; stroke-width: 1.2"/>
     <use xlink:href="#mf4b83e74c5" x="218.038285" y="195.42287" style="stroke: #000000; stroke-width: 1.2"/>
     <use xlink:href="#mf4b83e74c5" x="221.373777" y="212.908401" style="stroke: #000000; stroke-width: 1.2"/>
     <use xlink:href="#mf4b83e74c5" x="224.153354" y="218.397529" style="stroke: #000000; stroke-width: 1.2"/>
     <use xlink:href="#mf4b83e74c5" x="227.488846" y="210.606508" style="stroke: #000000; stroke-width: 1.2"/>
     <use xlink:href="#mf4b83e74c5" x="230.824338" y="213.749477" style="stroke: #000000; stroke-width: 1.2"/>
     <use xlink:href="#mf4b83e74c5" x="236.383491" y="223.311185" style="stroke: #000000; stroke-width: 1.2"/>
     <use xlink:href="#mf4b83e74c5" x="248.613628" y="252.74885" style="stroke: #000000; stroke-width: 1.2"/>
     <use xlink:href="#mf4b83e74c5" x="259.731934" y="287.454307" style="stroke: #000000; stroke-width: 1.2"/>
     <use xlink:href="#mf4b83e74c5" x="273.073902" y="293.740245" style="stroke: #000000; stroke-width: 1.2"/>
     <use xlink:href="#mf4b83e74c5" x="299.757837" y="316.582102" style="stroke: #000000; stroke-width: 1.2"/>
     <use xlink:href="#mf4b83e74c5" x="321.99445" y="339.069822" style="stroke: #000000; stroke-width: 1.2"/>
     <use xlink:href="#mf4b83e74c5" x="352.569792" y="344.55895" style="stroke: #000000; stroke-width: 1.2"/>
     <use xlink:href="#mf4b83e74c5" x="380.365558" y="365.718655" style="stroke: #000000; stroke-width: 1.2"/>
     <use xlink:href="#mf4b83e74c5" x="408.161324" y="363.195427" style="stroke: #000000; stroke-width: 1.2"/>
     <use xlink:href="#mf4b83e74c5" x="435.95709" y="379.530011" style="stroke: #000000; stroke-width: 1.2"/>
     <use xlink:href="#mf4b83e74c5" x="547.140153" y="373.77528" style="stroke: #000000; stroke-width: 1.2"/>
     <use xlink:href="#mf4b83e74c5" x="599.952109" y="403.478548" style="stroke: #000000; stroke-width: 1.2"/>
     <use xlink:href="#mf4b83e74c5" x="655.54364" y="377.449454" style="stroke: #000000; stroke-width: 1.2"/>
     <use xlink:href="#mf4b83e74c5" x="766.726704" y="370.543777" style="stroke: #000000; stroke-width: 1.2"/>
     <use xlink:href="#mf4b83e74c5" x="877.909767" y="339.025555" style="stroke: #000000; stroke-width: 1.2"/>
     <use xlink:href="#mf4b83e74c5" x="1011.329444" y="329.10971" style="stroke: #000000; stroke-width: 1.2"/>
    </g>
   </g>
   <g id="PathCollection_3">
    <defs>
     <path id="C0_0_da1994d48d" d="M -4.242641 0 
L 0 -7.071068 
L 4.242641 -0 
L 0 7.071068 
z
M -4.242641 0 
L 4.242641 -0 
M 0 -7.071068 
L 0 7.071068 
"/>
    </defs>
    <g clip-path="url(#p0ee498c5a8)">
     <use xlink:href="#C0_0_da1994d48d" x="202.750614" y="193.120978" style="fill: none; stroke: #000000; stroke-width: 0.8"/>
    </g>
    <g clip-path="url(#p0ee498c5a8)">
     <use xlink:href="#C0_0_da1994d48d" x="204.307177" y="188.605727" style="fill: none; stroke: #000000; stroke-width: 0.8"/>
    </g>
    <g clip-path="url(#p0ee498c5a8)">
     <use xlink:href="#C0_0_da1994d48d" x="205.808148" y="195.821275" style="fill: none; stroke: #000000; stroke-width: 0.8"/>
    </g>
    <g clip-path="url(#p0ee498c5a8)">
     <use xlink:href="#C0_0_da1994d48d" x="208.03181" y="184.931552" style="fill: none; stroke: #000000; stroke-width: 0.8"/>
    </g>
    <g clip-path="url(#p0ee498c5a8)">
     <use xlink:href="#C0_0_da1994d48d" x="209.699556" y="179.885095" style="fill: none; stroke: #000000; stroke-width: 0.8"/>
    </g>
    <g clip-path="url(#p0ee498c5a8)">
     <use xlink:href="#C0_0_da1994d48d" x="211.923217" y="91.837703" style="fill: none; stroke: #000000; stroke-width: 0.8"/>
    </g>
    <g clip-path="url(#p0ee498c5a8)">
     <use xlink:href="#C0_0_da1994d48d" x="215.258709" y="104.763716" style="fill: none; stroke: #000000; stroke-width: 0.8"/>
    </g>
    <g clip-path="url(#p0ee498c5a8)">
     <use xlink:href="#C0_0_da1994d48d" x="218.038285" y="93.032917" style="fill: none; stroke: #000000; stroke-width: 0.8"/>
    </g>
    <g clip-path="url(#p0ee498c5a8)">
     <use xlink:href="#C0_0_da1994d48d" x="221.373777" y="116.361713" style="fill: none; stroke: #000000; stroke-width: 0.8"/>
    </g>
    <g clip-path="url(#p0ee498c5a8)">
     <use xlink:href="#C0_0_da1994d48d" x="224.153354" y="97.636702" style="fill: none; stroke: #000000; stroke-width: 0.8"/>
    </g>
    <g clip-path="url(#p0ee498c5a8)">
     <use xlink:href="#C0_0_da1994d48d" x="227.488846" y="82.98427" style="fill: none; stroke: #000000; stroke-width: 0.8"/>
    </g>
    <g clip-path="url(#p0ee498c5a8)">
     <use xlink:href="#C0_0_da1994d48d" x="230.824338" y="102.683159" style="fill: none; stroke: #000000; stroke-width: 0.8"/>
    </g>
    <g clip-path="url(#p0ee498c5a8)">
     <use xlink:href="#C0_0_da1994d48d" x="236.383491" y="93.29852" style="fill: none; stroke: #000000; stroke-width: 0.8"/>
    </g>
    <g clip-path="url(#p0ee498c5a8)">
     <use xlink:href="#C0_0_da1994d48d" x="248.613628" y="80.770912" style="fill: none; stroke: #000000; stroke-width: 0.8"/>
    </g>
    <g clip-path="url(#p0ee498c5a8)">
     <use xlink:href="#C0_0_da1994d48d" x="259.731934" y="91.749169" style="fill: none; stroke: #000000; stroke-width: 0.8"/>
    </g>
    <g clip-path="url(#p0ee498c5a8)">
     <use xlink:href="#C0_0_da1994d48d" x="273.073902" y="112.377668" style="fill: none; stroke: #000000; stroke-width: 0.8"/>
    </g>
    <g clip-path="url(#p0ee498c5a8)">
     <use xlink:href="#C0_0_da1994d48d" x="299.757837" y="161.115817" style="fill: none; stroke: #000000; stroke-width: 0.8"/>
    </g>
    <g clip-path="url(#p0ee498c5a8)">
     <use xlink:href="#C0_0_da1994d48d" x="321.99445" y="194.49326" style="fill: none; stroke: #000000; stroke-width: 0.8"/>
    </g>
    <g clip-path="url(#p0ee498c5a8)">
     <use xlink:href="#C0_0_da1994d48d" x="352.569792" y="245.666103" style="fill: none; stroke: #000000; stroke-width: 0.8"/>
    </g>
    <g clip-path="url(#p0ee498c5a8)">
     <use xlink:href="#C0_0_da1994d48d" x="380.365558" y="268.685029" style="fill: none; stroke: #000000; stroke-width: 0.8"/>
    </g>
    <g clip-path="url(#p0ee498c5a8)">
     <use xlink:href="#C0_0_da1994d48d" x="408.161324" y="308.702547" style="fill: none; stroke: #000000; stroke-width: 0.8"/>
    </g>
    <g clip-path="url(#p0ee498c5a8)">
     <use xlink:href="#C0_0_da1994d48d" x="435.95709" y="324.151787" style="fill: none; stroke: #000000; stroke-width: 0.8"/>
    </g>
    <g clip-path="url(#p0ee498c5a8)">
     <use xlink:href="#C0_0_da1994d48d" x="547.140153" y="355.847078" style="fill: none; stroke: #000000; stroke-width: 0.8"/>
    </g>
    <g clip-path="url(#p0ee498c5a8)">
     <use xlink:href="#C0_0_da1994d48d" x="599.952109" y="358.857245" style="fill: none; stroke: #000000; stroke-width: 0.8"/>
    </g>
    <g clip-path="url(#p0ee498c5a8)">
     <use xlink:href="#C0_0_da1994d48d" x="655.54364" y="356.245482" style="fill: none; stroke: #000000; stroke-width: 0.8"/>
    </g>
    <g clip-path="url(#p0ee498c5a8)">
     <use xlink:href="#C0_0_da1994d48d" x="766.726704" y="349.516873" style="fill: none; stroke: #000000; stroke-width: 0.8"/>
    </g>
    <g clip-path="url(#p0ee498c5a8)">
     <use xlink:href="#C0_0_da1994d48d" x="877.909767" y="334.687373" style="fill: none; stroke: #000000; stroke-width: 0.8"/>
    </g>
    <g clip-path="url(#p0ee498c5a8)">
     <use xlink:href="#C0_0_da1994d48d" x="1011.329444" y="314.855682" style="fill: none; stroke: #000000; stroke-width: 0.8"/>
    </g>
   </g>
   <g id="PathCollection_4">
    <defs>
     <path id="C1_0_20a5b52c63" d="M -4.12479 -1.767767 
L 4.12479 -1.767767 
L 0 7.071068 
z
M -4.12479 -1.767767 
L 0 2.268046 
M 4.12479 -1.767767 
L 0 2.268046 
M 0 7.071068 
L 0 2.268046 
"/>
    </defs>
    <g clip-path="url(#p0ee498c5a8)">
     <use xlink:href="#C1_0_20a5b52c63" x="202.750614" y="257.308368" style="fill: none; stroke: #000000; stroke-width: 0.8"/>
    </g>
    <g clip-path="url(#p0ee498c5a8)">
     <use xlink:href="#C1_0_20a5b52c63" x="204.307177" y="272.270669" style="fill: none; stroke: #000000; stroke-width: 0.8"/>
    </g>
    <g clip-path="url(#p0ee498c5a8)">
     <use xlink:href="#C1_0_20a5b52c63" x="205.808148" y="240.486845" style="fill: none; stroke: #000000; stroke-width: 0.8"/>
    </g>
    <g clip-path="url(#p0ee498c5a8)">
     <use xlink:href="#C1_0_20a5b52c63" x="208.03181" y="243.231409" style="fill: none; stroke: #000000; stroke-width: 0.8"/>
    </g>
    <g clip-path="url(#p0ee498c5a8)">
     <use xlink:href="#C1_0_20a5b52c63" x="209.699556" y="257.529703" style="fill: none; stroke: #000000; stroke-width: 0.8"/>
    </g>
    <g clip-path="url(#p0ee498c5a8)">
     <use xlink:href="#C1_0_20a5b52c63" x="211.923217" y="211.580386" style="fill: none; stroke: #000000; stroke-width: 0.8"/>
    </g>
    <g clip-path="url(#p0ee498c5a8)">
     <use xlink:href="#C1_0_20a5b52c63" x="215.258709" y="226.365619" style="fill: none; stroke: #000000; stroke-width: 0.8"/>
    </g>
    <g clip-path="url(#p0ee498c5a8)">
     <use xlink:href="#C1_0_20a5b52c63" x="218.038285" y="199.318381" style="fill: none; stroke: #000000; stroke-width: 0.8"/>
    </g>
    <g clip-path="url(#p0ee498c5a8)">
     <use xlink:href="#C1_0_20a5b52c63" x="221.373777" y="220.965025" style="fill: none; stroke: #000000; stroke-width: 0.8"/>
    </g>
    <g clip-path="url(#p0ee498c5a8)">
     <use xlink:href="#C1_0_20a5b52c63" x="224.153354" y="187.720384" style="fill: none; stroke: #000000; stroke-width: 0.8"/>
    </g>
    <g clip-path="url(#p0ee498c5a8)">
     <use xlink:href="#C1_0_20a5b52c63" x="227.488846" y="186.392369" style="fill: none; stroke: #000000; stroke-width: 0.8"/>
    </g>
    <g clip-path="url(#p0ee498c5a8)">
     <use xlink:href="#C1_0_20a5b52c63" x="230.824338" y="187.366246" style="fill: none; stroke: #000000; stroke-width: 0.8"/>
    </g>
    <g clip-path="url(#p0ee498c5a8)">
     <use xlink:href="#C1_0_20a5b52c63" x="236.383491" y="168.021495" style="fill: none; stroke: #000000; stroke-width: 0.8"/>
    </g>
    <g clip-path="url(#p0ee498c5a8)">
     <use xlink:href="#C1_0_20a5b52c63" x="248.613628" y="169.482311" style="fill: none; stroke: #000000; stroke-width: 0.8"/>
    </g>
    <g clip-path="url(#p0ee498c5a8)">
     <use xlink:href="#C1_0_20a5b52c63" x="259.731934" y="142.700676" style="fill: none; stroke: #000000; stroke-width: 0.8"/>
    </g>
    <g clip-path="url(#p0ee498c5a8)">
     <use xlink:href="#C1_0_20a5b52c63" x="273.073902" y="124.905276" style="fill: none; stroke: #000000; stroke-width: 0.8"/>
    </g>
    <g clip-path="url(#p0ee498c5a8)">
     <use xlink:href="#C1_0_20a5b52c63" x="299.757837" y="138.495296" style="fill: none; stroke: #000000; stroke-width: 0.8"/>
    </g>
    <g clip-path="url(#p0ee498c5a8)">
     <use xlink:href="#C1_0_20a5b52c63" x="321.99445" y="133.670175" style="fill: none; stroke: #000000; stroke-width: 0.8"/>
    </g>
    <g clip-path="url(#p0ee498c5a8)">
     <use xlink:href="#C1_0_20a5b52c63" x="352.569792" y="98.389244" style="fill: none; stroke: #000000; stroke-width: 0.8"/>
    </g>
    <g clip-path="url(#p0ee498c5a8)">
     <use xlink:href="#C1_0_20a5b52c63" x="380.365558" y="141.372661" style="fill: none; stroke: #000000; stroke-width: 0.8"/>
    </g>
    <g clip-path="url(#p0ee498c5a8)">
     <use xlink:href="#C1_0_20a5b52c63" x="408.161324" y="150.270362" style="fill: none; stroke: #000000; stroke-width: 0.8"/>
    </g>
    <g clip-path="url(#p0ee498c5a8)">
     <use xlink:href="#C1_0_20a5b52c63" x="435.95709" y="132.120824" style="fill: none; stroke: #000000; stroke-width: 0.8"/>
    </g>
    <g clip-path="url(#p0ee498c5a8)">
     <use xlink:href="#C1_0_20a5b52c63" x="547.140153" y="156.910437" style="fill: none; stroke: #000000; stroke-width: 0.8"/>
    </g>
    <g clip-path="url(#p0ee498c5a8)">
     <use xlink:href="#C1_0_20a5b52c63" x="599.952109" y="165.808137" style="fill: none; stroke: #000000; stroke-width: 0.8"/>
    </g>
    <g clip-path="url(#p0ee498c5a8)">
     <use xlink:href="#C1_0_20a5b52c63" x="655.54364" y="234.77638" style="fill: none; stroke: #000000; stroke-width: 0.8"/>
    </g>
    <g clip-path="url(#p0ee498c5a8)">
     <use xlink:href="#C1_0_20a5b52c63" x="766.726704" y="254.253933" style="fill: none; stroke: #000000; stroke-width: 0.8"/>
    </g>
    <g clip-path="url(#p0ee498c5a8)">
     <use xlink:href="#C1_0_20a5b52c63" x="877.909767" y="277.759798" style="fill: none; stroke: #000000; stroke-width: 0.8"/>
    </g>
    <g clip-path="url(#p0ee498c5a8)">
     <use xlink:href="#C1_0_20a5b52c63" x="1011.329444" y="301.221396" style="fill: none; stroke: #000000; stroke-width: 0.8"/>
    </g>
   </g>
   <g id="patch_3">
    <path d="M 159.111262 485.28 
L 159.111262 7.2 
" style="fill: none; stroke: #000000; stroke-width: 0.8; stroke-linejoin: miter; stroke-linecap: square"/>
   </g>
   <g id="patch_4">
    <path d="M 1051.911262 485.28 
L 1051.911262 7.2 
" style="fill: none; stroke: #000000; stroke-width: 0.8; stroke-linejoin: miter; stroke-linecap: square"/>
   </g>
   <g id="patch_5">
    <path d="M 159.111262 485.28 
L 1051.911262 485.28 
" style="fill: none; stroke: #000000; stroke-width: 0.8; stroke-linejoin: miter; stroke-linecap: square"/>
   </g>
   <g id="patch_6">
    <path d="M 159.111262 7.2 
L 1051.911262 7.2 
" style="fill: none; stroke: #000000; stroke-width: 0.8; stroke-linejoin: miter; stroke-linecap: square"/>
   </g>
   <g id="legend_1">
    <g id="patch_7">
     <path d="M 502.435887 134.702534 
L 1037.911262 134.702534 
Q 1041.911262 134.702534 1041.911262 130.702534 
L 1041.911262 21.2 
Q 1041.911262 17.2 1037.911262 17.2 
L 502.435887 17.2 
Q 498.435887 17.2 498.435887 21.2 
L 498.435887 130.702534 
Q 498.435887 134.702534 502.435887 134.702534 
z
" style="fill: #ffffff; opacity: 0.8; stroke: #cccccc; stroke-linejoin: miter"/>
    </g>
    <g id="line2d_25">
     <path d="M 506.435887 32.2 
L 526.435887 32.2 
L 546.435887 32.2 
" style="fill: none; stroke: #000000; stroke-width: 1.2; stroke-linecap: square"/>
    </g>
    <g id="text_13">
     <!-- $\omega t = 0\:\unit{\degree}$ - - Model -->
     <g transform="translate(562.435887 39.2) scale(0.2 -0.2)">
      <defs>
       <path id="CMMI12-21" d="M 3802 2395 
C 3802 2580 3750 2816 3526 2816 
C 3398 2816 3251 2657 3251 2529 
C 3251 2472 3277 2434 3328 2376 
C 3424 2268 3546 2096 3546 1797 
C 3546 1567 3405 1204 3302 1007 
C 3123 656 2829 357 2496 357 
C 2093 357 1939 615 1869 975 
C 1939 1143 2086 1560 2086 1728 
C 2086 1798 2061 1856 1978 1856 
C 1933 1856 1882 1831 1850 1779 
C 1760 1638 1677 1129 1683 994 
C 1562 756 1216 357 806 357 
C 378 357 262 733 262 1096 
C 262 1758 678 2338 794 2497 
C 858 2593 902 2657 902 2669 
C 902 2714 877 2784 819 2784 
C 717 2784 685 2701 634 2625 
C 307 2121 77 1414 77 803 
C 77 408 224 -64 704 -64 
C 1235 -64 1568 391 1702 634 
C 1754 275 1946 -64 2413 -64 
C 2899 -64 3206 363 3437 879 
C 3603 1249 3802 2045 3802 2395 
z
" transform="scale(0.015625)"/>
       <path id="CMMI12-74" d="M 1286 2566 
L 1875 2566 
C 1997 2566 2061 2566 2061 2681 
C 2061 2752 2022 2752 1894 2752 
L 1331 2752 
L 1568 3692 
C 1594 3781 1594 3794 1594 3840 
C 1594 3943 1510 4000 1427 4000 
C 1376 4000 1229 3981 1178 3775 
L 928 2752 
L 326 2752 
C 198 2752 141 2752 141 2630 
C 141 2566 186 2566 307 2566 
L 877 2566 
L 454 881 
C 403 658 384 594 384 511 
C 384 211 595 -64 954 -64 
C 1600 -64 1946 868 1946 912 
C 1946 951 1920 970 1882 970 
C 1869 970 1843 970 1830 944 
C 1824 938 1818 931 1773 829 
C 1638 511 1344 64 973 64 
C 781 64 768 224 768 364 
C 768 370 768 492 787 568 
L 1286 2566 
z
" transform="scale(0.015625)"/>
       <path id="CMR17-3d" d="M 4115 2017 
C 4211 2017 4307 2017 4307 2125 
C 4307 2240 4198 2240 4090 2240 
L 512 2240 
C 403 2240 294 2240 294 2125 
C 294 2017 390 2017 486 2017 
L 4115 2017 
z
M 4090 896 
C 4198 896 4307 896 4307 1011 
C 4307 1119 4211 1119 4115 1119 
L 486 1119 
C 390 1119 294 1119 294 1011 
C 294 896 403 896 512 896 
L 4090 896 
z
" transform="scale(0.015625)"/>
       <path id="CMSY10-e" d="M 2842 1600 
C 2842 2277 2272 2828 1600 2828 
C 909 2828 352 2264 352 1600 
C 352 930 909 372 1600 372 
C 2272 372 2842 923 2842 1600 
z
M 1600 628 
C 1043 628 608 1070 608 1600 
C 608 2130 1050 2572 1600 2572 
C 2131 2572 2586 2142 2586 1600 
C 2586 1058 2131 628 1600 628 
z
" transform="scale(0.015625)"/>
       <path id="CMR17-7b" d="M 2970 1664 
L 2970 1766 
L -38 1766 
L -38 1664 
L 2970 1664 
z
" transform="scale(0.015625)"/>
       <path id="CMR17-4d" d="M 1338 4224 
C 1299 4320 1293 4320 1158 4320 
L 339 4320 
L 339 4160 
C 781 4160 851 4160 851 3875 
L 851 610 
C 851 451 851 153 339 153 
L 339 -13 
C 486 0 755 0 915 0 
C 1075 0 1344 0 1491 -13 
L 1491 153 
C 979 153 979 451 979 610 
L 979 4135 
L 986 4135 
L 2490 89 
C 2515 25 2528 -13 2579 -13 
C 2630 -13 2643 25 2669 89 
L 4186 4166 
L 4192 4166 
L 4192 438 
C 4192 153 4122 153 3680 153 
L 3680 -13 
C 3853 0 4198 0 4384 0 
C 4570 0 4922 0 5094 -13 
L 5094 153 
C 4653 153 4582 153 4582 438 
L 4582 3875 
C 4582 4160 4653 4160 5094 4160 
L 5094 4320 
L 4282 4320 
C 4147 4320 4141 4314 4102 4218 
L 2720 502 
L 1338 4224 
z
" transform="scale(0.015625)"/>
       <path id="CMR17-6f" d="M 2758 1356 
C 2758 2176 2163 2816 1466 2816 
C 768 2816 173 2176 173 1356 
C 173 551 768 -64 1466 -64 
C 2163 -64 2758 551 2758 1356 
z
M 1466 51 
C 1165 51 909 230 762 480 
C 602 767 582 1126 582 1408 
C 582 1677 595 2010 762 2298 
C 890 2509 1139 2714 1466 2714 
C 1754 2714 1997 2554 2150 2330 
C 2349 2029 2349 1607 2349 1408 
C 2349 1158 2336 775 2163 467 
C 1984 173 1709 51 1466 51 
z
" transform="scale(0.015625)"/>
       <path id="CMR17-64" d="M 1869 4326 
L 1869 4160 
C 2246 4160 2304 4122 2304 3820 
L 2304 2345 
C 2278 2377 2016 2790 1498 2790 
C 845 2790 211 2208 211 1364 
C 211 525 806 -64 1434 -64 
C 1978 -64 2259 337 2291 380 
L 2291 -63 
L 3066 -63 
L 3066 128 
C 2688 128 2630 166 2630 473 
L 2630 4396 
L 1869 4326 
z
M 2291 755 
C 2291 563 2176 390 2029 262 
C 1811 70 1594 38 1472 38 
C 1286 38 621 134 621 1356 
C 621 2612 1363 2688 1530 2688 
C 1824 2688 2061 2522 2208 2291 
C 2291 2157 2291 2138 2291 2023 
L 2291 755 
z
" transform="scale(0.015625)"/>
       <path id="CMR17-65" d="M 2438 1472 
C 2464 1498 2464 1511 2464 1576 
C 2464 2238 2118 2816 1389 2816 
C 710 2816 173 2169 173 1383 
C 173 551 781 -64 1459 -64 
C 2176 -64 2458 607 2458 740 
C 2458 784 2419 784 2406 784 
C 2362 784 2355 771 2330 696 
C 2189 265 1837 51 1504 51 
C 1229 51 954 203 781 480 
C 582 803 582 1176 582 1472 
L 2438 1472 
z
M 589 1568 
C 634 2505 1126 2714 1382 2714 
C 1818 2714 2112 2297 2118 1568 
L 589 1568 
z
" transform="scale(0.015625)"/>
       <path id="CMR17-6c" d="M 979 4396 
L 218 4326 
L 218 4160 
C 595 4160 653 4122 653 3817 
L 653 426 
C 653 184 627 153 218 153 
L 218 -13 
C 371 0 653 0 813 0 
C 979 0 1261 0 1414 -13 
L 1414 153 
C 1005 153 979 178 979 426 
L 979 4396 
z
" transform="scale(0.015625)"/>
      </defs>
      <use xlink:href="#CMMI12-21" transform="scale(0.996264)"/>
      <use xlink:href="#CMMI12-74" transform="translate(64.318346 0) scale(0.996264)"/>
      <use xlink:href="#CMR17-3d" transform="translate(127.218685 0) scale(0.996264)"/>
      <use xlink:href="#CMR17-30" transform="translate(226.607482 0) scale(0.996264)"/>
      <use xlink:href="#CMSY10-e" transform="translate(294.437166 36.153639) scale(0.697382)"/>
      <use xlink:href="#CMR17-7b" transform="translate(359.880474 0) scale(0.996264)"/>
      <use xlink:href="#CMR17-4d" transform="translate(435.646918 0) scale(0.996264)"/>
      <use xlink:href="#CMR17-6f" transform="translate(520.333859 0) scale(0.996264)"/>
      <use xlink:href="#CMR17-64" transform="translate(568.626774 0) scale(0.996264)"/>
      <use xlink:href="#CMR17-65" transform="translate(619.522144 0) scale(0.996264)"/>
      <use xlink:href="#CMR17-6c" transform="translate(660.007805 0) scale(0.996264)"/>
     </g>
    </g>
    <g id="line2d_26">
     <path d="M 506.435887 60.075634 
L 526.435887 60.075634 
L 546.435887 60.075634 
" style="fill: none; stroke-dasharray: 4.44,1.92; stroke-dashoffset: 0; stroke: #000000; stroke-width: 1.2"/>
    </g>
    <g id="text_14">
     <!-- $\omega t = 45\:\unit{\degree}$ - - Model -->
     <g transform="translate(562.435887 67.075634) scale(0.2 -0.2)">
      <use xlink:href="#CMMI12-21" transform="scale(0.996264)"/>
      <use xlink:href="#CMMI12-74" transform="translate(64.318346 0) scale(0.996264)"/>
      <use xlink:href="#CMR17-3d" transform="translate(127.218685 0) scale(0.996264)"/>
      <use xlink:href="#CMR17-34" transform="translate(226.607482 0) scale(0.996264)"/>
      <use xlink:href="#CMR17-35" transform="translate(272.297959 0) scale(0.996264)"/>
      <use xlink:href="#CMSY10-e" transform="translate(340.127643 36.153639) scale(0.697382)"/>
      <use xlink:href="#CMR17-7b" transform="translate(405.570952 0) scale(0.996264)"/>
      <use xlink:href="#CMR17-4d" transform="translate(481.337395 0) scale(0.996264)"/>
      <use xlink:href="#CMR17-6f" transform="translate(566.024336 0) scale(0.996264)"/>
      <use xlink:href="#CMR17-64" transform="translate(614.317251 0) scale(0.996264)"/>
      <use xlink:href="#CMR17-65" transform="translate(665.212621 0) scale(0.996264)"/>
      <use xlink:href="#CMR17-6c" transform="translate(705.698282 0) scale(0.996264)"/>
     </g>
    </g>
    <g id="line2d_27">
     <path d="M 506.435887 87.951267 
L 526.435887 87.951267 
L 546.435887 87.951267 
" style="fill: none; stroke-dasharray: 8.32,2.08,1.3,2.08; stroke-dashoffset: 0; stroke: #000000; stroke-width: 1.3"/>
    </g>
    <g id="text_15">
     <!-- $\omega t = 90\:\unit{\degree}$ - - Model -->
     <g transform="translate(562.435887 94.951267) scale(0.2 -0.2)">
      <defs>
       <path id="CMR17-39" d="M 2253 1864 
C 2253 464 1670 31 1190 31 
C 1043 31 685 31 538 294 
C 704 268 826 357 826 518 
C 826 692 685 749 595 749 
C 538 749 365 723 365 506 
C 365 71 742 -128 1203 -128 
C 1939 -128 2688 674 2688 2073 
C 2688 3817 1971 4179 1485 4179 
C 851 4179 243 3628 243 2778 
C 243 1991 762 1408 1414 1408 
C 1952 1408 2189 1903 2253 2112 
L 2253 1864 
z
M 1427 1510 
C 1254 1510 1011 1542 813 1922 
C 678 2169 678 2461 678 2771 
C 678 3146 678 3405 858 3684 
C 947 3817 1114 4032 1485 4032 
C 2240 4032 2240 2885 2240 2632 
C 2240 2182 2035 1510 1427 1510 
z
" transform="scale(0.015625)"/>
      </defs>
      <use xlink:href="#CMMI12-21" transform="scale(0.996264)"/>
      <use xlink:href="#CMMI12-74" transform="translate(64.318346 0) scale(0.996264)"/>
      <use xlink:href="#CMR17-3d" transform="translate(127.218685 0) scale(0.996264)"/>
      <use xlink:href="#CMR17-39" transform="translate(226.607482 0) scale(0.996264)"/>
      <use xlink:href="#CMR17-30" transform="translate(272.297959 0) scale(0.996264)"/>
      <use xlink:href="#CMSY10-e" transform="translate(340.127643 36.153639) scale(0.697382)"/>
      <use xlink:href="#CMR17-7b" transform="translate(405.570952 0) scale(0.996264)"/>
      <use xlink:href="#CMR17-4d" transform="translate(481.337395 0) scale(0.996264)"/>
      <use xlink:href="#CMR17-6f" transform="translate(566.024336 0) scale(0.996264)"/>
      <use xlink:href="#CMR17-64" transform="translate(614.317251 0) scale(0.996264)"/>
      <use xlink:href="#CMR17-65" transform="translate(665.212621 0) scale(0.996264)"/>
      <use xlink:href="#CMR17-6c" transform="translate(705.698282 0) scale(0.996264)"/>
     </g>
    </g>
    <g id="line2d_28">
     <path d="M 506.435887 115.826901 
L 526.435887 115.826901 
L 546.435887 115.826901 
" style="fill: none; stroke-dasharray: 1.8,2.97; stroke-dashoffset: 0; stroke: #000000; stroke-width: 1.8"/>
    </g>
    <g id="text_16">
     <!-- $\omega t = 135\:\unit{\degree}$ - - Model -->
     <g transform="translate(562.435887 122.826901) scale(0.2 -0.2)">
      <use xlink:href="#CMMI12-21" transform="scale(0.996264)"/>
      <use xlink:href="#CMMI12-74" transform="translate(64.318346 0) scale(0.996264)"/>
      <use xlink:href="#CMR17-3d" transform="translate(127.218685 0) scale(0.996264)"/>
      <use xlink:href="#CMR17-31" transform="translate(226.607482 0) scale(0.996264)"/>
      <use xlink:href="#CMR17-33" transform="translate(272.297959 0) scale(0.996264)"/>
      <use xlink:href="#CMR17-35" transform="translate(317.988436 0) scale(0.996264)"/>
      <use xlink:href="#CMSY10-e" transform="translate(385.81812 36.153639) scale(0.697382)"/>
      <use xlink:href="#CMR17-7b" transform="translate(451.261429 0) scale(0.996264)"/>
      <use xlink:href="#CMR17-4d" transform="translate(527.027872 0) scale(0.996264)"/>
      <use xlink:href="#CMR17-6f" transform="translate(611.714813 0) scale(0.996264)"/>
      <use xlink:href="#CMR17-64" transform="translate(660.007729 0) scale(0.996264)"/>
      <use xlink:href="#CMR17-65" transform="translate(710.903098 0) scale(0.996264)"/>
      <use xlink:href="#CMR17-6c" transform="translate(751.388759 0) scale(0.996264)"/>
     </g>
    </g>
    <g id="PathCollection_5">
     <g>
      <use xlink:href="#m74215831b4" x="778.086131" y="33.95" style="stroke: #000000; stroke-width: 1.2"/>
     </g>
    </g>
    <g id="text_17">
     <!-- $\omega t = 135\:\unit{\degree}$ - - Measurements -->
     <g transform="translate(814.086131 39.2) scale(0.2 -0.2)">
      <defs>
       <path id="CMR17-61" d="M 2304 1653 
C 2304 2072 2304 2294 2035 2543 
C 1798 2752 1523 2816 1306 2816 
C 800 2816 435 2407 435 1971 
C 435 1728 627 1728 666 1728 
C 749 1728 896 1778 896 1954 
C 896 2112 774 2181 666 2181 
C 640 2181 608 2174 589 2168 
C 723 2592 1069 2714 1293 2714 
C 1613 2714 1965 2429 1965 1885 
L 1965 1600 
C 1587 1600 1133 1549 774 1357 
C 371 1133 256 813 256 570 
C 256 77 832 -64 1171 -64 
C 1523 -64 1850 139 1990 511 
C 2003 233 2182 -18 2464 -18 
C 2598 -18 2938 70 2938 567 
L 2938 920 
L 2822 920 
L 2822 562 
C 2822 178 2650 128 2566 128 
C 2304 128 2304 458 2304 738 
L 2304 1653 
z
M 1965 870 
C 1965 317 1568 38 1216 38 
C 896 38 646 275 646 570 
C 646 761 730 1100 1101 1305 
C 1408 1478 1760 1504 1965 1504 
L 1965 870 
z
" transform="scale(0.015625)"/>
       <path id="CMR17-73" d="M 1978 2697 
C 1978 2813 1971 2819 1933 2819 
C 1907 2819 1901 2813 1824 2717 
C 1805 2691 1747 2626 1728 2601 
C 1523 2819 1235 2819 1126 2819 
C 416 2819 160 2447 160 2076 
C 160 1498 813 1365 998 1325 
C 1402 1243 1542 1217 1677 1101 
C 1760 1025 1901 884 1901 654 
C 1901 384 1747 38 1158 38 
C 602 38 403 460 288 1021 
C 269 1110 269 1117 218 1117 
C 166 1117 160 1110 160 983 
L 160 63 
C 160 -51 166 -58 205 -58 
C 237 -58 243 -51 275 0 
C 314 57 410 211 448 276 
C 576 103 800 -64 1158 -64 
C 1792 -64 2131 283 2131 784 
C 2131 1112 1958 1285 1875 1362 
C 1683 1561 1459 1606 1190 1657 
C 838 1735 390 1825 390 2217 
C 390 2383 480 2737 1126 2737 
C 1811 2737 1850 2094 1862 1888 
C 1869 1856 1901 1849 1920 1849 
C 1978 1849 1978 1869 1978 1978 
L 1978 2697 
z
" transform="scale(0.015625)"/>
       <path id="CMR17-75" d="M 1882 2693 
L 1882 2528 
C 2259 2528 2317 2489 2317 2186 
L 2317 1032 
C 2317 500 2029 38 1555 38 
C 1030 38 986 348 986 678 
L 986 2763 
L 211 2693 
L 211 2528 
C 467 2528 640 2528 646 2274 
L 646 1058 
C 646 633 646 361 813 183 
C 896 101 1056 -64 1517 -64 
C 2061 -64 2272 377 2323 506 
L 2330 506 
L 2330 -63 
L 3091 -63 
L 3091 128 
C 2714 128 2656 166 2656 473 
L 2656 2763 
L 1882 2693 
z
" transform="scale(0.015625)"/>
       <path id="CMR17-72" d="M 960 1497 
C 960 2112 1222 2688 1702 2688 
C 1747 2688 1792 2682 1837 2662 
C 1837 2662 1696 2617 1696 2452 
C 1696 2298 1818 2234 1914 2234 
C 1990 2234 2131 2279 2131 2458 
C 2131 2663 1926 2790 1709 2790 
C 1222 2790 1011 2317 947 2093 
L 941 2093 
L 941 2790 
L 198 2720 
L 198 2554 
C 576 2554 634 2515 634 2208 
L 634 428 
C 634 184 608 153 198 153 
L 198 -13 
C 352 0 646 0 813 0 
C 998 0 1325 0 1498 -13 
L 1498 153 
C 1037 153 960 153 960 440 
L 960 1497 
z
" transform="scale(0.015625)"/>
       <path id="CMR17-6d" d="M 4326 1933 
C 4326 2252 4269 2790 3507 2790 
C 3072 2790 2771 2496 2656 2151 
L 2650 2151 
C 2573 2676 2195 2790 1837 2790 
C 1331 2790 1069 2400 973 2144 
L 966 2144 
L 966 2790 
L 211 2720 
L 211 2554 
C 589 2554 646 2515 646 2208 
L 646 428 
C 646 184 621 153 211 153 
L 211 -13 
C 365 0 646 0 813 0 
C 979 0 1267 0 1421 -13 
L 1421 153 
C 1011 153 986 178 986 428 
L 986 1658 
C 986 2247 1344 2688 1792 2688 
C 2266 2688 2317 2266 2317 1958 
L 2317 428 
C 2317 184 2291 153 1882 153 
L 1882 -13 
C 2035 0 2317 0 2483 0 
C 2650 0 2938 0 3091 -13 
L 3091 153 
C 2682 153 2656 178 2656 428 
L 2656 1658 
C 2656 2247 3014 2688 3462 2688 
C 3936 2688 3987 2266 3987 1958 
L 3987 428 
C 3987 184 3962 153 3552 153 
L 3552 -13 
C 3706 0 3987 0 4154 0 
C 4320 0 4608 0 4762 -13 
L 4762 153 
C 4352 153 4326 178 4326 428 
L 4326 1933 
z
" transform="scale(0.015625)"/>
       <path id="CMR17-6e" d="M 2656 1933 
C 2656 2259 2592 2790 1837 2790 
C 1331 2790 1069 2400 973 2144 
L 966 2144 
L 966 2790 
L 211 2720 
L 211 2554 
C 589 2554 646 2515 646 2208 
L 646 428 
C 646 184 621 153 211 153 
L 211 -13 
C 365 0 646 0 813 0 
C 979 0 1267 0 1421 -13 
L 1421 153 
C 1011 153 986 178 986 428 
L 986 1658 
C 986 2247 1344 2688 1792 2688 
C 2266 2688 2317 2266 2317 1958 
L 2317 428 
C 2317 184 2291 153 1882 153 
L 1882 -13 
C 2035 0 2317 0 2483 0 
C 2650 0 2938 0 3091 -13 
L 3091 153 
C 2682 153 2656 178 2656 428 
L 2656 1933 
z
" transform="scale(0.015625)"/>
       <path id="CMR17-74" d="M 966 2560 
L 1862 2560 
L 1862 2725 
L 966 2725 
L 966 3904 
L 851 3904 
C 838 3245 614 2668 70 2668 
L 70 2560 
L 627 2560 
L 627 771 
C 627 650 627 -64 1370 -64 
C 1747 -64 1965 306 1965 777 
L 1965 1140 
L 1850 1140 
L 1850 783 
C 1850 344 1677 51 1408 51 
C 1222 51 966 178 966 758 
L 966 2560 
z
" transform="scale(0.015625)"/>
      </defs>
      <use xlink:href="#CMMI12-21" transform="scale(0.996264)"/>
      <use xlink:href="#CMMI12-74" transform="translate(64.318346 0) scale(0.996264)"/>
      <use xlink:href="#CMR17-3d" transform="translate(127.218685 0) scale(0.996264)"/>
      <use xlink:href="#CMR17-31" transform="translate(226.607482 0) scale(0.996264)"/>
      <use xlink:href="#CMR17-33" transform="translate(272.297959 0) scale(0.996264)"/>
      <use xlink:href="#CMR17-35" transform="translate(317.988436 0) scale(0.996264)"/>
      <use xlink:href="#CMSY10-e" transform="translate(385.81812 36.153639) scale(0.697382)"/>
      <use xlink:href="#CMR17-7b" transform="translate(451.261429 0) scale(0.996264)"/>
      <use xlink:href="#CMR17-4d" transform="translate(527.027872 0) scale(0.996264)"/>
      <use xlink:href="#CMR17-65" transform="translate(611.714813 0) scale(0.996264)"/>
      <use xlink:href="#CMR17-61" transform="translate(652.200473 0) scale(0.996264)"/>
      <use xlink:href="#CMR17-73" transform="translate(697.89095 0) scale(0.996264)"/>
      <use xlink:href="#CMR17-75" transform="translate(733.692288 0) scale(0.996264)"/>
      <use xlink:href="#CMR17-72" transform="translate(784.587658 0) scale(0.996264)"/>
      <use xlink:href="#CMR17-65" transform="translate(819.868426 0) scale(0.996264)"/>
      <use xlink:href="#CMR17-6d" transform="translate(860.354086 0) scale(0.996264)"/>
      <use xlink:href="#CMR17-65" transform="translate(937.273676 0) scale(0.996264)"/>
      <use xlink:href="#CMR17-6e" transform="translate(977.759336 0) scale(0.996264)"/>
      <use xlink:href="#CMR17-74" transform="translate(1026.052252 0) scale(0.996264)"/>
      <use xlink:href="#CMR17-73" transform="translate(1061.33302 0) scale(0.996264)"/>
     </g>
    </g>
    <g id="PathCollection_6">
     <g>
      <use xlink:href="#mf4b83e74c5" x="778.086131" y="61.825634" style="stroke: #000000; stroke-width: 1.2"/>
     </g>
    </g>
    <g id="text_18">
     <!-- $\omega t = 135\:\unit{\degree}$ - - Measurements -->
     <g transform="translate(814.086131 67.075634) scale(0.2 -0.2)">
      <use xlink:href="#CMMI12-21" transform="scale(0.996264)"/>
      <use xlink:href="#CMMI12-74" transform="translate(64.318346 0) scale(0.996264)"/>
      <use xlink:href="#CMR17-3d" transform="translate(127.218685 0) scale(0.996264)"/>
      <use xlink:href="#CMR17-31" transform="translate(226.607482 0) scale(0.996264)"/>
      <use xlink:href="#CMR17-33" transform="translate(272.297959 0) scale(0.996264)"/>
      <use xlink:href="#CMR17-35" transform="translate(317.988436 0) scale(0.996264)"/>
      <use xlink:href="#CMSY10-e" transform="translate(385.81812 36.153639) scale(0.697382)"/>
      <use xlink:href="#CMR17-7b" transform="translate(451.261429 0) scale(0.996264)"/>
      <use xlink:href="#CMR17-4d" transform="translate(527.027872 0) scale(0.996264)"/>
      <use xlink:href="#CMR17-65" transform="translate(611.714813 0) scale(0.996264)"/>
      <use xlink:href="#CMR17-61" transform="translate(652.200473 0) scale(0.996264)"/>
      <use xlink:href="#CMR17-73" transform="translate(697.89095 0) scale(0.996264)"/>
      <use xlink:href="#CMR17-75" transform="translate(733.692288 0) scale(0.996264)"/>
      <use xlink:href="#CMR17-72" transform="translate(784.587658 0) scale(0.996264)"/>
      <use xlink:href="#CMR17-65" transform="translate(819.868426 0) scale(0.996264)"/>
      <use xlink:href="#CMR17-6d" transform="translate(860.354086 0) scale(0.996264)"/>
      <use xlink:href="#CMR17-65" transform="translate(937.273676 0) scale(0.996264)"/>
      <use xlink:href="#CMR17-6e" transform="translate(977.759336 0) scale(0.996264)"/>
      <use xlink:href="#CMR17-74" transform="translate(1026.052252 0) scale(0.996264)"/>
      <use xlink:href="#CMR17-73" transform="translate(1061.33302 0) scale(0.996264)"/>
     </g>
    </g>
    <g id="PathCollection_7">
     <path d="M 773.84349 89.701267 
L 778.086131 82.630199 
L 782.328772 89.701267 
L 778.086131 96.772335 
L 773.84349 89.701267 
z
M 773.84349 89.701267 
L 782.328772 89.701267 
M 778.086131 82.630199 
L 778.086131 96.772335 
" style="fill: none; stroke: #000000; stroke-width: 0.8"/>
    </g>
    <g id="text_19">
     <!-- $\omega t = 135\:\unit{\degree}$ - - Measurements -->
     <g transform="translate(814.086131 94.951267) scale(0.2 -0.2)">
      <use xlink:href="#CMMI12-21" transform="scale(0.996264)"/>
      <use xlink:href="#CMMI12-74" transform="translate(64.318346 0) scale(0.996264)"/>
      <use xlink:href="#CMR17-3d" transform="translate(127.218685 0) scale(0.996264)"/>
      <use xlink:href="#CMR17-31" transform="translate(226.607482 0) scale(0.996264)"/>
      <use xlink:href="#CMR17-33" transform="translate(272.297959 0) scale(0.996264)"/>
      <use xlink:href="#CMR17-35" transform="translate(317.988436 0) scale(0.996264)"/>
      <use xlink:href="#CMSY10-e" transform="translate(385.81812 36.153639) scale(0.697382)"/>
      <use xlink:href="#CMR17-7b" transform="translate(451.261429 0) scale(0.996264)"/>
      <use xlink:href="#CMR17-4d" transform="translate(527.027872 0) scale(0.996264)"/>
      <use xlink:href="#CMR17-65" transform="translate(611.714813 0) scale(0.996264)"/>
      <use xlink:href="#CMR17-61" transform="translate(652.200473 0) scale(0.996264)"/>
      <use xlink:href="#CMR17-73" transform="translate(697.89095 0) scale(0.996264)"/>
      <use xlink:href="#CMR17-75" transform="translate(733.692288 0) scale(0.996264)"/>
      <use xlink:href="#CMR17-72" transform="translate(784.587658 0) scale(0.996264)"/>
      <use xlink:href="#CMR17-65" transform="translate(819.868426 0) scale(0.996264)"/>
      <use xlink:href="#CMR17-6d" transform="translate(860.354086 0) scale(0.996264)"/>
      <use xlink:href="#CMR17-65" transform="translate(937.273676 0) scale(0.996264)"/>
      <use xlink:href="#CMR17-6e" transform="translate(977.759336 0) scale(0.996264)"/>
      <use xlink:href="#CMR17-74" transform="translate(1026.052252 0) scale(0.996264)"/>
      <use xlink:href="#CMR17-73" transform="translate(1061.33302 0) scale(0.996264)"/>
     </g>
    </g>
    <g id="PathCollection_8">
     <path d="M 773.961341 115.809134 
L 782.21092 115.809134 
L 778.086131 124.647969 
L 773.961341 115.809134 
z
M 773.961341 115.809134 
L 778.086131 119.844947 
M 782.21092 115.809134 
L 778.086131 119.844947 
M 778.086131 124.647969 
L 778.086131 119.844947 
" style="fill: none; stroke: #000000; stroke-width: 0.8"/>
    </g>
    <g id="text_20">
     <!-- $\omega t = 135\:\unit{\degree}$ - - Measurements -->
     <g transform="translate(814.086131 122.826901) scale(0.2 -0.2)">
      <use xlink:href="#CMMI12-21" transform="scale(0.996264)"/>
      <use xlink:href="#CMMI12-74" transform="translate(64.318346 0) scale(0.996264)"/>
      <use xlink:href="#CMR17-3d" transform="translate(127.218685 0) scale(0.996264)"/>
      <use xlink:href="#CMR17-31" transform="translate(226.607482 0) scale(0.996264)"/>
      <use xlink:href="#CMR17-33" transform="translate(272.297959 0) scale(0.996264)"/>
      <use xlink:href="#CMR17-35" transform="translate(317.988436 0) scale(0.996264)"/>
      <use xlink:href="#CMSY10-e" transform="translate(385.81812 36.153639) scale(0.697382)"/>
      <use xlink:href="#CMR17-7b" transform="translate(451.261429 0) scale(0.996264)"/>
      <use xlink:href="#CMR17-4d" transform="translate(527.027872 0) scale(0.996264)"/>
      <use xlink:href="#CMR17-65" transform="translate(611.714813 0) scale(0.996264)"/>
      <use xlink:href="#CMR17-61" transform="translate(652.200473 0) scale(0.996264)"/>
      <use xlink:href="#CMR17-73" transform="translate(697.89095 0) scale(0.996264)"/>
      <use xlink:href="#CMR17-75" transform="translate(733.692288 0) scale(0.996264)"/>
      <use xlink:href="#CMR17-72" transform="translate(784.587658 0) scale(0.996264)"/>
      <use xlink:href="#CMR17-65" transform="translate(819.868426 0) scale(0.996264)"/>
      <use xlink:href="#CMR17-6d" transform="translate(860.354086 0) scale(0.996264)"/>
      <use xlink:href="#CMR17-65" transform="translate(937.273676 0) scale(0.996264)"/>
      <use xlink:href="#CMR17-6e" transform="translate(977.759336 0) scale(0.996264)"/>
      <use xlink:href="#CMR17-74" transform="translate(1026.052252 0) scale(0.996264)"/>
      <use xlink:href="#CMR17-73" transform="translate(1061.33302 0) scale(0.996264)"/>
     </g>
    </g>
   </g>
  </g>
 </g>
 <defs>
  <clipPath id="p0ee498c5a8">
   <rect x="159.111262" y="7.2" width="892.8" height="478.08"/>
  </clipPath>
 </defs>
</svg>
