<?xml version="1.0" encoding="utf-8" standalone="no"?>
<!DOCTYPE svg PUBLIC "-//W3C//DTD SVG 1.1//EN"
  "http://www.w3.org/Graphics/SVG/1.1/DTD/svg11.dtd">
<svg xmlns:xlink="http://www.w3.org/1999/xlink" width="1320.942051pt" height="704.953976pt" viewBox="0 0 1320.942051 704.953976" xmlns="http://www.w3.org/2000/svg" version="1.1">
 <metadata>
  <rdf:RDF xmlns:dc="http://purl.org/dc/elements/1.1/" xmlns:cc="http://creativecommons.org/ns#" xmlns:rdf="http://www.w3.org/1999/02/22-rdf-syntax-ns#">
   <cc:Work>
    <dc:type rdf:resource="http://purl.org/dc/dcmitype/StillImage"/>
    <dc:date>2024-10-25T11:46:05.754995</dc:date>
    <dc:format>image/svg+xml</dc:format>
    <dc:creator>
     <cc:Agent>
      <dc:title>Matplotlib v3.8.4, https://matplotlib.org/</dc:title>
     </cc:Agent>
    </dc:creator>
   </cc:Work>
  </rdf:RDF>
 </metadata>
 <defs>
  <style type="text/css">*{stroke-linejoin: round; stroke-linecap: butt}</style>
 </defs>
 <g id="figure_1">
  <g id="patch_1">
   <path d="M -0 704.953976 
L 1320.942051 704.953976 
L 1320.942051 0 
L -0 0 
z
" style="fill: #ffffff"/>
  </g>
  <g id="axes_1">
   <g id="patch_2">
    <path d="M 93.440322 604.8 
L 651.440322 604.8 
L 651.440322 7.2 
L 93.440322 7.2 
z
" style="fill: #ffffff"/>
   </g>
   <g id="matplotlib.axis_1">
    <g id="xtick_1">
     <g id="line2d_1">
      <path d="M 127.667957 604.8 
L 127.667957 7.2 
" clip-path="url(#p4d15ec10d1)" style="fill: none; stroke: #b0b0b0; stroke-width: 0.8; stroke-linecap: square"/>
     </g>
     <g id="line2d_2">
      <defs>
       <path id="m0bee413522" d="M 0 0 
L 0 3.5 
" style="stroke: #000000; stroke-width: 0.8"/>
      </defs>
      <g>
       <use xlink:href="#m0bee413522" x="127.667957" y="604.8" style="stroke: #000000; stroke-width: 0.8"/>
      </g>
     </g>
     <g id="text_1">
      <!-- $\mathdefault{0.0}$ -->
      <g transform="translate(115.820143 627.136997) scale(0.2 -0.2)">
       <defs>
        <path id="CMR17-30" d="M 2688 2025 
C 2688 2416 2682 3080 2413 3591 
C 2176 4039 1798 4198 1466 4198 
C 1158 4198 768 4058 525 3597 
C 269 3118 243 2524 243 2025 
C 243 1661 250 1106 448 619 
C 723 -39 1216 -128 1466 -128 
C 1760 -128 2208 -7 2470 600 
C 2662 1042 2688 1559 2688 2025 
z
M 1466 -26 
C 1056 -26 813 325 723 812 
C 653 1188 653 1738 653 2096 
C 653 2588 653 2997 736 3387 
C 858 3929 1216 4096 1466 4096 
C 1728 4096 2067 3923 2189 3400 
C 2272 3036 2278 2607 2278 2096 
C 2278 1680 2278 1169 2202 792 
C 2067 95 1690 -26 1466 -26 
z
" transform="scale(0.015625)"/>
        <path id="CMMI12-3a" d="M 1178 307 
C 1178 492 1024 619 870 619 
C 685 619 557 466 557 313 
C 557 128 710 0 864 0 
C 1050 0 1178 153 1178 307 
z
" transform="scale(0.015625)"/>
       </defs>
       <use xlink:href="#CMR17-30" transform="scale(0.996264)"/>
       <use xlink:href="#CMMI12-3a" transform="translate(45.690477 0) scale(0.996264)"/>
       <use xlink:href="#CMR17-30" transform="translate(72.787654 0) scale(0.996264)"/>
      </g>
     </g>
    </g>
    <g id="xtick_2">
     <g id="line2d_3">
      <path d="M 220.05141 604.8 
L 220.05141 7.2 
" clip-path="url(#p4d15ec10d1)" style="fill: none; stroke: #b0b0b0; stroke-width: 0.8; stroke-linecap: square"/>
     </g>
     <g id="line2d_4">
      <g>
       <use xlink:href="#m0bee413522" x="220.05141" y="604.8" style="stroke: #000000; stroke-width: 0.8"/>
      </g>
     </g>
     <g id="text_2">
      <!-- $\mathdefault{0.2}$ -->
      <g transform="translate(208.203596 627.136997) scale(0.2 -0.2)">
       <defs>
        <path id="CMR17-32" d="M 2669 989 
L 2554 989 
C 2490 536 2438 459 2413 420 
C 2381 369 1920 369 1830 369 
L 602 369 
C 832 619 1280 1072 1824 1597 
C 2214 1967 2669 2402 2669 3035 
C 2669 3790 2067 4224 1395 4224 
C 691 4224 262 3604 262 3030 
C 262 2780 448 2748 525 2748 
C 589 2748 781 2787 781 3010 
C 781 3207 614 3264 525 3264 
C 486 3264 448 3258 422 3245 
C 544 3790 915 4058 1306 4058 
C 1862 4058 2227 3617 2227 3035 
C 2227 2479 1901 2000 1536 1584 
L 262 146 
L 262 0 
L 2515 0 
L 2669 989 
z
" transform="scale(0.015625)"/>
       </defs>
       <use xlink:href="#CMR17-30" transform="scale(0.996264)"/>
       <use xlink:href="#CMMI12-3a" transform="translate(45.690477 0) scale(0.996264)"/>
       <use xlink:href="#CMR17-32" transform="translate(72.787654 0) scale(0.996264)"/>
      </g>
     </g>
    </g>
    <g id="xtick_3">
     <g id="line2d_5">
      <path d="M 312.434863 604.8 
L 312.434863 7.2 
" clip-path="url(#p4d15ec10d1)" style="fill: none; stroke: #b0b0b0; stroke-width: 0.8; stroke-linecap: square"/>
     </g>
     <g id="line2d_6">
      <g>
       <use xlink:href="#m0bee413522" x="312.434863" y="604.8" style="stroke: #000000; stroke-width: 0.8"/>
      </g>
     </g>
     <g id="text_3">
      <!-- $\mathdefault{0.4}$ -->
      <g transform="translate(300.587049 627.136997) scale(0.2 -0.2)">
       <defs>
        <path id="CMR17-34" d="M 2150 4122 
C 2150 4256 2144 4256 2029 4256 
L 128 1254 
L 128 1088 
L 1779 1088 
L 1779 457 
C 1779 224 1766 160 1318 160 
L 1197 160 
L 1197 0 
C 1402 0 1747 0 1965 0 
C 2182 0 2528 0 2733 0 
L 2733 160 
L 2611 160 
C 2163 160 2150 224 2150 457 
L 2150 1088 
L 2803 1088 
L 2803 1254 
L 2150 1254 
L 2150 4122 
z
M 1798 3703 
L 1798 1254 
L 256 1254 
L 1798 3703 
z
" transform="scale(0.015625)"/>
       </defs>
       <use xlink:href="#CMR17-30" transform="scale(0.996264)"/>
       <use xlink:href="#CMMI12-3a" transform="translate(45.690477 0) scale(0.996264)"/>
       <use xlink:href="#CMR17-34" transform="translate(72.787654 0) scale(0.996264)"/>
      </g>
     </g>
    </g>
    <g id="xtick_4">
     <g id="line2d_7">
      <path d="M 404.818316 604.8 
L 404.818316 7.2 
" clip-path="url(#p4d15ec10d1)" style="fill: none; stroke: #b0b0b0; stroke-width: 0.8; stroke-linecap: square"/>
     </g>
     <g id="line2d_8">
      <g>
       <use xlink:href="#m0bee413522" x="404.818316" y="604.8" style="stroke: #000000; stroke-width: 0.8"/>
      </g>
     </g>
     <g id="text_4">
      <!-- $\mathdefault{0.6}$ -->
      <g transform="translate(392.970502 627.136997) scale(0.2 -0.2)">
       <defs>
        <path id="CMR17-36" d="M 678 2176 
C 678 3690 1395 4032 1811 4032 
C 1946 4032 2272 4009 2400 3776 
C 2298 3776 2106 3776 2106 3553 
C 2106 3381 2246 3323 2336 3323 
C 2394 3323 2566 3348 2566 3560 
C 2566 3954 2246 4179 1805 4179 
C 1043 4179 243 3390 243 1984 
C 243 253 966 -128 1478 -128 
C 2099 -128 2688 427 2688 1283 
C 2688 2081 2170 2662 1517 2662 
C 1126 2662 838 2407 678 1960 
L 678 2176 
z
M 1478 25 
C 691 25 691 1200 691 1436 
C 691 1896 909 2560 1504 2560 
C 1613 2560 1926 2560 2138 2120 
C 2253 1870 2253 1609 2253 1289 
C 2253 944 2253 690 2118 434 
C 1978 171 1773 25 1478 25 
z
" transform="scale(0.015625)"/>
       </defs>
       <use xlink:href="#CMR17-30" transform="scale(0.996264)"/>
       <use xlink:href="#CMMI12-3a" transform="translate(45.690477 0) scale(0.996264)"/>
       <use xlink:href="#CMR17-36" transform="translate(72.787654 0) scale(0.996264)"/>
      </g>
     </g>
    </g>
    <g id="xtick_5">
     <g id="line2d_9">
      <path d="M 497.201769 604.8 
L 497.201769 7.2 
" clip-path="url(#p4d15ec10d1)" style="fill: none; stroke: #b0b0b0; stroke-width: 0.8; stroke-linecap: square"/>
     </g>
     <g id="line2d_10">
      <g>
       <use xlink:href="#m0bee413522" x="497.201769" y="604.8" style="stroke: #000000; stroke-width: 0.8"/>
      </g>
     </g>
     <g id="text_5">
      <!-- $\mathdefault{0.8}$ -->
      <g transform="translate(485.353955 627.136997) scale(0.2 -0.2)">
       <defs>
        <path id="CMR17-38" d="M 1741 2264 
C 2144 2467 2554 2773 2554 3263 
C 2554 3841 1990 4179 1472 4179 
C 890 4179 378 3759 378 3180 
C 378 3021 416 2747 666 2505 
C 730 2442 998 2251 1171 2130 
C 883 1983 211 1634 211 934 
C 211 279 838 -128 1459 -128 
C 2144 -128 2720 362 2720 1010 
C 2720 1590 2330 1857 2074 2029 
L 1741 2264 
z
M 902 2822 
C 851 2854 595 3051 595 3351 
C 595 3739 998 4032 1459 4032 
C 1965 4032 2336 3676 2336 3262 
C 2336 2669 1670 2331 1638 2331 
C 1632 2331 1626 2331 1574 2370 
L 902 2822 
z
M 2080 1519 
C 2176 1449 2483 1240 2483 851 
C 2483 381 2010 25 1472 25 
C 890 25 448 438 448 940 
C 448 1443 838 1862 1280 2060 
L 2080 1519 
z
" transform="scale(0.015625)"/>
       </defs>
       <use xlink:href="#CMR17-30" transform="scale(0.996264)"/>
       <use xlink:href="#CMMI12-3a" transform="translate(45.690477 0) scale(0.996264)"/>
       <use xlink:href="#CMR17-38" transform="translate(72.787654 0) scale(0.996264)"/>
      </g>
     </g>
    </g>
    <g id="xtick_6">
     <g id="line2d_11">
      <path d="M 589.585222 604.8 
L 589.585222 7.2 
" clip-path="url(#p4d15ec10d1)" style="fill: none; stroke: #b0b0b0; stroke-width: 0.8; stroke-linecap: square"/>
     </g>
     <g id="line2d_12">
      <g>
       <use xlink:href="#m0bee413522" x="589.585222" y="604.8" style="stroke: #000000; stroke-width: 0.8"/>
      </g>
     </g>
     <g id="text_6">
      <!-- $\mathdefault{1.0}$ -->
      <g transform="translate(577.737409 627.136997) scale(0.2 -0.2)">
       <defs>
        <path id="CMR17-31" d="M 1702 4058 
C 1702 4192 1696 4192 1606 4192 
C 1357 3916 979 3827 621 3827 
C 602 3827 570 3827 563 3808 
C 557 3795 557 3782 557 3648 
C 755 3648 1088 3686 1344 3839 
L 1344 461 
C 1344 236 1331 160 781 160 
L 589 160 
L 589 0 
C 896 0 1216 0 1523 0 
C 1830 0 2150 0 2458 0 
L 2458 160 
L 2266 160 
C 1715 160 1702 230 1702 458 
L 1702 4058 
z
" transform="scale(0.015625)"/>
       </defs>
       <use xlink:href="#CMR17-31" transform="scale(0.996264)"/>
       <use xlink:href="#CMMI12-3a" transform="translate(45.690477 0) scale(0.996264)"/>
       <use xlink:href="#CMR17-30" transform="translate(72.787654 0) scale(0.996264)"/>
      </g>
     </g>
    </g>
    <g id="text_7">
     <!-- $\frac{\overline{u}}{U_{0m}}$ -->
     <g transform="translate(351.212804 680.948011) scale(0.375 -0.375)">
      <defs>
       <path id="CMMI12-75" d="M 2182 370 
C 2266 13 2573 -64 2726 -64 
C 2931 -64 3085 70 3187 287 
C 3296 517 3379 894 3379 913 
C 3379 945 3354 971 3315 971 
C 3258 971 3251 939 3226 843 
C 3110 402 2995 64 2739 64 
C 2547 64 2547 275 2547 358 
C 2547 505 2566 568 2630 837 
C 2675 1009 2720 1181 2758 1360 
L 3021 2401 
C 3066 2561 3066 2574 3066 2593 
C 3066 2689 2989 2753 2893 2753 
C 2707 2753 2662 2593 2624 2433 
C 2560 2184 2214 811 2170 588 
C 2163 588 1914 64 1446 64 
C 1114 64 1050 351 1050 588 
C 1050 952 1229 1462 1395 1890 
C 1472 2095 1504 2178 1504 2305 
C 1504 2580 1306 2816 998 2816 
C 410 2816 173 1890 173 1839 
C 173 1814 198 1782 243 1782 
C 301 1782 307 1807 333 1896 
C 486 2441 736 2682 979 2682 
C 1043 2682 1146 2682 1146 2478 
C 1146 2312 1075 2127 979 1884 
C 698 1124 666 881 666 690 
C 666 38 1158 -64 1421 -64 
C 1830 -64 2054 217 2182 370 
z
" transform="scale(0.015625)"/>
       <path id="CMMI12-55" d="M 3238 1474 
C 3014 581 2272 57 1670 57 
C 1210 57 896 363 896 891 
C 896 916 896 1107 966 1387 
L 1594 3887 
C 1651 4103 1664 4167 2118 4167 
C 2234 4167 2298 4167 2298 4282 
C 2298 4352 2240 4352 2202 4352 
C 2086 4352 1952 4352 1830 4352 
L 1075 4352 
C 954 4352 819 4352 698 4352 
C 653 4352 576 4352 576 4231 
C 576 4167 621 4167 742 4167 
C 1126 4167 1126 4116 1126 4046 
C 1126 4008 1082 3824 1050 3715 
L 493 1488 
C 474 1418 435 1246 435 1075 
C 435 374 941 -128 1638 -128 
C 2285 -128 3002 384 3328 1197 
C 3373 1305 3430 1530 3469 1702 
C 3533 1933 3667 2496 3712 2662 
L 3955 3623 
C 4038 3956 4090 4167 4653 4167 
C 4704 4173 4730 4224 4730 4282 
C 4730 4352 4672 4352 4646 4352 
C 4557 4352 4442 4352 4352 4352 
L 4051 4352 
C 3654 4352 3450 4352 3443 4352 
C 3405 4352 3328 4352 3328 4231 
C 3328 4167 3379 4167 3424 4167 
C 3808 4167 3834 4020 3834 3905 
C 3834 3848 3834 3828 3808 3739 
L 3238 1474 
z
" transform="scale(0.015625)"/>
       <path id="CMMI12-6d" d="M 1318 1871 
C 1331 1910 1491 2229 1728 2433 
C 1894 2586 2112 2689 2362 2689 
C 2618 2689 2707 2497 2707 2242 
C 2707 2203 2707 2076 2630 1775 
L 2470 1118 
C 2419 926 2298 453 2285 383 
C 2259 287 2221 121 2221 96 
C 2221 6 2291 -64 2387 -64 
C 2579 -64 2611 83 2669 313 
L 3053 1839 
C 3066 1890 3398 2689 4102 2689 
C 4358 2689 4448 2497 4448 2242 
C 4448 1884 4198 1188 4058 805 
C 4000 651 3968 568 3968 453 
C 3968 166 4166 -64 4474 -64 
C 5069 -64 5293 875 5293 913 
C 5293 945 5267 971 5229 971 
C 5171 971 5165 952 5133 843 
C 4986 332 4749 64 4493 64 
C 4429 64 4326 64 4326 269 
C 4326 436 4403 640 4429 710 
C 4544 1018 4832 1773 4832 2145 
C 4832 2528 4608 2816 4122 2816 
C 3693 2816 3347 2574 3091 2197 
C 3072 2542 2861 2816 2381 2816 
C 1811 2816 1510 2415 1395 2255 
C 1376 2618 1114 2816 832 2816 
C 646 2816 499 2727 378 2484 
C 262 2254 173 1865 173 1839 
C 173 1814 198 1782 243 1782 
C 294 1782 301 1788 339 1935 
C 435 2312 557 2689 813 2689 
C 960 2689 1011 2586 1011 2395 
C 1011 2254 947 2005 902 1807 
L 723 1118 
C 698 996 627 709 595 594 
C 550 428 480 128 480 96 
C 480 6 550 -64 646 -64 
C 723 -64 813 -26 864 70 
C 877 102 934 326 966 453 
L 1107 1028 
L 1318 1871 
z
" transform="scale(0.015625)"/>
      </defs>
      <use xlink:href="#CMMI12-75" transform="translate(36.759597 39.226102) scale(0.697382)"/>
      <use xlink:href="#CMMI12-55" transform="translate(0 -34.355253) scale(0.697382)"/>
      <use xlink:href="#CMR17-30" transform="translate(46.376275 -44.815949) scale(0.498132)"/>
      <use xlink:href="#CMMI12-6d" transform="translate(69.221514 -44.815949) scale(0.498132)"/>
      <path d="M 36.759597 72.226648 
L 75.623653 72.226648 
L 75.623653 73.218093 
L 36.759597 73.218093 
L 36.759597 72.226648 
z
"/>
      <path d="M 0 24.410885 
L 112.38325 24.410885 
L 112.38325 25.40233 
L 0 25.40233 
L 0 24.410885 
z
"/>
     </g>
    </g>
   </g>
   <g id="matplotlib.axis_2">
    <g id="ytick_1">
     <g id="line2d_13">
      <path d="M 93.440322 577.636364 
L 651.440322 577.636364 
" clip-path="url(#p4d15ec10d1)" style="fill: none; stroke: #b0b0b0; stroke-width: 0.8; stroke-linecap: square"/>
     </g>
     <g id="line2d_14">
      <defs>
       <path id="m6d30b93991" d="M 0 0 
L -3.5 0 
" style="stroke: #000000; stroke-width: 0.8"/>
      </defs>
      <g>
       <use xlink:href="#m6d30b93991" x="93.440322" y="577.636364" style="stroke: #000000; stroke-width: 0.8"/>
      </g>
     </g>
     <g id="text_8">
      <!-- $\mathdefault{0.00}$ -->
      <g transform="translate(52.1066 584.554862) scale(0.2 -0.2)">
       <use xlink:href="#CMR17-30" transform="scale(0.996264)"/>
       <use xlink:href="#CMMI12-3a" transform="translate(45.690477 0) scale(0.996264)"/>
       <use xlink:href="#CMR17-30" transform="translate(72.787654 0) scale(0.996264)"/>
       <use xlink:href="#CMR17-30" transform="translate(118.478131 0) scale(0.996264)"/>
      </g>
     </g>
    </g>
    <g id="ytick_2">
     <g id="line2d_15">
      <path d="M 93.440322 472.105636 
L 651.440322 472.105636 
" clip-path="url(#p4d15ec10d1)" style="fill: none; stroke: #b0b0b0; stroke-width: 0.8; stroke-linecap: square"/>
     </g>
     <g id="line2d_16">
      <g>
       <use xlink:href="#m6d30b93991" x="93.440322" y="472.105636" style="stroke: #000000; stroke-width: 0.8"/>
      </g>
     </g>
     <g id="text_9">
      <!-- $\mathdefault{0.01}$ -->
      <g transform="translate(52.1066 479.024135) scale(0.2 -0.2)">
       <use xlink:href="#CMR17-30" transform="scale(0.996264)"/>
       <use xlink:href="#CMMI12-3a" transform="translate(45.690477 0) scale(0.996264)"/>
       <use xlink:href="#CMR17-30" transform="translate(72.787654 0) scale(0.996264)"/>
       <use xlink:href="#CMR17-31" transform="translate(118.478131 0) scale(0.996264)"/>
      </g>
     </g>
    </g>
    <g id="ytick_3">
     <g id="line2d_17">
      <path d="M 93.440322 366.574909 
L 651.440322 366.574909 
" clip-path="url(#p4d15ec10d1)" style="fill: none; stroke: #b0b0b0; stroke-width: 0.8; stroke-linecap: square"/>
     </g>
     <g id="line2d_18">
      <g>
       <use xlink:href="#m6d30b93991" x="93.440322" y="366.574909" style="stroke: #000000; stroke-width: 0.8"/>
      </g>
     </g>
     <g id="text_10">
      <!-- $\mathdefault{0.02}$ -->
      <g transform="translate(52.1066 373.493407) scale(0.2 -0.2)">
       <use xlink:href="#CMR17-30" transform="scale(0.996264)"/>
       <use xlink:href="#CMMI12-3a" transform="translate(45.690477 0) scale(0.996264)"/>
       <use xlink:href="#CMR17-30" transform="translate(72.787654 0) scale(0.996264)"/>
       <use xlink:href="#CMR17-32" transform="translate(118.478131 0) scale(0.996264)"/>
      </g>
     </g>
    </g>
    <g id="ytick_4">
     <g id="line2d_19">
      <path d="M 93.440322 261.044182 
L 651.440322 261.044182 
" clip-path="url(#p4d15ec10d1)" style="fill: none; stroke: #b0b0b0; stroke-width: 0.8; stroke-linecap: square"/>
     </g>
     <g id="line2d_20">
      <g>
       <use xlink:href="#m6d30b93991" x="93.440322" y="261.044182" style="stroke: #000000; stroke-width: 0.8"/>
      </g>
     </g>
     <g id="text_11">
      <!-- $\mathdefault{0.03}$ -->
      <g transform="translate(52.1066 267.96268) scale(0.2 -0.2)">
       <defs>
        <path id="CMR17-33" d="M 1414 2157 
C 1984 2157 2234 1662 2234 1090 
C 2234 320 1824 25 1453 25 
C 1114 25 563 194 390 693 
C 422 680 454 680 486 680 
C 640 680 755 782 755 948 
C 755 1133 614 1216 486 1216 
C 378 1216 211 1165 211 926 
C 211 335 787 -128 1466 -128 
C 2176 -128 2720 430 2720 1085 
C 2720 1707 2208 2157 1600 2227 
C 2086 2328 2554 2756 2554 3329 
C 2554 3820 2048 4179 1472 4179 
C 890 4179 378 3829 378 3329 
C 378 3110 544 3072 627 3072 
C 762 3072 877 3155 877 3321 
C 877 3486 762 3569 627 3569 
C 602 3569 570 3569 544 3557 
C 730 3959 1235 4032 1459 4032 
C 1683 4032 2106 3925 2106 3320 
C 2106 3143 2080 2828 1862 2550 
C 1670 2304 1453 2304 1242 2284 
C 1210 2284 1062 2269 1037 2269 
C 992 2263 966 2257 966 2208 
C 966 2163 973 2157 1101 2157 
L 1414 2157 
z
" transform="scale(0.015625)"/>
       </defs>
       <use xlink:href="#CMR17-30" transform="scale(0.996264)"/>
       <use xlink:href="#CMMI12-3a" transform="translate(45.690477 0) scale(0.996264)"/>
       <use xlink:href="#CMR17-30" transform="translate(72.787654 0) scale(0.996264)"/>
       <use xlink:href="#CMR17-33" transform="translate(118.478131 0) scale(0.996264)"/>
      </g>
     </g>
    </g>
    <g id="ytick_5">
     <g id="line2d_21">
      <path d="M 93.440322 155.513455 
L 651.440322 155.513455 
" clip-path="url(#p4d15ec10d1)" style="fill: none; stroke: #b0b0b0; stroke-width: 0.8; stroke-linecap: square"/>
     </g>
     <g id="line2d_22">
      <g>
       <use xlink:href="#m6d30b93991" x="93.440322" y="155.513455" style="stroke: #000000; stroke-width: 0.8"/>
      </g>
     </g>
     <g id="text_12">
      <!-- $\mathdefault{0.04}$ -->
      <g transform="translate(52.1066 162.431953) scale(0.2 -0.2)">
       <use xlink:href="#CMR17-30" transform="scale(0.996264)"/>
       <use xlink:href="#CMMI12-3a" transform="translate(45.690477 0) scale(0.996264)"/>
       <use xlink:href="#CMR17-30" transform="translate(72.787654 0) scale(0.996264)"/>
       <use xlink:href="#CMR17-34" transform="translate(118.478131 0) scale(0.996264)"/>
      </g>
     </g>
    </g>
    <g id="ytick_6">
     <g id="line2d_23">
      <path d="M 93.440322 49.982727 
L 651.440322 49.982727 
" clip-path="url(#p4d15ec10d1)" style="fill: none; stroke: #b0b0b0; stroke-width: 0.8; stroke-linecap: square"/>
     </g>
     <g id="line2d_24">
      <g>
       <use xlink:href="#m6d30b93991" x="93.440322" y="49.982727" style="stroke: #000000; stroke-width: 0.8"/>
      </g>
     </g>
     <g id="text_13">
      <!-- $\mathdefault{0.05}$ -->
      <g transform="translate(52.1066 56.901226) scale(0.2 -0.2)">
       <defs>
        <path id="CMR17-35" d="M 730 3692 
C 794 3666 1056 3584 1325 3584 
C 1920 3584 2246 3911 2432 4100 
C 2432 4157 2432 4192 2394 4192 
C 2387 4192 2374 4192 2323 4163 
C 2099 4058 1837 3973 1517 3973 
C 1325 3973 1037 3999 723 4139 
C 653 4171 640 4171 634 4171 
C 602 4171 595 4164 595 4037 
L 595 2203 
C 595 2089 595 2057 659 2057 
C 691 2057 704 2070 736 2114 
C 941 2401 1222 2522 1542 2522 
C 1766 2522 2246 2382 2246 1289 
C 2246 1085 2246 715 2054 421 
C 1894 159 1645 25 1370 25 
C 947 25 518 320 403 814 
C 429 807 480 795 506 795 
C 589 795 749 840 749 1038 
C 749 1210 627 1280 506 1280 
C 358 1280 262 1190 262 1011 
C 262 454 704 -128 1382 -128 
C 2042 -128 2669 440 2669 1264 
C 2669 2030 2170 2624 1549 2624 
C 1222 2624 947 2503 730 2274 
L 730 3692 
z
" transform="scale(0.015625)"/>
       </defs>
       <use xlink:href="#CMR17-30" transform="scale(0.996264)"/>
       <use xlink:href="#CMMI12-3a" transform="translate(45.690477 0) scale(0.996264)"/>
       <use xlink:href="#CMR17-30" transform="translate(72.787654 0) scale(0.996264)"/>
       <use xlink:href="#CMR17-35" transform="translate(118.478131 0) scale(0.996264)"/>
      </g>
     </g>
    </g>
    <g id="text_14">
     <!-- $y/a$ -->
     <g transform="translate(25.87995 324.890183) rotate(-90) scale(0.25 -0.25)">
      <defs>
       <path id="CMMI12-79" d="M 1683 -700 
C 1510 -939 1261 -1152 947 -1152 
C 870 -1152 563 -1152 467 -889 
C 486 -895 518 -895 531 -895 
C 723 -895 851 -729 851 -582 
C 851 -435 730 -384 634 -384 
C 531 -384 307 -458 307 -759 
C 307 -1071 582 -1286 947 -1286 
C 1587 -1286 2234 -700 2413 6 
L 3040 2485 
C 3046 2517 3059 2556 3059 2594 
C 3059 2689 2982 2753 2886 2753 
C 2829 2753 2694 2727 2643 2535 
L 2170 658 
C 2138 543 2138 530 2086 460 
C 1958 281 1747 64 1440 64 
C 1082 64 1050 415 1050 588 
C 1050 952 1222 1443 1395 1903 
C 1466 2088 1504 2178 1504 2305 
C 1504 2574 1312 2816 998 2816 
C 410 2816 173 1890 173 1839 
C 173 1814 198 1782 243 1782 
C 301 1782 307 1807 333 1897 
C 486 2433 730 2689 979 2689 
C 1037 2689 1146 2689 1146 2478 
C 1146 2312 1075 2127 979 1884 
C 666 1047 666 837 666 683 
C 666 77 1101 -64 1421 -64 
C 1606 -64 1837 -6 2061 230 
L 2067 224 
C 1971 -147 1907 -392 1683 -700 
z
" transform="scale(0.015625)"/>
       <path id="CMMI12-3d" d="M 2746 4562 
C 2746 4569 2784 4666 2784 4678 
C 2784 4755 2720 4800 2669 4800 
C 2637 4800 2579 4800 2528 4659 
L 384 -1363 
C 384 -1370 346 -1465 346 -1478 
C 346 -1555 410 -1600 461 -1600 
C 499 -1600 557 -1593 602 -1459 
L 2746 4562 
z
" transform="scale(0.015625)"/>
       <path id="CMMI12-61" d="M 1926 760 
C 1894 651 1894 639 1805 517 
C 1664 338 1382 64 1082 64 
C 819 64 672 300 672 677 
C 672 1028 870 1743 992 2012 
C 1210 2459 1510 2689 1760 2689 
C 2182 2689 2266 2165 2266 2114 
C 2266 2108 2246 2024 2240 2012 
L 1926 760 
z
M 2336 2395 
C 2266 2561 2093 2816 1760 2816 
C 1037 2816 256 1884 256 939 
C 256 307 627 -64 1062 -64 
C 1414 -64 1715 211 1894 422 
C 1958 45 2259 -64 2451 -64 
C 2643 -64 2797 51 2912 281 
C 3014 498 3104 888 3104 913 
C 3104 945 3078 971 3040 971 
C 2982 971 2976 939 2950 843 
C 2854 466 2733 64 2470 64 
C 2285 64 2272 230 2272 358 
C 2272 505 2291 575 2349 824 
C 2394 984 2426 1124 2477 1309 
C 2714 2267 2771 2497 2771 2535 
C 2771 2625 2701 2695 2605 2695 
C 2400 2695 2349 2472 2336 2395 
z
" transform="scale(0.015625)"/>
      </defs>
      <use xlink:href="#CMMI12-79" transform="scale(0.996264)"/>
      <use xlink:href="#CMMI12-3d" transform="translate(51.138781 0) scale(0.996264)"/>
      <use xlink:href="#CMMI12-61" transform="translate(99.913699 0) scale(0.996264)"/>
     </g>
    </g>
   </g>
   <g id="line2d_25">
    <path d="M 127.667957 577.636364 
L 162.465129 577.167545 
L 175.557078 576.754572 
L 185.023926 576.201149 
L 191.561751 575.598667 
L 196.065989 574.998878 
L 198.959566 574.465641 
L 201.297521 573.848351 
L 203.1624 573.133762 
L 204.504241 572.306535 
L 205.179827 571.683818 
L 205.697157 570.997272 
L 206.077833 570.240355 
L 206.339802 569.405853 
L 206.548495 567.991015 
L 206.500456 565.75173 
L 206.127424 563.029865 
L 205.20468 558.7884 
L 204.087384 554.565894 
L 202.152327 547.98599 
L 197.531524 533.473331 
L 189.501972 508.714009 
L 182.115645 485.020287 
L 176.169826 464.900292 
L 171.155773 447.012764 
L 167.538025 433.547435 
L 163.70752 418.70191 
L 159.67212 402.334718 
L 155.44623 384.289889 
L 151.053224 364.395465 
L 146.528494 342.461863 
L 144.220175 330.665865 
L 139.599534 305.274979 
L 135.017202 277.281526 
L 132.790684 262.226511 
L 130.59106 246.418745 
L 128.501728 229.820591 
L 126.482754 212.392529 
L 124.633586 194.093064 
L 122.91578 174.878626 
L 121.451229 154.703466 
L 120.205944 133.519548 
L 119.332653 111.276434 
L 118.803958 85.295455 
L 118.803958 85.295455 
" clip-path="url(#p4d15ec10d1)" style="fill: none; stroke: #000000; stroke-width: 1.2; stroke-linecap: square"/>
   </g>
   <g id="line2d_26">
    <path d="M 127.667957 577.636364 
L 199.592456 577.430405 
L 234.268989 577.10683 
L 264.28037 576.587778 
L 286.761972 575.977629 
L 304.185526 575.313393 
L 320.834736 574.465641 
L 333.758847 573.621677 
L 346.4403 572.595835 
L 358.952882 571.348917 
L 371.352738 569.833281 
L 380.597735 568.485816 
L 389.824945 566.925957 
L 399.016098 565.120225 
L 408.194359 563.029865 
L 414.289674 561.456288 
L 420.362569 559.72142 
L 426.403562 557.808729 
L 432.399054 555.699986 
L 438.330288 553.375097 
L 444.172088 550.811907 
L 449.891204 547.98599 
L 455.444497 544.870416 
L 460.777108 541.435497 
L 465.821123 537.648498 
L 468.198282 535.611831 
L 470.495857 533.473331 
L 472.654381 531.227906 
L 474.711684 528.87021 
L 476.60627 526.394629 
L 478.379617 523.795269 
L 479.97129 521.065941 
L 481.428175 518.200147 
L 482.694505 515.191063 
L 483.823048 512.031524 
L 484.765739 508.714009 
L 485.580003 505.230618 
L 486.224743 501.573058 
L 486.7578 497.732619 
L 487.142593 493.700159 
L 487.434017 489.466075 
L 487.681597 480.35221 
L 487.556455 470.304174 
L 487.096711 459.226215 
L 486.326209 447.012764 
L 485.259094 433.547435 
L 483.110952 410.717914 
L 480.360918 384.289889 
L 471.810789 305.274979 
L 469.00175 277.281526 
L 466.163662 246.418745 
L 463.42658 212.392529 
L 462.167917 194.093064 
L 460.977001 174.878626 
L 459.956776 154.703466 
L 459.078148 133.519548 
L 458.462609 111.276434 
L 458.085983 85.295455 
L 458.085983 85.295455 
" clip-path="url(#p4d15ec10d1)" style="fill: none; stroke-dasharray: 4.44,1.92; stroke-dashoffset: 0; stroke: #000000; stroke-width: 1.2"/>
   </g>
   <g id="line2d_27">
    <path d="M 127.667957 577.636364 
L 210.063117 577.430405 
L 248.271332 577.10683 
L 281.572873 576.587778 
L 306.289102 575.977629 
L 325.312608 575.313393 
L 343.395416 574.465641 
L 357.385751 573.621677 
L 371.078641 572.595835 
L 384.562797 571.348917 
L 394.580711 570.240355 
L 404.55098 568.957055 
L 414.488882 567.471475 
L 424.422288 565.75173 
L 434.362021 563.760911 
L 444.333067 561.456288 
L 451.002075 559.72142 
L 457.694567 557.808729 
L 464.414585 555.699986 
L 471.165823 553.375097 
L 477.95155 550.811907 
L 484.774484 547.98599 
L 491.636607 544.870416 
L 498.53896 541.435497 
L 505.481375 537.648498 
L 512.461918 533.473331 
L 519.476192 528.87021 
L 526.516987 523.795269 
L 533.5732 518.200147 
L 537.098848 515.191063 
L 540.62834 512.031524 
L 544.144931 508.714009 
L 547.658901 505.230618 
L 551.151479 501.573058 
L 554.632487 497.732619 
L 558.080726 493.700159 
L 561.505262 489.466075 
L 564.881985 485.020287 
L 568.218936 480.35221 
L 571.48854 475.450729 
L 574.697568 470.304174 
L 577.814482 464.900292 
L 580.844685 459.226215 
L 583.752418 453.268434 
L 586.54204 447.012764 
L 589.17396 440.444311 
L 591.652731 433.547435 
L 593.936664 426.305715 
L 596.033334 418.70191 
L 597.902793 410.717914 
L 599.560308 402.334718 
L 600.973071 393.532363 
L 602.16869 384.289889 
L 603.125253 374.585292 
L 603.882604 364.395465 
L 604.42738 353.696147 
L 604.805966 342.461863 
L 605.00743 330.665865 
L 605.079 318.280067 
L 604.842764 291.619636 
L 604.230506 262.226511 
L 601.52494 154.703466 
L 601.151781 133.519548 
L 600.887056 111.276434 
L 600.721436 85.295455 
L 600.721436 85.295455 
" clip-path="url(#p4d15ec10d1)" style="fill: none; stroke-dasharray: 8.32,2.08,1.3,2.08; stroke-dashoffset: 0; stroke: #000000; stroke-width: 1.3"/>
   </g>
   <g id="line2d_28">
    <path d="M 127.667957 577.636364 
L 179.791233 577.332884 
L 200.558127 576.976143 
L 216.640555 576.498075 
L 230.883837 575.857419 
L 241.886111 575.159971 
L 252.345252 574.269831 
L 260.43666 573.38367 
L 268.361208 572.306535 
L 276.18095 570.997272 
L 282.010365 569.833281 
L 287.833491 568.485816 
L 293.670789 566.925957 
L 299.542208 565.120225 
L 305.467361 563.029865 
L 311.46596 560.610011 
L 317.557912 557.808729 
L 321.681127 555.699986 
L 325.861056 553.375097 
L 330.103993 550.811907 
L 334.416357 547.98599 
L 338.804686 544.870416 
L 343.275616 541.435497 
L 347.835847 537.648498 
L 352.492094 533.473331 
L 357.251015 528.87021 
L 362.119131 523.795269 
L 367.10268 518.200147 
L 372.207226 512.031524 
L 377.437248 505.230618 
L 382.795685 497.732619 
L 388.283369 489.466075 
L 393.898264 480.35221 
L 399.63449 470.304174 
L 405.481043 459.226215 
L 408.440534 453.268434 
L 411.420153 447.012764 
L 414.416617 440.444311 
L 417.425227 433.547435 
L 420.441288 426.305715 
L 423.458303 418.70191 
L 426.469804 410.717914 
L 429.467058 402.334718 
L 432.441438 393.532363 
L 435.381522 384.289889 
L 438.276192 374.585292 
L 441.110962 364.395465 
L 443.872099 353.696147 
L 446.541959 342.461863 
L 449.104561 330.665865 
L 451.53966 318.280067 
L 453.830381 305.274979 
L 455.955672 291.619636 
L 457.900779 277.281526 
L 459.647478 262.226511 
L 461.188181 246.418745 
L 462.512601 229.820591 
L 463.625837 212.392529 
L 464.528987 194.093064 
L 465.241525 174.878626 
L 465.773368 154.703466 
L 466.153337 133.519548 
L 466.390725 111.276434 
L 466.512757 85.295455 
L 466.512757 85.295455 
" clip-path="url(#p4d15ec10d1)" style="fill: none; stroke-dasharray: 1.8,2.97; stroke-dashoffset: 0; stroke: #000000; stroke-width: 1.8"/>
   </g>
   <g id="PathCollection_1">
    <defs>
     <path id="mfdd99656cd" d="M -6.123724 0 
L 6.123724 0 
M 0 6.123724 
L 0 -6.123724 
" style="stroke: #000000; stroke-width: 1.2"/>
    </defs>
    <g clip-path="url(#p4d15ec10d1)">
     <use xlink:href="#mfdd99656cd" x="190.950622" y="575.429318" style="stroke: #000000; stroke-width: 1.2"/>
     <use xlink:href="#mfdd99656cd" x="188.641036" y="575.089773" style="stroke: #000000; stroke-width: 1.2"/>
     <use xlink:href="#mfdd99656cd" x="199.034174" y="574.648364" style="stroke: #000000; stroke-width: 1.2"/>
     <use xlink:href="#mfdd99656cd" x="194.184043" y="574.173" style="stroke: #000000; stroke-width: 1.2"/>
     <use xlink:href="#mfdd99656cd" x="190.950622" y="573.697636" style="stroke: #000000; stroke-width: 1.2"/>
     <use xlink:href="#mfdd99656cd" x="191.181581" y="573.256227" style="stroke: #000000; stroke-width: 1.2"/>
     <use xlink:href="#mfdd99656cd" x="200.650884" y="573.256227" style="stroke: #000000; stroke-width: 1.2"/>
     <use xlink:href="#mfdd99656cd" x="200.188967" y="572.645045" style="stroke: #000000; stroke-width: 1.2"/>
     <use xlink:href="#mfdd99656cd" x="201.805678" y="571.524545" style="stroke: #000000; stroke-width: 1.2"/>
     <use xlink:href="#mfdd99656cd" x="205.962933" y="571.524545" style="stroke: #000000; stroke-width: 1.2"/>
     <use xlink:href="#mfdd99656cd" x="202.960471" y="570.845455" style="stroke: #000000; stroke-width: 1.2"/>
     <use xlink:href="#mfdd99656cd" x="211.967857" y="569.487273" style="stroke: #000000; stroke-width: 1.2"/>
     <use xlink:href="#mfdd99656cd" x="208.503478" y="568.129091" style="stroke: #000000; stroke-width: 1.2"/>
     <use xlink:href="#mfdd99656cd" x="204.577181" y="566.431364" style="stroke: #000000; stroke-width: 1.2"/>
     <use xlink:href="#mfdd99656cd" x="206.655809" y="564.394091" style="stroke: #000000; stroke-width: 1.2"/>
     <use xlink:href="#mfdd99656cd" x="193.491167" y="562.017273" style="stroke: #000000; stroke-width: 1.2"/>
     <use xlink:href="#mfdd99656cd" x="218.665658" y="559.300909" style="stroke: #000000; stroke-width: 1.2"/>
     <use xlink:href="#mfdd99656cd" x="220.282368" y="558.961364" style="stroke: #000000; stroke-width: 1.2"/>
     <use xlink:href="#mfdd99656cd" x="199.72705" y="555.565909" style="stroke: #000000; stroke-width: 1.2"/>
     <use xlink:href="#mfdd99656cd" x="194.876919" y="555.565909" style="stroke: #000000; stroke-width: 1.2"/>
     <use xlink:href="#mfdd99656cd" x="193.02925" y="551.491364" style="stroke: #000000; stroke-width: 1.2"/>
     <use xlink:href="#mfdd99656cd" x="189.795829" y="547.077273" style="stroke: #000000; stroke-width: 1.2"/>
     <use xlink:href="#mfdd99656cd" x="190.257746" y="547.077273" style="stroke: #000000; stroke-width: 1.2"/>
     <use xlink:href="#mfdd99656cd" x="182.174194" y="540.286364" style="stroke: #000000; stroke-width: 1.2"/>
     <use xlink:href="#mfdd99656cd" x="190.488705" y="531.118636" style="stroke: #000000; stroke-width: 1.2"/>
     <use xlink:href="#mfdd99656cd" x="183.328987" y="518.895" style="stroke: #000000; stroke-width: 1.2"/>
     <use xlink:href="#mfdd99656cd" x="183.790904" y="499.540909" style="stroke: #000000; stroke-width: 1.2"/>
     <use xlink:href="#mfdd99656cd" x="170.395304" y="476.791364" style="stroke: #000000; stroke-width: 1.2"/>
     <use xlink:href="#mfdd99656cd" x="169.933386" y="449.967273" style="stroke: #000000; stroke-width: 1.2"/>
     <use xlink:href="#mfdd99656cd" x="162.773669" y="425.859545" style="stroke: #000000; stroke-width: 1.2"/>
     <use xlink:href="#mfdd99656cd" x="163.697503" y="408.882273" style="stroke: #000000; stroke-width: 1.2"/>
     <use xlink:href="#mfdd99656cd" x="154.921075" y="373.909091" style="stroke: #000000; stroke-width: 1.2"/>
     <use xlink:href="#mfdd99656cd" x="142.21835" y="339.954545" style="stroke: #000000; stroke-width: 1.2"/>
     <use xlink:href="#mfdd99656cd" x="132.749047" y="306" style="stroke: #000000; stroke-width: 1.2"/>
     <use xlink:href="#mfdd99656cd" x="130.208502" y="272.045455" style="stroke: #000000; stroke-width: 1.2"/>
     <use xlink:href="#mfdd99656cd" x="124.434536" y="238.090909" style="stroke: #000000; stroke-width: 1.2"/>
     <use xlink:href="#mfdd99656cd" x="120.508239" y="170.181818" style="stroke: #000000; stroke-width: 1.2"/>
     <use xlink:href="#mfdd99656cd" x="123.048784" y="102.272727" style="stroke: #000000; stroke-width: 1.2"/>
     <use xlink:href="#mfdd99656cd" x="127.667957" y="34.363636" style="stroke: #000000; stroke-width: 1.2"/>
    </g>
   </g>
   <g id="PathCollection_2">
    <defs>
     <path id="m62df3015a8" d="M 0 0 
L 0 6.123724 
M 0 0 
L 4.898979 -3.061862 
M 0 0 
L -4.898979 -3.061862 
" style="stroke: #000000; stroke-width: 1.2"/>
    </defs>
    <g clip-path="url(#p4d15ec10d1)">
     <use xlink:href="#m62df3015a8" x="302.965559" y="575.429318" style="stroke: #000000; stroke-width: 1.2"/>
     <use xlink:href="#m62df3015a8" x="306.891855" y="575.089773" style="stroke: #000000; stroke-width: 1.2"/>
     <use xlink:href="#m62df3015a8" x="315.206366" y="574.648364" style="stroke: #000000; stroke-width: 1.2"/>
     <use xlink:href="#m62df3015a8" x="323.982794" y="574.173" style="stroke: #000000; stroke-width: 1.2"/>
     <use xlink:href="#m62df3015a8" x="330.680595" y="573.697636" style="stroke: #000000; stroke-width: 1.2"/>
     <use xlink:href="#m62df3015a8" x="336.916478" y="573.256227" style="stroke: #000000; stroke-width: 1.2"/>
     <use xlink:href="#m62df3015a8" x="333.914015" y="573.256227" style="stroke: #000000; stroke-width: 1.2"/>
     <use xlink:href="#m62df3015a8" x="344.538113" y="572.645045" style="stroke: #000000; stroke-width: 1.2"/>
     <use xlink:href="#m62df3015a8" x="356.317003" y="571.524545" style="stroke: #000000; stroke-width: 1.2"/>
     <use xlink:href="#m62df3015a8" x="356.77892" y="571.524545" style="stroke: #000000; stroke-width: 1.2"/>
     <use xlink:href="#m62df3015a8" x="363.245762" y="570.845455" style="stroke: #000000; stroke-width: 1.2"/>
     <use xlink:href="#m62df3015a8" x="370.636438" y="569.487273" style="stroke: #000000; stroke-width: 1.2"/>
     <use xlink:href="#m62df3015a8" x="379.181907" y="568.129091" style="stroke: #000000; stroke-width: 1.2"/>
     <use xlink:href="#m62df3015a8" x="391.191756" y="566.431364" style="stroke: #000000; stroke-width: 1.2"/>
     <use xlink:href="#m62df3015a8" x="398.813391" y="564.394091" style="stroke: #000000; stroke-width: 1.2"/>
     <use xlink:href="#m62df3015a8" x="411.285157" y="562.017273" style="stroke: #000000; stroke-width: 1.2"/>
     <use xlink:href="#m62df3015a8" x="430.454724" y="559.300909" style="stroke: #000000; stroke-width: 1.2"/>
     <use xlink:href="#m62df3015a8" x="422.60213" y="558.961364" style="stroke: #000000; stroke-width: 1.2"/>
     <use xlink:href="#m62df3015a8" x="434.381021" y="555.565909" style="stroke: #000000; stroke-width: 1.2"/>
     <use xlink:href="#m62df3015a8" x="446.390869" y="555.565909" style="stroke: #000000; stroke-width: 1.2"/>
     <use xlink:href="#m62df3015a8" x="458.16976" y="551.491364" style="stroke: #000000; stroke-width: 1.2"/>
     <use xlink:href="#m62df3015a8" x="470.179609" y="547.077273" style="stroke: #000000; stroke-width: 1.2"/>
     <use xlink:href="#m62df3015a8" x="466.022353" y="547.077273" style="stroke: #000000; stroke-width: 1.2"/>
     <use xlink:href="#m62df3015a8" x="477.108368" y="540.286364" style="stroke: #000000; stroke-width: 1.2"/>
     <use xlink:href="#m62df3015a8" x="492.582596" y="531.118636" style="stroke: #000000; stroke-width: 1.2"/>
     <use xlink:href="#m62df3015a8" x="505.516279" y="518.895" style="stroke: #000000; stroke-width: 1.2"/>
     <use xlink:href="#m62df3015a8" x="513.599832" y="499.540909" style="stroke: #000000; stroke-width: 1.2"/>
     <use xlink:href="#m62df3015a8" x="518.219004" y="476.791364" style="stroke: #000000; stroke-width: 1.2"/>
     <use xlink:href="#m62df3015a8" x="511.983121" y="449.967273" style="stroke: #000000; stroke-width: 1.2"/>
     <use xlink:href="#m62df3015a8" x="510.828328" y="425.859545" style="stroke: #000000; stroke-width: 1.2"/>
     <use xlink:href="#m62df3015a8" x="510.828328" y="408.882273" style="stroke: #000000; stroke-width: 1.2"/>
     <use xlink:href="#m62df3015a8" x="509.211618" y="373.909091" style="stroke: #000000; stroke-width: 1.2"/>
     <use xlink:href="#m62df3015a8" x="505.516279" y="339.954545" style="stroke: #000000; stroke-width: 1.2"/>
     <use xlink:href="#m62df3015a8" x="500.897107" y="306" style="stroke: #000000; stroke-width: 1.2"/>
     <use xlink:href="#m62df3015a8" x="490.503968" y="272.045455" style="stroke: #000000; stroke-width: 1.2"/>
     <use xlink:href="#m62df3015a8" x="489.349175" y="238.090909" style="stroke: #000000; stroke-width: 1.2"/>
     <use xlink:href="#m62df3015a8" x="483.806168" y="170.181818" style="stroke: #000000; stroke-width: 1.2"/>
     <use xlink:href="#m62df3015a8" x="477.339326" y="102.272727" style="stroke: #000000; stroke-width: 1.2"/>
     <use xlink:href="#m62df3015a8" x="478.494119" y="34.363636" style="stroke: #000000; stroke-width: 1.2"/>
    </g>
   </g>
   <g id="PathCollection_3">
    <defs>
     <path id="C0_0_4ce114c165" d="M -4.242641 0 
L 0 -7.071068 
L 4.242641 -0 
L 0 7.071068 
z
M -4.242641 0 
L 4.242641 -0 
M 0 -7.071068 
L 0 7.071068 
"/>
    </defs>
    <g clip-path="url(#p4d15ec10d1)">
     <use xlink:href="#C0_0_4ce114c165" x="312.434863" y="575.429318" style="fill: none; stroke: #000000; stroke-width: 0.8"/>
    </g>
    <g clip-path="url(#p4d15ec10d1)">
     <use xlink:href="#C0_0_4ce114c165" x="318.901704" y="575.089773" style="fill: none; stroke: #000000; stroke-width: 0.8"/>
    </g>
    <g clip-path="url(#p4d15ec10d1)">
     <use xlink:href="#C0_0_4ce114c165" x="332.297305" y="574.648364" style="fill: none; stroke: #000000; stroke-width: 0.8"/>
    </g>
    <g clip-path="url(#p4d15ec10d1)">
     <use xlink:href="#C0_0_4ce114c165" x="337.840312" y="574.173" style="fill: none; stroke: #000000; stroke-width: 0.8"/>
    </g>
    <g clip-path="url(#p4d15ec10d1)">
     <use xlink:href="#C0_0_4ce114c165" x="345.923864" y="573.697636" style="fill: none; stroke: #000000; stroke-width: 0.8"/>
    </g>
    <g clip-path="url(#p4d15ec10d1)">
     <use xlink:href="#C0_0_4ce114c165" x="356.086044" y="573.256227" style="fill: none; stroke: #000000; stroke-width: 0.8"/>
    </g>
    <g clip-path="url(#p4d15ec10d1)">
     <use xlink:href="#C0_0_4ce114c165" x="352.390706" y="573.256227" style="fill: none; stroke: #000000; stroke-width: 0.8"/>
    </g>
    <g clip-path="url(#p4d15ec10d1)">
     <use xlink:href="#C0_0_4ce114c165" x="359.781382" y="572.645045" style="fill: none; stroke: #000000; stroke-width: 0.8"/>
    </g>
    <g clip-path="url(#p4d15ec10d1)">
     <use xlink:href="#C0_0_4ce114c165" x="374.100817" y="571.524545" style="fill: none; stroke: #000000; stroke-width: 0.8"/>
    </g>
    <g clip-path="url(#p4d15ec10d1)">
     <use xlink:href="#C0_0_4ce114c165" x="375.255611" y="571.524545" style="fill: none; stroke: #000000; stroke-width: 0.8"/>
    </g>
    <g clip-path="url(#p4d15ec10d1)">
     <use xlink:href="#C0_0_4ce114c165" x="378.489032" y="570.845455" style="fill: none; stroke: #000000; stroke-width: 0.8"/>
    </g>
    <g clip-path="url(#p4d15ec10d1)">
     <use xlink:href="#C0_0_4ce114c165" x="390.960798" y="569.487273" style="fill: none; stroke: #000000; stroke-width: 0.8"/>
    </g>
    <g clip-path="url(#p4d15ec10d1)">
     <use xlink:href="#C0_0_4ce114c165" x="403.663522" y="568.129091" style="fill: none; stroke: #000000; stroke-width: 0.8"/>
    </g>
    <g clip-path="url(#p4d15ec10d1)">
     <use xlink:href="#C0_0_4ce114c165" x="408.744612" y="566.431364" style="fill: none; stroke: #000000; stroke-width: 0.8"/>
    </g>
    <g clip-path="url(#p4d15ec10d1)">
     <use xlink:href="#C0_0_4ce114c165" x="422.833089" y="564.394091" style="fill: none; stroke: #000000; stroke-width: 0.8"/>
    </g>
    <g clip-path="url(#p4d15ec10d1)">
     <use xlink:href="#C0_0_4ce114c165" x="429.068972" y="562.017273" style="fill: none; stroke: #000000; stroke-width: 0.8"/>
    </g>
    <g clip-path="url(#p4d15ec10d1)">
     <use xlink:href="#C0_0_4ce114c165" x="450.086208" y="559.300909" style="fill: none; stroke: #000000; stroke-width: 0.8"/>
    </g>
    <g clip-path="url(#p4d15ec10d1)">
     <use xlink:href="#C0_0_4ce114c165" x="443.619366" y="558.961364" style="fill: none; stroke: #000000; stroke-width: 0.8"/>
    </g>
    <g clip-path="url(#p4d15ec10d1)">
     <use xlink:href="#C0_0_4ce114c165" x="456.784008" y="555.565909" style="fill: none; stroke: #000000; stroke-width: 0.8"/>
    </g>
    <g clip-path="url(#p4d15ec10d1)">
     <use xlink:href="#C0_0_4ce114c165" x="459.093594" y="555.565909" style="fill: none; stroke: #000000; stroke-width: 0.8"/>
    </g>
    <g clip-path="url(#p4d15ec10d1)">
     <use xlink:href="#C0_0_4ce114c165" x="475.260699" y="551.491364" style="fill: none; stroke: #000000; stroke-width: 0.8"/>
    </g>
    <g clip-path="url(#p4d15ec10d1)">
     <use xlink:href="#C0_0_4ce114c165" x="487.501506" y="547.077273" style="fill: none; stroke: #000000; stroke-width: 0.8"/>
    </g>
    <g clip-path="url(#p4d15ec10d1)">
     <use xlink:href="#C0_0_4ce114c165" x="484.499044" y="547.077273" style="fill: none; stroke: #000000; stroke-width: 0.8"/>
    </g>
    <g clip-path="url(#p4d15ec10d1)">
     <use xlink:href="#C0_0_4ce114c165" x="495.816017" y="540.286364" style="fill: none; stroke: #000000; stroke-width: 0.8"/>
    </g>
    <g clip-path="url(#p4d15ec10d1)">
     <use xlink:href="#C0_0_4ce114c165" x="514.292707" y="531.118636" style="fill: none; stroke: #000000; stroke-width: 0.8"/>
    </g>
    <g clip-path="url(#p4d15ec10d1)">
     <use xlink:href="#C0_0_4ce114c165" x="537.157612" y="518.895" style="fill: none; stroke: #000000; stroke-width: 0.8"/>
    </g>
    <g clip-path="url(#p4d15ec10d1)">
     <use xlink:href="#C0_0_4ce114c165" x="563.486896" y="499.540909" style="fill: none; stroke: #000000; stroke-width: 0.8"/>
    </g>
    <g clip-path="url(#p4d15ec10d1)">
     <use xlink:href="#C0_0_4ce114c165" x="583.11838" y="476.791364" style="fill: none; stroke: #000000; stroke-width: 0.8"/>
    </g>
    <g clip-path="url(#p4d15ec10d1)">
     <use xlink:href="#C0_0_4ce114c165" x="609.678623" y="449.967273" style="fill: none; stroke: #000000; stroke-width: 0.8"/>
    </g>
    <g clip-path="url(#p4d15ec10d1)">
     <use xlink:href="#C0_0_4ce114c165" x="620.533678" y="425.859545" style="fill: none; stroke: #000000; stroke-width: 0.8"/>
    </g>
    <g clip-path="url(#p4d15ec10d1)">
     <use xlink:href="#C0_0_4ce114c165" x="626.076686" y="408.882273" style="fill: none; stroke: #000000; stroke-width: 0.8"/>
    </g>
    <g clip-path="url(#p4d15ec10d1)">
     <use xlink:href="#C0_0_4ce114c165" x="624.459975" y="373.909091" style="fill: none; stroke: #000000; stroke-width: 0.8"/>
    </g>
    <g clip-path="url(#p4d15ec10d1)">
     <use xlink:href="#C0_0_4ce114c165" x="623.305182" y="339.954545" style="fill: none; stroke: #000000; stroke-width: 0.8"/>
    </g>
    <g clip-path="url(#p4d15ec10d1)">
     <use xlink:href="#C0_0_4ce114c165" x="620.30272" y="306" style="fill: none; stroke: #000000; stroke-width: 0.8"/>
    </g>
    <g clip-path="url(#p4d15ec10d1)">
     <use xlink:href="#C0_0_4ce114c165" x="616.145464" y="272.045455" style="fill: none; stroke: #000000; stroke-width: 0.8"/>
    </g>
    <g clip-path="url(#p4d15ec10d1)">
     <use xlink:href="#C0_0_4ce114c165" x="613.604919" y="238.090909" style="fill: none; stroke: #000000; stroke-width: 0.8"/>
    </g>
    <g clip-path="url(#p4d15ec10d1)">
     <use xlink:href="#C0_0_4ce114c165" x="603.904657" y="170.181818" style="fill: none; stroke: #000000; stroke-width: 0.8"/>
    </g>
    <g clip-path="url(#p4d15ec10d1)">
     <use xlink:href="#C0_0_4ce114c165" x="599.747401" y="102.272727" style="fill: none; stroke: #000000; stroke-width: 0.8"/>
    </g>
    <g clip-path="url(#p4d15ec10d1)">
     <use xlink:href="#C0_0_4ce114c165" x="601.595071" y="34.363636" style="fill: none; stroke: #000000; stroke-width: 0.8"/>
    </g>
   </g>
   <g id="PathCollection_4">
    <defs>
     <path id="C1_0_c7ea945b7f" d="M -4.12479 -1.767767 
L 4.12479 -1.767767 
L 0 7.071068 
z
M -4.12479 -1.767767 
L 0 2.268046 
M 4.12479 -1.767767 
L 0 2.268046 
M 0 7.071068 
L 0 2.268046 
"/>
    </defs>
    <g clip-path="url(#p4d15ec10d1)">
     <use xlink:href="#C1_0_c7ea945b7f" x="229.982631" y="575.429318" style="fill: none; stroke: #000000; stroke-width: 0.8"/>
    </g>
    <g clip-path="url(#p4d15ec10d1)">
     <use xlink:href="#C1_0_c7ea945b7f" x="235.987555" y="575.089773" style="fill: none; stroke: #000000; stroke-width: 0.8"/>
    </g>
    <g clip-path="url(#p4d15ec10d1)">
     <use xlink:href="#C1_0_c7ea945b7f" x="242.223438" y="574.648364" style="fill: none; stroke: #000000; stroke-width: 0.8"/>
    </g>
    <g clip-path="url(#p4d15ec10d1)">
     <use xlink:href="#C1_0_c7ea945b7f" x="245.918776" y="574.173" style="fill: none; stroke: #000000; stroke-width: 0.8"/>
    </g>
    <g clip-path="url(#p4d15ec10d1)">
     <use xlink:href="#C1_0_c7ea945b7f" x="246.842611" y="573.697636" style="fill: none; stroke: #000000; stroke-width: 0.8"/>
    </g>
    <g clip-path="url(#p4d15ec10d1)">
     <use xlink:href="#C1_0_c7ea945b7f" x="254.002329" y="573.256227" style="fill: none; stroke: #000000; stroke-width: 0.8"/>
    </g>
    <g clip-path="url(#p4d15ec10d1)">
     <use xlink:href="#C1_0_c7ea945b7f" x="253.078494" y="573.256227" style="fill: none; stroke: #000000; stroke-width: 0.8"/>
    </g>
    <g clip-path="url(#p4d15ec10d1)">
     <use xlink:href="#C1_0_c7ea945b7f" x="257.697667" y="572.645045" style="fill: none; stroke: #000000; stroke-width: 0.8"/>
    </g>
    <g clip-path="url(#p4d15ec10d1)">
     <use xlink:href="#C1_0_c7ea945b7f" x="265.55026" y="571.524545" style="fill: none; stroke: #000000; stroke-width: 0.8"/>
    </g>
    <g clip-path="url(#p4d15ec10d1)">
     <use xlink:href="#C1_0_c7ea945b7f" x="265.319302" y="571.524545" style="fill: none; stroke: #000000; stroke-width: 0.8"/>
    </g>
    <g clip-path="url(#p4d15ec10d1)">
     <use xlink:href="#C1_0_c7ea945b7f" x="269.01464" y="570.845455" style="fill: none; stroke: #000000; stroke-width: 0.8"/>
    </g>
    <g clip-path="url(#p4d15ec10d1)">
     <use xlink:href="#C1_0_c7ea945b7f" x="274.326688" y="569.487273" style="fill: none; stroke: #000000; stroke-width: 0.8"/>
    </g>
    <g clip-path="url(#p4d15ec10d1)">
     <use xlink:href="#C1_0_c7ea945b7f" x="279.407778" y="568.129091" style="fill: none; stroke: #000000; stroke-width: 0.8"/>
    </g>
    <g clip-path="url(#p4d15ec10d1)">
     <use xlink:href="#C1_0_c7ea945b7f" x="283.103116" y="566.431364" style="fill: none; stroke: #000000; stroke-width: 0.8"/>
    </g>
    <g clip-path="url(#p4d15ec10d1)">
     <use xlink:href="#C1_0_c7ea945b7f" x="291.186668" y="564.394091" style="fill: none; stroke: #000000; stroke-width: 0.8"/>
    </g>
    <g clip-path="url(#p4d15ec10d1)">
     <use xlink:href="#C1_0_c7ea945b7f" x="295.112965" y="562.017273" style="fill: none; stroke: #000000; stroke-width: 0.8"/>
    </g>
    <g clip-path="url(#p4d15ec10d1)">
     <use xlink:href="#C1_0_c7ea945b7f" x="301.11789" y="559.300909" style="fill: none; stroke: #000000; stroke-width: 0.8"/>
    </g>
    <g clip-path="url(#p4d15ec10d1)">
     <use xlink:href="#C1_0_c7ea945b7f" x="299.963096" y="558.961364" style="fill: none; stroke: #000000; stroke-width: 0.8"/>
    </g>
    <g clip-path="url(#p4d15ec10d1)">
     <use xlink:href="#C1_0_c7ea945b7f" x="308.739524" y="555.565909" style="fill: none; stroke: #000000; stroke-width: 0.8"/>
    </g>
    <g clip-path="url(#p4d15ec10d1)">
     <use xlink:href="#C1_0_c7ea945b7f" x="306.429938" y="555.565909" style="fill: none; stroke: #000000; stroke-width: 0.8"/>
    </g>
    <g clip-path="url(#p4d15ec10d1)">
     <use xlink:href="#C1_0_c7ea945b7f" x="312.665821" y="551.491364" style="fill: none; stroke: #000000; stroke-width: 0.8"/>
    </g>
    <g clip-path="url(#p4d15ec10d1)">
     <use xlink:href="#C1_0_c7ea945b7f" x="313.820614" y="547.077273" style="fill: none; stroke: #000000; stroke-width: 0.8"/>
    </g>
    <g clip-path="url(#p4d15ec10d1)">
     <use xlink:href="#C1_0_c7ea945b7f" x="316.361159" y="547.077273" style="fill: none; stroke: #000000; stroke-width: 0.8"/>
    </g>
    <g clip-path="url(#p4d15ec10d1)">
     <use xlink:href="#C1_0_c7ea945b7f" x="322.828001" y="540.286364" style="fill: none; stroke: #000000; stroke-width: 0.8"/>
    </g>
    <g clip-path="url(#p4d15ec10d1)">
     <use xlink:href="#C1_0_c7ea945b7f" x="335.530726" y="531.118636" style="fill: none; stroke: #000000; stroke-width: 0.8"/>
    </g>
    <g clip-path="url(#p4d15ec10d1)">
     <use xlink:href="#C1_0_c7ea945b7f" x="342.690443" y="518.895" style="fill: none; stroke: #000000; stroke-width: 0.8"/>
    </g>
    <g clip-path="url(#p4d15ec10d1)">
     <use xlink:href="#C1_0_c7ea945b7f" x="354.469334" y="499.540909" style="fill: none; stroke: #000000; stroke-width: 0.8"/>
    </g>
    <g clip-path="url(#p4d15ec10d1)">
     <use xlink:href="#C1_0_c7ea945b7f" x="369.019728" y="476.791364" style="fill: none; stroke: #000000; stroke-width: 0.8"/>
    </g>
    <g clip-path="url(#p4d15ec10d1)">
     <use xlink:href="#C1_0_c7ea945b7f" x="384.032039" y="449.967273" style="fill: none; stroke: #000000; stroke-width: 0.8"/>
    </g>
    <g clip-path="url(#p4d15ec10d1)">
     <use xlink:href="#C1_0_c7ea945b7f" x="404.356398" y="425.859545" style="fill: none; stroke: #000000; stroke-width: 0.8"/>
    </g>
    <g clip-path="url(#p4d15ec10d1)">
     <use xlink:href="#C1_0_c7ea945b7f" x="410.361323" y="408.882273" style="fill: none; stroke: #000000; stroke-width: 0.8"/>
    </g>
    <g clip-path="url(#p4d15ec10d1)">
     <use xlink:href="#C1_0_c7ea945b7f" x="417.290082" y="373.909091" style="fill: none; stroke: #000000; stroke-width: 0.8"/>
    </g>
    <g clip-path="url(#p4d15ec10d1)">
     <use xlink:href="#C1_0_c7ea945b7f" x="432.071434" y="339.954545" style="fill: none; stroke: #000000; stroke-width: 0.8"/>
    </g>
    <g clip-path="url(#p4d15ec10d1)">
     <use xlink:href="#C1_0_c7ea945b7f" x="441.30978" y="306" style="fill: none; stroke: #000000; stroke-width: 0.8"/>
    </g>
    <g clip-path="url(#p4d15ec10d1)">
     <use xlink:href="#C1_0_c7ea945b7f" x="450.086208" y="272.045455" style="fill: none; stroke: #000000; stroke-width: 0.8"/>
    </g>
    <g clip-path="url(#p4d15ec10d1)">
     <use xlink:href="#C1_0_c7ea945b7f" x="450.317166" y="238.090909" style="fill: none; stroke: #000000; stroke-width: 0.8"/>
    </g>
    <g clip-path="url(#p4d15ec10d1)">
     <use xlink:href="#C1_0_c7ea945b7f" x="450.779083" y="170.181818" style="fill: none; stroke: #000000; stroke-width: 0.8"/>
    </g>
    <g clip-path="url(#p4d15ec10d1)">
     <use xlink:href="#C1_0_c7ea945b7f" x="452.626753" y="102.272727" style="fill: none; stroke: #000000; stroke-width: 0.8"/>
    </g>
    <g clip-path="url(#p4d15ec10d1)">
     <use xlink:href="#C1_0_c7ea945b7f" x="447.545663" y="34.363636" style="fill: none; stroke: #000000; stroke-width: 0.8"/>
    </g>
   </g>
   <g id="patch_3">
    <path d="M 93.440322 604.8 
L 93.440322 7.2 
" style="fill: none; stroke: #000000; stroke-width: 0.8; stroke-linejoin: miter; stroke-linecap: square"/>
   </g>
   <g id="patch_4">
    <path d="M 651.440322 604.8 
L 651.440322 7.2 
" style="fill: none; stroke: #000000; stroke-width: 0.8; stroke-linejoin: miter; stroke-linecap: square"/>
   </g>
   <g id="patch_5">
    <path d="M 93.440322 604.8 
L 651.440322 604.8 
" style="fill: none; stroke: #000000; stroke-width: 0.8; stroke-linejoin: miter; stroke-linecap: square"/>
   </g>
   <g id="patch_6">
    <path d="M 93.440322 7.2 
L 651.440322 7.2 
" style="fill: none; stroke: #000000; stroke-width: 0.8; stroke-linejoin: miter; stroke-linecap: square"/>
   </g>
   <g id="legend_1">
    <g id="patch_7">
     <path d="M 693.340322 134.702534 
L 1309.742051 134.702534 
Q 1313.742051 134.702534 1313.742051 130.702534 
L 1313.742051 21.2 
Q 1313.742051 17.2 1309.742051 17.2 
L 693.340322 17.2 
Q 689.340322 17.2 689.340322 21.2 
L 689.340322 130.702534 
Q 689.340322 134.702534 693.340322 134.702534 
z
" style="fill: #ffffff; opacity: 0.8; stroke: #cccccc; stroke-linejoin: miter"/>
    </g>
    <g id="line2d_29">
     <path d="M 697.340322 32.2 
L 717.340322 32.2 
L 737.340322 32.2 
" style="fill: none; stroke: #000000; stroke-width: 1.2; stroke-linecap: square"/>
    </g>
    <g id="text_15">
     <!-- $\omega t = 0\:\unit{\degree}$ - - Model -->
     <g transform="translate(753.340322 39.2) scale(0.2 -0.2)">
      <defs>
       <path id="CMMI12-21" d="M 3802 2395 
C 3802 2580 3750 2816 3526 2816 
C 3398 2816 3251 2657 3251 2529 
C 3251 2472 3277 2434 3328 2376 
C 3424 2268 3546 2096 3546 1797 
C 3546 1567 3405 1204 3302 1007 
C 3123 656 2829 357 2496 357 
C 2093 357 1939 615 1869 975 
C 1939 1143 2086 1560 2086 1728 
C 2086 1798 2061 1856 1978 1856 
C 1933 1856 1882 1831 1850 1779 
C 1760 1638 1677 1129 1683 994 
C 1562 756 1216 357 806 357 
C 378 357 262 733 262 1096 
C 262 1758 678 2338 794 2497 
C 858 2593 902 2657 902 2669 
C 902 2714 877 2784 819 2784 
C 717 2784 685 2701 634 2625 
C 307 2121 77 1414 77 803 
C 77 408 224 -64 704 -64 
C 1235 -64 1568 391 1702 634 
C 1754 275 1946 -64 2413 -64 
C 2899 -64 3206 363 3437 879 
C 3603 1249 3802 2045 3802 2395 
z
" transform="scale(0.015625)"/>
       <path id="CMMI12-74" d="M 1286 2566 
L 1875 2566 
C 1997 2566 2061 2566 2061 2681 
C 2061 2752 2022 2752 1894 2752 
L 1331 2752 
L 1568 3692 
C 1594 3781 1594 3794 1594 3840 
C 1594 3943 1510 4000 1427 4000 
C 1376 4000 1229 3981 1178 3775 
L 928 2752 
L 326 2752 
C 198 2752 141 2752 141 2630 
C 141 2566 186 2566 307 2566 
L 877 2566 
L 454 881 
C 403 658 384 594 384 511 
C 384 211 595 -64 954 -64 
C 1600 -64 1946 868 1946 912 
C 1946 951 1920 970 1882 970 
C 1869 970 1843 970 1830 944 
C 1824 938 1818 931 1773 829 
C 1638 511 1344 64 973 64 
C 781 64 768 224 768 364 
C 768 370 768 492 787 568 
L 1286 2566 
z
" transform="scale(0.015625)"/>
       <path id="CMR17-3d" d="M 4115 2017 
C 4211 2017 4307 2017 4307 2125 
C 4307 2240 4198 2240 4090 2240 
L 512 2240 
C 403 2240 294 2240 294 2125 
C 294 2017 390 2017 486 2017 
L 4115 2017 
z
M 4090 896 
C 4198 896 4307 896 4307 1011 
C 4307 1119 4211 1119 4115 1119 
L 486 1119 
C 390 1119 294 1119 294 1011 
C 294 896 403 896 512 896 
L 4090 896 
z
" transform="scale(0.015625)"/>
       <path id="CMSY10-e" d="M 2842 1600 
C 2842 2277 2272 2828 1600 2828 
C 909 2828 352 2264 352 1600 
C 352 930 909 372 1600 372 
C 2272 372 2842 923 2842 1600 
z
M 1600 628 
C 1043 628 608 1070 608 1600 
C 608 2130 1050 2572 1600 2572 
C 2131 2572 2586 2142 2586 1600 
C 2586 1058 2131 628 1600 628 
z
" transform="scale(0.015625)"/>
       <path id="CMR17-7b" d="M 2970 1664 
L 2970 1766 
L -38 1766 
L -38 1664 
L 2970 1664 
z
" transform="scale(0.015625)"/>
       <path id="CMR17-4d" d="M 1338 4224 
C 1299 4320 1293 4320 1158 4320 
L 339 4320 
L 339 4160 
C 781 4160 851 4160 851 3875 
L 851 610 
C 851 451 851 153 339 153 
L 339 -13 
C 486 0 755 0 915 0 
C 1075 0 1344 0 1491 -13 
L 1491 153 
C 979 153 979 451 979 610 
L 979 4135 
L 986 4135 
L 2490 89 
C 2515 25 2528 -13 2579 -13 
C 2630 -13 2643 25 2669 89 
L 4186 4166 
L 4192 4166 
L 4192 438 
C 4192 153 4122 153 3680 153 
L 3680 -13 
C 3853 0 4198 0 4384 0 
C 4570 0 4922 0 5094 -13 
L 5094 153 
C 4653 153 4582 153 4582 438 
L 4582 3875 
C 4582 4160 4653 4160 5094 4160 
L 5094 4320 
L 4282 4320 
C 4147 4320 4141 4314 4102 4218 
L 2720 502 
L 1338 4224 
z
" transform="scale(0.015625)"/>
       <path id="CMR17-6f" d="M 2758 1356 
C 2758 2176 2163 2816 1466 2816 
C 768 2816 173 2176 173 1356 
C 173 551 768 -64 1466 -64 
C 2163 -64 2758 551 2758 1356 
z
M 1466 51 
C 1165 51 909 230 762 480 
C 602 767 582 1126 582 1408 
C 582 1677 595 2010 762 2298 
C 890 2509 1139 2714 1466 2714 
C 1754 2714 1997 2554 2150 2330 
C 2349 2029 2349 1607 2349 1408 
C 2349 1158 2336 775 2163 467 
C 1984 173 1709 51 1466 51 
z
" transform="scale(0.015625)"/>
       <path id="CMR17-64" d="M 1869 4326 
L 1869 4160 
C 2246 4160 2304 4122 2304 3820 
L 2304 2345 
C 2278 2377 2016 2790 1498 2790 
C 845 2790 211 2208 211 1364 
C 211 525 806 -64 1434 -64 
C 1978 -64 2259 337 2291 380 
L 2291 -63 
L 3066 -63 
L 3066 128 
C 2688 128 2630 166 2630 473 
L 2630 4396 
L 1869 4326 
z
M 2291 755 
C 2291 563 2176 390 2029 262 
C 1811 70 1594 38 1472 38 
C 1286 38 621 134 621 1356 
C 621 2612 1363 2688 1530 2688 
C 1824 2688 2061 2522 2208 2291 
C 2291 2157 2291 2138 2291 2023 
L 2291 755 
z
" transform="scale(0.015625)"/>
       <path id="CMR17-65" d="M 2438 1472 
C 2464 1498 2464 1511 2464 1576 
C 2464 2238 2118 2816 1389 2816 
C 710 2816 173 2169 173 1383 
C 173 551 781 -64 1459 -64 
C 2176 -64 2458 607 2458 740 
C 2458 784 2419 784 2406 784 
C 2362 784 2355 771 2330 696 
C 2189 265 1837 51 1504 51 
C 1229 51 954 203 781 480 
C 582 803 582 1176 582 1472 
L 2438 1472 
z
M 589 1568 
C 634 2505 1126 2714 1382 2714 
C 1818 2714 2112 2297 2118 1568 
L 589 1568 
z
" transform="scale(0.015625)"/>
       <path id="CMR17-6c" d="M 979 4396 
L 218 4326 
L 218 4160 
C 595 4160 653 4122 653 3817 
L 653 426 
C 653 184 627 153 218 153 
L 218 -13 
C 371 0 653 0 813 0 
C 979 0 1261 0 1414 -13 
L 1414 153 
C 1005 153 979 178 979 426 
L 979 4396 
z
" transform="scale(0.015625)"/>
      </defs>
      <use xlink:href="#CMMI12-21" transform="scale(0.996264)"/>
      <use xlink:href="#CMMI12-74" transform="translate(64.318346 0) scale(0.996264)"/>
      <use xlink:href="#CMR17-3d" transform="translate(127.218685 0) scale(0.996264)"/>
      <use xlink:href="#CMR17-30" transform="translate(226.607482 0) scale(0.996264)"/>
      <use xlink:href="#CMSY10-e" transform="translate(294.437166 36.153639) scale(0.697382)"/>
      <use xlink:href="#CMR17-7b" transform="translate(359.880474 0) scale(0.996264)"/>
      <use xlink:href="#CMR17-4d" transform="translate(435.646918 0) scale(0.996264)"/>
      <use xlink:href="#CMR17-6f" transform="translate(520.333859 0) scale(0.996264)"/>
      <use xlink:href="#CMR17-64" transform="translate(568.626774 0) scale(0.996264)"/>
      <use xlink:href="#CMR17-65" transform="translate(619.522144 0) scale(0.996264)"/>
      <use xlink:href="#CMR17-6c" transform="translate(660.007805 0) scale(0.996264)"/>
     </g>
    </g>
    <g id="line2d_30">
     <path d="M 697.340322 60.075634 
L 717.340322 60.075634 
L 737.340322 60.075634 
" style="fill: none; stroke-dasharray: 4.44,1.92; stroke-dashoffset: 0; stroke: #000000; stroke-width: 1.2"/>
    </g>
    <g id="text_16">
     <!-- $\omega t = 45\:\unit{\degree}$ - - Model -->
     <g transform="translate(753.340322 67.075634) scale(0.2 -0.2)">
      <use xlink:href="#CMMI12-21" transform="scale(0.996264)"/>
      <use xlink:href="#CMMI12-74" transform="translate(64.318346 0) scale(0.996264)"/>
      <use xlink:href="#CMR17-3d" transform="translate(127.218685 0) scale(0.996264)"/>
      <use xlink:href="#CMR17-34" transform="translate(226.607482 0) scale(0.996264)"/>
      <use xlink:href="#CMR17-35" transform="translate(272.297959 0) scale(0.996264)"/>
      <use xlink:href="#CMSY10-e" transform="translate(340.127643 36.153639) scale(0.697382)"/>
      <use xlink:href="#CMR17-7b" transform="translate(405.570952 0) scale(0.996264)"/>
      <use xlink:href="#CMR17-4d" transform="translate(481.337395 0) scale(0.996264)"/>
      <use xlink:href="#CMR17-6f" transform="translate(566.024336 0) scale(0.996264)"/>
      <use xlink:href="#CMR17-64" transform="translate(614.317251 0) scale(0.996264)"/>
      <use xlink:href="#CMR17-65" transform="translate(665.212621 0) scale(0.996264)"/>
      <use xlink:href="#CMR17-6c" transform="translate(705.698282 0) scale(0.996264)"/>
     </g>
    </g>
    <g id="line2d_31">
     <path d="M 697.340322 87.951267 
L 717.340322 87.951267 
L 737.340322 87.951267 
" style="fill: none; stroke-dasharray: 8.32,2.08,1.3,2.08; stroke-dashoffset: 0; stroke: #000000; stroke-width: 1.3"/>
    </g>
    <g id="text_17">
     <!-- $\omega t = 90\:\unit{\degree}$ - - Model -->
     <g transform="translate(753.340322 94.951267) scale(0.2 -0.2)">
      <defs>
       <path id="CMR17-39" d="M 2253 1864 
C 2253 464 1670 31 1190 31 
C 1043 31 685 31 538 294 
C 704 268 826 357 826 518 
C 826 692 685 749 595 749 
C 538 749 365 723 365 506 
C 365 71 742 -128 1203 -128 
C 1939 -128 2688 674 2688 2073 
C 2688 3817 1971 4179 1485 4179 
C 851 4179 243 3628 243 2778 
C 243 1991 762 1408 1414 1408 
C 1952 1408 2189 1903 2253 2112 
L 2253 1864 
z
M 1427 1510 
C 1254 1510 1011 1542 813 1922 
C 678 2169 678 2461 678 2771 
C 678 3146 678 3405 858 3684 
C 947 3817 1114 4032 1485 4032 
C 2240 4032 2240 2885 2240 2632 
C 2240 2182 2035 1510 1427 1510 
z
" transform="scale(0.015625)"/>
      </defs>
      <use xlink:href="#CMMI12-21" transform="scale(0.996264)"/>
      <use xlink:href="#CMMI12-74" transform="translate(64.318346 0) scale(0.996264)"/>
      <use xlink:href="#CMR17-3d" transform="translate(127.218685 0) scale(0.996264)"/>
      <use xlink:href="#CMR17-39" transform="translate(226.607482 0) scale(0.996264)"/>
      <use xlink:href="#CMR17-30" transform="translate(272.297959 0) scale(0.996264)"/>
      <use xlink:href="#CMSY10-e" transform="translate(340.127643 36.153639) scale(0.697382)"/>
      <use xlink:href="#CMR17-7b" transform="translate(405.570952 0) scale(0.996264)"/>
      <use xlink:href="#CMR17-4d" transform="translate(481.337395 0) scale(0.996264)"/>
      <use xlink:href="#CMR17-6f" transform="translate(566.024336 0) scale(0.996264)"/>
      <use xlink:href="#CMR17-64" transform="translate(614.317251 0) scale(0.996264)"/>
      <use xlink:href="#CMR17-65" transform="translate(665.212621 0) scale(0.996264)"/>
      <use xlink:href="#CMR17-6c" transform="translate(705.698282 0) scale(0.996264)"/>
     </g>
    </g>
    <g id="line2d_32">
     <path d="M 697.340322 115.826901 
L 717.340322 115.826901 
L 737.340322 115.826901 
" style="fill: none; stroke-dasharray: 1.8,2.97; stroke-dashoffset: 0; stroke: #000000; stroke-width: 1.8"/>
    </g>
    <g id="text_18">
     <!-- $\omega t = 135\:\unit{\degree}$ - - Model -->
     <g transform="translate(753.340322 122.826901) scale(0.2 -0.2)">
      <use xlink:href="#CMMI12-21" transform="scale(0.996264)"/>
      <use xlink:href="#CMMI12-74" transform="translate(64.318346 0) scale(0.996264)"/>
      <use xlink:href="#CMR17-3d" transform="translate(127.218685 0) scale(0.996264)"/>
      <use xlink:href="#CMR17-31" transform="translate(226.607482 0) scale(0.996264)"/>
      <use xlink:href="#CMR17-33" transform="translate(272.297959 0) scale(0.996264)"/>
      <use xlink:href="#CMR17-35" transform="translate(317.988436 0) scale(0.996264)"/>
      <use xlink:href="#CMSY10-e" transform="translate(385.81812 36.153639) scale(0.697382)"/>
      <use xlink:href="#CMR17-7b" transform="translate(451.261429 0) scale(0.996264)"/>
      <use xlink:href="#CMR17-4d" transform="translate(527.027872 0) scale(0.996264)"/>
      <use xlink:href="#CMR17-6f" transform="translate(611.714813 0) scale(0.996264)"/>
      <use xlink:href="#CMR17-64" transform="translate(660.007729 0) scale(0.996264)"/>
      <use xlink:href="#CMR17-65" transform="translate(710.903098 0) scale(0.996264)"/>
      <use xlink:href="#CMR17-6c" transform="translate(751.388759 0) scale(0.996264)"/>
     </g>
    </g>
    <g id="PathCollection_5">
     <g>
      <use xlink:href="#mfdd99656cd" x="968.990566" y="33.95" style="stroke: #000000; stroke-width: 1.2"/>
     </g>
    </g>
    <g id="text_19">
     <!-- $\omega t = 0\:\unit{\degree}$ - - Data from Jensen et. al. -->
     <g transform="translate(1004.990566 39.2) scale(0.2 -0.2)">
      <defs>
       <path id="CMR17-44" d="M 333 4352 
L 333 4186 
C 774 4186 845 4186 845 3900 
L 845 452 
C 845 166 774 166 333 166 
L 333 0 
L 2368 0 
C 3398 0 4224 943 4224 2141 
C 4224 3346 3411 4352 2368 4352 
L 333 4352 
z
M 1523 166 
C 1267 166 1254 197 1254 414 
L 1254 3938 
C 1254 4155 1267 4186 1523 4186 
L 2240 4186 
C 2771 4186 3750 3874 3750 2141 
C 3750 1242 3488 879 3366 707 
C 3213 510 2848 166 2240 166 
L 1523 166 
z
" transform="scale(0.015625)"/>
       <path id="CMR17-61" d="M 2304 1653 
C 2304 2072 2304 2294 2035 2543 
C 1798 2752 1523 2816 1306 2816 
C 800 2816 435 2407 435 1971 
C 435 1728 627 1728 666 1728 
C 749 1728 896 1778 896 1954 
C 896 2112 774 2181 666 2181 
C 640 2181 608 2174 589 2168 
C 723 2592 1069 2714 1293 2714 
C 1613 2714 1965 2429 1965 1885 
L 1965 1600 
C 1587 1600 1133 1549 774 1357 
C 371 1133 256 813 256 570 
C 256 77 832 -64 1171 -64 
C 1523 -64 1850 139 1990 511 
C 2003 233 2182 -18 2464 -18 
C 2598 -18 2938 70 2938 567 
L 2938 920 
L 2822 920 
L 2822 562 
C 2822 178 2650 128 2566 128 
C 2304 128 2304 458 2304 738 
L 2304 1653 
z
M 1965 870 
C 1965 317 1568 38 1216 38 
C 896 38 646 275 646 570 
C 646 761 730 1100 1101 1305 
C 1408 1478 1760 1504 1965 1504 
L 1965 870 
z
" transform="scale(0.015625)"/>
       <path id="CMR17-74" d="M 966 2560 
L 1862 2560 
L 1862 2725 
L 966 2725 
L 966 3904 
L 851 3904 
C 838 3245 614 2668 70 2668 
L 70 2560 
L 627 2560 
L 627 771 
C 627 650 627 -64 1370 -64 
C 1747 -64 1965 306 1965 777 
L 1965 1140 
L 1850 1140 
L 1850 783 
C 1850 344 1677 51 1408 51 
C 1222 51 966 178 966 758 
L 966 2560 
z
" transform="scale(0.015625)"/>
       <path id="CMR17-66" d="M 979 2560 
L 1709 2560 
L 1709 2725 
L 966 2725 
L 966 3494 
C 966 4022 1235 4352 1510 4352 
C 1594 4352 1690 4327 1754 4282 
C 1702 4269 1568 4225 1568 4067 
C 1568 3901 1696 3850 1786 3850 
C 1875 3850 2003 3901 2003 4067 
C 2003 4308 1773 4454 1517 4454 
C 1152 4454 653 4156 653 3481 
L 653 2725 
L 141 2725 
L 141 2560 
L 653 2560 
L 653 427 
C 653 184 627 153 218 153 
L 218 -13 
C 371 0 666 0 832 0 
C 1018 0 1344 0 1517 -13 
L 1517 153 
C 1056 153 979 153 979 439 
L 979 2560 
z
" transform="scale(0.015625)"/>
       <path id="CMR17-72" d="M 960 1497 
C 960 2112 1222 2688 1702 2688 
C 1747 2688 1792 2682 1837 2662 
C 1837 2662 1696 2617 1696 2452 
C 1696 2298 1818 2234 1914 2234 
C 1990 2234 2131 2279 2131 2458 
C 2131 2663 1926 2790 1709 2790 
C 1222 2790 1011 2317 947 2093 
L 941 2093 
L 941 2790 
L 198 2720 
L 198 2554 
C 576 2554 634 2515 634 2208 
L 634 428 
C 634 184 608 153 198 153 
L 198 -13 
C 352 0 646 0 813 0 
C 998 0 1325 0 1498 -13 
L 1498 153 
C 1037 153 960 153 960 440 
L 960 1497 
z
" transform="scale(0.015625)"/>
       <path id="CMR17-6d" d="M 4326 1933 
C 4326 2252 4269 2790 3507 2790 
C 3072 2790 2771 2496 2656 2151 
L 2650 2151 
C 2573 2676 2195 2790 1837 2790 
C 1331 2790 1069 2400 973 2144 
L 966 2144 
L 966 2790 
L 211 2720 
L 211 2554 
C 589 2554 646 2515 646 2208 
L 646 428 
C 646 184 621 153 211 153 
L 211 -13 
C 365 0 646 0 813 0 
C 979 0 1267 0 1421 -13 
L 1421 153 
C 1011 153 986 178 986 428 
L 986 1658 
C 986 2247 1344 2688 1792 2688 
C 2266 2688 2317 2266 2317 1958 
L 2317 428 
C 2317 184 2291 153 1882 153 
L 1882 -13 
C 2035 0 2317 0 2483 0 
C 2650 0 2938 0 3091 -13 
L 3091 153 
C 2682 153 2656 178 2656 428 
L 2656 1658 
C 2656 2247 3014 2688 3462 2688 
C 3936 2688 3987 2266 3987 1958 
L 3987 428 
C 3987 184 3962 153 3552 153 
L 3552 -13 
C 3706 0 3987 0 4154 0 
C 4320 0 4608 0 4762 -13 
L 4762 153 
C 4352 153 4326 178 4326 428 
L 4326 1933 
z
" transform="scale(0.015625)"/>
       <path id="CMR17-4a" d="M 1888 910 
C 1888 324 1568 -26 1242 -26 
C 1075 -26 691 49 525 431 
C 550 425 582 418 608 418 
C 730 418 883 501 883 692 
C 883 845 774 960 614 960 
C 461 960 339 865 339 682 
C 339 258 730 -128 1254 -128 
C 1754 -128 2214 229 2291 764 
C 2298 809 2298 821 2298 1038 
L 2298 3715 
C 2298 3823 2298 4001 2310 4039 
C 2336 4160 2483 4160 2682 4160 
L 2682 4320 
C 2669 4320 2214 4320 2054 4320 
C 1786 4320 1491 4320 1222 4320 
L 1222 4160 
L 1376 4160 
C 1875 4160 1888 4090 1888 3861 
L 1888 910 
z
" transform="scale(0.015625)"/>
       <path id="CMR17-6e" d="M 2656 1933 
C 2656 2259 2592 2790 1837 2790 
C 1331 2790 1069 2400 973 2144 
L 966 2144 
L 966 2790 
L 211 2720 
L 211 2554 
C 589 2554 646 2515 646 2208 
L 646 428 
C 646 184 621 153 211 153 
L 211 -13 
C 365 0 646 0 813 0 
C 979 0 1267 0 1421 -13 
L 1421 153 
C 1011 153 986 178 986 428 
L 986 1658 
C 986 2247 1344 2688 1792 2688 
C 2266 2688 2317 2266 2317 1958 
L 2317 428 
C 2317 184 2291 153 1882 153 
L 1882 -13 
C 2035 0 2317 0 2483 0 
C 2650 0 2938 0 3091 -13 
L 3091 153 
C 2682 153 2656 178 2656 428 
L 2656 1933 
z
" transform="scale(0.015625)"/>
       <path id="CMR17-73" d="M 1978 2697 
C 1978 2813 1971 2819 1933 2819 
C 1907 2819 1901 2813 1824 2717 
C 1805 2691 1747 2626 1728 2601 
C 1523 2819 1235 2819 1126 2819 
C 416 2819 160 2447 160 2076 
C 160 1498 813 1365 998 1325 
C 1402 1243 1542 1217 1677 1101 
C 1760 1025 1901 884 1901 654 
C 1901 384 1747 38 1158 38 
C 602 38 403 460 288 1021 
C 269 1110 269 1117 218 1117 
C 166 1117 160 1110 160 983 
L 160 63 
C 160 -51 166 -58 205 -58 
C 237 -58 243 -51 275 0 
C 314 57 410 211 448 276 
C 576 103 800 -64 1158 -64 
C 1792 -64 2131 283 2131 784 
C 2131 1112 1958 1285 1875 1362 
C 1683 1561 1459 1606 1190 1657 
C 838 1735 390 1825 390 2217 
C 390 2383 480 2737 1126 2737 
C 1811 2737 1850 2094 1862 1888 
C 1869 1856 1901 1849 1920 1849 
C 1978 1849 1978 1869 1978 1978 
L 1978 2697 
z
" transform="scale(0.015625)"/>
       <path id="CMR17-2e" d="M 1062 261 
C 1062 420 934 522 800 522 
C 672 522 538 420 538 261 
C 538 102 666 0 800 0 
C 928 0 1062 102 1062 261 
z
" transform="scale(0.015625)"/>
      </defs>
      <use xlink:href="#CMMI12-21" transform="scale(0.996264)"/>
      <use xlink:href="#CMMI12-74" transform="translate(64.318346 0) scale(0.996264)"/>
      <use xlink:href="#CMR17-3d" transform="translate(127.218685 0) scale(0.996264)"/>
      <use xlink:href="#CMR17-30" transform="translate(226.607482 0) scale(0.996264)"/>
      <use xlink:href="#CMSY10-e" transform="translate(294.437166 36.153639) scale(0.697382)"/>
      <use xlink:href="#CMR17-7b" transform="translate(359.880474 0) scale(0.996264)"/>
      <use xlink:href="#CMR17-44" transform="translate(435.646918 0) scale(0.996264)"/>
      <use xlink:href="#CMR17-61" transform="translate(506.040474 0) scale(0.996264)"/>
      <use xlink:href="#CMR17-74" transform="translate(551.730951 0) scale(0.996264)"/>
      <use xlink:href="#CMR17-61" transform="translate(587.011719 0) scale(0.996264)"/>
      <use xlink:href="#CMR17-66" transform="translate(662.778162 0) scale(0.996264)"/>
      <use xlink:href="#CMR17-72" transform="translate(690.251675 0) scale(0.996264)"/>
      <use xlink:href="#CMR17-6f" transform="translate(725.532442 0) scale(0.996264)"/>
      <use xlink:href="#CMR17-6d" transform="translate(771.22292 0) scale(0.996264)"/>
      <use xlink:href="#CMR17-4a" transform="translate(878.218476 0) scale(0.996264)"/>
      <use xlink:href="#CMR17-65" transform="translate(925.190266 0) scale(0.996264)"/>
      <use xlink:href="#CMR17-6e" transform="translate(965.675926 0) scale(0.996264)"/>
      <use xlink:href="#CMR17-73" transform="translate(1016.571296 0) scale(0.996264)"/>
      <use xlink:href="#CMR17-65" transform="translate(1052.372633 0) scale(0.996264)"/>
      <use xlink:href="#CMR17-6e" transform="translate(1092.858294 0) scale(0.996264)"/>
      <use xlink:href="#CMR17-65" transform="translate(1173.82963 0) scale(0.996264)"/>
      <use xlink:href="#CMR17-74" transform="translate(1214.31529 0) scale(0.996264)"/>
      <use xlink:href="#CMR17-2e" transform="translate(1249.596058 0) scale(0.996264)"/>
      <use xlink:href="#CMR17-61" transform="translate(1314.952777 0) scale(0.996264)"/>
      <use xlink:href="#CMR17-6c" transform="translate(1360.643254 0) scale(0.996264)"/>
      <use xlink:href="#CMR17-2e" transform="translate(1385.514313 0) scale(0.996264)"/>
     </g>
    </g>
    <g id="PathCollection_6">
     <g>
      <use xlink:href="#m62df3015a8" x="968.990566" y="61.825634" style="stroke: #000000; stroke-width: 1.2"/>
     </g>
    </g>
    <g id="text_20">
     <!-- $\omega t = 45\:\unit{\degree}$ - - Data from Jensen et. al. -->
     <g transform="translate(1004.990566 67.075634) scale(0.2 -0.2)">
      <use xlink:href="#CMMI12-21" transform="scale(0.996264)"/>
      <use xlink:href="#CMMI12-74" transform="translate(64.318346 0) scale(0.996264)"/>
      <use xlink:href="#CMR17-3d" transform="translate(127.218685 0) scale(0.996264)"/>
      <use xlink:href="#CMR17-34" transform="translate(226.607482 0) scale(0.996264)"/>
      <use xlink:href="#CMR17-35" transform="translate(272.297959 0) scale(0.996264)"/>
      <use xlink:href="#CMSY10-e" transform="translate(340.127643 36.153639) scale(0.697382)"/>
      <use xlink:href="#CMR17-7b" transform="translate(405.570952 0) scale(0.996264)"/>
      <use xlink:href="#CMR17-44" transform="translate(481.337395 0) scale(0.996264)"/>
      <use xlink:href="#CMR17-61" transform="translate(551.730951 0) scale(0.996264)"/>
      <use xlink:href="#CMR17-74" transform="translate(597.421428 0) scale(0.996264)"/>
      <use xlink:href="#CMR17-61" transform="translate(632.702196 0) scale(0.996264)"/>
      <use xlink:href="#CMR17-66" transform="translate(708.468639 0) scale(0.996264)"/>
      <use xlink:href="#CMR17-72" transform="translate(735.942152 0) scale(0.996264)"/>
      <use xlink:href="#CMR17-6f" transform="translate(771.22292 0) scale(0.996264)"/>
      <use xlink:href="#CMR17-6d" transform="translate(816.913397 0) scale(0.996264)"/>
      <use xlink:href="#CMR17-4a" transform="translate(923.908953 0) scale(0.996264)"/>
      <use xlink:href="#CMR17-65" transform="translate(970.880743 0) scale(0.996264)"/>
      <use xlink:href="#CMR17-6e" transform="translate(1011.366403 0) scale(0.996264)"/>
      <use xlink:href="#CMR17-73" transform="translate(1062.261773 0) scale(0.996264)"/>
      <use xlink:href="#CMR17-65" transform="translate(1098.063111 0) scale(0.996264)"/>
      <use xlink:href="#CMR17-6e" transform="translate(1138.548771 0) scale(0.996264)"/>
      <use xlink:href="#CMR17-65" transform="translate(1219.520107 0) scale(0.996264)"/>
      <use xlink:href="#CMR17-74" transform="translate(1260.005768 0) scale(0.996264)"/>
      <use xlink:href="#CMR17-2e" transform="translate(1295.286535 0) scale(0.996264)"/>
      <use xlink:href="#CMR17-61" transform="translate(1360.643254 0) scale(0.996264)"/>
      <use xlink:href="#CMR17-6c" transform="translate(1406.333731 0) scale(0.996264)"/>
      <use xlink:href="#CMR17-2e" transform="translate(1431.20479 0) scale(0.996264)"/>
     </g>
    </g>
    <g id="PathCollection_7">
     <path d="M 964.747925 89.701267 
L 968.990566 82.630199 
L 973.233207 89.701267 
L 968.990566 96.772335 
L 964.747925 89.701267 
z
M 964.747925 89.701267 
L 973.233207 89.701267 
M 968.990566 82.630199 
L 968.990566 96.772335 
" style="fill: none; stroke: #000000; stroke-width: 0.8"/>
    </g>
    <g id="text_21">
     <!-- $\omega t = 90\:\unit{\degree}$ - - Data from Jensen et. al. -->
     <g transform="translate(1004.990566 94.951267) scale(0.2 -0.2)">
      <use xlink:href="#CMMI12-21" transform="scale(0.996264)"/>
      <use xlink:href="#CMMI12-74" transform="translate(64.318346 0) scale(0.996264)"/>
      <use xlink:href="#CMR17-3d" transform="translate(127.218685 0) scale(0.996264)"/>
      <use xlink:href="#CMR17-39" transform="translate(226.607482 0) scale(0.996264)"/>
      <use xlink:href="#CMR17-30" transform="translate(272.297959 0) scale(0.996264)"/>
      <use xlink:href="#CMSY10-e" transform="translate(340.127643 36.153639) scale(0.697382)"/>
      <use xlink:href="#CMR17-7b" transform="translate(405.570952 0) scale(0.996264)"/>
      <use xlink:href="#CMR17-44" transform="translate(481.337395 0) scale(0.996264)"/>
      <use xlink:href="#CMR17-61" transform="translate(551.730951 0) scale(0.996264)"/>
      <use xlink:href="#CMR17-74" transform="translate(597.421428 0) scale(0.996264)"/>
      <use xlink:href="#CMR17-61" transform="translate(632.702196 0) scale(0.996264)"/>
      <use xlink:href="#CMR17-66" transform="translate(708.468639 0) scale(0.996264)"/>
      <use xlink:href="#CMR17-72" transform="translate(735.942152 0) scale(0.996264)"/>
      <use xlink:href="#CMR17-6f" transform="translate(771.22292 0) scale(0.996264)"/>
      <use xlink:href="#CMR17-6d" transform="translate(816.913397 0) scale(0.996264)"/>
      <use xlink:href="#CMR17-4a" transform="translate(923.908953 0) scale(0.996264)"/>
      <use xlink:href="#CMR17-65" transform="translate(970.880743 0) scale(0.996264)"/>
      <use xlink:href="#CMR17-6e" transform="translate(1011.366403 0) scale(0.996264)"/>
      <use xlink:href="#CMR17-73" transform="translate(1062.261773 0) scale(0.996264)"/>
      <use xlink:href="#CMR17-65" transform="translate(1098.063111 0) scale(0.996264)"/>
      <use xlink:href="#CMR17-6e" transform="translate(1138.548771 0) scale(0.996264)"/>
      <use xlink:href="#CMR17-65" transform="translate(1219.520107 0) scale(0.996264)"/>
      <use xlink:href="#CMR17-74" transform="translate(1260.005768 0) scale(0.996264)"/>
      <use xlink:href="#CMR17-2e" transform="translate(1295.286535 0) scale(0.996264)"/>
      <use xlink:href="#CMR17-61" transform="translate(1360.643254 0) scale(0.996264)"/>
      <use xlink:href="#CMR17-6c" transform="translate(1406.333731 0) scale(0.996264)"/>
      <use xlink:href="#CMR17-2e" transform="translate(1431.20479 0) scale(0.996264)"/>
     </g>
    </g>
    <g id="PathCollection_8">
     <path d="M 964.865776 115.809134 
L 973.115356 115.809134 
L 968.990566 124.647969 
L 964.865776 115.809134 
z
M 964.865776 115.809134 
L 968.990566 119.844947 
M 973.115356 115.809134 
L 968.990566 119.844947 
M 968.990566 124.647969 
L 968.990566 119.844947 
" style="fill: none; stroke: #000000; stroke-width: 0.8"/>
    </g>
    <g id="text_22">
     <!-- $\omega t = 135\:\unit{\degree}$ - - Data from Jensen et. al. -->
     <g transform="translate(1004.990566 122.826901) scale(0.2 -0.2)">
      <use xlink:href="#CMMI12-21" transform="scale(0.996264)"/>
      <use xlink:href="#CMMI12-74" transform="translate(64.318346 0) scale(0.996264)"/>
      <use xlink:href="#CMR17-3d" transform="translate(127.218685 0) scale(0.996264)"/>
      <use xlink:href="#CMR17-31" transform="translate(226.607482 0) scale(0.996264)"/>
      <use xlink:href="#CMR17-33" transform="translate(272.297959 0) scale(0.996264)"/>
      <use xlink:href="#CMR17-35" transform="translate(317.988436 0) scale(0.996264)"/>
      <use xlink:href="#CMSY10-e" transform="translate(385.81812 36.153639) scale(0.697382)"/>
      <use xlink:href="#CMR17-7b" transform="translate(451.261429 0) scale(0.996264)"/>
      <use xlink:href="#CMR17-44" transform="translate(527.027872 0) scale(0.996264)"/>
      <use xlink:href="#CMR17-61" transform="translate(597.421428 0) scale(0.996264)"/>
      <use xlink:href="#CMR17-74" transform="translate(643.111905 0) scale(0.996264)"/>
      <use xlink:href="#CMR17-61" transform="translate(678.392673 0) scale(0.996264)"/>
      <use xlink:href="#CMR17-66" transform="translate(754.159116 0) scale(0.996264)"/>
      <use xlink:href="#CMR17-72" transform="translate(781.632629 0) scale(0.996264)"/>
      <use xlink:href="#CMR17-6f" transform="translate(816.913397 0) scale(0.996264)"/>
      <use xlink:href="#CMR17-6d" transform="translate(862.603874 0) scale(0.996264)"/>
      <use xlink:href="#CMR17-4a" transform="translate(969.59943 0) scale(0.996264)"/>
      <use xlink:href="#CMR17-65" transform="translate(1016.57122 0) scale(0.996264)"/>
      <use xlink:href="#CMR17-6e" transform="translate(1057.05688 0) scale(0.996264)"/>
      <use xlink:href="#CMR17-73" transform="translate(1107.95225 0) scale(0.996264)"/>
      <use xlink:href="#CMR17-65" transform="translate(1143.753588 0) scale(0.996264)"/>
      <use xlink:href="#CMR17-6e" transform="translate(1184.239248 0) scale(0.996264)"/>
      <use xlink:href="#CMR17-65" transform="translate(1265.210584 0) scale(0.996264)"/>
      <use xlink:href="#CMR17-74" transform="translate(1305.696245 0) scale(0.996264)"/>
      <use xlink:href="#CMR17-2e" transform="translate(1340.977012 0) scale(0.996264)"/>
      <use xlink:href="#CMR17-61" transform="translate(1406.333731 0) scale(0.996264)"/>
      <use xlink:href="#CMR17-6c" transform="translate(1452.024209 0) scale(0.996264)"/>
      <use xlink:href="#CMR17-2e" transform="translate(1476.895267 0) scale(0.996264)"/>
     </g>
    </g>
   </g>
  </g>
 </g>
 <defs>
  <clipPath id="p4d15ec10d1">
   <rect x="93.440322" y="7.2" width="558" height="597.6"/>
  </clipPath>
 </defs>
</svg>
