<?xml version="1.0" encoding="utf-8" standalone="no"?>
<!DOCTYPE svg PUBLIC "-//W3C//DTD SVG 1.1//EN"
  "http://www.w3.org/Graphics/SVG/1.1/DTD/svg11.dtd">
<svg xmlns:xlink="http://www.w3.org/1999/xlink" width="1006.136972pt" height="563.599231pt" viewBox="0 0 1006.136972 563.599231" xmlns="http://www.w3.org/2000/svg" version="1.1">
 <metadata>
  <rdf:RDF xmlns:dc="http://purl.org/dc/elements/1.1/" xmlns:cc="http://creativecommons.org/ns#" xmlns:rdf="http://www.w3.org/1999/02/22-rdf-syntax-ns#">
   <cc:Work>
    <dc:type rdf:resource="http://purl.org/dc/dcmitype/StillImage"/>
    <dc:date>2024-10-21T15:49:52.007054</dc:date>
    <dc:format>image/svg+xml</dc:format>
    <dc:creator>
     <cc:Agent>
      <dc:title>Matplotlib v3.8.4, https://matplotlib.org/</dc:title>
     </cc:Agent>
    </dc:creator>
   </cc:Work>
  </rdf:RDF>
 </metadata>
 <defs>
  <style type="text/css">*{stroke-linejoin: round; stroke-linecap: butt}</style>
 </defs>
 <g id="figure_1">
  <g id="patch_1">
   <path d="M 0 563.599231 
L 1006.136972 563.599231 
L 1006.136972 0 
L 0 0 
z
" style="fill: #ffffff"/>
  </g>
  <g id="axes_1">
   <g id="patch_2">
    <path d="M 106.136972 485.28 
L 998.936972 485.28 
L 998.936972 7.2 
L 106.136972 7.2 
z
" style="fill: #ffffff"/>
   </g>
   <g id="matplotlib.axis_1">
    <g id="xtick_1">
     <g id="line2d_1">
      <path d="M 146.71879 485.28 
L 146.71879 7.2 
" clip-path="url(#pd104c41f86)" style="fill: none; stroke: #b0b0b0; stroke-width: 0.8; stroke-linecap: square"/>
     </g>
     <g id="line2d_2">
      <defs>
       <path id="mec4ef26c5b" d="M 0 0 
L 0 3.5 
" style="stroke: #000000; stroke-width: 0.8"/>
      </defs>
      <g>
       <use xlink:href="#mec4ef26c5b" x="146.71879" y="485.28" style="stroke: #000000; stroke-width: 0.8"/>
      </g>
     </g>
     <g id="text_1">
      <!-- $\mathdefault{0.00}$ -->
      <g transform="translate(130.30193 507.616997) scale(0.2 -0.2)">
       <defs>
        <path id="CMR17-30" d="M 2688 2025 
C 2688 2416 2682 3080 2413 3591 
C 2176 4039 1798 4198 1466 4198 
C 1158 4198 768 4058 525 3597 
C 269 3118 243 2524 243 2025 
C 243 1661 250 1106 448 619 
C 723 -39 1216 -128 1466 -128 
C 1760 -128 2208 -7 2470 600 
C 2662 1042 2688 1559 2688 2025 
z
M 1466 -26 
C 1056 -26 813 325 723 812 
C 653 1188 653 1738 653 2096 
C 653 2588 653 2997 736 3387 
C 858 3929 1216 4096 1466 4096 
C 1728 4096 2067 3923 2189 3400 
C 2272 3036 2278 2607 2278 2096 
C 2278 1680 2278 1169 2202 792 
C 2067 95 1690 -26 1466 -26 
z
" transform="scale(0.015625)"/>
        <path id="CMMI12-3a" d="M 1178 307 
C 1178 492 1024 619 870 619 
C 685 619 557 466 557 313 
C 557 128 710 0 864 0 
C 1050 0 1178 153 1178 307 
z
" transform="scale(0.015625)"/>
       </defs>
       <use xlink:href="#CMR17-30" transform="scale(0.996264)"/>
       <use xlink:href="#CMMI12-3a" transform="translate(45.690477 0) scale(0.996264)"/>
       <use xlink:href="#CMR17-30" transform="translate(72.787654 0) scale(0.996264)"/>
       <use xlink:href="#CMR17-30" transform="translate(118.478131 0) scale(0.996264)"/>
      </g>
     </g>
    </g>
    <g id="xtick_2">
     <g id="line2d_3">
      <path d="M 304.379154 485.28 
L 304.379154 7.2 
" clip-path="url(#pd104c41f86)" style="fill: none; stroke: #b0b0b0; stroke-width: 0.8; stroke-linecap: square"/>
     </g>
     <g id="line2d_4">
      <g>
       <use xlink:href="#mec4ef26c5b" x="304.379154" y="485.28" style="stroke: #000000; stroke-width: 0.8"/>
      </g>
     </g>
     <g id="text_2">
      <!-- $\mathdefault{0.01}$ -->
      <g transform="translate(287.962293 507.616997) scale(0.2 -0.2)">
       <defs>
        <path id="CMR17-31" d="M 1702 4058 
C 1702 4192 1696 4192 1606 4192 
C 1357 3916 979 3827 621 3827 
C 602 3827 570 3827 563 3808 
C 557 3795 557 3782 557 3648 
C 755 3648 1088 3686 1344 3839 
L 1344 461 
C 1344 236 1331 160 781 160 
L 589 160 
L 589 0 
C 896 0 1216 0 1523 0 
C 1830 0 2150 0 2458 0 
L 2458 160 
L 2266 160 
C 1715 160 1702 230 1702 458 
L 1702 4058 
z
" transform="scale(0.015625)"/>
       </defs>
       <use xlink:href="#CMR17-30" transform="scale(0.996264)"/>
       <use xlink:href="#CMMI12-3a" transform="translate(45.690477 0) scale(0.996264)"/>
       <use xlink:href="#CMR17-30" transform="translate(72.787654 0) scale(0.996264)"/>
       <use xlink:href="#CMR17-31" transform="translate(118.478131 0) scale(0.996264)"/>
      </g>
     </g>
    </g>
    <g id="xtick_3">
     <g id="line2d_5">
      <path d="M 462.039518 485.28 
L 462.039518 7.2 
" clip-path="url(#pd104c41f86)" style="fill: none; stroke: #b0b0b0; stroke-width: 0.8; stroke-linecap: square"/>
     </g>
     <g id="line2d_6">
      <g>
       <use xlink:href="#mec4ef26c5b" x="462.039518" y="485.28" style="stroke: #000000; stroke-width: 0.8"/>
      </g>
     </g>
     <g id="text_3">
      <!-- $\mathdefault{0.02}$ -->
      <g transform="translate(445.622657 507.616997) scale(0.2 -0.2)">
       <defs>
        <path id="CMR17-32" d="M 2669 989 
L 2554 989 
C 2490 536 2438 459 2413 420 
C 2381 369 1920 369 1830 369 
L 602 369 
C 832 619 1280 1072 1824 1597 
C 2214 1967 2669 2402 2669 3035 
C 2669 3790 2067 4224 1395 4224 
C 691 4224 262 3604 262 3030 
C 262 2780 448 2748 525 2748 
C 589 2748 781 2787 781 3010 
C 781 3207 614 3264 525 3264 
C 486 3264 448 3258 422 3245 
C 544 3790 915 4058 1306 4058 
C 1862 4058 2227 3617 2227 3035 
C 2227 2479 1901 2000 1536 1584 
L 262 146 
L 262 0 
L 2515 0 
L 2669 989 
z
" transform="scale(0.015625)"/>
       </defs>
       <use xlink:href="#CMR17-30" transform="scale(0.996264)"/>
       <use xlink:href="#CMMI12-3a" transform="translate(45.690477 0) scale(0.996264)"/>
       <use xlink:href="#CMR17-30" transform="translate(72.787654 0) scale(0.996264)"/>
       <use xlink:href="#CMR17-32" transform="translate(118.478131 0) scale(0.996264)"/>
      </g>
     </g>
    </g>
    <g id="xtick_4">
     <g id="line2d_7">
      <path d="M 619.699881 485.28 
L 619.699881 7.2 
" clip-path="url(#pd104c41f86)" style="fill: none; stroke: #b0b0b0; stroke-width: 0.8; stroke-linecap: square"/>
     </g>
     <g id="line2d_8">
      <g>
       <use xlink:href="#mec4ef26c5b" x="619.699881" y="485.28" style="stroke: #000000; stroke-width: 0.8"/>
      </g>
     </g>
     <g id="text_4">
      <!-- $\mathdefault{0.03}$ -->
      <g transform="translate(603.28302 507.616997) scale(0.2 -0.2)">
       <defs>
        <path id="CMR17-33" d="M 1414 2157 
C 1984 2157 2234 1662 2234 1090 
C 2234 320 1824 25 1453 25 
C 1114 25 563 194 390 693 
C 422 680 454 680 486 680 
C 640 680 755 782 755 948 
C 755 1133 614 1216 486 1216 
C 378 1216 211 1165 211 926 
C 211 335 787 -128 1466 -128 
C 2176 -128 2720 430 2720 1085 
C 2720 1707 2208 2157 1600 2227 
C 2086 2328 2554 2756 2554 3329 
C 2554 3820 2048 4179 1472 4179 
C 890 4179 378 3829 378 3329 
C 378 3110 544 3072 627 3072 
C 762 3072 877 3155 877 3321 
C 877 3486 762 3569 627 3569 
C 602 3569 570 3569 544 3557 
C 730 3959 1235 4032 1459 4032 
C 1683 4032 2106 3925 2106 3320 
C 2106 3143 2080 2828 1862 2550 
C 1670 2304 1453 2304 1242 2284 
C 1210 2284 1062 2269 1037 2269 
C 992 2263 966 2257 966 2208 
C 966 2163 973 2157 1101 2157 
L 1414 2157 
z
" transform="scale(0.015625)"/>
       </defs>
       <use xlink:href="#CMR17-30" transform="scale(0.996264)"/>
       <use xlink:href="#CMMI12-3a" transform="translate(45.690477 0) scale(0.996264)"/>
       <use xlink:href="#CMR17-30" transform="translate(72.787654 0) scale(0.996264)"/>
       <use xlink:href="#CMR17-33" transform="translate(118.478131 0) scale(0.996264)"/>
      </g>
     </g>
    </g>
    <g id="xtick_5">
     <g id="line2d_9">
      <path d="M 777.360245 485.28 
L 777.360245 7.2 
" clip-path="url(#pd104c41f86)" style="fill: none; stroke: #b0b0b0; stroke-width: 0.8; stroke-linecap: square"/>
     </g>
     <g id="line2d_10">
      <g>
       <use xlink:href="#mec4ef26c5b" x="777.360245" y="485.28" style="stroke: #000000; stroke-width: 0.8"/>
      </g>
     </g>
     <g id="text_5">
      <!-- $\mathdefault{0.04}$ -->
      <g transform="translate(760.943384 507.616997) scale(0.2 -0.2)">
       <defs>
        <path id="CMR17-34" d="M 2150 4122 
C 2150 4256 2144 4256 2029 4256 
L 128 1254 
L 128 1088 
L 1779 1088 
L 1779 457 
C 1779 224 1766 160 1318 160 
L 1197 160 
L 1197 0 
C 1402 0 1747 0 1965 0 
C 2182 0 2528 0 2733 0 
L 2733 160 
L 2611 160 
C 2163 160 2150 224 2150 457 
L 2150 1088 
L 2803 1088 
L 2803 1254 
L 2150 1254 
L 2150 4122 
z
M 1798 3703 
L 1798 1254 
L 256 1254 
L 1798 3703 
z
" transform="scale(0.015625)"/>
       </defs>
       <use xlink:href="#CMR17-30" transform="scale(0.996264)"/>
       <use xlink:href="#CMMI12-3a" transform="translate(45.690477 0) scale(0.996264)"/>
       <use xlink:href="#CMR17-30" transform="translate(72.787654 0) scale(0.996264)"/>
       <use xlink:href="#CMR17-34" transform="translate(118.478131 0) scale(0.996264)"/>
      </g>
     </g>
    </g>
    <g id="xtick_6">
     <g id="line2d_11">
      <path d="M 935.020609 485.28 
L 935.020609 7.2 
" clip-path="url(#pd104c41f86)" style="fill: none; stroke: #b0b0b0; stroke-width: 0.8; stroke-linecap: square"/>
     </g>
     <g id="line2d_12">
      <g>
       <use xlink:href="#mec4ef26c5b" x="935.020609" y="485.28" style="stroke: #000000; stroke-width: 0.8"/>
      </g>
     </g>
     <g id="text_6">
      <!-- $\mathdefault{0.05}$ -->
      <g transform="translate(918.603748 507.616997) scale(0.2 -0.2)">
       <defs>
        <path id="CMR17-35" d="M 730 3692 
C 794 3666 1056 3584 1325 3584 
C 1920 3584 2246 3911 2432 4100 
C 2432 4157 2432 4192 2394 4192 
C 2387 4192 2374 4192 2323 4163 
C 2099 4058 1837 3973 1517 3973 
C 1325 3973 1037 3999 723 4139 
C 653 4171 640 4171 634 4171 
C 602 4171 595 4164 595 4037 
L 595 2203 
C 595 2089 595 2057 659 2057 
C 691 2057 704 2070 736 2114 
C 941 2401 1222 2522 1542 2522 
C 1766 2522 2246 2382 2246 1289 
C 2246 1085 2246 715 2054 421 
C 1894 159 1645 25 1370 25 
C 947 25 518 320 403 814 
C 429 807 480 795 506 795 
C 589 795 749 840 749 1038 
C 749 1210 627 1280 506 1280 
C 358 1280 262 1190 262 1011 
C 262 454 704 -128 1382 -128 
C 2042 -128 2669 440 2669 1264 
C 2669 2030 2170 2624 1549 2624 
C 1222 2624 947 2503 730 2274 
L 730 3692 
z
" transform="scale(0.015625)"/>
       </defs>
       <use xlink:href="#CMR17-30" transform="scale(0.996264)"/>
       <use xlink:href="#CMMI12-3a" transform="translate(45.690477 0) scale(0.996264)"/>
       <use xlink:href="#CMR17-30" transform="translate(72.787654 0) scale(0.996264)"/>
       <use xlink:href="#CMR17-35" transform="translate(118.478131 0) scale(0.996264)"/>
      </g>
     </g>
    </g>
    <g id="text_7">
     <!-- $y/a$ -->
     <g transform="translate(533.646789 550.172581) scale(0.25 -0.25)">
      <defs>
       <path id="CMMI12-79" d="M 1683 -700 
C 1510 -939 1261 -1152 947 -1152 
C 870 -1152 563 -1152 467 -889 
C 486 -895 518 -895 531 -895 
C 723 -895 851 -729 851 -582 
C 851 -435 730 -384 634 -384 
C 531 -384 307 -458 307 -759 
C 307 -1071 582 -1286 947 -1286 
C 1587 -1286 2234 -700 2413 6 
L 3040 2485 
C 3046 2517 3059 2556 3059 2594 
C 3059 2689 2982 2753 2886 2753 
C 2829 2753 2694 2727 2643 2535 
L 2170 658 
C 2138 543 2138 530 2086 460 
C 1958 281 1747 64 1440 64 
C 1082 64 1050 415 1050 588 
C 1050 952 1222 1443 1395 1903 
C 1466 2088 1504 2178 1504 2305 
C 1504 2574 1312 2816 998 2816 
C 410 2816 173 1890 173 1839 
C 173 1814 198 1782 243 1782 
C 301 1782 307 1807 333 1897 
C 486 2433 730 2689 979 2689 
C 1037 2689 1146 2689 1146 2478 
C 1146 2312 1075 2127 979 1884 
C 666 1047 666 837 666 683 
C 666 77 1101 -64 1421 -64 
C 1606 -64 1837 -6 2061 230 
L 2067 224 
C 1971 -147 1907 -392 1683 -700 
z
" transform="scale(0.015625)"/>
       <path id="CMMI12-3d" d="M 2746 4562 
C 2746 4569 2784 4666 2784 4678 
C 2784 4755 2720 4800 2669 4800 
C 2637 4800 2579 4800 2528 4659 
L 384 -1363 
C 384 -1370 346 -1465 346 -1478 
C 346 -1555 410 -1600 461 -1600 
C 499 -1600 557 -1593 602 -1459 
L 2746 4562 
z
" transform="scale(0.015625)"/>
       <path id="CMMI12-61" d="M 1926 760 
C 1894 651 1894 639 1805 517 
C 1664 338 1382 64 1082 64 
C 819 64 672 300 672 677 
C 672 1028 870 1743 992 2012 
C 1210 2459 1510 2689 1760 2689 
C 2182 2689 2266 2165 2266 2114 
C 2266 2108 2246 2024 2240 2012 
L 1926 760 
z
M 2336 2395 
C 2266 2561 2093 2816 1760 2816 
C 1037 2816 256 1884 256 939 
C 256 307 627 -64 1062 -64 
C 1414 -64 1715 211 1894 422 
C 1958 45 2259 -64 2451 -64 
C 2643 -64 2797 51 2912 281 
C 3014 498 3104 888 3104 913 
C 3104 945 3078 971 3040 971 
C 2982 971 2976 939 2950 843 
C 2854 466 2733 64 2470 64 
C 2285 64 2272 230 2272 358 
C 2272 505 2291 575 2349 824 
C 2394 984 2426 1124 2477 1309 
C 2714 2267 2771 2497 2771 2535 
C 2771 2625 2701 2695 2605 2695 
C 2400 2695 2349 2472 2336 2395 
z
" transform="scale(0.015625)"/>
      </defs>
      <use xlink:href="#CMMI12-79" transform="scale(0.996264)"/>
      <use xlink:href="#CMMI12-3d" transform="translate(51.138781 0) scale(0.996264)"/>
      <use xlink:href="#CMMI12-61" transform="translate(99.913699 0) scale(0.996264)"/>
     </g>
    </g>
   </g>
   <g id="matplotlib.axis_2">
    <g id="ytick_1">
     <g id="line2d_13">
      <path d="M 106.136972 455.954646 
L 998.936972 455.954646 
" clip-path="url(#pd104c41f86)" style="fill: none; stroke: #b0b0b0; stroke-width: 0.8; stroke-linecap: square"/>
     </g>
     <g id="line2d_14">
      <defs>
       <path id="m720a61aab8" d="M 0 0 
L -3.5 0 
" style="stroke: #000000; stroke-width: 0.8"/>
      </defs>
      <g>
       <use xlink:href="#m720a61aab8" x="106.136972" y="455.954646" style="stroke: #000000; stroke-width: 0.8"/>
      </g>
     </g>
     <g id="text_8">
      <!-- $\mathdefault{0.0}$ -->
      <g transform="translate(73.941346 462.873144) scale(0.2 -0.2)">
       <use xlink:href="#CMR17-30" transform="scale(0.996264)"/>
       <use xlink:href="#CMMI12-3a" transform="translate(45.690477 0) scale(0.996264)"/>
       <use xlink:href="#CMR17-30" transform="translate(72.787654 0) scale(0.996264)"/>
      </g>
     </g>
    </g>
    <g id="ytick_2">
     <g id="line2d_15">
      <path d="M 106.136972 376.802887 
L 998.936972 376.802887 
" clip-path="url(#pd104c41f86)" style="fill: none; stroke: #b0b0b0; stroke-width: 0.8; stroke-linecap: square"/>
     </g>
     <g id="line2d_16">
      <g>
       <use xlink:href="#m720a61aab8" x="106.136972" y="376.802887" style="stroke: #000000; stroke-width: 0.8"/>
      </g>
     </g>
     <g id="text_9">
      <!-- $\mathdefault{0.2}$ -->
      <g transform="translate(73.941346 383.721386) scale(0.2 -0.2)">
       <use xlink:href="#CMR17-30" transform="scale(0.996264)"/>
       <use xlink:href="#CMMI12-3a" transform="translate(45.690477 0) scale(0.996264)"/>
       <use xlink:href="#CMR17-32" transform="translate(72.787654 0) scale(0.996264)"/>
      </g>
     </g>
    </g>
    <g id="ytick_3">
     <g id="line2d_17">
      <path d="M 106.136972 297.651129 
L 998.936972 297.651129 
" clip-path="url(#pd104c41f86)" style="fill: none; stroke: #b0b0b0; stroke-width: 0.8; stroke-linecap: square"/>
     </g>
     <g id="line2d_18">
      <g>
       <use xlink:href="#m720a61aab8" x="106.136972" y="297.651129" style="stroke: #000000; stroke-width: 0.8"/>
      </g>
     </g>
     <g id="text_10">
      <!-- $\mathdefault{0.4}$ -->
      <g transform="translate(73.941346 304.569627) scale(0.2 -0.2)">
       <use xlink:href="#CMR17-30" transform="scale(0.996264)"/>
       <use xlink:href="#CMMI12-3a" transform="translate(45.690477 0) scale(0.996264)"/>
       <use xlink:href="#CMR17-34" transform="translate(72.787654 0) scale(0.996264)"/>
      </g>
     </g>
    </g>
    <g id="ytick_4">
     <g id="line2d_19">
      <path d="M 106.136972 218.499371 
L 998.936972 218.499371 
" clip-path="url(#pd104c41f86)" style="fill: none; stroke: #b0b0b0; stroke-width: 0.8; stroke-linecap: square"/>
     </g>
     <g id="line2d_20">
      <g>
       <use xlink:href="#m720a61aab8" x="106.136972" y="218.499371" style="stroke: #000000; stroke-width: 0.8"/>
      </g>
     </g>
     <g id="text_11">
      <!-- $\mathdefault{0.6}$ -->
      <g transform="translate(73.941346 225.417869) scale(0.2 -0.2)">
       <defs>
        <path id="CMR17-36" d="M 678 2176 
C 678 3690 1395 4032 1811 4032 
C 1946 4032 2272 4009 2400 3776 
C 2298 3776 2106 3776 2106 3553 
C 2106 3381 2246 3323 2336 3323 
C 2394 3323 2566 3348 2566 3560 
C 2566 3954 2246 4179 1805 4179 
C 1043 4179 243 3390 243 1984 
C 243 253 966 -128 1478 -128 
C 2099 -128 2688 427 2688 1283 
C 2688 2081 2170 2662 1517 2662 
C 1126 2662 838 2407 678 1960 
L 678 2176 
z
M 1478 25 
C 691 25 691 1200 691 1436 
C 691 1896 909 2560 1504 2560 
C 1613 2560 1926 2560 2138 2120 
C 2253 1870 2253 1609 2253 1289 
C 2253 944 2253 690 2118 434 
C 1978 171 1773 25 1478 25 
z
" transform="scale(0.015625)"/>
       </defs>
       <use xlink:href="#CMR17-30" transform="scale(0.996264)"/>
       <use xlink:href="#CMMI12-3a" transform="translate(45.690477 0) scale(0.996264)"/>
       <use xlink:href="#CMR17-36" transform="translate(72.787654 0) scale(0.996264)"/>
      </g>
     </g>
    </g>
    <g id="ytick_5">
     <g id="line2d_21">
      <path d="M 106.136972 139.347612 
L 998.936972 139.347612 
" clip-path="url(#pd104c41f86)" style="fill: none; stroke: #b0b0b0; stroke-width: 0.8; stroke-linecap: square"/>
     </g>
     <g id="line2d_22">
      <g>
       <use xlink:href="#m720a61aab8" x="106.136972" y="139.347612" style="stroke: #000000; stroke-width: 0.8"/>
      </g>
     </g>
     <g id="text_12">
      <!-- $\mathdefault{0.8}$ -->
      <g transform="translate(73.941346 146.266111) scale(0.2 -0.2)">
       <defs>
        <path id="CMR17-38" d="M 1741 2264 
C 2144 2467 2554 2773 2554 3263 
C 2554 3841 1990 4179 1472 4179 
C 890 4179 378 3759 378 3180 
C 378 3021 416 2747 666 2505 
C 730 2442 998 2251 1171 2130 
C 883 1983 211 1634 211 934 
C 211 279 838 -128 1459 -128 
C 2144 -128 2720 362 2720 1010 
C 2720 1590 2330 1857 2074 2029 
L 1741 2264 
z
M 902 2822 
C 851 2854 595 3051 595 3351 
C 595 3739 998 4032 1459 4032 
C 1965 4032 2336 3676 2336 3262 
C 2336 2669 1670 2331 1638 2331 
C 1632 2331 1626 2331 1574 2370 
L 902 2822 
z
M 2080 1519 
C 2176 1449 2483 1240 2483 851 
C 2483 381 2010 25 1472 25 
C 890 25 448 438 448 940 
C 448 1443 838 1862 1280 2060 
L 2080 1519 
z
" transform="scale(0.015625)"/>
       </defs>
       <use xlink:href="#CMR17-30" transform="scale(0.996264)"/>
       <use xlink:href="#CMMI12-3a" transform="translate(45.690477 0) scale(0.996264)"/>
       <use xlink:href="#CMR17-38" transform="translate(72.787654 0) scale(0.996264)"/>
      </g>
     </g>
    </g>
    <g id="ytick_6">
     <g id="line2d_23">
      <path d="M 106.136972 60.195854 
L 998.936972 60.195854 
" clip-path="url(#pd104c41f86)" style="fill: none; stroke: #b0b0b0; stroke-width: 0.8; stroke-linecap: square"/>
     </g>
     <g id="line2d_24">
      <g>
       <use xlink:href="#m720a61aab8" x="106.136972" y="60.195854" style="stroke: #000000; stroke-width: 0.8"/>
      </g>
     </g>
     <g id="text_13">
      <!-- $\mathdefault{1.0}$ -->
      <g transform="translate(73.941346 67.114352) scale(0.2 -0.2)">
       <use xlink:href="#CMR17-31" transform="scale(0.996264)"/>
       <use xlink:href="#CMMI12-3a" transform="translate(45.690477 0) scale(0.996264)"/>
       <use xlink:href="#CMR17-30" transform="translate(72.787654 0) scale(0.996264)"/>
      </g>
     </g>
    </g>
    <g id="text_14">
     <!-- $\frac{\overline{u}}{U_{0m}}$ -->
     <g transform="translate(37.13538 267.467518) rotate(-90) scale(0.375 -0.375)">
      <defs>
       <path id="CMMI12-75" d="M 2182 370 
C 2266 13 2573 -64 2726 -64 
C 2931 -64 3085 70 3187 287 
C 3296 517 3379 894 3379 913 
C 3379 945 3354 971 3315 971 
C 3258 971 3251 939 3226 843 
C 3110 402 2995 64 2739 64 
C 2547 64 2547 275 2547 358 
C 2547 505 2566 568 2630 837 
C 2675 1009 2720 1181 2758 1360 
L 3021 2401 
C 3066 2561 3066 2574 3066 2593 
C 3066 2689 2989 2753 2893 2753 
C 2707 2753 2662 2593 2624 2433 
C 2560 2184 2214 811 2170 588 
C 2163 588 1914 64 1446 64 
C 1114 64 1050 351 1050 588 
C 1050 952 1229 1462 1395 1890 
C 1472 2095 1504 2178 1504 2305 
C 1504 2580 1306 2816 998 2816 
C 410 2816 173 1890 173 1839 
C 173 1814 198 1782 243 1782 
C 301 1782 307 1807 333 1896 
C 486 2441 736 2682 979 2682 
C 1043 2682 1146 2682 1146 2478 
C 1146 2312 1075 2127 979 1884 
C 698 1124 666 881 666 690 
C 666 38 1158 -64 1421 -64 
C 1830 -64 2054 217 2182 370 
z
" transform="scale(0.015625)"/>
       <path id="CMMI12-55" d="M 3238 1474 
C 3014 581 2272 57 1670 57 
C 1210 57 896 363 896 891 
C 896 916 896 1107 966 1387 
L 1594 3887 
C 1651 4103 1664 4167 2118 4167 
C 2234 4167 2298 4167 2298 4282 
C 2298 4352 2240 4352 2202 4352 
C 2086 4352 1952 4352 1830 4352 
L 1075 4352 
C 954 4352 819 4352 698 4352 
C 653 4352 576 4352 576 4231 
C 576 4167 621 4167 742 4167 
C 1126 4167 1126 4116 1126 4046 
C 1126 4008 1082 3824 1050 3715 
L 493 1488 
C 474 1418 435 1246 435 1075 
C 435 374 941 -128 1638 -128 
C 2285 -128 3002 384 3328 1197 
C 3373 1305 3430 1530 3469 1702 
C 3533 1933 3667 2496 3712 2662 
L 3955 3623 
C 4038 3956 4090 4167 4653 4167 
C 4704 4173 4730 4224 4730 4282 
C 4730 4352 4672 4352 4646 4352 
C 4557 4352 4442 4352 4352 4352 
L 4051 4352 
C 3654 4352 3450 4352 3443 4352 
C 3405 4352 3328 4352 3328 4231 
C 3328 4167 3379 4167 3424 4167 
C 3808 4167 3834 4020 3834 3905 
C 3834 3848 3834 3828 3808 3739 
L 3238 1474 
z
" transform="scale(0.015625)"/>
       <path id="CMMI12-6d" d="M 1318 1871 
C 1331 1910 1491 2229 1728 2433 
C 1894 2586 2112 2689 2362 2689 
C 2618 2689 2707 2497 2707 2242 
C 2707 2203 2707 2076 2630 1775 
L 2470 1118 
C 2419 926 2298 453 2285 383 
C 2259 287 2221 121 2221 96 
C 2221 6 2291 -64 2387 -64 
C 2579 -64 2611 83 2669 313 
L 3053 1839 
C 3066 1890 3398 2689 4102 2689 
C 4358 2689 4448 2497 4448 2242 
C 4448 1884 4198 1188 4058 805 
C 4000 651 3968 568 3968 453 
C 3968 166 4166 -64 4474 -64 
C 5069 -64 5293 875 5293 913 
C 5293 945 5267 971 5229 971 
C 5171 971 5165 952 5133 843 
C 4986 332 4749 64 4493 64 
C 4429 64 4326 64 4326 269 
C 4326 436 4403 640 4429 710 
C 4544 1018 4832 1773 4832 2145 
C 4832 2528 4608 2816 4122 2816 
C 3693 2816 3347 2574 3091 2197 
C 3072 2542 2861 2816 2381 2816 
C 1811 2816 1510 2415 1395 2255 
C 1376 2618 1114 2816 832 2816 
C 646 2816 499 2727 378 2484 
C 262 2254 173 1865 173 1839 
C 173 1814 198 1782 243 1782 
C 294 1782 301 1788 339 1935 
C 435 2312 557 2689 813 2689 
C 960 2689 1011 2586 1011 2395 
C 1011 2254 947 2005 902 1807 
L 723 1118 
C 698 996 627 709 595 594 
C 550 428 480 128 480 96 
C 480 6 550 -64 646 -64 
C 723 -64 813 -26 864 70 
C 877 102 934 326 966 453 
L 1107 1028 
L 1318 1871 
z
" transform="scale(0.015625)"/>
      </defs>
      <use xlink:href="#CMMI12-75" transform="translate(36.759597 39.226102) scale(0.697382)"/>
      <use xlink:href="#CMMI12-55" transform="translate(0 -34.355253) scale(0.697382)"/>
      <use xlink:href="#CMR17-30" transform="translate(46.376275 -44.815949) scale(0.498132)"/>
      <use xlink:href="#CMMI12-6d" transform="translate(69.221514 -44.815949) scale(0.498132)"/>
      <path d="M 36.759597 72.226648 
L 75.623653 72.226648 
L 75.623653 73.218093 
L 36.759597 73.218093 
L 36.759597 72.226648 
z
"/>
      <path d="M 0 24.410885 
L 112.38325 24.410885 
L 112.38325 25.40233 
L 0 25.40233 
L 0 24.410885 
z
"/>
     </g>
    </g>
   </g>
   <g id="line2d_25">
    <path d="M 146.71879 455.954646 
L 147.332809 428.614059 
L 147.705144 419.967629 
L 148.15772 413.454637 
L 148.70783 408.068212 
L 149.376491 403.358816 
L 150.189253 399.206061 
L 150.911833 396.465598 
L 151.748309 394.171637 
L 152.37799 392.870735 
L 153.072212 391.76878 
L 153.837593 390.858138 
L 154.681425 390.1233 
L 155.61175 389.544476 
L 156.637434 389.101241 
L 157.76825 388.775087 
L 159.685469 388.464555 
L 162.71988 388.356327 
L 166.408226 388.538849 
L 172.15575 389.156604 
L 177.877585 389.963201 
L 186.793882 391.406401 
L 206.459699 394.938716 
L 260.355537 404.918532 
L 292.058971 410.505037 
L 315.143765 414.399496 
L 341.8673 418.695407 
L 372.803132 423.420791 
L 408.615225 428.534305 
L 435.573764 432.154938 
L 465.295554 435.918753 
L 498.063827 439.795424 
L 534.190848 443.74092 
L 553.620137 445.731978 
L 595.44168 449.658002 
L 617.93351 451.565625 
L 641.549931 453.450207 
L 666.347173 455.240292 
L 692.384278 456.970097 
L 719.723237 458.554416 
L 748.429145 460.026188 
L 778.570348 461.280978 
L 810.218612 462.347905 
L 843.449288 463.096119 
L 882.264245 463.549091 
L 882.264245 463.549091 
" clip-path="url(#pd104c41f86)" style="fill: none; stroke: #000000; stroke-width: 1.2; stroke-linecap: square"/>
   </g>
   <g id="line2d_26">
    <path d="M 146.71879 455.954646 
L 146.958801 401.458605 
L 147.332809 373.167557 
L 147.810147 352.998305 
L 148.419366 335.570401 
L 149.1969 319.646999 
L 149.970959 307.639314 
L 150.911833 296.093532 
L 152.05547 284.8872 
L 153.445569 273.927068 
L 154.681425 265.82897 
L 156.112084 257.79569 
L 157.76825 249.825523 
L 159.685469 241.884775 
L 161.90489 233.981563 
L 163.57562 228.721623 
L 165.4176 223.470561 
L 167.448383 218.229111 
L 169.687321 212.999592 
L 172.15575 207.786284 
L 174.877194 202.59591 
L 177.877585 197.438272 
L 181.185517 192.327063 
L 184.832511 187.280947 
L 188.853322 182.324791 
L 191.015734 179.882083 
L 195.670326 175.124165 
L 198.173588 172.821718 
L 200.802013 170.555321 
L 203.56186 168.369096 
L 206.459699 166.23374 
L 209.50243 164.197051 
L 212.697297 162.228548 
L 216.051908 160.37918 
L 219.574249 158.616537 
L 223.272707 156.993304 
L 227.156088 155.473946 
L 231.233638 154.110241 
L 235.515066 152.86202 
L 240.010565 151.777061 
L 244.730839 150.810155 
L 249.687127 150.002481 
L 254.891229 149.304841 
L 260.355537 148.752445 
L 266.093059 148.295735 
L 278.443077 147.71637 
L 292.058971 147.504249 
L 307.070495 147.611468 
L 323.6207 148.005364 
L 341.8673 148.665511 
L 372.803132 150.138127 
L 408.615225 152.142078 
L 481.280078 156.646979 
L 553.620137 161.101948 
L 595.44168 163.50866 
L 641.549931 165.940261 
L 692.384278 168.285322 
L 719.723237 169.363713 
L 748.429145 170.384058 
L 778.570348 171.25816 
L 810.218612 172.010946 
L 843.449288 172.538324 
L 882.264245 172.861008 
L 882.264245 172.861008 
" clip-path="url(#pd104c41f86)" style="fill: none; stroke-dasharray: 4.44,1.92; stroke-dashoffset: 0; stroke: #000000; stroke-width: 1.2"/>
   </g>
   <g id="line2d_27">
    <path d="M 146.71879 455.954646 
L 146.958801 393.029019 
L 147.332809 362.124498 
L 147.810147 339.700523 
L 148.419366 320.406406 
L 149.1969 302.916658 
L 149.970959 289.801791 
L 150.911833 277.242954 
L 152.05547 265.094321 
L 153.445569 253.245808 
L 154.681425 244.50578 
L 156.112084 235.853776 
L 157.76825 227.270686 
L 159.685469 218.728417 
L 161.90489 210.213879 
L 163.57562 204.541421 
L 165.4176 198.867326 
L 167.448383 193.187086 
L 169.687321 187.496434 
L 172.15575 181.79132 
L 174.877194 176.067918 
L 177.877585 170.322634 
L 181.185517 164.552149 
L 184.832511 158.753468 
L 188.853322 152.924011 
L 193.286267 147.061742 
L 198.173588 141.165343 
L 203.56186 135.234408 
L 209.50243 129.269767 
L 216.051908 123.274081 
L 219.574249 120.263461 
L 227.156088 114.231089 
L 231.233638 111.211912 
L 235.515066 108.185509 
L 240.010565 105.164824 
L 244.730839 102.140846 
L 249.687127 99.127922 
L 254.891229 96.117243 
L 260.355537 93.124893 
L 266.093059 90.142455 
L 272.117458 87.188093 
L 278.443077 84.254038 
L 285.084977 81.360949 
L 292.058971 78.501936 
L 299.381666 75.700624 
L 307.070495 72.951211 
L 315.143765 70.28072 
L 323.6207 67.68452 
L 332.52148 65.193249 
L 341.8673 62.803173 
L 351.680411 60.548212 
L 361.984177 58.424465 
L 372.803132 56.46765 
L 384.163035 54.671278 
L 396.090932 53.069573 
L 408.615225 51.649457 
L 421.765732 50.439038 
L 435.573764 49.414663 
L 450.072198 48.595104 
L 465.295554 47.946225 
L 481.280078 47.479476 
L 498.063827 47.155112 
L 515.686764 46.982504 
L 534.190848 46.921184 
L 574.020889 47.123586 
L 617.93351 47.648152 
L 778.570348 49.966211 
L 843.449288 50.512734 
L 882.264245 50.654632 
L 882.264245 50.654632 
" clip-path="url(#pd104c41f86)" style="fill: none; stroke-dasharray: 8.32,2.08,1.3,2.08; stroke-dashoffset: 0; stroke: #000000; stroke-width: 1.3"/>
   </g>
   <g id="line2d_28">
    <path d="M 146.71879 455.954646 
L 147.097557 415.27143 
L 147.5099 398.724479 
L 148.036166 386.348641 
L 148.70783 375.524651 
L 149.565061 365.591171 
L 150.418461 358.095479 
L 151.455774 350.89681 
L 152.716635 343.919351 
L 153.837593 338.792688 
L 155.135243 333.730887 
L 156.637434 328.712546 
L 158.376408 323.718053 
L 160.389488 318.728949 
L 162.71988 313.727703 
L 165.4176 308.697223 
L 167.448383 305.319028 
L 169.687321 301.915379 
L 172.15575 298.481259 
L 174.877194 295.011595 
L 177.877585 291.501236 
L 181.185517 287.944944 
L 184.832511 284.337378 
L 188.853322 280.673091 
L 193.286267 276.946532 
L 198.173588 273.152055 
L 203.56186 269.283941 
L 209.50243 265.336438 
L 216.051908 261.303807 
L 223.272707 257.180397 
L 231.233638 252.960707 
L 240.010565 248.639642 
L 249.687127 244.21285 
L 260.355537 239.677102 
L 272.117458 235.030711 
L 285.084977 230.274102 
L 299.381666 225.410544 
L 315.143765 220.447116 
L 332.52148 215.395947 
L 351.680411 210.275793 
L 361.984177 207.698094 
L 372.803132 205.114011 
L 384.163035 202.52911 
L 396.090932 199.948934 
L 408.615225 197.380964 
L 421.765732 194.832592 
L 435.573764 192.313604 
L 450.072198 189.833525 
L 465.295554 187.404768 
L 481.280078 185.039096 
L 498.063827 182.751629 
L 515.686764 180.556059 
L 534.190848 178.469728 
L 553.620137 176.507098 
L 574.020889 174.686203 
L 595.44168 173.019686 
L 617.93351 171.523159 
L 641.549931 170.203124 
L 666.347173 169.068396 
L 692.384278 168.114604 
L 719.723237 167.340808 
L 748.429145 166.730324 
L 778.570348 166.274655 
L 810.218612 165.949107 
L 878.341498 165.641166 
L 882.264245 165.641166 
L 882.264245 165.641166 
" clip-path="url(#pd104c41f86)" style="fill: none; stroke-dasharray: 1.8,2.97; stroke-dashoffset: 0; stroke: #000000; stroke-width: 1.8"/>
   </g>
   <g id="PathCollection_1">
    <defs>
     <path id="m5bcacba3d6" d="M -6.123724 0 
L 6.123724 0 
M 0 6.123724 
L 0 -6.123724 
" style="stroke: #000000; stroke-width: 1.2"/>
    </defs>
    <g clip-path="url(#pd104c41f86)">
     <use xlink:href="#m5bcacba3d6" x="150.016063" y="401.735691" style="stroke: #000000; stroke-width: 1.2"/>
     <use xlink:href="#m5bcacba3d6" x="150.523336" y="403.714485" style="stroke: #000000; stroke-width: 1.2"/>
     <use xlink:href="#m5bcacba3d6" x="151.18279" y="394.809913" style="stroke: #000000; stroke-width: 1.2"/>
     <use xlink:href="#m5bcacba3d6" x="151.892972" y="398.96538" style="stroke: #000000; stroke-width: 1.2"/>
     <use xlink:href="#m5bcacba3d6" x="152.603154" y="401.735691" style="stroke: #000000; stroke-width: 1.2"/>
     <use xlink:href="#m5bcacba3d6" x="153.262609" y="401.537812" style="stroke: #000000; stroke-width: 1.2"/>
     <use xlink:href="#m5bcacba3d6" x="153.262609" y="393.424757" style="stroke: #000000; stroke-width: 1.2"/>
     <use xlink:href="#m5bcacba3d6" x="154.175699" y="393.820516" style="stroke: #000000; stroke-width: 1.2"/>
     <use xlink:href="#m5bcacba3d6" x="155.849699" y="392.43536" style="stroke: #000000; stroke-width: 1.2"/>
     <use xlink:href="#m5bcacba3d6" x="155.849699" y="388.873531" style="stroke: #000000; stroke-width: 1.2"/>
     <use xlink:href="#m5bcacba3d6" x="156.864245" y="391.445963" style="stroke: #000000; stroke-width: 1.2"/>
     <use xlink:href="#m5bcacba3d6" x="158.893336" y="383.728666" style="stroke: #000000; stroke-width: 1.2"/>
     <use xlink:href="#m5bcacba3d6" x="160.922427" y="386.696857" style="stroke: #000000; stroke-width: 1.2"/>
     <use xlink:href="#m5bcacba3d6" x="163.45879" y="390.060807" style="stroke: #000000; stroke-width: 1.2"/>
     <use xlink:href="#m5bcacba3d6" x="166.502427" y="388.279892" style="stroke: #000000; stroke-width: 1.2"/>
     <use xlink:href="#m5bcacba3d6" x="170.053336" y="399.559018" style="stroke: #000000; stroke-width: 1.2"/>
     <use xlink:href="#m5bcacba3d6" x="174.111518" y="377.990164" style="stroke: #000000; stroke-width: 1.2"/>
     <use xlink:href="#m5bcacba3d6" x="174.61879" y="376.605008" style="stroke: #000000; stroke-width: 1.2"/>
     <use xlink:href="#m5bcacba3d6" x="179.691518" y="394.216274" style="stroke: #000000; stroke-width: 1.2"/>
     <use xlink:href="#m5bcacba3d6" x="179.691518" y="398.371742" style="stroke: #000000; stroke-width: 1.2"/>
     <use xlink:href="#m5bcacba3d6" x="185.77879" y="399.954777" style="stroke: #000000; stroke-width: 1.2"/>
     <use xlink:href="#m5bcacba3d6" x="192.373336" y="402.725088" style="stroke: #000000; stroke-width: 1.2"/>
     <use xlink:href="#m5bcacba3d6" x="192.373336" y="402.32933" style="stroke: #000000; stroke-width: 1.2"/>
     <use xlink:href="#m5bcacba3d6" x="202.51879" y="409.255108" style="stroke: #000000; stroke-width: 1.2"/>
     <use xlink:href="#m5bcacba3d6" x="216.215154" y="402.13145" style="stroke: #000000; stroke-width: 1.2"/>
     <use xlink:href="#m5bcacba3d6" x="234.476972" y="408.265711" style="stroke: #000000; stroke-width: 1.2"/>
     <use xlink:href="#m5bcacba3d6" x="263.391518" y="407.869953" style="stroke: #000000; stroke-width: 1.2"/>
     <use xlink:href="#m5bcacba3d6" x="297.37879" y="419.346958" style="stroke: #000000; stroke-width: 1.2"/>
     <use xlink:href="#m5bcacba3d6" x="337.453336" y="419.742716" style="stroke: #000000; stroke-width: 1.2"/>
     <use xlink:href="#m5bcacba3d6" x="373.469699" y="425.876978" style="stroke: #000000; stroke-width: 1.2"/>
     <use xlink:href="#m5bcacba3d6" x="398.833336" y="425.08546" style="stroke: #000000; stroke-width: 1.2"/>
     <use xlink:href="#m5bcacba3d6" x="451.082427" y="432.604877" style="stroke: #000000; stroke-width: 1.2"/>
     <use xlink:href="#m5bcacba3d6" x="501.809699" y="443.488244" style="stroke: #000000; stroke-width: 1.2"/>
     <use xlink:href="#m5bcacba3d6" x="552.536972" y="451.601299" style="stroke: #000000; stroke-width: 1.2"/>
     <use xlink:href="#m5bcacba3d6" x="603.264245" y="453.777973" style="stroke: #000000; stroke-width: 1.2"/>
     <use xlink:href="#m5bcacba3d6" x="653.991518" y="458.724957" style="stroke: #000000; stroke-width: 1.2"/>
     <use xlink:href="#m5bcacba3d6" x="755.446063" y="462.088907" style="stroke: #000000; stroke-width: 1.2"/>
     <use xlink:href="#m5bcacba3d6" x="856.900609" y="459.912234" style="stroke: #000000; stroke-width: 1.2"/>
     <use xlink:href="#m5bcacba3d6" x="958.355154" y="455.954646" style="stroke: #000000; stroke-width: 1.2"/>
    </g>
   </g>
   <g id="PathCollection_2">
    <defs>
     <path id="m989a06ff1f" d="M 0 0 
L 0 6.123724 
M 0 0 
L 4.898979 -3.061862 
M 0 0 
L -4.898979 -3.061862 
" style="stroke: #000000; stroke-width: 1.2"/>
    </defs>
    <g clip-path="url(#pd104c41f86)">
     <use xlink:href="#m989a06ff1f" x="150.016063" y="305.764184" style="stroke: #000000; stroke-width: 1.2"/>
     <use xlink:href="#m989a06ff1f" x="150.523336" y="302.400235" style="stroke: #000000; stroke-width: 1.2"/>
     <use xlink:href="#m989a06ff1f" x="151.18279" y="295.276576" style="stroke: #000000; stroke-width: 1.2"/>
     <use xlink:href="#m989a06ff1f" x="151.892972" y="287.757159" style="stroke: #000000; stroke-width: 1.2"/>
     <use xlink:href="#m989a06ff1f" x="152.603154" y="282.018657" style="stroke: #000000; stroke-width: 1.2"/>
     <use xlink:href="#m989a06ff1f" x="153.262609" y="276.675913" style="stroke: #000000; stroke-width: 1.2"/>
     <use xlink:href="#m989a06ff1f" x="153.262609" y="279.248345" style="stroke: #000000; stroke-width: 1.2"/>
     <use xlink:href="#m989a06ff1f" x="154.175699" y="270.145893" style="stroke: #000000; stroke-width: 1.2"/>
     <use xlink:href="#m989a06ff1f" x="155.849699" y="260.054044" style="stroke: #000000; stroke-width: 1.2"/>
     <use xlink:href="#m989a06ff1f" x="155.849699" y="259.658285" style="stroke: #000000; stroke-width: 1.2"/>
     <use xlink:href="#m989a06ff1f" x="156.864245" y="254.117662" style="stroke: #000000; stroke-width: 1.2"/>
     <use xlink:href="#m989a06ff1f" x="158.893336" y="247.785521" style="stroke: #000000; stroke-width: 1.2"/>
     <use xlink:href="#m989a06ff1f" x="160.922427" y="240.463984" style="stroke: #000000; stroke-width: 1.2"/>
     <use xlink:href="#m989a06ff1f" x="163.45879" y="230.174255" style="stroke: #000000; stroke-width: 1.2"/>
     <use xlink:href="#m989a06ff1f" x="166.502427" y="223.644235" style="stroke: #000000; stroke-width: 1.2"/>
     <use xlink:href="#m989a06ff1f" x="170.053336" y="212.958747" style="stroke: #000000; stroke-width: 1.2"/>
     <use xlink:href="#m989a06ff1f" x="174.111518" y="196.534758" style="stroke: #000000; stroke-width: 1.2"/>
     <use xlink:href="#m989a06ff1f" x="174.61879" y="203.262657" style="stroke: #000000; stroke-width: 1.2"/>
     <use xlink:href="#m989a06ff1f" x="179.691518" y="193.170808" style="stroke: #000000; stroke-width: 1.2"/>
     <use xlink:href="#m989a06ff1f" x="179.691518" y="182.881079" style="stroke: #000000; stroke-width: 1.2"/>
     <use xlink:href="#m989a06ff1f" x="185.77879" y="172.78923" style="stroke: #000000; stroke-width: 1.2"/>
     <use xlink:href="#m989a06ff1f" x="192.373336" y="162.499501" style="stroke: #000000; stroke-width: 1.2"/>
     <use xlink:href="#m989a06ff1f" x="192.373336" y="166.061331" style="stroke: #000000; stroke-width: 1.2"/>
     <use xlink:href="#m989a06ff1f" x="202.51879" y="156.56312" style="stroke: #000000; stroke-width: 1.2"/>
     <use xlink:href="#m989a06ff1f" x="216.215154" y="143.3052" style="stroke: #000000; stroke-width: 1.2"/>
     <use xlink:href="#m989a06ff1f" x="234.476972" y="132.223954" style="stroke: #000000; stroke-width: 1.2"/>
     <use xlink:href="#m989a06ff1f" x="263.391518" y="125.298175" style="stroke: #000000; stroke-width: 1.2"/>
     <use xlink:href="#m989a06ff1f" x="297.37879" y="121.340587" style="stroke: #000000; stroke-width: 1.2"/>
     <use xlink:href="#m989a06ff1f" x="337.453336" y="126.683331" style="stroke: #000000; stroke-width: 1.2"/>
     <use xlink:href="#m989a06ff1f" x="373.469699" y="127.672728" style="stroke: #000000; stroke-width: 1.2"/>
     <use xlink:href="#m989a06ff1f" x="398.833336" y="127.672728" style="stroke: #000000; stroke-width: 1.2"/>
     <use xlink:href="#m989a06ff1f" x="451.082427" y="129.057884" style="stroke: #000000; stroke-width: 1.2"/>
     <use xlink:href="#m989a06ff1f" x="501.809699" y="132.223954" style="stroke: #000000; stroke-width: 1.2"/>
     <use xlink:href="#m989a06ff1f" x="552.536972" y="136.181542" style="stroke: #000000; stroke-width: 1.2"/>
     <use xlink:href="#m989a06ff1f" x="603.264245" y="145.086115" style="stroke: #000000; stroke-width: 1.2"/>
     <use xlink:href="#m989a06ff1f" x="653.991518" y="146.075512" style="stroke: #000000; stroke-width: 1.2"/>
     <use xlink:href="#m989a06ff1f" x="755.446063" y="150.824617" style="stroke: #000000; stroke-width: 1.2"/>
     <use xlink:href="#m989a06ff1f" x="856.900609" y="156.36524" style="stroke: #000000; stroke-width: 1.2"/>
     <use xlink:href="#m989a06ff1f" x="958.355154" y="155.375843" style="stroke: #000000; stroke-width: 1.2"/>
    </g>
   </g>
   <g id="PathCollection_3">
    <defs>
     <path id="C0_0_015f3605c4" d="M -4.242641 0 
L 0 -7.071068 
L 4.242641 -0 
L 0 7.071068 
z
M -4.242641 0 
L 4.242641 -0 
M 0 -7.071068 
L 0 7.071068 
"/>
    </defs>
    <g clip-path="url(#pd104c41f86)">
     <use xlink:href="#C0_0_015f3605c4" x="150.016063" y="297.651129" style="fill: none; stroke: #000000; stroke-width: 0.8"/>
    </g>
    <g clip-path="url(#pd104c41f86)">
     <use xlink:href="#C0_0_015f3605c4" x="150.523336" y="292.110506" style="fill: none; stroke: #000000; stroke-width: 0.8"/>
    </g>
    <g clip-path="url(#pd104c41f86)">
     <use xlink:href="#C0_0_015f3605c4" x="151.18279" y="280.633501" style="fill: none; stroke: #000000; stroke-width: 0.8"/>
    </g>
    <g clip-path="url(#pd104c41f86)">
     <use xlink:href="#C0_0_015f3605c4" x="151.892972" y="275.884395" style="fill: none; stroke: #000000; stroke-width: 0.8"/>
    </g>
    <g clip-path="url(#pd104c41f86)">
     <use xlink:href="#C0_0_015f3605c4" x="152.603154" y="268.958617" style="fill: none; stroke: #000000; stroke-width: 0.8"/>
    </g>
    <g clip-path="url(#pd104c41f86)">
     <use xlink:href="#C0_0_015f3605c4" x="153.262609" y="260.251923" style="fill: none; stroke: #000000; stroke-width: 0.8"/>
    </g>
    <g clip-path="url(#pd104c41f86)">
     <use xlink:href="#C0_0_015f3605c4" x="153.262609" y="263.417993" style="fill: none; stroke: #000000; stroke-width: 0.8"/>
    </g>
    <g clip-path="url(#pd104c41f86)">
     <use xlink:href="#C0_0_015f3605c4" x="154.175699" y="257.085853" style="fill: none; stroke: #000000; stroke-width: 0.8"/>
    </g>
    <g clip-path="url(#pd104c41f86)">
     <use xlink:href="#C0_0_015f3605c4" x="155.849699" y="244.81733" style="fill: none; stroke: #000000; stroke-width: 0.8"/>
    </g>
    <g clip-path="url(#pd104c41f86)">
     <use xlink:href="#C0_0_015f3605c4" x="155.849699" y="243.827933" style="fill: none; stroke: #000000; stroke-width: 0.8"/>
    </g>
    <g clip-path="url(#pd104c41f86)">
     <use xlink:href="#C0_0_015f3605c4" x="156.864245" y="241.057622" style="fill: none; stroke: #000000; stroke-width: 0.8"/>
    </g>
    <g clip-path="url(#pd104c41f86)">
     <use xlink:href="#C0_0_015f3605c4" x="158.893336" y="230.372134" style="fill: none; stroke: #000000; stroke-width: 0.8"/>
    </g>
    <g clip-path="url(#pd104c41f86)">
     <use xlink:href="#C0_0_015f3605c4" x="160.922427" y="219.488768" style="fill: none; stroke: #000000; stroke-width: 0.8"/>
    </g>
    <g clip-path="url(#pd104c41f86)">
     <use xlink:href="#C0_0_015f3605c4" x="163.45879" y="215.135421" style="fill: none; stroke: #000000; stroke-width: 0.8"/>
    </g>
    <g clip-path="url(#pd104c41f86)">
     <use xlink:href="#C0_0_015f3605c4" x="166.502427" y="203.064778" style="fill: none; stroke: #000000; stroke-width: 0.8"/>
    </g>
    <g clip-path="url(#pd104c41f86)">
     <use xlink:href="#C0_0_015f3605c4" x="170.053336" y="197.722034" style="fill: none; stroke: #000000; stroke-width: 0.8"/>
    </g>
    <g clip-path="url(#pd104c41f86)">
     <use xlink:href="#C0_0_015f3605c4" x="174.111518" y="179.715009" style="fill: none; stroke: #000000; stroke-width: 0.8"/>
    </g>
    <g clip-path="url(#pd104c41f86)">
     <use xlink:href="#C0_0_015f3605c4" x="174.61879" y="185.255632" style="fill: none; stroke: #000000; stroke-width: 0.8"/>
    </g>
    <g clip-path="url(#pd104c41f86)">
     <use xlink:href="#C0_0_015f3605c4" x="179.691518" y="173.976506" style="fill: none; stroke: #000000; stroke-width: 0.8"/>
    </g>
    <g clip-path="url(#pd104c41f86)">
     <use xlink:href="#C0_0_015f3605c4" x="179.691518" y="171.997712" style="fill: none; stroke: #000000; stroke-width: 0.8"/>
    </g>
    <g clip-path="url(#pd104c41f86)">
     <use xlink:href="#C0_0_015f3605c4" x="185.77879" y="158.146155" style="fill: none; stroke: #000000; stroke-width: 0.8"/>
    </g>
    <g clip-path="url(#pd104c41f86)">
     <use xlink:href="#C0_0_015f3605c4" x="192.373336" y="147.658547" style="fill: none; stroke: #000000; stroke-width: 0.8"/>
    </g>
    <g clip-path="url(#pd104c41f86)">
     <use xlink:href="#C0_0_015f3605c4" x="192.373336" y="150.230979" style="fill: none; stroke: #000000; stroke-width: 0.8"/>
    </g>
    <g clip-path="url(#pd104c41f86)">
     <use xlink:href="#C0_0_015f3605c4" x="202.51879" y="140.534889" style="fill: none; stroke: #000000; stroke-width: 0.8"/>
    </g>
    <g clip-path="url(#pd104c41f86)">
     <use xlink:href="#C0_0_015f3605c4" x="216.215154" y="124.704537" style="fill: none; stroke: #000000; stroke-width: 0.8"/>
    </g>
    <g clip-path="url(#pd104c41f86)">
     <use xlink:href="#C0_0_015f3605c4" x="234.476972" y="105.114477" style="fill: none; stroke: #000000; stroke-width: 0.8"/>
    </g>
    <g clip-path="url(#pd104c41f86)">
     <use xlink:href="#C0_0_015f3605c4" x="263.391518" y="82.556225" style="fill: none; stroke: #000000; stroke-width: 0.8"/>
    </g>
    <g clip-path="url(#pd104c41f86)">
     <use xlink:href="#C0_0_015f3605c4" x="297.37879" y="65.736477" style="fill: none; stroke: #000000; stroke-width: 0.8"/>
    </g>
    <g clip-path="url(#pd104c41f86)">
     <use xlink:href="#C0_0_015f3605c4" x="337.453336" y="42.980346" style="fill: none; stroke: #000000; stroke-width: 0.8"/>
    </g>
    <g clip-path="url(#pd104c41f86)">
     <use xlink:href="#C0_0_015f3605c4" x="373.469699" y="33.680015" style="fill: none; stroke: #000000; stroke-width: 0.8"/>
    </g>
    <g clip-path="url(#pd104c41f86)">
     <use xlink:href="#C0_0_015f3605c4" x="398.833336" y="28.930909" style="fill: none; stroke: #000000; stroke-width: 0.8"/>
    </g>
    <g clip-path="url(#pd104c41f86)">
     <use xlink:href="#C0_0_015f3605c4" x="451.082427" y="30.316065" style="fill: none; stroke: #000000; stroke-width: 0.8"/>
    </g>
    <g clip-path="url(#pd104c41f86)">
     <use xlink:href="#C0_0_015f3605c4" x="501.809699" y="31.305462" style="fill: none; stroke: #000000; stroke-width: 0.8"/>
    </g>
    <g clip-path="url(#pd104c41f86)">
     <use xlink:href="#C0_0_015f3605c4" x="552.536972" y="33.877894" style="fill: none; stroke: #000000; stroke-width: 0.8"/>
    </g>
    <g clip-path="url(#pd104c41f86)">
     <use xlink:href="#C0_0_015f3605c4" x="603.264245" y="37.439723" style="fill: none; stroke: #000000; stroke-width: 0.8"/>
    </g>
    <g clip-path="url(#pd104c41f86)">
     <use xlink:href="#C0_0_015f3605c4" x="653.991518" y="39.616396" style="fill: none; stroke: #000000; stroke-width: 0.8"/>
    </g>
    <g clip-path="url(#pd104c41f86)">
     <use xlink:href="#C0_0_015f3605c4" x="755.446063" y="47.927331" style="fill: none; stroke: #000000; stroke-width: 0.8"/>
    </g>
    <g clip-path="url(#pd104c41f86)">
     <use xlink:href="#C0_0_015f3605c4" x="856.900609" y="51.48916" style="fill: none; stroke: #000000; stroke-width: 0.8"/>
    </g>
    <g clip-path="url(#pd104c41f86)">
     <use xlink:href="#C0_0_015f3605c4" x="958.355154" y="49.906125" style="fill: none; stroke: #000000; stroke-width: 0.8"/>
    </g>
   </g>
   <g id="PathCollection_4">
    <defs>
     <path id="C1_0_6bbdfc0eb5" d="M -4.12479 -1.767767 
L 4.12479 -1.767767 
L 0 7.071068 
z
M -4.12479 -1.767767 
L 0 2.268046 
M 4.12479 -1.767767 
L 0 2.268046 
M 0 7.071068 
L 0 2.268046 
"/>
    </defs>
    <g clip-path="url(#pd104c41f86)">
     <use xlink:href="#C1_0_6bbdfc0eb5" x="150.016063" y="368.294073" style="fill: none; stroke: #000000; stroke-width: 0.8"/>
    </g>
    <g clip-path="url(#pd104c41f86)">
     <use xlink:href="#C1_0_6bbdfc0eb5" x="150.523336" y="363.149209" style="fill: none; stroke: #000000; stroke-width: 0.8"/>
    </g>
    <g clip-path="url(#pd104c41f86)">
     <use xlink:href="#C1_0_6bbdfc0eb5" x="151.18279" y="357.806465" style="fill: none; stroke: #000000; stroke-width: 0.8"/>
    </g>
    <g clip-path="url(#pd104c41f86)">
     <use xlink:href="#C1_0_6bbdfc0eb5" x="151.892972" y="354.640395" style="fill: none; stroke: #000000; stroke-width: 0.8"/>
    </g>
    <g clip-path="url(#pd104c41f86)">
     <use xlink:href="#C1_0_6bbdfc0eb5" x="152.603154" y="353.848878" style="fill: none; stroke: #000000; stroke-width: 0.8"/>
    </g>
    <g clip-path="url(#pd104c41f86)">
     <use xlink:href="#C1_0_6bbdfc0eb5" x="153.262609" y="347.714616" style="fill: none; stroke: #000000; stroke-width: 0.8"/>
    </g>
    <g clip-path="url(#pd104c41f86)">
     <use xlink:href="#C1_0_6bbdfc0eb5" x="153.262609" y="348.506134" style="fill: none; stroke: #000000; stroke-width: 0.8"/>
    </g>
    <g clip-path="url(#pd104c41f86)">
     <use xlink:href="#C1_0_6bbdfc0eb5" x="154.175699" y="344.548546" style="fill: none; stroke: #000000; stroke-width: 0.8"/>
    </g>
    <g clip-path="url(#pd104c41f86)">
     <use xlink:href="#C1_0_6bbdfc0eb5" x="155.849699" y="337.820646" style="fill: none; stroke: #000000; stroke-width: 0.8"/>
    </g>
    <g clip-path="url(#pd104c41f86)">
     <use xlink:href="#C1_0_6bbdfc0eb5" x="155.849699" y="338.018526" style="fill: none; stroke: #000000; stroke-width: 0.8"/>
    </g>
    <g clip-path="url(#pd104c41f86)">
     <use xlink:href="#C1_0_6bbdfc0eb5" x="156.864245" y="334.852455" style="fill: none; stroke: #000000; stroke-width: 0.8"/>
    </g>
    <g clip-path="url(#pd104c41f86)">
     <use xlink:href="#C1_0_6bbdfc0eb5" x="158.893336" y="330.301229" style="fill: none; stroke: #000000; stroke-width: 0.8"/>
    </g>
    <g clip-path="url(#pd104c41f86)">
     <use xlink:href="#C1_0_6bbdfc0eb5" x="160.922427" y="325.947883" style="fill: none; stroke: #000000; stroke-width: 0.8"/>
    </g>
    <g clip-path="url(#pd104c41f86)">
     <use xlink:href="#C1_0_6bbdfc0eb5" x="163.45879" y="322.781812" style="fill: none; stroke: #000000; stroke-width: 0.8"/>
    </g>
    <g clip-path="url(#pd104c41f86)">
     <use xlink:href="#C1_0_6bbdfc0eb5" x="166.502427" y="315.856033" style="fill: none; stroke: #000000; stroke-width: 0.8"/>
    </g>
    <g clip-path="url(#pd104c41f86)">
     <use xlink:href="#C1_0_6bbdfc0eb5" x="170.053336" y="312.492084" style="fill: none; stroke: #000000; stroke-width: 0.8"/>
    </g>
    <g clip-path="url(#pd104c41f86)">
     <use xlink:href="#C1_0_6bbdfc0eb5" x="174.111518" y="307.347219" style="fill: none; stroke: #000000; stroke-width: 0.8"/>
    </g>
    <g clip-path="url(#pd104c41f86)">
     <use xlink:href="#C1_0_6bbdfc0eb5" x="174.61879" y="308.336616" style="fill: none; stroke: #000000; stroke-width: 0.8"/>
    </g>
    <g clip-path="url(#pd104c41f86)">
     <use xlink:href="#C1_0_6bbdfc0eb5" x="179.691518" y="300.817199" style="fill: none; stroke: #000000; stroke-width: 0.8"/>
    </g>
    <g clip-path="url(#pd104c41f86)">
     <use xlink:href="#C1_0_6bbdfc0eb5" x="179.691518" y="302.795993" style="fill: none; stroke: #000000; stroke-width: 0.8"/>
    </g>
    <g clip-path="url(#pd104c41f86)">
     <use xlink:href="#C1_0_6bbdfc0eb5" x="185.77879" y="297.45325" style="fill: none; stroke: #000000; stroke-width: 0.8"/>
    </g>
    <g clip-path="url(#pd104c41f86)">
     <use xlink:href="#C1_0_6bbdfc0eb5" x="192.373336" y="296.463853" style="fill: none; stroke: #000000; stroke-width: 0.8"/>
    </g>
    <g clip-path="url(#pd104c41f86)">
     <use xlink:href="#C1_0_6bbdfc0eb5" x="192.373336" y="294.287179" style="fill: none; stroke: #000000; stroke-width: 0.8"/>
    </g>
    <g clip-path="url(#pd104c41f86)">
     <use xlink:href="#C1_0_6bbdfc0eb5" x="202.51879" y="288.746556" style="fill: none; stroke: #000000; stroke-width: 0.8"/>
    </g>
    <g clip-path="url(#pd104c41f86)">
     <use xlink:href="#C1_0_6bbdfc0eb5" x="216.215154" y="277.863189" style="fill: none; stroke: #000000; stroke-width: 0.8"/>
    </g>
    <g clip-path="url(#pd104c41f86)">
     <use xlink:href="#C1_0_6bbdfc0eb5" x="234.476972" y="271.728928" style="fill: none; stroke: #000000; stroke-width: 0.8"/>
    </g>
    <g clip-path="url(#pd104c41f86)">
     <use xlink:href="#C1_0_6bbdfc0eb5" x="263.391518" y="261.637079" style="fill: none; stroke: #000000; stroke-width: 0.8"/>
    </g>
    <g clip-path="url(#pd104c41f86)">
     <use xlink:href="#C1_0_6bbdfc0eb5" x="297.37879" y="249.170677" style="fill: none; stroke: #000000; stroke-width: 0.8"/>
    </g>
    <g clip-path="url(#pd104c41f86)">
     <use xlink:href="#C1_0_6bbdfc0eb5" x="337.453336" y="236.308516" style="fill: none; stroke: #000000; stroke-width: 0.8"/>
    </g>
    <g clip-path="url(#pd104c41f86)">
     <use xlink:href="#C1_0_6bbdfc0eb5" x="373.469699" y="218.895129" style="fill: none; stroke: #000000; stroke-width: 0.8"/>
    </g>
    <g clip-path="url(#pd104c41f86)">
     <use xlink:href="#C1_0_6bbdfc0eb5" x="398.833336" y="213.750265" style="fill: none; stroke: #000000; stroke-width: 0.8"/>
    </g>
    <g clip-path="url(#pd104c41f86)">
     <use xlink:href="#C1_0_6bbdfc0eb5" x="451.082427" y="207.813883" style="fill: none; stroke: #000000; stroke-width: 0.8"/>
    </g>
    <g clip-path="url(#pd104c41f86)">
     <use xlink:href="#C1_0_6bbdfc0eb5" x="501.809699" y="195.149602" style="fill: none; stroke: #000000; stroke-width: 0.8"/>
    </g>
    <g clip-path="url(#pd104c41f86)">
     <use xlink:href="#C1_0_6bbdfc0eb5" x="552.536972" y="187.234426" style="fill: none; stroke: #000000; stroke-width: 0.8"/>
    </g>
    <g clip-path="url(#pd104c41f86)">
     <use xlink:href="#C1_0_6bbdfc0eb5" x="603.264245" y="179.715009" style="fill: none; stroke: #000000; stroke-width: 0.8"/>
    </g>
    <g clip-path="url(#pd104c41f86)">
     <use xlink:href="#C1_0_6bbdfc0eb5" x="653.991518" y="179.51713" style="fill: none; stroke: #000000; stroke-width: 0.8"/>
    </g>
    <g clip-path="url(#pd104c41f86)">
     <use xlink:href="#C1_0_6bbdfc0eb5" x="755.446063" y="179.121371" style="fill: none; stroke: #000000; stroke-width: 0.8"/>
    </g>
    <g clip-path="url(#pd104c41f86)">
     <use xlink:href="#C1_0_6bbdfc0eb5" x="856.900609" y="177.538336" style="fill: none; stroke: #000000; stroke-width: 0.8"/>
    </g>
    <g clip-path="url(#pd104c41f86)">
     <use xlink:href="#C1_0_6bbdfc0eb5" x="958.355154" y="181.891682" style="fill: none; stroke: #000000; stroke-width: 0.8"/>
    </g>
   </g>
   <g id="patch_3">
    <path d="M 106.136972 485.28 
L 106.136972 7.2 
" style="fill: none; stroke: #000000; stroke-width: 0.8; stroke-linejoin: miter; stroke-linecap: square"/>
   </g>
   <g id="patch_4">
    <path d="M 998.936972 485.28 
L 998.936972 7.2 
" style="fill: none; stroke: #000000; stroke-width: 0.8; stroke-linejoin: miter; stroke-linecap: square"/>
   </g>
   <g id="patch_5">
    <path d="M 106.136972 485.28 
L 998.936972 485.28 
" style="fill: none; stroke: #000000; stroke-width: 0.8; stroke-linejoin: miter; stroke-linecap: square"/>
   </g>
   <g id="patch_6">
    <path d="M 106.136972 7.2 
L 998.936972 7.2 
" style="fill: none; stroke: #000000; stroke-width: 0.8; stroke-linejoin: miter; stroke-linecap: square"/>
   </g>
   <g id="legend_1">
    <g id="patch_7">
     <path d="M 449.461597 352.799267 
L 984.936972 352.799267 
Q 988.936972 352.799267 988.936972 348.799267 
L 988.936972 239.296733 
Q 988.936972 235.296733 984.936972 235.296733 
L 449.461597 235.296733 
Q 445.461597 235.296733 445.461597 239.296733 
L 445.461597 348.799267 
Q 445.461597 352.799267 449.461597 352.799267 
z
" style="fill: #ffffff; opacity: 0.8; stroke: #cccccc; stroke-linejoin: miter"/>
    </g>
    <g id="line2d_29">
     <path d="M 453.461597 250.296733 
L 473.461597 250.296733 
L 493.461597 250.296733 
" style="fill: none; stroke: #000000; stroke-width: 1.2; stroke-linecap: square"/>
    </g>
    <g id="text_15">
     <!-- $\omega t = 0\:\unit{\degree}$ - - Model -->
     <g transform="translate(509.461597 257.296733) scale(0.2 -0.2)">
      <defs>
       <path id="CMMI12-21" d="M 3802 2395 
C 3802 2580 3750 2816 3526 2816 
C 3398 2816 3251 2657 3251 2529 
C 3251 2472 3277 2434 3328 2376 
C 3424 2268 3546 2096 3546 1797 
C 3546 1567 3405 1204 3302 1007 
C 3123 656 2829 357 2496 357 
C 2093 357 1939 615 1869 975 
C 1939 1143 2086 1560 2086 1728 
C 2086 1798 2061 1856 1978 1856 
C 1933 1856 1882 1831 1850 1779 
C 1760 1638 1677 1129 1683 994 
C 1562 756 1216 357 806 357 
C 378 357 262 733 262 1096 
C 262 1758 678 2338 794 2497 
C 858 2593 902 2657 902 2669 
C 902 2714 877 2784 819 2784 
C 717 2784 685 2701 634 2625 
C 307 2121 77 1414 77 803 
C 77 408 224 -64 704 -64 
C 1235 -64 1568 391 1702 634 
C 1754 275 1946 -64 2413 -64 
C 2899 -64 3206 363 3437 879 
C 3603 1249 3802 2045 3802 2395 
z
" transform="scale(0.015625)"/>
       <path id="CMMI12-74" d="M 1286 2566 
L 1875 2566 
C 1997 2566 2061 2566 2061 2681 
C 2061 2752 2022 2752 1894 2752 
L 1331 2752 
L 1568 3692 
C 1594 3781 1594 3794 1594 3840 
C 1594 3943 1510 4000 1427 4000 
C 1376 4000 1229 3981 1178 3775 
L 928 2752 
L 326 2752 
C 198 2752 141 2752 141 2630 
C 141 2566 186 2566 307 2566 
L 877 2566 
L 454 881 
C 403 658 384 594 384 511 
C 384 211 595 -64 954 -64 
C 1600 -64 1946 868 1946 912 
C 1946 951 1920 970 1882 970 
C 1869 970 1843 970 1830 944 
C 1824 938 1818 931 1773 829 
C 1638 511 1344 64 973 64 
C 781 64 768 224 768 364 
C 768 370 768 492 787 568 
L 1286 2566 
z
" transform="scale(0.015625)"/>
       <path id="CMR17-3d" d="M 4115 2017 
C 4211 2017 4307 2017 4307 2125 
C 4307 2240 4198 2240 4090 2240 
L 512 2240 
C 403 2240 294 2240 294 2125 
C 294 2017 390 2017 486 2017 
L 4115 2017 
z
M 4090 896 
C 4198 896 4307 896 4307 1011 
C 4307 1119 4211 1119 4115 1119 
L 486 1119 
C 390 1119 294 1119 294 1011 
C 294 896 403 896 512 896 
L 4090 896 
z
" transform="scale(0.015625)"/>
       <path id="CMSY10-e" d="M 2842 1600 
C 2842 2277 2272 2828 1600 2828 
C 909 2828 352 2264 352 1600 
C 352 930 909 372 1600 372 
C 2272 372 2842 923 2842 1600 
z
M 1600 628 
C 1043 628 608 1070 608 1600 
C 608 2130 1050 2572 1600 2572 
C 2131 2572 2586 2142 2586 1600 
C 2586 1058 2131 628 1600 628 
z
" transform="scale(0.015625)"/>
       <path id="CMR17-7b" d="M 2970 1664 
L 2970 1766 
L -38 1766 
L -38 1664 
L 2970 1664 
z
" transform="scale(0.015625)"/>
       <path id="CMR17-4d" d="M 1338 4224 
C 1299 4320 1293 4320 1158 4320 
L 339 4320 
L 339 4160 
C 781 4160 851 4160 851 3875 
L 851 610 
C 851 451 851 153 339 153 
L 339 -13 
C 486 0 755 0 915 0 
C 1075 0 1344 0 1491 -13 
L 1491 153 
C 979 153 979 451 979 610 
L 979 4135 
L 986 4135 
L 2490 89 
C 2515 25 2528 -13 2579 -13 
C 2630 -13 2643 25 2669 89 
L 4186 4166 
L 4192 4166 
L 4192 438 
C 4192 153 4122 153 3680 153 
L 3680 -13 
C 3853 0 4198 0 4384 0 
C 4570 0 4922 0 5094 -13 
L 5094 153 
C 4653 153 4582 153 4582 438 
L 4582 3875 
C 4582 4160 4653 4160 5094 4160 
L 5094 4320 
L 4282 4320 
C 4147 4320 4141 4314 4102 4218 
L 2720 502 
L 1338 4224 
z
" transform="scale(0.015625)"/>
       <path id="CMR17-6f" d="M 2758 1356 
C 2758 2176 2163 2816 1466 2816 
C 768 2816 173 2176 173 1356 
C 173 551 768 -64 1466 -64 
C 2163 -64 2758 551 2758 1356 
z
M 1466 51 
C 1165 51 909 230 762 480 
C 602 767 582 1126 582 1408 
C 582 1677 595 2010 762 2298 
C 890 2509 1139 2714 1466 2714 
C 1754 2714 1997 2554 2150 2330 
C 2349 2029 2349 1607 2349 1408 
C 2349 1158 2336 775 2163 467 
C 1984 173 1709 51 1466 51 
z
" transform="scale(0.015625)"/>
       <path id="CMR17-64" d="M 1869 4326 
L 1869 4160 
C 2246 4160 2304 4122 2304 3820 
L 2304 2345 
C 2278 2377 2016 2790 1498 2790 
C 845 2790 211 2208 211 1364 
C 211 525 806 -64 1434 -64 
C 1978 -64 2259 337 2291 380 
L 2291 -63 
L 3066 -63 
L 3066 128 
C 2688 128 2630 166 2630 473 
L 2630 4396 
L 1869 4326 
z
M 2291 755 
C 2291 563 2176 390 2029 262 
C 1811 70 1594 38 1472 38 
C 1286 38 621 134 621 1356 
C 621 2612 1363 2688 1530 2688 
C 1824 2688 2061 2522 2208 2291 
C 2291 2157 2291 2138 2291 2023 
L 2291 755 
z
" transform="scale(0.015625)"/>
       <path id="CMR17-65" d="M 2438 1472 
C 2464 1498 2464 1511 2464 1576 
C 2464 2238 2118 2816 1389 2816 
C 710 2816 173 2169 173 1383 
C 173 551 781 -64 1459 -64 
C 2176 -64 2458 607 2458 740 
C 2458 784 2419 784 2406 784 
C 2362 784 2355 771 2330 696 
C 2189 265 1837 51 1504 51 
C 1229 51 954 203 781 480 
C 582 803 582 1176 582 1472 
L 2438 1472 
z
M 589 1568 
C 634 2505 1126 2714 1382 2714 
C 1818 2714 2112 2297 2118 1568 
L 589 1568 
z
" transform="scale(0.015625)"/>
       <path id="CMR17-6c" d="M 979 4396 
L 218 4326 
L 218 4160 
C 595 4160 653 4122 653 3817 
L 653 426 
C 653 184 627 153 218 153 
L 218 -13 
C 371 0 653 0 813 0 
C 979 0 1261 0 1414 -13 
L 1414 153 
C 1005 153 979 178 979 426 
L 979 4396 
z
" transform="scale(0.015625)"/>
      </defs>
      <use xlink:href="#CMMI12-21" transform="scale(0.996264)"/>
      <use xlink:href="#CMMI12-74" transform="translate(64.318346 0) scale(0.996264)"/>
      <use xlink:href="#CMR17-3d" transform="translate(127.218685 0) scale(0.996264)"/>
      <use xlink:href="#CMR17-30" transform="translate(226.607482 0) scale(0.996264)"/>
      <use xlink:href="#CMSY10-e" transform="translate(294.437166 36.153639) scale(0.697382)"/>
      <use xlink:href="#CMR17-7b" transform="translate(359.880474 0) scale(0.996264)"/>
      <use xlink:href="#CMR17-4d" transform="translate(435.646918 0) scale(0.996264)"/>
      <use xlink:href="#CMR17-6f" transform="translate(520.333859 0) scale(0.996264)"/>
      <use xlink:href="#CMR17-64" transform="translate(568.626774 0) scale(0.996264)"/>
      <use xlink:href="#CMR17-65" transform="translate(619.522144 0) scale(0.996264)"/>
      <use xlink:href="#CMR17-6c" transform="translate(660.007805 0) scale(0.996264)"/>
     </g>
    </g>
    <g id="line2d_30">
     <path d="M 453.461597 278.172366 
L 473.461597 278.172366 
L 493.461597 278.172366 
" style="fill: none; stroke-dasharray: 4.44,1.92; stroke-dashoffset: 0; stroke: #000000; stroke-width: 1.2"/>
    </g>
    <g id="text_16">
     <!-- $\omega t = 45\:\unit{\degree}$ - - Model -->
     <g transform="translate(509.461597 285.172366) scale(0.2 -0.2)">
      <use xlink:href="#CMMI12-21" transform="scale(0.996264)"/>
      <use xlink:href="#CMMI12-74" transform="translate(64.318346 0) scale(0.996264)"/>
      <use xlink:href="#CMR17-3d" transform="translate(127.218685 0) scale(0.996264)"/>
      <use xlink:href="#CMR17-34" transform="translate(226.607482 0) scale(0.996264)"/>
      <use xlink:href="#CMR17-35" transform="translate(272.297959 0) scale(0.996264)"/>
      <use xlink:href="#CMSY10-e" transform="translate(340.127643 36.153639) scale(0.697382)"/>
      <use xlink:href="#CMR17-7b" transform="translate(405.570952 0) scale(0.996264)"/>
      <use xlink:href="#CMR17-4d" transform="translate(481.337395 0) scale(0.996264)"/>
      <use xlink:href="#CMR17-6f" transform="translate(566.024336 0) scale(0.996264)"/>
      <use xlink:href="#CMR17-64" transform="translate(614.317251 0) scale(0.996264)"/>
      <use xlink:href="#CMR17-65" transform="translate(665.212621 0) scale(0.996264)"/>
      <use xlink:href="#CMR17-6c" transform="translate(705.698282 0) scale(0.996264)"/>
     </g>
    </g>
    <g id="line2d_31">
     <path d="M 453.461597 306.048 
L 473.461597 306.048 
L 493.461597 306.048 
" style="fill: none; stroke-dasharray: 8.32,2.08,1.3,2.08; stroke-dashoffset: 0; stroke: #000000; stroke-width: 1.3"/>
    </g>
    <g id="text_17">
     <!-- $\omega t = 90\:\unit{\degree}$ - - Model -->
     <g transform="translate(509.461597 313.048) scale(0.2 -0.2)">
      <defs>
       <path id="CMR17-39" d="M 2253 1864 
C 2253 464 1670 31 1190 31 
C 1043 31 685 31 538 294 
C 704 268 826 357 826 518 
C 826 692 685 749 595 749 
C 538 749 365 723 365 506 
C 365 71 742 -128 1203 -128 
C 1939 -128 2688 674 2688 2073 
C 2688 3817 1971 4179 1485 4179 
C 851 4179 243 3628 243 2778 
C 243 1991 762 1408 1414 1408 
C 1952 1408 2189 1903 2253 2112 
L 2253 1864 
z
M 1427 1510 
C 1254 1510 1011 1542 813 1922 
C 678 2169 678 2461 678 2771 
C 678 3146 678 3405 858 3684 
C 947 3817 1114 4032 1485 4032 
C 2240 4032 2240 2885 2240 2632 
C 2240 2182 2035 1510 1427 1510 
z
" transform="scale(0.015625)"/>
      </defs>
      <use xlink:href="#CMMI12-21" transform="scale(0.996264)"/>
      <use xlink:href="#CMMI12-74" transform="translate(64.318346 0) scale(0.996264)"/>
      <use xlink:href="#CMR17-3d" transform="translate(127.218685 0) scale(0.996264)"/>
      <use xlink:href="#CMR17-39" transform="translate(226.607482 0) scale(0.996264)"/>
      <use xlink:href="#CMR17-30" transform="translate(272.297959 0) scale(0.996264)"/>
      <use xlink:href="#CMSY10-e" transform="translate(340.127643 36.153639) scale(0.697382)"/>
      <use xlink:href="#CMR17-7b" transform="translate(405.570952 0) scale(0.996264)"/>
      <use xlink:href="#CMR17-4d" transform="translate(481.337395 0) scale(0.996264)"/>
      <use xlink:href="#CMR17-6f" transform="translate(566.024336 0) scale(0.996264)"/>
      <use xlink:href="#CMR17-64" transform="translate(614.317251 0) scale(0.996264)"/>
      <use xlink:href="#CMR17-65" transform="translate(665.212621 0) scale(0.996264)"/>
      <use xlink:href="#CMR17-6c" transform="translate(705.698282 0) scale(0.996264)"/>
     </g>
    </g>
    <g id="line2d_32">
     <path d="M 453.461597 333.923634 
L 473.461597 333.923634 
L 493.461597 333.923634 
" style="fill: none; stroke-dasharray: 1.8,2.97; stroke-dashoffset: 0; stroke: #000000; stroke-width: 1.8"/>
    </g>
    <g id="text_18">
     <!-- $\omega t = 135\:\unit{\degree}$ - - Model -->
     <g transform="translate(509.461597 340.923634) scale(0.2 -0.2)">
      <use xlink:href="#CMMI12-21" transform="scale(0.996264)"/>
      <use xlink:href="#CMMI12-74" transform="translate(64.318346 0) scale(0.996264)"/>
      <use xlink:href="#CMR17-3d" transform="translate(127.218685 0) scale(0.996264)"/>
      <use xlink:href="#CMR17-31" transform="translate(226.607482 0) scale(0.996264)"/>
      <use xlink:href="#CMR17-33" transform="translate(272.297959 0) scale(0.996264)"/>
      <use xlink:href="#CMR17-35" transform="translate(317.988436 0) scale(0.996264)"/>
      <use xlink:href="#CMSY10-e" transform="translate(385.81812 36.153639) scale(0.697382)"/>
      <use xlink:href="#CMR17-7b" transform="translate(451.261429 0) scale(0.996264)"/>
      <use xlink:href="#CMR17-4d" transform="translate(527.027872 0) scale(0.996264)"/>
      <use xlink:href="#CMR17-6f" transform="translate(611.714813 0) scale(0.996264)"/>
      <use xlink:href="#CMR17-64" transform="translate(660.007729 0) scale(0.996264)"/>
      <use xlink:href="#CMR17-65" transform="translate(710.903098 0) scale(0.996264)"/>
      <use xlink:href="#CMR17-6c" transform="translate(751.388759 0) scale(0.996264)"/>
     </g>
    </g>
    <g id="PathCollection_5">
     <g>
      <use xlink:href="#m5bcacba3d6" x="725.111841" y="252.046733" style="stroke: #000000; stroke-width: 1.2"/>
     </g>
    </g>
    <g id="text_19">
     <!-- $\omega t = 0\:\unit{\degree}$ - - Measurements -->
     <g transform="translate(761.111841 257.296733) scale(0.2 -0.2)">
      <defs>
       <path id="CMR17-61" d="M 2304 1653 
C 2304 2072 2304 2294 2035 2543 
C 1798 2752 1523 2816 1306 2816 
C 800 2816 435 2407 435 1971 
C 435 1728 627 1728 666 1728 
C 749 1728 896 1778 896 1954 
C 896 2112 774 2181 666 2181 
C 640 2181 608 2174 589 2168 
C 723 2592 1069 2714 1293 2714 
C 1613 2714 1965 2429 1965 1885 
L 1965 1600 
C 1587 1600 1133 1549 774 1357 
C 371 1133 256 813 256 570 
C 256 77 832 -64 1171 -64 
C 1523 -64 1850 139 1990 511 
C 2003 233 2182 -18 2464 -18 
C 2598 -18 2938 70 2938 567 
L 2938 920 
L 2822 920 
L 2822 562 
C 2822 178 2650 128 2566 128 
C 2304 128 2304 458 2304 738 
L 2304 1653 
z
M 1965 870 
C 1965 317 1568 38 1216 38 
C 896 38 646 275 646 570 
C 646 761 730 1100 1101 1305 
C 1408 1478 1760 1504 1965 1504 
L 1965 870 
z
" transform="scale(0.015625)"/>
       <path id="CMR17-73" d="M 1978 2697 
C 1978 2813 1971 2819 1933 2819 
C 1907 2819 1901 2813 1824 2717 
C 1805 2691 1747 2626 1728 2601 
C 1523 2819 1235 2819 1126 2819 
C 416 2819 160 2447 160 2076 
C 160 1498 813 1365 998 1325 
C 1402 1243 1542 1217 1677 1101 
C 1760 1025 1901 884 1901 654 
C 1901 384 1747 38 1158 38 
C 602 38 403 460 288 1021 
C 269 1110 269 1117 218 1117 
C 166 1117 160 1110 160 983 
L 160 63 
C 160 -51 166 -58 205 -58 
C 237 -58 243 -51 275 0 
C 314 57 410 211 448 276 
C 576 103 800 -64 1158 -64 
C 1792 -64 2131 283 2131 784 
C 2131 1112 1958 1285 1875 1362 
C 1683 1561 1459 1606 1190 1657 
C 838 1735 390 1825 390 2217 
C 390 2383 480 2737 1126 2737 
C 1811 2737 1850 2094 1862 1888 
C 1869 1856 1901 1849 1920 1849 
C 1978 1849 1978 1869 1978 1978 
L 1978 2697 
z
" transform="scale(0.015625)"/>
       <path id="CMR17-75" d="M 1882 2693 
L 1882 2528 
C 2259 2528 2317 2489 2317 2186 
L 2317 1032 
C 2317 500 2029 38 1555 38 
C 1030 38 986 348 986 678 
L 986 2763 
L 211 2693 
L 211 2528 
C 467 2528 640 2528 646 2274 
L 646 1058 
C 646 633 646 361 813 183 
C 896 101 1056 -64 1517 -64 
C 2061 -64 2272 377 2323 506 
L 2330 506 
L 2330 -63 
L 3091 -63 
L 3091 128 
C 2714 128 2656 166 2656 473 
L 2656 2763 
L 1882 2693 
z
" transform="scale(0.015625)"/>
       <path id="CMR17-72" d="M 960 1497 
C 960 2112 1222 2688 1702 2688 
C 1747 2688 1792 2682 1837 2662 
C 1837 2662 1696 2617 1696 2452 
C 1696 2298 1818 2234 1914 2234 
C 1990 2234 2131 2279 2131 2458 
C 2131 2663 1926 2790 1709 2790 
C 1222 2790 1011 2317 947 2093 
L 941 2093 
L 941 2790 
L 198 2720 
L 198 2554 
C 576 2554 634 2515 634 2208 
L 634 428 
C 634 184 608 153 198 153 
L 198 -13 
C 352 0 646 0 813 0 
C 998 0 1325 0 1498 -13 
L 1498 153 
C 1037 153 960 153 960 440 
L 960 1497 
z
" transform="scale(0.015625)"/>
       <path id="CMR17-6d" d="M 4326 1933 
C 4326 2252 4269 2790 3507 2790 
C 3072 2790 2771 2496 2656 2151 
L 2650 2151 
C 2573 2676 2195 2790 1837 2790 
C 1331 2790 1069 2400 973 2144 
L 966 2144 
L 966 2790 
L 211 2720 
L 211 2554 
C 589 2554 646 2515 646 2208 
L 646 428 
C 646 184 621 153 211 153 
L 211 -13 
C 365 0 646 0 813 0 
C 979 0 1267 0 1421 -13 
L 1421 153 
C 1011 153 986 178 986 428 
L 986 1658 
C 986 2247 1344 2688 1792 2688 
C 2266 2688 2317 2266 2317 1958 
L 2317 428 
C 2317 184 2291 153 1882 153 
L 1882 -13 
C 2035 0 2317 0 2483 0 
C 2650 0 2938 0 3091 -13 
L 3091 153 
C 2682 153 2656 178 2656 428 
L 2656 1658 
C 2656 2247 3014 2688 3462 2688 
C 3936 2688 3987 2266 3987 1958 
L 3987 428 
C 3987 184 3962 153 3552 153 
L 3552 -13 
C 3706 0 3987 0 4154 0 
C 4320 0 4608 0 4762 -13 
L 4762 153 
C 4352 153 4326 178 4326 428 
L 4326 1933 
z
" transform="scale(0.015625)"/>
       <path id="CMR17-6e" d="M 2656 1933 
C 2656 2259 2592 2790 1837 2790 
C 1331 2790 1069 2400 973 2144 
L 966 2144 
L 966 2790 
L 211 2720 
L 211 2554 
C 589 2554 646 2515 646 2208 
L 646 428 
C 646 184 621 153 211 153 
L 211 -13 
C 365 0 646 0 813 0 
C 979 0 1267 0 1421 -13 
L 1421 153 
C 1011 153 986 178 986 428 
L 986 1658 
C 986 2247 1344 2688 1792 2688 
C 2266 2688 2317 2266 2317 1958 
L 2317 428 
C 2317 184 2291 153 1882 153 
L 1882 -13 
C 2035 0 2317 0 2483 0 
C 2650 0 2938 0 3091 -13 
L 3091 153 
C 2682 153 2656 178 2656 428 
L 2656 1933 
z
" transform="scale(0.015625)"/>
       <path id="CMR17-74" d="M 966 2560 
L 1862 2560 
L 1862 2725 
L 966 2725 
L 966 3904 
L 851 3904 
C 838 3245 614 2668 70 2668 
L 70 2560 
L 627 2560 
L 627 771 
C 627 650 627 -64 1370 -64 
C 1747 -64 1965 306 1965 777 
L 1965 1140 
L 1850 1140 
L 1850 783 
C 1850 344 1677 51 1408 51 
C 1222 51 966 178 966 758 
L 966 2560 
z
" transform="scale(0.015625)"/>
      </defs>
      <use xlink:href="#CMMI12-21" transform="scale(0.996264)"/>
      <use xlink:href="#CMMI12-74" transform="translate(64.318346 0) scale(0.996264)"/>
      <use xlink:href="#CMR17-3d" transform="translate(127.218685 0) scale(0.996264)"/>
      <use xlink:href="#CMR17-30" transform="translate(226.607482 0) scale(0.996264)"/>
      <use xlink:href="#CMSY10-e" transform="translate(294.437166 36.153639) scale(0.697382)"/>
      <use xlink:href="#CMR17-7b" transform="translate(359.880474 0) scale(0.996264)"/>
      <use xlink:href="#CMR17-4d" transform="translate(435.646918 0) scale(0.996264)"/>
      <use xlink:href="#CMR17-65" transform="translate(520.333859 0) scale(0.996264)"/>
      <use xlink:href="#CMR17-61" transform="translate(560.819519 0) scale(0.996264)"/>
      <use xlink:href="#CMR17-73" transform="translate(606.509996 0) scale(0.996264)"/>
      <use xlink:href="#CMR17-75" transform="translate(642.311334 0) scale(0.996264)"/>
      <use xlink:href="#CMR17-72" transform="translate(693.206703 0) scale(0.996264)"/>
      <use xlink:href="#CMR17-65" transform="translate(728.487471 0) scale(0.996264)"/>
      <use xlink:href="#CMR17-6d" transform="translate(768.973132 0) scale(0.996264)"/>
      <use xlink:href="#CMR17-65" transform="translate(845.892722 0) scale(0.996264)"/>
      <use xlink:href="#CMR17-6e" transform="translate(886.378382 0) scale(0.996264)"/>
      <use xlink:href="#CMR17-74" transform="translate(934.671298 0) scale(0.996264)"/>
      <use xlink:href="#CMR17-73" transform="translate(969.952066 0) scale(0.996264)"/>
     </g>
    </g>
    <g id="PathCollection_6">
     <g>
      <use xlink:href="#m989a06ff1f" x="725.111841" y="279.922366" style="stroke: #000000; stroke-width: 1.2"/>
     </g>
    </g>
    <g id="text_20">
     <!-- $\omega t = 45\:\unit{\degree}$ - - Measurements -->
     <g transform="translate(761.111841 285.172366) scale(0.2 -0.2)">
      <use xlink:href="#CMMI12-21" transform="scale(0.996264)"/>
      <use xlink:href="#CMMI12-74" transform="translate(64.318346 0) scale(0.996264)"/>
      <use xlink:href="#CMR17-3d" transform="translate(127.218685 0) scale(0.996264)"/>
      <use xlink:href="#CMR17-34" transform="translate(226.607482 0) scale(0.996264)"/>
      <use xlink:href="#CMR17-35" transform="translate(272.297959 0) scale(0.996264)"/>
      <use xlink:href="#CMSY10-e" transform="translate(340.127643 36.153639) scale(0.697382)"/>
      <use xlink:href="#CMR17-7b" transform="translate(405.570952 0) scale(0.996264)"/>
      <use xlink:href="#CMR17-4d" transform="translate(481.337395 0) scale(0.996264)"/>
      <use xlink:href="#CMR17-65" transform="translate(566.024336 0) scale(0.996264)"/>
      <use xlink:href="#CMR17-61" transform="translate(606.509996 0) scale(0.996264)"/>
      <use xlink:href="#CMR17-73" transform="translate(652.200473 0) scale(0.996264)"/>
      <use xlink:href="#CMR17-75" transform="translate(688.001811 0) scale(0.996264)"/>
      <use xlink:href="#CMR17-72" transform="translate(738.897181 0) scale(0.996264)"/>
      <use xlink:href="#CMR17-65" transform="translate(774.177948 0) scale(0.996264)"/>
      <use xlink:href="#CMR17-6d" transform="translate(814.663609 0) scale(0.996264)"/>
      <use xlink:href="#CMR17-65" transform="translate(891.583199 0) scale(0.996264)"/>
      <use xlink:href="#CMR17-6e" transform="translate(932.068859 0) scale(0.996264)"/>
      <use xlink:href="#CMR17-74" transform="translate(980.361775 0) scale(0.996264)"/>
      <use xlink:href="#CMR17-73" transform="translate(1015.642543 0) scale(0.996264)"/>
     </g>
    </g>
    <g id="PathCollection_7">
     <path d="M 720.869201 307.798 
L 725.111841 300.726932 
L 729.354482 307.798 
L 725.111841 314.869068 
L 720.869201 307.798 
z
M 720.869201 307.798 
L 729.354482 307.798 
M 725.111841 300.726932 
L 725.111841 314.869068 
" style="fill: none; stroke: #000000; stroke-width: 0.8"/>
    </g>
    <g id="text_21">
     <!-- $\omega t = 90\:\unit{\degree}$ - - Measurements -->
     <g transform="translate(761.111841 313.048) scale(0.2 -0.2)">
      <use xlink:href="#CMMI12-21" transform="scale(0.996264)"/>
      <use xlink:href="#CMMI12-74" transform="translate(64.318346 0) scale(0.996264)"/>
      <use xlink:href="#CMR17-3d" transform="translate(127.218685 0) scale(0.996264)"/>
      <use xlink:href="#CMR17-39" transform="translate(226.607482 0) scale(0.996264)"/>
      <use xlink:href="#CMR17-30" transform="translate(272.297959 0) scale(0.996264)"/>
      <use xlink:href="#CMSY10-e" transform="translate(340.127643 36.153639) scale(0.697382)"/>
      <use xlink:href="#CMR17-7b" transform="translate(405.570952 0) scale(0.996264)"/>
      <use xlink:href="#CMR17-4d" transform="translate(481.337395 0) scale(0.996264)"/>
      <use xlink:href="#CMR17-65" transform="translate(566.024336 0) scale(0.996264)"/>
      <use xlink:href="#CMR17-61" transform="translate(606.509996 0) scale(0.996264)"/>
      <use xlink:href="#CMR17-73" transform="translate(652.200473 0) scale(0.996264)"/>
      <use xlink:href="#CMR17-75" transform="translate(688.001811 0) scale(0.996264)"/>
      <use xlink:href="#CMR17-72" transform="translate(738.897181 0) scale(0.996264)"/>
      <use xlink:href="#CMR17-65" transform="translate(774.177948 0) scale(0.996264)"/>
      <use xlink:href="#CMR17-6d" transform="translate(814.663609 0) scale(0.996264)"/>
      <use xlink:href="#CMR17-65" transform="translate(891.583199 0) scale(0.996264)"/>
      <use xlink:href="#CMR17-6e" transform="translate(932.068859 0) scale(0.996264)"/>
      <use xlink:href="#CMR17-74" transform="translate(980.361775 0) scale(0.996264)"/>
      <use xlink:href="#CMR17-73" transform="translate(1015.642543 0) scale(0.996264)"/>
     </g>
    </g>
    <g id="PathCollection_8">
     <path d="M 720.987052 333.905867 
L 729.236631 333.905867 
L 725.111841 342.744701 
L 720.987052 333.905867 
z
M 720.987052 333.905867 
L 725.111841 337.94168 
M 729.236631 333.905867 
L 725.111841 337.94168 
M 725.111841 342.744701 
L 725.111841 337.94168 
" style="fill: none; stroke: #000000; stroke-width: 0.8"/>
    </g>
    <g id="text_22">
     <!-- $\omega t = 135\:\unit{\degree}$ - - Measurements -->
     <g transform="translate(761.111841 340.923634) scale(0.2 -0.2)">
      <use xlink:href="#CMMI12-21" transform="scale(0.996264)"/>
      <use xlink:href="#CMMI12-74" transform="translate(64.318346 0) scale(0.996264)"/>
      <use xlink:href="#CMR17-3d" transform="translate(127.218685 0) scale(0.996264)"/>
      <use xlink:href="#CMR17-31" transform="translate(226.607482 0) scale(0.996264)"/>
      <use xlink:href="#CMR17-33" transform="translate(272.297959 0) scale(0.996264)"/>
      <use xlink:href="#CMR17-35" transform="translate(317.988436 0) scale(0.996264)"/>
      <use xlink:href="#CMSY10-e" transform="translate(385.81812 36.153639) scale(0.697382)"/>
      <use xlink:href="#CMR17-7b" transform="translate(451.261429 0) scale(0.996264)"/>
      <use xlink:href="#CMR17-4d" transform="translate(527.027872 0) scale(0.996264)"/>
      <use xlink:href="#CMR17-65" transform="translate(611.714813 0) scale(0.996264)"/>
      <use xlink:href="#CMR17-61" transform="translate(652.200473 0) scale(0.996264)"/>
      <use xlink:href="#CMR17-73" transform="translate(697.89095 0) scale(0.996264)"/>
      <use xlink:href="#CMR17-75" transform="translate(733.692288 0) scale(0.996264)"/>
      <use xlink:href="#CMR17-72" transform="translate(784.587658 0) scale(0.996264)"/>
      <use xlink:href="#CMR17-65" transform="translate(819.868426 0) scale(0.996264)"/>
      <use xlink:href="#CMR17-6d" transform="translate(860.354086 0) scale(0.996264)"/>
      <use xlink:href="#CMR17-65" transform="translate(937.273676 0) scale(0.996264)"/>
      <use xlink:href="#CMR17-6e" transform="translate(977.759336 0) scale(0.996264)"/>
      <use xlink:href="#CMR17-74" transform="translate(1026.052252 0) scale(0.996264)"/>
      <use xlink:href="#CMR17-73" transform="translate(1061.33302 0) scale(0.996264)"/>
     </g>
    </g>
   </g>
  </g>
 </g>
 <defs>
  <clipPath id="pd104c41f86">
   <rect x="106.136972" y="7.2" width="892.8" height="478.08"/>
  </clipPath>
 </defs>
</svg>
