<?xml version="1.0" encoding="utf-8" standalone="no"?>
<!DOCTYPE svg PUBLIC "-//W3C//DTD SVG 1.1//EN"
  "http://www.w3.org/Graphics/SVG/1.1/DTD/svg11.dtd">
<svg xmlns:xlink="http://www.w3.org/1999/xlink" width="1234.78195pt" height="585.693134pt" viewBox="0 0 1234.78195 585.693134" xmlns="http://www.w3.org/2000/svg" version="1.1">
 <metadata>
  <rdf:RDF xmlns:dc="http://purl.org/dc/elements/1.1/" xmlns:cc="http://creativecommons.org/ns#" xmlns:rdf="http://www.w3.org/1999/02/22-rdf-syntax-ns#">
   <cc:Work>
    <dc:type rdf:resource="http://purl.org/dc/dcmitype/StillImage"/>
    <dc:date>2024-10-12T14:03:53.421382</dc:date>
    <dc:format>image/svg+xml</dc:format>
    <dc:creator>
     <cc:Agent>
      <dc:title>Matplotlib v3.8.4, https://matplotlib.org/</dc:title>
     </cc:Agent>
    </dc:creator>
   </cc:Work>
  </rdf:RDF>
 </metadata>
 <defs>
  <style type="text/css">*{stroke-linejoin: round; stroke-linecap: butt}</style>
 </defs>
 <g id="figure_1">
  <g id="patch_1">
   <path d="M 0 585.693134 
L 1234.78195 585.693134 
L 1234.78195 0 
L 0 0 
z
" style="fill: #ffffff"/>
  </g>
  <g id="axes_1">
   <g id="patch_2">
    <path d="M 118.032641 486.075202 
L 1010.832641 486.075202 
L 1010.832641 7.995202 
L 118.032641 7.995202 
z
" style="fill: #ffffff"/>
   </g>
   <g id="matplotlib.axis_1">
    <g id="xtick_1">
     <g id="line2d_1">
      <path d="M 158.614459 486.075202 
L 158.614459 7.995202 
" clip-path="url(#p649737fffc)" style="fill: none; stroke: #b0b0b0; stroke-width: 0.8; stroke-linecap: square"/>
     </g>
     <g id="line2d_2">
      <defs>
       <path id="m9943cb4c36" d="M 0 0 
L 0 3.5 
" style="stroke: #000000; stroke-width: 0.8"/>
      </defs>
      <g>
       <use xlink:href="#m9943cb4c36" x="158.614459" y="486.075202" style="stroke: #000000; stroke-width: 0.8"/>
      </g>
     </g>
     <g id="text_1">
      <!-- $\mathdefault{0}$ -->
      <g transform="translate(154.045411 508.412199) scale(0.2 -0.2)">
       <defs>
        <path id="CMR17-30" d="M 2688 2025 
C 2688 2416 2682 3080 2413 3591 
C 2176 4039 1798 4198 1466 4198 
C 1158 4198 768 4058 525 3597 
C 269 3118 243 2524 243 2025 
C 243 1661 250 1106 448 619 
C 723 -39 1216 -128 1466 -128 
C 1760 -128 2208 -7 2470 600 
C 2662 1042 2688 1559 2688 2025 
z
M 1466 -26 
C 1056 -26 813 325 723 812 
C 653 1188 653 1738 653 2096 
C 653 2588 653 2997 736 3387 
C 858 3929 1216 4096 1466 4096 
C 1728 4096 2067 3923 2189 3400 
C 2272 3036 2278 2607 2278 2096 
C 2278 1680 2278 1169 2202 792 
C 2067 95 1690 -26 1466 -26 
z
" transform="scale(0.015625)"/>
       </defs>
       <use xlink:href="#CMR17-30" transform="scale(0.996264)"/>
      </g>
     </g>
    </g>
    <g id="xtick_2">
     <g id="line2d_3">
      <path d="M 271.341731 486.075202 
L 271.341731 7.995202 
" clip-path="url(#p649737fffc)" style="fill: none; stroke: #b0b0b0; stroke-width: 0.8; stroke-linecap: square"/>
     </g>
     <g id="line2d_4">
      <g>
       <use xlink:href="#m9943cb4c36" x="271.341731" y="486.075202" style="stroke: #000000; stroke-width: 0.8"/>
      </g>
     </g>
     <g id="text_2">
      <!-- $\mathdefault{250}$ -->
      <g transform="translate(257.634588 508.412199) scale(0.2 -0.2)">
       <defs>
        <path id="CMR17-32" d="M 2669 989 
L 2554 989 
C 2490 536 2438 459 2413 420 
C 2381 369 1920 369 1830 369 
L 602 369 
C 832 619 1280 1072 1824 1597 
C 2214 1967 2669 2402 2669 3035 
C 2669 3790 2067 4224 1395 4224 
C 691 4224 262 3604 262 3030 
C 262 2780 448 2748 525 2748 
C 589 2748 781 2787 781 3010 
C 781 3207 614 3264 525 3264 
C 486 3264 448 3258 422 3245 
C 544 3790 915 4058 1306 4058 
C 1862 4058 2227 3617 2227 3035 
C 2227 2479 1901 2000 1536 1584 
L 262 146 
L 262 0 
L 2515 0 
L 2669 989 
z
" transform="scale(0.015625)"/>
        <path id="CMR17-35" d="M 730 3692 
C 794 3666 1056 3584 1325 3584 
C 1920 3584 2246 3911 2432 4100 
C 2432 4157 2432 4192 2394 4192 
C 2387 4192 2374 4192 2323 4163 
C 2099 4058 1837 3973 1517 3973 
C 1325 3973 1037 3999 723 4139 
C 653 4171 640 4171 634 4171 
C 602 4171 595 4164 595 4037 
L 595 2203 
C 595 2089 595 2057 659 2057 
C 691 2057 704 2070 736 2114 
C 941 2401 1222 2522 1542 2522 
C 1766 2522 2246 2382 2246 1289 
C 2246 1085 2246 715 2054 421 
C 1894 159 1645 25 1370 25 
C 947 25 518 320 403 814 
C 429 807 480 795 506 795 
C 589 795 749 840 749 1038 
C 749 1210 627 1280 506 1280 
C 358 1280 262 1190 262 1011 
C 262 454 704 -128 1382 -128 
C 2042 -128 2669 440 2669 1264 
C 2669 2030 2170 2624 1549 2624 
C 1222 2624 947 2503 730 2274 
L 730 3692 
z
" transform="scale(0.015625)"/>
       </defs>
       <use xlink:href="#CMR17-32" transform="scale(0.996264)"/>
       <use xlink:href="#CMR17-35" transform="translate(45.690477 0) scale(0.996264)"/>
       <use xlink:href="#CMR17-30" transform="translate(91.380954 0) scale(0.996264)"/>
      </g>
     </g>
    </g>
    <g id="xtick_3">
     <g id="line2d_5">
      <path d="M 384.069004 486.075202 
L 384.069004 7.995202 
" clip-path="url(#p649737fffc)" style="fill: none; stroke: #b0b0b0; stroke-width: 0.8; stroke-linecap: square"/>
     </g>
     <g id="line2d_6">
      <g>
       <use xlink:href="#m9943cb4c36" x="384.069004" y="486.075202" style="stroke: #000000; stroke-width: 0.8"/>
      </g>
     </g>
     <g id="text_3">
      <!-- $\mathdefault{500}$ -->
      <g transform="translate(370.361861 508.412199) scale(0.2 -0.2)">
       <use xlink:href="#CMR17-35" transform="scale(0.996264)"/>
       <use xlink:href="#CMR17-30" transform="translate(45.690477 0) scale(0.996264)"/>
       <use xlink:href="#CMR17-30" transform="translate(91.380954 0) scale(0.996264)"/>
      </g>
     </g>
    </g>
    <g id="xtick_4">
     <g id="line2d_7">
      <path d="M 496.796277 486.075202 
L 496.796277 7.995202 
" clip-path="url(#p649737fffc)" style="fill: none; stroke: #b0b0b0; stroke-width: 0.8; stroke-linecap: square"/>
     </g>
     <g id="line2d_8">
      <g>
       <use xlink:href="#m9943cb4c36" x="496.796277" y="486.075202" style="stroke: #000000; stroke-width: 0.8"/>
      </g>
     </g>
     <g id="text_4">
      <!-- $\mathdefault{750}$ -->
      <g transform="translate(483.089134 508.412199) scale(0.2 -0.2)">
       <defs>
        <path id="CMR17-37" d="M 2886 3941 
L 2886 4081 
L 1382 4081 
C 634 4081 621 4165 595 4288 
L 480 4288 
L 294 3094 
L 410 3094 
C 429 3215 474 3540 550 3661 
C 589 3712 1062 3712 1171 3712 
L 2579 3712 
L 1869 2661 
C 1395 1954 1069 999 1069 165 
C 1069 89 1069 -128 1299 -128 
C 1530 -128 1530 89 1530 171 
L 1530 465 
C 1530 1508 1709 2196 2003 2636 
L 2886 3941 
z
" transform="scale(0.015625)"/>
       </defs>
       <use xlink:href="#CMR17-37" transform="scale(0.996264)"/>
       <use xlink:href="#CMR17-35" transform="translate(45.690477 0) scale(0.996264)"/>
       <use xlink:href="#CMR17-30" transform="translate(91.380954 0) scale(0.996264)"/>
      </g>
     </g>
    </g>
    <g id="xtick_5">
     <g id="line2d_9">
      <path d="M 609.52355 486.075202 
L 609.52355 7.995202 
" clip-path="url(#p649737fffc)" style="fill: none; stroke: #b0b0b0; stroke-width: 0.8; stroke-linecap: square"/>
     </g>
     <g id="line2d_10">
      <g>
       <use xlink:href="#m9943cb4c36" x="609.52355" y="486.075202" style="stroke: #000000; stroke-width: 0.8"/>
      </g>
     </g>
     <g id="text_5">
      <!-- $\mathdefault{1000}$ -->
      <g transform="translate(591.247359 508.412199) scale(0.2 -0.2)">
       <defs>
        <path id="CMR17-31" d="M 1702 4058 
C 1702 4192 1696 4192 1606 4192 
C 1357 3916 979 3827 621 3827 
C 602 3827 570 3827 563 3808 
C 557 3795 557 3782 557 3648 
C 755 3648 1088 3686 1344 3839 
L 1344 461 
C 1344 236 1331 160 781 160 
L 589 160 
L 589 0 
C 896 0 1216 0 1523 0 
C 1830 0 2150 0 2458 0 
L 2458 160 
L 2266 160 
C 1715 160 1702 230 1702 458 
L 1702 4058 
z
" transform="scale(0.015625)"/>
       </defs>
       <use xlink:href="#CMR17-31" transform="scale(0.996264)"/>
       <use xlink:href="#CMR17-30" transform="translate(45.690477 0) scale(0.996264)"/>
       <use xlink:href="#CMR17-30" transform="translate(91.380954 0) scale(0.996264)"/>
       <use xlink:href="#CMR17-30" transform="translate(137.071431 0) scale(0.996264)"/>
      </g>
     </g>
    </g>
    <g id="xtick_6">
     <g id="line2d_11">
      <path d="M 722.250822 486.075202 
L 722.250822 7.995202 
" clip-path="url(#p649737fffc)" style="fill: none; stroke: #b0b0b0; stroke-width: 0.8; stroke-linecap: square"/>
     </g>
     <g id="line2d_12">
      <g>
       <use xlink:href="#m9943cb4c36" x="722.250822" y="486.075202" style="stroke: #000000; stroke-width: 0.8"/>
      </g>
     </g>
     <g id="text_6">
      <!-- $\mathdefault{1250}$ -->
      <g transform="translate(703.974632 508.412199) scale(0.2 -0.2)">
       <use xlink:href="#CMR17-31" transform="scale(0.996264)"/>
       <use xlink:href="#CMR17-32" transform="translate(45.690477 0) scale(0.996264)"/>
       <use xlink:href="#CMR17-35" transform="translate(91.380954 0) scale(0.996264)"/>
       <use xlink:href="#CMR17-30" transform="translate(137.071431 0) scale(0.996264)"/>
      </g>
     </g>
    </g>
    <g id="xtick_7">
     <g id="line2d_13">
      <path d="M 834.978095 486.075202 
L 834.978095 7.995202 
" clip-path="url(#p649737fffc)" style="fill: none; stroke: #b0b0b0; stroke-width: 0.8; stroke-linecap: square"/>
     </g>
     <g id="line2d_14">
      <g>
       <use xlink:href="#m9943cb4c36" x="834.978095" y="486.075202" style="stroke: #000000; stroke-width: 0.8"/>
      </g>
     </g>
     <g id="text_7">
      <!-- $\mathdefault{1500}$ -->
      <g transform="translate(816.701904 508.412199) scale(0.2 -0.2)">
       <use xlink:href="#CMR17-31" transform="scale(0.996264)"/>
       <use xlink:href="#CMR17-35" transform="translate(45.690477 0) scale(0.996264)"/>
       <use xlink:href="#CMR17-30" transform="translate(91.380954 0) scale(0.996264)"/>
       <use xlink:href="#CMR17-30" transform="translate(137.071431 0) scale(0.996264)"/>
      </g>
     </g>
    </g>
    <g id="xtick_8">
     <g id="line2d_15">
      <path d="M 947.705368 486.075202 
L 947.705368 7.995202 
" clip-path="url(#p649737fffc)" style="fill: none; stroke: #b0b0b0; stroke-width: 0.8; stroke-linecap: square"/>
     </g>
     <g id="line2d_16">
      <g>
       <use xlink:href="#m9943cb4c36" x="947.705368" y="486.075202" style="stroke: #000000; stroke-width: 0.8"/>
      </g>
     </g>
     <g id="text_8">
      <!-- $\mathdefault{1750}$ -->
      <g transform="translate(929.429177 508.412199) scale(0.2 -0.2)">
       <use xlink:href="#CMR17-31" transform="scale(0.996264)"/>
       <use xlink:href="#CMR17-37" transform="translate(45.690477 0) scale(0.996264)"/>
       <use xlink:href="#CMR17-35" transform="translate(91.380954 0) scale(0.996264)"/>
       <use xlink:href="#CMR17-30" transform="translate(137.071431 0) scale(0.996264)"/>
      </g>
     </g>
    </g>
    <g id="text_9">
     <!-- $\frac{\tau_0}{\rho \cdot U_{0m}^2}$ -->
     <g transform="translate(532.969192 558.297566) scale(0.375 -0.375)">
      <defs>
       <path id="CMMI12-1c" d="M 1837 2408 
L 2899 2408 
C 2982 2408 3194 2408 3194 2612 
C 3194 2752 3072 2752 2957 2752 
L 1197 2752 
C 1050 2752 832 2752 538 2440 
C 371 2255 166 1917 166 1879 
C 166 1841 198 1828 237 1828 
C 282 1828 288 1847 320 1885 
C 653 2408 986 2408 1146 2408 
L 1677 2408 
L 1011 223 
C 979 127 979 114 979 95 
C 979 25 1024 -64 1152 -64 
C 1350 -64 1382 108 1402 203 
L 1837 2408 
z
" transform="scale(0.015625)"/>
       <path id="CMMI12-1a" d="M 198 -1107 
C 192 -1139 179 -1177 179 -1216 
C 179 -1312 256 -1376 352 -1376 
C 448 -1376 538 -1312 576 -1222 
C 602 -1164 781 -397 986 390 
C 1114 70 1350 -64 1600 -64 
C 2323 -64 3142 830 3142 1795 
C 3142 2478 2726 2816 2285 2816 
C 1722 2816 1037 2235 826 1385 
L 198 -1107 
z
M 1594 64 
C 1158 64 1050 569 1050 645 
C 1050 684 1210 1295 1229 1391 
C 1555 2670 2182 2670 2278 2670 
C 2566 2670 2726 2410 2726 2036 
C 2726 1712 2554 1084 2445 819 
C 2253 381 1920 64 1594 64 
z
" transform="scale(0.015625)"/>
       <path id="CMSY10-1" d="M 1229 1619 
C 1229 1805 1075 1958 890 1958 
C 704 1958 550 1805 550 1619 
C 550 1433 704 1280 890 1280 
C 1075 1280 1229 1433 1229 1619 
z
" transform="scale(0.015625)"/>
       <path id="CMMI12-55" d="M 3238 1474 
C 3014 581 2272 57 1670 57 
C 1210 57 896 363 896 891 
C 896 916 896 1107 966 1387 
L 1594 3887 
C 1651 4103 1664 4167 2118 4167 
C 2234 4167 2298 4167 2298 4282 
C 2298 4352 2240 4352 2202 4352 
C 2086 4352 1952 4352 1830 4352 
L 1075 4352 
C 954 4352 819 4352 698 4352 
C 653 4352 576 4352 576 4231 
C 576 4167 621 4167 742 4167 
C 1126 4167 1126 4116 1126 4046 
C 1126 4008 1082 3824 1050 3715 
L 493 1488 
C 474 1418 435 1246 435 1075 
C 435 374 941 -128 1638 -128 
C 2285 -128 3002 384 3328 1197 
C 3373 1305 3430 1530 3469 1702 
C 3533 1933 3667 2496 3712 2662 
L 3955 3623 
C 4038 3956 4090 4167 4653 4167 
C 4704 4173 4730 4224 4730 4282 
C 4730 4352 4672 4352 4646 4352 
C 4557 4352 4442 4352 4352 4352 
L 4051 4352 
C 3654 4352 3450 4352 3443 4352 
C 3405 4352 3328 4352 3328 4231 
C 3328 4167 3379 4167 3424 4167 
C 3808 4167 3834 4020 3834 3905 
C 3834 3848 3834 3828 3808 3739 
L 3238 1474 
z
" transform="scale(0.015625)"/>
       <path id="CMMI12-6d" d="M 1318 1871 
C 1331 1910 1491 2229 1728 2433 
C 1894 2586 2112 2689 2362 2689 
C 2618 2689 2707 2497 2707 2242 
C 2707 2203 2707 2076 2630 1775 
L 2470 1118 
C 2419 926 2298 453 2285 383 
C 2259 287 2221 121 2221 96 
C 2221 6 2291 -64 2387 -64 
C 2579 -64 2611 83 2669 313 
L 3053 1839 
C 3066 1890 3398 2689 4102 2689 
C 4358 2689 4448 2497 4448 2242 
C 4448 1884 4198 1188 4058 805 
C 4000 651 3968 568 3968 453 
C 3968 166 4166 -64 4474 -64 
C 5069 -64 5293 875 5293 913 
C 5293 945 5267 971 5229 971 
C 5171 971 5165 952 5133 843 
C 4986 332 4749 64 4493 64 
C 4429 64 4326 64 4326 269 
C 4326 436 4403 640 4429 710 
C 4544 1018 4832 1773 4832 2145 
C 4832 2528 4608 2816 4122 2816 
C 3693 2816 3347 2574 3091 2197 
C 3072 2542 2861 2816 2381 2816 
C 1811 2816 1510 2415 1395 2255 
C 1376 2618 1114 2816 832 2816 
C 646 2816 499 2727 378 2484 
C 262 2254 173 1865 173 1839 
C 173 1814 198 1782 243 1782 
C 294 1782 301 1788 339 1935 
C 435 2312 557 2689 813 2689 
C 960 2689 1011 2586 1011 2395 
C 1011 2254 947 2005 902 1807 
L 723 1118 
C 698 996 627 709 595 594 
C 550 428 480 128 480 96 
C 480 6 550 -64 646 -64 
C 723 -64 813 -26 864 70 
C 877 102 934 326 966 453 
L 1107 1028 
L 1318 1871 
z
" transform="scale(0.015625)"/>
      </defs>
      <use xlink:href="#CMMI12-1c" transform="translate(56.988503 39.226102) scale(0.697382)"/>
      <use xlink:href="#CMR17-30" transform="translate(86.64306 28.765405) scale(0.498132)"/>
      <use xlink:href="#CMMI12-1a" transform="translate(0 -34.355253) scale(0.697382)"/>
      <use xlink:href="#CMSY10-1" transform="translate(35.219915 -34.355253) scale(0.697382)"/>
      <use xlink:href="#CMMI12-55" transform="translate(54.591683 -34.355253) scale(0.697382)"/>
      <use xlink:href="#CMR17-32" transform="translate(108.252592 -14.20868) scale(0.498132)"/>
      <use xlink:href="#CMR17-30" transform="translate(100.967958 -51.595716) scale(0.498132)"/>
      <use xlink:href="#CMMI12-6d" transform="translate(123.813197 -51.595716) scale(0.498132)"/>
      <path d="M 0 24.410885 
L 166.974933 24.410885 
L 166.974933 25.40233 
L 0 25.40233 
L 0 24.410885 
z
"/>
     </g>
    </g>
   </g>
   <g id="matplotlib.axis_2">
    <g id="ytick_1">
     <g id="line2d_17">
      <path d="M 118.032641 479.951907 
L 1010.832641 479.951907 
" clip-path="url(#p649737fffc)" style="fill: none; stroke: #b0b0b0; stroke-width: 0.8; stroke-linecap: square"/>
     </g>
     <g id="line2d_18">
      <defs>
       <path id="mdb43463859" d="M 0 0 
L -3.5 0 
" style="stroke: #000000; stroke-width: 0.8"/>
      </defs>
      <g>
       <use xlink:href="#mdb43463859" x="118.032641" y="479.951907" style="stroke: #000000; stroke-width: 0.8"/>
      </g>
     </g>
     <g id="text_10">
      <!-- $\mathdefault{−0.004}$ -->
      <g transform="translate(52.063336 486.870405) scale(0.2 -0.2)">
       <defs>
        <path id="CMSY10-0" d="M 4218 1472 
C 4326 1472 4442 1472 4442 1600 
C 4442 1728 4326 1728 4218 1728 
L 755 1728 
C 646 1728 531 1728 531 1600 
C 531 1472 646 1472 755 1472 
L 4218 1472 
z
" transform="scale(0.015625)"/>
        <path id="CMMI12-3a" d="M 1178 307 
C 1178 492 1024 619 870 619 
C 685 619 557 466 557 313 
C 557 128 710 0 864 0 
C 1050 0 1178 153 1178 307 
z
" transform="scale(0.015625)"/>
        <path id="CMR17-34" d="M 2150 4122 
C 2150 4256 2144 4256 2029 4256 
L 128 1254 
L 128 1088 
L 1779 1088 
L 1779 457 
C 1779 224 1766 160 1318 160 
L 1197 160 
L 1197 0 
C 1402 0 1747 0 1965 0 
C 2182 0 2528 0 2733 0 
L 2733 160 
L 2611 160 
C 2163 160 2150 224 2150 457 
L 2150 1088 
L 2803 1088 
L 2803 1254 
L 2150 1254 
L 2150 4122 
z
M 1798 3703 
L 1798 1254 
L 256 1254 
L 1798 3703 
z
" transform="scale(0.015625)"/>
       </defs>
       <use xlink:href="#CMSY10-0" transform="scale(0.996264)"/>
       <use xlink:href="#CMR17-30" transform="translate(77.487468 0) scale(0.996264)"/>
       <use xlink:href="#CMMI12-3a" transform="translate(123.177945 0) scale(0.996264)"/>
       <use xlink:href="#CMR17-30" transform="translate(150.275122 0) scale(0.996264)"/>
       <use xlink:href="#CMR17-30" transform="translate(195.965599 0) scale(0.996264)"/>
       <use xlink:href="#CMR17-34" transform="translate(241.656076 0) scale(0.996264)"/>
      </g>
     </g>
    </g>
    <g id="ytick_2">
     <g id="line2d_19">
      <path d="M 118.032641 421.722731 
L 1010.832641 421.722731 
" clip-path="url(#p649737fffc)" style="fill: none; stroke: #b0b0b0; stroke-width: 0.8; stroke-linecap: square"/>
     </g>
     <g id="line2d_20">
      <g>
       <use xlink:href="#mdb43463859" x="118.032641" y="421.722731" style="stroke: #000000; stroke-width: 0.8"/>
      </g>
     </g>
     <g id="text_11">
      <!-- $\mathdefault{−0.003}$ -->
      <g transform="translate(52.063336 428.641229) scale(0.2 -0.2)">
       <defs>
        <path id="CMR17-33" d="M 1414 2157 
C 1984 2157 2234 1662 2234 1090 
C 2234 320 1824 25 1453 25 
C 1114 25 563 194 390 693 
C 422 680 454 680 486 680 
C 640 680 755 782 755 948 
C 755 1133 614 1216 486 1216 
C 378 1216 211 1165 211 926 
C 211 335 787 -128 1466 -128 
C 2176 -128 2720 430 2720 1085 
C 2720 1707 2208 2157 1600 2227 
C 2086 2328 2554 2756 2554 3329 
C 2554 3820 2048 4179 1472 4179 
C 890 4179 378 3829 378 3329 
C 378 3110 544 3072 627 3072 
C 762 3072 877 3155 877 3321 
C 877 3486 762 3569 627 3569 
C 602 3569 570 3569 544 3557 
C 730 3959 1235 4032 1459 4032 
C 1683 4032 2106 3925 2106 3320 
C 2106 3143 2080 2828 1862 2550 
C 1670 2304 1453 2304 1242 2284 
C 1210 2284 1062 2269 1037 2269 
C 992 2263 966 2257 966 2208 
C 966 2163 973 2157 1101 2157 
L 1414 2157 
z
" transform="scale(0.015625)"/>
       </defs>
       <use xlink:href="#CMSY10-0" transform="scale(0.996264)"/>
       <use xlink:href="#CMR17-30" transform="translate(77.487468 0) scale(0.996264)"/>
       <use xlink:href="#CMMI12-3a" transform="translate(123.177945 0) scale(0.996264)"/>
       <use xlink:href="#CMR17-30" transform="translate(150.275122 0) scale(0.996264)"/>
       <use xlink:href="#CMR17-30" transform="translate(195.965599 0) scale(0.996264)"/>
       <use xlink:href="#CMR17-33" transform="translate(241.656076 0) scale(0.996264)"/>
      </g>
     </g>
    </g>
    <g id="ytick_3">
     <g id="line2d_21">
      <path d="M 118.032641 363.493555 
L 1010.832641 363.493555 
" clip-path="url(#p649737fffc)" style="fill: none; stroke: #b0b0b0; stroke-width: 0.8; stroke-linecap: square"/>
     </g>
     <g id="line2d_22">
      <g>
       <use xlink:href="#mdb43463859" x="118.032641" y="363.493555" style="stroke: #000000; stroke-width: 0.8"/>
      </g>
     </g>
     <g id="text_12">
      <!-- $\mathdefault{−0.002}$ -->
      <g transform="translate(52.063336 370.412053) scale(0.2 -0.2)">
       <use xlink:href="#CMSY10-0" transform="scale(0.996264)"/>
       <use xlink:href="#CMR17-30" transform="translate(77.487468 0) scale(0.996264)"/>
       <use xlink:href="#CMMI12-3a" transform="translate(123.177945 0) scale(0.996264)"/>
       <use xlink:href="#CMR17-30" transform="translate(150.275122 0) scale(0.996264)"/>
       <use xlink:href="#CMR17-30" transform="translate(195.965599 0) scale(0.996264)"/>
       <use xlink:href="#CMR17-32" transform="translate(241.656076 0) scale(0.996264)"/>
      </g>
     </g>
    </g>
    <g id="ytick_4">
     <g id="line2d_23">
      <path d="M 118.032641 305.264378 
L 1010.832641 305.264378 
" clip-path="url(#p649737fffc)" style="fill: none; stroke: #b0b0b0; stroke-width: 0.8; stroke-linecap: square"/>
     </g>
     <g id="line2d_24">
      <g>
       <use xlink:href="#mdb43463859" x="118.032641" y="305.264378" style="stroke: #000000; stroke-width: 0.8"/>
      </g>
     </g>
     <g id="text_13">
      <!-- $\mathdefault{−0.001}$ -->
      <g transform="translate(52.063336 312.182877) scale(0.2 -0.2)">
       <use xlink:href="#CMSY10-0" transform="scale(0.996264)"/>
       <use xlink:href="#CMR17-30" transform="translate(77.487468 0) scale(0.996264)"/>
       <use xlink:href="#CMMI12-3a" transform="translate(123.177945 0) scale(0.996264)"/>
       <use xlink:href="#CMR17-30" transform="translate(150.275122 0) scale(0.996264)"/>
       <use xlink:href="#CMR17-30" transform="translate(195.965599 0) scale(0.996264)"/>
       <use xlink:href="#CMR17-31" transform="translate(241.656076 0) scale(0.996264)"/>
      </g>
     </g>
    </g>
    <g id="ytick_5">
     <g id="line2d_25">
      <path d="M 118.032641 247.035202 
L 1010.832641 247.035202 
" clip-path="url(#p649737fffc)" style="fill: none; stroke: #b0b0b0; stroke-width: 0.8; stroke-linecap: square"/>
     </g>
     <g id="line2d_26">
      <g>
       <use xlink:href="#mdb43463859" x="118.032641" y="247.035202" style="stroke: #000000; stroke-width: 0.8"/>
      </g>
     </g>
     <g id="text_14">
      <!-- $\mathdefault{0.000}$ -->
      <g transform="translate(67.560823 253.953701) scale(0.2 -0.2)">
       <use xlink:href="#CMR17-30" transform="scale(0.996264)"/>
       <use xlink:href="#CMMI12-3a" transform="translate(45.690477 0) scale(0.996264)"/>
       <use xlink:href="#CMR17-30" transform="translate(72.787654 0) scale(0.996264)"/>
       <use xlink:href="#CMR17-30" transform="translate(118.478131 0) scale(0.996264)"/>
       <use xlink:href="#CMR17-30" transform="translate(164.168608 0) scale(0.996264)"/>
      </g>
     </g>
    </g>
    <g id="ytick_6">
     <g id="line2d_27">
      <path d="M 118.032641 188.806026 
L 1010.832641 188.806026 
" clip-path="url(#p649737fffc)" style="fill: none; stroke: #b0b0b0; stroke-width: 0.8; stroke-linecap: square"/>
     </g>
     <g id="line2d_28">
      <g>
       <use xlink:href="#mdb43463859" x="118.032641" y="188.806026" style="stroke: #000000; stroke-width: 0.8"/>
      </g>
     </g>
     <g id="text_15">
      <!-- $\mathdefault{0.001}$ -->
      <g transform="translate(67.560823 195.724525) scale(0.2 -0.2)">
       <use xlink:href="#CMR17-30" transform="scale(0.996264)"/>
       <use xlink:href="#CMMI12-3a" transform="translate(45.690477 0) scale(0.996264)"/>
       <use xlink:href="#CMR17-30" transform="translate(72.787654 0) scale(0.996264)"/>
       <use xlink:href="#CMR17-30" transform="translate(118.478131 0) scale(0.996264)"/>
       <use xlink:href="#CMR17-31" transform="translate(164.168608 0) scale(0.996264)"/>
      </g>
     </g>
    </g>
    <g id="ytick_7">
     <g id="line2d_29">
      <path d="M 118.032641 130.57685 
L 1010.832641 130.57685 
" clip-path="url(#p649737fffc)" style="fill: none; stroke: #b0b0b0; stroke-width: 0.8; stroke-linecap: square"/>
     </g>
     <g id="line2d_30">
      <g>
       <use xlink:href="#mdb43463859" x="118.032641" y="130.57685" style="stroke: #000000; stroke-width: 0.8"/>
      </g>
     </g>
     <g id="text_16">
      <!-- $\mathdefault{0.002}$ -->
      <g transform="translate(67.560823 137.495349) scale(0.2 -0.2)">
       <use xlink:href="#CMR17-30" transform="scale(0.996264)"/>
       <use xlink:href="#CMMI12-3a" transform="translate(45.690477 0) scale(0.996264)"/>
       <use xlink:href="#CMR17-30" transform="translate(72.787654 0) scale(0.996264)"/>
       <use xlink:href="#CMR17-30" transform="translate(118.478131 0) scale(0.996264)"/>
       <use xlink:href="#CMR17-32" transform="translate(164.168608 0) scale(0.996264)"/>
      </g>
     </g>
    </g>
    <g id="ytick_8">
     <g id="line2d_31">
      <path d="M 118.032641 72.347674 
L 1010.832641 72.347674 
" clip-path="url(#p649737fffc)" style="fill: none; stroke: #b0b0b0; stroke-width: 0.8; stroke-linecap: square"/>
     </g>
     <g id="line2d_32">
      <g>
       <use xlink:href="#mdb43463859" x="118.032641" y="72.347674" style="stroke: #000000; stroke-width: 0.8"/>
      </g>
     </g>
     <g id="text_17">
      <!-- $\mathdefault{0.003}$ -->
      <g transform="translate(67.560823 79.266173) scale(0.2 -0.2)">
       <use xlink:href="#CMR17-30" transform="scale(0.996264)"/>
       <use xlink:href="#CMMI12-3a" transform="translate(45.690477 0) scale(0.996264)"/>
       <use xlink:href="#CMR17-30" transform="translate(72.787654 0) scale(0.996264)"/>
       <use xlink:href="#CMR17-30" transform="translate(118.478131 0) scale(0.996264)"/>
       <use xlink:href="#CMR17-33" transform="translate(164.168608 0) scale(0.996264)"/>
      </g>
     </g>
    </g>
    <g id="ytick_9">
     <g id="line2d_33">
      <path d="M 118.032641 14.118498 
L 1010.832641 14.118498 
" clip-path="url(#p649737fffc)" style="fill: none; stroke: #b0b0b0; stroke-width: 0.8; stroke-linecap: square"/>
     </g>
     <g id="line2d_34">
      <g>
       <use xlink:href="#mdb43463859" x="118.032641" y="14.118498" style="stroke: #000000; stroke-width: 0.8"/>
      </g>
     </g>
     <g id="text_18">
      <!-- $\mathdefault{0.004}$ -->
      <g transform="translate(67.560823 21.036997) scale(0.2 -0.2)">
       <use xlink:href="#CMR17-30" transform="scale(0.996264)"/>
       <use xlink:href="#CMMI12-3a" transform="translate(45.690477 0) scale(0.996264)"/>
       <use xlink:href="#CMR17-30" transform="translate(72.787654 0) scale(0.996264)"/>
       <use xlink:href="#CMR17-30" transform="translate(118.478131 0) scale(0.996264)"/>
       <use xlink:href="#CMR17-34" transform="translate(164.168608 0) scale(0.996264)"/>
      </g>
     </g>
    </g>
    <g id="text_19">
     <!-- $\omega t\:\unit{[\degree]}$ -->
     <g transform="translate(25.857528 273.071136) rotate(-90) scale(0.25 -0.25)">
      <defs>
       <path id="CMMI12-21" d="M 3802 2395 
C 3802 2580 3750 2816 3526 2816 
C 3398 2816 3251 2657 3251 2529 
C 3251 2472 3277 2434 3328 2376 
C 3424 2268 3546 2096 3546 1797 
C 3546 1567 3405 1204 3302 1007 
C 3123 656 2829 357 2496 357 
C 2093 357 1939 615 1869 975 
C 1939 1143 2086 1560 2086 1728 
C 2086 1798 2061 1856 1978 1856 
C 1933 1856 1882 1831 1850 1779 
C 1760 1638 1677 1129 1683 994 
C 1562 756 1216 357 806 357 
C 378 357 262 733 262 1096 
C 262 1758 678 2338 794 2497 
C 858 2593 902 2657 902 2669 
C 902 2714 877 2784 819 2784 
C 717 2784 685 2701 634 2625 
C 307 2121 77 1414 77 803 
C 77 408 224 -64 704 -64 
C 1235 -64 1568 391 1702 634 
C 1754 275 1946 -64 2413 -64 
C 2899 -64 3206 363 3437 879 
C 3603 1249 3802 2045 3802 2395 
z
" transform="scale(0.015625)"/>
       <path id="CMMI12-74" d="M 1286 2566 
L 1875 2566 
C 1997 2566 2061 2566 2061 2681 
C 2061 2752 2022 2752 1894 2752 
L 1331 2752 
L 1568 3692 
C 1594 3781 1594 3794 1594 3840 
C 1594 3943 1510 4000 1427 4000 
C 1376 4000 1229 3981 1178 3775 
L 928 2752 
L 326 2752 
C 198 2752 141 2752 141 2630 
C 141 2566 186 2566 307 2566 
L 877 2566 
L 454 881 
C 403 658 384 594 384 511 
C 384 211 595 -64 954 -64 
C 1600 -64 1946 868 1946 912 
C 1946 951 1920 970 1882 970 
C 1869 970 1843 970 1830 944 
C 1824 938 1818 931 1773 829 
C 1638 511 1344 64 973 64 
C 781 64 768 224 768 364 
C 768 370 768 492 787 568 
L 1286 2566 
z
" transform="scale(0.015625)"/>
       <path id="CMR17-5b" d="M 1504 -1600 
L 1504 -1377 
L 902 -1377 
L 902 4544 
L 1504 4544 
L 1504 4767 
L 678 4767 
L 678 -1600 
L 1504 -1600 
z
" transform="scale(0.015625)"/>
       <path id="CMSY10-e" d="M 2842 1600 
C 2842 2277 2272 2828 1600 2828 
C 909 2828 352 2264 352 1600 
C 352 930 909 372 1600 372 
C 2272 372 2842 923 2842 1600 
z
M 1600 628 
C 1043 628 608 1070 608 1600 
C 608 2130 1050 2572 1600 2572 
C 2131 2572 2586 2142 2586 1600 
C 2586 1058 2131 628 1600 628 
z
" transform="scale(0.015625)"/>
       <path id="CMR17-5d" d="M 915 4767 
L 90 4767 
L 90 4544 
L 691 4544 
L 691 -1377 
L 90 -1377 
L 90 -1600 
L 915 -1600 
L 915 4767 
z
" transform="scale(0.015625)"/>
      </defs>
      <use xlink:href="#CMMI12-21" transform="scale(0.996264)"/>
      <use xlink:href="#CMMI12-74" transform="translate(64.318346 0) scale(0.996264)"/>
      <use xlink:href="#CMR17-5b" transform="translate(121.683883 0) scale(0.996264)"/>
      <use xlink:href="#CMSY10-e" transform="translate(146.554942 36.153639) scale(0.697382)"/>
      <use xlink:href="#CMR17-5d" transform="translate(181.922284 0) scale(0.996264)"/>
     </g>
    </g>
   </g>
   <g id="line2d_35">
    <path d="M 158.614459 99.891566 
L 160.869004 86.717337 
L 163.12355 74.869594 
L 165.378095 64.416041 
L 167.632641 55.413102 
L 169.887186 47.914842 
L 172.141731 41.968468 
L 174.396277 37.612117 
L 176.650822 34.8736 
L 178.905368 33.769626 
L 181.159913 34.305337 
L 183.414459 36.474036 
L 185.669004 40.256918 
L 187.92355 45.623465 
L 190.178095 52.531579 
L 192.432641 60.926777 
L 194.687186 70.744542 
L 196.941731 81.909676 
L 199.196277 94.3364 
L 201.450822 107.929356 
L 203.705368 122.583702 
L 205.959913 138.188206 
L 210.469004 171.76518 
L 214.978095 207.636415 
L 228.505368 317.949149 
L 233.014459 351.887785 
L 235.269004 367.72432 
L 237.52355 382.642176 
L 239.778095 396.527181 
L 242.032641 409.274512 
L 244.287186 420.788275 
L 246.541731 430.978367 
L 248.796277 439.76738 
L 251.050822 447.091997 
L 253.305368 452.891999 
L 255.559913 457.123642 
L 257.814459 459.758316 
L 260.069004 460.770562 
L 262.32355 460.155484 
L 264.578095 457.918286 
L 266.832641 454.075856 
L 269.087186 448.657786 
L 271.341731 441.705058 
L 273.596277 433.268295 
L 275.850822 423.413562 
L 278.105368 412.215542 
L 280.359913 399.759582 
L 282.614459 386.140979 
L 284.869004 371.46328 
L 287.12355 355.838023 
L 291.632641 322.226261 
L 296.141731 286.32672 
L 309.669004 175.960496 
L 314.178095 142.012306 
L 316.432641 126.173105 
L 318.687186 111.253201 
L 320.941731 97.366026 
L 323.196277 84.617176 
L 325.450822 73.103707 
L 327.705368 62.913175 
L 329.959913 54.123233 
L 332.214459 46.800806 
L 334.469004 41.001607 
L 336.72355 36.769874 
L 338.978095 34.137688 
L 341.232641 33.1252 
L 343.487186 33.740005 
L 345.741731 35.97746 
L 347.996277 39.820583 
L 350.250822 45.240011 
L 352.505368 52.194703 
L 354.759913 60.631518 
L 357.014459 70.486456 
L 359.269004 81.684349 
L 361.52355 94.140097 
L 363.778095 107.75885 
L 366.032641 122.436943 
L 368.287186 138.062785 
L 372.796277 171.675425 
L 377.305368 207.575512 
L 390.832641 317.945268 
L 395.341731 351.895183 
L 397.596277 367.735579 
L 399.850822 382.656844 
L 402.105368 396.545439 
L 404.359913 409.29561 
L 406.614459 420.810423 
L 408.869004 431.002116 
L 411.12355 439.793268 
L 413.378095 447.116823 
L 415.632641 452.917207 
L 417.887186 457.150139 
L 420.141731 459.783529 
L 422.396277 460.797269 
L 424.650822 460.183661 
L 426.905368 457.947437 
L 429.159913 454.105473 
L 431.414459 448.687231 
L 433.669004 441.73367 
L 435.92355 433.298022 
L 438.178095 423.444198 
L 440.432641 412.247469 
L 442.687186 399.792808 
L 444.941731 386.175216 
L 447.196277 371.498165 
L 449.450822 355.873484 
L 453.959913 322.263005 
L 458.469004 286.365045 
L 471.996277 176.001518 
L 476.505368 142.053619 
L 478.759913 126.214214 
L 481.014459 111.293932 
L 483.269004 97.40634 
L 485.52355 84.657093 
L 487.778095 73.143309 
L 490.032641 62.952482 
L 492.287186 54.162363 
L 494.541731 46.83963 
L 496.796277 41.040248 
L 499.050822 36.808122 
L 501.305368 34.175693 
L 503.559913 33.162783 
L 505.814459 33.777295 
L 508.069004 36.014397 
L 510.32355 39.857177 
L 512.578095 45.276337 
L 514.832641 52.230623 
L 517.087186 60.667203 
L 519.341731 70.521698 
L 521.596277 81.719372 
L 523.850822 94.17471 
L 526.105368 107.793203 
L 528.359913 122.470948 
L 530.614459 138.096474 
L 535.12355 171.708454 
L 539.632641 207.607883 
L 553.159913 317.975659 
L 557.669004 351.924922 
L 559.92355 367.764975 
L 562.178095 382.685936 
L 564.432641 396.574157 
L 566.687186 409.324049 
L 568.941731 420.838462 
L 571.196277 431.029888 
L 573.450822 439.820651 
L 575.705368 447.143955 
L 577.959913 452.943982 
L 580.214459 457.176648 
L 582.469004 459.809725 
L 584.72355 460.823142 
L 586.978095 460.209282 
L 589.232641 457.972658 
L 591.487186 454.13053 
L 593.741731 448.711823 
L 595.996277 441.758151 
L 598.250822 433.322255 
L 600.505368 423.46843 
L 602.759913 412.271572 
L 605.014459 399.816841 
L 607.269004 386.199085 
L 609.52355 371.521894 
L 611.778095 355.89702 
L 616.287186 322.286227 
L 620.796277 286.38796 
L 634.32355 176.023128 
L 638.832641 142.074786 
L 641.087186 126.235157 
L 643.341731 111.314633 
L 645.596277 97.426815 
L 647.850822 84.677345 
L 650.105368 73.163363 
L 652.359913 62.972355 
L 654.614459 54.182047 
L 656.869004 46.859146 
L 659.12355 41.059569 
L 661.378095 36.827278 
L 663.632641 34.194642 
L 665.887186 33.181572 
L 668.141731 33.795881 
L 670.396277 36.032834 
L 672.650822 39.875427 
L 674.905368 45.294292 
L 677.159913 52.248236 
L 679.414459 60.684426 
L 681.669004 70.538642 
L 683.92355 81.735903 
L 686.178095 94.191067 
L 688.432641 107.809212 
L 690.687186 122.486759 
L 692.941731 138.11198 
L 697.450822 171.723456 
L 701.959913 207.62244 
L 715.487186 317.989201 
L 719.996277 351.938181 
L 722.250822 367.778122 
L 724.505368 382.698948 
L 726.759913 396.587015 
L 729.014459 409.336785 
L 731.269004 420.851008 
L 733.52355 431.042335 
L 735.778095 439.832891 
L 738.032641 447.156122 
L 740.287186 452.955921 
L 742.541731 457.188542 
L 744.796277 459.82135 
L 747.050822 460.834774 
L 749.305368 460.220839 
L 751.559913 457.984365 
L 753.814459 454.142228 
L 756.069004 448.723666 
L 758.32355 441.769957 
L 760.578095 433.3339 
L 762.832641 423.479884 
L 765.087186 412.28279 
L 767.341731 399.827908 
L 769.596277 386.210033 
L 771.850822 371.532712 
L 774.105368 355.907761 
L 778.614459 322.296719 
L 783.12355 286.398183 
L 796.650822 176.032893 
L 801.159913 142.084388 
L 803.414459 126.244671 
L 805.669004 111.324096 
L 807.92355 97.436177 
L 810.178095 84.686712 
L 812.432641 73.172583 
L 814.687186 62.981597 
L 816.941731 54.191106 
L 819.196277 46.868223 
L 821.450822 41.068467 
L 823.705368 36.836188 
L 825.959913 34.203403 
L 828.214459 33.190331 
L 830.469004 33.804525 
L 832.72355 36.041444 
L 834.978095 39.883959 
L 837.232641 45.302895 
L 839.487186 52.256827 
L 841.741731 60.692922 
L 843.996277 70.54705 
L 846.250822 81.744214 
L 848.505368 94.199211 
L 850.759913 107.81732 
L 853.014459 122.494774 
L 855.269004 138.119921 
L 859.778095 171.731247 
L 864.287186 207.630074 
L 877.814459 317.996416 
L 882.32355 351.945265 
L 884.578095 367.78515 
L 886.832641 382.705905 
L 889.087186 396.594006 
L 891.341731 409.343702 
L 893.596277 420.858004 
L 895.850822 431.049234 
L 898.105368 439.839868 
L 900.359913 447.163016 
L 902.614459 452.96288 
L 904.869004 457.195463 
L 907.12355 459.828339 
L 909.378095 460.841717 
L 911.632641 460.227641 
L 913.887186 457.991008 
L 916.141731 454.148645 
L 918.396277 448.729952 
L 920.650822 441.77607 
L 922.905368 433.339957 
L 925.159913 423.48587 
L 927.414459 412.288654 
L 929.669004 399.833737 
L 931.92355 386.215678 
L 934.178095 371.538347 
L 936.432641 355.913249 
L 940.941731 322.302103 
L 945.450822 286.403498 
L 958.978095 176.03804 
L 963.487186 142.089501 
L 965.741731 126.249781 
L 967.996277 111.329168 
L 970.250822 97.441216 
L 970.250822 97.441216 
" clip-path="url(#p649737fffc)" style="fill: none; stroke: #000000; stroke-width: 1.2; stroke-linecap: square"/>
   </g>
   <g id="line2d_36">
    <path d="M 158.614459 82.558424 
L 160.869004 70.803212 
L 163.12355 60.389232 
L 165.378095 51.395741 
L 167.632641 43.891184 
L 169.887186 37.932676 
L 172.141731 33.565565 
L 174.396277 30.823086 
L 176.650822 29.726112 
L 178.905368 30.282991 
L 181.159913 32.489485 
L 183.414459 36.328802 
L 185.669004 41.771722 
L 187.92355 48.776821 
L 190.178095 57.290786 
L 192.432641 67.248821 
L 194.687186 78.575138 
L 196.941731 91.183538 
L 199.196277 104.978064 
L 201.450822 119.85373 
L 203.705368 135.697324 
L 208.214459 169.799529 
L 212.72355 206.248501 
L 226.250822 318.447702 
L 230.759913 353.006415 
L 233.014459 369.140478 
L 235.269004 384.345246 
L 237.52355 398.505002 
L 239.778095 411.511981 
L 242.032641 423.267193 
L 244.287186 433.681172 
L 246.541731 442.674664 
L 248.796277 450.179221 
L 251.050822 456.137729 
L 253.305368 460.50484 
L 255.559913 463.247319 
L 257.814459 464.344293 
L 260.069004 463.787414 
L 262.32355 461.58092 
L 264.578095 457.741603 
L 266.832641 452.298683 
L 269.087186 445.293584 
L 271.341731 436.779619 
L 273.596277 426.821584 
L 275.850822 415.495267 
L 278.105368 402.886867 
L 280.359913 389.092341 
L 282.614459 374.216675 
L 284.869004 358.373081 
L 289.378095 324.270876 
L 293.887186 287.821904 
L 307.414459 175.622703 
L 311.92355 141.06399 
L 314.178095 124.929927 
L 316.432641 109.725159 
L 318.687186 95.565403 
L 320.941731 82.558424 
L 323.196277 70.803212 
L 325.450822 60.389232 
L 327.705368 51.395741 
L 329.959913 43.891184 
L 332.214459 37.932676 
L 334.469004 33.565565 
L 336.72355 30.823086 
L 338.978095 29.726112 
L 341.232641 30.282991 
L 343.487186 32.489485 
L 345.741731 36.328802 
L 347.996277 41.771722 
L 350.250822 48.776821 
L 352.505368 57.290786 
L 354.759913 67.248821 
L 357.014459 78.575138 
L 359.269004 91.183538 
L 361.52355 104.978064 
L 363.778095 119.85373 
L 366.032641 135.697324 
L 370.541731 169.799529 
L 375.050822 206.248501 
L 388.578095 318.447702 
L 393.087186 353.006415 
L 395.341731 369.140478 
L 397.596277 384.345246 
L 399.850822 398.505002 
L 402.105368 411.511981 
L 404.359913 423.267193 
L 406.614459 433.681172 
L 408.869004 442.674664 
L 411.12355 450.179221 
L 413.378095 456.137729 
L 415.632641 460.50484 
L 417.887186 463.247319 
L 420.141731 464.344293 
L 422.396277 463.787414 
L 424.650822 461.58092 
L 426.905368 457.741603 
L 429.159913 452.298683 
L 431.414459 445.293584 
L 433.669004 436.779619 
L 435.92355 426.821584 
L 438.178095 415.495267 
L 440.432641 402.886867 
L 442.687186 389.092341 
L 444.941731 374.216675 
L 447.196277 358.373081 
L 451.705368 324.270876 
L 456.214459 287.821904 
L 469.741731 175.622703 
L 474.250822 141.06399 
L 476.505368 124.929927 
L 478.759913 109.725159 
L 481.014459 95.565403 
L 483.269004 82.558424 
L 485.52355 70.803212 
L 487.778095 60.389232 
L 490.032641 51.395741 
L 492.287186 43.891184 
L 494.541731 37.932676 
L 496.796277 33.565565 
L 499.050822 30.823086 
L 501.305368 29.726112 
L 503.559913 30.282991 
L 505.814459 32.489485 
L 508.069004 36.328802 
L 510.32355 41.771722 
L 512.578095 48.776821 
L 514.832641 57.290786 
L 517.087186 67.248821 
L 519.341731 78.575138 
L 521.596277 91.183538 
L 523.850822 104.978064 
L 526.105368 119.85373 
L 528.359913 135.697324 
L 532.869004 169.799529 
L 537.378095 206.248501 
L 550.905368 318.447702 
L 555.414459 353.006415 
L 557.669004 369.140478 
L 559.92355 384.345246 
L 562.178095 398.505002 
L 564.432641 411.511981 
L 566.687186 423.267193 
L 568.941731 433.681172 
L 571.196277 442.674664 
L 573.450822 450.179221 
L 575.705368 456.137729 
L 577.959913 460.50484 
L 580.214459 463.247319 
L 582.469004 464.344293 
L 584.72355 463.787414 
L 586.978095 461.58092 
L 589.232641 457.741603 
L 591.487186 452.298683 
L 593.741731 445.293584 
L 595.996277 436.779619 
L 598.250822 426.821584 
L 600.505368 415.495267 
L 602.759913 402.886867 
L 605.014459 389.092341 
L 607.269004 374.216675 
L 609.52355 358.373081 
L 614.032641 324.270876 
L 618.541731 287.821904 
L 632.069004 175.622703 
L 636.578095 141.06399 
L 638.832641 124.929927 
L 641.087186 109.725159 
L 643.341731 95.565403 
L 645.596277 82.558424 
L 647.850822 70.803212 
L 650.105368 60.389232 
L 652.359913 51.395741 
L 654.614459 43.891184 
L 656.869004 37.932676 
L 659.12355 33.565565 
L 661.378095 30.823086 
L 663.632641 29.726112 
L 665.887186 30.282991 
L 668.141731 32.489485 
L 670.396277 36.328802 
L 672.650822 41.771722 
L 674.905368 48.776821 
L 677.159913 57.290786 
L 679.414459 67.248821 
L 681.669004 78.575138 
L 683.92355 91.183538 
L 686.178095 104.978064 
L 688.432641 119.85373 
L 690.687186 135.697324 
L 695.196277 169.799529 
L 699.705368 206.248501 
L 713.232641 318.447702 
L 717.741731 353.006415 
L 719.996277 369.140478 
L 722.250822 384.345246 
L 724.505368 398.505002 
L 726.759913 411.511981 
L 729.014459 423.267193 
L 731.269004 433.681172 
L 733.52355 442.674664 
L 735.778095 450.179221 
L 738.032641 456.137729 
L 740.287186 460.50484 
L 742.541731 463.247319 
L 744.796277 464.344293 
L 747.050822 463.787414 
L 749.305368 461.58092 
L 751.559913 457.741603 
L 753.814459 452.298683 
L 756.069004 445.293584 
L 758.32355 436.779619 
L 760.578095 426.821584 
L 762.832641 415.495267 
L 765.087186 402.886867 
L 767.341731 389.092341 
L 769.596277 374.216675 
L 771.850822 358.373081 
L 776.359913 324.270876 
L 780.869004 287.821904 
L 794.396277 175.622703 
L 798.905368 141.06399 
L 801.159913 124.929927 
L 803.414459 109.725159 
L 805.669004 95.565403 
L 807.92355 82.558424 
L 810.178095 70.803212 
L 812.432641 60.389232 
L 814.687186 51.395741 
L 816.941731 43.891184 
L 819.196277 37.932676 
L 821.450822 33.565565 
L 823.705368 30.823086 
L 825.959913 29.726112 
L 828.214459 30.282991 
L 830.469004 32.489485 
L 832.72355 36.328802 
L 834.978095 41.771722 
L 837.232641 48.776821 
L 839.487186 57.290786 
L 841.741731 67.248821 
L 843.996277 78.575138 
L 846.250822 91.183538 
L 848.505368 104.978064 
L 850.759913 119.85373 
L 853.014459 135.697324 
L 857.52355 169.799529 
L 862.032641 206.248501 
L 875.559913 318.447702 
L 880.069004 353.006415 
L 882.32355 369.140478 
L 884.578095 384.345246 
L 886.832641 398.505002 
L 889.087186 411.511981 
L 891.341731 423.267193 
L 893.596277 433.681172 
L 895.850822 442.674664 
L 898.105368 450.179221 
L 900.359913 456.137729 
L 902.614459 460.50484 
L 904.869004 463.247319 
L 907.12355 464.344293 
L 909.378095 463.787414 
L 911.632641 461.58092 
L 913.887186 457.741603 
L 916.141731 452.298683 
L 918.396277 445.293584 
L 920.650822 436.779619 
L 922.905368 426.821584 
L 925.159913 415.495267 
L 927.414459 402.886867 
L 929.669004 389.092341 
L 931.92355 374.216675 
L 934.178095 358.373081 
L 938.687186 324.270876 
L 943.196277 287.821904 
L 956.72355 175.622703 
L 961.232641 141.06399 
L 963.487186 124.929927 
L 965.741731 109.725159 
L 967.996277 95.565403 
L 970.250822 82.558424 
L 970.250822 82.558424 
" clip-path="url(#p649737fffc)" style="fill: none; stroke-dasharray: 4.44,1.92; stroke-dashoffset: 0; stroke: #000000; stroke-width: 1.2"/>
   </g>
   <g id="patch_3">
    <path d="M 118.032641 486.075202 
L 118.032641 7.995202 
" style="fill: none; stroke: #000000; stroke-width: 0.8; stroke-linejoin: miter; stroke-linecap: square"/>
   </g>
   <g id="patch_4">
    <path d="M 1010.832641 486.075202 
L 1010.832641 7.995202 
" style="fill: none; stroke: #000000; stroke-width: 0.8; stroke-linejoin: miter; stroke-linecap: square"/>
   </g>
   <g id="patch_5">
    <path d="M 118.032641 486.075202 
L 1010.832641 486.075202 
" style="fill: none; stroke: #000000; stroke-width: 0.8; stroke-linejoin: miter; stroke-linecap: square"/>
   </g>
   <g id="patch_6">
    <path d="M 118.032641 7.995202 
L 1010.832641 7.995202 
" style="fill: none; stroke: #000000; stroke-width: 0.8; stroke-linejoin: miter; stroke-linecap: square"/>
   </g>
   <g id="legend_1">
    <g id="patch_7">
     <path d="M 1069.472641 79.74647 
L 1223.58195 79.74647 
Q 1227.58195 79.74647 1227.58195 75.74647 
L 1227.58195 21.995202 
Q 1227.58195 17.995202 1223.58195 17.995202 
L 1069.472641 17.995202 
Q 1065.472641 17.995202 1065.472641 21.995202 
L 1065.472641 75.74647 
Q 1065.472641 79.74647 1069.472641 79.74647 
z
" style="fill: #ffffff; opacity: 0.8; stroke: #cccccc; stroke-linejoin: miter"/>
    </g>
    <g id="line2d_37">
     <path d="M 1073.472641 32.995202 
L 1093.472641 32.995202 
L 1113.472641 32.995202 
" style="fill: none; stroke: #000000; stroke-width: 1.2; stroke-linecap: square"/>
    </g>
    <g id="text_20">
     <!-- Model -->
     <g transform="translate(1129.472641 39.995202) scale(0.2 -0.2)">
      <defs>
       <path id="CMR17-4d" d="M 1338 4224 
C 1299 4320 1293 4320 1158 4320 
L 339 4320 
L 339 4160 
C 781 4160 851 4160 851 3875 
L 851 610 
C 851 451 851 153 339 153 
L 339 -13 
C 486 0 755 0 915 0 
C 1075 0 1344 0 1491 -13 
L 1491 153 
C 979 153 979 451 979 610 
L 979 4135 
L 986 4135 
L 2490 89 
C 2515 25 2528 -13 2579 -13 
C 2630 -13 2643 25 2669 89 
L 4186 4166 
L 4192 4166 
L 4192 438 
C 4192 153 4122 153 3680 153 
L 3680 -13 
C 3853 0 4198 0 4384 0 
C 4570 0 4922 0 5094 -13 
L 5094 153 
C 4653 153 4582 153 4582 438 
L 4582 3875 
C 4582 4160 4653 4160 5094 4160 
L 5094 4320 
L 4282 4320 
C 4147 4320 4141 4314 4102 4218 
L 2720 502 
L 1338 4224 
z
" transform="scale(0.015625)"/>
       <path id="CMR17-6f" d="M 2758 1356 
C 2758 2176 2163 2816 1466 2816 
C 768 2816 173 2176 173 1356 
C 173 551 768 -64 1466 -64 
C 2163 -64 2758 551 2758 1356 
z
M 1466 51 
C 1165 51 909 230 762 480 
C 602 767 582 1126 582 1408 
C 582 1677 595 2010 762 2298 
C 890 2509 1139 2714 1466 2714 
C 1754 2714 1997 2554 2150 2330 
C 2349 2029 2349 1607 2349 1408 
C 2349 1158 2336 775 2163 467 
C 1984 173 1709 51 1466 51 
z
" transform="scale(0.015625)"/>
       <path id="CMR17-64" d="M 1869 4326 
L 1869 4160 
C 2246 4160 2304 4122 2304 3820 
L 2304 2345 
C 2278 2377 2016 2790 1498 2790 
C 845 2790 211 2208 211 1364 
C 211 525 806 -64 1434 -64 
C 1978 -64 2259 337 2291 380 
L 2291 -63 
L 3066 -63 
L 3066 128 
C 2688 128 2630 166 2630 473 
L 2630 4396 
L 1869 4326 
z
M 2291 755 
C 2291 563 2176 390 2029 262 
C 1811 70 1594 38 1472 38 
C 1286 38 621 134 621 1356 
C 621 2612 1363 2688 1530 2688 
C 1824 2688 2061 2522 2208 2291 
C 2291 2157 2291 2138 2291 2023 
L 2291 755 
z
" transform="scale(0.015625)"/>
       <path id="CMR17-65" d="M 2438 1472 
C 2464 1498 2464 1511 2464 1576 
C 2464 2238 2118 2816 1389 2816 
C 710 2816 173 2169 173 1383 
C 173 551 781 -64 1459 -64 
C 2176 -64 2458 607 2458 740 
C 2458 784 2419 784 2406 784 
C 2362 784 2355 771 2330 696 
C 2189 265 1837 51 1504 51 
C 1229 51 954 203 781 480 
C 582 803 582 1176 582 1472 
L 2438 1472 
z
M 589 1568 
C 634 2505 1126 2714 1382 2714 
C 1818 2714 2112 2297 2118 1568 
L 589 1568 
z
" transform="scale(0.015625)"/>
       <path id="CMR17-6c" d="M 979 4396 
L 218 4326 
L 218 4160 
C 595 4160 653 4122 653 3817 
L 653 426 
C 653 184 627 153 218 153 
L 218 -13 
C 371 0 653 0 813 0 
C 979 0 1261 0 1414 -13 
L 1414 153 
C 1005 153 979 178 979 426 
L 979 4396 
z
" transform="scale(0.015625)"/>
      </defs>
      <use xlink:href="#CMR17-4d" transform="scale(0.996264)"/>
      <use xlink:href="#CMR17-6f" transform="translate(84.686941 0) scale(0.996264)"/>
      <use xlink:href="#CMR17-64" transform="translate(132.979856 0) scale(0.996264)"/>
      <use xlink:href="#CMR17-65" transform="translate(183.875226 0) scale(0.996264)"/>
      <use xlink:href="#CMR17-6c" transform="translate(224.360887 0) scale(0.996264)"/>
     </g>
    </g>
    <g id="line2d_38">
     <path d="M 1073.472641 60.870836 
L 1093.472641 60.870836 
L 1113.472641 60.870836 
" style="fill: none; stroke-dasharray: 4.44,1.92; stroke-dashoffset: 0; stroke: #000000; stroke-width: 1.2"/>
    </g>
    <g id="text_21">
     <!-- Theoretical -->
     <g transform="translate(1129.472641 67.870836) scale(0.2 -0.2)">
      <defs>
       <path id="CMR17-54" d="M 3981 4326 
L 288 4326 
L 179 2918 
L 294 2918 
C 378 3976 467 4160 1453 4160 
C 1568 4160 1754 4160 1805 4154 
C 1926 4135 1926 4058 1926 3912 
L 1926 459 
C 1926 230 1907 160 1376 160 
L 1197 160 
L 1197 0 
C 1504 0 1824 0 2138 0 
C 2451 0 2771 0 3078 0 
L 3078 160 
L 2899 160 
C 2368 160 2349 230 2349 459 
L 2349 3912 
C 2349 4052 2349 4129 2464 4154 
C 2515 4160 2701 4160 2816 4160 
C 3795 4160 3891 3976 3974 2918 
L 4090 2918 
L 3981 4326 
z
" transform="scale(0.015625)"/>
       <path id="CMR17-68" d="M 2656 1933 
C 2656 2259 2592 2790 1837 2790 
C 1312 2790 1056 2368 979 2157 
L 973 2157 
L 973 4396 
L 211 4326 
L 211 4160 
C 589 4160 646 4122 646 3817 
L 646 426 
C 646 184 621 153 211 153 
L 211 -13 
C 365 0 646 0 813 0 
C 979 0 1267 0 1421 -13 
L 1421 153 
C 1011 153 986 178 986 428 
L 986 1658 
C 986 2247 1344 2688 1792 2688 
C 2266 2688 2317 2266 2317 1958 
L 2317 428 
C 2317 184 2291 153 1882 153 
L 1882 -13 
C 2035 0 2317 0 2483 0 
C 2650 0 2938 0 3091 -13 
L 3091 153 
C 2682 153 2656 178 2656 428 
L 2656 1933 
z
" transform="scale(0.015625)"/>
       <path id="CMR17-72" d="M 960 1497 
C 960 2112 1222 2688 1702 2688 
C 1747 2688 1792 2682 1837 2662 
C 1837 2662 1696 2617 1696 2452 
C 1696 2298 1818 2234 1914 2234 
C 1990 2234 2131 2279 2131 2458 
C 2131 2663 1926 2790 1709 2790 
C 1222 2790 1011 2317 947 2093 
L 941 2093 
L 941 2790 
L 198 2720 
L 198 2554 
C 576 2554 634 2515 634 2208 
L 634 428 
C 634 184 608 153 198 153 
L 198 -13 
C 352 0 646 0 813 0 
C 998 0 1325 0 1498 -13 
L 1498 153 
C 1037 153 960 153 960 440 
L 960 1497 
z
" transform="scale(0.015625)"/>
       <path id="CMR17-74" d="M 966 2560 
L 1862 2560 
L 1862 2725 
L 966 2725 
L 966 3904 
L 851 3904 
C 838 3245 614 2668 70 2668 
L 70 2560 
L 627 2560 
L 627 771 
C 627 650 627 -64 1370 -64 
C 1747 -64 1965 306 1965 777 
L 1965 1140 
L 1850 1140 
L 1850 783 
C 1850 344 1677 51 1408 51 
C 1222 51 966 178 966 758 
L 966 2560 
z
" transform="scale(0.015625)"/>
       <path id="CMR17-69" d="M 992 3909 
C 992 4049 877 4170 730 4170 
C 589 4170 467 4056 467 3909 
C 467 3769 582 3648 730 3648 
C 870 3648 992 3763 992 3909 
z
M 243 2706 
L 243 2541 
C 602 2541 653 2502 653 2197 
L 653 427 
C 653 184 627 153 218 153 
L 218 -13 
C 371 0 646 0 806 0 
C 960 0 1222 0 1370 -13 
L 1370 153 
C 992 153 979 191 979 420 
L 979 2776 
L 243 2706 
z
" transform="scale(0.015625)"/>
       <path id="CMR17-63" d="M 2234 2240 
C 2112 2240 1933 2240 1933 2017 
C 1933 1838 2080 1787 2163 1787 
C 2208 1787 2394 1807 2394 2024 
C 2394 2467 1958 2803 1466 2803 
C 787 2803 211 2178 211 1363 
C 211 516 813 -64 1466 -64 
C 2259 -64 2458 677 2458 748 
C 2458 774 2451 793 2406 793 
C 2362 793 2355 787 2330 703 
C 2163 180 1798 51 1523 51 
C 1114 51 621 427 621 1369 
C 621 2338 1094 2688 1472 2688 
C 1722 2688 2093 2573 2234 2240 
z
" transform="scale(0.015625)"/>
       <path id="CMR17-61" d="M 2304 1653 
C 2304 2072 2304 2294 2035 2543 
C 1798 2752 1523 2816 1306 2816 
C 800 2816 435 2407 435 1971 
C 435 1728 627 1728 666 1728 
C 749 1728 896 1778 896 1954 
C 896 2112 774 2181 666 2181 
C 640 2181 608 2174 589 2168 
C 723 2592 1069 2714 1293 2714 
C 1613 2714 1965 2429 1965 1885 
L 1965 1600 
C 1587 1600 1133 1549 774 1357 
C 371 1133 256 813 256 570 
C 256 77 832 -64 1171 -64 
C 1523 -64 1850 139 1990 511 
C 2003 233 2182 -18 2464 -18 
C 2598 -18 2938 70 2938 567 
L 2938 920 
L 2822 920 
L 2822 562 
C 2822 178 2650 128 2566 128 
C 2304 128 2304 458 2304 738 
L 2304 1653 
z
M 1965 870 
C 1965 317 1568 38 1216 38 
C 896 38 646 275 646 570 
C 646 761 730 1100 1101 1305 
C 1408 1478 1760 1504 1965 1504 
L 1965 870 
z
" transform="scale(0.015625)"/>
      </defs>
      <use xlink:href="#CMR17-54" transform="scale(0.996264)"/>
      <use xlink:href="#CMR17-68" transform="translate(66.509881 0) scale(0.996264)"/>
      <use xlink:href="#CMR17-65" transform="translate(117.40525 0) scale(0.996264)"/>
      <use xlink:href="#CMR17-6f" transform="translate(157.890911 0) scale(0.996264)"/>
      <use xlink:href="#CMR17-72" transform="translate(203.581388 0) scale(0.996264)"/>
      <use xlink:href="#CMR17-65" transform="translate(238.862156 0) scale(0.996264)"/>
      <use xlink:href="#CMR17-74" transform="translate(279.347816 0) scale(0.996264)"/>
      <use xlink:href="#CMR17-69" transform="translate(314.628584 0) scale(0.996264)"/>
      <use xlink:href="#CMR17-63" transform="translate(339.499642 0) scale(0.996264)"/>
      <use xlink:href="#CMR17-61" transform="translate(379.985303 0) scale(0.996264)"/>
      <use xlink:href="#CMR17-6c" transform="translate(425.67578 0) scale(0.996264)"/>
     </g>
    </g>
   </g>
  </g>
 </g>
 <defs>
  <clipPath id="p649737fffc">
   <rect x="118.032641" y="7.995202" width="892.8" height="478.08"/>
  </clipPath>
 </defs>
</svg>
