<?xml version="1.0" encoding="utf-8" standalone="no"?>
<!DOCTYPE svg PUBLIC "-//W3C//DTD SVG 1.1//EN"
  "http://www.w3.org/Graphics/SVG/1.1/DTD/svg11.dtd">
<svg xmlns:xlink="http://www.w3.org/1999/xlink" width="1002.171192pt" height="578.747852pt" viewBox="0 0 1002.171192 578.747852" xmlns="http://www.w3.org/2000/svg" version="1.1">
 <metadata>
  <rdf:RDF xmlns:dc="http://purl.org/dc/elements/1.1/" xmlns:cc="http://creativecommons.org/ns#" xmlns:rdf="http://www.w3.org/1999/02/22-rdf-syntax-ns#">
   <cc:Work>
    <dc:type rdf:resource="http://purl.org/dc/dcmitype/StillImage"/>
    <dc:date>2024-10-21T12:03:05.184146</dc:date>
    <dc:format>image/svg+xml</dc:format>
    <dc:creator>
     <cc:Agent>
      <dc:title>Matplotlib v3.8.4, https://matplotlib.org/</dc:title>
     </cc:Agent>
    </dc:creator>
   </cc:Work>
  </rdf:RDF>
 </metadata>
 <defs>
  <style type="text/css">*{stroke-linejoin: round; stroke-linecap: butt}</style>
 </defs>
 <g id="figure_1">
  <g id="patch_1">
   <path d="M 0 578.747852 
L 1002.171192 578.747852 
L 1002.171192 0 
L 0 0 
z
" style="fill: #ffffff"/>
  </g>
  <g id="axes_1">
   <g id="patch_2">
    <path d="M 102.171192 485.28 
L 994.971192 485.28 
L 994.971192 7.2 
L 102.171192 7.2 
z
" style="fill: #ffffff"/>
   </g>
   <g id="matplotlib.axis_1">
    <g id="xtick_1">
     <g id="line2d_1">
      <path d="M 142.75301 485.28 
L 142.75301 7.2 
" clip-path="url(#pb7ca295e2b)" style="fill: none; stroke: #b0b0b0; stroke-width: 0.8; stroke-linecap: square"/>
     </g>
     <g id="line2d_2">
      <defs>
       <path id="m4c9e7a2407" d="M 0 0 
L 0 3.5 
" style="stroke: #000000; stroke-width: 0.8"/>
      </defs>
      <g>
       <use xlink:href="#m4c9e7a2407" x="142.75301" y="485.28" style="stroke: #000000; stroke-width: 0.8"/>
      </g>
     </g>
     <g id="text_1">
      <!-- $\mathdefault{0.00}$ -->
      <g transform="translate(126.336149 507.616997) scale(0.2 -0.2)">
       <defs>
        <path id="CMR17-30" d="M 2688 2025 
C 2688 2416 2682 3080 2413 3591 
C 2176 4039 1798 4198 1466 4198 
C 1158 4198 768 4058 525 3597 
C 269 3118 243 2524 243 2025 
C 243 1661 250 1106 448 619 
C 723 -39 1216 -128 1466 -128 
C 1760 -128 2208 -7 2470 600 
C 2662 1042 2688 1559 2688 2025 
z
M 1466 -26 
C 1056 -26 813 325 723 812 
C 653 1188 653 1738 653 2096 
C 653 2588 653 2997 736 3387 
C 858 3929 1216 4096 1466 4096 
C 1728 4096 2067 3923 2189 3400 
C 2272 3036 2278 2607 2278 2096 
C 2278 1680 2278 1169 2202 792 
C 2067 95 1690 -26 1466 -26 
z
" transform="scale(0.015625)"/>
        <path id="CMMI12-3a" d="M 1178 307 
C 1178 492 1024 619 870 619 
C 685 619 557 466 557 313 
C 557 128 710 0 864 0 
C 1050 0 1178 153 1178 307 
z
" transform="scale(0.015625)"/>
       </defs>
       <use xlink:href="#CMR17-30" transform="scale(0.996264)"/>
       <use xlink:href="#CMMI12-3a" transform="translate(45.690477 0) scale(0.996264)"/>
       <use xlink:href="#CMR17-30" transform="translate(72.787654 0) scale(0.996264)"/>
       <use xlink:href="#CMR17-30" transform="translate(118.478131 0) scale(0.996264)"/>
      </g>
     </g>
    </g>
    <g id="xtick_2">
     <g id="line2d_3">
      <path d="M 242.63174 485.28 
L 242.63174 7.2 
" clip-path="url(#pb7ca295e2b)" style="fill: none; stroke: #b0b0b0; stroke-width: 0.8; stroke-linecap: square"/>
     </g>
     <g id="line2d_4">
      <g>
       <use xlink:href="#m4c9e7a2407" x="242.63174" y="485.28" style="stroke: #000000; stroke-width: 0.8"/>
      </g>
     </g>
     <g id="text_2">
      <!-- $\mathdefault{0.05}$ -->
      <g transform="translate(226.214879 507.616997) scale(0.2 -0.2)">
       <defs>
        <path id="CMR17-35" d="M 730 3692 
C 794 3666 1056 3584 1325 3584 
C 1920 3584 2246 3911 2432 4100 
C 2432 4157 2432 4192 2394 4192 
C 2387 4192 2374 4192 2323 4163 
C 2099 4058 1837 3973 1517 3973 
C 1325 3973 1037 3999 723 4139 
C 653 4171 640 4171 634 4171 
C 602 4171 595 4164 595 4037 
L 595 2203 
C 595 2089 595 2057 659 2057 
C 691 2057 704 2070 736 2114 
C 941 2401 1222 2522 1542 2522 
C 1766 2522 2246 2382 2246 1289 
C 2246 1085 2246 715 2054 421 
C 1894 159 1645 25 1370 25 
C 947 25 518 320 403 814 
C 429 807 480 795 506 795 
C 589 795 749 840 749 1038 
C 749 1210 627 1280 506 1280 
C 358 1280 262 1190 262 1011 
C 262 454 704 -128 1382 -128 
C 2042 -128 2669 440 2669 1264 
C 2669 2030 2170 2624 1549 2624 
C 1222 2624 947 2503 730 2274 
L 730 3692 
z
" transform="scale(0.015625)"/>
       </defs>
       <use xlink:href="#CMR17-30" transform="scale(0.996264)"/>
       <use xlink:href="#CMMI12-3a" transform="translate(45.690477 0) scale(0.996264)"/>
       <use xlink:href="#CMR17-30" transform="translate(72.787654 0) scale(0.996264)"/>
       <use xlink:href="#CMR17-35" transform="translate(118.478131 0) scale(0.996264)"/>
      </g>
     </g>
    </g>
    <g id="xtick_3">
     <g id="line2d_5">
      <path d="M 342.51047 485.28 
L 342.51047 7.2 
" clip-path="url(#pb7ca295e2b)" style="fill: none; stroke: #b0b0b0; stroke-width: 0.8; stroke-linecap: square"/>
     </g>
     <g id="line2d_6">
      <g>
       <use xlink:href="#m4c9e7a2407" x="342.51047" y="485.28" style="stroke: #000000; stroke-width: 0.8"/>
      </g>
     </g>
     <g id="text_3">
      <!-- $\mathdefault{0.10}$ -->
      <g transform="translate(326.093609 507.616997) scale(0.2 -0.2)">
       <defs>
        <path id="CMR17-31" d="M 1702 4058 
C 1702 4192 1696 4192 1606 4192 
C 1357 3916 979 3827 621 3827 
C 602 3827 570 3827 563 3808 
C 557 3795 557 3782 557 3648 
C 755 3648 1088 3686 1344 3839 
L 1344 461 
C 1344 236 1331 160 781 160 
L 589 160 
L 589 0 
C 896 0 1216 0 1523 0 
C 1830 0 2150 0 2458 0 
L 2458 160 
L 2266 160 
C 1715 160 1702 230 1702 458 
L 1702 4058 
z
" transform="scale(0.015625)"/>
       </defs>
       <use xlink:href="#CMR17-30" transform="scale(0.996264)"/>
       <use xlink:href="#CMMI12-3a" transform="translate(45.690477 0) scale(0.996264)"/>
       <use xlink:href="#CMR17-31" transform="translate(72.787654 0) scale(0.996264)"/>
       <use xlink:href="#CMR17-30" transform="translate(118.478131 0) scale(0.996264)"/>
      </g>
     </g>
    </g>
    <g id="xtick_4">
     <g id="line2d_7">
      <path d="M 442.389199 485.28 
L 442.389199 7.2 
" clip-path="url(#pb7ca295e2b)" style="fill: none; stroke: #b0b0b0; stroke-width: 0.8; stroke-linecap: square"/>
     </g>
     <g id="line2d_8">
      <g>
       <use xlink:href="#m4c9e7a2407" x="442.389199" y="485.28" style="stroke: #000000; stroke-width: 0.8"/>
      </g>
     </g>
     <g id="text_4">
      <!-- $\mathdefault{0.15}$ -->
      <g transform="translate(425.972339 507.616997) scale(0.2 -0.2)">
       <use xlink:href="#CMR17-30" transform="scale(0.996264)"/>
       <use xlink:href="#CMMI12-3a" transform="translate(45.690477 0) scale(0.996264)"/>
       <use xlink:href="#CMR17-31" transform="translate(72.787654 0) scale(0.996264)"/>
       <use xlink:href="#CMR17-35" transform="translate(118.478131 0) scale(0.996264)"/>
      </g>
     </g>
    </g>
    <g id="xtick_5">
     <g id="line2d_9">
      <path d="M 542.267929 485.28 
L 542.267929 7.2 
" clip-path="url(#pb7ca295e2b)" style="fill: none; stroke: #b0b0b0; stroke-width: 0.8; stroke-linecap: square"/>
     </g>
     <g id="line2d_10">
      <g>
       <use xlink:href="#m4c9e7a2407" x="542.267929" y="485.28" style="stroke: #000000; stroke-width: 0.8"/>
      </g>
     </g>
     <g id="text_5">
      <!-- $\mathdefault{0.20}$ -->
      <g transform="translate(525.851068 507.616997) scale(0.2 -0.2)">
       <defs>
        <path id="CMR17-32" d="M 2669 989 
L 2554 989 
C 2490 536 2438 459 2413 420 
C 2381 369 1920 369 1830 369 
L 602 369 
C 832 619 1280 1072 1824 1597 
C 2214 1967 2669 2402 2669 3035 
C 2669 3790 2067 4224 1395 4224 
C 691 4224 262 3604 262 3030 
C 262 2780 448 2748 525 2748 
C 589 2748 781 2787 781 3010 
C 781 3207 614 3264 525 3264 
C 486 3264 448 3258 422 3245 
C 544 3790 915 4058 1306 4058 
C 1862 4058 2227 3617 2227 3035 
C 2227 2479 1901 2000 1536 1584 
L 262 146 
L 262 0 
L 2515 0 
L 2669 989 
z
" transform="scale(0.015625)"/>
       </defs>
       <use xlink:href="#CMR17-30" transform="scale(0.996264)"/>
       <use xlink:href="#CMMI12-3a" transform="translate(45.690477 0) scale(0.996264)"/>
       <use xlink:href="#CMR17-32" transform="translate(72.787654 0) scale(0.996264)"/>
       <use xlink:href="#CMR17-30" transform="translate(118.478131 0) scale(0.996264)"/>
      </g>
     </g>
    </g>
    <g id="xtick_6">
     <g id="line2d_11">
      <path d="M 642.146659 485.28 
L 642.146659 7.2 
" clip-path="url(#pb7ca295e2b)" style="fill: none; stroke: #b0b0b0; stroke-width: 0.8; stroke-linecap: square"/>
     </g>
     <g id="line2d_12">
      <g>
       <use xlink:href="#m4c9e7a2407" x="642.146659" y="485.28" style="stroke: #000000; stroke-width: 0.8"/>
      </g>
     </g>
     <g id="text_6">
      <!-- $\mathdefault{0.25}$ -->
      <g transform="translate(625.729798 507.616997) scale(0.2 -0.2)">
       <use xlink:href="#CMR17-30" transform="scale(0.996264)"/>
       <use xlink:href="#CMMI12-3a" transform="translate(45.690477 0) scale(0.996264)"/>
       <use xlink:href="#CMR17-32" transform="translate(72.787654 0) scale(0.996264)"/>
       <use xlink:href="#CMR17-35" transform="translate(118.478131 0) scale(0.996264)"/>
      </g>
     </g>
    </g>
    <g id="xtick_7">
     <g id="line2d_13">
      <path d="M 742.025389 485.28 
L 742.025389 7.2 
" clip-path="url(#pb7ca295e2b)" style="fill: none; stroke: #b0b0b0; stroke-width: 0.8; stroke-linecap: square"/>
     </g>
     <g id="line2d_14">
      <g>
       <use xlink:href="#m4c9e7a2407" x="742.025389" y="485.28" style="stroke: #000000; stroke-width: 0.8"/>
      </g>
     </g>
     <g id="text_7">
      <!-- $\mathdefault{0.30}$ -->
      <g transform="translate(725.608528 507.616997) scale(0.2 -0.2)">
       <defs>
        <path id="CMR17-33" d="M 1414 2157 
C 1984 2157 2234 1662 2234 1090 
C 2234 320 1824 25 1453 25 
C 1114 25 563 194 390 693 
C 422 680 454 680 486 680 
C 640 680 755 782 755 948 
C 755 1133 614 1216 486 1216 
C 378 1216 211 1165 211 926 
C 211 335 787 -128 1466 -128 
C 2176 -128 2720 430 2720 1085 
C 2720 1707 2208 2157 1600 2227 
C 2086 2328 2554 2756 2554 3329 
C 2554 3820 2048 4179 1472 4179 
C 890 4179 378 3829 378 3329 
C 378 3110 544 3072 627 3072 
C 762 3072 877 3155 877 3321 
C 877 3486 762 3569 627 3569 
C 602 3569 570 3569 544 3557 
C 730 3959 1235 4032 1459 4032 
C 1683 4032 2106 3925 2106 3320 
C 2106 3143 2080 2828 1862 2550 
C 1670 2304 1453 2304 1242 2284 
C 1210 2284 1062 2269 1037 2269 
C 992 2263 966 2257 966 2208 
C 966 2163 973 2157 1101 2157 
L 1414 2157 
z
" transform="scale(0.015625)"/>
       </defs>
       <use xlink:href="#CMR17-30" transform="scale(0.996264)"/>
       <use xlink:href="#CMMI12-3a" transform="translate(45.690477 0) scale(0.996264)"/>
       <use xlink:href="#CMR17-33" transform="translate(72.787654 0) scale(0.996264)"/>
       <use xlink:href="#CMR17-30" transform="translate(118.478131 0) scale(0.996264)"/>
      </g>
     </g>
    </g>
    <g id="xtick_8">
     <g id="line2d_15">
      <path d="M 841.904118 485.28 
L 841.904118 7.2 
" clip-path="url(#pb7ca295e2b)" style="fill: none; stroke: #b0b0b0; stroke-width: 0.8; stroke-linecap: square"/>
     </g>
     <g id="line2d_16">
      <g>
       <use xlink:href="#m4c9e7a2407" x="841.904118" y="485.28" style="stroke: #000000; stroke-width: 0.8"/>
      </g>
     </g>
     <g id="text_8">
      <!-- $\mathdefault{0.35}$ -->
      <g transform="translate(825.487257 507.616997) scale(0.2 -0.2)">
       <use xlink:href="#CMR17-30" transform="scale(0.996264)"/>
       <use xlink:href="#CMMI12-3a" transform="translate(45.690477 0) scale(0.996264)"/>
       <use xlink:href="#CMR17-33" transform="translate(72.787654 0) scale(0.996264)"/>
       <use xlink:href="#CMR17-35" transform="translate(118.478131 0) scale(0.996264)"/>
      </g>
     </g>
    </g>
    <g id="xtick_9">
     <g id="line2d_17">
      <path d="M 941.782848 485.28 
L 941.782848 7.2 
" clip-path="url(#pb7ca295e2b)" style="fill: none; stroke: #b0b0b0; stroke-width: 0.8; stroke-linecap: square"/>
     </g>
     <g id="line2d_18">
      <g>
       <use xlink:href="#m4c9e7a2407" x="941.782848" y="485.28" style="stroke: #000000; stroke-width: 0.8"/>
      </g>
     </g>
     <g id="text_9">
      <!-- $\mathdefault{0.40}$ -->
      <g transform="translate(925.365987 507.616997) scale(0.2 -0.2)">
       <defs>
        <path id="CMR17-34" d="M 2150 4122 
C 2150 4256 2144 4256 2029 4256 
L 128 1254 
L 128 1088 
L 1779 1088 
L 1779 457 
C 1779 224 1766 160 1318 160 
L 1197 160 
L 1197 0 
C 1402 0 1747 0 1965 0 
C 2182 0 2528 0 2733 0 
L 2733 160 
L 2611 160 
C 2163 160 2150 224 2150 457 
L 2150 1088 
L 2803 1088 
L 2803 1254 
L 2150 1254 
L 2150 4122 
z
M 1798 3703 
L 1798 1254 
L 256 1254 
L 1798 3703 
z
" transform="scale(0.015625)"/>
       </defs>
       <use xlink:href="#CMR17-30" transform="scale(0.996264)"/>
       <use xlink:href="#CMMI12-3a" transform="translate(45.690477 0) scale(0.996264)"/>
       <use xlink:href="#CMR17-34" transform="translate(72.787654 0) scale(0.996264)"/>
       <use xlink:href="#CMR17-30" transform="translate(118.478131 0) scale(0.996264)"/>
      </g>
     </g>
    </g>
    <g id="text_10">
     <!-- $\frac{y}{a}$ -->
     <g transform="translate(541.850195 558.664646) scale(0.375 -0.375)">
      <defs>
       <path id="CMMI12-79" d="M 1683 -700 
C 1510 -939 1261 -1152 947 -1152 
C 870 -1152 563 -1152 467 -889 
C 486 -895 518 -895 531 -895 
C 723 -895 851 -729 851 -582 
C 851 -435 730 -384 634 -384 
C 531 -384 307 -458 307 -759 
C 307 -1071 582 -1286 947 -1286 
C 1587 -1286 2234 -700 2413 6 
L 3040 2485 
C 3046 2517 3059 2556 3059 2594 
C 3059 2689 2982 2753 2886 2753 
C 2829 2753 2694 2727 2643 2535 
L 2170 658 
C 2138 543 2138 530 2086 460 
C 1958 281 1747 64 1440 64 
C 1082 64 1050 415 1050 588 
C 1050 952 1222 1443 1395 1903 
C 1466 2088 1504 2178 1504 2305 
C 1504 2574 1312 2816 998 2816 
C 410 2816 173 1890 173 1839 
C 173 1814 198 1782 243 1782 
C 301 1782 307 1807 333 1897 
C 486 2433 730 2689 979 2689 
C 1037 2689 1146 2689 1146 2478 
C 1146 2312 1075 2127 979 1884 
C 666 1047 666 837 666 683 
C 666 77 1101 -64 1421 -64 
C 1606 -64 1837 -6 2061 230 
L 2067 224 
C 1971 -147 1907 -392 1683 -700 
z
" transform="scale(0.015625)"/>
       <path id="CMMI12-61" d="M 1926 760 
C 1894 651 1894 639 1805 517 
C 1664 338 1382 64 1082 64 
C 819 64 672 300 672 677 
C 672 1028 870 1743 992 2012 
C 1210 2459 1510 2689 1760 2689 
C 2182 2689 2266 2165 2266 2114 
C 2266 2108 2246 2024 2240 2012 
L 1926 760 
z
M 2336 2395 
C 2266 2561 2093 2816 1760 2816 
C 1037 2816 256 1884 256 939 
C 256 307 627 -64 1062 -64 
C 1414 -64 1715 211 1894 422 
C 1958 45 2259 -64 2451 -64 
C 2643 -64 2797 51 2912 281 
C 3014 498 3104 888 3104 913 
C 3104 945 3078 971 3040 971 
C 2982 971 2976 939 2950 843 
C 2854 466 2733 64 2470 64 
C 2285 64 2272 230 2272 358 
C 2272 505 2291 575 2349 824 
C 2394 984 2426 1124 2477 1309 
C 2714 2267 2771 2497 2771 2535 
C 2771 2625 2701 2695 2605 2695 
C 2400 2695 2349 2472 2336 2395 
z
" transform="scale(0.015625)"/>
      </defs>
      <use xlink:href="#CMMI12-79" transform="translate(0.024186 39.953917) scale(0.697382)"/>
      <use xlink:href="#CMMI12-61" transform="translate(0 -34.355253) scale(0.697382)"/>
      <path d="M 0 24.410885 
L 35.845347 24.410885 
L 35.845347 25.40233 
L 0 25.40233 
L 0 24.410885 
z
"/>
     </g>
    </g>
   </g>
   <g id="matplotlib.axis_2">
    <g id="ytick_1">
     <g id="line2d_19">
      <path d="M 102.171192 456.635591 
L 994.971192 456.635591 
" clip-path="url(#pb7ca295e2b)" style="fill: none; stroke: #b0b0b0; stroke-width: 0.8; stroke-linecap: square"/>
     </g>
     <g id="line2d_20">
      <defs>
       <path id="m17bbdcbc68" d="M 0 0 
L -3.5 0 
" style="stroke: #000000; stroke-width: 0.8"/>
      </defs>
      <g>
       <use xlink:href="#m17bbdcbc68" x="102.171192" y="456.635591" style="stroke: #000000; stroke-width: 0.8"/>
      </g>
     </g>
     <g id="text_11">
      <!-- $\mathdefault{0.0}$ -->
      <g transform="translate(69.975566 463.554089) scale(0.2 -0.2)">
       <use xlink:href="#CMR17-30" transform="scale(0.996264)"/>
       <use xlink:href="#CMMI12-3a" transform="translate(45.690477 0) scale(0.996264)"/>
       <use xlink:href="#CMR17-30" transform="translate(72.787654 0) scale(0.996264)"/>
      </g>
     </g>
    </g>
    <g id="ytick_2">
     <g id="line2d_21">
      <path d="M 102.171192 377.06551 
L 994.971192 377.06551 
" clip-path="url(#pb7ca295e2b)" style="fill: none; stroke: #b0b0b0; stroke-width: 0.8; stroke-linecap: square"/>
     </g>
     <g id="line2d_22">
      <g>
       <use xlink:href="#m17bbdcbc68" x="102.171192" y="377.06551" style="stroke: #000000; stroke-width: 0.8"/>
      </g>
     </g>
     <g id="text_12">
      <!-- $\mathdefault{0.2}$ -->
      <g transform="translate(69.975566 383.984008) scale(0.2 -0.2)">
       <use xlink:href="#CMR17-30" transform="scale(0.996264)"/>
       <use xlink:href="#CMMI12-3a" transform="translate(45.690477 0) scale(0.996264)"/>
       <use xlink:href="#CMR17-32" transform="translate(72.787654 0) scale(0.996264)"/>
      </g>
     </g>
    </g>
    <g id="ytick_3">
     <g id="line2d_23">
      <path d="M 102.171192 297.495429 
L 994.971192 297.495429 
" clip-path="url(#pb7ca295e2b)" style="fill: none; stroke: #b0b0b0; stroke-width: 0.8; stroke-linecap: square"/>
     </g>
     <g id="line2d_24">
      <g>
       <use xlink:href="#m17bbdcbc68" x="102.171192" y="297.495429" style="stroke: #000000; stroke-width: 0.8"/>
      </g>
     </g>
     <g id="text_13">
      <!-- $\mathdefault{0.4}$ -->
      <g transform="translate(69.975566 304.413927) scale(0.2 -0.2)">
       <use xlink:href="#CMR17-30" transform="scale(0.996264)"/>
       <use xlink:href="#CMMI12-3a" transform="translate(45.690477 0) scale(0.996264)"/>
       <use xlink:href="#CMR17-34" transform="translate(72.787654 0) scale(0.996264)"/>
      </g>
     </g>
    </g>
    <g id="ytick_4">
     <g id="line2d_25">
      <path d="M 102.171192 217.925348 
L 994.971192 217.925348 
" clip-path="url(#pb7ca295e2b)" style="fill: none; stroke: #b0b0b0; stroke-width: 0.8; stroke-linecap: square"/>
     </g>
     <g id="line2d_26">
      <g>
       <use xlink:href="#m17bbdcbc68" x="102.171192" y="217.925348" style="stroke: #000000; stroke-width: 0.8"/>
      </g>
     </g>
     <g id="text_14">
      <!-- $\mathdefault{0.6}$ -->
      <g transform="translate(69.975566 224.843847) scale(0.2 -0.2)">
       <defs>
        <path id="CMR17-36" d="M 678 2176 
C 678 3690 1395 4032 1811 4032 
C 1946 4032 2272 4009 2400 3776 
C 2298 3776 2106 3776 2106 3553 
C 2106 3381 2246 3323 2336 3323 
C 2394 3323 2566 3348 2566 3560 
C 2566 3954 2246 4179 1805 4179 
C 1043 4179 243 3390 243 1984 
C 243 253 966 -128 1478 -128 
C 2099 -128 2688 427 2688 1283 
C 2688 2081 2170 2662 1517 2662 
C 1126 2662 838 2407 678 1960 
L 678 2176 
z
M 1478 25 
C 691 25 691 1200 691 1436 
C 691 1896 909 2560 1504 2560 
C 1613 2560 1926 2560 2138 2120 
C 2253 1870 2253 1609 2253 1289 
C 2253 944 2253 690 2118 434 
C 1978 171 1773 25 1478 25 
z
" transform="scale(0.015625)"/>
       </defs>
       <use xlink:href="#CMR17-30" transform="scale(0.996264)"/>
       <use xlink:href="#CMMI12-3a" transform="translate(45.690477 0) scale(0.996264)"/>
       <use xlink:href="#CMR17-36" transform="translate(72.787654 0) scale(0.996264)"/>
      </g>
     </g>
    </g>
    <g id="ytick_5">
     <g id="line2d_27">
      <path d="M 102.171192 138.355267 
L 994.971192 138.355267 
" clip-path="url(#pb7ca295e2b)" style="fill: none; stroke: #b0b0b0; stroke-width: 0.8; stroke-linecap: square"/>
     </g>
     <g id="line2d_28">
      <g>
       <use xlink:href="#m17bbdcbc68" x="102.171192" y="138.355267" style="stroke: #000000; stroke-width: 0.8"/>
      </g>
     </g>
     <g id="text_15">
      <!-- $\mathdefault{0.8}$ -->
      <g transform="translate(69.975566 145.273766) scale(0.2 -0.2)">
       <defs>
        <path id="CMR17-38" d="M 1741 2264 
C 2144 2467 2554 2773 2554 3263 
C 2554 3841 1990 4179 1472 4179 
C 890 4179 378 3759 378 3180 
C 378 3021 416 2747 666 2505 
C 730 2442 998 2251 1171 2130 
C 883 1983 211 1634 211 934 
C 211 279 838 -128 1459 -128 
C 2144 -128 2720 362 2720 1010 
C 2720 1590 2330 1857 2074 2029 
L 1741 2264 
z
M 902 2822 
C 851 2854 595 3051 595 3351 
C 595 3739 998 4032 1459 4032 
C 1965 4032 2336 3676 2336 3262 
C 2336 2669 1670 2331 1638 2331 
C 1632 2331 1626 2331 1574 2370 
L 902 2822 
z
M 2080 1519 
C 2176 1449 2483 1240 2483 851 
C 2483 381 2010 25 1472 25 
C 890 25 448 438 448 940 
C 448 1443 838 1862 1280 2060 
L 2080 1519 
z
" transform="scale(0.015625)"/>
       </defs>
       <use xlink:href="#CMR17-30" transform="scale(0.996264)"/>
       <use xlink:href="#CMMI12-3a" transform="translate(45.690477 0) scale(0.996264)"/>
       <use xlink:href="#CMR17-38" transform="translate(72.787654 0) scale(0.996264)"/>
      </g>
     </g>
    </g>
    <g id="ytick_6">
     <g id="line2d_29">
      <path d="M 102.171192 58.785187 
L 994.971192 58.785187 
" clip-path="url(#pb7ca295e2b)" style="fill: none; stroke: #b0b0b0; stroke-width: 0.8; stroke-linecap: square"/>
     </g>
     <g id="line2d_30">
      <g>
       <use xlink:href="#m17bbdcbc68" x="102.171192" y="58.785187" style="stroke: #000000; stroke-width: 0.8"/>
      </g>
     </g>
     <g id="text_16">
      <!-- $\mathdefault{1.0}$ -->
      <g transform="translate(69.975566 65.703685) scale(0.2 -0.2)">
       <use xlink:href="#CMR17-31" transform="scale(0.996264)"/>
       <use xlink:href="#CMMI12-3a" transform="translate(45.690477 0) scale(0.996264)"/>
       <use xlink:href="#CMR17-30" transform="translate(72.787654 0) scale(0.996264)"/>
      </g>
     </g>
    </g>
    <g id="text_17">
     <!-- $\frac{u}{U_{0m}}$ -->
     <g transform="translate(33.1696 267.467518) rotate(-90) scale(0.375 -0.375)">
      <defs>
       <path id="CMMI12-75" d="M 2182 370 
C 2266 13 2573 -64 2726 -64 
C 2931 -64 3085 70 3187 287 
C 3296 517 3379 894 3379 913 
C 3379 945 3354 971 3315 971 
C 3258 971 3251 939 3226 843 
C 3110 402 2995 64 2739 64 
C 2547 64 2547 275 2547 358 
C 2547 505 2566 568 2630 837 
C 2675 1009 2720 1181 2758 1360 
L 3021 2401 
C 3066 2561 3066 2574 3066 2593 
C 3066 2689 2989 2753 2893 2753 
C 2707 2753 2662 2593 2624 2433 
C 2560 2184 2214 811 2170 588 
C 2163 588 1914 64 1446 64 
C 1114 64 1050 351 1050 588 
C 1050 952 1229 1462 1395 1890 
C 1472 2095 1504 2178 1504 2305 
C 1504 2580 1306 2816 998 2816 
C 410 2816 173 1890 173 1839 
C 173 1814 198 1782 243 1782 
C 301 1782 307 1807 333 1896 
C 486 2441 736 2682 979 2682 
C 1043 2682 1146 2682 1146 2478 
C 1146 2312 1075 2127 979 1884 
C 698 1124 666 881 666 690 
C 666 38 1158 -64 1421 -64 
C 1830 -64 2054 217 2182 370 
z
" transform="scale(0.015625)"/>
       <path id="CMMI12-55" d="M 3238 1474 
C 3014 581 2272 57 1670 57 
C 1210 57 896 363 896 891 
C 896 916 896 1107 966 1387 
L 1594 3887 
C 1651 4103 1664 4167 2118 4167 
C 2234 4167 2298 4167 2298 4282 
C 2298 4352 2240 4352 2202 4352 
C 2086 4352 1952 4352 1830 4352 
L 1075 4352 
C 954 4352 819 4352 698 4352 
C 653 4352 576 4352 576 4231 
C 576 4167 621 4167 742 4167 
C 1126 4167 1126 4116 1126 4046 
C 1126 4008 1082 3824 1050 3715 
L 493 1488 
C 474 1418 435 1246 435 1075 
C 435 374 941 -128 1638 -128 
C 2285 -128 3002 384 3328 1197 
C 3373 1305 3430 1530 3469 1702 
C 3533 1933 3667 2496 3712 2662 
L 3955 3623 
C 4038 3956 4090 4167 4653 4167 
C 4704 4173 4730 4224 4730 4282 
C 4730 4352 4672 4352 4646 4352 
C 4557 4352 4442 4352 4352 4352 
L 4051 4352 
C 3654 4352 3450 4352 3443 4352 
C 3405 4352 3328 4352 3328 4231 
C 3328 4167 3379 4167 3424 4167 
C 3808 4167 3834 4020 3834 3905 
C 3834 3848 3834 3828 3808 3739 
L 3238 1474 
z
" transform="scale(0.015625)"/>
       <path id="CMMI12-6d" d="M 1318 1871 
C 1331 1910 1491 2229 1728 2433 
C 1894 2586 2112 2689 2362 2689 
C 2618 2689 2707 2497 2707 2242 
C 2707 2203 2707 2076 2630 1775 
L 2470 1118 
C 2419 926 2298 453 2285 383 
C 2259 287 2221 121 2221 96 
C 2221 6 2291 -64 2387 -64 
C 2579 -64 2611 83 2669 313 
L 3053 1839 
C 3066 1890 3398 2689 4102 2689 
C 4358 2689 4448 2497 4448 2242 
C 4448 1884 4198 1188 4058 805 
C 4000 651 3968 568 3968 453 
C 3968 166 4166 -64 4474 -64 
C 5069 -64 5293 875 5293 913 
C 5293 945 5267 971 5229 971 
C 5171 971 5165 952 5133 843 
C 4986 332 4749 64 4493 64 
C 4429 64 4326 64 4326 269 
C 4326 436 4403 640 4429 710 
C 4544 1018 4832 1773 4832 2145 
C 4832 2528 4608 2816 4122 2816 
C 3693 2816 3347 2574 3091 2197 
C 3072 2542 2861 2816 2381 2816 
C 1811 2816 1510 2415 1395 2255 
C 1376 2618 1114 2816 832 2816 
C 646 2816 499 2727 378 2484 
C 262 2254 173 1865 173 1839 
C 173 1814 198 1782 243 1782 
C 294 1782 301 1788 339 1935 
C 435 2312 557 2689 813 2689 
C 960 2689 1011 2586 1011 2395 
C 1011 2254 947 2005 902 1807 
L 723 1118 
C 698 996 627 709 595 594 
C 550 428 480 128 480 96 
C 480 6 550 -64 646 -64 
C 723 -64 813 -26 864 70 
C 877 102 934 326 966 453 
L 1107 1028 
L 1318 1871 
z
" transform="scale(0.015625)"/>
      </defs>
      <use xlink:href="#CMMI12-75" transform="translate(36.759597 39.226102) scale(0.697382)"/>
      <use xlink:href="#CMMI12-55" transform="translate(0 -34.355253) scale(0.697382)"/>
      <use xlink:href="#CMR17-30" transform="translate(46.376275 -44.815949) scale(0.498132)"/>
      <use xlink:href="#CMMI12-6d" transform="translate(69.221514 -44.815949) scale(0.498132)"/>
      <path d="M 0 24.410885 
L 112.38325 24.410885 
L 112.38325 25.40233 
L 0 25.40233 
L 0 24.410885 
z
"/>
     </g>
    </g>
   </g>
   <g id="line2d_31">
    <path d="M 142.75301 456.635591 
L 143.206407 440.205928 
L 143.682474 424.477983 
L 144.182344 409.563749 
L 144.707207 395.576916 
L 145.258314 382.631241 
L 145.836976 370.838619 
L 146.444571 360.306858 
L 147.082546 351.137157 
L 147.75242 343.421318 
L 148.455787 337.238712 
L 149.194323 332.653076 
L 149.969785 329.709209 
L 150.784021 328.429679 
L 151.638969 328.811678 
L 152.536663 330.824179 
L 153.479243 334.405594 
L 154.468951 339.462131 
L 155.508145 345.86708 
L 156.599299 353.46124 
L 157.74501 362.0547 
L 158.948007 371.430149 
L 160.211154 381.347815 
L 161.537458 391.552067 
L 162.930077 401.779597 
L 164.392327 411.768948 
L 165.92769 421.271031 
L 167.539821 430.060075 
L 169.232558 437.944347 
L 171.009932 444.775821 
L 172.876175 450.457943 
L 174.835731 454.950628 
L 176.893263 458.271766 
L 179.053673 460.494713 
L 181.322103 461.741617 
L 183.703954 462.172832 
L 186.204898 461.973179 
L 188.83089 461.33626 
L 191.588181 460.448437 
L 194.483336 459.474232 
L 197.523249 458.5449 
L 200.715158 457.75154 
L 204.066662 457.143513 
L 207.585742 456.732116 
L 211.280775 456.498594 
L 215.16056 456.404878 
L 219.234335 456.40496 
L 223.511798 456.454897 
L 228.003134 456.519844 
L 232.719037 456.577368 
L 237.670735 456.617208 
L 242.870018 456.638462 
L 248.329266 456.645619 
L 254.061475 456.6448 
L 260.080295 456.641171 
L 266.400056 456.637825 
L 273.035806 456.635875 
L 280.003342 456.635191 
L 287.319256 456.635198 
L 295.000965 456.635399 
L 303.066759 456.635549 
L 311.535844 456.635605 
L 320.428382 456.635608 
L 329.765548 456.635597 
L 339.569572 456.635591 
L 349.863796 456.63559 
L 360.672733 456.63559 
L 372.022116 456.635591 
L 383.938968 456.635591 
L 396.451663 456.635591 
L 409.589992 456.635591 
L 423.385238 456.635591 
L 437.870246 456.635591 
L 453.079505 456.635591 
L 469.049227 456.635591 
L 485.817434 456.635591 
L 503.424052 456.635591 
L 521.911001 456.635591 
L 541.322298 456.635591 
L 561.704159 456.635591 
L 583.105113 456.635591 
L 605.576115 456.635591 
L 629.170667 456.635591 
L 653.944947 456.635591 
L 679.957941 456.635591 
L 707.271584 456.635591 
L 735.95091 456.635591 
L 766.064202 456.635591 
L 797.683158 456.635591 
L 830.883062 456.635591 
L 865.742962 456.635591 
L 902.345856 456.635591 
L 940.778895 456.635591 
L 954.389374 456.635591 
" clip-path="url(#pb7ca295e2b)" style="fill: none; stroke: #000000; stroke-opacity: 0.5; stroke-width: 1.2; stroke-linecap: square"/>
   </g>
   <g id="line2d_32">
    <path d="M 142.75301 456.635591 
L 143.206407 432.89212 
L 143.682474 409.085447 
L 144.182344 385.320639 
L 144.707207 361.712993 
L 145.258314 338.387642 
L 145.836976 315.478847 
L 146.444571 293.128928 
L 147.082546 271.486807 
L 147.75242 250.706101 
L 148.455787 230.94274 
L 149.194323 212.352105 
L 149.969785 195.08566 
L 150.784021 179.28712 
L 151.638969 165.088207 
L 152.536663 152.604063 
L 153.479243 141.928476 
L 154.468951 133.129067 
L 155.508145 126.242671 
L 156.599299 121.27117 
L 157.74501 118.178077 
L 158.948007 116.8862 
L 160.211154 117.276716 
L 161.537458 119.189977 
L 162.930077 122.428314 
L 164.392327 126.761024 
L 165.92769 131.931588 
L 167.539821 137.667021 
L 169.232558 143.689043 
L 171.009932 149.726527 
L 172.876175 155.528504 
L 174.835731 160.876752 
L 176.893263 165.596934 
L 179.053673 169.567155 
L 181.322103 172.722948 
L 183.703954 175.057912 
L 186.204898 176.619652 
L 188.83089 177.501139 
L 191.588181 177.828241 
L 194.483336 177.744714 
L 197.523249 177.396389 
L 200.715158 176.916527 
L 204.066662 176.414195 
L 207.585742 175.967108 
L 211.280775 175.619646 
L 215.16056 175.385853 
L 219.234335 175.256328 
L 223.511798 175.207269 
L 228.003134 175.209652 
L 232.719037 175.236739 
L 237.670735 175.268756 
L 242.870018 175.294438 
L 248.329266 175.309992 
L 254.061475 175.316574 
L 260.080295 175.317476 
L 266.400056 175.315973 
L 273.035806 175.314222 
L 280.003342 175.31312 
L 287.319256 175.312707 
L 295.000965 175.312687 
L 303.066759 175.312782 
L 311.535844 175.312854 
L 320.428382 175.312879 
L 329.765548 175.312879 
L 339.569572 175.312874 
L 349.863796 175.312872 
L 360.672733 175.312872 
L 372.022116 175.312872 
L 383.938968 175.312872 
L 396.451663 175.312872 
L 409.589992 175.312872 
L 423.385238 175.312872 
L 437.870246 175.312872 
L 453.079505 175.312872 
L 469.049227 175.312872 
L 485.817434 175.312872 
L 503.424052 175.312872 
L 521.911001 175.312872 
L 541.322298 175.312872 
L 561.704159 175.312872 
L 583.105113 175.312872 
L 605.576115 175.312872 
L 629.170667 175.312872 
L 653.944947 175.312872 
L 679.957941 175.312872 
L 707.271584 175.312872 
L 735.95091 175.312872 
L 766.064202 175.312872 
L 797.683158 175.312872 
L 830.883062 175.312872 
L 865.742962 175.312872 
L 902.345856 175.312872 
L 940.778895 175.312872 
L 954.389374 175.312872 
" clip-path="url(#pb7ca295e2b)" style="fill: none; stroke-dasharray: 4.44,1.92; stroke-dashoffset: 0; stroke: #000000; stroke-opacity: 0.5; stroke-width: 1.2"/>
   </g>
   <g id="line2d_33">
    <path d="M 142.75301 456.635591 
L 143.206407 439.486915 
L 143.682474 421.547141 
L 144.182344 402.85286 
L 144.707207 383.453439 
L 145.258314 363.412088 
L 145.836976 342.80678 
L 146.444571 321.730984 
L 147.082546 300.294104 
L 147.75242 278.621586 
L 148.455787 256.854579 
L 149.194323 235.149087 
L 149.969785 213.674513 
L 150.784021 192.611534 
L 151.638969 172.14924 
L 152.536663 152.481493 
L 153.479243 133.802518 
L 154.468951 116.301737 
L 155.508145 100.157952 
L 156.599299 85.533029 
L 157.74501 72.565275 
L 158.948007 61.362836 
L 160.211154 51.997443 
L 161.537458 44.498951 
L 162.930077 38.851122 
L 164.392327 34.989147 
L 165.92769 32.799345 
L 167.539821 32.121429 
L 169.232558 32.753582 
L 171.009932 34.460401 
L 172.876175 36.983513 
L 174.835731 40.054392 
L 176.893263 43.4086 
L 179.053673 46.800394 
L 181.322103 50.016454 
L 183.703954 52.887377 
L 186.204898 55.295665 
L 188.83089 57.179194 
L 191.588181 58.52961 
L 194.483336 59.385689 
L 197.523249 59.822415 
L 200.715158 59.937148 
L 204.066662 59.834769 
L 207.585742 59.61389 
L 211.280775 59.356027 
L 215.16056 59.119111 
L 219.234335 58.935852 
L 223.511798 58.816535 
L 228.003134 58.754958 
L 232.719037 58.735741 
L 237.670735 58.74118 
L 242.870018 58.756245 
L 248.329266 58.771086 
L 254.061475 58.781213 
L 260.080295 58.786117 
L 266.400056 58.787338 
L 273.035806 58.786812 
L 280.003342 58.785937 
L 287.319256 58.785346 
L 295.000965 58.785118 
L 303.066759 58.785102 
L 311.535844 58.785147 
L 320.428382 58.78518 
L 329.765548 58.78519 
L 339.569572 58.78519 
L 349.863796 58.785187 
L 360.672733 58.785187 
L 372.022116 58.785187 
L 383.938968 58.785187 
L 396.451663 58.785187 
L 409.589992 58.785187 
L 423.385238 58.785187 
L 437.870246 58.785187 
L 453.079505 58.785187 
L 469.049227 58.785187 
L 485.817434 58.785187 
L 503.424052 58.785187 
L 521.911001 58.785187 
L 541.322298 58.785187 
L 561.704159 58.785187 
L 583.105113 58.785187 
L 605.576115 58.785187 
L 629.170667 58.785187 
L 653.944947 58.785187 
L 679.957941 58.785187 
L 707.271584 58.785187 
L 735.95091 58.785187 
L 766.064202 58.785187 
L 797.683158 58.785187 
L 830.883062 58.785187 
L 865.742962 58.785187 
L 902.345856 58.785187 
L 940.778895 58.785187 
L 954.389374 58.785187 
" clip-path="url(#pb7ca295e2b)" style="fill: none; stroke-dasharray: 8.32,2.08,1.3,2.08; stroke-dashoffset: 0; stroke: #000000; stroke-opacity: 0.5; stroke-width: 1.3"/>
   </g>
   <g id="line2d_34">
    <path d="M 142.75301 456.635591 
L 143.206407 456.127172 
L 143.682474 454.563172 
L 144.182344 451.890275 
L 144.707207 448.062998 
L 145.258314 443.045597 
L 145.836976 436.814087 
L 146.444571 429.358328 
L 147.082546 420.684123 
L 147.75242 410.815261 
L 148.455787 399.795426 
L 149.194323 387.689859 
L 149.969785 374.586671 
L 150.784021 360.597659 
L 151.638969 345.858518 
L 152.536663 330.528268 
L 153.479243 314.787796 
L 154.468951 298.837362 
L 155.508145 282.893 
L 156.599299 267.181736 
L 157.74501 251.935656 
L 158.948007 237.384891 
L 160.211154 223.74971 
L 161.537458 211.231978 
L 162.930077 200.006405 
L 164.392327 190.212038 
L 165.92769 181.944627 
L 167.539821 175.250476 
L 169.232558 170.122453 
L 171.009932 166.498775 
L 172.876175 164.265017 
L 174.835731 163.259649 
L 176.893263 163.283033 
L 179.053673 164.109532 
L 181.322103 165.501936 
L 183.703954 167.22707 
L 186.204898 169.071163 
L 188.83089 170.853389 
L 191.588181 172.436062 
L 194.483336 173.730269 
L 197.523249 174.696218 
L 200.715158 175.338336 
L 204.066662 175.695883 
L 207.585742 175.830601 
L 211.280775 175.813389 
L 215.16056 175.712131 
L 219.234335 175.58249 
L 223.511798 175.462809 
L 228.003134 175.373342 
L 232.719037 175.319078 
L 237.670735 175.294754 
L 242.870018 175.290377 
L 248.329266 175.295811 
L 254.061475 175.30355 
L 260.080295 175.309584 
L 266.400056 175.312813 
L 273.035806 175.31382 
L 280.003342 175.313685 
L 287.319256 175.313263 
L 295.000965 175.312959 
L 303.066759 175.312842 
L 311.535844 175.312834 
L 320.428382 175.312855 
L 329.765548 175.31287 
L 339.569572 175.312874 
L 349.863796 175.312873 
L 360.672733 175.312872 
L 372.022116 175.312872 
L 383.938968 175.312872 
L 396.451663 175.312872 
L 409.589992 175.312872 
L 423.385238 175.312872 
L 437.870246 175.312872 
L 453.079505 175.312872 
L 469.049227 175.312872 
L 485.817434 175.312872 
L 503.424052 175.312872 
L 521.911001 175.312872 
L 541.322298 175.312872 
L 561.704159 175.312872 
L 583.105113 175.312872 
L 605.576115 175.312872 
L 629.170667 175.312872 
L 653.944947 175.312872 
L 679.957941 175.312872 
L 707.271584 175.312872 
L 735.95091 175.312872 
L 766.064202 175.312872 
L 797.683158 175.312872 
L 830.883062 175.312872 
L 865.742962 175.312872 
L 902.345856 175.312872 
L 940.778895 175.312872 
L 954.389374 175.312872 
" clip-path="url(#pb7ca295e2b)" style="fill: none; stroke-dasharray: 1.8,2.97; stroke-dashoffset: 0; stroke: #000000; stroke-opacity: 0.5; stroke-width: 1.8"/>
   </g>
   <g id="patch_3">
    <path d="M 102.171192 485.28 
L 102.171192 7.2 
" style="fill: none; stroke: #000000; stroke-width: 0.8; stroke-linejoin: miter; stroke-linecap: square"/>
   </g>
   <g id="patch_4">
    <path d="M 994.971192 485.28 
L 994.971192 7.2 
" style="fill: none; stroke: #000000; stroke-width: 0.8; stroke-linejoin: miter; stroke-linecap: square"/>
   </g>
   <g id="patch_5">
    <path d="M 102.171192 485.28 
L 994.971192 485.28 
" style="fill: none; stroke: #000000; stroke-width: 0.8; stroke-linejoin: miter; stroke-linecap: square"/>
   </g>
   <g id="patch_6">
    <path d="M 102.171192 7.2 
L 994.971192 7.2 
" style="fill: none; stroke: #000000; stroke-width: 0.8; stroke-linejoin: miter; stroke-linecap: square"/>
   </g>
   <g id="line2d_35">
    <path d="M 142.75301 456.635591 
L 143.206407 439.931766 
L 143.682474 423.915182 
L 144.182344 408.701011 
L 144.707207 394.406922 
L 145.258314 381.151492 
L 145.836976 369.052314 
L 146.444571 358.223768 
L 147.082546 348.774464 
L 147.75242 340.804369 
L 148.455787 334.401637 
L 149.194323 329.639196 
L 149.969785 326.571172 
L 150.784021 325.229231 
L 151.638969 325.619 
L 152.536663 327.716701 
L 153.479243 331.466229 
L 154.468951 336.776873 
L 155.508145 343.521958 
L 156.599299 351.538652 
L 157.74501 360.629215 
L 158.948007 370.563931 
L 160.211154 381.0859 
L 161.537458 391.917807 
L 162.930077 402.770658 
L 164.392327 413.354324 
L 165.92769 423.389532 
L 167.539821 432.62078 
L 169.232558 440.829386 
L 171.009932 447.845738 
L 172.876175 453.559622 
L 174.835731 457.927498 
L 176.893263 460.975595 
L 179.053673 462.79798 
L 181.322103 463.549091 
L 183.703954 463.430826 
L 186.204898 462.674946 
L 188.83089 461.522292 
L 191.588181 460.201014 
L 194.483336 458.906428 
L 197.523249 457.785267 
L 200.715158 456.926665 
L 204.066662 456.361348 
L 207.585742 456.06913 
L 211.280775 455.993273 
L 215.16056 456.058787 
L 219.234335 456.190892 
L 223.511798 456.32977 
L 228.003134 456.438792 
L 232.719037 456.505211 
L 237.670735 456.534503 
L 242.870018 456.541326 
L 248.329266 456.540715 
L 254.061475 456.542419 
L 260.080295 456.549522 
L 266.400056 456.560412 
L 273.035806 456.571977 
L 280.003342 456.581969 
L 287.319256 456.589672 
L 295.000965 456.595336 
L 303.066759 456.599405 
L 311.535844 456.602184 
L 320.428382 456.603911 
L 329.765548 456.604856 
L 339.569572 456.605301 
L 349.863796 456.605478 
L 360.672733 456.605535 
L 372.022116 456.60555 
L 383.938968 456.605553 
L 396.451663 456.605554 
L 409.589992 456.605554 
L 423.385238 456.605554 
L 437.870246 456.605554 
L 453.079505 456.605554 
L 469.049227 456.605554 
L 485.817434 456.605554 
L 503.424052 456.605554 
L 521.911001 456.605554 
L 541.322298 456.605554 
L 561.704159 456.605554 
L 583.105113 456.605554 
L 605.576115 456.605554 
L 629.170667 456.605554 
L 653.944947 456.605554 
L 679.957941 456.605554 
L 707.271584 456.605554 
L 735.95091 456.605554 
L 766.064202 456.605554 
L 797.683158 456.605554 
L 830.883062 456.605554 
L 865.742962 456.605554 
L 902.345856 456.605554 
L 940.778895 456.605554 
L 954.389374 456.605554 
" clip-path="url(#pb7ca295e2b)" style="fill: none; stroke: #000000; stroke-width: 1.2; stroke-linecap: square"/>
   </g>
   <g id="line2d_36">
    <path d="M 142.75301 456.635591 
L 143.206407 432.758248 
L 143.682474 408.786496 
L 144.182344 384.825034 
L 144.707207 360.989467 
L 145.258314 337.406048 
L 145.836976 314.211108 
L 146.444571 291.550133 
L 147.082546 269.576428 
L 147.75242 248.44932 
L 148.455787 228.331858 
L 149.194323 209.38797 
L 149.969785 191.779067 
L 150.784021 175.6601 
L 151.638969 161.175094 
L 152.536663 148.452248 
L 153.479243 137.598696 
L 154.468951 128.695116 
L 155.508145 121.790381 
L 156.599299 116.89656 
L 157.74501 113.984565 
L 158.948007 112.980845 
L 160.211154 113.765515 
L 161.537458 116.172338 
L 162.930077 119.990928 
L 164.392327 124.971488 
L 165.92769 130.832255 
L 167.539821 137.269665 
L 169.232558 143.970982 
L 171.009932 150.628908 
L 172.876175 156.957333 
L 174.835731 162.707134 
L 176.893263 167.680651 
L 179.053673 171.743355 
L 181.322103 174.83121 
L 183.703954 176.952471 
L 186.204898 178.183123 
L 188.83089 178.655838 
L 191.588181 178.543211 
L 194.483336 178.036967 
L 197.523249 177.325669 
L 200.715158 176.573976 
L 204.066662 175.906563 
L 207.585742 175.399239 
L 211.280775 175.078569 
L 215.16056 174.929694 
L 219.234335 174.910258 
L 223.511798 174.96696 
L 228.003134 175.050716 
L 232.719037 175.126985 
L 237.670735 175.179421 
L 242.870018 175.207249 
L 248.329266 175.218693 
L 254.061475 175.223785 
L 260.080295 175.229402 
L 266.400056 175.237786 
L 273.035806 175.247873 
L 280.003342 175.257631 
L 287.319256 175.265717 
L 295.000965 175.271828 
L 303.066759 175.276229 
L 311.535844 175.279262 
L 320.428382 175.281201 
L 329.765548 175.282312 
L 339.569572 175.282866 
L 349.863796 175.283101 
L 360.672733 175.283184 
L 372.022116 175.283207 
L 383.938968 175.283213 
L 396.451663 175.283214 
L 409.589992 175.283214 
L 423.385238 175.283214 
L 437.870246 175.283214 
L 453.079505 175.283214 
L 469.049227 175.283214 
L 485.817434 175.283214 
L 503.424052 175.283214 
L 521.911001 175.283214 
L 541.322298 175.283214 
L 561.704159 175.283214 
L 583.105113 175.283214 
L 605.576115 175.283214 
L 629.170667 175.283214 
L 653.944947 175.283214 
L 679.957941 175.283214 
L 707.271584 175.283214 
L 735.95091 175.283214 
L 766.064202 175.283214 
L 797.683158 175.283214 
L 830.883062 175.283214 
L 865.742962 175.283214 
L 902.345856 175.283214 
L 940.778895 175.283214 
L 954.389374 175.283214 
" clip-path="url(#pb7ca295e2b)" style="fill: none; stroke-dasharray: 4.44,1.92; stroke-dashoffset: 0; stroke: #000000; stroke-width: 1.2"/>
   </g>
   <g id="line2d_37">
    <path d="M 142.75301 456.635591 
L 143.206407 439.570335 
L 143.682474 421.684255 
L 144.182344 403.010241 
L 144.707207 383.594115 
L 145.258314 363.495843 
L 145.836976 342.790632 
L 146.444571 321.56985 
L 147.082546 299.941689 
L 147.75242 278.031504 
L 148.455787 255.981725 
L 149.194323 233.95125 
L 149.969785 212.114224 
L 150.784021 190.658111 
L 151.638969 169.780968 
L 152.536663 149.687868 
L 153.479243 130.586427 
L 154.468951 112.681446 
L 155.508145 96.168719 
L 156.599299 81.228142 
L 157.74501 68.016318 
L 158.948007 56.658948 
L 160.211154 47.243396 
L 161.537458 39.81189 
L 162.930077 34.3559 
L 164.392327 30.812301 
L 165.92769 29.061903 
L 167.539821 28.930909 
L 169.232558 30.195735 
L 171.009932 32.591422 
L 172.876175 35.823581 
L 174.835731 39.583472 
L 176.893263 43.565374 
L 179.053673 47.485021 
L 181.322103 51.09747 
L 183.703954 54.21256 
L 186.204898 56.706052 
L 188.83089 58.524787 
L 191.588181 59.684762 
L 194.483336 60.261866 
L 197.523249 60.376099 
L 200.715158 60.171258 
L 204.066662 59.793004 
L 207.585742 59.368787 
L 211.280775 58.992968 
L 215.16056 58.719554 
L 219.234335 58.563441 
L 223.511798 58.509052 
L 228.003134 58.523562 
L 232.719037 58.570795 
L 237.670735 58.622048 
L 242.870018 58.661419 
L 248.329266 58.685324 
L 254.061475 58.697991 
L 260.080295 58.705844 
L 266.400056 58.713437 
L 273.035806 58.722172 
L 280.003342 58.731256 
L 287.319256 58.739391 
L 295.000965 58.74585 
L 303.066759 58.750596 
L 311.535844 58.753898 
L 320.428382 58.756053 
L 329.765548 58.757332 
L 339.569572 58.758002 
L 349.863796 58.758304 
L 360.672733 58.758418 
L 372.022116 58.758454 
L 383.938968 58.758463 
L 396.451663 58.758465 
L 409.589992 58.758465 
L 423.385238 58.758465 
L 437.870246 58.758465 
L 453.079505 58.758465 
L 469.049227 58.758465 
L 485.817434 58.758465 
L 503.424052 58.758465 
L 521.911001 58.758465 
L 541.322298 58.758465 
L 561.704159 58.758465 
L 583.105113 58.758465 
L 605.576115 58.758465 
L 629.170667 58.758465 
L 653.944947 58.758465 
L 679.957941 58.758465 
L 707.271584 58.758465 
L 735.95091 58.758465 
L 766.064202 58.758465 
L 797.683158 58.758465 
L 830.883062 58.758465 
L 865.742962 58.758465 
L 902.345856 58.758465 
L 940.778895 58.758465 
L 954.389374 58.758465 
" clip-path="url(#pb7ca295e2b)" style="fill: none; stroke-dasharray: 8.32,2.08,1.3,2.08; stroke-dashoffset: 0; stroke: #000000; stroke-width: 1.3"/>
   </g>
   <g id="line2d_38">
    <path d="M 142.75301 456.635591 
L 143.206407 456.377713 
L 143.682474 455.053358 
L 144.182344 452.604337 
L 144.707207 448.979841 
L 145.258314 444.138422 
L 145.836976 438.050102 
L 146.444571 430.698603 
L 147.082546 422.083624 
L 147.75242 412.223113 
L 148.455787 401.155444 
L 149.194323 388.941401 
L 149.969785 375.665848 
L 150.784021 361.438946 
L 151.638969 346.396764 
L 152.536663 330.701122 
L 153.479243 314.538499 
L 154.468951 298.117852 
L 155.508145 281.667203 
L 156.599299 265.428895 
L 157.74501 249.653487 
L 158.948007 234.592297 
L 160.211154 220.488762 
L 161.537458 207.568837 
L 162.930077 196.030853 
L 164.392327 186.035345 
L 165.92769 177.69553 
L 167.539821 171.069213 
L 169.232558 166.15296 
L 171.009932 162.879387 
L 172.876175 161.118302 
L 174.835731 160.682226 
L 176.893263 161.336485 
L 179.053673 162.813623 
L 181.322103 164.831313 
L 183.703954 167.112417 
L 186.204898 169.405308 
L 188.83089 171.502203 
L 191.588181 173.253202 
L 194.483336 174.573965 
L 197.523249 175.445705 
L 200.715158 175.907184 
L 204.066662 176.039781 
L 207.585742 175.947991 
L 211.280775 175.73874 
L 215.16056 175.503306 
L 219.234335 175.305126 
L 223.511798 175.175474 
L 228.003134 175.116977 
L 232.719037 175.112952 
L 237.670735 175.139054 
L 242.870018 175.173435 
L 248.329266 175.202638 
L 254.061475 175.222416 
L 260.080295 175.23476 
L 266.400056 175.243656 
L 273.035806 175.251943 
L 280.003342 175.260357 
L 287.319256 175.268279 
L 295.000965 175.274924 
L 303.066759 175.279978 
L 311.535844 175.283558 
L 320.428382 175.285934 
L 329.765548 175.287385 
L 339.569572 175.288177 
L 349.863796 175.288554 
L 360.672733 175.288706 
L 372.022116 175.288757 
L 383.938968 175.288771 
L 396.451663 175.288774 
L 409.589992 175.288775 
L 423.385238 175.288775 
L 437.870246 175.288775 
L 453.079505 175.288775 
L 469.049227 175.288775 
L 485.817434 175.288775 
L 503.424052 175.288775 
L 521.911001 175.288775 
L 541.322298 175.288775 
L 561.704159 175.288775 
L 583.105113 175.288775 
L 605.576115 175.288775 
L 629.170667 175.288775 
L 653.944947 175.288775 
L 679.957941 175.288775 
L 707.271584 175.288775 
L 735.95091 175.288775 
L 766.064202 175.288775 
L 797.683158 175.288775 
L 830.883062 175.288775 
L 865.742962 175.288775 
L 902.345856 175.288775 
L 940.778895 175.288775 
L 954.389374 175.288775 
" clip-path="url(#pb7ca295e2b)" style="fill: none; stroke-dasharray: 1.8,2.97; stroke-dashoffset: 0; stroke: #000000; stroke-width: 1.8"/>
   </g>
   <g id="legend_1">
    <g id="patch_7">
     <path d="M 477.207039 304.991267 
L 980.971192 304.991267 
Q 984.971192 304.991267 984.971192 300.991267 
L 984.971192 191.488733 
Q 984.971192 187.488733 980.971192 187.488733 
L 477.207039 187.488733 
Q 473.207039 187.488733 473.207039 191.488733 
L 473.207039 300.991267 
Q 473.207039 304.991267 477.207039 304.991267 
z
" style="fill: #ffffff; opacity: 0.8; stroke: #cccccc; stroke-linejoin: miter"/>
    </g>
    <g id="line2d_39">
     <path d="M 481.207039 202.488733 
L 501.207039 202.488733 
L 521.207039 202.488733 
" style="fill: none; stroke: #000000; stroke-width: 1.2; stroke-linecap: square"/>
    </g>
    <g id="text_18">
     <!-- $\omega t = 0\:\unit{\degree}$ - - model -->
     <g transform="translate(537.207039 209.488733) scale(0.2 -0.2)">
      <defs>
       <path id="CMMI12-21" d="M 3802 2395 
C 3802 2580 3750 2816 3526 2816 
C 3398 2816 3251 2657 3251 2529 
C 3251 2472 3277 2434 3328 2376 
C 3424 2268 3546 2096 3546 1797 
C 3546 1567 3405 1204 3302 1007 
C 3123 656 2829 357 2496 357 
C 2093 357 1939 615 1869 975 
C 1939 1143 2086 1560 2086 1728 
C 2086 1798 2061 1856 1978 1856 
C 1933 1856 1882 1831 1850 1779 
C 1760 1638 1677 1129 1683 994 
C 1562 756 1216 357 806 357 
C 378 357 262 733 262 1096 
C 262 1758 678 2338 794 2497 
C 858 2593 902 2657 902 2669 
C 902 2714 877 2784 819 2784 
C 717 2784 685 2701 634 2625 
C 307 2121 77 1414 77 803 
C 77 408 224 -64 704 -64 
C 1235 -64 1568 391 1702 634 
C 1754 275 1946 -64 2413 -64 
C 2899 -64 3206 363 3437 879 
C 3603 1249 3802 2045 3802 2395 
z
" transform="scale(0.015625)"/>
       <path id="CMMI12-74" d="M 1286 2566 
L 1875 2566 
C 1997 2566 2061 2566 2061 2681 
C 2061 2752 2022 2752 1894 2752 
L 1331 2752 
L 1568 3692 
C 1594 3781 1594 3794 1594 3840 
C 1594 3943 1510 4000 1427 4000 
C 1376 4000 1229 3981 1178 3775 
L 928 2752 
L 326 2752 
C 198 2752 141 2752 141 2630 
C 141 2566 186 2566 307 2566 
L 877 2566 
L 454 881 
C 403 658 384 594 384 511 
C 384 211 595 -64 954 -64 
C 1600 -64 1946 868 1946 912 
C 1946 951 1920 970 1882 970 
C 1869 970 1843 970 1830 944 
C 1824 938 1818 931 1773 829 
C 1638 511 1344 64 973 64 
C 781 64 768 224 768 364 
C 768 370 768 492 787 568 
L 1286 2566 
z
" transform="scale(0.015625)"/>
       <path id="CMR17-3d" d="M 4115 2017 
C 4211 2017 4307 2017 4307 2125 
C 4307 2240 4198 2240 4090 2240 
L 512 2240 
C 403 2240 294 2240 294 2125 
C 294 2017 390 2017 486 2017 
L 4115 2017 
z
M 4090 896 
C 4198 896 4307 896 4307 1011 
C 4307 1119 4211 1119 4115 1119 
L 486 1119 
C 390 1119 294 1119 294 1011 
C 294 896 403 896 512 896 
L 4090 896 
z
" transform="scale(0.015625)"/>
       <path id="CMSY10-e" d="M 2842 1600 
C 2842 2277 2272 2828 1600 2828 
C 909 2828 352 2264 352 1600 
C 352 930 909 372 1600 372 
C 2272 372 2842 923 2842 1600 
z
M 1600 628 
C 1043 628 608 1070 608 1600 
C 608 2130 1050 2572 1600 2572 
C 2131 2572 2586 2142 2586 1600 
C 2586 1058 2131 628 1600 628 
z
" transform="scale(0.015625)"/>
       <path id="CMR17-7b" d="M 2970 1664 
L 2970 1766 
L -38 1766 
L -38 1664 
L 2970 1664 
z
" transform="scale(0.015625)"/>
       <path id="CMR17-6d" d="M 4326 1933 
C 4326 2252 4269 2790 3507 2790 
C 3072 2790 2771 2496 2656 2151 
L 2650 2151 
C 2573 2676 2195 2790 1837 2790 
C 1331 2790 1069 2400 973 2144 
L 966 2144 
L 966 2790 
L 211 2720 
L 211 2554 
C 589 2554 646 2515 646 2208 
L 646 428 
C 646 184 621 153 211 153 
L 211 -13 
C 365 0 646 0 813 0 
C 979 0 1267 0 1421 -13 
L 1421 153 
C 1011 153 986 178 986 428 
L 986 1658 
C 986 2247 1344 2688 1792 2688 
C 2266 2688 2317 2266 2317 1958 
L 2317 428 
C 2317 184 2291 153 1882 153 
L 1882 -13 
C 2035 0 2317 0 2483 0 
C 2650 0 2938 0 3091 -13 
L 3091 153 
C 2682 153 2656 178 2656 428 
L 2656 1658 
C 2656 2247 3014 2688 3462 2688 
C 3936 2688 3987 2266 3987 1958 
L 3987 428 
C 3987 184 3962 153 3552 153 
L 3552 -13 
C 3706 0 3987 0 4154 0 
C 4320 0 4608 0 4762 -13 
L 4762 153 
C 4352 153 4326 178 4326 428 
L 4326 1933 
z
" transform="scale(0.015625)"/>
       <path id="CMR17-6f" d="M 2758 1356 
C 2758 2176 2163 2816 1466 2816 
C 768 2816 173 2176 173 1356 
C 173 551 768 -64 1466 -64 
C 2163 -64 2758 551 2758 1356 
z
M 1466 51 
C 1165 51 909 230 762 480 
C 602 767 582 1126 582 1408 
C 582 1677 595 2010 762 2298 
C 890 2509 1139 2714 1466 2714 
C 1754 2714 1997 2554 2150 2330 
C 2349 2029 2349 1607 2349 1408 
C 2349 1158 2336 775 2163 467 
C 1984 173 1709 51 1466 51 
z
" transform="scale(0.015625)"/>
       <path id="CMR17-64" d="M 1869 4326 
L 1869 4160 
C 2246 4160 2304 4122 2304 3820 
L 2304 2345 
C 2278 2377 2016 2790 1498 2790 
C 845 2790 211 2208 211 1364 
C 211 525 806 -64 1434 -64 
C 1978 -64 2259 337 2291 380 
L 2291 -63 
L 3066 -63 
L 3066 128 
C 2688 128 2630 166 2630 473 
L 2630 4396 
L 1869 4326 
z
M 2291 755 
C 2291 563 2176 390 2029 262 
C 1811 70 1594 38 1472 38 
C 1286 38 621 134 621 1356 
C 621 2612 1363 2688 1530 2688 
C 1824 2688 2061 2522 2208 2291 
C 2291 2157 2291 2138 2291 2023 
L 2291 755 
z
" transform="scale(0.015625)"/>
       <path id="CMR17-65" d="M 2438 1472 
C 2464 1498 2464 1511 2464 1576 
C 2464 2238 2118 2816 1389 2816 
C 710 2816 173 2169 173 1383 
C 173 551 781 -64 1459 -64 
C 2176 -64 2458 607 2458 740 
C 2458 784 2419 784 2406 784 
C 2362 784 2355 771 2330 696 
C 2189 265 1837 51 1504 51 
C 1229 51 954 203 781 480 
C 582 803 582 1176 582 1472 
L 2438 1472 
z
M 589 1568 
C 634 2505 1126 2714 1382 2714 
C 1818 2714 2112 2297 2118 1568 
L 589 1568 
z
" transform="scale(0.015625)"/>
       <path id="CMR17-6c" d="M 979 4396 
L 218 4326 
L 218 4160 
C 595 4160 653 4122 653 3817 
L 653 426 
C 653 184 627 153 218 153 
L 218 -13 
C 371 0 653 0 813 0 
C 979 0 1261 0 1414 -13 
L 1414 153 
C 1005 153 979 178 979 426 
L 979 4396 
z
" transform="scale(0.015625)"/>
      </defs>
      <use xlink:href="#CMMI12-21" transform="scale(0.996264)"/>
      <use xlink:href="#CMMI12-74" transform="translate(64.318346 0) scale(0.996264)"/>
      <use xlink:href="#CMR17-3d" transform="translate(127.218685 0) scale(0.996264)"/>
      <use xlink:href="#CMR17-30" transform="translate(226.607482 0) scale(0.996264)"/>
      <use xlink:href="#CMSY10-e" transform="translate(294.437166 36.153639) scale(0.697382)"/>
      <use xlink:href="#CMR17-7b" transform="translate(359.880474 0) scale(0.996264)"/>
      <use xlink:href="#CMR17-6d" transform="translate(435.646918 0) scale(0.996264)"/>
      <use xlink:href="#CMR17-6f" transform="translate(512.566508 0) scale(0.996264)"/>
      <use xlink:href="#CMR17-64" transform="translate(560.859424 0) scale(0.996264)"/>
      <use xlink:href="#CMR17-65" transform="translate(611.754793 0) scale(0.996264)"/>
      <use xlink:href="#CMR17-6c" transform="translate(652.240454 0) scale(0.996264)"/>
     </g>
    </g>
    <g id="line2d_40">
     <path d="M 481.207039 230.364366 
L 501.207039 230.364366 
L 521.207039 230.364366 
" style="fill: none; stroke-dasharray: 4.44,1.92; stroke-dashoffset: 0; stroke: #000000; stroke-width: 1.2"/>
    </g>
    <g id="text_19">
     <!-- $\omega t = 45\:\unit{\degree}$ - - model -->
     <g transform="translate(537.207039 237.364366) scale(0.2 -0.2)">
      <use xlink:href="#CMMI12-21" transform="scale(0.996264)"/>
      <use xlink:href="#CMMI12-74" transform="translate(64.318346 0) scale(0.996264)"/>
      <use xlink:href="#CMR17-3d" transform="translate(127.218685 0) scale(0.996264)"/>
      <use xlink:href="#CMR17-34" transform="translate(226.607482 0) scale(0.996264)"/>
      <use xlink:href="#CMR17-35" transform="translate(272.297959 0) scale(0.996264)"/>
      <use xlink:href="#CMSY10-e" transform="translate(340.127643 36.153639) scale(0.697382)"/>
      <use xlink:href="#CMR17-7b" transform="translate(405.570952 0) scale(0.996264)"/>
      <use xlink:href="#CMR17-6d" transform="translate(481.337395 0) scale(0.996264)"/>
      <use xlink:href="#CMR17-6f" transform="translate(558.256985 0) scale(0.996264)"/>
      <use xlink:href="#CMR17-64" transform="translate(606.549901 0) scale(0.996264)"/>
      <use xlink:href="#CMR17-65" transform="translate(657.445271 0) scale(0.996264)"/>
      <use xlink:href="#CMR17-6c" transform="translate(697.930931 0) scale(0.996264)"/>
     </g>
    </g>
    <g id="line2d_41">
     <path d="M 481.207039 258.24 
L 501.207039 258.24 
L 521.207039 258.24 
" style="fill: none; stroke-dasharray: 8.32,2.08,1.3,2.08; stroke-dashoffset: 0; stroke: #000000; stroke-width: 1.3"/>
    </g>
    <g id="text_20">
     <!-- $\omega t = 90\:\unit{\degree}$ - - model -->
     <g transform="translate(537.207039 265.24) scale(0.2 -0.2)">
      <defs>
       <path id="CMR17-39" d="M 2253 1864 
C 2253 464 1670 31 1190 31 
C 1043 31 685 31 538 294 
C 704 268 826 357 826 518 
C 826 692 685 749 595 749 
C 538 749 365 723 365 506 
C 365 71 742 -128 1203 -128 
C 1939 -128 2688 674 2688 2073 
C 2688 3817 1971 4179 1485 4179 
C 851 4179 243 3628 243 2778 
C 243 1991 762 1408 1414 1408 
C 1952 1408 2189 1903 2253 2112 
L 2253 1864 
z
M 1427 1510 
C 1254 1510 1011 1542 813 1922 
C 678 2169 678 2461 678 2771 
C 678 3146 678 3405 858 3684 
C 947 3817 1114 4032 1485 4032 
C 2240 4032 2240 2885 2240 2632 
C 2240 2182 2035 1510 1427 1510 
z
" transform="scale(0.015625)"/>
      </defs>
      <use xlink:href="#CMMI12-21" transform="scale(0.996264)"/>
      <use xlink:href="#CMMI12-74" transform="translate(64.318346 0) scale(0.996264)"/>
      <use xlink:href="#CMR17-3d" transform="translate(127.218685 0) scale(0.996264)"/>
      <use xlink:href="#CMR17-39" transform="translate(226.607482 0) scale(0.996264)"/>
      <use xlink:href="#CMR17-30" transform="translate(272.297959 0) scale(0.996264)"/>
      <use xlink:href="#CMSY10-e" transform="translate(340.127643 36.153639) scale(0.697382)"/>
      <use xlink:href="#CMR17-7b" transform="translate(405.570952 0) scale(0.996264)"/>
      <use xlink:href="#CMR17-6d" transform="translate(481.337395 0) scale(0.996264)"/>
      <use xlink:href="#CMR17-6f" transform="translate(558.256985 0) scale(0.996264)"/>
      <use xlink:href="#CMR17-64" transform="translate(606.549901 0) scale(0.996264)"/>
      <use xlink:href="#CMR17-65" transform="translate(657.445271 0) scale(0.996264)"/>
      <use xlink:href="#CMR17-6c" transform="translate(697.930931 0) scale(0.996264)"/>
     </g>
    </g>
    <g id="line2d_42">
     <path d="M 481.207039 286.115634 
L 501.207039 286.115634 
L 521.207039 286.115634 
" style="fill: none; stroke-dasharray: 1.8,2.97; stroke-dashoffset: 0; stroke: #000000; stroke-width: 1.8"/>
    </g>
    <g id="text_21">
     <!-- $\omega t = 135\:\unit{\degree}$ - - model -->
     <g transform="translate(537.207039 293.115634) scale(0.2 -0.2)">
      <use xlink:href="#CMMI12-21" transform="scale(0.996264)"/>
      <use xlink:href="#CMMI12-74" transform="translate(64.318346 0) scale(0.996264)"/>
      <use xlink:href="#CMR17-3d" transform="translate(127.218685 0) scale(0.996264)"/>
      <use xlink:href="#CMR17-31" transform="translate(226.607482 0) scale(0.996264)"/>
      <use xlink:href="#CMR17-33" transform="translate(272.297959 0) scale(0.996264)"/>
      <use xlink:href="#CMR17-35" transform="translate(317.988436 0) scale(0.996264)"/>
      <use xlink:href="#CMSY10-e" transform="translate(385.81812 36.153639) scale(0.697382)"/>
      <use xlink:href="#CMR17-7b" transform="translate(451.261429 0) scale(0.996264)"/>
      <use xlink:href="#CMR17-6d" transform="translate(527.027872 0) scale(0.996264)"/>
      <use xlink:href="#CMR17-6f" transform="translate(603.947462 0) scale(0.996264)"/>
      <use xlink:href="#CMR17-64" transform="translate(652.240378 0) scale(0.996264)"/>
      <use xlink:href="#CMR17-65" transform="translate(703.135748 0) scale(0.996264)"/>
      <use xlink:href="#CMR17-6c" transform="translate(743.621408 0) scale(0.996264)"/>
     </g>
    </g>
    <g id="line2d_43">
     <path d="M 731.303813 202.488733 
L 751.303813 202.488733 
L 771.303813 202.488733 
" style="fill: none; stroke: #000000; stroke-opacity: 0.5; stroke-width: 1.2; stroke-linecap: square"/>
    </g>
    <g id="text_22">
     <!-- $\omega t = 0\:\unit{\degree}$ - - theoretical -->
     <g transform="translate(787.303813 209.488733) scale(0.2 -0.2)">
      <defs>
       <path id="CMR17-74" d="M 966 2560 
L 1862 2560 
L 1862 2725 
L 966 2725 
L 966 3904 
L 851 3904 
C 838 3245 614 2668 70 2668 
L 70 2560 
L 627 2560 
L 627 771 
C 627 650 627 -64 1370 -64 
C 1747 -64 1965 306 1965 777 
L 1965 1140 
L 1850 1140 
L 1850 783 
C 1850 344 1677 51 1408 51 
C 1222 51 966 178 966 758 
L 966 2560 
z
" transform="scale(0.015625)"/>
       <path id="CMR17-68" d="M 2656 1933 
C 2656 2259 2592 2790 1837 2790 
C 1312 2790 1056 2368 979 2157 
L 973 2157 
L 973 4396 
L 211 4326 
L 211 4160 
C 589 4160 646 4122 646 3817 
L 646 426 
C 646 184 621 153 211 153 
L 211 -13 
C 365 0 646 0 813 0 
C 979 0 1267 0 1421 -13 
L 1421 153 
C 1011 153 986 178 986 428 
L 986 1658 
C 986 2247 1344 2688 1792 2688 
C 2266 2688 2317 2266 2317 1958 
L 2317 428 
C 2317 184 2291 153 1882 153 
L 1882 -13 
C 2035 0 2317 0 2483 0 
C 2650 0 2938 0 3091 -13 
L 3091 153 
C 2682 153 2656 178 2656 428 
L 2656 1933 
z
" transform="scale(0.015625)"/>
       <path id="CMR17-72" d="M 960 1497 
C 960 2112 1222 2688 1702 2688 
C 1747 2688 1792 2682 1837 2662 
C 1837 2662 1696 2617 1696 2452 
C 1696 2298 1818 2234 1914 2234 
C 1990 2234 2131 2279 2131 2458 
C 2131 2663 1926 2790 1709 2790 
C 1222 2790 1011 2317 947 2093 
L 941 2093 
L 941 2790 
L 198 2720 
L 198 2554 
C 576 2554 634 2515 634 2208 
L 634 428 
C 634 184 608 153 198 153 
L 198 -13 
C 352 0 646 0 813 0 
C 998 0 1325 0 1498 -13 
L 1498 153 
C 1037 153 960 153 960 440 
L 960 1497 
z
" transform="scale(0.015625)"/>
       <path id="CMR17-69" d="M 992 3909 
C 992 4049 877 4170 730 4170 
C 589 4170 467 4056 467 3909 
C 467 3769 582 3648 730 3648 
C 870 3648 992 3763 992 3909 
z
M 243 2706 
L 243 2541 
C 602 2541 653 2502 653 2197 
L 653 427 
C 653 184 627 153 218 153 
L 218 -13 
C 371 0 646 0 806 0 
C 960 0 1222 0 1370 -13 
L 1370 153 
C 992 153 979 191 979 420 
L 979 2776 
L 243 2706 
z
" transform="scale(0.015625)"/>
       <path id="CMR17-63" d="M 2234 2240 
C 2112 2240 1933 2240 1933 2017 
C 1933 1838 2080 1787 2163 1787 
C 2208 1787 2394 1807 2394 2024 
C 2394 2467 1958 2803 1466 2803 
C 787 2803 211 2178 211 1363 
C 211 516 813 -64 1466 -64 
C 2259 -64 2458 677 2458 748 
C 2458 774 2451 793 2406 793 
C 2362 793 2355 787 2330 703 
C 2163 180 1798 51 1523 51 
C 1114 51 621 427 621 1369 
C 621 2338 1094 2688 1472 2688 
C 1722 2688 2093 2573 2234 2240 
z
" transform="scale(0.015625)"/>
       <path id="CMR17-61" d="M 2304 1653 
C 2304 2072 2304 2294 2035 2543 
C 1798 2752 1523 2816 1306 2816 
C 800 2816 435 2407 435 1971 
C 435 1728 627 1728 666 1728 
C 749 1728 896 1778 896 1954 
C 896 2112 774 2181 666 2181 
C 640 2181 608 2174 589 2168 
C 723 2592 1069 2714 1293 2714 
C 1613 2714 1965 2429 1965 1885 
L 1965 1600 
C 1587 1600 1133 1549 774 1357 
C 371 1133 256 813 256 570 
C 256 77 832 -64 1171 -64 
C 1523 -64 1850 139 1990 511 
C 2003 233 2182 -18 2464 -18 
C 2598 -18 2938 70 2938 567 
L 2938 920 
L 2822 920 
L 2822 562 
C 2822 178 2650 128 2566 128 
C 2304 128 2304 458 2304 738 
L 2304 1653 
z
M 1965 870 
C 1965 317 1568 38 1216 38 
C 896 38 646 275 646 570 
C 646 761 730 1100 1101 1305 
C 1408 1478 1760 1504 1965 1504 
L 1965 870 
z
" transform="scale(0.015625)"/>
      </defs>
      <use xlink:href="#CMMI12-21" transform="scale(0.996264)"/>
      <use xlink:href="#CMMI12-74" transform="translate(64.318346 0) scale(0.996264)"/>
      <use xlink:href="#CMR17-3d" transform="translate(127.218685 0) scale(0.996264)"/>
      <use xlink:href="#CMR17-30" transform="translate(226.607482 0) scale(0.996264)"/>
      <use xlink:href="#CMSY10-e" transform="translate(294.437166 36.153639) scale(0.697382)"/>
      <use xlink:href="#CMR17-7b" transform="translate(359.880474 0) scale(0.996264)"/>
      <use xlink:href="#CMR17-74" transform="translate(435.646918 0) scale(0.996264)"/>
      <use xlink:href="#CMR17-68" transform="translate(470.927686 0) scale(0.996264)"/>
      <use xlink:href="#CMR17-65" transform="translate(521.823056 0) scale(0.996264)"/>
      <use xlink:href="#CMR17-6f" transform="translate(562.308716 0) scale(0.996264)"/>
      <use xlink:href="#CMR17-72" transform="translate(607.999193 0) scale(0.996264)"/>
      <use xlink:href="#CMR17-65" transform="translate(643.279961 0) scale(0.996264)"/>
      <use xlink:href="#CMR17-74" transform="translate(683.765621 0) scale(0.996264)"/>
      <use xlink:href="#CMR17-69" transform="translate(719.046389 0) scale(0.996264)"/>
      <use xlink:href="#CMR17-63" transform="translate(743.917448 0) scale(0.996264)"/>
      <use xlink:href="#CMR17-61" transform="translate(784.403108 0) scale(0.996264)"/>
      <use xlink:href="#CMR17-6c" transform="translate(830.093585 0) scale(0.996264)"/>
     </g>
    </g>
    <g id="line2d_44">
     <path d="M 731.303813 230.364366 
L 751.303813 230.364366 
L 771.303813 230.364366 
" style="fill: none; stroke-dasharray: 4.44,1.92; stroke-dashoffset: 0; stroke: #000000; stroke-opacity: 0.5; stroke-width: 1.2"/>
    </g>
    <g id="text_23">
     <!-- $\omega t = 45\:\unit{\degree}$ - - theoretical -->
     <g transform="translate(787.303813 237.364366) scale(0.2 -0.2)">
      <use xlink:href="#CMMI12-21" transform="scale(0.996264)"/>
      <use xlink:href="#CMMI12-74" transform="translate(64.318346 0) scale(0.996264)"/>
      <use xlink:href="#CMR17-3d" transform="translate(127.218685 0) scale(0.996264)"/>
      <use xlink:href="#CMR17-34" transform="translate(226.607482 0) scale(0.996264)"/>
      <use xlink:href="#CMR17-35" transform="translate(272.297959 0) scale(0.996264)"/>
      <use xlink:href="#CMSY10-e" transform="translate(340.127643 36.153639) scale(0.697382)"/>
      <use xlink:href="#CMR17-7b" transform="translate(405.570952 0) scale(0.996264)"/>
      <use xlink:href="#CMR17-74" transform="translate(481.337395 0) scale(0.996264)"/>
      <use xlink:href="#CMR17-68" transform="translate(516.618163 0) scale(0.996264)"/>
      <use xlink:href="#CMR17-65" transform="translate(567.513533 0) scale(0.996264)"/>
      <use xlink:href="#CMR17-6f" transform="translate(607.999193 0) scale(0.996264)"/>
      <use xlink:href="#CMR17-72" transform="translate(653.68967 0) scale(0.996264)"/>
      <use xlink:href="#CMR17-65" transform="translate(688.970438 0) scale(0.996264)"/>
      <use xlink:href="#CMR17-74" transform="translate(729.456098 0) scale(0.996264)"/>
      <use xlink:href="#CMR17-69" transform="translate(764.736866 0) scale(0.996264)"/>
      <use xlink:href="#CMR17-63" transform="translate(789.607925 0) scale(0.996264)"/>
      <use xlink:href="#CMR17-61" transform="translate(830.093585 0) scale(0.996264)"/>
      <use xlink:href="#CMR17-6c" transform="translate(875.784062 0) scale(0.996264)"/>
     </g>
    </g>
    <g id="line2d_45">
     <path d="M 731.303813 258.24 
L 751.303813 258.24 
L 771.303813 258.24 
" style="fill: none; stroke-dasharray: 8.32,2.08,1.3,2.08; stroke-dashoffset: 0; stroke: #000000; stroke-opacity: 0.5; stroke-width: 1.3"/>
    </g>
    <g id="text_24">
     <!-- $\omega t = 90\:\unit{\degree}$ - - theoretical -->
     <g transform="translate(787.303813 265.24) scale(0.2 -0.2)">
      <use xlink:href="#CMMI12-21" transform="scale(0.996264)"/>
      <use xlink:href="#CMMI12-74" transform="translate(64.318346 0) scale(0.996264)"/>
      <use xlink:href="#CMR17-3d" transform="translate(127.218685 0) scale(0.996264)"/>
      <use xlink:href="#CMR17-39" transform="translate(226.607482 0) scale(0.996264)"/>
      <use xlink:href="#CMR17-30" transform="translate(272.297959 0) scale(0.996264)"/>
      <use xlink:href="#CMSY10-e" transform="translate(340.127643 36.153639) scale(0.697382)"/>
      <use xlink:href="#CMR17-7b" transform="translate(405.570952 0) scale(0.996264)"/>
      <use xlink:href="#CMR17-74" transform="translate(481.337395 0) scale(0.996264)"/>
      <use xlink:href="#CMR17-68" transform="translate(516.618163 0) scale(0.996264)"/>
      <use xlink:href="#CMR17-65" transform="translate(567.513533 0) scale(0.996264)"/>
      <use xlink:href="#CMR17-6f" transform="translate(607.999193 0) scale(0.996264)"/>
      <use xlink:href="#CMR17-72" transform="translate(653.68967 0) scale(0.996264)"/>
      <use xlink:href="#CMR17-65" transform="translate(688.970438 0) scale(0.996264)"/>
      <use xlink:href="#CMR17-74" transform="translate(729.456098 0) scale(0.996264)"/>
      <use xlink:href="#CMR17-69" transform="translate(764.736866 0) scale(0.996264)"/>
      <use xlink:href="#CMR17-63" transform="translate(789.607925 0) scale(0.996264)"/>
      <use xlink:href="#CMR17-61" transform="translate(830.093585 0) scale(0.996264)"/>
      <use xlink:href="#CMR17-6c" transform="translate(875.784062 0) scale(0.996264)"/>
     </g>
    </g>
    <g id="line2d_46">
     <path d="M 731.303813 286.115634 
L 751.303813 286.115634 
L 771.303813 286.115634 
" style="fill: none; stroke-dasharray: 1.8,2.97; stroke-dashoffset: 0; stroke: #000000; stroke-opacity: 0.5; stroke-width: 1.8"/>
    </g>
    <g id="text_25">
     <!-- $\omega t = 135\:\unit{\degree}$ - - theoretical -->
     <g transform="translate(787.303813 293.115634) scale(0.2 -0.2)">
      <use xlink:href="#CMMI12-21" transform="scale(0.996264)"/>
      <use xlink:href="#CMMI12-74" transform="translate(64.318346 0) scale(0.996264)"/>
      <use xlink:href="#CMR17-3d" transform="translate(127.218685 0) scale(0.996264)"/>
      <use xlink:href="#CMR17-31" transform="translate(226.607482 0) scale(0.996264)"/>
      <use xlink:href="#CMR17-33" transform="translate(272.297959 0) scale(0.996264)"/>
      <use xlink:href="#CMR17-35" transform="translate(317.988436 0) scale(0.996264)"/>
      <use xlink:href="#CMSY10-e" transform="translate(385.81812 36.153639) scale(0.697382)"/>
      <use xlink:href="#CMR17-7b" transform="translate(451.261429 0) scale(0.996264)"/>
      <use xlink:href="#CMR17-74" transform="translate(527.027872 0) scale(0.996264)"/>
      <use xlink:href="#CMR17-68" transform="translate(562.30864 0) scale(0.996264)"/>
      <use xlink:href="#CMR17-65" transform="translate(613.20401 0) scale(0.996264)"/>
      <use xlink:href="#CMR17-6f" transform="translate(653.68967 0) scale(0.996264)"/>
      <use xlink:href="#CMR17-72" transform="translate(699.380147 0) scale(0.996264)"/>
      <use xlink:href="#CMR17-65" transform="translate(734.660915 0) scale(0.996264)"/>
      <use xlink:href="#CMR17-74" transform="translate(775.146576 0) scale(0.996264)"/>
      <use xlink:href="#CMR17-69" transform="translate(810.427343 0) scale(0.996264)"/>
      <use xlink:href="#CMR17-63" transform="translate(835.298402 0) scale(0.996264)"/>
      <use xlink:href="#CMR17-61" transform="translate(875.784062 0) scale(0.996264)"/>
      <use xlink:href="#CMR17-6c" transform="translate(921.474539 0) scale(0.996264)"/>
     </g>
    </g>
   </g>
  </g>
 </g>
 <defs>
  <clipPath id="pb7ca295e2b">
   <rect x="102.171192" y="7.2" width="892.8" height="478.08"/>
  </clipPath>
 </defs>
</svg>
