<?xml version="1.0" encoding="utf-8" standalone="no"?>
<!DOCTYPE svg PUBLIC "-//W3C//DTD SVG 1.1//EN"
  "http://www.w3.org/Graphics/SVG/1.1/DTD/svg11.dtd">
<svg xmlns:xlink="http://www.w3.org/1999/xlink" width="1256.39664pt" height="635.51842pt" viewBox="0 0 1256.39664 635.51842" xmlns="http://www.w3.org/2000/svg" version="1.1">
 <metadata>
  <rdf:RDF xmlns:dc="http://purl.org/dc/elements/1.1/" xmlns:cc="http://creativecommons.org/ns#" xmlns:rdf="http://www.w3.org/1999/02/22-rdf-syntax-ns#">
   <cc:Work>
    <dc:type rdf:resource="http://purl.org/dc/dcmitype/StillImage"/>
    <dc:date>2024-10-25T11:46:03.236726</dc:date>
    <dc:format>image/svg+xml</dc:format>
    <dc:creator>
     <cc:Agent>
      <dc:title>Matplotlib v3.8.4, https://matplotlib.org/</dc:title>
     </cc:Agent>
    </dc:creator>
   </cc:Work>
  </rdf:RDF>
 </metadata>
 <defs>
  <style type="text/css">*{stroke-linejoin: round; stroke-linecap: butt}</style>
 </defs>
 <g id="figure_1">
  <g id="patch_1">
   <path d="M 0 635.51842 
L 1256.39664 635.51842 
L 1256.39664 0 
L 0 0 
z
" style="fill: #ffffff"/>
  </g>
  <g id="axes_1">
   <g id="patch_2">
    <path d="M 69.744696 529.039499 
L 263.831652 529.039499 
L 263.831652 50.959499 
L 69.744696 50.959499 
z
" style="fill: #ffffff"/>
   </g>
   <g id="matplotlib.axis_1">
    <g id="xtick_1">
     <g id="line2d_1">
      <path d="M 69.744696 529.039499 
L 69.744696 50.959499 
" clip-path="url(#p29de8503a1)" style="fill: none; stroke: #b0b0b0; stroke-width: 0.8; stroke-linecap: square"/>
     </g>
     <g id="line2d_2">
      <defs>
       <path id="mbe98ea1a94" d="M 0 0 
L 0 3.5 
" style="stroke: #000000; stroke-width: 0.8"/>
      </defs>
      <g>
       <use xlink:href="#mbe98ea1a94" x="69.744696" y="529.039499" style="stroke: #000000; stroke-width: 0.8"/>
      </g>
     </g>
     <g id="text_1">
      <!-- $\mathdefault{0}$ -->
      <g transform="translate(65.175648 551.376495) scale(0.2 -0.2)">
       <defs>
        <path id="CMR17-30" d="M 2688 2025 
C 2688 2416 2682 3080 2413 3591 
C 2176 4039 1798 4198 1466 4198 
C 1158 4198 768 4058 525 3597 
C 269 3118 243 2524 243 2025 
C 243 1661 250 1106 448 619 
C 723 -39 1216 -128 1466 -128 
C 1760 -128 2208 -7 2470 600 
C 2662 1042 2688 1559 2688 2025 
z
M 1466 -26 
C 1056 -26 813 325 723 812 
C 653 1188 653 1738 653 2096 
C 653 2588 653 2997 736 3387 
C 858 3929 1216 4096 1466 4096 
C 1728 4096 2067 3923 2189 3400 
C 2272 3036 2278 2607 2278 2096 
C 2278 1680 2278 1169 2202 792 
C 2067 95 1690 -26 1466 -26 
z
" transform="scale(0.015625)"/>
       </defs>
       <use xlink:href="#CMR17-30" transform="scale(0.996264)"/>
      </g>
     </g>
    </g>
    <g id="xtick_2">
     <g id="line2d_3">
      <path d="M 118.266435 529.039499 
L 118.266435 50.959499 
" clip-path="url(#p29de8503a1)" style="fill: none; stroke: #b0b0b0; stroke-width: 0.8; stroke-linecap: square"/>
     </g>
     <g id="line2d_4">
      <g>
       <use xlink:href="#mbe98ea1a94" x="118.266435" y="529.039499" style="stroke: #000000; stroke-width: 0.8"/>
      </g>
     </g>
     <g id="text_2">
      <!-- $\mathdefault{2}$ -->
      <g transform="translate(113.697387 551.376495) scale(0.2 -0.2)">
       <defs>
        <path id="CMR17-32" d="M 2669 989 
L 2554 989 
C 2490 536 2438 459 2413 420 
C 2381 369 1920 369 1830 369 
L 602 369 
C 832 619 1280 1072 1824 1597 
C 2214 1967 2669 2402 2669 3035 
C 2669 3790 2067 4224 1395 4224 
C 691 4224 262 3604 262 3030 
C 262 2780 448 2748 525 2748 
C 589 2748 781 2787 781 3010 
C 781 3207 614 3264 525 3264 
C 486 3264 448 3258 422 3245 
C 544 3790 915 4058 1306 4058 
C 1862 4058 2227 3617 2227 3035 
C 2227 2479 1901 2000 1536 1584 
L 262 146 
L 262 0 
L 2515 0 
L 2669 989 
z
" transform="scale(0.015625)"/>
       </defs>
       <use xlink:href="#CMR17-32" transform="scale(0.996264)"/>
      </g>
     </g>
    </g>
    <g id="xtick_3">
     <g id="line2d_5">
      <path d="M 166.788174 529.039499 
L 166.788174 50.959499 
" clip-path="url(#p29de8503a1)" style="fill: none; stroke: #b0b0b0; stroke-width: 0.8; stroke-linecap: square"/>
     </g>
     <g id="line2d_6">
      <g>
       <use xlink:href="#mbe98ea1a94" x="166.788174" y="529.039499" style="stroke: #000000; stroke-width: 0.8"/>
      </g>
     </g>
     <g id="text_3">
      <!-- $\mathdefault{4}$ -->
      <g transform="translate(162.219126 551.376495) scale(0.2 -0.2)">
       <defs>
        <path id="CMR17-34" d="M 2150 4122 
C 2150 4256 2144 4256 2029 4256 
L 128 1254 
L 128 1088 
L 1779 1088 
L 1779 457 
C 1779 224 1766 160 1318 160 
L 1197 160 
L 1197 0 
C 1402 0 1747 0 1965 0 
C 2182 0 2528 0 2733 0 
L 2733 160 
L 2611 160 
C 2163 160 2150 224 2150 457 
L 2150 1088 
L 2803 1088 
L 2803 1254 
L 2150 1254 
L 2150 4122 
z
M 1798 3703 
L 1798 1254 
L 256 1254 
L 1798 3703 
z
" transform="scale(0.015625)"/>
       </defs>
       <use xlink:href="#CMR17-34" transform="scale(0.996264)"/>
      </g>
     </g>
    </g>
    <g id="xtick_4">
     <g id="line2d_7">
      <path d="M 215.309913 529.039499 
L 215.309913 50.959499 
" clip-path="url(#p29de8503a1)" style="fill: none; stroke: #b0b0b0; stroke-width: 0.8; stroke-linecap: square"/>
     </g>
     <g id="line2d_8">
      <g>
       <use xlink:href="#mbe98ea1a94" x="215.309913" y="529.039499" style="stroke: #000000; stroke-width: 0.8"/>
      </g>
     </g>
     <g id="text_4">
      <!-- $\mathdefault{6}$ -->
      <g transform="translate(210.740865 551.376495) scale(0.2 -0.2)">
       <defs>
        <path id="CMR17-36" d="M 678 2176 
C 678 3690 1395 4032 1811 4032 
C 1946 4032 2272 4009 2400 3776 
C 2298 3776 2106 3776 2106 3553 
C 2106 3381 2246 3323 2336 3323 
C 2394 3323 2566 3348 2566 3560 
C 2566 3954 2246 4179 1805 4179 
C 1043 4179 243 3390 243 1984 
C 243 253 966 -128 1478 -128 
C 2099 -128 2688 427 2688 1283 
C 2688 2081 2170 2662 1517 2662 
C 1126 2662 838 2407 678 1960 
L 678 2176 
z
M 1478 25 
C 691 25 691 1200 691 1436 
C 691 1896 909 2560 1504 2560 
C 1613 2560 1926 2560 2138 2120 
C 2253 1870 2253 1609 2253 1289 
C 2253 944 2253 690 2118 434 
C 1978 171 1773 25 1478 25 
z
" transform="scale(0.015625)"/>
       </defs>
       <use xlink:href="#CMR17-36" transform="scale(0.996264)"/>
      </g>
     </g>
    </g>
    <g id="xtick_5">
     <g id="line2d_9">
      <path d="M 263.831652 529.039499 
L 263.831652 50.959499 
" clip-path="url(#p29de8503a1)" style="fill: none; stroke: #b0b0b0; stroke-width: 0.8; stroke-linecap: square"/>
     </g>
     <g id="line2d_10">
      <g>
       <use xlink:href="#mbe98ea1a94" x="263.831652" y="529.039499" style="stroke: #000000; stroke-width: 0.8"/>
      </g>
     </g>
     <g id="text_5">
      <!-- $\mathdefault{8}$ -->
      <g transform="translate(259.262604 551.376495) scale(0.2 -0.2)">
       <defs>
        <path id="CMR17-38" d="M 1741 2264 
C 2144 2467 2554 2773 2554 3263 
C 2554 3841 1990 4179 1472 4179 
C 890 4179 378 3759 378 3180 
C 378 3021 416 2747 666 2505 
C 730 2442 998 2251 1171 2130 
C 883 1983 211 1634 211 934 
C 211 279 838 -128 1459 -128 
C 2144 -128 2720 362 2720 1010 
C 2720 1590 2330 1857 2074 2029 
L 1741 2264 
z
M 902 2822 
C 851 2854 595 3051 595 3351 
C 595 3739 998 4032 1459 4032 
C 1965 4032 2336 3676 2336 3262 
C 2336 2669 1670 2331 1638 2331 
C 1632 2331 1626 2331 1574 2370 
L 902 2822 
z
M 2080 1519 
C 2176 1449 2483 1240 2483 851 
C 2483 381 2010 25 1472 25 
C 890 25 448 438 448 940 
C 448 1443 838 1862 1280 2060 
L 2080 1519 
z
" transform="scale(0.015625)"/>
       </defs>
       <use xlink:href="#CMR17-38" transform="scale(0.996264)"/>
      </g>
     </g>
    </g>
    <g id="text_6">
     <!-- $\frac{k}{U_{0m}^2}$ -->
     <g transform="translate(145.560656 608.122852) scale(0.375 -0.375)">
      <defs>
       <path id="CMMI12-6b" d="M 1798 4257 
C 1805 4283 1818 4321 1818 4352 
C 1818 4416 1754 4416 1741 4416 
C 1734 4416 1504 4393 1389 4377 
C 1280 4377 1184 4358 1069 4358 
C 915 4345 870 4339 870 4224 
C 870 4160 934 4160 998 4160 
C 1325 4160 1325 4103 1325 4040 
C 1325 4015 1325 4002 1293 3888 
L 378 248 
C 352 152 352 140 352 101 
C 352 -38 461 -64 525 -64 
C 704 -64 742 77 794 275 
L 1094 1469 
C 1555 1418 1830 1226 1830 920 
C 1830 881 1830 856 1811 760 
C 1786 664 1786 588 1786 556 
C 1786 185 2029 -64 2355 -64 
C 2650 -64 2803 204 2854 294 
C 2989 530 3072 888 3072 913 
C 3072 945 3046 971 3008 971 
C 2950 971 2944 945 2918 843 
C 2829 511 2694 64 2368 64 
C 2240 64 2157 128 2157 370 
C 2157 492 2182 632 2208 728 
C 2234 843 2234 849 2234 926 
C 2234 1303 1894 1514 1306 1590 
C 1536 1731 1766 1980 1856 2076 
C 2221 2484 2470 2689 2765 2689 
C 2912 2689 2950 2650 2995 2612 
C 2758 2586 2669 2420 2669 2293 
C 2669 2139 2790 2088 2880 2088 
C 3053 2088 3206 2235 3206 2440 
C 3206 2625 3059 2816 2771 2816 
C 2419 2816 2131 2567 1677 2056 
C 1613 1980 1376 1737 1139 1648 
L 1798 4257 
z
" transform="scale(0.015625)"/>
       <path id="CMMI12-55" d="M 3238 1474 
C 3014 581 2272 57 1670 57 
C 1210 57 896 363 896 891 
C 896 916 896 1107 966 1387 
L 1594 3887 
C 1651 4103 1664 4167 2118 4167 
C 2234 4167 2298 4167 2298 4282 
C 2298 4352 2240 4352 2202 4352 
C 2086 4352 1952 4352 1830 4352 
L 1075 4352 
C 954 4352 819 4352 698 4352 
C 653 4352 576 4352 576 4231 
C 576 4167 621 4167 742 4167 
C 1126 4167 1126 4116 1126 4046 
C 1126 4008 1082 3824 1050 3715 
L 493 1488 
C 474 1418 435 1246 435 1075 
C 435 374 941 -128 1638 -128 
C 2285 -128 3002 384 3328 1197 
C 3373 1305 3430 1530 3469 1702 
C 3533 1933 3667 2496 3712 2662 
L 3955 3623 
C 4038 3956 4090 4167 4653 4167 
C 4704 4173 4730 4224 4730 4282 
C 4730 4352 4672 4352 4646 4352 
C 4557 4352 4442 4352 4352 4352 
L 4051 4352 
C 3654 4352 3450 4352 3443 4352 
C 3405 4352 3328 4352 3328 4231 
C 3328 4167 3379 4167 3424 4167 
C 3808 4167 3834 4020 3834 3905 
C 3834 3848 3834 3828 3808 3739 
L 3238 1474 
z
" transform="scale(0.015625)"/>
       <path id="CMMI12-6d" d="M 1318 1871 
C 1331 1910 1491 2229 1728 2433 
C 1894 2586 2112 2689 2362 2689 
C 2618 2689 2707 2497 2707 2242 
C 2707 2203 2707 2076 2630 1775 
L 2470 1118 
C 2419 926 2298 453 2285 383 
C 2259 287 2221 121 2221 96 
C 2221 6 2291 -64 2387 -64 
C 2579 -64 2611 83 2669 313 
L 3053 1839 
C 3066 1890 3398 2689 4102 2689 
C 4358 2689 4448 2497 4448 2242 
C 4448 1884 4198 1188 4058 805 
C 4000 651 3968 568 3968 453 
C 3968 166 4166 -64 4474 -64 
C 5069 -64 5293 875 5293 913 
C 5293 945 5267 971 5229 971 
C 5171 971 5165 952 5133 843 
C 4986 332 4749 64 4493 64 
C 4429 64 4326 64 4326 269 
C 4326 436 4403 640 4429 710 
C 4544 1018 4832 1773 4832 2145 
C 4832 2528 4608 2816 4122 2816 
C 3693 2816 3347 2574 3091 2197 
C 3072 2542 2861 2816 2381 2816 
C 1811 2816 1510 2415 1395 2255 
C 1376 2618 1114 2816 832 2816 
C 646 2816 499 2727 378 2484 
C 262 2254 173 1865 173 1839 
C 173 1814 198 1782 243 1782 
C 294 1782 301 1788 339 1935 
C 435 2312 557 2689 813 2689 
C 960 2689 1011 2586 1011 2395 
C 1011 2254 947 2005 902 1807 
L 723 1118 
C 698 996 627 709 595 594 
C 550 428 480 128 480 96 
C 480 6 550 -64 646 -64 
C 723 -64 813 -26 864 70 
C 877 102 934 326 966 453 
L 1107 1028 
L 1318 1871 
z
" transform="scale(0.015625)"/>
      </defs>
      <use xlink:href="#CMMI12-6b" transform="translate(37.264008 39.226102) scale(0.697382)"/>
      <use xlink:href="#CMMI12-55" transform="translate(0 -34.355253) scale(0.697382)"/>
      <use xlink:href="#CMR17-32" transform="translate(53.660908 -14.20868) scale(0.498132)"/>
      <use xlink:href="#CMR17-30" transform="translate(46.376275 -51.595716) scale(0.498132)"/>
      <use xlink:href="#CMMI12-6d" transform="translate(69.221514 -51.595716) scale(0.498132)"/>
      <path d="M 0 24.410885 
L 112.38325 24.410885 
L 112.38325 25.40233 
L 0 25.40233 
L 0 24.410885 
z
"/>
     </g>
    </g>
    <g id="text_7">
     <!-- $\times\mathdefault{10^{−3}}\mathdefault{}$ -->
     <g transform="translate(212.381326 572.256133) scale(0.2 -0.2)">
      <defs>
       <path id="CMSY10-2" d="M 2490 1785 
L 1210 3059 
C 1133 3136 1120 3148 1069 3148 
C 1005 3148 941 3091 941 3020 
C 941 2976 954 2963 1024 2892 
L 2304 1606 
L 1024 320 
C 954 249 941 236 941 192 
C 941 121 1005 64 1069 64 
C 1120 64 1133 76 1210 153 
L 2483 1427 
L 3808 102 
C 3821 96 3866 64 3904 64 
C 3981 64 4032 121 4032 192 
C 4032 204 4032 230 4013 262 
C 4006 275 2989 1280 2669 1606 
L 3840 2777 
C 3872 2816 3968 2899 4000 2937 
C 4006 2950 4032 2976 4032 3020 
C 4032 3091 3981 3148 3904 3148 
C 3853 3148 3827 3123 3757 3052 
L 2490 1785 
z
" transform="scale(0.015625)"/>
       <path id="CMR17-31" d="M 1702 4058 
C 1702 4192 1696 4192 1606 4192 
C 1357 3916 979 3827 621 3827 
C 602 3827 570 3827 563 3808 
C 557 3795 557 3782 557 3648 
C 755 3648 1088 3686 1344 3839 
L 1344 461 
C 1344 236 1331 160 781 160 
L 589 160 
L 589 0 
C 896 0 1216 0 1523 0 
C 1830 0 2150 0 2458 0 
L 2458 160 
L 2266 160 
C 1715 160 1702 230 1702 458 
L 1702 4058 
z
" transform="scale(0.015625)"/>
       <path id="CMSY10-0" d="M 4218 1472 
C 4326 1472 4442 1472 4442 1600 
C 4442 1728 4326 1728 4218 1728 
L 755 1728 
C 646 1728 531 1728 531 1600 
C 531 1472 646 1472 755 1472 
L 4218 1472 
z
" transform="scale(0.015625)"/>
       <path id="CMR17-33" d="M 1414 2157 
C 1984 2157 2234 1662 2234 1090 
C 2234 320 1824 25 1453 25 
C 1114 25 563 194 390 693 
C 422 680 454 680 486 680 
C 640 680 755 782 755 948 
C 755 1133 614 1216 486 1216 
C 378 1216 211 1165 211 926 
C 211 335 787 -128 1466 -128 
C 2176 -128 2720 430 2720 1085 
C 2720 1707 2208 2157 1600 2227 
C 2086 2328 2554 2756 2554 3329 
C 2554 3820 2048 4179 1472 4179 
C 890 4179 378 3829 378 3329 
C 378 3110 544 3072 627 3072 
C 762 3072 877 3155 877 3321 
C 877 3486 762 3569 627 3569 
C 602 3569 570 3569 544 3557 
C 730 3959 1235 4032 1459 4032 
C 1683 4032 2106 3925 2106 3320 
C 2106 3143 2080 2828 1862 2550 
C 1670 2304 1453 2304 1242 2284 
C 1210 2284 1062 2269 1037 2269 
C 992 2263 966 2257 966 2208 
C 966 2163 973 2157 1101 2157 
L 1414 2157 
z
" transform="scale(0.015625)"/>
      </defs>
      <use xlink:href="#CMSY10-2" transform="scale(0.996264)"/>
      <use xlink:href="#CMR17-31" transform="translate(77.487468 0) scale(0.996264)"/>
      <use xlink:href="#CMR17-30" transform="translate(123.177945 0) scale(0.996264)"/>
      <use xlink:href="#CMSY10-0" transform="translate(168.868422 36.153639) scale(0.697382)"/>
      <use xlink:href="#CMR17-33" transform="translate(223.109415 36.153639) scale(0.697382)"/>
     </g>
    </g>
   </g>
   <g id="matplotlib.axis_2">
    <g id="ytick_1">
     <g id="line2d_11">
      <path d="M 69.744696 529.039499 
L 263.831652 529.039499 
" clip-path="url(#p29de8503a1)" style="fill: none; stroke: #b0b0b0; stroke-width: 0.8; stroke-linecap: square"/>
     </g>
     <g id="line2d_12">
      <defs>
       <path id="m5ec6dc4fb6" d="M 0 0 
L -3.5 0 
" style="stroke: #000000; stroke-width: 0.8"/>
      </defs>
      <g>
       <use xlink:href="#m5ec6dc4fb6" x="69.744696" y="529.039499" style="stroke: #000000; stroke-width: 0.8"/>
      </g>
     </g>
     <g id="text_8">
      <!-- $\mathdefault{0}$ -->
      <g transform="translate(52.1066 535.957997) scale(0.2 -0.2)">
       <use xlink:href="#CMR17-30" transform="scale(0.996264)"/>
      </g>
     </g>
    </g>
    <g id="ytick_2">
     <g id="line2d_13">
      <path d="M 69.744696 433.423499 
L 263.831652 433.423499 
" clip-path="url(#p29de8503a1)" style="fill: none; stroke: #b0b0b0; stroke-width: 0.8; stroke-linecap: square"/>
     </g>
     <g id="line2d_14">
      <g>
       <use xlink:href="#m5ec6dc4fb6" x="69.744696" y="433.423499" style="stroke: #000000; stroke-width: 0.8"/>
      </g>
     </g>
     <g id="text_9">
      <!-- $\mathdefault{1}$ -->
      <g transform="translate(52.1066 440.341997) scale(0.2 -0.2)">
       <use xlink:href="#CMR17-31" transform="scale(0.996264)"/>
      </g>
     </g>
    </g>
    <g id="ytick_3">
     <g id="line2d_15">
      <path d="M 69.744696 337.807499 
L 263.831652 337.807499 
" clip-path="url(#p29de8503a1)" style="fill: none; stroke: #b0b0b0; stroke-width: 0.8; stroke-linecap: square"/>
     </g>
     <g id="line2d_16">
      <g>
       <use xlink:href="#m5ec6dc4fb6" x="69.744696" y="337.807499" style="stroke: #000000; stroke-width: 0.8"/>
      </g>
     </g>
     <g id="text_10">
      <!-- $\mathdefault{2}$ -->
      <g transform="translate(52.1066 344.725997) scale(0.2 -0.2)">
       <use xlink:href="#CMR17-32" transform="scale(0.996264)"/>
      </g>
     </g>
    </g>
    <g id="ytick_4">
     <g id="line2d_17">
      <path d="M 69.744696 242.191499 
L 263.831652 242.191499 
" clip-path="url(#p29de8503a1)" style="fill: none; stroke: #b0b0b0; stroke-width: 0.8; stroke-linecap: square"/>
     </g>
     <g id="line2d_18">
      <g>
       <use xlink:href="#m5ec6dc4fb6" x="69.744696" y="242.191499" style="stroke: #000000; stroke-width: 0.8"/>
      </g>
     </g>
     <g id="text_11">
      <!-- $\mathdefault{3}$ -->
      <g transform="translate(52.1066 249.109997) scale(0.2 -0.2)">
       <use xlink:href="#CMR17-33" transform="scale(0.996264)"/>
      </g>
     </g>
    </g>
    <g id="ytick_5">
     <g id="line2d_19">
      <path d="M 69.744696 146.575499 
L 263.831652 146.575499 
" clip-path="url(#p29de8503a1)" style="fill: none; stroke: #b0b0b0; stroke-width: 0.8; stroke-linecap: square"/>
     </g>
     <g id="line2d_20">
      <g>
       <use xlink:href="#m5ec6dc4fb6" x="69.744696" y="146.575499" style="stroke: #000000; stroke-width: 0.8"/>
      </g>
     </g>
     <g id="text_12">
      <!-- $\mathdefault{4}$ -->
      <g transform="translate(52.1066 153.493997) scale(0.2 -0.2)">
       <use xlink:href="#CMR17-34" transform="scale(0.996264)"/>
      </g>
     </g>
    </g>
    <g id="ytick_6">
     <g id="line2d_21">
      <path d="M 69.744696 50.959499 
L 263.831652 50.959499 
" clip-path="url(#p29de8503a1)" style="fill: none; stroke: #b0b0b0; stroke-width: 0.8; stroke-linecap: square"/>
     </g>
     <g id="line2d_22">
      <g>
       <use xlink:href="#m5ec6dc4fb6" x="69.744696" y="50.959499" style="stroke: #000000; stroke-width: 0.8"/>
      </g>
     </g>
     <g id="text_13">
      <!-- $\mathdefault{5}$ -->
      <g transform="translate(52.1066 57.877997) scale(0.2 -0.2)">
       <defs>
        <path id="CMR17-35" d="M 730 3692 
C 794 3666 1056 3584 1325 3584 
C 1920 3584 2246 3911 2432 4100 
C 2432 4157 2432 4192 2394 4192 
C 2387 4192 2374 4192 2323 4163 
C 2099 4058 1837 3973 1517 3973 
C 1325 3973 1037 3999 723 4139 
C 653 4171 640 4171 634 4171 
C 602 4171 595 4164 595 4037 
L 595 2203 
C 595 2089 595 2057 659 2057 
C 691 2057 704 2070 736 2114 
C 941 2401 1222 2522 1542 2522 
C 1766 2522 2246 2382 2246 1289 
C 2246 1085 2246 715 2054 421 
C 1894 159 1645 25 1370 25 
C 947 25 518 320 403 814 
C 429 807 480 795 506 795 
C 589 795 749 840 749 1038 
C 749 1210 627 1280 506 1280 
C 358 1280 262 1190 262 1011 
C 262 454 704 -128 1382 -128 
C 2042 -128 2669 440 2669 1264 
C 2669 2030 2170 2624 1549 2624 
C 1222 2624 947 2503 730 2274 
L 730 3692 
z
" transform="scale(0.015625)"/>
       </defs>
       <use xlink:href="#CMR17-35" transform="scale(0.996264)"/>
      </g>
     </g>
    </g>
    <g id="text_14">
     <!-- $y/a$ -->
     <g transform="translate(25.87995 308.889682) rotate(-90) scale(0.25 -0.25)">
      <defs>
       <path id="CMMI12-79" d="M 1683 -700 
C 1510 -939 1261 -1152 947 -1152 
C 870 -1152 563 -1152 467 -889 
C 486 -895 518 -895 531 -895 
C 723 -895 851 -729 851 -582 
C 851 -435 730 -384 634 -384 
C 531 -384 307 -458 307 -759 
C 307 -1071 582 -1286 947 -1286 
C 1587 -1286 2234 -700 2413 6 
L 3040 2485 
C 3046 2517 3059 2556 3059 2594 
C 3059 2689 2982 2753 2886 2753 
C 2829 2753 2694 2727 2643 2535 
L 2170 658 
C 2138 543 2138 530 2086 460 
C 1958 281 1747 64 1440 64 
C 1082 64 1050 415 1050 588 
C 1050 952 1222 1443 1395 1903 
C 1466 2088 1504 2178 1504 2305 
C 1504 2574 1312 2816 998 2816 
C 410 2816 173 1890 173 1839 
C 173 1814 198 1782 243 1782 
C 301 1782 307 1807 333 1897 
C 486 2433 730 2689 979 2689 
C 1037 2689 1146 2689 1146 2478 
C 1146 2312 1075 2127 979 1884 
C 666 1047 666 837 666 683 
C 666 77 1101 -64 1421 -64 
C 1606 -64 1837 -6 2061 230 
L 2067 224 
C 1971 -147 1907 -392 1683 -700 
z
" transform="scale(0.015625)"/>
       <path id="CMMI12-3d" d="M 2746 4562 
C 2746 4569 2784 4666 2784 4678 
C 2784 4755 2720 4800 2669 4800 
C 2637 4800 2579 4800 2528 4659 
L 384 -1363 
C 384 -1370 346 -1465 346 -1478 
C 346 -1555 410 -1600 461 -1600 
C 499 -1600 557 -1593 602 -1459 
L 2746 4562 
z
" transform="scale(0.015625)"/>
       <path id="CMMI12-61" d="M 1926 760 
C 1894 651 1894 639 1805 517 
C 1664 338 1382 64 1082 64 
C 819 64 672 300 672 677 
C 672 1028 870 1743 992 2012 
C 1210 2459 1510 2689 1760 2689 
C 2182 2689 2266 2165 2266 2114 
C 2266 2108 2246 2024 2240 2012 
L 1926 760 
z
M 2336 2395 
C 2266 2561 2093 2816 1760 2816 
C 1037 2816 256 1884 256 939 
C 256 307 627 -64 1062 -64 
C 1414 -64 1715 211 1894 422 
C 1958 45 2259 -64 2451 -64 
C 2643 -64 2797 51 2912 281 
C 3014 498 3104 888 3104 913 
C 3104 945 3078 971 3040 971 
C 2982 971 2976 939 2950 843 
C 2854 466 2733 64 2470 64 
C 2285 64 2272 230 2272 358 
C 2272 505 2291 575 2349 824 
C 2394 984 2426 1124 2477 1309 
C 2714 2267 2771 2497 2771 2535 
C 2771 2625 2701 2695 2605 2695 
C 2400 2695 2349 2472 2336 2395 
z
" transform="scale(0.015625)"/>
      </defs>
      <use xlink:href="#CMMI12-79" transform="scale(0.996264)"/>
      <use xlink:href="#CMMI12-3d" transform="translate(51.138781 0) scale(0.996264)"/>
      <use xlink:href="#CMMI12-61" transform="translate(99.913699 0) scale(0.996264)"/>
     </g>
    </g>
    <g id="text_15">
     <!-- $\times\mathdefault{10^{−2}}\mathdefault{}$ -->
     <g transform="translate(69.744696 47.959499) scale(0.2 -0.2)">
      <use xlink:href="#CMSY10-2" transform="scale(0.996264)"/>
      <use xlink:href="#CMR17-31" transform="translate(77.487468 0) scale(0.996264)"/>
      <use xlink:href="#CMR17-30" transform="translate(123.177945 0) scale(0.996264)"/>
      <use xlink:href="#CMSY10-0" transform="translate(168.868422 36.153639) scale(0.697382)"/>
      <use xlink:href="#CMR17-32" transform="translate(223.109415 36.153639) scale(0.697382)"/>
     </g>
    </g>
   </g>
   <g id="line2d_23">
    <path d="M 69.744696 529.039499 
L 69.744696 528.893661 
L 71.028064 528.382279 
L 75.096782 527.738067 
L 75.467112 527.626734 
L 76.47724 527.38709 
L 77.054222 527.258209 
L 77.107872 527.122884 
L 77.510665 526.980792 
L 77.491611 526.831596 
L 77.809487 526.674939 
L 77.794587 526.51045 
L 78.097198 526.337737 
L 78.133885 526.156388 
L 78.460122 525.965971 
L 78.566463 525.766034 
L 79.495268 525.104216 
L 79.724062 524.861191 
L 80.865764 524.056748 
L 81.992747 523.125504 
L 83.368059 522.047473 
L 84.743481 520.799517 
L 86.339996 519.354852 
L 91.649225 513.505333 
L 92.983746 511.818246 
L 94.366782 509.958232 
L 95.794468 507.907567 
L 97.261471 505.646709 
L 98.760772 503.154114 
L 100.283438 500.406027 
L 101.818375 497.376261 
L 103.352073 494.035944 
L 104.868329 490.353244 
L 106.347951 486.293068 
L 107.100352 484.109486 
L 109.103667 476.881554 
L 109.761446 474.227396 
L 110.909956 468.514321 
L 111.889681 462.215655 
L 112.659257 455.271376 
L 113.172557 447.615308 
L 113.378874 439.174494 
L 113.223553 429.868496 
L 112.649361 419.608633 
L 111.599091 408.297134 
L 110.019946 395.826207 
L 107.87041 382.077009 
L 105.130487 366.918519 
L 101.816143 350.206283 
L 93.823501 311.467217 
L 91.671799 300.542342 
L 89.532757 289.071223 
L 87.445454 277.026549 
L 85.458394 264.37964 
L 83.623571 251.100386 
L 81.978677 237.15717 
L 80.568799 222.516792 
L 79.40444 207.144396 
L 78.499359 191.00338 
L 77.825924 174.055313 
L 77.359324 156.259842 
L 77.049852 137.574599 
L 76.752167 97.354611 
L 76.712463 78.60675 
L 76.712463 78.60675 
" clip-path="url(#p29de8503a1)" style="fill: none; stroke: #000000; stroke-width: 1.2; stroke-linecap: square"/>
   </g>
   <g id="PathCollection_1">
    <defs>
     <path id="m7acd87ded2" d="M -6.123724 0 
L 6.123724 0 
M 0 6.123724 
L 0 -6.123724 
" style="stroke: #000000; stroke-width: 1.2"/>
    </defs>
    <g clip-path="url(#p29de8503a1)">
     <use xlink:href="#m7acd87ded2" x="101.544024" y="527.330961" style="stroke: #000000; stroke-width: 1.2"/>
     <use xlink:href="#m7acd87ded2" x="97.073352" y="526.46116" style="stroke: #000000; stroke-width: 1.2"/>
     <use xlink:href="#m7acd87ded2" x="103.195886" y="525.622423" style="stroke: #000000; stroke-width: 1.2"/>
     <use xlink:href="#m7acd87ded2" x="103.460026" y="524.37985" style="stroke: #000000; stroke-width: 1.2"/>
     <use xlink:href="#m7acd87ded2" x="108.671867" y="523.44792" style="stroke: #000000; stroke-width: 1.2"/>
     <use xlink:href="#m7acd87ded2" x="111.632603" y="522.205347" style="stroke: #000000; stroke-width: 1.2"/>
     <use xlink:href="#m7acd87ded2" x="115.338451" y="520.341487" style="stroke: #000000; stroke-width: 1.2"/>
     <use xlink:href="#m7acd87ded2" x="111.206825" y="518.788271" style="stroke: #000000; stroke-width: 1.2"/>
     <use xlink:href="#m7acd87ded2" x="132.956998" y="516.924411" style="stroke: #000000; stroke-width: 1.2"/>
     <use xlink:href="#m7acd87ded2" x="120.34923" y="515.371195" style="stroke: #000000; stroke-width: 1.2"/>
     <use xlink:href="#m7acd87ded2" x="123.507086" y="513.507335" style="stroke: #000000; stroke-width: 1.2"/>
     <use xlink:href="#m7acd87ded2" x="131.640239" y="511.643475" style="stroke: #000000; stroke-width: 1.2"/>
     <use xlink:href="#m7acd87ded2" x="146.846042" y="508.537043" style="stroke: #000000; stroke-width: 1.2"/>
     <use xlink:href="#m7acd87ded2" x="119.024587" y="501.70289" style="stroke: #000000; stroke-width: 1.2"/>
     <use xlink:href="#m7acd87ded2" x="108.95572" y="494.868738" style="stroke: #000000; stroke-width: 1.2"/>
     <use xlink:href="#m7acd87ded2" x="118.251878" y="488.034586" style="stroke: #000000; stroke-width: 1.2"/>
     <use xlink:href="#m7acd87ded2" x="133.808554" y="473.123709" style="stroke: #000000; stroke-width: 1.2"/>
     <use xlink:href="#m7acd87ded2" x="124.953943" y="460.697978" style="stroke: #000000; stroke-width: 1.2"/>
     <use xlink:href="#m7acd87ded2" x="121.330886" y="443.612598" style="stroke: #000000; stroke-width: 1.2"/>
     <use xlink:href="#m7acd87ded2" x="118.886603" y="428.080434" style="stroke: #000000; stroke-width: 1.2"/>
     <use xlink:href="#m7acd87ded2" x="115.768172" y="412.548271" style="stroke: #000000; stroke-width: 1.2"/>
     <use xlink:href="#m7acd87ded2" x="148.47425" y="397.016107" style="stroke: #000000; stroke-width: 1.2"/>
     <use xlink:href="#m7acd87ded2" x="143.95627" y="334.887452" style="stroke: #000000; stroke-width: 1.2"/>
     <use xlink:href="#m7acd87ded2" x="136.765348" y="305.376341" style="stroke: #000000; stroke-width: 1.2"/>
     <use xlink:href="#m7acd87ded2" x="132.13698" y="274.312013" style="stroke: #000000; stroke-width: 1.2"/>
     <use xlink:href="#m7acd87ded2" x="119.249303" y="212.183358" style="stroke: #000000; stroke-width: 1.2"/>
     <use xlink:href="#m7acd87ded2" x="114.38045" y="150.054703" style="stroke: #000000; stroke-width: 1.2"/>
     <use xlink:href="#m7acd87ded2" x="114.707668" y="75.500317" style="stroke: #000000; stroke-width: 1.2"/>
    </g>
   </g>
   <g id="patch_3">
    <path d="M 69.744696 529.039499 
L 69.744696 50.959499 
" style="fill: none; stroke: #000000; stroke-width: 0.8; stroke-linejoin: miter; stroke-linecap: square"/>
   </g>
   <g id="patch_4">
    <path d="M 263.831652 529.039499 
L 263.831652 50.959499 
" style="fill: none; stroke: #000000; stroke-width: 0.8; stroke-linejoin: miter; stroke-linecap: square"/>
   </g>
   <g id="patch_5">
    <path d="M 69.744696 529.039499 
L 263.831652 529.039499 
" style="fill: none; stroke: #000000; stroke-width: 0.8; stroke-linejoin: miter; stroke-linecap: square"/>
   </g>
   <g id="patch_6">
    <path d="M 69.744696 50.959499 
L 263.831652 50.959499 
" style="fill: none; stroke: #000000; stroke-width: 0.8; stroke-linejoin: miter; stroke-linecap: square"/>
   </g>
   <g id="text_16">
    <!-- $\omega t = 0\:\unit{\degree}$ -->
    <g transform="translate(117.3923 27.955495) scale(0.3 -0.3)">
     <defs>
      <path id="CMMI12-21" d="M 3802 2395 
C 3802 2580 3750 2816 3526 2816 
C 3398 2816 3251 2657 3251 2529 
C 3251 2472 3277 2434 3328 2376 
C 3424 2268 3546 2096 3546 1797 
C 3546 1567 3405 1204 3302 1007 
C 3123 656 2829 357 2496 357 
C 2093 357 1939 615 1869 975 
C 1939 1143 2086 1560 2086 1728 
C 2086 1798 2061 1856 1978 1856 
C 1933 1856 1882 1831 1850 1779 
C 1760 1638 1677 1129 1683 994 
C 1562 756 1216 357 806 357 
C 378 357 262 733 262 1096 
C 262 1758 678 2338 794 2497 
C 858 2593 902 2657 902 2669 
C 902 2714 877 2784 819 2784 
C 717 2784 685 2701 634 2625 
C 307 2121 77 1414 77 803 
C 77 408 224 -64 704 -64 
C 1235 -64 1568 391 1702 634 
C 1754 275 1946 -64 2413 -64 
C 2899 -64 3206 363 3437 879 
C 3603 1249 3802 2045 3802 2395 
z
" transform="scale(0.015625)"/>
      <path id="CMMI12-74" d="M 1286 2566 
L 1875 2566 
C 1997 2566 2061 2566 2061 2681 
C 2061 2752 2022 2752 1894 2752 
L 1331 2752 
L 1568 3692 
C 1594 3781 1594 3794 1594 3840 
C 1594 3943 1510 4000 1427 4000 
C 1376 4000 1229 3981 1178 3775 
L 928 2752 
L 326 2752 
C 198 2752 141 2752 141 2630 
C 141 2566 186 2566 307 2566 
L 877 2566 
L 454 881 
C 403 658 384 594 384 511 
C 384 211 595 -64 954 -64 
C 1600 -64 1946 868 1946 912 
C 1946 951 1920 970 1882 970 
C 1869 970 1843 970 1830 944 
C 1824 938 1818 931 1773 829 
C 1638 511 1344 64 973 64 
C 781 64 768 224 768 364 
C 768 370 768 492 787 568 
L 1286 2566 
z
" transform="scale(0.015625)"/>
      <path id="CMR17-3d" d="M 4115 2017 
C 4211 2017 4307 2017 4307 2125 
C 4307 2240 4198 2240 4090 2240 
L 512 2240 
C 403 2240 294 2240 294 2125 
C 294 2017 390 2017 486 2017 
L 4115 2017 
z
M 4090 896 
C 4198 896 4307 896 4307 1011 
C 4307 1119 4211 1119 4115 1119 
L 486 1119 
C 390 1119 294 1119 294 1011 
C 294 896 403 896 512 896 
L 4090 896 
z
" transform="scale(0.015625)"/>
      <path id="CMSY10-e" d="M 2842 1600 
C 2842 2277 2272 2828 1600 2828 
C 909 2828 352 2264 352 1600 
C 352 930 909 372 1600 372 
C 2272 372 2842 923 2842 1600 
z
M 1600 628 
C 1043 628 608 1070 608 1600 
C 608 2130 1050 2572 1600 2572 
C 2131 2572 2586 2142 2586 1600 
C 2586 1058 2131 628 1600 628 
z
" transform="scale(0.015625)"/>
     </defs>
     <use xlink:href="#CMMI12-21" transform="scale(0.996264)"/>
     <use xlink:href="#CMMI12-74" transform="translate(64.318346 0) scale(0.996264)"/>
     <use xlink:href="#CMR17-3d" transform="translate(127.218685 0) scale(0.996264)"/>
     <use xlink:href="#CMR17-30" transform="translate(226.607482 0) scale(0.996264)"/>
     <use xlink:href="#CMSY10-e" transform="translate(294.437166 36.153639) scale(0.697382)"/>
    </g>
   </g>
  </g>
  <g id="axes_2">
   <g id="patch_7">
    <path d="M 302.649043 529.039499 
L 496.736 529.039499 
L 496.736 50.959499 
L 302.649043 50.959499 
z
" style="fill: #ffffff"/>
   </g>
   <g id="matplotlib.axis_3">
    <g id="xtick_6">
     <g id="line2d_24">
      <path d="M 302.649043 529.039499 
L 302.649043 50.959499 
" clip-path="url(#p9c732f606e)" style="fill: none; stroke: #b0b0b0; stroke-width: 0.8; stroke-linecap: square"/>
     </g>
     <g id="line2d_25">
      <g>
       <use xlink:href="#mbe98ea1a94" x="302.649043" y="529.039499" style="stroke: #000000; stroke-width: 0.8"/>
      </g>
     </g>
     <g id="text_17">
      <!-- $\mathdefault{0}$ -->
      <g transform="translate(298.079996 551.376495) scale(0.2 -0.2)">
       <use xlink:href="#CMR17-30" transform="scale(0.996264)"/>
      </g>
     </g>
    </g>
    <g id="xtick_7">
     <g id="line2d_26">
      <path d="M 351.170783 529.039499 
L 351.170783 50.959499 
" clip-path="url(#p9c732f606e)" style="fill: none; stroke: #b0b0b0; stroke-width: 0.8; stroke-linecap: square"/>
     </g>
     <g id="line2d_27">
      <g>
       <use xlink:href="#mbe98ea1a94" x="351.170783" y="529.039499" style="stroke: #000000; stroke-width: 0.8"/>
      </g>
     </g>
     <g id="text_18">
      <!-- $\mathdefault{2}$ -->
      <g transform="translate(346.601735 551.376495) scale(0.2 -0.2)">
       <use xlink:href="#CMR17-32" transform="scale(0.996264)"/>
      </g>
     </g>
    </g>
    <g id="xtick_8">
     <g id="line2d_28">
      <path d="M 399.692522 529.039499 
L 399.692522 50.959499 
" clip-path="url(#p9c732f606e)" style="fill: none; stroke: #b0b0b0; stroke-width: 0.8; stroke-linecap: square"/>
     </g>
     <g id="line2d_29">
      <g>
       <use xlink:href="#mbe98ea1a94" x="399.692522" y="529.039499" style="stroke: #000000; stroke-width: 0.8"/>
      </g>
     </g>
     <g id="text_19">
      <!-- $\mathdefault{4}$ -->
      <g transform="translate(395.123474 551.376495) scale(0.2 -0.2)">
       <use xlink:href="#CMR17-34" transform="scale(0.996264)"/>
      </g>
     </g>
    </g>
    <g id="xtick_9">
     <g id="line2d_30">
      <path d="M 448.214261 529.039499 
L 448.214261 50.959499 
" clip-path="url(#p9c732f606e)" style="fill: none; stroke: #b0b0b0; stroke-width: 0.8; stroke-linecap: square"/>
     </g>
     <g id="line2d_31">
      <g>
       <use xlink:href="#mbe98ea1a94" x="448.214261" y="529.039499" style="stroke: #000000; stroke-width: 0.8"/>
      </g>
     </g>
     <g id="text_20">
      <!-- $\mathdefault{6}$ -->
      <g transform="translate(443.645213 551.376495) scale(0.2 -0.2)">
       <use xlink:href="#CMR17-36" transform="scale(0.996264)"/>
      </g>
     </g>
    </g>
    <g id="xtick_10">
     <g id="line2d_32">
      <path d="M 496.736 529.039499 
L 496.736 50.959499 
" clip-path="url(#p9c732f606e)" style="fill: none; stroke: #b0b0b0; stroke-width: 0.8; stroke-linecap: square"/>
     </g>
     <g id="line2d_33">
      <g>
       <use xlink:href="#mbe98ea1a94" x="496.736" y="529.039499" style="stroke: #000000; stroke-width: 0.8"/>
      </g>
     </g>
     <g id="text_21">
      <!-- $\mathdefault{8}$ -->
      <g transform="translate(492.166952 551.376495) scale(0.2 -0.2)">
       <use xlink:href="#CMR17-38" transform="scale(0.996264)"/>
      </g>
     </g>
    </g>
    <g id="text_22">
     <!-- $\frac{k}{U_{0m}^2}$ -->
     <g transform="translate(378.465004 608.122852) scale(0.375 -0.375)">
      <use xlink:href="#CMMI12-6b" transform="translate(37.264008 39.226102) scale(0.697382)"/>
      <use xlink:href="#CMMI12-55" transform="translate(0 -34.355253) scale(0.697382)"/>
      <use xlink:href="#CMR17-32" transform="translate(53.660908 -14.20868) scale(0.498132)"/>
      <use xlink:href="#CMR17-30" transform="translate(46.376275 -51.595716) scale(0.498132)"/>
      <use xlink:href="#CMMI12-6d" transform="translate(69.221514 -51.595716) scale(0.498132)"/>
      <path d="M 0 24.410885 
L 112.38325 24.410885 
L 112.38325 25.40233 
L 0 25.40233 
L 0 24.410885 
z
"/>
     </g>
    </g>
    <g id="text_23">
     <!-- $\times\mathdefault{10^{−3}}\mathdefault{}$ -->
     <g transform="translate(445.285674 572.256133) scale(0.2 -0.2)">
      <use xlink:href="#CMSY10-2" transform="scale(0.996264)"/>
      <use xlink:href="#CMR17-31" transform="translate(77.487468 0) scale(0.996264)"/>
      <use xlink:href="#CMR17-30" transform="translate(123.177945 0) scale(0.996264)"/>
      <use xlink:href="#CMSY10-0" transform="translate(168.868422 36.153639) scale(0.697382)"/>
      <use xlink:href="#CMR17-33" transform="translate(223.109415 36.153639) scale(0.697382)"/>
     </g>
    </g>
   </g>
   <g id="matplotlib.axis_4">
    <g id="ytick_7">
     <g id="line2d_34">
      <path d="M 302.649043 529.039499 
L 496.736 529.039499 
" clip-path="url(#p9c732f606e)" style="fill: none; stroke: #b0b0b0; stroke-width: 0.8; stroke-linecap: square"/>
     </g>
     <g id="line2d_35">
      <g>
       <use xlink:href="#m5ec6dc4fb6" x="302.649043" y="529.039499" style="stroke: #000000; stroke-width: 0.8"/>
      </g>
     </g>
    </g>
    <g id="ytick_8">
     <g id="line2d_36">
      <path d="M 302.649043 433.423499 
L 496.736 433.423499 
" clip-path="url(#p9c732f606e)" style="fill: none; stroke: #b0b0b0; stroke-width: 0.8; stroke-linecap: square"/>
     </g>
     <g id="line2d_37">
      <g>
       <use xlink:href="#m5ec6dc4fb6" x="302.649043" y="433.423499" style="stroke: #000000; stroke-width: 0.8"/>
      </g>
     </g>
    </g>
    <g id="ytick_9">
     <g id="line2d_38">
      <path d="M 302.649043 337.807499 
L 496.736 337.807499 
" clip-path="url(#p9c732f606e)" style="fill: none; stroke: #b0b0b0; stroke-width: 0.8; stroke-linecap: square"/>
     </g>
     <g id="line2d_39">
      <g>
       <use xlink:href="#m5ec6dc4fb6" x="302.649043" y="337.807499" style="stroke: #000000; stroke-width: 0.8"/>
      </g>
     </g>
    </g>
    <g id="ytick_10">
     <g id="line2d_40">
      <path d="M 302.649043 242.191499 
L 496.736 242.191499 
" clip-path="url(#p9c732f606e)" style="fill: none; stroke: #b0b0b0; stroke-width: 0.8; stroke-linecap: square"/>
     </g>
     <g id="line2d_41">
      <g>
       <use xlink:href="#m5ec6dc4fb6" x="302.649043" y="242.191499" style="stroke: #000000; stroke-width: 0.8"/>
      </g>
     </g>
    </g>
    <g id="ytick_11">
     <g id="line2d_42">
      <path d="M 302.649043 146.575499 
L 496.736 146.575499 
" clip-path="url(#p9c732f606e)" style="fill: none; stroke: #b0b0b0; stroke-width: 0.8; stroke-linecap: square"/>
     </g>
     <g id="line2d_43">
      <g>
       <use xlink:href="#m5ec6dc4fb6" x="302.649043" y="146.575499" style="stroke: #000000; stroke-width: 0.8"/>
      </g>
     </g>
    </g>
    <g id="ytick_12">
     <g id="line2d_44">
      <path d="M 302.649043 50.959499 
L 496.736 50.959499 
" clip-path="url(#p9c732f606e)" style="fill: none; stroke: #b0b0b0; stroke-width: 0.8; stroke-linecap: square"/>
     </g>
     <g id="line2d_45">
      <g>
       <use xlink:href="#m5ec6dc4fb6" x="302.649043" y="50.959499" style="stroke: #000000; stroke-width: 0.8"/>
      </g>
     </g>
    </g>
   </g>
   <g id="line2d_46">
    <path d="M 302.649043 529.039499 
L 302.660511 528.993238 
L 303.60187 528.944664 
L 306.823365 528.893661 
L 371.66737 528.662841 
L 423.916516 528.457633 
L 428.010899 528.303157 
L 417.937575 527.844098 
L 416.709803 527.738067 
L 410.492969 527.38709 
L 409.611664 527.258209 
L 406.713718 526.980792 
L 404.1117 526.674939 
L 402.329434 526.51045 
L 401.71045 526.337737 
L 400.038363 526.156388 
L 399.433321 525.965971 
L 397.835843 525.766034 
L 397.220308 525.5561 
L 395.669514 525.335669 
L 395.024398 525.104216 
L 393.498097 524.861191 
L 392.808097 524.606015 
L 391.288287 524.33808 
L 390.540666 524.056748 
L 389.012358 523.761349 
L 388.196058 523.451181 
L 386.646441 523.125504 
L 385.751461 522.783543 
L 384.169322 522.424484 
L 383.186309 522.047473 
L 381.561661 521.65161 
L 380.481657 521.235955 
L 378.805547 520.799517 
L 377.619894 520.341257 
L 375.884372 519.860084 
L 374.584746 519.354852 
L 372.782998 518.824358 
L 371.361618 518.26734 
L 369.488295 517.682472 
L 367.938336 517.068359 
L 365.990139 516.423541 
L 360.463223 514.289113 
L 356.414629 512.682364 
L 352.179472 510.910922 
L 347.795015 508.957908 
L 343.323954 506.80471 
L 338.861991 504.430809 
L 334.543433 501.813583 
L 330.539252 498.928092 
L 328.920578 497.376261 
L 327.039828 495.746838 
L 325.779836 494.035944 
L 324.21668 492.239505 
L 323.368946 490.353244 
L 322.173585 488.372671 
L 321.739875 486.293068 
L 320.910352 484.109486 
L 320.843324 481.816724 
L 320.334463 479.409324 
L 320.559921 476.881554 
L 320.306865 474.227396 
L 320.749935 471.44053 
L 320.68903 468.514321 
L 321.287073 465.441801 
L 321.364148 462.215655 
L 322.068141 458.828202 
L 322.238806 455.271376 
L 323.009466 451.536709 
L 323.236158 447.615308 
L 324.039524 443.497838 
L 324.288363 439.174494 
L 325.092391 434.634983 
L 325.330795 429.868496 
L 326.103173 424.863685 
L 326.298386 419.608633 
L 327.005409 414.090829 
L 327.12388 408.297134 
L 327.730193 402.213755 
L 327.737693 395.826207 
L 328.206774 389.119281 
L 328.069209 382.077009 
L 328.364536 374.682624 
L 328.049484 366.918519 
L 328.136413 358.766209 
L 327.615518 350.206283 
L 327.464118 341.218362 
L 326.716556 331.781044 
L 326.305651 321.87186 
L 325.323084 311.467217 
L 324.645948 300.542342 
L 323.439185 289.071223 
L 322.511029 277.026549 
L 321.118334 264.37964 
L 319.985222 251.100386 
L 318.481127 237.15717 
L 317.228491 222.516792 
L 315.729859 207.144396 
L 313.148996 174.055313 
L 312.077462 156.259842 
L 311.075691 137.574599 
L 310.347901 117.955093 
L 309.830569 97.354611 
L 309.62223 78.60675 
L 309.62223 78.60675 
" clip-path="url(#p9c732f606e)" style="fill: none; stroke: #000000; stroke-width: 1.2; stroke-linecap: square"/>
   </g>
   <g id="PathCollection_2">
    <g clip-path="url(#p9c732f606e)">
     <use xlink:href="#m7acd87ded2" x="378.961912" y="527.330961" style="stroke: #000000; stroke-width: 1.2"/>
     <use xlink:href="#m7acd87ded2" x="369.468634" y="526.46116" style="stroke: #000000; stroke-width: 1.2"/>
     <use xlink:href="#m7acd87ded2" x="372.228308" y="525.622423" style="stroke: #000000; stroke-width: 1.2"/>
     <use xlink:href="#m7acd87ded2" x="371.782817" y="524.37985" style="stroke: #000000; stroke-width: 1.2"/>
     <use xlink:href="#m7acd87ded2" x="369.878642" y="523.44792" style="stroke: #000000; stroke-width: 1.2"/>
     <use xlink:href="#m7acd87ded2" x="373.142942" y="522.205347" style="stroke: #000000; stroke-width: 1.2"/>
     <use xlink:href="#m7acd87ded2" x="373.142942" y="520.341487" style="stroke: #000000; stroke-width: 1.2"/>
     <use xlink:href="#m7acd87ded2" x="369.425267" y="518.788271" style="stroke: #000000; stroke-width: 1.2"/>
     <use xlink:href="#m7acd87ded2" x="364.911229" y="516.924411" style="stroke: #000000; stroke-width: 1.2"/>
     <use xlink:href="#m7acd87ded2" x="362.297424" y="515.371195" style="stroke: #000000; stroke-width: 1.2"/>
     <use xlink:href="#m7acd87ded2" x="364.032076" y="513.507335" style="stroke: #000000; stroke-width: 1.2"/>
     <use xlink:href="#m7acd87ded2" x="367.150508" y="511.643475" style="stroke: #000000; stroke-width: 1.2"/>
     <use xlink:href="#m7acd87ded2" x="353.525603" y="508.537043" style="stroke: #000000; stroke-width: 1.2"/>
     <use xlink:href="#m7acd87ded2" x="341.166207" y="501.70289" style="stroke: #000000; stroke-width: 1.2"/>
     <use xlink:href="#m7acd87ded2" x="335.465509" y="494.868738" style="stroke: #000000; stroke-width: 1.2"/>
     <use xlink:href="#m7acd87ded2" x="333.573161" y="488.034586" style="stroke: #000000; stroke-width: 1.2"/>
     <use xlink:href="#m7acd87ded2" x="331.452154" y="473.123709" style="stroke: #000000; stroke-width: 1.2"/>
     <use xlink:href="#m7acd87ded2" x="330.864738" y="460.697978" style="stroke: #000000; stroke-width: 1.2"/>
     <use xlink:href="#m7acd87ded2" x="332.97786" y="443.612598" style="stroke: #000000; stroke-width: 1.2"/>
     <use xlink:href="#m7acd87ded2" x="340.322535" y="428.080434" style="stroke: #000000; stroke-width: 1.2"/>
     <use xlink:href="#m7acd87ded2" x="340.890239" y="412.548271" style="stroke: #000000; stroke-width: 1.2"/>
     <use xlink:href="#m7acd87ded2" x="342.743163" y="397.016107" style="stroke: #000000; stroke-width: 1.2"/>
     <use xlink:href="#m7acd87ded2" x="342.881147" y="334.887452" style="stroke: #000000; stroke-width: 1.2"/>
     <use xlink:href="#m7acd87ded2" x="346.685554" y="305.376341" style="stroke: #000000; stroke-width: 1.2"/>
     <use xlink:href="#m7acd87ded2" x="340.011086" y="274.312013" style="stroke: #000000; stroke-width: 1.2"/>
     <use xlink:href="#m7acd87ded2" x="338.130565" y="212.183358" style="stroke: #000000; stroke-width: 1.2"/>
     <use xlink:href="#m7acd87ded2" x="330.379824" y="150.054703" style="stroke: #000000; stroke-width: 1.2"/>
     <use xlink:href="#m7acd87ded2" x="326.307334" y="75.500317" style="stroke: #000000; stroke-width: 1.2"/>
    </g>
   </g>
   <g id="patch_8">
    <path d="M 302.649043 529.039499 
L 302.649043 50.959499 
" style="fill: none; stroke: #000000; stroke-width: 0.8; stroke-linejoin: miter; stroke-linecap: square"/>
   </g>
   <g id="patch_9">
    <path d="M 496.736 529.039499 
L 496.736 50.959499 
" style="fill: none; stroke: #000000; stroke-width: 0.8; stroke-linejoin: miter; stroke-linecap: square"/>
   </g>
   <g id="patch_10">
    <path d="M 302.649043 529.039499 
L 496.736 529.039499 
" style="fill: none; stroke: #000000; stroke-width: 0.8; stroke-linejoin: miter; stroke-linecap: square"/>
   </g>
   <g id="patch_11">
    <path d="M 302.649043 50.959499 
L 496.736 50.959499 
" style="fill: none; stroke: #000000; stroke-width: 0.8; stroke-linejoin: miter; stroke-linecap: square"/>
   </g>
   <g id="text_24">
    <!-- $45\:\unit{\degree}$ -->
    <g transform="translate(377.43414 28.959499) scale(0.3 -0.3)">
     <use xlink:href="#CMR17-34" transform="scale(0.996264)"/>
     <use xlink:href="#CMR17-35" transform="translate(45.690477 0) scale(0.996264)"/>
     <use xlink:href="#CMSY10-e" transform="translate(113.520161 36.153639) scale(0.697382)"/>
    </g>
   </g>
  </g>
  <g id="axes_3">
   <g id="patch_12">
    <path d="M 535.553391 529.039499 
L 729.640348 529.039499 
L 729.640348 50.959499 
L 535.553391 50.959499 
z
" style="fill: #ffffff"/>
   </g>
   <g id="matplotlib.axis_5">
    <g id="xtick_11">
     <g id="line2d_47">
      <path d="M 535.553391 529.039499 
L 535.553391 50.959499 
" clip-path="url(#p372143f35b)" style="fill: none; stroke: #b0b0b0; stroke-width: 0.8; stroke-linecap: square"/>
     </g>
     <g id="line2d_48">
      <g>
       <use xlink:href="#mbe98ea1a94" x="535.553391" y="529.039499" style="stroke: #000000; stroke-width: 0.8"/>
      </g>
     </g>
     <g id="text_25">
      <!-- $\mathdefault{0}$ -->
      <g transform="translate(530.984344 551.376495) scale(0.2 -0.2)">
       <use xlink:href="#CMR17-30" transform="scale(0.996264)"/>
      </g>
     </g>
    </g>
    <g id="xtick_12">
     <g id="line2d_49">
      <path d="M 584.07513 529.039499 
L 584.07513 50.959499 
" clip-path="url(#p372143f35b)" style="fill: none; stroke: #b0b0b0; stroke-width: 0.8; stroke-linecap: square"/>
     </g>
     <g id="line2d_50">
      <g>
       <use xlink:href="#mbe98ea1a94" x="584.07513" y="529.039499" style="stroke: #000000; stroke-width: 0.8"/>
      </g>
     </g>
     <g id="text_26">
      <!-- $\mathdefault{2}$ -->
      <g transform="translate(579.506083 551.376495) scale(0.2 -0.2)">
       <use xlink:href="#CMR17-32" transform="scale(0.996264)"/>
      </g>
     </g>
    </g>
    <g id="xtick_13">
     <g id="line2d_51">
      <path d="M 632.59687 529.039499 
L 632.59687 50.959499 
" clip-path="url(#p372143f35b)" style="fill: none; stroke: #b0b0b0; stroke-width: 0.8; stroke-linecap: square"/>
     </g>
     <g id="line2d_52">
      <g>
       <use xlink:href="#mbe98ea1a94" x="632.59687" y="529.039499" style="stroke: #000000; stroke-width: 0.8"/>
      </g>
     </g>
     <g id="text_27">
      <!-- $\mathdefault{4}$ -->
      <g transform="translate(628.027822 551.376495) scale(0.2 -0.2)">
       <use xlink:href="#CMR17-34" transform="scale(0.996264)"/>
      </g>
     </g>
    </g>
    <g id="xtick_14">
     <g id="line2d_53">
      <path d="M 681.118609 529.039499 
L 681.118609 50.959499 
" clip-path="url(#p372143f35b)" style="fill: none; stroke: #b0b0b0; stroke-width: 0.8; stroke-linecap: square"/>
     </g>
     <g id="line2d_54">
      <g>
       <use xlink:href="#mbe98ea1a94" x="681.118609" y="529.039499" style="stroke: #000000; stroke-width: 0.8"/>
      </g>
     </g>
     <g id="text_28">
      <!-- $\mathdefault{6}$ -->
      <g transform="translate(676.549561 551.376495) scale(0.2 -0.2)">
       <use xlink:href="#CMR17-36" transform="scale(0.996264)"/>
      </g>
     </g>
    </g>
    <g id="xtick_15">
     <g id="line2d_55">
      <path d="M 729.640348 529.039499 
L 729.640348 50.959499 
" clip-path="url(#p372143f35b)" style="fill: none; stroke: #b0b0b0; stroke-width: 0.8; stroke-linecap: square"/>
     </g>
     <g id="line2d_56">
      <g>
       <use xlink:href="#mbe98ea1a94" x="729.640348" y="529.039499" style="stroke: #000000; stroke-width: 0.8"/>
      </g>
     </g>
     <g id="text_29">
      <!-- $\mathdefault{8}$ -->
      <g transform="translate(725.0713 551.376495) scale(0.2 -0.2)">
       <use xlink:href="#CMR17-38" transform="scale(0.996264)"/>
      </g>
     </g>
    </g>
    <g id="text_30">
     <!-- $\frac{k}{U_{0m}^2}$ -->
     <g transform="translate(611.369352 608.122852) scale(0.375 -0.375)">
      <use xlink:href="#CMMI12-6b" transform="translate(37.264008 39.226102) scale(0.697382)"/>
      <use xlink:href="#CMMI12-55" transform="translate(0 -34.355253) scale(0.697382)"/>
      <use xlink:href="#CMR17-32" transform="translate(53.660908 -14.20868) scale(0.498132)"/>
      <use xlink:href="#CMR17-30" transform="translate(46.376275 -51.595716) scale(0.498132)"/>
      <use xlink:href="#CMMI12-6d" transform="translate(69.221514 -51.595716) scale(0.498132)"/>
      <path d="M 0 24.410885 
L 112.38325 24.410885 
L 112.38325 25.40233 
L 0 25.40233 
L 0 24.410885 
z
"/>
     </g>
    </g>
    <g id="text_31">
     <!-- $\times\mathdefault{10^{−3}}\mathdefault{}$ -->
     <g transform="translate(678.190022 572.256133) scale(0.2 -0.2)">
      <use xlink:href="#CMSY10-2" transform="scale(0.996264)"/>
      <use xlink:href="#CMR17-31" transform="translate(77.487468 0) scale(0.996264)"/>
      <use xlink:href="#CMR17-30" transform="translate(123.177945 0) scale(0.996264)"/>
      <use xlink:href="#CMSY10-0" transform="translate(168.868422 36.153639) scale(0.697382)"/>
      <use xlink:href="#CMR17-33" transform="translate(223.109415 36.153639) scale(0.697382)"/>
     </g>
    </g>
   </g>
   <g id="matplotlib.axis_6">
    <g id="ytick_13">
     <g id="line2d_57">
      <path d="M 535.553391 529.039499 
L 729.640348 529.039499 
" clip-path="url(#p372143f35b)" style="fill: none; stroke: #b0b0b0; stroke-width: 0.8; stroke-linecap: square"/>
     </g>
     <g id="line2d_58">
      <g>
       <use xlink:href="#m5ec6dc4fb6" x="535.553391" y="529.039499" style="stroke: #000000; stroke-width: 0.8"/>
      </g>
     </g>
    </g>
    <g id="ytick_14">
     <g id="line2d_59">
      <path d="M 535.553391 433.423499 
L 729.640348 433.423499 
" clip-path="url(#p372143f35b)" style="fill: none; stroke: #b0b0b0; stroke-width: 0.8; stroke-linecap: square"/>
     </g>
     <g id="line2d_60">
      <g>
       <use xlink:href="#m5ec6dc4fb6" x="535.553391" y="433.423499" style="stroke: #000000; stroke-width: 0.8"/>
      </g>
     </g>
    </g>
    <g id="ytick_15">
     <g id="line2d_61">
      <path d="M 535.553391 337.807499 
L 729.640348 337.807499 
" clip-path="url(#p372143f35b)" style="fill: none; stroke: #b0b0b0; stroke-width: 0.8; stroke-linecap: square"/>
     </g>
     <g id="line2d_62">
      <g>
       <use xlink:href="#m5ec6dc4fb6" x="535.553391" y="337.807499" style="stroke: #000000; stroke-width: 0.8"/>
      </g>
     </g>
    </g>
    <g id="ytick_16">
     <g id="line2d_63">
      <path d="M 535.553391 242.191499 
L 729.640348 242.191499 
" clip-path="url(#p372143f35b)" style="fill: none; stroke: #b0b0b0; stroke-width: 0.8; stroke-linecap: square"/>
     </g>
     <g id="line2d_64">
      <g>
       <use xlink:href="#m5ec6dc4fb6" x="535.553391" y="242.191499" style="stroke: #000000; stroke-width: 0.8"/>
      </g>
     </g>
    </g>
    <g id="ytick_17">
     <g id="line2d_65">
      <path d="M 535.553391 146.575499 
L 729.640348 146.575499 
" clip-path="url(#p372143f35b)" style="fill: none; stroke: #b0b0b0; stroke-width: 0.8; stroke-linecap: square"/>
     </g>
     <g id="line2d_66">
      <g>
       <use xlink:href="#m5ec6dc4fb6" x="535.553391" y="146.575499" style="stroke: #000000; stroke-width: 0.8"/>
      </g>
     </g>
    </g>
    <g id="ytick_18">
     <g id="line2d_67">
      <path d="M 535.553391 50.959499 
L 729.640348 50.959499 
" clip-path="url(#p372143f35b)" style="fill: none; stroke: #b0b0b0; stroke-width: 0.8; stroke-linecap: square"/>
     </g>
     <g id="line2d_68">
      <g>
       <use xlink:href="#m5ec6dc4fb6" x="535.553391" y="50.959499" style="stroke: #000000; stroke-width: 0.8"/>
      </g>
     </g>
    </g>
   </g>
   <g id="line2d_69">
    <path d="M 535.553391 529.039499 
L 535.573603 528.993238 
L 537.194518 528.944664 
L 542.872577 528.893661 
L 704.822615 528.457633 
L 703.260427 528.382279 
L 704.04818 528.303157 
L 694.428021 528.041253 
L 693.528265 527.94508 
L 689.054139 527.738067 
L 685.475939 527.509835 
L 682.67684 527.38709 
L 682.620212 527.258209 
L 680.200845 527.122884 
L 680.299041 526.980792 
L 678.165866 526.831596 
L 678.359823 526.674939 
L 676.441537 526.51045 
L 676.688856 526.337737 
L 674.932523 526.156388 
L 675.203513 525.965971 
L 673.569773 525.766034 
L 673.843566 525.5561 
L 672.302676 525.335669 
L 672.564263 525.104216 
L 671.09319 524.861191 
L 671.331336 524.606015 
L 669.911691 524.33808 
L 670.117526 524.056748 
L 668.734121 523.761349 
L 668.900192 523.451181 
L 667.540032 523.125504 
L 667.659654 522.783543 
L 666.31122 522.424484 
L 666.378046 522.047473 
L 665.030773 521.65161 
L 665.038477 521.235955 
L 663.682373 520.799517 
L 663.624432 520.341257 
L 662.249779 519.860084 
L 662.119297 519.354852 
L 660.716447 518.824358 
L 660.506026 518.26734 
L 659.065215 517.682472 
L 658.766844 517.068359 
L 657.278056 516.423541 
L 656.883018 515.746482 
L 655.335861 515.035571 
L 654.834656 514.289113 
L 653.218274 513.505333 
L 652.600545 512.682364 
L 650.90355 511.818246 
L 650.15803 510.910922 
L 648.368456 509.958232 
L 647.482919 508.957908 
L 645.588208 507.907567 
L 644.54946 506.80471 
L 642.536484 505.646709 
L 641.33039 504.430809 
L 639.185585 503.154114 
L 637.797313 501.813583 
L 635.507003 500.406027 
L 633.921355 498.928092 
L 631.472038 497.376261 
L 629.673735 495.746838 
L 627.053031 494.035944 
L 625.027268 492.239505 
L 622.224915 490.353244 
L 619.958974 488.372671 
L 616.968348 486.293068 
L 614.453501 484.109486 
L 611.274161 481.816724 
L 608.508279 479.409324 
L 605.14953 476.881554 
L 602.141326 474.227396 
L 598.627182 471.44053 
L 595.401945 468.514321 
L 591.777737 465.441801 
L 584.725224 458.828202 
L 577.663685 451.536709 
L 574.223183 447.615308 
L 570.868432 443.497838 
L 567.629735 439.174494 
L 564.687911 434.634983 
L 561.840031 429.868496 
L 559.49413 424.863685 
L 557.206847 419.608633 
L 553.936029 408.297134 
L 551.983809 395.826207 
L 551.658664 389.119281 
L 551.079788 382.077009 
L 551.152314 374.682624 
L 550.861528 366.918519 
L 551.147209 358.766209 
L 550.991543 350.206283 
L 551.339668 341.218362 
L 551.199022 331.781044 
L 551.494091 321.87186 
L 551.279663 311.467217 
L 551.436253 300.542342 
L 551.087111 289.071223 
L 551.04666 277.026549 
L 550.528965 264.37964 
L 550.260627 251.100386 
L 549.570727 237.15717 
L 549.07711 222.516792 
L 548.249162 207.144396 
L 547.577676 191.00338 
L 546.695678 174.055313 
L 545.166558 137.574599 
L 544.544823 117.955093 
L 544.060305 97.354611 
L 543.847941 78.60675 
L 543.847941 78.60675 
" clip-path="url(#p372143f35b)" style="fill: none; stroke: #000000; stroke-width: 1.2; stroke-linecap: square"/>
   </g>
   <g id="PathCollection_3">
    <g clip-path="url(#p372143f35b)">
     <use xlink:href="#m7acd87ded2" x="650.375538" y="527.330961" style="stroke: #000000; stroke-width: 1.2"/>
     <use xlink:href="#m7acd87ded2" x="650.868337" y="526.46116" style="stroke: #000000; stroke-width: 1.2"/>
     <use xlink:href="#m7acd87ded2" x="649.385998" y="525.622423" style="stroke: #000000; stroke-width: 1.2"/>
     <use xlink:href="#m7acd87ded2" x="647.643461" y="524.37985" style="stroke: #000000; stroke-width: 1.2"/>
     <use xlink:href="#m7acd87ded2" x="654.176003" y="523.44792" style="stroke: #000000; stroke-width: 1.2"/>
     <use xlink:href="#m7acd87ded2" x="673.418815" y="522.205347" style="stroke: #000000; stroke-width: 1.2"/>
     <use xlink:href="#m7acd87ded2" x="673.418815" y="520.341487" style="stroke: #000000; stroke-width: 1.2"/>
     <use xlink:href="#m7acd87ded2" x="664.627283" y="518.788271" style="stroke: #000000; stroke-width: 1.2"/>
     <use xlink:href="#m7acd87ded2" x="661.307789" y="516.924411" style="stroke: #000000; stroke-width: 1.2"/>
     <use xlink:href="#m7acd87ded2" x="664.90325" y="515.371195" style="stroke: #000000; stroke-width: 1.2"/>
     <use xlink:href="#m7acd87ded2" x="663.003017" y="513.507335" style="stroke: #000000; stroke-width: 1.2"/>
     <use xlink:href="#m7acd87ded2" x="661.118554" y="511.643475" style="stroke: #000000; stroke-width: 1.2"/>
     <use xlink:href="#m7acd87ded2" x="651.215267" y="508.537043" style="stroke: #000000; stroke-width: 1.2"/>
     <use xlink:href="#m7acd87ded2" x="650.612082" y="501.70289" style="stroke: #000000; stroke-width: 1.2"/>
     <use xlink:href="#m7acd87ded2" x="645.254372" y="494.868738" style="stroke: #000000; stroke-width: 1.2"/>
     <use xlink:href="#m7acd87ded2" x="640.61812" y="488.034586" style="stroke: #000000; stroke-width: 1.2"/>
     <use xlink:href="#m7acd87ded2" x="614.85065" y="473.123709" style="stroke: #000000; stroke-width: 1.2"/>
     <use xlink:href="#m7acd87ded2" x="597.06258" y="460.697978" style="stroke: #000000; stroke-width: 1.2"/>
     <use xlink:href="#m7acd87ded2" x="577.579283" y="443.612598" style="stroke: #000000; stroke-width: 1.2"/>
     <use xlink:href="#m7acd87ded2" x="566.812612" y="428.080434" style="stroke: #000000; stroke-width: 1.2"/>
     <use xlink:href="#m7acd87ded2" x="557.37847" y="412.548271" style="stroke: #000000; stroke-width: 1.2"/>
     <use xlink:href="#m7acd87ded2" x="552.320382" y="397.016107" style="stroke: #000000; stroke-width: 1.2"/>
     <use xlink:href="#m7acd87ded2" x="555.5492" y="334.887452" style="stroke: #000000; stroke-width: 1.2"/>
     <use xlink:href="#m7acd87ded2" x="554.338886" y="305.376341" style="stroke: #000000; stroke-width: 1.2"/>
     <use xlink:href="#m7acd87ded2" x="555.651702" y="274.312013" style="stroke: #000000; stroke-width: 1.2"/>
     <use xlink:href="#m7acd87ded2" x="555.111595" y="212.183358" style="stroke: #000000; stroke-width: 1.2"/>
     <use xlink:href="#m7acd87ded2" x="549.371473" y="150.054703" style="stroke: #000000; stroke-width: 1.2"/>
     <use xlink:href="#m7acd87ded2" x="546.154482" y="75.500317" style="stroke: #000000; stroke-width: 1.2"/>
    </g>
   </g>
   <g id="patch_13">
    <path d="M 535.553391 529.039499 
L 535.553391 50.959499 
" style="fill: none; stroke: #000000; stroke-width: 0.8; stroke-linejoin: miter; stroke-linecap: square"/>
   </g>
   <g id="patch_14">
    <path d="M 729.640348 529.039499 
L 729.640348 50.959499 
" style="fill: none; stroke: #000000; stroke-width: 0.8; stroke-linejoin: miter; stroke-linecap: square"/>
   </g>
   <g id="patch_15">
    <path d="M 535.553391 529.039499 
L 729.640348 529.039499 
" style="fill: none; stroke: #000000; stroke-width: 0.8; stroke-linejoin: miter; stroke-linecap: square"/>
   </g>
   <g id="patch_16">
    <path d="M 535.553391 50.959499 
L 729.640348 50.959499 
" style="fill: none; stroke: #000000; stroke-width: 0.8; stroke-linejoin: miter; stroke-linecap: square"/>
   </g>
   <g id="text_32">
    <!-- $90\:\unit{\degree}$ -->
    <g transform="translate(610.338488 28.959499) scale(0.3 -0.3)">
     <defs>
      <path id="CMR17-39" d="M 2253 1864 
C 2253 464 1670 31 1190 31 
C 1043 31 685 31 538 294 
C 704 268 826 357 826 518 
C 826 692 685 749 595 749 
C 538 749 365 723 365 506 
C 365 71 742 -128 1203 -128 
C 1939 -128 2688 674 2688 2073 
C 2688 3817 1971 4179 1485 4179 
C 851 4179 243 3628 243 2778 
C 243 1991 762 1408 1414 1408 
C 1952 1408 2189 1903 2253 2112 
L 2253 1864 
z
M 1427 1510 
C 1254 1510 1011 1542 813 1922 
C 678 2169 678 2461 678 2771 
C 678 3146 678 3405 858 3684 
C 947 3817 1114 4032 1485 4032 
C 2240 4032 2240 2885 2240 2632 
C 2240 2182 2035 1510 1427 1510 
z
" transform="scale(0.015625)"/>
     </defs>
     <use xlink:href="#CMR17-39" transform="scale(0.996264)"/>
     <use xlink:href="#CMR17-30" transform="translate(45.690477 0) scale(0.996264)"/>
     <use xlink:href="#CMSY10-e" transform="translate(113.520161 36.153639) scale(0.697382)"/>
    </g>
   </g>
  </g>
  <g id="axes_4">
   <g id="patch_17">
    <path d="M 768.457739 529.039499 
L 962.544696 529.039499 
L 962.544696 50.959499 
L 768.457739 50.959499 
z
" style="fill: #ffffff"/>
   </g>
   <g id="matplotlib.axis_7">
    <g id="xtick_16">
     <g id="line2d_70">
      <path d="M 768.457739 529.039499 
L 768.457739 50.959499 
" clip-path="url(#p3cd6b6729a)" style="fill: none; stroke: #b0b0b0; stroke-width: 0.8; stroke-linecap: square"/>
     </g>
     <g id="line2d_71">
      <g>
       <use xlink:href="#mbe98ea1a94" x="768.457739" y="529.039499" style="stroke: #000000; stroke-width: 0.8"/>
      </g>
     </g>
     <g id="text_33">
      <!-- $\mathdefault{0}$ -->
      <g transform="translate(763.888691 551.376495) scale(0.2 -0.2)">
       <use xlink:href="#CMR17-30" transform="scale(0.996264)"/>
      </g>
     </g>
    </g>
    <g id="xtick_17">
     <g id="line2d_72">
      <path d="M 816.979478 529.039499 
L 816.979478 50.959499 
" clip-path="url(#p3cd6b6729a)" style="fill: none; stroke: #b0b0b0; stroke-width: 0.8; stroke-linecap: square"/>
     </g>
     <g id="line2d_73">
      <g>
       <use xlink:href="#mbe98ea1a94" x="816.979478" y="529.039499" style="stroke: #000000; stroke-width: 0.8"/>
      </g>
     </g>
     <g id="text_34">
      <!-- $\mathdefault{2}$ -->
      <g transform="translate(812.410431 551.376495) scale(0.2 -0.2)">
       <use xlink:href="#CMR17-32" transform="scale(0.996264)"/>
      </g>
     </g>
    </g>
    <g id="xtick_18">
     <g id="line2d_74">
      <path d="M 865.501217 529.039499 
L 865.501217 50.959499 
" clip-path="url(#p3cd6b6729a)" style="fill: none; stroke: #b0b0b0; stroke-width: 0.8; stroke-linecap: square"/>
     </g>
     <g id="line2d_75">
      <g>
       <use xlink:href="#mbe98ea1a94" x="865.501217" y="529.039499" style="stroke: #000000; stroke-width: 0.8"/>
      </g>
     </g>
     <g id="text_35">
      <!-- $\mathdefault{4}$ -->
      <g transform="translate(860.93217 551.376495) scale(0.2 -0.2)">
       <use xlink:href="#CMR17-34" transform="scale(0.996264)"/>
      </g>
     </g>
    </g>
    <g id="xtick_19">
     <g id="line2d_76">
      <path d="M 914.022957 529.039499 
L 914.022957 50.959499 
" clip-path="url(#p3cd6b6729a)" style="fill: none; stroke: #b0b0b0; stroke-width: 0.8; stroke-linecap: square"/>
     </g>
     <g id="line2d_77">
      <g>
       <use xlink:href="#mbe98ea1a94" x="914.022957" y="529.039499" style="stroke: #000000; stroke-width: 0.8"/>
      </g>
     </g>
     <g id="text_36">
      <!-- $\mathdefault{6}$ -->
      <g transform="translate(909.453909 551.376495) scale(0.2 -0.2)">
       <use xlink:href="#CMR17-36" transform="scale(0.996264)"/>
      </g>
     </g>
    </g>
    <g id="xtick_20">
     <g id="line2d_78">
      <path d="M 962.544696 529.039499 
L 962.544696 50.959499 
" clip-path="url(#p3cd6b6729a)" style="fill: none; stroke: #b0b0b0; stroke-width: 0.8; stroke-linecap: square"/>
     </g>
     <g id="line2d_79">
      <g>
       <use xlink:href="#mbe98ea1a94" x="962.544696" y="529.039499" style="stroke: #000000; stroke-width: 0.8"/>
      </g>
     </g>
     <g id="text_37">
      <!-- $\mathdefault{8}$ -->
      <g transform="translate(957.975648 551.376495) scale(0.2 -0.2)">
       <use xlink:href="#CMR17-38" transform="scale(0.996264)"/>
      </g>
     </g>
    </g>
    <g id="text_38">
     <!-- $\frac{k}{U_{0m}^2}$ -->
     <g transform="translate(844.273699 608.122852) scale(0.375 -0.375)">
      <use xlink:href="#CMMI12-6b" transform="translate(37.264008 39.226102) scale(0.697382)"/>
      <use xlink:href="#CMMI12-55" transform="translate(0 -34.355253) scale(0.697382)"/>
      <use xlink:href="#CMR17-32" transform="translate(53.660908 -14.20868) scale(0.498132)"/>
      <use xlink:href="#CMR17-30" transform="translate(46.376275 -51.595716) scale(0.498132)"/>
      <use xlink:href="#CMMI12-6d" transform="translate(69.221514 -51.595716) scale(0.498132)"/>
      <path d="M 0 24.410885 
L 112.38325 24.410885 
L 112.38325 25.40233 
L 0 25.40233 
L 0 24.410885 
z
"/>
     </g>
    </g>
    <g id="text_39">
     <!-- $\times\mathdefault{10^{−3}}\mathdefault{}$ -->
     <g transform="translate(911.09437 572.256133) scale(0.2 -0.2)">
      <use xlink:href="#CMSY10-2" transform="scale(0.996264)"/>
      <use xlink:href="#CMR17-31" transform="translate(77.487468 0) scale(0.996264)"/>
      <use xlink:href="#CMR17-30" transform="translate(123.177945 0) scale(0.996264)"/>
      <use xlink:href="#CMSY10-0" transform="translate(168.868422 36.153639) scale(0.697382)"/>
      <use xlink:href="#CMR17-33" transform="translate(223.109415 36.153639) scale(0.697382)"/>
     </g>
    </g>
   </g>
   <g id="matplotlib.axis_8">
    <g id="ytick_19">
     <g id="line2d_80">
      <path d="M 768.457739 529.039499 
L 962.544696 529.039499 
" clip-path="url(#p3cd6b6729a)" style="fill: none; stroke: #b0b0b0; stroke-width: 0.8; stroke-linecap: square"/>
     </g>
     <g id="line2d_81">
      <g>
       <use xlink:href="#m5ec6dc4fb6" x="768.457739" y="529.039499" style="stroke: #000000; stroke-width: 0.8"/>
      </g>
     </g>
    </g>
    <g id="ytick_20">
     <g id="line2d_82">
      <path d="M 768.457739 433.423499 
L 962.544696 433.423499 
" clip-path="url(#p3cd6b6729a)" style="fill: none; stroke: #b0b0b0; stroke-width: 0.8; stroke-linecap: square"/>
     </g>
     <g id="line2d_83">
      <g>
       <use xlink:href="#m5ec6dc4fb6" x="768.457739" y="433.423499" style="stroke: #000000; stroke-width: 0.8"/>
      </g>
     </g>
    </g>
    <g id="ytick_21">
     <g id="line2d_84">
      <path d="M 768.457739 337.807499 
L 962.544696 337.807499 
" clip-path="url(#p3cd6b6729a)" style="fill: none; stroke: #b0b0b0; stroke-width: 0.8; stroke-linecap: square"/>
     </g>
     <g id="line2d_85">
      <g>
       <use xlink:href="#m5ec6dc4fb6" x="768.457739" y="337.807499" style="stroke: #000000; stroke-width: 0.8"/>
      </g>
     </g>
    </g>
    <g id="ytick_22">
     <g id="line2d_86">
      <path d="M 768.457739 242.191499 
L 962.544696 242.191499 
" clip-path="url(#p3cd6b6729a)" style="fill: none; stroke: #b0b0b0; stroke-width: 0.8; stroke-linecap: square"/>
     </g>
     <g id="line2d_87">
      <g>
       <use xlink:href="#m5ec6dc4fb6" x="768.457739" y="242.191499" style="stroke: #000000; stroke-width: 0.8"/>
      </g>
     </g>
    </g>
    <g id="ytick_23">
     <g id="line2d_88">
      <path d="M 768.457739 146.575499 
L 962.544696 146.575499 
" clip-path="url(#p3cd6b6729a)" style="fill: none; stroke: #b0b0b0; stroke-width: 0.8; stroke-linecap: square"/>
     </g>
     <g id="line2d_89">
      <g>
       <use xlink:href="#m5ec6dc4fb6" x="768.457739" y="146.575499" style="stroke: #000000; stroke-width: 0.8"/>
      </g>
     </g>
    </g>
    <g id="ytick_24">
     <g id="line2d_90">
      <path d="M 768.457739 50.959499 
L 962.544696 50.959499 
" clip-path="url(#p3cd6b6729a)" style="fill: none; stroke: #b0b0b0; stroke-width: 0.8; stroke-linecap: square"/>
     </g>
     <g id="line2d_91">
      <g>
       <use xlink:href="#m5ec6dc4fb6" x="768.457739" y="50.959499" style="stroke: #000000; stroke-width: 0.8"/>
      </g>
     </g>
    </g>
   </g>
   <g id="line2d_92">
    <path d="M 768.457739 529.039499 
L 768.460591 528.993238 
L 769.738711 528.893661 
L 811.580451 528.597747 
L 844.887449 528.303157 
L 845.103675 528.220078 
L 847.356896 528.132846 
L 845.898072 528.041253 
L 846.744674 527.94508 
L 844.842026 527.844098 
L 845.275383 527.738067 
L 843.419616 527.626734 
L 843.813426 527.509835 
L 842.166717 527.38709 
L 842.638419 527.258209 
L 841.22911 527.122884 
L 841.797825 526.980792 
L 840.606075 526.831596 
L 841.258319 526.674939 
L 840.251679 526.51045 
L 840.967075 526.337737 
L 840.113904 526.156388 
L 840.874015 525.965971 
L 840.147539 525.766034 
L 840.938005 525.5561 
L 840.316746 525.335669 
L 841.127049 525.104216 
L 840.594051 524.861191 
L 841.416649 524.606015 
L 840.958472 524.33808 
L 841.787913 524.056748 
L 841.393729 523.761349 
L 842.225931 523.451181 
L 841.886788 523.125504 
L 842.718497 522.783543 
L 842.426758 522.424484 
L 843.255155 522.047473 
L 843.004066 521.65161 
L 843.826483 521.235955 
L 843.609848 520.799517 
L 844.423559 520.341257 
L 844.235482 519.860084 
L 845.037542 519.354852 
L 844.872228 518.824358 
L 845.659348 518.26734 
L 845.510929 517.682472 
L 846.279369 517.068359 
L 846.141761 516.423541 
L 846.887234 515.746482 
L 846.754006 515.035571 
L 847.471583 514.289113 
L 847.335838 513.505333 
L 848.019856 512.682364 
L 847.87411 511.818246 
L 848.51808 510.910922 
L 848.354146 509.958232 
L 848.950645 508.957908 
L 848.759516 507.907567 
L 849.300085 506.80471 
L 849.071816 505.646709 
L 849.546843 504.430809 
L 849.270423 503.154114 
L 849.669022 501.813583 
L 849.332256 500.406027 
L 849.642145 498.928092 
L 849.231532 497.376261 
L 849.438905 495.746838 
L 848.939526 494.035944 
L 849.028944 492.239505 
L 848.424374 490.353244 
L 848.378668 488.372671 
L 847.650916 486.293068 
L 847.45114 484.109486 
L 846.580676 481.816724 
L 846.206147 479.409324 
L 845.172044 476.881554 
L 844.600521 474.227396 
L 843.380768 471.44053 
L 842.588836 468.514321 
L 841.16091 465.441801 
L 840.124683 462.215655 
L 838.466537 458.828202 
L 837.162849 455.271376 
L 835.254495 451.536709 
L 833.662813 447.615308 
L 831.488788 443.497838 
L 829.594179 439.174494 
L 827.14725 434.634983 
L 824.944805 429.868496 
L 822.231344 424.863685 
L 819.732518 419.608633 
L 816.77994 414.090829 
L 814.02111 408.297134 
L 810.88737 402.213755 
L 801.706783 382.077009 
L 798.556575 374.682624 
L 795.636612 366.918519 
L 792.745898 358.766209 
L 790.130644 350.206283 
L 787.711272 341.218362 
L 785.602892 331.781044 
L 783.820024 321.87186 
L 782.337108 311.467217 
L 781.224423 300.542342 
L 780.330803 289.071223 
L 779.755911 277.026549 
L 779.275248 264.37964 
L 778.726672 237.15717 
L 778.118164 191.00338 
L 777.312935 137.574599 
L 776.881445 97.354611 
L 776.792792 78.60675 
L 776.792792 78.60675 
" clip-path="url(#p3cd6b6729a)" style="fill: none; stroke: #000000; stroke-width: 1.2; stroke-linecap: square"/>
   </g>
   <g id="PathCollection_4">
    <g clip-path="url(#p3cd6b6729a)">
     <use xlink:href="#m7acd87ded2" x="855.288908" y="527.330961" style="stroke: #000000; stroke-width: 1.2"/>
     <use xlink:href="#m7acd87ded2" x="857.496647" y="526.46116" style="stroke: #000000; stroke-width: 1.2"/>
     <use xlink:href="#m7acd87ded2" x="858.158968" y="525.622423" style="stroke: #000000; stroke-width: 1.2"/>
     <use xlink:href="#m7acd87ded2" x="868.346108" y="524.37985" style="stroke: #000000; stroke-width: 1.2"/>
     <use xlink:href="#m7acd87ded2" x="860.063143" y="523.44792" style="stroke: #000000; stroke-width: 1.2"/>
     <use xlink:href="#m7acd87ded2" x="868.803425" y="522.205347" style="stroke: #000000; stroke-width: 1.2"/>
     <use xlink:href="#m7acd87ded2" x="870.273937" y="520.341487" style="stroke: #000000; stroke-width: 1.2"/>
     <use xlink:href="#m7acd87ded2" x="871.63012" y="518.788271" style="stroke: #000000; stroke-width: 1.2"/>
     <use xlink:href="#m7acd87ded2" x="874.764321" y="516.924411" style="stroke: #000000; stroke-width: 1.2"/>
     <use xlink:href="#m7acd87ded2" x="876.045598" y="515.371195" style="stroke: #000000; stroke-width: 1.2"/>
     <use xlink:href="#m7acd87ded2" x="879.554326" y="513.507335" style="stroke: #000000; stroke-width: 1.2"/>
     <use xlink:href="#m7acd87ded2" x="875.414815" y="511.643475" style="stroke: #000000; stroke-width: 1.2"/>
     <use xlink:href="#m7acd87ded2" x="886.796499" y="508.537043" style="stroke: #000000; stroke-width: 1.2"/>
     <use xlink:href="#m7acd87ded2" x="921.284538" y="501.70289" style="stroke: #000000; stroke-width: 1.2"/>
     <use xlink:href="#m7acd87ded2" x="921.808876" y="494.868738" style="stroke: #000000; stroke-width: 1.2"/>
     <use xlink:href="#m7acd87ded2" x="907.565016" y="488.034586" style="stroke: #000000; stroke-width: 1.2"/>
     <use xlink:href="#m7acd87ded2" x="901.903742" y="473.123709" style="stroke: #000000; stroke-width: 1.2"/>
     <use xlink:href="#m7acd87ded2" x="896.668247" y="460.697978" style="stroke: #000000; stroke-width: 1.2"/>
     <use xlink:href="#m7acd87ded2" x="910.896337" y="443.612598" style="stroke: #000000; stroke-width: 1.2"/>
     <use xlink:href="#m7acd87ded2" x="892.110842" y="428.080434" style="stroke: #000000; stroke-width: 1.2"/>
     <use xlink:href="#m7acd87ded2" x="881.848798" y="412.548271" style="stroke: #000000; stroke-width: 1.2"/>
     <use xlink:href="#m7acd87ded2" x="878.186316" y="397.016107" style="stroke: #000000; stroke-width: 1.2"/>
     <use xlink:href="#m7acd87ded2" x="853.223095" y="334.887452" style="stroke: #000000; stroke-width: 1.2"/>
     <use xlink:href="#m7acd87ded2" x="844.94013" y="305.376341" style="stroke: #000000; stroke-width: 1.2"/>
     <use xlink:href="#m7acd87ded2" x="821.735215" y="274.312013" style="stroke: #000000; stroke-width: 1.2"/>
     <use xlink:href="#m7acd87ded2" x="813.84649" y="212.183358" style="stroke: #000000; stroke-width: 1.2"/>
     <use xlink:href="#m7acd87ded2" x="807.21933" y="150.054703" style="stroke: #000000; stroke-width: 1.2"/>
     <use xlink:href="#m7acd87ded2" x="812.316842" y="75.500317" style="stroke: #000000; stroke-width: 1.2"/>
    </g>
   </g>
   <g id="patch_18">
    <path d="M 768.457739 529.039499 
L 768.457739 50.959499 
" style="fill: none; stroke: #000000; stroke-width: 0.8; stroke-linejoin: miter; stroke-linecap: square"/>
   </g>
   <g id="patch_19">
    <path d="M 962.544696 529.039499 
L 962.544696 50.959499 
" style="fill: none; stroke: #000000; stroke-width: 0.8; stroke-linejoin: miter; stroke-linecap: square"/>
   </g>
   <g id="patch_20">
    <path d="M 768.457739 529.039499 
L 962.544696 529.039499 
" style="fill: none; stroke: #000000; stroke-width: 0.8; stroke-linejoin: miter; stroke-linecap: square"/>
   </g>
   <g id="patch_21">
    <path d="M 768.457739 50.959499 
L 962.544696 50.959499 
" style="fill: none; stroke: #000000; stroke-width: 0.8; stroke-linejoin: miter; stroke-linecap: square"/>
   </g>
   <g id="text_40">
    <!-- $135\:\unit{\degree}$ -->
    <g transform="translate(836.389264 28.959499) scale(0.3 -0.3)">
     <use xlink:href="#CMR17-31" transform="scale(0.996264)"/>
     <use xlink:href="#CMR17-33" transform="translate(45.690477 0) scale(0.996264)"/>
     <use xlink:href="#CMR17-35" transform="translate(91.380954 0) scale(0.996264)"/>
     <use xlink:href="#CMSY10-e" transform="translate(159.210638 36.153639) scale(0.697382)"/>
    </g>
   </g>
   <g id="legend_1">
    <g id="patch_22">
     <path d="M 986.249043 122.710766 
L 1245.19664 122.710766 
Q 1249.19664 122.710766 1249.19664 118.710766 
L 1249.19664 64.959499 
Q 1249.19664 60.959499 1245.19664 60.959499 
L 986.249043 60.959499 
Q 982.249043 60.959499 982.249043 64.959499 
L 982.249043 118.710766 
Q 982.249043 122.710766 986.249043 122.710766 
z
" style="fill: #ffffff; opacity: 0.8; stroke: #cccccc; stroke-linejoin: miter"/>
    </g>
    <g id="line2d_93">
     <path d="M 990.249043 75.959499 
L 1010.249043 75.959499 
L 1030.249043 75.959499 
" style="fill: none; stroke: #000000; stroke-width: 1.2; stroke-linecap: square"/>
    </g>
    <g id="text_41">
     <!-- Model -->
     <g transform="translate(1046.249043 82.959499) scale(0.2 -0.2)">
      <defs>
       <path id="CMR17-4d" d="M 1338 4224 
C 1299 4320 1293 4320 1158 4320 
L 339 4320 
L 339 4160 
C 781 4160 851 4160 851 3875 
L 851 610 
C 851 451 851 153 339 153 
L 339 -13 
C 486 0 755 0 915 0 
C 1075 0 1344 0 1491 -13 
L 1491 153 
C 979 153 979 451 979 610 
L 979 4135 
L 986 4135 
L 2490 89 
C 2515 25 2528 -13 2579 -13 
C 2630 -13 2643 25 2669 89 
L 4186 4166 
L 4192 4166 
L 4192 438 
C 4192 153 4122 153 3680 153 
L 3680 -13 
C 3853 0 4198 0 4384 0 
C 4570 0 4922 0 5094 -13 
L 5094 153 
C 4653 153 4582 153 4582 438 
L 4582 3875 
C 4582 4160 4653 4160 5094 4160 
L 5094 4320 
L 4282 4320 
C 4147 4320 4141 4314 4102 4218 
L 2720 502 
L 1338 4224 
z
" transform="scale(0.015625)"/>
       <path id="CMR17-6f" d="M 2758 1356 
C 2758 2176 2163 2816 1466 2816 
C 768 2816 173 2176 173 1356 
C 173 551 768 -64 1466 -64 
C 2163 -64 2758 551 2758 1356 
z
M 1466 51 
C 1165 51 909 230 762 480 
C 602 767 582 1126 582 1408 
C 582 1677 595 2010 762 2298 
C 890 2509 1139 2714 1466 2714 
C 1754 2714 1997 2554 2150 2330 
C 2349 2029 2349 1607 2349 1408 
C 2349 1158 2336 775 2163 467 
C 1984 173 1709 51 1466 51 
z
" transform="scale(0.015625)"/>
       <path id="CMR17-64" d="M 1869 4326 
L 1869 4160 
C 2246 4160 2304 4122 2304 3820 
L 2304 2345 
C 2278 2377 2016 2790 1498 2790 
C 845 2790 211 2208 211 1364 
C 211 525 806 -64 1434 -64 
C 1978 -64 2259 337 2291 380 
L 2291 -63 
L 3066 -63 
L 3066 128 
C 2688 128 2630 166 2630 473 
L 2630 4396 
L 1869 4326 
z
M 2291 755 
C 2291 563 2176 390 2029 262 
C 1811 70 1594 38 1472 38 
C 1286 38 621 134 621 1356 
C 621 2612 1363 2688 1530 2688 
C 1824 2688 2061 2522 2208 2291 
C 2291 2157 2291 2138 2291 2023 
L 2291 755 
z
" transform="scale(0.015625)"/>
       <path id="CMR17-65" d="M 2438 1472 
C 2464 1498 2464 1511 2464 1576 
C 2464 2238 2118 2816 1389 2816 
C 710 2816 173 2169 173 1383 
C 173 551 781 -64 1459 -64 
C 2176 -64 2458 607 2458 740 
C 2458 784 2419 784 2406 784 
C 2362 784 2355 771 2330 696 
C 2189 265 1837 51 1504 51 
C 1229 51 954 203 781 480 
C 582 803 582 1176 582 1472 
L 2438 1472 
z
M 589 1568 
C 634 2505 1126 2714 1382 2714 
C 1818 2714 2112 2297 2118 1568 
L 589 1568 
z
" transform="scale(0.015625)"/>
       <path id="CMR17-6c" d="M 979 4396 
L 218 4326 
L 218 4160 
C 595 4160 653 4122 653 3817 
L 653 426 
C 653 184 627 153 218 153 
L 218 -13 
C 371 0 653 0 813 0 
C 979 0 1261 0 1414 -13 
L 1414 153 
C 1005 153 979 178 979 426 
L 979 4396 
z
" transform="scale(0.015625)"/>
      </defs>
      <use xlink:href="#CMR17-4d" transform="scale(0.996264)"/>
      <use xlink:href="#CMR17-6f" transform="translate(84.686941 0) scale(0.996264)"/>
      <use xlink:href="#CMR17-64" transform="translate(132.979856 0) scale(0.996264)"/>
      <use xlink:href="#CMR17-65" transform="translate(183.875226 0) scale(0.996264)"/>
      <use xlink:href="#CMR17-6c" transform="translate(224.360887 0) scale(0.996264)"/>
     </g>
    </g>
    <g id="PathCollection_5">
     <g>
      <use xlink:href="#m7acd87ded2" x="1010.249043" y="105.585132" style="stroke: #000000; stroke-width: 1.2"/>
     </g>
    </g>
    <g id="text_42">
     <!-- Data from Jensen et. al. -->
     <g transform="translate(1046.249043 110.835132) scale(0.2 -0.2)">
      <defs>
       <path id="CMR17-44" d="M 333 4352 
L 333 4186 
C 774 4186 845 4186 845 3900 
L 845 452 
C 845 166 774 166 333 166 
L 333 0 
L 2368 0 
C 3398 0 4224 943 4224 2141 
C 4224 3346 3411 4352 2368 4352 
L 333 4352 
z
M 1523 166 
C 1267 166 1254 197 1254 414 
L 1254 3938 
C 1254 4155 1267 4186 1523 4186 
L 2240 4186 
C 2771 4186 3750 3874 3750 2141 
C 3750 1242 3488 879 3366 707 
C 3213 510 2848 166 2240 166 
L 1523 166 
z
" transform="scale(0.015625)"/>
       <path id="CMR17-61" d="M 2304 1653 
C 2304 2072 2304 2294 2035 2543 
C 1798 2752 1523 2816 1306 2816 
C 800 2816 435 2407 435 1971 
C 435 1728 627 1728 666 1728 
C 749 1728 896 1778 896 1954 
C 896 2112 774 2181 666 2181 
C 640 2181 608 2174 589 2168 
C 723 2592 1069 2714 1293 2714 
C 1613 2714 1965 2429 1965 1885 
L 1965 1600 
C 1587 1600 1133 1549 774 1357 
C 371 1133 256 813 256 570 
C 256 77 832 -64 1171 -64 
C 1523 -64 1850 139 1990 511 
C 2003 233 2182 -18 2464 -18 
C 2598 -18 2938 70 2938 567 
L 2938 920 
L 2822 920 
L 2822 562 
C 2822 178 2650 128 2566 128 
C 2304 128 2304 458 2304 738 
L 2304 1653 
z
M 1965 870 
C 1965 317 1568 38 1216 38 
C 896 38 646 275 646 570 
C 646 761 730 1100 1101 1305 
C 1408 1478 1760 1504 1965 1504 
L 1965 870 
z
" transform="scale(0.015625)"/>
       <path id="CMR17-74" d="M 966 2560 
L 1862 2560 
L 1862 2725 
L 966 2725 
L 966 3904 
L 851 3904 
C 838 3245 614 2668 70 2668 
L 70 2560 
L 627 2560 
L 627 771 
C 627 650 627 -64 1370 -64 
C 1747 -64 1965 306 1965 777 
L 1965 1140 
L 1850 1140 
L 1850 783 
C 1850 344 1677 51 1408 51 
C 1222 51 966 178 966 758 
L 966 2560 
z
" transform="scale(0.015625)"/>
       <path id="CMR17-66" d="M 979 2560 
L 1709 2560 
L 1709 2725 
L 966 2725 
L 966 3494 
C 966 4022 1235 4352 1510 4352 
C 1594 4352 1690 4327 1754 4282 
C 1702 4269 1568 4225 1568 4067 
C 1568 3901 1696 3850 1786 3850 
C 1875 3850 2003 3901 2003 4067 
C 2003 4308 1773 4454 1517 4454 
C 1152 4454 653 4156 653 3481 
L 653 2725 
L 141 2725 
L 141 2560 
L 653 2560 
L 653 427 
C 653 184 627 153 218 153 
L 218 -13 
C 371 0 666 0 832 0 
C 1018 0 1344 0 1517 -13 
L 1517 153 
C 1056 153 979 153 979 439 
L 979 2560 
z
" transform="scale(0.015625)"/>
       <path id="CMR17-72" d="M 960 1497 
C 960 2112 1222 2688 1702 2688 
C 1747 2688 1792 2682 1837 2662 
C 1837 2662 1696 2617 1696 2452 
C 1696 2298 1818 2234 1914 2234 
C 1990 2234 2131 2279 2131 2458 
C 2131 2663 1926 2790 1709 2790 
C 1222 2790 1011 2317 947 2093 
L 941 2093 
L 941 2790 
L 198 2720 
L 198 2554 
C 576 2554 634 2515 634 2208 
L 634 428 
C 634 184 608 153 198 153 
L 198 -13 
C 352 0 646 0 813 0 
C 998 0 1325 0 1498 -13 
L 1498 153 
C 1037 153 960 153 960 440 
L 960 1497 
z
" transform="scale(0.015625)"/>
       <path id="CMR17-6d" d="M 4326 1933 
C 4326 2252 4269 2790 3507 2790 
C 3072 2790 2771 2496 2656 2151 
L 2650 2151 
C 2573 2676 2195 2790 1837 2790 
C 1331 2790 1069 2400 973 2144 
L 966 2144 
L 966 2790 
L 211 2720 
L 211 2554 
C 589 2554 646 2515 646 2208 
L 646 428 
C 646 184 621 153 211 153 
L 211 -13 
C 365 0 646 0 813 0 
C 979 0 1267 0 1421 -13 
L 1421 153 
C 1011 153 986 178 986 428 
L 986 1658 
C 986 2247 1344 2688 1792 2688 
C 2266 2688 2317 2266 2317 1958 
L 2317 428 
C 2317 184 2291 153 1882 153 
L 1882 -13 
C 2035 0 2317 0 2483 0 
C 2650 0 2938 0 3091 -13 
L 3091 153 
C 2682 153 2656 178 2656 428 
L 2656 1658 
C 2656 2247 3014 2688 3462 2688 
C 3936 2688 3987 2266 3987 1958 
L 3987 428 
C 3987 184 3962 153 3552 153 
L 3552 -13 
C 3706 0 3987 0 4154 0 
C 4320 0 4608 0 4762 -13 
L 4762 153 
C 4352 153 4326 178 4326 428 
L 4326 1933 
z
" transform="scale(0.015625)"/>
       <path id="CMR17-4a" d="M 1888 910 
C 1888 324 1568 -26 1242 -26 
C 1075 -26 691 49 525 431 
C 550 425 582 418 608 418 
C 730 418 883 501 883 692 
C 883 845 774 960 614 960 
C 461 960 339 865 339 682 
C 339 258 730 -128 1254 -128 
C 1754 -128 2214 229 2291 764 
C 2298 809 2298 821 2298 1038 
L 2298 3715 
C 2298 3823 2298 4001 2310 4039 
C 2336 4160 2483 4160 2682 4160 
L 2682 4320 
C 2669 4320 2214 4320 2054 4320 
C 1786 4320 1491 4320 1222 4320 
L 1222 4160 
L 1376 4160 
C 1875 4160 1888 4090 1888 3861 
L 1888 910 
z
" transform="scale(0.015625)"/>
       <path id="CMR17-6e" d="M 2656 1933 
C 2656 2259 2592 2790 1837 2790 
C 1331 2790 1069 2400 973 2144 
L 966 2144 
L 966 2790 
L 211 2720 
L 211 2554 
C 589 2554 646 2515 646 2208 
L 646 428 
C 646 184 621 153 211 153 
L 211 -13 
C 365 0 646 0 813 0 
C 979 0 1267 0 1421 -13 
L 1421 153 
C 1011 153 986 178 986 428 
L 986 1658 
C 986 2247 1344 2688 1792 2688 
C 2266 2688 2317 2266 2317 1958 
L 2317 428 
C 2317 184 2291 153 1882 153 
L 1882 -13 
C 2035 0 2317 0 2483 0 
C 2650 0 2938 0 3091 -13 
L 3091 153 
C 2682 153 2656 178 2656 428 
L 2656 1933 
z
" transform="scale(0.015625)"/>
       <path id="CMR17-73" d="M 1978 2697 
C 1978 2813 1971 2819 1933 2819 
C 1907 2819 1901 2813 1824 2717 
C 1805 2691 1747 2626 1728 2601 
C 1523 2819 1235 2819 1126 2819 
C 416 2819 160 2447 160 2076 
C 160 1498 813 1365 998 1325 
C 1402 1243 1542 1217 1677 1101 
C 1760 1025 1901 884 1901 654 
C 1901 384 1747 38 1158 38 
C 602 38 403 460 288 1021 
C 269 1110 269 1117 218 1117 
C 166 1117 160 1110 160 983 
L 160 63 
C 160 -51 166 -58 205 -58 
C 237 -58 243 -51 275 0 
C 314 57 410 211 448 276 
C 576 103 800 -64 1158 -64 
C 1792 -64 2131 283 2131 784 
C 2131 1112 1958 1285 1875 1362 
C 1683 1561 1459 1606 1190 1657 
C 838 1735 390 1825 390 2217 
C 390 2383 480 2737 1126 2737 
C 1811 2737 1850 2094 1862 1888 
C 1869 1856 1901 1849 1920 1849 
C 1978 1849 1978 1869 1978 1978 
L 1978 2697 
z
" transform="scale(0.015625)"/>
       <path id="CMR17-2e" d="M 1062 261 
C 1062 420 934 522 800 522 
C 672 522 538 420 538 261 
C 538 102 666 0 800 0 
C 928 0 1062 102 1062 261 
z
" transform="scale(0.015625)"/>
      </defs>
      <use xlink:href="#CMR17-44" transform="scale(0.996264)"/>
      <use xlink:href="#CMR17-61" transform="translate(70.393556 0) scale(0.996264)"/>
      <use xlink:href="#CMR17-74" transform="translate(116.084033 0) scale(0.996264)"/>
      <use xlink:href="#CMR17-61" transform="translate(151.364801 0) scale(0.996264)"/>
      <use xlink:href="#CMR17-66" transform="translate(227.131244 0) scale(0.996264)"/>
      <use xlink:href="#CMR17-72" transform="translate(254.604757 0) scale(0.996264)"/>
      <use xlink:href="#CMR17-6f" transform="translate(289.885524 0) scale(0.996264)"/>
      <use xlink:href="#CMR17-6d" transform="translate(335.576002 0) scale(0.996264)"/>
      <use xlink:href="#CMR17-4a" transform="translate(442.571558 0) scale(0.996264)"/>
      <use xlink:href="#CMR17-65" transform="translate(489.543348 0) scale(0.996264)"/>
      <use xlink:href="#CMR17-6e" transform="translate(530.029008 0) scale(0.996264)"/>
      <use xlink:href="#CMR17-73" transform="translate(580.924378 0) scale(0.996264)"/>
      <use xlink:href="#CMR17-65" transform="translate(616.725715 0) scale(0.996264)"/>
      <use xlink:href="#CMR17-6e" transform="translate(657.211376 0) scale(0.996264)"/>
      <use xlink:href="#CMR17-65" transform="translate(738.182712 0) scale(0.996264)"/>
      <use xlink:href="#CMR17-74" transform="translate(778.668373 0) scale(0.996264)"/>
      <use xlink:href="#CMR17-2e" transform="translate(813.94914 0) scale(0.996264)"/>
      <use xlink:href="#CMR17-61" transform="translate(879.305859 0) scale(0.996264)"/>
      <use xlink:href="#CMR17-6c" transform="translate(924.996336 0) scale(0.996264)"/>
      <use xlink:href="#CMR17-2e" transform="translate(949.867395 0) scale(0.996264)"/>
     </g>
    </g>
   </g>
  </g>
 </g>
 <defs>
  <clipPath id="p29de8503a1">
   <rect x="69.744696" y="50.959499" width="194.086957" height="478.08"/>
  </clipPath>
  <clipPath id="p9c732f606e">
   <rect x="302.649043" y="50.959499" width="194.086957" height="478.08"/>
  </clipPath>
  <clipPath id="p372143f35b">
   <rect x="535.553391" y="50.959499" width="194.086957" height="478.08"/>
  </clipPath>
  <clipPath id="p3cd6b6729a">
   <rect x="768.457739" y="50.959499" width="194.086957" height="478.08"/>
  </clipPath>
 </defs>
</svg>
