<?xml version="1.0" encoding="utf-8" standalone="no"?>
<!DOCTYPE svg PUBLIC "-//W3C//DTD SVG 1.1//EN"
  "http://www.w3.org/Graphics/SVG/1.1/DTD/svg11.dtd">
<svg xmlns:xlink="http://www.w3.org/1999/xlink" width="993.440322pt" height="591.758921pt" viewBox="0 0 993.440322 591.758921" xmlns="http://www.w3.org/2000/svg" version="1.1">
 <metadata>
  <rdf:RDF xmlns:dc="http://purl.org/dc/elements/1.1/" xmlns:cc="http://creativecommons.org/ns#" xmlns:rdf="http://www.w3.org/1999/02/22-rdf-syntax-ns#">
   <cc:Work>
    <dc:type rdf:resource="http://purl.org/dc/dcmitype/StillImage"/>
    <dc:date>2024-10-22T14:46:31.947451</dc:date>
    <dc:format>image/svg+xml</dc:format>
    <dc:creator>
     <cc:Agent>
      <dc:title>Matplotlib v3.8.4, https://matplotlib.org/</dc:title>
     </cc:Agent>
    </dc:creator>
   </cc:Work>
  </rdf:RDF>
 </metadata>
 <defs>
  <style type="text/css">*{stroke-linejoin: round; stroke-linecap: butt}</style>
 </defs>
 <g id="figure_1">
  <g id="patch_1">
   <path d="M 0 591.758921 
L 993.440322 591.758921 
L 993.440322 0 
L 0 0 
z
" style="fill: #ffffff"/>
  </g>
  <g id="axes_1">
   <g id="patch_2">
    <path d="M 93.440322 485.28 
L 986.240322 485.28 
L 986.240322 7.2 
L 93.440322 7.2 
z
" style="fill: #ffffff"/>
   </g>
   <g id="matplotlib.axis_1">
    <g id="xtick_1">
     <g id="line2d_1">
      <path d="M 134.02214 485.28 
L 134.02214 7.2 
" clip-path="url(#p61a7b34506)" style="fill: none; stroke: #b0b0b0; stroke-width: 0.8; stroke-linecap: square"/>
     </g>
     <g id="line2d_2">
      <defs>
       <path id="m43eb8328e7" d="M 0 0 
L 0 3.5 
" style="stroke: #000000; stroke-width: 0.8"/>
      </defs>
      <g>
       <use xlink:href="#m43eb8328e7" x="134.02214" y="485.28" style="stroke: #000000; stroke-width: 0.8"/>
      </g>
     </g>
     <g id="text_1">
      <!-- $\mathdefault{0.000}$ -->
      <g transform="translate(113.036232 507.616997) scale(0.2 -0.2)">
       <defs>
        <path id="CMR17-30" d="M 2688 2025 
C 2688 2416 2682 3080 2413 3591 
C 2176 4039 1798 4198 1466 4198 
C 1158 4198 768 4058 525 3597 
C 269 3118 243 2524 243 2025 
C 243 1661 250 1106 448 619 
C 723 -39 1216 -128 1466 -128 
C 1760 -128 2208 -7 2470 600 
C 2662 1042 2688 1559 2688 2025 
z
M 1466 -26 
C 1056 -26 813 325 723 812 
C 653 1188 653 1738 653 2096 
C 653 2588 653 2997 736 3387 
C 858 3929 1216 4096 1466 4096 
C 1728 4096 2067 3923 2189 3400 
C 2272 3036 2278 2607 2278 2096 
C 2278 1680 2278 1169 2202 792 
C 2067 95 1690 -26 1466 -26 
z
" transform="scale(0.015625)"/>
        <path id="CMMI12-3a" d="M 1178 307 
C 1178 492 1024 619 870 619 
C 685 619 557 466 557 313 
C 557 128 710 0 864 0 
C 1050 0 1178 153 1178 307 
z
" transform="scale(0.015625)"/>
       </defs>
       <use xlink:href="#CMR17-30" transform="scale(0.996264)"/>
       <use xlink:href="#CMMI12-3a" transform="translate(45.690477 0) scale(0.996264)"/>
       <use xlink:href="#CMR17-30" transform="translate(72.787654 0) scale(0.996264)"/>
       <use xlink:href="#CMR17-30" transform="translate(118.478131 0) scale(0.996264)"/>
       <use xlink:href="#CMR17-30" transform="translate(164.168608 0) scale(0.996264)"/>
      </g>
     </g>
    </g>
    <g id="xtick_2">
     <g id="line2d_3">
      <path d="M 250.351639 485.28 
L 250.351639 7.2 
" clip-path="url(#p61a7b34506)" style="fill: none; stroke: #b0b0b0; stroke-width: 0.8; stroke-linecap: square"/>
     </g>
     <g id="line2d_4">
      <g>
       <use xlink:href="#m43eb8328e7" x="250.351639" y="485.28" style="stroke: #000000; stroke-width: 0.8"/>
      </g>
     </g>
     <g id="text_2">
      <!-- $\mathdefault{0.001}$ -->
      <g transform="translate(229.36573 507.616997) scale(0.2 -0.2)">
       <defs>
        <path id="CMR17-31" d="M 1702 4058 
C 1702 4192 1696 4192 1606 4192 
C 1357 3916 979 3827 621 3827 
C 602 3827 570 3827 563 3808 
C 557 3795 557 3782 557 3648 
C 755 3648 1088 3686 1344 3839 
L 1344 461 
C 1344 236 1331 160 781 160 
L 589 160 
L 589 0 
C 896 0 1216 0 1523 0 
C 1830 0 2150 0 2458 0 
L 2458 160 
L 2266 160 
C 1715 160 1702 230 1702 458 
L 1702 4058 
z
" transform="scale(0.015625)"/>
       </defs>
       <use xlink:href="#CMR17-30" transform="scale(0.996264)"/>
       <use xlink:href="#CMMI12-3a" transform="translate(45.690477 0) scale(0.996264)"/>
       <use xlink:href="#CMR17-30" transform="translate(72.787654 0) scale(0.996264)"/>
       <use xlink:href="#CMR17-30" transform="translate(118.478131 0) scale(0.996264)"/>
       <use xlink:href="#CMR17-31" transform="translate(164.168608 0) scale(0.996264)"/>
      </g>
     </g>
    </g>
    <g id="xtick_3">
     <g id="line2d_5">
      <path d="M 366.681137 485.28 
L 366.681137 7.2 
" clip-path="url(#p61a7b34506)" style="fill: none; stroke: #b0b0b0; stroke-width: 0.8; stroke-linecap: square"/>
     </g>
     <g id="line2d_6">
      <g>
       <use xlink:href="#m43eb8328e7" x="366.681137" y="485.28" style="stroke: #000000; stroke-width: 0.8"/>
      </g>
     </g>
     <g id="text_3">
      <!-- $\mathdefault{0.002}$ -->
      <g transform="translate(345.695229 507.616997) scale(0.2 -0.2)">
       <defs>
        <path id="CMR17-32" d="M 2669 989 
L 2554 989 
C 2490 536 2438 459 2413 420 
C 2381 369 1920 369 1830 369 
L 602 369 
C 832 619 1280 1072 1824 1597 
C 2214 1967 2669 2402 2669 3035 
C 2669 3790 2067 4224 1395 4224 
C 691 4224 262 3604 262 3030 
C 262 2780 448 2748 525 2748 
C 589 2748 781 2787 781 3010 
C 781 3207 614 3264 525 3264 
C 486 3264 448 3258 422 3245 
C 544 3790 915 4058 1306 4058 
C 1862 4058 2227 3617 2227 3035 
C 2227 2479 1901 2000 1536 1584 
L 262 146 
L 262 0 
L 2515 0 
L 2669 989 
z
" transform="scale(0.015625)"/>
       </defs>
       <use xlink:href="#CMR17-30" transform="scale(0.996264)"/>
       <use xlink:href="#CMMI12-3a" transform="translate(45.690477 0) scale(0.996264)"/>
       <use xlink:href="#CMR17-30" transform="translate(72.787654 0) scale(0.996264)"/>
       <use xlink:href="#CMR17-30" transform="translate(118.478131 0) scale(0.996264)"/>
       <use xlink:href="#CMR17-32" transform="translate(164.168608 0) scale(0.996264)"/>
      </g>
     </g>
    </g>
    <g id="xtick_4">
     <g id="line2d_7">
      <path d="M 483.010636 485.28 
L 483.010636 7.2 
" clip-path="url(#p61a7b34506)" style="fill: none; stroke: #b0b0b0; stroke-width: 0.8; stroke-linecap: square"/>
     </g>
     <g id="line2d_8">
      <g>
       <use xlink:href="#m43eb8328e7" x="483.010636" y="485.28" style="stroke: #000000; stroke-width: 0.8"/>
      </g>
     </g>
     <g id="text_4">
      <!-- $\mathdefault{0.003}$ -->
      <g transform="translate(462.024727 507.616997) scale(0.2 -0.2)">
       <defs>
        <path id="CMR17-33" d="M 1414 2157 
C 1984 2157 2234 1662 2234 1090 
C 2234 320 1824 25 1453 25 
C 1114 25 563 194 390 693 
C 422 680 454 680 486 680 
C 640 680 755 782 755 948 
C 755 1133 614 1216 486 1216 
C 378 1216 211 1165 211 926 
C 211 335 787 -128 1466 -128 
C 2176 -128 2720 430 2720 1085 
C 2720 1707 2208 2157 1600 2227 
C 2086 2328 2554 2756 2554 3329 
C 2554 3820 2048 4179 1472 4179 
C 890 4179 378 3829 378 3329 
C 378 3110 544 3072 627 3072 
C 762 3072 877 3155 877 3321 
C 877 3486 762 3569 627 3569 
C 602 3569 570 3569 544 3557 
C 730 3959 1235 4032 1459 4032 
C 1683 4032 2106 3925 2106 3320 
C 2106 3143 2080 2828 1862 2550 
C 1670 2304 1453 2304 1242 2284 
C 1210 2284 1062 2269 1037 2269 
C 992 2263 966 2257 966 2208 
C 966 2163 973 2157 1101 2157 
L 1414 2157 
z
" transform="scale(0.015625)"/>
       </defs>
       <use xlink:href="#CMR17-30" transform="scale(0.996264)"/>
       <use xlink:href="#CMMI12-3a" transform="translate(45.690477 0) scale(0.996264)"/>
       <use xlink:href="#CMR17-30" transform="translate(72.787654 0) scale(0.996264)"/>
       <use xlink:href="#CMR17-30" transform="translate(118.478131 0) scale(0.996264)"/>
       <use xlink:href="#CMR17-33" transform="translate(164.168608 0) scale(0.996264)"/>
      </g>
     </g>
    </g>
    <g id="xtick_5">
     <g id="line2d_9">
      <path d="M 599.340134 485.28 
L 599.340134 7.2 
" clip-path="url(#p61a7b34506)" style="fill: none; stroke: #b0b0b0; stroke-width: 0.8; stroke-linecap: square"/>
     </g>
     <g id="line2d_10">
      <g>
       <use xlink:href="#m43eb8328e7" x="599.340134" y="485.28" style="stroke: #000000; stroke-width: 0.8"/>
      </g>
     </g>
     <g id="text_5">
      <!-- $\mathdefault{0.004}$ -->
      <g transform="translate(578.354226 507.616997) scale(0.2 -0.2)">
       <defs>
        <path id="CMR17-34" d="M 2150 4122 
C 2150 4256 2144 4256 2029 4256 
L 128 1254 
L 128 1088 
L 1779 1088 
L 1779 457 
C 1779 224 1766 160 1318 160 
L 1197 160 
L 1197 0 
C 1402 0 1747 0 1965 0 
C 2182 0 2528 0 2733 0 
L 2733 160 
L 2611 160 
C 2163 160 2150 224 2150 457 
L 2150 1088 
L 2803 1088 
L 2803 1254 
L 2150 1254 
L 2150 4122 
z
M 1798 3703 
L 1798 1254 
L 256 1254 
L 1798 3703 
z
" transform="scale(0.015625)"/>
       </defs>
       <use xlink:href="#CMR17-30" transform="scale(0.996264)"/>
       <use xlink:href="#CMMI12-3a" transform="translate(45.690477 0) scale(0.996264)"/>
       <use xlink:href="#CMR17-30" transform="translate(72.787654 0) scale(0.996264)"/>
       <use xlink:href="#CMR17-30" transform="translate(118.478131 0) scale(0.996264)"/>
       <use xlink:href="#CMR17-34" transform="translate(164.168608 0) scale(0.996264)"/>
      </g>
     </g>
    </g>
    <g id="xtick_6">
     <g id="line2d_11">
      <path d="M 715.669633 485.28 
L 715.669633 7.2 
" clip-path="url(#p61a7b34506)" style="fill: none; stroke: #b0b0b0; stroke-width: 0.8; stroke-linecap: square"/>
     </g>
     <g id="line2d_12">
      <g>
       <use xlink:href="#m43eb8328e7" x="715.669633" y="485.28" style="stroke: #000000; stroke-width: 0.8"/>
      </g>
     </g>
     <g id="text_6">
      <!-- $\mathdefault{0.005}$ -->
      <g transform="translate(694.683724 507.616997) scale(0.2 -0.2)">
       <defs>
        <path id="CMR17-35" d="M 730 3692 
C 794 3666 1056 3584 1325 3584 
C 1920 3584 2246 3911 2432 4100 
C 2432 4157 2432 4192 2394 4192 
C 2387 4192 2374 4192 2323 4163 
C 2099 4058 1837 3973 1517 3973 
C 1325 3973 1037 3999 723 4139 
C 653 4171 640 4171 634 4171 
C 602 4171 595 4164 595 4037 
L 595 2203 
C 595 2089 595 2057 659 2057 
C 691 2057 704 2070 736 2114 
C 941 2401 1222 2522 1542 2522 
C 1766 2522 2246 2382 2246 1289 
C 2246 1085 2246 715 2054 421 
C 1894 159 1645 25 1370 25 
C 947 25 518 320 403 814 
C 429 807 480 795 506 795 
C 589 795 749 840 749 1038 
C 749 1210 627 1280 506 1280 
C 358 1280 262 1190 262 1011 
C 262 454 704 -128 1382 -128 
C 2042 -128 2669 440 2669 1264 
C 2669 2030 2170 2624 1549 2624 
C 1222 2624 947 2503 730 2274 
L 730 3692 
z
" transform="scale(0.015625)"/>
       </defs>
       <use xlink:href="#CMR17-30" transform="scale(0.996264)"/>
       <use xlink:href="#CMMI12-3a" transform="translate(45.690477 0) scale(0.996264)"/>
       <use xlink:href="#CMR17-30" transform="translate(72.787654 0) scale(0.996264)"/>
       <use xlink:href="#CMR17-30" transform="translate(118.478131 0) scale(0.996264)"/>
       <use xlink:href="#CMR17-35" transform="translate(164.168608 0) scale(0.996264)"/>
      </g>
     </g>
    </g>
    <g id="xtick_7">
     <g id="line2d_13">
      <path d="M 831.999132 485.28 
L 831.999132 7.2 
" clip-path="url(#p61a7b34506)" style="fill: none; stroke: #b0b0b0; stroke-width: 0.8; stroke-linecap: square"/>
     </g>
     <g id="line2d_14">
      <g>
       <use xlink:href="#m43eb8328e7" x="831.999132" y="485.28" style="stroke: #000000; stroke-width: 0.8"/>
      </g>
     </g>
     <g id="text_7">
      <!-- $\mathdefault{0.006}$ -->
      <g transform="translate(811.013223 507.616997) scale(0.2 -0.2)">
       <defs>
        <path id="CMR17-36" d="M 678 2176 
C 678 3690 1395 4032 1811 4032 
C 1946 4032 2272 4009 2400 3776 
C 2298 3776 2106 3776 2106 3553 
C 2106 3381 2246 3323 2336 3323 
C 2394 3323 2566 3348 2566 3560 
C 2566 3954 2246 4179 1805 4179 
C 1043 4179 243 3390 243 1984 
C 243 253 966 -128 1478 -128 
C 2099 -128 2688 427 2688 1283 
C 2688 2081 2170 2662 1517 2662 
C 1126 2662 838 2407 678 1960 
L 678 2176 
z
M 1478 25 
C 691 25 691 1200 691 1436 
C 691 1896 909 2560 1504 2560 
C 1613 2560 1926 2560 2138 2120 
C 2253 1870 2253 1609 2253 1289 
C 2253 944 2253 690 2118 434 
C 1978 171 1773 25 1478 25 
z
" transform="scale(0.015625)"/>
       </defs>
       <use xlink:href="#CMR17-30" transform="scale(0.996264)"/>
       <use xlink:href="#CMMI12-3a" transform="translate(45.690477 0) scale(0.996264)"/>
       <use xlink:href="#CMR17-30" transform="translate(72.787654 0) scale(0.996264)"/>
       <use xlink:href="#CMR17-30" transform="translate(118.478131 0) scale(0.996264)"/>
       <use xlink:href="#CMR17-36" transform="translate(164.168608 0) scale(0.996264)"/>
      </g>
     </g>
    </g>
    <g id="xtick_8">
     <g id="line2d_15">
      <path d="M 948.32863 485.28 
L 948.32863 7.2 
" clip-path="url(#p61a7b34506)" style="fill: none; stroke: #b0b0b0; stroke-width: 0.8; stroke-linecap: square"/>
     </g>
     <g id="line2d_16">
      <g>
       <use xlink:href="#m43eb8328e7" x="948.32863" y="485.28" style="stroke: #000000; stroke-width: 0.8"/>
      </g>
     </g>
     <g id="text_8">
      <!-- $\mathdefault{0.007}$ -->
      <g transform="translate(927.342722 507.616997) scale(0.2 -0.2)">
       <defs>
        <path id="CMR17-37" d="M 2886 3941 
L 2886 4081 
L 1382 4081 
C 634 4081 621 4165 595 4288 
L 480 4288 
L 294 3094 
L 410 3094 
C 429 3215 474 3540 550 3661 
C 589 3712 1062 3712 1171 3712 
L 2579 3712 
L 1869 2661 
C 1395 1954 1069 999 1069 165 
C 1069 89 1069 -128 1299 -128 
C 1530 -128 1530 89 1530 171 
L 1530 465 
C 1530 1508 1709 2196 2003 2636 
L 2886 3941 
z
" transform="scale(0.015625)"/>
       </defs>
       <use xlink:href="#CMR17-30" transform="scale(0.996264)"/>
       <use xlink:href="#CMMI12-3a" transform="translate(45.690477 0) scale(0.996264)"/>
       <use xlink:href="#CMR17-30" transform="translate(72.787654 0) scale(0.996264)"/>
       <use xlink:href="#CMR17-30" transform="translate(118.478131 0) scale(0.996264)"/>
       <use xlink:href="#CMR17-37" transform="translate(164.168608 0) scale(0.996264)"/>
      </g>
     </g>
    </g>
    <g id="text_9">
     <!-- $\frac{k}{U_{0m}^2}$ -->
     <g transform="translate(518.612804 564.363353) scale(0.375 -0.375)">
      <defs>
       <path id="CMMI12-6b" d="M 1798 4257 
C 1805 4283 1818 4321 1818 4352 
C 1818 4416 1754 4416 1741 4416 
C 1734 4416 1504 4393 1389 4377 
C 1280 4377 1184 4358 1069 4358 
C 915 4345 870 4339 870 4224 
C 870 4160 934 4160 998 4160 
C 1325 4160 1325 4103 1325 4040 
C 1325 4015 1325 4002 1293 3888 
L 378 248 
C 352 152 352 140 352 101 
C 352 -38 461 -64 525 -64 
C 704 -64 742 77 794 275 
L 1094 1469 
C 1555 1418 1830 1226 1830 920 
C 1830 881 1830 856 1811 760 
C 1786 664 1786 588 1786 556 
C 1786 185 2029 -64 2355 -64 
C 2650 -64 2803 204 2854 294 
C 2989 530 3072 888 3072 913 
C 3072 945 3046 971 3008 971 
C 2950 971 2944 945 2918 843 
C 2829 511 2694 64 2368 64 
C 2240 64 2157 128 2157 370 
C 2157 492 2182 632 2208 728 
C 2234 843 2234 849 2234 926 
C 2234 1303 1894 1514 1306 1590 
C 1536 1731 1766 1980 1856 2076 
C 2221 2484 2470 2689 2765 2689 
C 2912 2689 2950 2650 2995 2612 
C 2758 2586 2669 2420 2669 2293 
C 2669 2139 2790 2088 2880 2088 
C 3053 2088 3206 2235 3206 2440 
C 3206 2625 3059 2816 2771 2816 
C 2419 2816 2131 2567 1677 2056 
C 1613 1980 1376 1737 1139 1648 
L 1798 4257 
z
" transform="scale(0.015625)"/>
       <path id="CMMI12-55" d="M 3238 1474 
C 3014 581 2272 57 1670 57 
C 1210 57 896 363 896 891 
C 896 916 896 1107 966 1387 
L 1594 3887 
C 1651 4103 1664 4167 2118 4167 
C 2234 4167 2298 4167 2298 4282 
C 2298 4352 2240 4352 2202 4352 
C 2086 4352 1952 4352 1830 4352 
L 1075 4352 
C 954 4352 819 4352 698 4352 
C 653 4352 576 4352 576 4231 
C 576 4167 621 4167 742 4167 
C 1126 4167 1126 4116 1126 4046 
C 1126 4008 1082 3824 1050 3715 
L 493 1488 
C 474 1418 435 1246 435 1075 
C 435 374 941 -128 1638 -128 
C 2285 -128 3002 384 3328 1197 
C 3373 1305 3430 1530 3469 1702 
C 3533 1933 3667 2496 3712 2662 
L 3955 3623 
C 4038 3956 4090 4167 4653 4167 
C 4704 4173 4730 4224 4730 4282 
C 4730 4352 4672 4352 4646 4352 
C 4557 4352 4442 4352 4352 4352 
L 4051 4352 
C 3654 4352 3450 4352 3443 4352 
C 3405 4352 3328 4352 3328 4231 
C 3328 4167 3379 4167 3424 4167 
C 3808 4167 3834 4020 3834 3905 
C 3834 3848 3834 3828 3808 3739 
L 3238 1474 
z
" transform="scale(0.015625)"/>
       <path id="CMMI12-6d" d="M 1318 1871 
C 1331 1910 1491 2229 1728 2433 
C 1894 2586 2112 2689 2362 2689 
C 2618 2689 2707 2497 2707 2242 
C 2707 2203 2707 2076 2630 1775 
L 2470 1118 
C 2419 926 2298 453 2285 383 
C 2259 287 2221 121 2221 96 
C 2221 6 2291 -64 2387 -64 
C 2579 -64 2611 83 2669 313 
L 3053 1839 
C 3066 1890 3398 2689 4102 2689 
C 4358 2689 4448 2497 4448 2242 
C 4448 1884 4198 1188 4058 805 
C 4000 651 3968 568 3968 453 
C 3968 166 4166 -64 4474 -64 
C 5069 -64 5293 875 5293 913 
C 5293 945 5267 971 5229 971 
C 5171 971 5165 952 5133 843 
C 4986 332 4749 64 4493 64 
C 4429 64 4326 64 4326 269 
C 4326 436 4403 640 4429 710 
C 4544 1018 4832 1773 4832 2145 
C 4832 2528 4608 2816 4122 2816 
C 3693 2816 3347 2574 3091 2197 
C 3072 2542 2861 2816 2381 2816 
C 1811 2816 1510 2415 1395 2255 
C 1376 2618 1114 2816 832 2816 
C 646 2816 499 2727 378 2484 
C 262 2254 173 1865 173 1839 
C 173 1814 198 1782 243 1782 
C 294 1782 301 1788 339 1935 
C 435 2312 557 2689 813 2689 
C 960 2689 1011 2586 1011 2395 
C 1011 2254 947 2005 902 1807 
L 723 1118 
C 698 996 627 709 595 594 
C 550 428 480 128 480 96 
C 480 6 550 -64 646 -64 
C 723 -64 813 -26 864 70 
C 877 102 934 326 966 453 
L 1107 1028 
L 1318 1871 
z
" transform="scale(0.015625)"/>
      </defs>
      <use xlink:href="#CMMI12-6b" transform="translate(37.264008 39.226102) scale(0.697382)"/>
      <use xlink:href="#CMMI12-55" transform="translate(0 -34.355253) scale(0.697382)"/>
      <use xlink:href="#CMR17-32" transform="translate(53.660908 -14.20868) scale(0.498132)"/>
      <use xlink:href="#CMR17-30" transform="translate(46.376275 -51.595716) scale(0.498132)"/>
      <use xlink:href="#CMMI12-6d" transform="translate(69.221514 -51.595716) scale(0.498132)"/>
      <path d="M 0 24.410885 
L 112.38325 24.410885 
L 112.38325 25.40233 
L 0 25.40233 
L 0 24.410885 
z
"/>
     </g>
    </g>
   </g>
   <g id="matplotlib.axis_2">
    <g id="ytick_1">
     <g id="line2d_17">
      <path d="M 93.440322 463.549091 
L 986.240322 463.549091 
" clip-path="url(#p61a7b34506)" style="fill: none; stroke: #b0b0b0; stroke-width: 0.8; stroke-linecap: square"/>
     </g>
     <g id="line2d_18">
      <defs>
       <path id="m2360e3d0db" d="M 0 0 
L -3.5 0 
" style="stroke: #000000; stroke-width: 0.8"/>
      </defs>
      <g>
       <use xlink:href="#m2360e3d0db" x="93.440322" y="463.549091" style="stroke: #000000; stroke-width: 0.8"/>
      </g>
     </g>
     <g id="text_10">
      <!-- $\mathdefault{0.00}$ -->
      <g transform="translate(52.1066 470.467589) scale(0.2 -0.2)">
       <use xlink:href="#CMR17-30" transform="scale(0.996264)"/>
       <use xlink:href="#CMMI12-3a" transform="translate(45.690477 0) scale(0.996264)"/>
       <use xlink:href="#CMR17-30" transform="translate(72.787654 0) scale(0.996264)"/>
       <use xlink:href="#CMR17-30" transform="translate(118.478131 0) scale(0.996264)"/>
      </g>
     </g>
    </g>
    <g id="ytick_2">
     <g id="line2d_19">
      <path d="M 93.440322 371.922052 
L 986.240322 371.922052 
" clip-path="url(#p61a7b34506)" style="fill: none; stroke: #b0b0b0; stroke-width: 0.8; stroke-linecap: square"/>
     </g>
     <g id="line2d_20">
      <g>
       <use xlink:href="#m2360e3d0db" x="93.440322" y="371.922052" style="stroke: #000000; stroke-width: 0.8"/>
      </g>
     </g>
     <g id="text_11">
      <!-- $\mathdefault{0.01}$ -->
      <g transform="translate(52.1066 378.840551) scale(0.2 -0.2)">
       <use xlink:href="#CMR17-30" transform="scale(0.996264)"/>
       <use xlink:href="#CMMI12-3a" transform="translate(45.690477 0) scale(0.996264)"/>
       <use xlink:href="#CMR17-30" transform="translate(72.787654 0) scale(0.996264)"/>
       <use xlink:href="#CMR17-31" transform="translate(118.478131 0) scale(0.996264)"/>
      </g>
     </g>
    </g>
    <g id="ytick_3">
     <g id="line2d_21">
      <path d="M 93.440322 280.295014 
L 986.240322 280.295014 
" clip-path="url(#p61a7b34506)" style="fill: none; stroke: #b0b0b0; stroke-width: 0.8; stroke-linecap: square"/>
     </g>
     <g id="line2d_22">
      <g>
       <use xlink:href="#m2360e3d0db" x="93.440322" y="280.295014" style="stroke: #000000; stroke-width: 0.8"/>
      </g>
     </g>
     <g id="text_12">
      <!-- $\mathdefault{0.02}$ -->
      <g transform="translate(52.1066 287.213512) scale(0.2 -0.2)">
       <use xlink:href="#CMR17-30" transform="scale(0.996264)"/>
       <use xlink:href="#CMMI12-3a" transform="translate(45.690477 0) scale(0.996264)"/>
       <use xlink:href="#CMR17-30" transform="translate(72.787654 0) scale(0.996264)"/>
       <use xlink:href="#CMR17-32" transform="translate(118.478131 0) scale(0.996264)"/>
      </g>
     </g>
    </g>
    <g id="ytick_4">
     <g id="line2d_23">
      <path d="M 93.440322 188.667975 
L 986.240322 188.667975 
" clip-path="url(#p61a7b34506)" style="fill: none; stroke: #b0b0b0; stroke-width: 0.8; stroke-linecap: square"/>
     </g>
     <g id="line2d_24">
      <g>
       <use xlink:href="#m2360e3d0db" x="93.440322" y="188.667975" style="stroke: #000000; stroke-width: 0.8"/>
      </g>
     </g>
     <g id="text_13">
      <!-- $\mathdefault{0.03}$ -->
      <g transform="translate(52.1066 195.586473) scale(0.2 -0.2)">
       <use xlink:href="#CMR17-30" transform="scale(0.996264)"/>
       <use xlink:href="#CMMI12-3a" transform="translate(45.690477 0) scale(0.996264)"/>
       <use xlink:href="#CMR17-30" transform="translate(72.787654 0) scale(0.996264)"/>
       <use xlink:href="#CMR17-33" transform="translate(118.478131 0) scale(0.996264)"/>
      </g>
     </g>
    </g>
    <g id="ytick_5">
     <g id="line2d_25">
      <path d="M 93.440322 97.040936 
L 986.240322 97.040936 
" clip-path="url(#p61a7b34506)" style="fill: none; stroke: #b0b0b0; stroke-width: 0.8; stroke-linecap: square"/>
     </g>
     <g id="line2d_26">
      <g>
       <use xlink:href="#m2360e3d0db" x="93.440322" y="97.040936" style="stroke: #000000; stroke-width: 0.8"/>
      </g>
     </g>
     <g id="text_14">
      <!-- $\mathdefault{0.04}$ -->
      <g transform="translate(52.1066 103.959435) scale(0.2 -0.2)">
       <use xlink:href="#CMR17-30" transform="scale(0.996264)"/>
       <use xlink:href="#CMMI12-3a" transform="translate(45.690477 0) scale(0.996264)"/>
       <use xlink:href="#CMR17-30" transform="translate(72.787654 0) scale(0.996264)"/>
       <use xlink:href="#CMR17-34" transform="translate(118.478131 0) scale(0.996264)"/>
      </g>
     </g>
    </g>
    <g id="text_15">
     <!-- $y/a$ -->
     <g transform="translate(25.87995 265.130183) rotate(-90) scale(0.25 -0.25)">
      <defs>
       <path id="CMMI12-79" d="M 1683 -700 
C 1510 -939 1261 -1152 947 -1152 
C 870 -1152 563 -1152 467 -889 
C 486 -895 518 -895 531 -895 
C 723 -895 851 -729 851 -582 
C 851 -435 730 -384 634 -384 
C 531 -384 307 -458 307 -759 
C 307 -1071 582 -1286 947 -1286 
C 1587 -1286 2234 -700 2413 6 
L 3040 2485 
C 3046 2517 3059 2556 3059 2594 
C 3059 2689 2982 2753 2886 2753 
C 2829 2753 2694 2727 2643 2535 
L 2170 658 
C 2138 543 2138 530 2086 460 
C 1958 281 1747 64 1440 64 
C 1082 64 1050 415 1050 588 
C 1050 952 1222 1443 1395 1903 
C 1466 2088 1504 2178 1504 2305 
C 1504 2574 1312 2816 998 2816 
C 410 2816 173 1890 173 1839 
C 173 1814 198 1782 243 1782 
C 301 1782 307 1807 333 1897 
C 486 2433 730 2689 979 2689 
C 1037 2689 1146 2689 1146 2478 
C 1146 2312 1075 2127 979 1884 
C 666 1047 666 837 666 683 
C 666 77 1101 -64 1421 -64 
C 1606 -64 1837 -6 2061 230 
L 2067 224 
C 1971 -147 1907 -392 1683 -700 
z
" transform="scale(0.015625)"/>
       <path id="CMMI12-3d" d="M 2746 4562 
C 2746 4569 2784 4666 2784 4678 
C 2784 4755 2720 4800 2669 4800 
C 2637 4800 2579 4800 2528 4659 
L 384 -1363 
C 384 -1370 346 -1465 346 -1478 
C 346 -1555 410 -1600 461 -1600 
C 499 -1600 557 -1593 602 -1459 
L 2746 4562 
z
" transform="scale(0.015625)"/>
       <path id="CMMI12-61" d="M 1926 760 
C 1894 651 1894 639 1805 517 
C 1664 338 1382 64 1082 64 
C 819 64 672 300 672 677 
C 672 1028 870 1743 992 2012 
C 1210 2459 1510 2689 1760 2689 
C 2182 2689 2266 2165 2266 2114 
C 2266 2108 2246 2024 2240 2012 
L 1926 760 
z
M 2336 2395 
C 2266 2561 2093 2816 1760 2816 
C 1037 2816 256 1884 256 939 
C 256 307 627 -64 1062 -64 
C 1414 -64 1715 211 1894 422 
C 1958 45 2259 -64 2451 -64 
C 2643 -64 2797 51 2912 281 
C 3014 498 3104 888 3104 913 
C 3104 945 3078 971 3040 971 
C 2982 971 2976 939 2950 843 
C 2854 466 2733 64 2470 64 
C 2285 64 2272 230 2272 358 
C 2272 505 2291 575 2349 824 
C 2394 984 2426 1124 2477 1309 
C 2714 2267 2771 2497 2771 2535 
C 2771 2625 2701 2695 2605 2695 
C 2400 2695 2349 2472 2336 2395 
z
" transform="scale(0.015625)"/>
      </defs>
      <use xlink:href="#CMMI12-79" transform="scale(0.996264)"/>
      <use xlink:href="#CMMI12-3d" transform="translate(51.138781 0) scale(0.996264)"/>
      <use xlink:href="#CMMI12-61" transform="translate(99.913699 0) scale(0.996264)"/>
     </g>
    </g>
   </g>
   <g id="line2d_27">
    <path d="M 134.02214 463.549091 
L 134.02214 463.409337 
L 140.17582 462.919289 
L 159.68509 462.301953 
L 161.460802 462.195265 
L 166.304309 461.965619 
L 169.070907 461.842114 
L 169.328153 461.712434 
L 171.259523 461.57627 
L 171.168159 461.433298 
L 172.692359 461.283178 
L 172.620914 461.125551 
L 174.071915 460.960043 
L 174.247831 460.786259 
L 175.812115 460.603787 
L 176.322018 460.41219 
L 178.055583 460.211014 
L 178.884803 459.99978 
L 183.895079 459.300566 
L 185.211497 459.043808 
L 191.087288 458.19391 
L 196.903678 457.210045 
L 203.847033 456.0711 
L 210.826676 454.752628 
L 215.962806 453.760112 
L 221.352479 452.665863 
L 226.997981 451.459453 
L 232.899283 450.129386 
L 239.05312 448.662988 
L 242.42 447.874352 
L 258.929326 443.298753 
L 262.609547 442.241905 
L 276.969808 437.459001 
L 287.813618 433.206797 
L 291.666509 431.645352 
L 298.985659 428.28434 
L 306.176893 424.578824 
L 313.140399 420.493493 
L 319.759732 415.989416 
L 325.900197 411.02367 
L 331.407237 405.548936 
L 336.104963 399.513041 
L 339.795039 392.858468 
L 341.062928 389.279605 
L 342.256283 385.5218 
L 342.826709 381.576105 
L 343.24556 377.433124 
L 342.990267 373.082995 
L 342.500803 368.515359 
L 341.284325 363.719341 
L 339.747586 358.683523 
L 337.432589 353.395913 
L 334.711599 347.843923 
L 331.168138 342.014334 
L 327.139688 335.893265 
L 322.2599 329.466143 
L 316.832787 322.717664 
L 310.553086 315.631762 
L 303.695009 308.191564 
L 296.02791 300.379357 
L 287.802916 292.176539 
L 249.478649 255.053611 
L 239.161363 244.584506 
L 228.904776 233.591945 
L 218.896274 222.049757 
L 209.368436 209.930459 
L 200.570562 197.205197 
L 192.683388 183.843671 
L 185.923102 169.814069 
L 180.340069 155.082987 
L 176.000258 139.61535 
L 172.771174 123.374332 
L 170.53385 106.321263 
L 169.049953 88.415541 
L 168.137426 69.614532 
L 167.622571 49.873473 
L 167.43219 31.907746 
L 167.43219 31.907746 
" clip-path="url(#p61a7b34506)" style="fill: none; stroke: #000000; stroke-width: 1.2; stroke-linecap: square"/>
   </g>
   <g id="line2d_28">
    <path d="M 134.02214 463.549091 
L 134.077125 463.50476 
L 154.037778 463.409337 
L 464.961114 463.188147 
L 715.492816 462.9915 
L 735.125152 462.843468 
L 680.937034 462.301953 
L 651.127669 461.965619 
L 646.901862 461.842114 
L 633.006373 461.57627 
L 620.529844 461.283178 
L 609.015985 460.960043 
L 600.998422 460.786259 
L 598.09728 460.603787 
L 590.437466 460.41219 
L 587.486011 460.211014 
L 580.050038 459.99978 
L 576.956745 459.777983 
L 569.63822 459.545096 
L 566.329709 459.300566 
L 559.042305 459.043808 
L 555.457502 458.774213 
L 548.129355 458.491138 
L 544.215238 458.19391 
L 536.784915 457.881819 
L 532.493537 457.554125 
L 524.90727 457.210045 
L 520.193775 456.848762 
L 512.40368 456.469415 
L 507.225124 456.0711 
L 499.188272 455.652869 
L 493.503131 455.213727 
L 485.1814 454.752628 
L 478.949769 454.268473 
L 470.310487 453.760112 
L 463.495051 453.226332 
L 454.512575 452.665863 
L 447.080606 452.07737 
L 437.739112 451.459453 
L 411.237863 449.41407 
L 391.825084 447.874352 
L 371.517747 446.176812 
L 350.494524 444.305275 
L 329.056036 442.241905 
L 307.661177 439.96704 
L 286.953937 437.459001 
L 267.754114 434.693889 
L 259.992665 433.206797 
L 250.974574 431.645352 
L 244.932981 430.005834 
L 237.437738 428.28434 
L 233.372901 426.476771 
L 227.641214 424.578824 
L 225.561599 422.58598 
L 221.584081 420.493493 
L 221.262688 418.296382 
L 218.822729 415.989416 
L 219.903788 413.567101 
L 218.690394 411.02367 
L 220.814893 408.353068 
L 220.522857 405.548936 
L 223.390441 402.604597 
L 223.760011 399.513041 
L 227.135613 396.266908 
L 227.953943 392.858468 
L 231.649214 389.279605 
L 232.736189 385.5218 
L 236.588285 381.576105 
L 237.781455 377.433124 
L 241.636725 373.082995 
L 242.779858 368.515359 
L 246.483367 363.719341 
L 247.419403 358.683523 
L 250.809536 353.395913 
L 251.377598 347.843923 
L 254.284833 342.014334 
L 254.320798 335.893265 
L 256.570014 329.466143 
L 255.910399 322.717664 
L 257.326473 315.631762 
L 255.815816 308.191564 
L 256.232639 300.379357 
L 253.734973 292.176539 
L 253.009019 283.56358 
L 249.424503 274.519974 
L 247.454237 265.024187 
L 242.742881 255.053611 
L 239.496052 244.584506 
L 233.709694 233.591945 
L 229.259239 222.049757 
L 222.581344 209.930459 
L 217.148138 197.205197 
L 209.936086 183.843671 
L 203.929767 169.814069 
L 196.74391 155.082987 
L 190.780556 139.61535 
L 184.368817 123.374332 
L 179.230873 106.321263 
L 174.42744 88.415541 
L 170.937725 69.614532 
L 168.457151 49.873473 
L 167.458174 31.907746 
L 167.458174 31.907746 
" clip-path="url(#p61a7b34506)" style="fill: none; stroke-dasharray: 4.44,1.92; stroke-dashoffset: 0; stroke: #000000; stroke-width: 1.2"/>
   </g>
   <g id="line2d_29">
    <path d="M 134.02214 463.549091 
L 134.119055 463.50476 
L 141.891248 463.458212 
L 169.117223 463.409337 
L 945.658504 462.9915 
L 938.167899 462.919289 
L 941.945129 462.843468 
L 895.817014 462.59249 
L 891.502731 462.500329 
L 870.04955 462.301953 
L 852.892285 462.083242 
L 839.47076 461.965619 
L 839.199233 461.842114 
L 827.598507 461.712434 
L 828.06935 461.57627 
L 817.840897 461.433298 
L 818.770908 461.283178 
L 809.572836 461.125551 
L 810.758718 460.960043 
L 802.337201 460.786259 
L 803.636584 460.603787 
L 795.802889 460.41219 
L 797.115712 460.211014 
L 789.727234 459.99978 
L 790.981526 459.777983 
L 783.927816 459.545096 
L 785.069713 459.300566 
L 778.262592 459.043808 
L 779.249564 458.774213 
L 772.616214 458.491138 
L 773.412513 458.19391 
L 766.890624 457.881819 
L 767.464207 457.554125 
L 760.998541 457.210045 
L 761.318964 456.848762 
L 754.858868 456.469415 
L 754.89581 456.0711 
L 748.393365 455.652869 
L 748.115541 455.213727 
L 741.524159 454.752628 
L 740.898507 454.268473 
L 734.171917 453.760112 
L 733.16296 453.226332 
L 726.254357 452.665863 
L 724.823684 452.07737 
L 717.68503 451.459453 
L 715.790846 450.81064 
L 708.372315 450.129386 
L 705.969062 449.41407 
L 698.218603 448.662988 
L 695.256626 447.874352 
L 687.119634 447.046284 
L 683.544904 446.176812 
L 674.963999 445.263867 
L 670.717901 444.305275 
L 661.632868 443.298753 
L 656.65213 442.241905 
L 647.000023 441.132215 
L 641.216871 439.96704 
L 630.93265 438.743607 
L 624.275966 437.459001 
L 613.294059 436.110166 
L 605.690967 434.693889 
L 593.946632 433.206797 
L 585.32387 431.645352 
L 572.757744 430.005834 
L 563.044324 428.28434 
L 549.607196 426.476771 
L 538.742137 424.578824 
L 524.402257 422.58598 
L 512.343709 420.493493 
L 497.098954 418.296382 
L 483.836702 415.989416 
L 467.73169 413.567101 
L 453.307522 411.02367 
L 436.457402 408.353068 
L 420.992571 405.548936 
L 403.614702 402.604597 
L 369.798298 396.266908 
L 335.938617 389.279605 
L 319.441607 385.5218 
L 303.355763 381.576105 
L 287.826395 377.433124 
L 273.720517 373.082995 
L 260.06509 368.515359 
L 248.816627 363.719341 
L 237.849236 358.683523 
L 230.038673 353.395913 
L 222.165847 347.843923 
L 217.787841 342.014334 
L 212.805065 335.893265 
L 211.246014 329.466143 
L 208.470336 322.717664 
L 208.818094 315.631762 
L 207.42379 308.191564 
L 208.793615 300.379357 
L 208.047205 292.176539 
L 209.716444 283.56358 
L 209.042053 274.519974 
L 210.456897 265.024187 
L 209.428726 255.053611 
L 210.179566 244.584506 
L 208.50545 233.591945 
L 208.31149 222.049757 
L 205.829168 209.930459 
L 204.542505 197.205197 
L 201.234474 183.843671 
L 198.867605 169.814069 
L 194.897643 155.082987 
L 191.677906 139.61535 
L 187.448774 123.374332 
L 180.116731 88.415541 
L 177.135545 69.614532 
L 174.812309 49.873473 
L 173.794036 31.907746 
L 173.794036 31.907746 
" clip-path="url(#p61a7b34506)" style="fill: none; stroke-dasharray: 8.32,2.08,1.3,2.08; stroke-dashoffset: 0; stroke: #000000; stroke-width: 1.3"/>
   </g>
   <g id="line2d_30">
    <path d="M 134.02214 463.549091 
L 134.035816 463.50476 
L 140.164329 463.409337 
L 340.793105 463.125769 
L 500.498277 462.843468 
L 501.53507 462.763856 
L 512.339137 462.680263 
L 505.344158 462.59249 
L 509.403566 462.500329 
L 500.28048 462.40356 
L 502.358402 462.301953 
L 493.460105 462.195265 
L 495.348399 462.083242 
L 487.452523 461.965619 
L 489.71431 461.842114 
L 482.956752 461.712434 
L 485.683706 461.57627 
L 479.969334 461.433298 
L 483.096807 461.283178 
L 478.270025 461.125551 
L 481.700309 460.960043 
L 477.609399 460.786259 
L 481.254089 460.603787 
L 477.77068 460.41219 
L 481.560918 460.211014 
L 478.582017 459.99978 
L 482.467375 459.777983 
L 479.911678 459.545096 
L 483.85599 459.300566 
L 481.659058 459.043808 
L 485.636182 458.774213 
L 483.746091 458.491138 
L 487.736452 458.19391 
L 486.110281 457.881819 
L 490.098278 457.554125 
L 488.699403 457.210045 
L 492.671522 456.848762 
L 491.467563 456.469415 
L 495.411009 456.0711 
L 494.372254 455.652869 
L 498.273953 455.213727 
L 497.372137 454.752628 
L 501.217969 454.268473 
L 500.425296 453.760112 
L 504.199493 453.226332 
L 503.48783 452.665863 
L 507.172459 452.07737 
L 506.512635 451.459453 
L 510.087134 450.81064 
L 509.448316 450.129386 
L 512.889055 449.41407 
L 512.238166 448.662988 
L 515.517996 447.874352 
L 514.819151 447.046284 
L 517.906948 446.176812 
L 517.120894 445.263867 
L 519.981073 444.305275 
L 519.064623 443.298753 
L 521.656622 442.241905 
L 520.562082 441.132215 
L 522.839811 439.96704 
L 521.514391 438.743607 
L 523.425653 437.459001 
L 521.810877 436.110166 
L 523.296778 434.693889 
L 521.32791 433.206797 
L 522.322255 431.645352 
L 519.927761 430.005834 
L 520.356516 428.28434 
L 517.457635 426.476771 
L 517.238479 424.578824 
L 513.74895 422.58598 
L 512.791034 420.493493 
L 508.617208 418.296382 
L 506.821361 415.989416 
L 501.862897 413.567101 
L 499.122478 411.02367 
L 493.273828 408.353068 
L 489.47656 405.548936 
L 482.629736 402.604597 
L 477.661087 399.513041 
L 469.71037 396.266908 
L 463.459259 392.858468 
L 454.308811 389.279605 
L 446.676783 385.5218 
L 436.25246 381.576105 
L 427.167913 377.433124 
L 415.435026 373.082995 
L 404.87443 368.515359 
L 391.863536 363.719341 
L 379.881805 358.683523 
L 365.724361 353.395913 
L 352.495927 347.843923 
L 337.469825 342.014334 
L 323.338938 335.893265 
L 307.91879 329.466143 
L 278.344355 315.631762 
L 264.343299 308.191564 
L 250.48249 300.379357 
L 237.942492 292.176539 
L 226.341743 283.56358 
L 216.23218 274.519974 
L 207.683429 265.024187 
L 200.572928 255.053611 
L 195.237667 244.584506 
L 190.952811 233.591945 
L 188.196236 222.049757 
L 185.891482 209.930459 
L 183.261094 183.843671 
L 182.457372 169.814069 
L 181.281294 155.082987 
L 180.343329 139.61535 
L 179.025192 123.374332 
L 175.338025 69.614532 
L 174.413334 49.873473 
L 173.988247 31.907746 
L 173.988247 31.907746 
" clip-path="url(#p61a7b34506)" style="fill: none; stroke-dasharray: 1.8,2.97; stroke-dashoffset: 0; stroke: #000000; stroke-width: 1.8"/>
   </g>
   <g id="PathCollection_1">
    <defs>
     <path id="mc405badef5" d="M -6.123724 0 
L 6.123724 0 
M 0 6.123724 
L 0 -6.123724 
" style="stroke: #000000; stroke-width: 1.2"/>
    </defs>
    <g clip-path="url(#p61a7b34506)">
     <use xlink:href="#mc405badef5" x="286.498122" y="461.911831" style="stroke: #000000; stroke-width: 1.2"/>
     <use xlink:href="#mc405badef5" x="265.061504" y="461.078316" style="stroke: #000000; stroke-width: 1.2"/>
     <use xlink:href="#mc405badef5" x="294.418707" y="460.27457" style="stroke: #000000; stroke-width: 1.2"/>
     <use xlink:href="#mc405badef5" x="295.685244" y="459.083836" style="stroke: #000000; stroke-width: 1.2"/>
     <use xlink:href="#mc405badef5" x="320.675729" y="458.190785" style="stroke: #000000; stroke-width: 1.2"/>
     <use xlink:href="#mc405badef5" x="334.87229" y="457.00005" style="stroke: #000000; stroke-width: 1.2"/>
     <use xlink:href="#mc405badef5" x="352.641621" y="455.213948" style="stroke: #000000; stroke-width: 1.2"/>
     <use xlink:href="#mc405badef5" x="332.830707" y="453.725529" style="stroke: #000000; stroke-width: 1.2"/>
     <use xlink:href="#mc405badef5" x="437.121557" y="451.939427" style="stroke: #000000; stroke-width: 1.2"/>
     <use xlink:href="#mc405badef5" x="376.668025" y="450.451009" style="stroke: #000000; stroke-width: 1.2"/>
     <use xlink:href="#mc405badef5" x="391.809763" y="448.664907" style="stroke: #000000; stroke-width: 1.2"/>
     <use xlink:href="#mc405badef5" x="430.807773" y="446.878804" style="stroke: #000000; stroke-width: 1.2"/>
     <use xlink:href="#mc405badef5" x="503.718741" y="443.901968" style="stroke: #000000; stroke-width: 1.2"/>
     <use xlink:href="#mc405badef5" x="370.316434" y="437.352927" style="stroke: #000000; stroke-width: 1.2"/>
     <use xlink:href="#mc405badef5" x="322.036784" y="430.803885" style="stroke: #000000; stroke-width: 1.2"/>
     <use xlink:href="#mc405badef5" x="366.61134" y="424.254844" style="stroke: #000000; stroke-width: 1.2"/>
     <use xlink:href="#mc405badef5" x="441.204722" y="409.966027" style="stroke: #000000; stroke-width: 1.2"/>
     <use xlink:href="#mc405badef5" x="398.747364" y="398.05868" style="stroke: #000000; stroke-width: 1.2"/>
     <use xlink:href="#mc405badef5" x="381.375007" y="381.686077" style="stroke: #000000; stroke-width: 1.2"/>
     <use xlink:href="#mc405badef5" x="369.65481" y="366.801893" style="stroke: #000000; stroke-width: 1.2"/>
     <use xlink:href="#mc405badef5" x="354.702107" y="351.917709" style="stroke: #000000; stroke-width: 1.2"/>
     <use xlink:href="#mc405badef5" x="511.525904" y="337.033524" style="stroke: #000000; stroke-width: 1.2"/>
     <use xlink:href="#mc405badef5" x="489.862443" y="277.496787" style="stroke: #000000; stroke-width: 1.2"/>
     <use xlink:href="#mc405badef5" x="455.38238" y="249.216837" style="stroke: #000000; stroke-width: 1.2"/>
     <use xlink:href="#mc405badef5" x="433.18962" y="219.448468" style="stroke: #000000; stroke-width: 1.2"/>
     <use xlink:href="#mc405badef5" x="371.393936" y="159.911731" style="stroke: #000000; stroke-width: 1.2"/>
     <use xlink:href="#mc405badef5" x="348.04806" y="100.374994" style="stroke: #000000; stroke-width: 1.2"/>
     <use xlink:href="#mc405badef5" x="349.617054" y="28.930909" style="stroke: #000000; stroke-width: 1.2"/>
    </g>
   </g>
   <g id="PathCollection_2">
    <defs>
     <path id="m3c8402029e" d="M 0 0 
L 0 6.123724 
M 0 0 
L 4.898979 -3.061862 
M 0 0 
L -4.898979 -3.061862 
" style="stroke: #000000; stroke-width: 1.2"/>
    </defs>
    <g clip-path="url(#p61a7b34506)">
     <use xlink:href="#m3c8402029e" x="499.938032" y="461.911831" style="stroke: #000000; stroke-width: 1.2"/>
     <use xlink:href="#m3c8402029e" x="454.418299" y="461.078316" style="stroke: #000000; stroke-width: 1.2"/>
     <use xlink:href="#m3c8402029e" x="467.65078" y="460.27457" style="stroke: #000000; stroke-width: 1.2"/>
     <use xlink:href="#m3c8402029e" x="465.514679" y="459.083836" style="stroke: #000000; stroke-width: 1.2"/>
     <use xlink:href="#m3c8402029e" x="456.384268" y="458.190785" style="stroke: #000000; stroke-width: 1.2"/>
     <use xlink:href="#m3c8402029e" x="472.036402" y="457.00005" style="stroke: #000000; stroke-width: 1.2"/>
     <use xlink:href="#m3c8402029e" x="472.036402" y="455.213948" style="stroke: #000000; stroke-width: 1.2"/>
     <use xlink:href="#m3c8402029e" x="454.21036" y="453.725529" style="stroke: #000000; stroke-width: 1.2"/>
     <use xlink:href="#m3c8402029e" x="432.565803" y="451.939427" style="stroke: #000000; stroke-width: 1.2"/>
     <use xlink:href="#m3c8402029e" x="420.032754" y="450.451009" style="stroke: #000000; stroke-width: 1.2"/>
     <use xlink:href="#m3c8402029e" x="428.350313" y="448.664907" style="stroke: #000000; stroke-width: 1.2"/>
     <use xlink:href="#m3c8402029e" x="443.303016" y="446.878804" style="stroke: #000000; stroke-width: 1.2"/>
     <use xlink:href="#m3c8402029e" x="377.972369" y="443.901968" style="stroke: #000000; stroke-width: 1.2"/>
     <use xlink:href="#m3c8402029e" x="318.70976" y="437.352927" style="stroke: #000000; stroke-width: 1.2"/>
     <use xlink:href="#m3c8402029e" x="291.375236" y="430.803885" style="stroke: #000000; stroke-width: 1.2"/>
     <use xlink:href="#m3c8402029e" x="282.301535" y="424.254844" style="stroke: #000000; stroke-width: 1.2"/>
     <use xlink:href="#m3c8402029e" x="272.131429" y="409.966027" style="stroke: #000000; stroke-width: 1.2"/>
     <use xlink:href="#m3c8402029e" x="269.314801" y="398.05868" style="stroke: #000000; stroke-width: 1.2"/>
     <use xlink:href="#m3c8402029e" x="279.4471" y="381.686077" style="stroke: #000000; stroke-width: 1.2"/>
     <use xlink:href="#m3c8402029e" x="314.664402" y="366.801893" style="stroke: #000000; stroke-width: 1.2"/>
     <use xlink:href="#m3c8402029e" x="317.386512" y="351.917709" style="stroke: #000000; stroke-width: 1.2"/>
     <use xlink:href="#m3c8402029e" x="326.271178" y="337.033524" style="stroke: #000000; stroke-width: 1.2"/>
     <use xlink:href="#m3c8402029e" x="326.932802" y="277.496787" style="stroke: #000000; stroke-width: 1.2"/>
     <use xlink:href="#m3c8402029e" x="345.174721" y="249.216837" style="stroke: #000000; stroke-width: 1.2"/>
     <use xlink:href="#m3c8402029e" x="313.171022" y="219.448468" style="stroke: #000000; stroke-width: 1.2"/>
     <use xlink:href="#m3c8402029e" x="304.154032" y="159.911731" style="stroke: #000000; stroke-width: 1.2"/>
     <use xlink:href="#m3c8402029e" x="266.989665" y="100.374994" style="stroke: #000000; stroke-width: 1.2"/>
     <use xlink:href="#m3c8402029e" x="247.462305" y="28.930909" style="stroke: #000000; stroke-width: 1.2"/>
    </g>
   </g>
   <g id="PathCollection_3">
    <defs>
     <path id="C0_0_e608739d56" d="M -4.242641 0 
L 0 -7.071068 
L 4.242641 -0 
L 0 7.071068 
z
M -4.242641 0 
L 4.242641 -0 
M 0 -7.071068 
L 0 7.071068 
"/>
    </defs>
    <g clip-path="url(#p61a7b34506)">
     <use xlink:href="#C0_0_e608739d56" x="684.587845" y="461.911831" style="fill: none; stroke: #000000; stroke-width: 0.8"/>
    </g>
    <g clip-path="url(#p61a7b34506)">
     <use xlink:href="#C0_0_e608739d56" x="686.950788" y="461.078316" style="fill: none; stroke: #000000; stroke-width: 0.8"/>
    </g>
    <g clip-path="url(#p61a7b34506)">
     <use xlink:href="#C0_0_e608739d56" x="679.843056" y="460.27457" style="fill: none; stroke: #000000; stroke-width: 0.8"/>
    </g>
    <g clip-path="url(#p61a7b34506)">
     <use xlink:href="#C0_0_e608739d56" x="671.487689" y="459.083836" style="fill: none; stroke: #000000; stroke-width: 0.8"/>
    </g>
    <g clip-path="url(#p61a7b34506)">
     <use xlink:href="#C0_0_e608739d56" x="702.810861" y="458.190785" style="fill: none; stroke: #000000; stroke-width: 0.8"/>
    </g>
    <g clip-path="url(#p61a7b34506)">
     <use xlink:href="#C0_0_e608739d56" x="795.079057" y="457.00005" style="fill: none; stroke: #000000; stroke-width: 0.8"/>
    </g>
    <g clip-path="url(#p61a7b34506)">
     <use xlink:href="#C0_0_e608739d56" x="795.079057" y="455.213948" style="fill: none; stroke: #000000; stroke-width: 0.8"/>
    </g>
    <g clip-path="url(#p61a7b34506)">
     <use xlink:href="#C0_0_e608739d56" x="752.924155" y="453.725529" style="fill: none; stroke: #000000; stroke-width: 0.8"/>
    </g>
    <g clip-path="url(#p61a7b34506)">
     <use xlink:href="#C0_0_e608739d56" x="737.007371" y="451.939427" style="fill: none; stroke: #000000; stroke-width: 0.8"/>
    </g>
    <g clip-path="url(#p61a7b34506)">
     <use xlink:href="#C0_0_e608739d56" x="754.247403" y="450.451009" style="fill: none; stroke: #000000; stroke-width: 0.8"/>
    </g>
    <g clip-path="url(#p61a7b34506)">
     <use xlink:href="#C0_0_e608739d56" x="745.135895" y="448.664907" style="fill: none; stroke: #000000; stroke-width: 0.8"/>
    </g>
    <g clip-path="url(#p61a7b34506)">
     <use xlink:href="#C0_0_e608739d56" x="736.100001" y="446.878804" style="fill: none; stroke: #000000; stroke-width: 0.8"/>
    </g>
    <g clip-path="url(#p61a7b34506)">
     <use xlink:href="#C0_0_e608739d56" x="688.6143" y="443.901968" style="fill: none; stroke: #000000; stroke-width: 0.8"/>
    </g>
    <g clip-path="url(#p61a7b34506)">
     <use xlink:href="#C0_0_e608739d56" x="685.722058" y="437.352927" style="fill: none; stroke: #000000; stroke-width: 0.8"/>
    </g>
    <g clip-path="url(#p61a7b34506)">
     <use xlink:href="#C0_0_e608739d56" x="660.032142" y="430.803885" style="fill: none; stroke: #000000; stroke-width: 0.8"/>
    </g>
    <g clip-path="url(#p61a7b34506)">
     <use xlink:href="#C0_0_e608739d56" x="637.801575" y="424.254844" style="fill: none; stroke: #000000; stroke-width: 0.8"/>
    </g>
    <g clip-path="url(#p61a7b34506)">
     <use xlink:href="#C0_0_e608739d56" x="514.248014" y="409.966027" style="fill: none; stroke: #000000; stroke-width: 0.8"/>
    </g>
    <g clip-path="url(#p61a7b34506)">
     <use xlink:href="#C0_0_e608739d56" x="428.955226" y="398.05868" style="fill: none; stroke: #000000; stroke-width: 0.8"/>
    </g>
    <g clip-path="url(#p61a7b34506)">
     <use xlink:href="#C0_0_e608739d56" x="335.533914" y="381.686077" style="fill: none; stroke: #000000; stroke-width: 0.8"/>
    </g>
    <g clip-path="url(#p61a7b34506)">
     <use xlink:href="#C0_0_e608739d56" x="283.908337" y="366.801893" style="fill: none; stroke: #000000; stroke-width: 0.8"/>
    </g>
    <g clip-path="url(#p61a7b34506)">
     <use xlink:href="#C0_0_e608739d56" x="238.672157" y="351.917709" style="fill: none; stroke: #000000; stroke-width: 0.8"/>
    </g>
    <g clip-path="url(#p61a7b34506)">
     <use xlink:href="#C0_0_e608739d56" x="214.418911" y="337.033524" style="fill: none; stroke: #000000; stroke-width: 0.8"/>
    </g>
    <g clip-path="url(#p61a7b34506)">
     <use xlink:href="#C0_0_e608739d56" x="229.900913" y="277.496787" style="fill: none; stroke: #000000; stroke-width: 0.8"/>
    </g>
    <g clip-path="url(#p61a7b34506)">
     <use xlink:href="#C0_0_e608739d56" x="224.097525" y="249.216837" style="fill: none; stroke: #000000; stroke-width: 0.8"/>
    </g>
    <g clip-path="url(#p61a7b34506)">
     <use xlink:href="#C0_0_e608739d56" x="230.392405" y="219.448468" style="fill: none; stroke: #000000; stroke-width: 0.8"/>
    </g>
    <g clip-path="url(#p61a7b34506)">
     <use xlink:href="#C0_0_e608739d56" x="227.80262" y="159.911731" style="fill: none; stroke: #000000; stroke-width: 0.8"/>
    </g>
    <g clip-path="url(#p61a7b34506)">
     <use xlink:href="#C0_0_e608739d56" x="200.27906" y="100.374994" style="fill: none; stroke: #000000; stroke-width: 0.8"/>
    </g>
    <g clip-path="url(#p61a7b34506)">
     <use xlink:href="#C0_0_e608739d56" x="184.853769" y="28.930909" style="fill: none; stroke: #000000; stroke-width: 0.8"/>
    </g>
   </g>
   <g id="PathCollection_4">
    <defs>
     <path id="C1_0_3fba433ef7" d="M -4.12479 -1.767767 
L 4.12479 -1.767767 
L 0 7.071068 
z
M -4.12479 -1.767767 
L 0 2.268046 
M 4.12479 -1.767767 
L 0 2.268046 
M 0 7.071068 
L 0 2.268046 
"/>
    </defs>
    <g clip-path="url(#p61a7b34506)">
     <use xlink:href="#C1_0_3fba433ef7" x="550.372686" y="461.911831" style="fill: none; stroke: #000000; stroke-width: 0.8"/>
    </g>
    <g clip-path="url(#p61a7b34506)">
     <use xlink:href="#C1_0_3fba433ef7" x="560.95867" y="461.078316" style="fill: none; stroke: #000000; stroke-width: 0.8"/>
    </g>
    <g clip-path="url(#p61a7b34506)">
     <use xlink:href="#C1_0_3fba433ef7" x="564.134466" y="460.27457" style="fill: none; stroke: #000000; stroke-width: 0.8"/>
    </g>
    <g clip-path="url(#p61a7b34506)">
     <use xlink:href="#C1_0_3fba433ef7" x="612.981222" y="459.083836" style="fill: none; stroke: #000000; stroke-width: 0.8"/>
    </g>
    <g clip-path="url(#p61a7b34506)">
     <use xlink:href="#C1_0_3fba433ef7" x="573.264877" y="458.190785" style="fill: none; stroke: #000000; stroke-width: 0.8"/>
    </g>
    <g clip-path="url(#p61a7b34506)">
     <use xlink:href="#C1_0_3fba433ef7" x="615.174033" y="457.00005" style="fill: none; stroke: #000000; stroke-width: 0.8"/>
    </g>
    <g clip-path="url(#p61a7b34506)">
     <use xlink:href="#C1_0_3fba433ef7" x="622.225055" y="455.213948" style="fill: none; stroke: #000000; stroke-width: 0.8"/>
    </g>
    <g clip-path="url(#p61a7b34506)">
     <use xlink:href="#C1_0_3fba433ef7" x="628.727874" y="453.725529" style="fill: none; stroke: #000000; stroke-width: 0.8"/>
    </g>
    <g clip-path="url(#p61a7b34506)">
     <use xlink:href="#C1_0_3fba433ef7" x="643.756191" y="451.939427" style="fill: none; stroke: #000000; stroke-width: 0.8"/>
    </g>
    <g clip-path="url(#p61a7b34506)">
     <use xlink:href="#C1_0_3fba433ef7" x="649.899843" y="450.451009" style="fill: none; stroke: #000000; stroke-width: 0.8"/>
    </g>
    <g clip-path="url(#p61a7b34506)">
     <use xlink:href="#C1_0_3fba433ef7" x="666.723996" y="448.664907" style="fill: none; stroke: #000000; stroke-width: 0.8"/>
    </g>
    <g clip-path="url(#p61a7b34506)">
     <use xlink:href="#C1_0_3fba433ef7" x="646.875276" y="446.878804" style="fill: none; stroke: #000000; stroke-width: 0.8"/>
    </g>
    <g clip-path="url(#p61a7b34506)">
     <use xlink:href="#C1_0_3fba433ef7" x="701.449806" y="443.901968" style="fill: none; stroke: #000000; stroke-width: 0.8"/>
    </g>
    <g clip-path="url(#p61a7b34506)">
     <use xlink:href="#C1_0_3fba433ef7" x="866.818005" y="437.352927" style="fill: none; stroke: #000000; stroke-width: 0.8"/>
    </g>
    <g clip-path="url(#p61a7b34506)">
     <use xlink:href="#C1_0_3fba433ef7" x="869.332176" y="430.803885" style="fill: none; stroke: #000000; stroke-width: 0.8"/>
    </g>
    <g clip-path="url(#p61a7b34506)">
     <use xlink:href="#C1_0_3fba433ef7" x="801.033673" y="424.254844" style="fill: none; stroke: #000000; stroke-width: 0.8"/>
    </g>
    <g clip-path="url(#p61a7b34506)">
     <use xlink:href="#C1_0_3fba433ef7" x="773.888185" y="409.966027" style="fill: none; stroke: #000000; stroke-width: 0.8"/>
    </g>
    <g clip-path="url(#p61a7b34506)">
     <use xlink:href="#C1_0_3fba433ef7" x="748.784279" y="398.05868" style="fill: none; stroke: #000000; stroke-width: 0.8"/>
    </g>
    <g clip-path="url(#p61a7b34506)">
     <use xlink:href="#C1_0_3fba433ef7" x="817.007167" y="381.686077" style="fill: none; stroke: #000000; stroke-width: 0.8"/>
    </g>
    <g clip-path="url(#p61a7b34506)">
     <use xlink:href="#C1_0_3fba433ef7" x="726.931783" y="366.801893" style="fill: none; stroke: #000000; stroke-width: 0.8"/>
    </g>
    <g clip-path="url(#p61a7b34506)">
     <use xlink:href="#C1_0_3fba433ef7" x="677.725859" y="351.917709" style="fill: none; stroke: #000000; stroke-width: 0.8"/>
    </g>
    <g clip-path="url(#p61a7b34506)">
     <use xlink:href="#C1_0_3fba433ef7" x="660.164467" y="337.033524" style="fill: none; stroke: #000000; stroke-width: 0.8"/>
    </g>
    <g clip-path="url(#p61a7b34506)">
     <use xlink:href="#C1_0_3fba433ef7" x="540.467229" y="277.496787" style="fill: none; stroke: #000000; stroke-width: 0.8"/>
    </g>
    <g clip-path="url(#p61a7b34506)">
     <use xlink:href="#C1_0_3fba433ef7" x="500.750884" y="249.216837" style="fill: none; stroke: #000000; stroke-width: 0.8"/>
    </g>
    <g clip-path="url(#p61a7b34506)">
     <use xlink:href="#C1_0_3fba433ef7" x="389.484627" y="219.448468" style="fill: none; stroke: #000000; stroke-width: 0.8"/>
    </g>
    <g clip-path="url(#p61a7b34506)">
     <use xlink:href="#C1_0_3fba433ef7" x="351.658637" y="159.911731" style="fill: none; stroke: #000000; stroke-width: 0.8"/>
    </g>
    <g clip-path="url(#p61a7b34506)">
     <use xlink:href="#C1_0_3fba433ef7" x="319.88178" y="100.374994" style="fill: none; stroke: #000000; stroke-width: 0.8"/>
    </g>
    <g clip-path="url(#p61a7b34506)">
     <use xlink:href="#C1_0_3fba433ef7" x="344.324062" y="28.930909" style="fill: none; stroke: #000000; stroke-width: 0.8"/>
    </g>
   </g>
   <g id="patch_3">
    <path d="M 93.440322 485.28 
L 93.440322 7.2 
" style="fill: none; stroke: #000000; stroke-width: 0.8; stroke-linejoin: miter; stroke-linecap: square"/>
   </g>
   <g id="patch_4">
    <path d="M 986.240322 485.28 
L 986.240322 7.2 
" style="fill: none; stroke: #000000; stroke-width: 0.8; stroke-linejoin: miter; stroke-linecap: square"/>
   </g>
   <g id="patch_5">
    <path d="M 93.440322 485.28 
L 986.240322 485.28 
" style="fill: none; stroke: #000000; stroke-width: 0.8; stroke-linejoin: miter; stroke-linecap: square"/>
   </g>
   <g id="patch_6">
    <path d="M 93.440322 7.2 
L 986.240322 7.2 
" style="fill: none; stroke: #000000; stroke-width: 0.8; stroke-linejoin: miter; stroke-linecap: square"/>
   </g>
   <g id="legend_1">
    <g id="patch_7">
     <path d="M 436.764947 134.702534 
L 972.240322 134.702534 
Q 976.240322 134.702534 976.240322 130.702534 
L 976.240322 21.2 
Q 976.240322 17.2 972.240322 17.2 
L 436.764947 17.2 
Q 432.764947 17.2 432.764947 21.2 
L 432.764947 130.702534 
Q 432.764947 134.702534 436.764947 134.702534 
z
" style="fill: #ffffff; opacity: 0.8; stroke: #cccccc; stroke-linejoin: miter"/>
    </g>
    <g id="line2d_31">
     <path d="M 440.764947 32.2 
L 460.764947 32.2 
L 480.764947 32.2 
" style="fill: none; stroke: #000000; stroke-width: 1.2; stroke-linecap: square"/>
    </g>
    <g id="text_16">
     <!-- $\omega t = 0\:\unit{\degree}$ - - Model -->
     <g transform="translate(496.764947 39.2) scale(0.2 -0.2)">
      <defs>
       <path id="CMMI12-21" d="M 3802 2395 
C 3802 2580 3750 2816 3526 2816 
C 3398 2816 3251 2657 3251 2529 
C 3251 2472 3277 2434 3328 2376 
C 3424 2268 3546 2096 3546 1797 
C 3546 1567 3405 1204 3302 1007 
C 3123 656 2829 357 2496 357 
C 2093 357 1939 615 1869 975 
C 1939 1143 2086 1560 2086 1728 
C 2086 1798 2061 1856 1978 1856 
C 1933 1856 1882 1831 1850 1779 
C 1760 1638 1677 1129 1683 994 
C 1562 756 1216 357 806 357 
C 378 357 262 733 262 1096 
C 262 1758 678 2338 794 2497 
C 858 2593 902 2657 902 2669 
C 902 2714 877 2784 819 2784 
C 717 2784 685 2701 634 2625 
C 307 2121 77 1414 77 803 
C 77 408 224 -64 704 -64 
C 1235 -64 1568 391 1702 634 
C 1754 275 1946 -64 2413 -64 
C 2899 -64 3206 363 3437 879 
C 3603 1249 3802 2045 3802 2395 
z
" transform="scale(0.015625)"/>
       <path id="CMMI12-74" d="M 1286 2566 
L 1875 2566 
C 1997 2566 2061 2566 2061 2681 
C 2061 2752 2022 2752 1894 2752 
L 1331 2752 
L 1568 3692 
C 1594 3781 1594 3794 1594 3840 
C 1594 3943 1510 4000 1427 4000 
C 1376 4000 1229 3981 1178 3775 
L 928 2752 
L 326 2752 
C 198 2752 141 2752 141 2630 
C 141 2566 186 2566 307 2566 
L 877 2566 
L 454 881 
C 403 658 384 594 384 511 
C 384 211 595 -64 954 -64 
C 1600 -64 1946 868 1946 912 
C 1946 951 1920 970 1882 970 
C 1869 970 1843 970 1830 944 
C 1824 938 1818 931 1773 829 
C 1638 511 1344 64 973 64 
C 781 64 768 224 768 364 
C 768 370 768 492 787 568 
L 1286 2566 
z
" transform="scale(0.015625)"/>
       <path id="CMR17-3d" d="M 4115 2017 
C 4211 2017 4307 2017 4307 2125 
C 4307 2240 4198 2240 4090 2240 
L 512 2240 
C 403 2240 294 2240 294 2125 
C 294 2017 390 2017 486 2017 
L 4115 2017 
z
M 4090 896 
C 4198 896 4307 896 4307 1011 
C 4307 1119 4211 1119 4115 1119 
L 486 1119 
C 390 1119 294 1119 294 1011 
C 294 896 403 896 512 896 
L 4090 896 
z
" transform="scale(0.015625)"/>
       <path id="CMSY10-e" d="M 2842 1600 
C 2842 2277 2272 2828 1600 2828 
C 909 2828 352 2264 352 1600 
C 352 930 909 372 1600 372 
C 2272 372 2842 923 2842 1600 
z
M 1600 628 
C 1043 628 608 1070 608 1600 
C 608 2130 1050 2572 1600 2572 
C 2131 2572 2586 2142 2586 1600 
C 2586 1058 2131 628 1600 628 
z
" transform="scale(0.015625)"/>
       <path id="CMR17-7b" d="M 2970 1664 
L 2970 1766 
L -38 1766 
L -38 1664 
L 2970 1664 
z
" transform="scale(0.015625)"/>
       <path id="CMR17-4d" d="M 1338 4224 
C 1299 4320 1293 4320 1158 4320 
L 339 4320 
L 339 4160 
C 781 4160 851 4160 851 3875 
L 851 610 
C 851 451 851 153 339 153 
L 339 -13 
C 486 0 755 0 915 0 
C 1075 0 1344 0 1491 -13 
L 1491 153 
C 979 153 979 451 979 610 
L 979 4135 
L 986 4135 
L 2490 89 
C 2515 25 2528 -13 2579 -13 
C 2630 -13 2643 25 2669 89 
L 4186 4166 
L 4192 4166 
L 4192 438 
C 4192 153 4122 153 3680 153 
L 3680 -13 
C 3853 0 4198 0 4384 0 
C 4570 0 4922 0 5094 -13 
L 5094 153 
C 4653 153 4582 153 4582 438 
L 4582 3875 
C 4582 4160 4653 4160 5094 4160 
L 5094 4320 
L 4282 4320 
C 4147 4320 4141 4314 4102 4218 
L 2720 502 
L 1338 4224 
z
" transform="scale(0.015625)"/>
       <path id="CMR17-6f" d="M 2758 1356 
C 2758 2176 2163 2816 1466 2816 
C 768 2816 173 2176 173 1356 
C 173 551 768 -64 1466 -64 
C 2163 -64 2758 551 2758 1356 
z
M 1466 51 
C 1165 51 909 230 762 480 
C 602 767 582 1126 582 1408 
C 582 1677 595 2010 762 2298 
C 890 2509 1139 2714 1466 2714 
C 1754 2714 1997 2554 2150 2330 
C 2349 2029 2349 1607 2349 1408 
C 2349 1158 2336 775 2163 467 
C 1984 173 1709 51 1466 51 
z
" transform="scale(0.015625)"/>
       <path id="CMR17-64" d="M 1869 4326 
L 1869 4160 
C 2246 4160 2304 4122 2304 3820 
L 2304 2345 
C 2278 2377 2016 2790 1498 2790 
C 845 2790 211 2208 211 1364 
C 211 525 806 -64 1434 -64 
C 1978 -64 2259 337 2291 380 
L 2291 -63 
L 3066 -63 
L 3066 128 
C 2688 128 2630 166 2630 473 
L 2630 4396 
L 1869 4326 
z
M 2291 755 
C 2291 563 2176 390 2029 262 
C 1811 70 1594 38 1472 38 
C 1286 38 621 134 621 1356 
C 621 2612 1363 2688 1530 2688 
C 1824 2688 2061 2522 2208 2291 
C 2291 2157 2291 2138 2291 2023 
L 2291 755 
z
" transform="scale(0.015625)"/>
       <path id="CMR17-65" d="M 2438 1472 
C 2464 1498 2464 1511 2464 1576 
C 2464 2238 2118 2816 1389 2816 
C 710 2816 173 2169 173 1383 
C 173 551 781 -64 1459 -64 
C 2176 -64 2458 607 2458 740 
C 2458 784 2419 784 2406 784 
C 2362 784 2355 771 2330 696 
C 2189 265 1837 51 1504 51 
C 1229 51 954 203 781 480 
C 582 803 582 1176 582 1472 
L 2438 1472 
z
M 589 1568 
C 634 2505 1126 2714 1382 2714 
C 1818 2714 2112 2297 2118 1568 
L 589 1568 
z
" transform="scale(0.015625)"/>
       <path id="CMR17-6c" d="M 979 4396 
L 218 4326 
L 218 4160 
C 595 4160 653 4122 653 3817 
L 653 426 
C 653 184 627 153 218 153 
L 218 -13 
C 371 0 653 0 813 0 
C 979 0 1261 0 1414 -13 
L 1414 153 
C 1005 153 979 178 979 426 
L 979 4396 
z
" transform="scale(0.015625)"/>
      </defs>
      <use xlink:href="#CMMI12-21" transform="scale(0.996264)"/>
      <use xlink:href="#CMMI12-74" transform="translate(64.318346 0) scale(0.996264)"/>
      <use xlink:href="#CMR17-3d" transform="translate(127.218685 0) scale(0.996264)"/>
      <use xlink:href="#CMR17-30" transform="translate(226.607482 0) scale(0.996264)"/>
      <use xlink:href="#CMSY10-e" transform="translate(294.437166 36.153639) scale(0.697382)"/>
      <use xlink:href="#CMR17-7b" transform="translate(359.880474 0) scale(0.996264)"/>
      <use xlink:href="#CMR17-4d" transform="translate(435.646918 0) scale(0.996264)"/>
      <use xlink:href="#CMR17-6f" transform="translate(520.333859 0) scale(0.996264)"/>
      <use xlink:href="#CMR17-64" transform="translate(568.626774 0) scale(0.996264)"/>
      <use xlink:href="#CMR17-65" transform="translate(619.522144 0) scale(0.996264)"/>
      <use xlink:href="#CMR17-6c" transform="translate(660.007805 0) scale(0.996264)"/>
     </g>
    </g>
    <g id="line2d_32">
     <path d="M 440.764947 60.075634 
L 460.764947 60.075634 
L 480.764947 60.075634 
" style="fill: none; stroke-dasharray: 4.44,1.92; stroke-dashoffset: 0; stroke: #000000; stroke-width: 1.2"/>
    </g>
    <g id="text_17">
     <!-- $\omega t = 45\:\unit{\degree}$ - - Model -->
     <g transform="translate(496.764947 67.075634) scale(0.2 -0.2)">
      <use xlink:href="#CMMI12-21" transform="scale(0.996264)"/>
      <use xlink:href="#CMMI12-74" transform="translate(64.318346 0) scale(0.996264)"/>
      <use xlink:href="#CMR17-3d" transform="translate(127.218685 0) scale(0.996264)"/>
      <use xlink:href="#CMR17-34" transform="translate(226.607482 0) scale(0.996264)"/>
      <use xlink:href="#CMR17-35" transform="translate(272.297959 0) scale(0.996264)"/>
      <use xlink:href="#CMSY10-e" transform="translate(340.127643 36.153639) scale(0.697382)"/>
      <use xlink:href="#CMR17-7b" transform="translate(405.570952 0) scale(0.996264)"/>
      <use xlink:href="#CMR17-4d" transform="translate(481.337395 0) scale(0.996264)"/>
      <use xlink:href="#CMR17-6f" transform="translate(566.024336 0) scale(0.996264)"/>
      <use xlink:href="#CMR17-64" transform="translate(614.317251 0) scale(0.996264)"/>
      <use xlink:href="#CMR17-65" transform="translate(665.212621 0) scale(0.996264)"/>
      <use xlink:href="#CMR17-6c" transform="translate(705.698282 0) scale(0.996264)"/>
     </g>
    </g>
    <g id="line2d_33">
     <path d="M 440.764947 87.951267 
L 460.764947 87.951267 
L 480.764947 87.951267 
" style="fill: none; stroke-dasharray: 8.32,2.08,1.3,2.08; stroke-dashoffset: 0; stroke: #000000; stroke-width: 1.3"/>
    </g>
    <g id="text_18">
     <!-- $\omega t = 90\:\unit{\degree}$ - - Model -->
     <g transform="translate(496.764947 94.951267) scale(0.2 -0.2)">
      <defs>
       <path id="CMR17-39" d="M 2253 1864 
C 2253 464 1670 31 1190 31 
C 1043 31 685 31 538 294 
C 704 268 826 357 826 518 
C 826 692 685 749 595 749 
C 538 749 365 723 365 506 
C 365 71 742 -128 1203 -128 
C 1939 -128 2688 674 2688 2073 
C 2688 3817 1971 4179 1485 4179 
C 851 4179 243 3628 243 2778 
C 243 1991 762 1408 1414 1408 
C 1952 1408 2189 1903 2253 2112 
L 2253 1864 
z
M 1427 1510 
C 1254 1510 1011 1542 813 1922 
C 678 2169 678 2461 678 2771 
C 678 3146 678 3405 858 3684 
C 947 3817 1114 4032 1485 4032 
C 2240 4032 2240 2885 2240 2632 
C 2240 2182 2035 1510 1427 1510 
z
" transform="scale(0.015625)"/>
      </defs>
      <use xlink:href="#CMMI12-21" transform="scale(0.996264)"/>
      <use xlink:href="#CMMI12-74" transform="translate(64.318346 0) scale(0.996264)"/>
      <use xlink:href="#CMR17-3d" transform="translate(127.218685 0) scale(0.996264)"/>
      <use xlink:href="#CMR17-39" transform="translate(226.607482 0) scale(0.996264)"/>
      <use xlink:href="#CMR17-30" transform="translate(272.297959 0) scale(0.996264)"/>
      <use xlink:href="#CMSY10-e" transform="translate(340.127643 36.153639) scale(0.697382)"/>
      <use xlink:href="#CMR17-7b" transform="translate(405.570952 0) scale(0.996264)"/>
      <use xlink:href="#CMR17-4d" transform="translate(481.337395 0) scale(0.996264)"/>
      <use xlink:href="#CMR17-6f" transform="translate(566.024336 0) scale(0.996264)"/>
      <use xlink:href="#CMR17-64" transform="translate(614.317251 0) scale(0.996264)"/>
      <use xlink:href="#CMR17-65" transform="translate(665.212621 0) scale(0.996264)"/>
      <use xlink:href="#CMR17-6c" transform="translate(705.698282 0) scale(0.996264)"/>
     </g>
    </g>
    <g id="line2d_34">
     <path d="M 440.764947 115.826901 
L 460.764947 115.826901 
L 480.764947 115.826901 
" style="fill: none; stroke-dasharray: 1.8,2.97; stroke-dashoffset: 0; stroke: #000000; stroke-width: 1.8"/>
    </g>
    <g id="text_19">
     <!-- $\omega t = 135\:\unit{\degree}$ - - Model -->
     <g transform="translate(496.764947 122.826901) scale(0.2 -0.2)">
      <use xlink:href="#CMMI12-21" transform="scale(0.996264)"/>
      <use xlink:href="#CMMI12-74" transform="translate(64.318346 0) scale(0.996264)"/>
      <use xlink:href="#CMR17-3d" transform="translate(127.218685 0) scale(0.996264)"/>
      <use xlink:href="#CMR17-31" transform="translate(226.607482 0) scale(0.996264)"/>
      <use xlink:href="#CMR17-33" transform="translate(272.297959 0) scale(0.996264)"/>
      <use xlink:href="#CMR17-35" transform="translate(317.988436 0) scale(0.996264)"/>
      <use xlink:href="#CMSY10-e" transform="translate(385.81812 36.153639) scale(0.697382)"/>
      <use xlink:href="#CMR17-7b" transform="translate(451.261429 0) scale(0.996264)"/>
      <use xlink:href="#CMR17-4d" transform="translate(527.027872 0) scale(0.996264)"/>
      <use xlink:href="#CMR17-6f" transform="translate(611.714813 0) scale(0.996264)"/>
      <use xlink:href="#CMR17-64" transform="translate(660.007729 0) scale(0.996264)"/>
      <use xlink:href="#CMR17-65" transform="translate(710.903098 0) scale(0.996264)"/>
      <use xlink:href="#CMR17-6c" transform="translate(751.388759 0) scale(0.996264)"/>
     </g>
    </g>
    <g id="PathCollection_5">
     <g>
      <use xlink:href="#mc405badef5" x="712.415191" y="33.95" style="stroke: #000000; stroke-width: 1.2"/>
     </g>
    </g>
    <g id="text_20">
     <!-- $\omega t = 0\:\unit{\degree}$ - - Measurements -->
     <g transform="translate(748.415191 39.2) scale(0.2 -0.2)">
      <defs>
       <path id="CMR17-61" d="M 2304 1653 
C 2304 2072 2304 2294 2035 2543 
C 1798 2752 1523 2816 1306 2816 
C 800 2816 435 2407 435 1971 
C 435 1728 627 1728 666 1728 
C 749 1728 896 1778 896 1954 
C 896 2112 774 2181 666 2181 
C 640 2181 608 2174 589 2168 
C 723 2592 1069 2714 1293 2714 
C 1613 2714 1965 2429 1965 1885 
L 1965 1600 
C 1587 1600 1133 1549 774 1357 
C 371 1133 256 813 256 570 
C 256 77 832 -64 1171 -64 
C 1523 -64 1850 139 1990 511 
C 2003 233 2182 -18 2464 -18 
C 2598 -18 2938 70 2938 567 
L 2938 920 
L 2822 920 
L 2822 562 
C 2822 178 2650 128 2566 128 
C 2304 128 2304 458 2304 738 
L 2304 1653 
z
M 1965 870 
C 1965 317 1568 38 1216 38 
C 896 38 646 275 646 570 
C 646 761 730 1100 1101 1305 
C 1408 1478 1760 1504 1965 1504 
L 1965 870 
z
" transform="scale(0.015625)"/>
       <path id="CMR17-73" d="M 1978 2697 
C 1978 2813 1971 2819 1933 2819 
C 1907 2819 1901 2813 1824 2717 
C 1805 2691 1747 2626 1728 2601 
C 1523 2819 1235 2819 1126 2819 
C 416 2819 160 2447 160 2076 
C 160 1498 813 1365 998 1325 
C 1402 1243 1542 1217 1677 1101 
C 1760 1025 1901 884 1901 654 
C 1901 384 1747 38 1158 38 
C 602 38 403 460 288 1021 
C 269 1110 269 1117 218 1117 
C 166 1117 160 1110 160 983 
L 160 63 
C 160 -51 166 -58 205 -58 
C 237 -58 243 -51 275 0 
C 314 57 410 211 448 276 
C 576 103 800 -64 1158 -64 
C 1792 -64 2131 283 2131 784 
C 2131 1112 1958 1285 1875 1362 
C 1683 1561 1459 1606 1190 1657 
C 838 1735 390 1825 390 2217 
C 390 2383 480 2737 1126 2737 
C 1811 2737 1850 2094 1862 1888 
C 1869 1856 1901 1849 1920 1849 
C 1978 1849 1978 1869 1978 1978 
L 1978 2697 
z
" transform="scale(0.015625)"/>
       <path id="CMR17-75" d="M 1882 2693 
L 1882 2528 
C 2259 2528 2317 2489 2317 2186 
L 2317 1032 
C 2317 500 2029 38 1555 38 
C 1030 38 986 348 986 678 
L 986 2763 
L 211 2693 
L 211 2528 
C 467 2528 640 2528 646 2274 
L 646 1058 
C 646 633 646 361 813 183 
C 896 101 1056 -64 1517 -64 
C 2061 -64 2272 377 2323 506 
L 2330 506 
L 2330 -63 
L 3091 -63 
L 3091 128 
C 2714 128 2656 166 2656 473 
L 2656 2763 
L 1882 2693 
z
" transform="scale(0.015625)"/>
       <path id="CMR17-72" d="M 960 1497 
C 960 2112 1222 2688 1702 2688 
C 1747 2688 1792 2682 1837 2662 
C 1837 2662 1696 2617 1696 2452 
C 1696 2298 1818 2234 1914 2234 
C 1990 2234 2131 2279 2131 2458 
C 2131 2663 1926 2790 1709 2790 
C 1222 2790 1011 2317 947 2093 
L 941 2093 
L 941 2790 
L 198 2720 
L 198 2554 
C 576 2554 634 2515 634 2208 
L 634 428 
C 634 184 608 153 198 153 
L 198 -13 
C 352 0 646 0 813 0 
C 998 0 1325 0 1498 -13 
L 1498 153 
C 1037 153 960 153 960 440 
L 960 1497 
z
" transform="scale(0.015625)"/>
       <path id="CMR17-6d" d="M 4326 1933 
C 4326 2252 4269 2790 3507 2790 
C 3072 2790 2771 2496 2656 2151 
L 2650 2151 
C 2573 2676 2195 2790 1837 2790 
C 1331 2790 1069 2400 973 2144 
L 966 2144 
L 966 2790 
L 211 2720 
L 211 2554 
C 589 2554 646 2515 646 2208 
L 646 428 
C 646 184 621 153 211 153 
L 211 -13 
C 365 0 646 0 813 0 
C 979 0 1267 0 1421 -13 
L 1421 153 
C 1011 153 986 178 986 428 
L 986 1658 
C 986 2247 1344 2688 1792 2688 
C 2266 2688 2317 2266 2317 1958 
L 2317 428 
C 2317 184 2291 153 1882 153 
L 1882 -13 
C 2035 0 2317 0 2483 0 
C 2650 0 2938 0 3091 -13 
L 3091 153 
C 2682 153 2656 178 2656 428 
L 2656 1658 
C 2656 2247 3014 2688 3462 2688 
C 3936 2688 3987 2266 3987 1958 
L 3987 428 
C 3987 184 3962 153 3552 153 
L 3552 -13 
C 3706 0 3987 0 4154 0 
C 4320 0 4608 0 4762 -13 
L 4762 153 
C 4352 153 4326 178 4326 428 
L 4326 1933 
z
" transform="scale(0.015625)"/>
       <path id="CMR17-6e" d="M 2656 1933 
C 2656 2259 2592 2790 1837 2790 
C 1331 2790 1069 2400 973 2144 
L 966 2144 
L 966 2790 
L 211 2720 
L 211 2554 
C 589 2554 646 2515 646 2208 
L 646 428 
C 646 184 621 153 211 153 
L 211 -13 
C 365 0 646 0 813 0 
C 979 0 1267 0 1421 -13 
L 1421 153 
C 1011 153 986 178 986 428 
L 986 1658 
C 986 2247 1344 2688 1792 2688 
C 2266 2688 2317 2266 2317 1958 
L 2317 428 
C 2317 184 2291 153 1882 153 
L 1882 -13 
C 2035 0 2317 0 2483 0 
C 2650 0 2938 0 3091 -13 
L 3091 153 
C 2682 153 2656 178 2656 428 
L 2656 1933 
z
" transform="scale(0.015625)"/>
       <path id="CMR17-74" d="M 966 2560 
L 1862 2560 
L 1862 2725 
L 966 2725 
L 966 3904 
L 851 3904 
C 838 3245 614 2668 70 2668 
L 70 2560 
L 627 2560 
L 627 771 
C 627 650 627 -64 1370 -64 
C 1747 -64 1965 306 1965 777 
L 1965 1140 
L 1850 1140 
L 1850 783 
C 1850 344 1677 51 1408 51 
C 1222 51 966 178 966 758 
L 966 2560 
z
" transform="scale(0.015625)"/>
      </defs>
      <use xlink:href="#CMMI12-21" transform="scale(0.996264)"/>
      <use xlink:href="#CMMI12-74" transform="translate(64.318346 0) scale(0.996264)"/>
      <use xlink:href="#CMR17-3d" transform="translate(127.218685 0) scale(0.996264)"/>
      <use xlink:href="#CMR17-30" transform="translate(226.607482 0) scale(0.996264)"/>
      <use xlink:href="#CMSY10-e" transform="translate(294.437166 36.153639) scale(0.697382)"/>
      <use xlink:href="#CMR17-7b" transform="translate(359.880474 0) scale(0.996264)"/>
      <use xlink:href="#CMR17-4d" transform="translate(435.646918 0) scale(0.996264)"/>
      <use xlink:href="#CMR17-65" transform="translate(520.333859 0) scale(0.996264)"/>
      <use xlink:href="#CMR17-61" transform="translate(560.819519 0) scale(0.996264)"/>
      <use xlink:href="#CMR17-73" transform="translate(606.509996 0) scale(0.996264)"/>
      <use xlink:href="#CMR17-75" transform="translate(642.311334 0) scale(0.996264)"/>
      <use xlink:href="#CMR17-72" transform="translate(693.206703 0) scale(0.996264)"/>
      <use xlink:href="#CMR17-65" transform="translate(728.487471 0) scale(0.996264)"/>
      <use xlink:href="#CMR17-6d" transform="translate(768.973132 0) scale(0.996264)"/>
      <use xlink:href="#CMR17-65" transform="translate(845.892722 0) scale(0.996264)"/>
      <use xlink:href="#CMR17-6e" transform="translate(886.378382 0) scale(0.996264)"/>
      <use xlink:href="#CMR17-74" transform="translate(934.671298 0) scale(0.996264)"/>
      <use xlink:href="#CMR17-73" transform="translate(969.952066 0) scale(0.996264)"/>
     </g>
    </g>
    <g id="PathCollection_6">
     <g>
      <use xlink:href="#m3c8402029e" x="712.415191" y="61.825634" style="stroke: #000000; stroke-width: 1.2"/>
     </g>
    </g>
    <g id="text_21">
     <!-- $\omega t = 45\:\unit{\degree}$ - - Measurements -->
     <g transform="translate(748.415191 67.075634) scale(0.2 -0.2)">
      <use xlink:href="#CMMI12-21" transform="scale(0.996264)"/>
      <use xlink:href="#CMMI12-74" transform="translate(64.318346 0) scale(0.996264)"/>
      <use xlink:href="#CMR17-3d" transform="translate(127.218685 0) scale(0.996264)"/>
      <use xlink:href="#CMR17-34" transform="translate(226.607482 0) scale(0.996264)"/>
      <use xlink:href="#CMR17-35" transform="translate(272.297959 0) scale(0.996264)"/>
      <use xlink:href="#CMSY10-e" transform="translate(340.127643 36.153639) scale(0.697382)"/>
      <use xlink:href="#CMR17-7b" transform="translate(405.570952 0) scale(0.996264)"/>
      <use xlink:href="#CMR17-4d" transform="translate(481.337395 0) scale(0.996264)"/>
      <use xlink:href="#CMR17-65" transform="translate(566.024336 0) scale(0.996264)"/>
      <use xlink:href="#CMR17-61" transform="translate(606.509996 0) scale(0.996264)"/>
      <use xlink:href="#CMR17-73" transform="translate(652.200473 0) scale(0.996264)"/>
      <use xlink:href="#CMR17-75" transform="translate(688.001811 0) scale(0.996264)"/>
      <use xlink:href="#CMR17-72" transform="translate(738.897181 0) scale(0.996264)"/>
      <use xlink:href="#CMR17-65" transform="translate(774.177948 0) scale(0.996264)"/>
      <use xlink:href="#CMR17-6d" transform="translate(814.663609 0) scale(0.996264)"/>
      <use xlink:href="#CMR17-65" transform="translate(891.583199 0) scale(0.996264)"/>
      <use xlink:href="#CMR17-6e" transform="translate(932.068859 0) scale(0.996264)"/>
      <use xlink:href="#CMR17-74" transform="translate(980.361775 0) scale(0.996264)"/>
      <use xlink:href="#CMR17-73" transform="translate(1015.642543 0) scale(0.996264)"/>
     </g>
    </g>
    <g id="PathCollection_7">
     <path d="M 708.17255 89.701267 
L 712.415191 82.630199 
L 716.657832 89.701267 
L 712.415191 96.772335 
L 708.17255 89.701267 
z
M 708.17255 89.701267 
L 716.657832 89.701267 
M 712.415191 82.630199 
L 712.415191 96.772335 
" style="fill: none; stroke: #000000; stroke-width: 0.8"/>
    </g>
    <g id="text_22">
     <!-- $\omega t = 90\:\unit{\degree}$ - - Measurements -->
     <g transform="translate(748.415191 94.951267) scale(0.2 -0.2)">
      <use xlink:href="#CMMI12-21" transform="scale(0.996264)"/>
      <use xlink:href="#CMMI12-74" transform="translate(64.318346 0) scale(0.996264)"/>
      <use xlink:href="#CMR17-3d" transform="translate(127.218685 0) scale(0.996264)"/>
      <use xlink:href="#CMR17-39" transform="translate(226.607482 0) scale(0.996264)"/>
      <use xlink:href="#CMR17-30" transform="translate(272.297959 0) scale(0.996264)"/>
      <use xlink:href="#CMSY10-e" transform="translate(340.127643 36.153639) scale(0.697382)"/>
      <use xlink:href="#CMR17-7b" transform="translate(405.570952 0) scale(0.996264)"/>
      <use xlink:href="#CMR17-4d" transform="translate(481.337395 0) scale(0.996264)"/>
      <use xlink:href="#CMR17-65" transform="translate(566.024336 0) scale(0.996264)"/>
      <use xlink:href="#CMR17-61" transform="translate(606.509996 0) scale(0.996264)"/>
      <use xlink:href="#CMR17-73" transform="translate(652.200473 0) scale(0.996264)"/>
      <use xlink:href="#CMR17-75" transform="translate(688.001811 0) scale(0.996264)"/>
      <use xlink:href="#CMR17-72" transform="translate(738.897181 0) scale(0.996264)"/>
      <use xlink:href="#CMR17-65" transform="translate(774.177948 0) scale(0.996264)"/>
      <use xlink:href="#CMR17-6d" transform="translate(814.663609 0) scale(0.996264)"/>
      <use xlink:href="#CMR17-65" transform="translate(891.583199 0) scale(0.996264)"/>
      <use xlink:href="#CMR17-6e" transform="translate(932.068859 0) scale(0.996264)"/>
      <use xlink:href="#CMR17-74" transform="translate(980.361775 0) scale(0.996264)"/>
      <use xlink:href="#CMR17-73" transform="translate(1015.642543 0) scale(0.996264)"/>
     </g>
    </g>
    <g id="PathCollection_8">
     <path d="M 708.290402 115.809134 
L 716.539981 115.809134 
L 712.415191 124.647969 
L 708.290402 115.809134 
z
M 708.290402 115.809134 
L 712.415191 119.844947 
M 716.539981 115.809134 
L 712.415191 119.844947 
M 712.415191 124.647969 
L 712.415191 119.844947 
" style="fill: none; stroke: #000000; stroke-width: 0.8"/>
    </g>
    <g id="text_23">
     <!-- $\omega t = 135\:\unit{\degree}$ - - Measurements -->
     <g transform="translate(748.415191 122.826901) scale(0.2 -0.2)">
      <use xlink:href="#CMMI12-21" transform="scale(0.996264)"/>
      <use xlink:href="#CMMI12-74" transform="translate(64.318346 0) scale(0.996264)"/>
      <use xlink:href="#CMR17-3d" transform="translate(127.218685 0) scale(0.996264)"/>
      <use xlink:href="#CMR17-31" transform="translate(226.607482 0) scale(0.996264)"/>
      <use xlink:href="#CMR17-33" transform="translate(272.297959 0) scale(0.996264)"/>
      <use xlink:href="#CMR17-35" transform="translate(317.988436 0) scale(0.996264)"/>
      <use xlink:href="#CMSY10-e" transform="translate(385.81812 36.153639) scale(0.697382)"/>
      <use xlink:href="#CMR17-7b" transform="translate(451.261429 0) scale(0.996264)"/>
      <use xlink:href="#CMR17-4d" transform="translate(527.027872 0) scale(0.996264)"/>
      <use xlink:href="#CMR17-65" transform="translate(611.714813 0) scale(0.996264)"/>
      <use xlink:href="#CMR17-61" transform="translate(652.200473 0) scale(0.996264)"/>
      <use xlink:href="#CMR17-73" transform="translate(697.89095 0) scale(0.996264)"/>
      <use xlink:href="#CMR17-75" transform="translate(733.692288 0) scale(0.996264)"/>
      <use xlink:href="#CMR17-72" transform="translate(784.587658 0) scale(0.996264)"/>
      <use xlink:href="#CMR17-65" transform="translate(819.868426 0) scale(0.996264)"/>
      <use xlink:href="#CMR17-6d" transform="translate(860.354086 0) scale(0.996264)"/>
      <use xlink:href="#CMR17-65" transform="translate(937.273676 0) scale(0.996264)"/>
      <use xlink:href="#CMR17-6e" transform="translate(977.759336 0) scale(0.996264)"/>
      <use xlink:href="#CMR17-74" transform="translate(1026.052252 0) scale(0.996264)"/>
      <use xlink:href="#CMR17-73" transform="translate(1061.33302 0) scale(0.996264)"/>
     </g>
    </g>
   </g>
  </g>
 </g>
 <defs>
  <clipPath id="p61a7b34506">
   <rect x="93.440322" y="7.2" width="892.8" height="478.08"/>
  </clipPath>
 </defs>
</svg>
