<?xml version="1.0" encoding="utf-8" standalone="no"?>
<!DOCTYPE svg PUBLIC "-//W3C//DTD SVG 1.1//EN"
  "http://www.w3.org/Graphics/SVG/1.1/DTD/svg11.dtd">
<svg xmlns:xlink="http://www.w3.org/1999/xlink" width="999.799714pt" height="563.555966pt" viewBox="0 0 999.799714 563.555966" xmlns="http://www.w3.org/2000/svg" version="1.1">
 <metadata>
  <rdf:RDF xmlns:dc="http://purl.org/dc/elements/1.1/" xmlns:cc="http://creativecommons.org/ns#" xmlns:rdf="http://www.w3.org/1999/02/22-rdf-syntax-ns#">
   <cc:Work>
    <dc:type rdf:resource="http://purl.org/dc/dcmitype/StillImage"/>
    <dc:date>2024-10-12T15:48:12.642431</dc:date>
    <dc:format>image/svg+xml</dc:format>
    <dc:creator>
     <cc:Agent>
      <dc:title>Matplotlib v3.8.4, https://matplotlib.org/</dc:title>
     </cc:Agent>
    </dc:creator>
   </cc:Work>
  </rdf:RDF>
 </metadata>
 <defs>
  <style type="text/css">*{stroke-linejoin: round; stroke-linecap: butt}</style>
 </defs>
 <g id="figure_1">
  <g id="patch_1">
   <path d="M 0 563.555966 
L 999.799714 563.555966 
L 999.799714 0 
L 0 0 
z
" style="fill: #ffffff"/>
  </g>
  <g id="axes_1">
   <g id="patch_2">
    <path d="M 99.799714 485.28 
L 992.599714 485.28 
L 992.599714 7.2 
L 99.799714 7.2 
z
" style="fill: #ffffff"/>
   </g>
   <g id="matplotlib.axis_1">
    <g id="xtick_1">
     <g id="line2d_1">
      <path d="M 140.381532 485.28 
L 140.381532 7.2 
" clip-path="url(#p86f7b1b325)" style="fill: none; stroke: #b0b0b0; stroke-width: 0.8; stroke-linecap: square"/>
     </g>
     <g id="line2d_2">
      <defs>
       <path id="m27d9b6bd6e" d="M 0 0 
L 0 3.5 
" style="stroke: #000000; stroke-width: 0.8"/>
      </defs>
      <g>
       <use xlink:href="#m27d9b6bd6e" x="140.381532" y="485.28" style="stroke: #000000; stroke-width: 0.8"/>
      </g>
     </g>
     <g id="text_1">
      <!-- $\mathdefault{0.00}$ -->
      <g transform="translate(123.964671 507.616997) scale(0.2 -0.2)">
       <defs>
        <path id="CMR17-30" d="M 2688 2025 
C 2688 2416 2682 3080 2413 3591 
C 2176 4039 1798 4198 1466 4198 
C 1158 4198 768 4058 525 3597 
C 269 3118 243 2524 243 2025 
C 243 1661 250 1106 448 619 
C 723 -39 1216 -128 1466 -128 
C 1760 -128 2208 -7 2470 600 
C 2662 1042 2688 1559 2688 2025 
z
M 1466 -26 
C 1056 -26 813 325 723 812 
C 653 1188 653 1738 653 2096 
C 653 2588 653 2997 736 3387 
C 858 3929 1216 4096 1466 4096 
C 1728 4096 2067 3923 2189 3400 
C 2272 3036 2278 2607 2278 2096 
C 2278 1680 2278 1169 2202 792 
C 2067 95 1690 -26 1466 -26 
z
" transform="scale(0.015625)"/>
        <path id="CMMI12-3a" d="M 1178 307 
C 1178 492 1024 619 870 619 
C 685 619 557 466 557 313 
C 557 128 710 0 864 0 
C 1050 0 1178 153 1178 307 
z
" transform="scale(0.015625)"/>
       </defs>
       <use xlink:href="#CMR17-30" transform="scale(0.996264)"/>
       <use xlink:href="#CMMI12-3a" transform="translate(45.690477 0) scale(0.996264)"/>
       <use xlink:href="#CMR17-30" transform="translate(72.787654 0) scale(0.996264)"/>
       <use xlink:href="#CMR17-30" transform="translate(118.478131 0) scale(0.996264)"/>
      </g>
     </g>
    </g>
    <g id="xtick_2">
     <g id="line2d_3">
      <path d="M 290.49111 485.28 
L 290.49111 7.2 
" clip-path="url(#p86f7b1b325)" style="fill: none; stroke: #b0b0b0; stroke-width: 0.8; stroke-linecap: square"/>
     </g>
     <g id="line2d_4">
      <g>
       <use xlink:href="#m27d9b6bd6e" x="290.49111" y="485.28" style="stroke: #000000; stroke-width: 0.8"/>
      </g>
     </g>
     <g id="text_2">
      <!-- $\mathdefault{0.02}$ -->
      <g transform="translate(274.074249 507.616997) scale(0.2 -0.2)">
       <defs>
        <path id="CMR17-32" d="M 2669 989 
L 2554 989 
C 2490 536 2438 459 2413 420 
C 2381 369 1920 369 1830 369 
L 602 369 
C 832 619 1280 1072 1824 1597 
C 2214 1967 2669 2402 2669 3035 
C 2669 3790 2067 4224 1395 4224 
C 691 4224 262 3604 262 3030 
C 262 2780 448 2748 525 2748 
C 589 2748 781 2787 781 3010 
C 781 3207 614 3264 525 3264 
C 486 3264 448 3258 422 3245 
C 544 3790 915 4058 1306 4058 
C 1862 4058 2227 3617 2227 3035 
C 2227 2479 1901 2000 1536 1584 
L 262 146 
L 262 0 
L 2515 0 
L 2669 989 
z
" transform="scale(0.015625)"/>
       </defs>
       <use xlink:href="#CMR17-30" transform="scale(0.996264)"/>
       <use xlink:href="#CMMI12-3a" transform="translate(45.690477 0) scale(0.996264)"/>
       <use xlink:href="#CMR17-30" transform="translate(72.787654 0) scale(0.996264)"/>
       <use xlink:href="#CMR17-32" transform="translate(118.478131 0) scale(0.996264)"/>
      </g>
     </g>
    </g>
    <g id="xtick_3">
     <g id="line2d_5">
      <path d="M 440.600688 485.28 
L 440.600688 7.2 
" clip-path="url(#p86f7b1b325)" style="fill: none; stroke: #b0b0b0; stroke-width: 0.8; stroke-linecap: square"/>
     </g>
     <g id="line2d_6">
      <g>
       <use xlink:href="#m27d9b6bd6e" x="440.600688" y="485.28" style="stroke: #000000; stroke-width: 0.8"/>
      </g>
     </g>
     <g id="text_3">
      <!-- $\mathdefault{0.04}$ -->
      <g transform="translate(424.183827 507.616997) scale(0.2 -0.2)">
       <defs>
        <path id="CMR17-34" d="M 2150 4122 
C 2150 4256 2144 4256 2029 4256 
L 128 1254 
L 128 1088 
L 1779 1088 
L 1779 457 
C 1779 224 1766 160 1318 160 
L 1197 160 
L 1197 0 
C 1402 0 1747 0 1965 0 
C 2182 0 2528 0 2733 0 
L 2733 160 
L 2611 160 
C 2163 160 2150 224 2150 457 
L 2150 1088 
L 2803 1088 
L 2803 1254 
L 2150 1254 
L 2150 4122 
z
M 1798 3703 
L 1798 1254 
L 256 1254 
L 1798 3703 
z
" transform="scale(0.015625)"/>
       </defs>
       <use xlink:href="#CMR17-30" transform="scale(0.996264)"/>
       <use xlink:href="#CMMI12-3a" transform="translate(45.690477 0) scale(0.996264)"/>
       <use xlink:href="#CMR17-30" transform="translate(72.787654 0) scale(0.996264)"/>
       <use xlink:href="#CMR17-34" transform="translate(118.478131 0) scale(0.996264)"/>
      </g>
     </g>
    </g>
    <g id="xtick_4">
     <g id="line2d_7">
      <path d="M 590.710266 485.28 
L 590.710266 7.2 
" clip-path="url(#p86f7b1b325)" style="fill: none; stroke: #b0b0b0; stroke-width: 0.8; stroke-linecap: square"/>
     </g>
     <g id="line2d_8">
      <g>
       <use xlink:href="#m27d9b6bd6e" x="590.710266" y="485.28" style="stroke: #000000; stroke-width: 0.8"/>
      </g>
     </g>
     <g id="text_4">
      <!-- $\mathdefault{0.06}$ -->
      <g transform="translate(574.293405 507.616997) scale(0.2 -0.2)">
       <defs>
        <path id="CMR17-36" d="M 678 2176 
C 678 3690 1395 4032 1811 4032 
C 1946 4032 2272 4009 2400 3776 
C 2298 3776 2106 3776 2106 3553 
C 2106 3381 2246 3323 2336 3323 
C 2394 3323 2566 3348 2566 3560 
C 2566 3954 2246 4179 1805 4179 
C 1043 4179 243 3390 243 1984 
C 243 253 966 -128 1478 -128 
C 2099 -128 2688 427 2688 1283 
C 2688 2081 2170 2662 1517 2662 
C 1126 2662 838 2407 678 1960 
L 678 2176 
z
M 1478 25 
C 691 25 691 1200 691 1436 
C 691 1896 909 2560 1504 2560 
C 1613 2560 1926 2560 2138 2120 
C 2253 1870 2253 1609 2253 1289 
C 2253 944 2253 690 2118 434 
C 1978 171 1773 25 1478 25 
z
" transform="scale(0.015625)"/>
       </defs>
       <use xlink:href="#CMR17-30" transform="scale(0.996264)"/>
       <use xlink:href="#CMMI12-3a" transform="translate(45.690477 0) scale(0.996264)"/>
       <use xlink:href="#CMR17-30" transform="translate(72.787654 0) scale(0.996264)"/>
       <use xlink:href="#CMR17-36" transform="translate(118.478131 0) scale(0.996264)"/>
      </g>
     </g>
    </g>
    <g id="xtick_5">
     <g id="line2d_9">
      <path d="M 740.819844 485.28 
L 740.819844 7.2 
" clip-path="url(#p86f7b1b325)" style="fill: none; stroke: #b0b0b0; stroke-width: 0.8; stroke-linecap: square"/>
     </g>
     <g id="line2d_10">
      <g>
       <use xlink:href="#m27d9b6bd6e" x="740.819844" y="485.28" style="stroke: #000000; stroke-width: 0.8"/>
      </g>
     </g>
     <g id="text_5">
      <!-- $\mathdefault{0.08}$ -->
      <g transform="translate(724.402983 507.616997) scale(0.2 -0.2)">
       <defs>
        <path id="CMR17-38" d="M 1741 2264 
C 2144 2467 2554 2773 2554 3263 
C 2554 3841 1990 4179 1472 4179 
C 890 4179 378 3759 378 3180 
C 378 3021 416 2747 666 2505 
C 730 2442 998 2251 1171 2130 
C 883 1983 211 1634 211 934 
C 211 279 838 -128 1459 -128 
C 2144 -128 2720 362 2720 1010 
C 2720 1590 2330 1857 2074 2029 
L 1741 2264 
z
M 902 2822 
C 851 2854 595 3051 595 3351 
C 595 3739 998 4032 1459 4032 
C 1965 4032 2336 3676 2336 3262 
C 2336 2669 1670 2331 1638 2331 
C 1632 2331 1626 2331 1574 2370 
L 902 2822 
z
M 2080 1519 
C 2176 1449 2483 1240 2483 851 
C 2483 381 2010 25 1472 25 
C 890 25 448 438 448 940 
C 448 1443 838 1862 1280 2060 
L 2080 1519 
z
" transform="scale(0.015625)"/>
       </defs>
       <use xlink:href="#CMR17-30" transform="scale(0.996264)"/>
       <use xlink:href="#CMMI12-3a" transform="translate(45.690477 0) scale(0.996264)"/>
       <use xlink:href="#CMR17-30" transform="translate(72.787654 0) scale(0.996264)"/>
       <use xlink:href="#CMR17-38" transform="translate(118.478131 0) scale(0.996264)"/>
      </g>
     </g>
    </g>
    <g id="xtick_6">
     <g id="line2d_11">
      <path d="M 890.929422 485.28 
L 890.929422 7.2 
" clip-path="url(#p86f7b1b325)" style="fill: none; stroke: #b0b0b0; stroke-width: 0.8; stroke-linecap: square"/>
     </g>
     <g id="line2d_12">
      <g>
       <use xlink:href="#m27d9b6bd6e" x="890.929422" y="485.28" style="stroke: #000000; stroke-width: 0.8"/>
      </g>
     </g>
     <g id="text_6">
      <!-- $\mathdefault{0.10}$ -->
      <g transform="translate(874.512561 507.616997) scale(0.2 -0.2)">
       <defs>
        <path id="CMR17-31" d="M 1702 4058 
C 1702 4192 1696 4192 1606 4192 
C 1357 3916 979 3827 621 3827 
C 602 3827 570 3827 563 3808 
C 557 3795 557 3782 557 3648 
C 755 3648 1088 3686 1344 3839 
L 1344 461 
C 1344 236 1331 160 781 160 
L 589 160 
L 589 0 
C 896 0 1216 0 1523 0 
C 1830 0 2150 0 2458 0 
L 2458 160 
L 2266 160 
C 1715 160 1702 230 1702 458 
L 1702 4058 
z
" transform="scale(0.015625)"/>
       </defs>
       <use xlink:href="#CMR17-30" transform="scale(0.996264)"/>
       <use xlink:href="#CMMI12-3a" transform="translate(45.690477 0) scale(0.996264)"/>
       <use xlink:href="#CMR17-31" transform="translate(72.787654 0) scale(0.996264)"/>
       <use xlink:href="#CMR17-30" transform="translate(118.478131 0) scale(0.996264)"/>
      </g>
     </g>
    </g>
    <g id="text_7">
     <!-- $\omega t\:\unit{[\degree]}$ -->
     <g transform="translate(520.163781 550.150158) scale(0.25 -0.25)">
      <defs>
       <path id="CMMI12-21" d="M 3802 2395 
C 3802 2580 3750 2816 3526 2816 
C 3398 2816 3251 2657 3251 2529 
C 3251 2472 3277 2434 3328 2376 
C 3424 2268 3546 2096 3546 1797 
C 3546 1567 3405 1204 3302 1007 
C 3123 656 2829 357 2496 357 
C 2093 357 1939 615 1869 975 
C 1939 1143 2086 1560 2086 1728 
C 2086 1798 2061 1856 1978 1856 
C 1933 1856 1882 1831 1850 1779 
C 1760 1638 1677 1129 1683 994 
C 1562 756 1216 357 806 357 
C 378 357 262 733 262 1096 
C 262 1758 678 2338 794 2497 
C 858 2593 902 2657 902 2669 
C 902 2714 877 2784 819 2784 
C 717 2784 685 2701 634 2625 
C 307 2121 77 1414 77 803 
C 77 408 224 -64 704 -64 
C 1235 -64 1568 391 1702 634 
C 1754 275 1946 -64 2413 -64 
C 2899 -64 3206 363 3437 879 
C 3603 1249 3802 2045 3802 2395 
z
" transform="scale(0.015625)"/>
       <path id="CMMI12-74" d="M 1286 2566 
L 1875 2566 
C 1997 2566 2061 2566 2061 2681 
C 2061 2752 2022 2752 1894 2752 
L 1331 2752 
L 1568 3692 
C 1594 3781 1594 3794 1594 3840 
C 1594 3943 1510 4000 1427 4000 
C 1376 4000 1229 3981 1178 3775 
L 928 2752 
L 326 2752 
C 198 2752 141 2752 141 2630 
C 141 2566 186 2566 307 2566 
L 877 2566 
L 454 881 
C 403 658 384 594 384 511 
C 384 211 595 -64 954 -64 
C 1600 -64 1946 868 1946 912 
C 1946 951 1920 970 1882 970 
C 1869 970 1843 970 1830 944 
C 1824 938 1818 931 1773 829 
C 1638 511 1344 64 973 64 
C 781 64 768 224 768 364 
C 768 370 768 492 787 568 
L 1286 2566 
z
" transform="scale(0.015625)"/>
       <path id="CMR17-5b" d="M 1504 -1600 
L 1504 -1377 
L 902 -1377 
L 902 4544 
L 1504 4544 
L 1504 4767 
L 678 4767 
L 678 -1600 
L 1504 -1600 
z
" transform="scale(0.015625)"/>
       <path id="CMSY10-e" d="M 2842 1600 
C 2842 2277 2272 2828 1600 2828 
C 909 2828 352 2264 352 1600 
C 352 930 909 372 1600 372 
C 2272 372 2842 923 2842 1600 
z
M 1600 628 
C 1043 628 608 1070 608 1600 
C 608 2130 1050 2572 1600 2572 
C 2131 2572 2586 2142 2586 1600 
C 2586 1058 2131 628 1600 628 
z
" transform="scale(0.015625)"/>
       <path id="CMR17-5d" d="M 915 4767 
L 90 4767 
L 90 4544 
L 691 4544 
L 691 -1377 
L 90 -1377 
L 90 -1600 
L 915 -1600 
L 915 4767 
z
" transform="scale(0.015625)"/>
      </defs>
      <use xlink:href="#CMMI12-21" transform="scale(0.996264)"/>
      <use xlink:href="#CMMI12-74" transform="translate(64.318346 0) scale(0.996264)"/>
      <use xlink:href="#CMR17-5b" transform="translate(121.683883 0) scale(0.996264)"/>
      <use xlink:href="#CMSY10-e" transform="translate(146.554942 36.153639) scale(0.697382)"/>
      <use xlink:href="#CMR17-5d" transform="translate(181.922284 0) scale(0.996264)"/>
     </g>
    </g>
   </g>
   <g id="matplotlib.axis_2">
    <g id="ytick_1">
     <g id="line2d_13">
      <path d="M 99.799714 464.866184 
L 992.599714 464.866184 
" clip-path="url(#p86f7b1b325)" style="fill: none; stroke: #b0b0b0; stroke-width: 0.8; stroke-linecap: square"/>
     </g>
     <g id="line2d_14">
      <defs>
       <path id="m2ec5fa783a" d="M 0 0 
L -3.5 0 
" style="stroke: #000000; stroke-width: 0.8"/>
      </defs>
      <g>
       <use xlink:href="#m2ec5fa783a" x="99.799714" y="464.866184" style="stroke: #000000; stroke-width: 0.8"/>
      </g>
     </g>
     <g id="text_8">
      <!-- $\mathdefault{−1.5}$ -->
      <g transform="translate(52.1066 471.784682) scale(0.2 -0.2)">
       <defs>
        <path id="CMSY10-0" d="M 4218 1472 
C 4326 1472 4442 1472 4442 1600 
C 4442 1728 4326 1728 4218 1728 
L 755 1728 
C 646 1728 531 1728 531 1600 
C 531 1472 646 1472 755 1472 
L 4218 1472 
z
" transform="scale(0.015625)"/>
        <path id="CMR17-35" d="M 730 3692 
C 794 3666 1056 3584 1325 3584 
C 1920 3584 2246 3911 2432 4100 
C 2432 4157 2432 4192 2394 4192 
C 2387 4192 2374 4192 2323 4163 
C 2099 4058 1837 3973 1517 3973 
C 1325 3973 1037 3999 723 4139 
C 653 4171 640 4171 634 4171 
C 602 4171 595 4164 595 4037 
L 595 2203 
C 595 2089 595 2057 659 2057 
C 691 2057 704 2070 736 2114 
C 941 2401 1222 2522 1542 2522 
C 1766 2522 2246 2382 2246 1289 
C 2246 1085 2246 715 2054 421 
C 1894 159 1645 25 1370 25 
C 947 25 518 320 403 814 
C 429 807 480 795 506 795 
C 589 795 749 840 749 1038 
C 749 1210 627 1280 506 1280 
C 358 1280 262 1190 262 1011 
C 262 454 704 -128 1382 -128 
C 2042 -128 2669 440 2669 1264 
C 2669 2030 2170 2624 1549 2624 
C 1222 2624 947 2503 730 2274 
L 730 3692 
z
" transform="scale(0.015625)"/>
       </defs>
       <use xlink:href="#CMSY10-0" transform="scale(0.996264)"/>
       <use xlink:href="#CMR17-31" transform="translate(77.487468 0) scale(0.996264)"/>
       <use xlink:href="#CMMI12-3a" transform="translate(123.177945 0) scale(0.996264)"/>
       <use xlink:href="#CMR17-35" transform="translate(150.275122 0) scale(0.996264)"/>
      </g>
     </g>
    </g>
    <g id="ytick_2">
     <g id="line2d_15">
      <path d="M 99.799714 391.410101 
L 992.599714 391.410101 
" clip-path="url(#p86f7b1b325)" style="fill: none; stroke: #b0b0b0; stroke-width: 0.8; stroke-linecap: square"/>
     </g>
     <g id="line2d_16">
      <g>
       <use xlink:href="#m2ec5fa783a" x="99.799714" y="391.410101" style="stroke: #000000; stroke-width: 0.8"/>
      </g>
     </g>
     <g id="text_9">
      <!-- $\mathdefault{−1.0}$ -->
      <g transform="translate(52.1066 398.328599) scale(0.2 -0.2)">
       <use xlink:href="#CMSY10-0" transform="scale(0.996264)"/>
       <use xlink:href="#CMR17-31" transform="translate(77.487468 0) scale(0.996264)"/>
       <use xlink:href="#CMMI12-3a" transform="translate(123.177945 0) scale(0.996264)"/>
       <use xlink:href="#CMR17-30" transform="translate(150.275122 0) scale(0.996264)"/>
      </g>
     </g>
    </g>
    <g id="ytick_3">
     <g id="line2d_17">
      <path d="M 99.799714 317.954018 
L 992.599714 317.954018 
" clip-path="url(#p86f7b1b325)" style="fill: none; stroke: #b0b0b0; stroke-width: 0.8; stroke-linecap: square"/>
     </g>
     <g id="line2d_18">
      <g>
       <use xlink:href="#m2ec5fa783a" x="99.799714" y="317.954018" style="stroke: #000000; stroke-width: 0.8"/>
      </g>
     </g>
     <g id="text_10">
      <!-- $\mathdefault{−0.5}$ -->
      <g transform="translate(52.1066 324.872516) scale(0.2 -0.2)">
       <use xlink:href="#CMSY10-0" transform="scale(0.996264)"/>
       <use xlink:href="#CMR17-30" transform="translate(77.487468 0) scale(0.996264)"/>
       <use xlink:href="#CMMI12-3a" transform="translate(123.177945 0) scale(0.996264)"/>
       <use xlink:href="#CMR17-35" transform="translate(150.275122 0) scale(0.996264)"/>
      </g>
     </g>
    </g>
    <g id="ytick_4">
     <g id="line2d_19">
      <path d="M 99.799714 244.497935 
L 992.599714 244.497935 
" clip-path="url(#p86f7b1b325)" style="fill: none; stroke: #b0b0b0; stroke-width: 0.8; stroke-linecap: square"/>
     </g>
     <g id="line2d_20">
      <g>
       <use xlink:href="#m2ec5fa783a" x="99.799714" y="244.497935" style="stroke: #000000; stroke-width: 0.8"/>
      </g>
     </g>
     <g id="text_11">
      <!-- $\mathdefault{0.0}$ -->
      <g transform="translate(67.604088 251.416433) scale(0.2 -0.2)">
       <use xlink:href="#CMR17-30" transform="scale(0.996264)"/>
       <use xlink:href="#CMMI12-3a" transform="translate(45.690477 0) scale(0.996264)"/>
       <use xlink:href="#CMR17-30" transform="translate(72.787654 0) scale(0.996264)"/>
      </g>
     </g>
    </g>
    <g id="ytick_5">
     <g id="line2d_21">
      <path d="M 99.799714 171.041852 
L 992.599714 171.041852 
" clip-path="url(#p86f7b1b325)" style="fill: none; stroke: #b0b0b0; stroke-width: 0.8; stroke-linecap: square"/>
     </g>
     <g id="line2d_22">
      <g>
       <use xlink:href="#m2ec5fa783a" x="99.799714" y="171.041852" style="stroke: #000000; stroke-width: 0.8"/>
      </g>
     </g>
     <g id="text_12">
      <!-- $\mathdefault{0.5}$ -->
      <g transform="translate(67.604088 177.96035) scale(0.2 -0.2)">
       <use xlink:href="#CMR17-30" transform="scale(0.996264)"/>
       <use xlink:href="#CMMI12-3a" transform="translate(45.690477 0) scale(0.996264)"/>
       <use xlink:href="#CMR17-35" transform="translate(72.787654 0) scale(0.996264)"/>
      </g>
     </g>
    </g>
    <g id="ytick_6">
     <g id="line2d_23">
      <path d="M 99.799714 97.585769 
L 992.599714 97.585769 
" clip-path="url(#p86f7b1b325)" style="fill: none; stroke: #b0b0b0; stroke-width: 0.8; stroke-linecap: square"/>
     </g>
     <g id="line2d_24">
      <g>
       <use xlink:href="#m2ec5fa783a" x="99.799714" y="97.585769" style="stroke: #000000; stroke-width: 0.8"/>
      </g>
     </g>
     <g id="text_13">
      <!-- $\mathdefault{1.0}$ -->
      <g transform="translate(67.604088 104.504267) scale(0.2 -0.2)">
       <use xlink:href="#CMR17-31" transform="scale(0.996264)"/>
       <use xlink:href="#CMMI12-3a" transform="translate(45.690477 0) scale(0.996264)"/>
       <use xlink:href="#CMR17-30" transform="translate(72.787654 0) scale(0.996264)"/>
      </g>
     </g>
    </g>
    <g id="ytick_7">
     <g id="line2d_25">
      <path d="M 99.799714 24.129686 
L 992.599714 24.129686 
" clip-path="url(#p86f7b1b325)" style="fill: none; stroke: #b0b0b0; stroke-width: 0.8; stroke-linecap: square"/>
     </g>
     <g id="line2d_26">
      <g>
       <use xlink:href="#m2ec5fa783a" x="99.799714" y="24.129686" style="stroke: #000000; stroke-width: 0.8"/>
      </g>
     </g>
     <g id="text_14">
      <!-- $\mathdefault{1.5}$ -->
      <g transform="translate(67.604088 31.048184) scale(0.2 -0.2)">
       <use xlink:href="#CMR17-31" transform="scale(0.996264)"/>
       <use xlink:href="#CMMI12-3a" transform="translate(45.690477 0) scale(0.996264)"/>
       <use xlink:href="#CMR17-35" transform="translate(72.787654 0) scale(0.996264)"/>
      </g>
     </g>
    </g>
    <g id="text_15">
     <!-- $u\:\unit{\m/\s}$ -->
     <g transform="translate(25.87995 276.134404) rotate(-90) scale(0.25 -0.25)">
      <defs>
       <path id="CMMI12-75" d="M 2182 370 
C 2266 13 2573 -64 2726 -64 
C 2931 -64 3085 70 3187 287 
C 3296 517 3379 894 3379 913 
C 3379 945 3354 971 3315 971 
C 3258 971 3251 939 3226 843 
C 3110 402 2995 64 2739 64 
C 2547 64 2547 275 2547 358 
C 2547 505 2566 568 2630 837 
C 2675 1009 2720 1181 2758 1360 
L 3021 2401 
C 3066 2561 3066 2574 3066 2593 
C 3066 2689 2989 2753 2893 2753 
C 2707 2753 2662 2593 2624 2433 
C 2560 2184 2214 811 2170 588 
C 2163 588 1914 64 1446 64 
C 1114 64 1050 351 1050 588 
C 1050 952 1229 1462 1395 1890 
C 1472 2095 1504 2178 1504 2305 
C 1504 2580 1306 2816 998 2816 
C 410 2816 173 1890 173 1839 
C 173 1814 198 1782 243 1782 
C 301 1782 307 1807 333 1896 
C 486 2441 736 2682 979 2682 
C 1043 2682 1146 2682 1146 2478 
C 1146 2312 1075 2127 979 1884 
C 698 1124 666 881 666 690 
C 666 38 1158 -64 1421 -64 
C 1830 -64 2054 217 2182 370 
z
" transform="scale(0.015625)"/>
       <path id="CMR17-6d" d="M 4326 1933 
C 4326 2252 4269 2790 3507 2790 
C 3072 2790 2771 2496 2656 2151 
L 2650 2151 
C 2573 2676 2195 2790 1837 2790 
C 1331 2790 1069 2400 973 2144 
L 966 2144 
L 966 2790 
L 211 2720 
L 211 2554 
C 589 2554 646 2515 646 2208 
L 646 428 
C 646 184 621 153 211 153 
L 211 -13 
C 365 0 646 0 813 0 
C 979 0 1267 0 1421 -13 
L 1421 153 
C 1011 153 986 178 986 428 
L 986 1658 
C 986 2247 1344 2688 1792 2688 
C 2266 2688 2317 2266 2317 1958 
L 2317 428 
C 2317 184 2291 153 1882 153 
L 1882 -13 
C 2035 0 2317 0 2483 0 
C 2650 0 2938 0 3091 -13 
L 3091 153 
C 2682 153 2656 178 2656 428 
L 2656 1658 
C 2656 2247 3014 2688 3462 2688 
C 3936 2688 3987 2266 3987 1958 
L 3987 428 
C 3987 184 3962 153 3552 153 
L 3552 -13 
C 3706 0 3987 0 4154 0 
C 4320 0 4608 0 4762 -13 
L 4762 153 
C 4352 153 4326 178 4326 428 
L 4326 1933 
z
" transform="scale(0.015625)"/>
       <path id="CMMI12-3d" d="M 2746 4562 
C 2746 4569 2784 4666 2784 4678 
C 2784 4755 2720 4800 2669 4800 
C 2637 4800 2579 4800 2528 4659 
L 384 -1363 
C 384 -1370 346 -1465 346 -1478 
C 346 -1555 410 -1600 461 -1600 
C 499 -1600 557 -1593 602 -1459 
L 2746 4562 
z
" transform="scale(0.015625)"/>
       <path id="CMR17-73" d="M 1978 2697 
C 1978 2813 1971 2819 1933 2819 
C 1907 2819 1901 2813 1824 2717 
C 1805 2691 1747 2626 1728 2601 
C 1523 2819 1235 2819 1126 2819 
C 416 2819 160 2447 160 2076 
C 160 1498 813 1365 998 1325 
C 1402 1243 1542 1217 1677 1101 
C 1760 1025 1901 884 1901 654 
C 1901 384 1747 38 1158 38 
C 602 38 403 460 288 1021 
C 269 1110 269 1117 218 1117 
C 166 1117 160 1110 160 983 
L 160 63 
C 160 -51 166 -58 205 -58 
C 237 -58 243 -51 275 0 
C 314 57 410 211 448 276 
C 576 103 800 -64 1158 -64 
C 1792 -64 2131 283 2131 784 
C 2131 1112 1958 1285 1875 1362 
C 1683 1561 1459 1606 1190 1657 
C 838 1735 390 1825 390 2217 
C 390 2383 480 2737 1126 2737 
C 1811 2737 1850 2094 1862 1888 
C 1869 1856 1901 1849 1920 1849 
C 1978 1849 1978 1869 1978 1978 
L 1978 2697 
z
" transform="scale(0.015625)"/>
      </defs>
      <use xlink:href="#CMMI12-75" transform="scale(0.996264)"/>
      <use xlink:href="#CMR17-6d" transform="translate(77.659537 0) scale(0.996264)"/>
      <use xlink:href="#CMMI12-3d" transform="translate(154.579126 0) scale(0.996264)"/>
      <use xlink:href="#CMR17-73" transform="translate(203.354045 0) scale(0.996264)"/>
     </g>
    </g>
   </g>
   <g id="line2d_27">
    <path d="M 140.381532 206.042529 
L 151.81303 184.367624 
L 163.244528 163.933013 
L 174.676026 145.792995 
L 186.107524 129.584205 
L 197.539023 114.868453 
L 208.970521 101.272667 
L 220.402019 88.720216 
L 231.833517 77.19905 
L 243.265015 66.776702 
L 254.696513 57.531598 
L 266.128011 49.542733 
L 277.559509 42.883879 
L 288.991007 37.618866 
L 300.422505 33.801938 
L 311.854003 31.476098 
L 323.285501 30.672851 
L 334.716999 31.411584 
L 346.148498 33.700557 
L 357.579996 37.535114 
L 369.011494 42.897311 
L 380.442992 49.762481 
L 391.87449 58.09352 
L 403.305988 67.8403 
L 414.737486 78.94205 
L 426.168984 91.329092 
L 437.600482 104.923161 
L 449.03198 119.641986 
L 460.463478 135.399342 
L 471.894976 152.111562 
L 483.326475 169.702001 
L 494.757973 188.098711 
L 506.189471 207.245748 
L 517.620969 227.09984 
L 529.052467 247.618864 
L 540.483965 268.70312 
L 551.915463 290.163168 
L 563.346961 311.412284 
L 574.778459 331.217492 
L 586.209957 348.993456 
L 597.641455 364.917577 
L 609.072953 379.513508 
L 620.504451 393.051047 
L 631.93595 405.595178 
L 643.367448 417.112618 
L 654.798946 427.531488 
L 666.230444 436.770452 
L 677.661942 444.750088 
L 689.09344 451.397377 
L 700.524938 456.649386 
L 711.956436 460.452239 
L 723.387934 462.76259 
L 734.819432 463.549091 
L 746.25093 462.793184 
L 757.682428 460.487497 
L 769.113927 456.634391 
L 780.545425 451.250252 
L 791.976923 444.362814 
L 803.408421 436.011514 
L 814.839919 426.247505 
L 826.271417 415.131691 
L 837.702915 402.733298 
L 849.134413 389.131079 
L 860.565911 374.408693 
L 871.997409 358.653835 
L 883.428907 341.952605 
L 894.860405 324.3838 
L 906.291903 306.024534 
L 917.723402 286.9357 
L 929.1549 267.16397 
L 940.586398 246.755053 
L 952.017896 225.795279 
" clip-path="url(#p86f7b1b325)" style="fill: none; stroke: #000000; stroke-width: 1.2; stroke-linecap: square"/>
   </g>
   <g id="line2d_28">
    <path d="M 140.381532 204.450338 
L 151.81303 183.116805 
L 163.244528 162.91563 
L 174.676026 144.669296 
L 186.107524 128.437403 
L 197.539023 113.69803 
L 208.970521 100.103383 
L 220.402019 87.542727 
L 231.833517 76.024091 
L 243.265015 65.611041 
L 254.696513 56.380753 
L 266.128011 48.411224 
L 277.559509 41.774359 
L 288.991007 36.532526 
L 300.422505 32.740347 
L 311.854003 30.440264 
L 323.285501 29.662381 
L 334.716999 30.427103 
L 346.148498 32.7426 
L 357.579996 36.604681 
L 369.011494 41.99704 
L 380.442992 48.89202 
L 391.87449 57.250142 
L 403.305988 67.019925 
L 414.737486 78.141889 
L 426.168984 90.546668 
L 437.600482 104.156431 
L 449.03198 118.888815 
L 460.463478 134.656747 
L 471.894976 151.377349 
L 483.326475 168.973989 
L 494.757973 187.373507 
L 506.189471 206.520105 
L 517.620969 226.370164 
L 529.052467 246.874791 
L 540.483965 267.933154 
L 551.915463 289.358742 
L 563.346961 310.616421 
L 574.778459 330.495544 
L 586.209957 348.342937 
L 597.641455 364.309536 
L 609.072953 378.926367 
L 620.504451 392.472868 
L 631.93595 405.019772 
L 643.367448 416.538907 
L 654.798946 426.958118 
L 666.230444 436.19678 
L 677.661942 444.175462 
L 689.09344 450.82177 
L 700.524938 456.073051 
L 711.956436 459.874482 
L 723.387934 462.183536 
L 734.819432 462.969156 
L 746.25093 462.212967 
L 757.682428 459.906265 
L 769.113927 456.052997 
L 780.545425 450.669232 
L 791.976923 443.782856 
L 803.408421 435.433472 
L 814.839919 425.672037 
L 826.271417 414.558901 
L 837.702915 402.163582 
L 849.134413 388.564239 
L 860.565911 373.845005 
L 871.997409 358.093359 
L 883.428907 341.39332 
L 894.860405 323.824371 
L 906.291903 305.463836 
L 917.723402 286.372127 
L 929.1549 266.594705 
L 940.586398 246.179149 
L 952.017896 225.217077 
" clip-path="url(#p86f7b1b325)" style="fill: none; stroke-dasharray: 4.44,1.92; stroke-dashoffset: 0; stroke: #000000; stroke-width: 1.2"/>
   </g>
   <g id="line2d_29">
    <path d="M 140.381532 203.874278 
L 151.81303 182.556619 
L 163.244528 162.388473 
L 174.676026 144.189394 
L 186.107524 127.98915 
L 197.539023 113.265459 
L 208.970521 99.677658 
L 220.402019 87.120164 
L 231.833517 75.60353 
L 243.265015 65.191861 
L 254.696513 55.962886 
L 266.128011 47.99462 
L 277.559509 41.358932 
L 288.991007 36.118317 
L 300.422505 32.327508 
L 311.854003 30.028471 
L 323.285501 29.251817 
L 334.716999 30.017766 
L 346.148498 32.334165 
L 357.579996 36.196999 
L 369.011494 41.589756 
L 380.442992 48.484865 
L 391.87449 56.842872 
L 403.305988 66.612267 
L 414.737486 77.733477 
L 426.168984 90.137312 
L 437.600482 103.745642 
L 449.03198 118.476156 
L 460.463478 134.24166 
L 471.894976 150.959611 
L 483.326475 168.552722 
L 494.757973 186.947278 
L 506.189471 206.086853 
L 517.620969 225.928167 
L 529.052467 246.421242 
L 540.483965 267.465932 
L 551.915463 288.878884 
L 563.346961 310.143696 
L 574.778459 330.058816 
L 586.209957 347.945867 
L 597.641455 363.937756 
L 609.072953 378.565801 
L 620.504451 392.116382 
L 631.93595 404.663951 
L 643.367448 416.182253 
L 654.798946 426.600135 
L 666.230444 435.837179 
L 677.661942 443.814189 
L 689.09344 450.458856 
L 700.524938 455.708458 
L 711.956436 459.508111 
L 723.387934 461.815633 
L 734.819432 462.599702 
L 746.25093 461.842104 
L 757.682428 459.533862 
L 769.113927 455.679232 
L 780.545425 450.294241 
L 791.976923 443.4068 
L 803.408421 435.056385 
L 814.839919 425.294077 
L 826.271417 414.180115 
L 837.702915 401.784039 
L 849.134413 388.183889 
L 860.565911 373.463739 
L 871.997409 357.711049 
L 883.428907 341.009504 
L 894.860405 323.437957 
L 906.291903 305.07396 
L 917.723402 285.977352 
L 929.1549 266.193196 
L 940.586398 245.769416 
L 952.017896 224.79899 
" clip-path="url(#p86f7b1b325)" style="fill: none; stroke-dasharray: 8.32,2.08,1.3,2.08; stroke-dashoffset: 0; stroke: #000000; stroke-width: 1.3"/>
   </g>
   <g id="line2d_30">
    <path d="M 140.381532 203.448953 
L 151.81303 182.136076 
L 163.244528 161.99508 
L 174.676026 143.831635 
L 186.107524 127.657006 
L 197.539023 112.944348 
L 208.970521 99.361093 
L 220.402019 86.804942 
L 231.833517 75.288368 
L 243.265015 64.876181 
L 254.696513 55.646551 
L 266.128011 47.67751 
L 277.559509 41.041027 
L 288.991007 35.799627 
L 300.422505 32.007987 
L 311.854003 29.708433 
L 323.285501 28.930909 
L 334.716999 29.696179 
L 346.148498 32.011871 
L 357.579996 35.873778 
L 369.011494 41.265797 
L 380.442992 48.16003 
L 391.87449 56.517185 
L 403.305988 66.285832 
L 414.737486 77.406141 
L 426.168984 89.809068 
L 437.600482 103.416311 
L 449.03198 118.145569 
L 460.463478 133.909614 
L 471.894976 150.625557 
L 483.326475 168.216108 
L 494.757973 186.607052 
L 506.189471 205.741571 
L 517.620969 225.576286 
L 529.052467 246.061303 
L 540.483965 267.097246 
L 551.915463 288.502854 
L 563.346961 309.774475 
L 574.778459 329.716278 
L 586.209957 347.634345 
L 597.641455 363.646052 
L 609.072953 378.282865 
L 620.504451 391.836782 
L 631.93595 404.385111 
L 643.367448 415.903152 
L 654.798946 426.320275 
L 666.230444 435.556356 
L 677.661942 443.532367 
L 689.09344 450.176013 
L 700.524938 455.424638 
L 711.956436 459.223246 
L 723.387934 461.529706 
L 734.819432 462.313026 
L 746.25093 461.554587 
L 757.682428 459.2454 
L 769.113927 455.38992 
L 780.545425 450.004062 
L 791.976923 443.115843 
L 803.408421 434.764646 
L 814.839919 425.001582 
L 826.271417 413.886899 
L 837.702915 401.490039 
L 849.134413 387.889041 
L 860.565911 373.167775 
L 871.997409 357.413755 
L 883.428907 340.710516 
L 894.860405 323.136953 
L 906.291903 304.769969 
L 917.723402 285.66919 
L 929.1549 265.879433 
L 940.586398 245.448817 
L 952.017896 224.471101 
" clip-path="url(#p86f7b1b325)" style="fill: none; stroke-dasharray: 1.8,2.97; stroke-dashoffset: 0; stroke: #000000; stroke-width: 1.8"/>
   </g>
   <g id="patch_3">
    <path d="M 99.799714 485.28 
L 99.799714 7.2 
" style="fill: none; stroke: #000000; stroke-width: 0.8; stroke-linejoin: miter; stroke-linecap: square"/>
   </g>
   <g id="patch_4">
    <path d="M 992.599714 485.28 
L 992.599714 7.2 
" style="fill: none; stroke: #000000; stroke-width: 0.8; stroke-linejoin: miter; stroke-linecap: square"/>
   </g>
   <g id="patch_5">
    <path d="M 99.799714 485.28 
L 992.599714 485.28 
" style="fill: none; stroke: #000000; stroke-width: 0.8; stroke-linejoin: miter; stroke-linecap: square"/>
   </g>
   <g id="patch_6">
    <path d="M 99.799714 7.2 
L 992.599714 7.2 
" style="fill: none; stroke: #000000; stroke-width: 0.8; stroke-linejoin: miter; stroke-linecap: square"/>
   </g>
   <g id="legend_1">
    <g id="patch_7">
     <path d="M 855.31743 134.702534 
L 978.599714 134.702534 
Q 982.599714 134.702534 982.599714 130.702534 
L 982.599714 21.2 
Q 982.599714 17.2 978.599714 17.2 
L 855.31743 17.2 
Q 851.31743 17.2 851.31743 21.2 
L 851.31743 130.702534 
Q 851.31743 134.702534 855.31743 134.702534 
z
" style="fill: #ffffff; opacity: 0.8; stroke: #cccccc; stroke-linejoin: miter"/>
    </g>
    <g id="line2d_31">
     <path d="M 859.31743 32.2 
L 879.31743 32.2 
L 899.31743 32.2 
" style="fill: none; stroke: #000000; stroke-width: 1.2; stroke-linecap: square"/>
    </g>
    <g id="text_16">
     <!-- Cycle 0 -->
     <g transform="translate(915.31743 39.2) scale(0.2 -0.2)">
      <defs>
       <path id="CMR17-43" d="M 3974 4289 
C 3974 4403 3968 4410 3930 4410 
C 3904 4410 3898 4403 3853 4327 
L 3571 3792 
C 3258 4187 2874 4416 2381 4416 
C 1286 4416 294 3456 294 2148 
C 294 826 1286 -128 2387 -128 
C 3366 -128 3974 730 3974 1461 
C 3974 1524 3974 1550 3917 1550 
C 3866 1550 3866 1531 3859 1474 
C 3808 585 3168 38 2477 38 
C 1824 38 781 495 781 2147 
C 781 3805 1843 4250 2464 4250 
C 3187 4250 3712 3628 3834 2745 
C 3846 2668 3846 2655 3904 2655 
C 3974 2655 3974 2668 3974 2783 
L 3974 4289 
z
" transform="scale(0.015625)"/>
       <path id="CMR17-79" d="M 2496 2197 
C 2656 2586 2944 2586 3034 2586 
L 3034 2752 
C 2912 2752 2752 2752 2630 2752 
C 2496 2752 2285 2752 2157 2758 
L 2157 2592 
C 2400 2573 2406 2394 2406 2343 
C 2406 2280 2394 2248 2362 2171 
L 1664 449 
L 902 2306 
C 870 2382 870 2426 870 2433 
C 870 2573 1018 2586 1171 2586 
L 1171 2758 
C 1018 2752 742 2752 582 2752 
C 410 2752 205 2752 64 2758 
L 64 2586 
C 410 2586 448 2554 531 2350 
L 1485 15 
C 1197 -738 1030 -1178 627 -1178 
C 557 -1178 397 -1159 282 -1044 
C 429 -1031 493 -942 493 -833 
C 493 -725 416 -629 288 -629 
C 147 -629 77 -725 77 -840 
C 77 -1095 339 -1280 627 -1280 
C 998 -1280 1229 -922 1357 -604 
L 2496 2197 
z
" transform="scale(0.015625)"/>
       <path id="CMR17-63" d="M 2234 2240 
C 2112 2240 1933 2240 1933 2017 
C 1933 1838 2080 1787 2163 1787 
C 2208 1787 2394 1807 2394 2024 
C 2394 2467 1958 2803 1466 2803 
C 787 2803 211 2178 211 1363 
C 211 516 813 -64 1466 -64 
C 2259 -64 2458 677 2458 748 
C 2458 774 2451 793 2406 793 
C 2362 793 2355 787 2330 703 
C 2163 180 1798 51 1523 51 
C 1114 51 621 427 621 1369 
C 621 2338 1094 2688 1472 2688 
C 1722 2688 2093 2573 2234 2240 
z
" transform="scale(0.015625)"/>
       <path id="CMR17-6c" d="M 979 4396 
L 218 4326 
L 218 4160 
C 595 4160 653 4122 653 3817 
L 653 426 
C 653 184 627 153 218 153 
L 218 -13 
C 371 0 653 0 813 0 
C 979 0 1261 0 1414 -13 
L 1414 153 
C 1005 153 979 178 979 426 
L 979 4396 
z
" transform="scale(0.015625)"/>
       <path id="CMR17-65" d="M 2438 1472 
C 2464 1498 2464 1511 2464 1576 
C 2464 2238 2118 2816 1389 2816 
C 710 2816 173 2169 173 1383 
C 173 551 781 -64 1459 -64 
C 2176 -64 2458 607 2458 740 
C 2458 784 2419 784 2406 784 
C 2362 784 2355 771 2330 696 
C 2189 265 1837 51 1504 51 
C 1229 51 954 203 781 480 
C 582 803 582 1176 582 1472 
L 2438 1472 
z
M 589 1568 
C 634 2505 1126 2714 1382 2714 
C 1818 2714 2112 2297 2118 1568 
L 589 1568 
z
" transform="scale(0.015625)"/>
      </defs>
      <use xlink:href="#CMR17-43" transform="scale(0.996264)"/>
      <use xlink:href="#CMR17-79" transform="translate(66.509881 0) scale(0.996264)"/>
      <use xlink:href="#CMR17-63" transform="translate(114.802796 0) scale(0.996264)"/>
      <use xlink:href="#CMR17-6c" transform="translate(155.288457 0) scale(0.996264)"/>
      <use xlink:href="#CMR17-65" transform="translate(180.159515 0) scale(0.996264)"/>
      <use xlink:href="#CMR17-30" transform="translate(250.721142 0) scale(0.996264)"/>
     </g>
    </g>
    <g id="line2d_32">
     <path d="M 859.31743 60.075634 
L 879.31743 60.075634 
L 899.31743 60.075634 
" style="fill: none; stroke-dasharray: 4.44,1.92; stroke-dashoffset: 0; stroke: #000000; stroke-width: 1.2"/>
    </g>
    <g id="text_17">
     <!-- Cycle 1 -->
     <g transform="translate(915.31743 67.075634) scale(0.2 -0.2)">
      <use xlink:href="#CMR17-43" transform="scale(0.996264)"/>
      <use xlink:href="#CMR17-79" transform="translate(66.509881 0) scale(0.996264)"/>
      <use xlink:href="#CMR17-63" transform="translate(114.802796 0) scale(0.996264)"/>
      <use xlink:href="#CMR17-6c" transform="translate(155.288457 0) scale(0.996264)"/>
      <use xlink:href="#CMR17-65" transform="translate(180.159515 0) scale(0.996264)"/>
      <use xlink:href="#CMR17-31" transform="translate(250.721142 0) scale(0.996264)"/>
     </g>
    </g>
    <g id="line2d_33">
     <path d="M 859.31743 87.951267 
L 879.31743 87.951267 
L 899.31743 87.951267 
" style="fill: none; stroke-dasharray: 8.32,2.08,1.3,2.08; stroke-dashoffset: 0; stroke: #000000; stroke-width: 1.3"/>
    </g>
    <g id="text_18">
     <!-- Cycle 2 -->
     <g transform="translate(915.31743 94.951267) scale(0.2 -0.2)">
      <use xlink:href="#CMR17-43" transform="scale(0.996264)"/>
      <use xlink:href="#CMR17-79" transform="translate(66.509881 0) scale(0.996264)"/>
      <use xlink:href="#CMR17-63" transform="translate(114.802796 0) scale(0.996264)"/>
      <use xlink:href="#CMR17-6c" transform="translate(155.288457 0) scale(0.996264)"/>
      <use xlink:href="#CMR17-65" transform="translate(180.159515 0) scale(0.996264)"/>
      <use xlink:href="#CMR17-32" transform="translate(250.721142 0) scale(0.996264)"/>
     </g>
    </g>
    <g id="line2d_34">
     <path d="M 859.31743 115.826901 
L 879.31743 115.826901 
L 899.31743 115.826901 
" style="fill: none; stroke-dasharray: 1.8,2.97; stroke-dashoffset: 0; stroke: #000000; stroke-width: 1.8"/>
    </g>
    <g id="text_19">
     <!-- Cycle 3 -->
     <g transform="translate(915.31743 122.826901) scale(0.2 -0.2)">
      <defs>
       <path id="CMR17-33" d="M 1414 2157 
C 1984 2157 2234 1662 2234 1090 
C 2234 320 1824 25 1453 25 
C 1114 25 563 194 390 693 
C 422 680 454 680 486 680 
C 640 680 755 782 755 948 
C 755 1133 614 1216 486 1216 
C 378 1216 211 1165 211 926 
C 211 335 787 -128 1466 -128 
C 2176 -128 2720 430 2720 1085 
C 2720 1707 2208 2157 1600 2227 
C 2086 2328 2554 2756 2554 3329 
C 2554 3820 2048 4179 1472 4179 
C 890 4179 378 3829 378 3329 
C 378 3110 544 3072 627 3072 
C 762 3072 877 3155 877 3321 
C 877 3486 762 3569 627 3569 
C 602 3569 570 3569 544 3557 
C 730 3959 1235 4032 1459 4032 
C 1683 4032 2106 3925 2106 3320 
C 2106 3143 2080 2828 1862 2550 
C 1670 2304 1453 2304 1242 2284 
C 1210 2284 1062 2269 1037 2269 
C 992 2263 966 2257 966 2208 
C 966 2163 973 2157 1101 2157 
L 1414 2157 
z
" transform="scale(0.015625)"/>
      </defs>
      <use xlink:href="#CMR17-43" transform="scale(0.996264)"/>
      <use xlink:href="#CMR17-79" transform="translate(66.509881 0) scale(0.996264)"/>
      <use xlink:href="#CMR17-63" transform="translate(114.802796 0) scale(0.996264)"/>
      <use xlink:href="#CMR17-6c" transform="translate(155.288457 0) scale(0.996264)"/>
      <use xlink:href="#CMR17-65" transform="translate(180.159515 0) scale(0.996264)"/>
      <use xlink:href="#CMR17-33" transform="translate(250.721142 0) scale(0.996264)"/>
     </g>
    </g>
   </g>
  </g>
 </g>
 <defs>
  <clipPath id="p86f7b1b325">
   <rect x="99.799714" y="7.2" width="892.8" height="478.08"/>
  </clipPath>
 </defs>
</svg>
