<?xml version="1.0" encoding="utf-8" standalone="no"?>
<!DOCTYPE svg PUBLIC "-//W3C//DTD SVG 1.1//EN"
  "http://www.w3.org/Graphics/SVG/1.1/DTD/svg11.dtd">
<svg xmlns:xlink="http://www.w3.org/1999/xlink" width="1030.738108pt" height="578.747852pt" viewBox="0 0 1030.738108 578.747852" xmlns="http://www.w3.org/2000/svg" version="1.1">
 <metadata>
  <rdf:RDF xmlns:dc="http://purl.org/dc/elements/1.1/" xmlns:cc="http://creativecommons.org/ns#" xmlns:rdf="http://www.w3.org/1999/02/22-rdf-syntax-ns#">
   <cc:Work>
    <dc:type rdf:resource="http://purl.org/dc/dcmitype/StillImage"/>
    <dc:date>2024-10-12T16:38:13.711484</dc:date>
    <dc:format>image/svg+xml</dc:format>
    <dc:creator>
     <cc:Agent>
      <dc:title>Matplotlib v3.8.4, https://matplotlib.org/</dc:title>
     </cc:Agent>
    </dc:creator>
   </cc:Work>
  </rdf:RDF>
 </metadata>
 <defs>
  <style type="text/css">*{stroke-linejoin: round; stroke-linecap: butt}</style>
 </defs>
 <g id="figure_1">
  <g id="patch_1">
   <path d="M 0 578.747852 
L 1030.738108 578.747852 
L 1030.738108 0 
L 0 0 
z
" style="fill: #ffffff"/>
  </g>
  <g id="axes_1">
   <g id="patch_2">
    <path d="M 130.738108 485.28 
L 1023.538108 485.28 
L 1023.538108 7.2 
L 130.738108 7.2 
z
" style="fill: #ffffff"/>
   </g>
   <g id="matplotlib.axis_1">
    <g id="xtick_1">
     <g id="line2d_1">
      <path d="M 260.341121 485.28 
L 260.341121 7.2 
" clip-path="url(#pfbca6d7757)" style="fill: none; stroke: #b0b0b0; stroke-width: 0.8; stroke-linecap: square"/>
     </g>
     <g id="line2d_2">
      <defs>
       <path id="mf403518154" d="M 0 0 
L 0 3.5 
" style="stroke: #000000; stroke-width: 0.8"/>
      </defs>
      <g>
       <use xlink:href="#mf403518154" x="260.341121" y="485.28" style="stroke: #000000; stroke-width: 0.8"/>
      </g>
     </g>
     <g id="text_1">
      <!-- $\mathdefault{10^{-5}}$ -->
      <g transform="translate(242.364701 507.616997) scale(0.2 -0.2)">
       <defs>
        <path id="CMR17-31" d="M 1702 4058 
C 1702 4192 1696 4192 1606 4192 
C 1357 3916 979 3827 621 3827 
C 602 3827 570 3827 563 3808 
C 557 3795 557 3782 557 3648 
C 755 3648 1088 3686 1344 3839 
L 1344 461 
C 1344 236 1331 160 781 160 
L 589 160 
L 589 0 
C 896 0 1216 0 1523 0 
C 1830 0 2150 0 2458 0 
L 2458 160 
L 2266 160 
C 1715 160 1702 230 1702 458 
L 1702 4058 
z
" transform="scale(0.015625)"/>
        <path id="CMR17-30" d="M 2688 2025 
C 2688 2416 2682 3080 2413 3591 
C 2176 4039 1798 4198 1466 4198 
C 1158 4198 768 4058 525 3597 
C 269 3118 243 2524 243 2025 
C 243 1661 250 1106 448 619 
C 723 -39 1216 -128 1466 -128 
C 1760 -128 2208 -7 2470 600 
C 2662 1042 2688 1559 2688 2025 
z
M 1466 -26 
C 1056 -26 813 325 723 812 
C 653 1188 653 1738 653 2096 
C 653 2588 653 2997 736 3387 
C 858 3929 1216 4096 1466 4096 
C 1728 4096 2067 3923 2189 3400 
C 2272 3036 2278 2607 2278 2096 
C 2278 1680 2278 1169 2202 792 
C 2067 95 1690 -26 1466 -26 
z
" transform="scale(0.015625)"/>
        <path id="CMSY10-0" d="M 4218 1472 
C 4326 1472 4442 1472 4442 1600 
C 4442 1728 4326 1728 4218 1728 
L 755 1728 
C 646 1728 531 1728 531 1600 
C 531 1472 646 1472 755 1472 
L 4218 1472 
z
" transform="scale(0.015625)"/>
        <path id="CMR17-35" d="M 730 3692 
C 794 3666 1056 3584 1325 3584 
C 1920 3584 2246 3911 2432 4100 
C 2432 4157 2432 4192 2394 4192 
C 2387 4192 2374 4192 2323 4163 
C 2099 4058 1837 3973 1517 3973 
C 1325 3973 1037 3999 723 4139 
C 653 4171 640 4171 634 4171 
C 602 4171 595 4164 595 4037 
L 595 2203 
C 595 2089 595 2057 659 2057 
C 691 2057 704 2070 736 2114 
C 941 2401 1222 2522 1542 2522 
C 1766 2522 2246 2382 2246 1289 
C 2246 1085 2246 715 2054 421 
C 1894 159 1645 25 1370 25 
C 947 25 518 320 403 814 
C 429 807 480 795 506 795 
C 589 795 749 840 749 1038 
C 749 1210 627 1280 506 1280 
C 358 1280 262 1190 262 1011 
C 262 454 704 -128 1382 -128 
C 2042 -128 2669 440 2669 1264 
C 2669 2030 2170 2624 1549 2624 
C 1222 2624 947 2503 730 2274 
L 730 3692 
z
" transform="scale(0.015625)"/>
       </defs>
       <use xlink:href="#CMR17-31" transform="scale(0.996264)"/>
       <use xlink:href="#CMR17-30" transform="translate(45.690477 0) scale(0.996264)"/>
       <use xlink:href="#CMSY10-0" transform="translate(91.380954 36.153639) scale(0.697382)"/>
       <use xlink:href="#CMR17-35" transform="translate(145.621947 36.153639) scale(0.697382)"/>
      </g>
     </g>
    </g>
    <g id="xtick_2">
     <g id="line2d_3">
      <path d="M 457.298719 485.28 
L 457.298719 7.2 
" clip-path="url(#pfbca6d7757)" style="fill: none; stroke: #b0b0b0; stroke-width: 0.8; stroke-linecap: square"/>
     </g>
     <g id="line2d_4">
      <g>
       <use xlink:href="#mf403518154" x="457.298719" y="485.28" style="stroke: #000000; stroke-width: 0.8"/>
      </g>
     </g>
     <g id="text_2">
      <!-- $\mathdefault{10^{-4}}$ -->
      <g transform="translate(439.322299 507.616997) scale(0.2 -0.2)">
       <defs>
        <path id="CMR17-34" d="M 2150 4122 
C 2150 4256 2144 4256 2029 4256 
L 128 1254 
L 128 1088 
L 1779 1088 
L 1779 457 
C 1779 224 1766 160 1318 160 
L 1197 160 
L 1197 0 
C 1402 0 1747 0 1965 0 
C 2182 0 2528 0 2733 0 
L 2733 160 
L 2611 160 
C 2163 160 2150 224 2150 457 
L 2150 1088 
L 2803 1088 
L 2803 1254 
L 2150 1254 
L 2150 4122 
z
M 1798 3703 
L 1798 1254 
L 256 1254 
L 1798 3703 
z
" transform="scale(0.015625)"/>
       </defs>
       <use xlink:href="#CMR17-31" transform="scale(0.996264)"/>
       <use xlink:href="#CMR17-30" transform="translate(45.690477 0) scale(0.996264)"/>
       <use xlink:href="#CMSY10-0" transform="translate(91.380954 36.153639) scale(0.697382)"/>
       <use xlink:href="#CMR17-34" transform="translate(145.621947 36.153639) scale(0.697382)"/>
      </g>
     </g>
    </g>
    <g id="xtick_3">
     <g id="line2d_5">
      <path d="M 654.256316 485.28 
L 654.256316 7.2 
" clip-path="url(#pfbca6d7757)" style="fill: none; stroke: #b0b0b0; stroke-width: 0.8; stroke-linecap: square"/>
     </g>
     <g id="line2d_6">
      <g>
       <use xlink:href="#mf403518154" x="654.256316" y="485.28" style="stroke: #000000; stroke-width: 0.8"/>
      </g>
     </g>
     <g id="text_3">
      <!-- $\mathdefault{10^{-3}}$ -->
      <g transform="translate(636.279897 507.616997) scale(0.2 -0.2)">
       <defs>
        <path id="CMR17-33" d="M 1414 2157 
C 1984 2157 2234 1662 2234 1090 
C 2234 320 1824 25 1453 25 
C 1114 25 563 194 390 693 
C 422 680 454 680 486 680 
C 640 680 755 782 755 948 
C 755 1133 614 1216 486 1216 
C 378 1216 211 1165 211 926 
C 211 335 787 -128 1466 -128 
C 2176 -128 2720 430 2720 1085 
C 2720 1707 2208 2157 1600 2227 
C 2086 2328 2554 2756 2554 3329 
C 2554 3820 2048 4179 1472 4179 
C 890 4179 378 3829 378 3329 
C 378 3110 544 3072 627 3072 
C 762 3072 877 3155 877 3321 
C 877 3486 762 3569 627 3569 
C 602 3569 570 3569 544 3557 
C 730 3959 1235 4032 1459 4032 
C 1683 4032 2106 3925 2106 3320 
C 2106 3143 2080 2828 1862 2550 
C 1670 2304 1453 2304 1242 2284 
C 1210 2284 1062 2269 1037 2269 
C 992 2263 966 2257 966 2208 
C 966 2163 973 2157 1101 2157 
L 1414 2157 
z
" transform="scale(0.015625)"/>
       </defs>
       <use xlink:href="#CMR17-31" transform="scale(0.996264)"/>
       <use xlink:href="#CMR17-30" transform="translate(45.690477 0) scale(0.996264)"/>
       <use xlink:href="#CMSY10-0" transform="translate(91.380954 36.153639) scale(0.697382)"/>
       <use xlink:href="#CMR17-33" transform="translate(145.621947 36.153639) scale(0.697382)"/>
      </g>
     </g>
    </g>
    <g id="xtick_4">
     <g id="line2d_7">
      <path d="M 851.213914 485.28 
L 851.213914 7.2 
" clip-path="url(#pfbca6d7757)" style="fill: none; stroke: #b0b0b0; stroke-width: 0.8; stroke-linecap: square"/>
     </g>
     <g id="line2d_8">
      <g>
       <use xlink:href="#mf403518154" x="851.213914" y="485.28" style="stroke: #000000; stroke-width: 0.8"/>
      </g>
     </g>
     <g id="text_4">
      <!-- $\mathdefault{10^{-2}}$ -->
      <g transform="translate(833.237495 507.616997) scale(0.2 -0.2)">
       <defs>
        <path id="CMR17-32" d="M 2669 989 
L 2554 989 
C 2490 536 2438 459 2413 420 
C 2381 369 1920 369 1830 369 
L 602 369 
C 832 619 1280 1072 1824 1597 
C 2214 1967 2669 2402 2669 3035 
C 2669 3790 2067 4224 1395 4224 
C 691 4224 262 3604 262 3030 
C 262 2780 448 2748 525 2748 
C 589 2748 781 2787 781 3010 
C 781 3207 614 3264 525 3264 
C 486 3264 448 3258 422 3245 
C 544 3790 915 4058 1306 4058 
C 1862 4058 2227 3617 2227 3035 
C 2227 2479 1901 2000 1536 1584 
L 262 146 
L 262 0 
L 2515 0 
L 2669 989 
z
" transform="scale(0.015625)"/>
       </defs>
       <use xlink:href="#CMR17-31" transform="scale(0.996264)"/>
       <use xlink:href="#CMR17-30" transform="translate(45.690477 0) scale(0.996264)"/>
       <use xlink:href="#CMSY10-0" transform="translate(91.380954 36.153639) scale(0.697382)"/>
       <use xlink:href="#CMR17-32" transform="translate(145.621947 36.153639) scale(0.697382)"/>
      </g>
     </g>
    </g>
    <g id="xtick_5">
     <g id="line2d_9">
      <defs>
       <path id="m2adda84f31" d="M 0 0 
L 0 2 
" style="stroke: #000000; stroke-width: 0.6"/>
      </defs>
      <g>
       <use xlink:href="#m2adda84f31" x="157.356179" y="485.28" style="stroke: #000000; stroke-width: 0.6"/>
      </g>
     </g>
    </g>
    <g id="xtick_6">
     <g id="line2d_10">
      <g>
       <use xlink:href="#m2adda84f31" x="181.963812" y="485.28" style="stroke: #000000; stroke-width: 0.6"/>
      </g>
     </g>
    </g>
    <g id="xtick_7">
     <g id="line2d_11">
      <g>
       <use xlink:href="#m2adda84f31" x="201.050976" y="485.28" style="stroke: #000000; stroke-width: 0.6"/>
      </g>
     </g>
    </g>
    <g id="xtick_8">
     <g id="line2d_12">
      <g>
       <use xlink:href="#m2adda84f31" x="216.646324" y="485.28" style="stroke: #000000; stroke-width: 0.6"/>
      </g>
     </g>
    </g>
    <g id="xtick_9">
     <g id="line2d_13">
      <g>
       <use xlink:href="#m2adda84f31" x="229.832003" y="485.28" style="stroke: #000000; stroke-width: 0.6"/>
      </g>
     </g>
    </g>
    <g id="xtick_10">
     <g id="line2d_14">
      <g>
       <use xlink:href="#m2adda84f31" x="241.253957" y="485.28" style="stroke: #000000; stroke-width: 0.6"/>
      </g>
     </g>
    </g>
    <g id="xtick_11">
     <g id="line2d_15">
      <g>
       <use xlink:href="#m2adda84f31" x="251.328835" y="485.28" style="stroke: #000000; stroke-width: 0.6"/>
      </g>
     </g>
    </g>
    <g id="xtick_12">
     <g id="line2d_16">
      <g>
       <use xlink:href="#m2adda84f31" x="319.631265" y="485.28" style="stroke: #000000; stroke-width: 0.6"/>
      </g>
     </g>
    </g>
    <g id="xtick_13">
     <g id="line2d_17">
      <g>
       <use xlink:href="#m2adda84f31" x="354.313777" y="485.28" style="stroke: #000000; stroke-width: 0.6"/>
      </g>
     </g>
    </g>
    <g id="xtick_14">
     <g id="line2d_18">
      <g>
       <use xlink:href="#m2adda84f31" x="378.92141" y="485.28" style="stroke: #000000; stroke-width: 0.6"/>
      </g>
     </g>
    </g>
    <g id="xtick_15">
     <g id="line2d_19">
      <g>
       <use xlink:href="#m2adda84f31" x="398.008574" y="485.28" style="stroke: #000000; stroke-width: 0.6"/>
      </g>
     </g>
    </g>
    <g id="xtick_16">
     <g id="line2d_20">
      <g>
       <use xlink:href="#m2adda84f31" x="413.603922" y="485.28" style="stroke: #000000; stroke-width: 0.6"/>
      </g>
     </g>
    </g>
    <g id="xtick_17">
     <g id="line2d_21">
      <g>
       <use xlink:href="#m2adda84f31" x="426.789601" y="485.28" style="stroke: #000000; stroke-width: 0.6"/>
      </g>
     </g>
    </g>
    <g id="xtick_18">
     <g id="line2d_22">
      <g>
       <use xlink:href="#m2adda84f31" x="438.211555" y="485.28" style="stroke: #000000; stroke-width: 0.6"/>
      </g>
     </g>
    </g>
    <g id="xtick_19">
     <g id="line2d_23">
      <g>
       <use xlink:href="#m2adda84f31" x="448.286433" y="485.28" style="stroke: #000000; stroke-width: 0.6"/>
      </g>
     </g>
    </g>
    <g id="xtick_20">
     <g id="line2d_24">
      <g>
       <use xlink:href="#m2adda84f31" x="516.588863" y="485.28" style="stroke: #000000; stroke-width: 0.6"/>
      </g>
     </g>
    </g>
    <g id="xtick_21">
     <g id="line2d_25">
      <g>
       <use xlink:href="#m2adda84f31" x="551.271375" y="485.28" style="stroke: #000000; stroke-width: 0.6"/>
      </g>
     </g>
    </g>
    <g id="xtick_22">
     <g id="line2d_26">
      <g>
       <use xlink:href="#m2adda84f31" x="575.879008" y="485.28" style="stroke: #000000; stroke-width: 0.6"/>
      </g>
     </g>
    </g>
    <g id="xtick_23">
     <g id="line2d_27">
      <g>
       <use xlink:href="#m2adda84f31" x="594.966172" y="485.28" style="stroke: #000000; stroke-width: 0.6"/>
      </g>
     </g>
    </g>
    <g id="xtick_24">
     <g id="line2d_28">
      <g>
       <use xlink:href="#m2adda84f31" x="610.56152" y="485.28" style="stroke: #000000; stroke-width: 0.6"/>
      </g>
     </g>
    </g>
    <g id="xtick_25">
     <g id="line2d_29">
      <g>
       <use xlink:href="#m2adda84f31" x="623.747199" y="485.28" style="stroke: #000000; stroke-width: 0.6"/>
      </g>
     </g>
    </g>
    <g id="xtick_26">
     <g id="line2d_30">
      <g>
       <use xlink:href="#m2adda84f31" x="635.169153" y="485.28" style="stroke: #000000; stroke-width: 0.6"/>
      </g>
     </g>
    </g>
    <g id="xtick_27">
     <g id="line2d_31">
      <g>
       <use xlink:href="#m2adda84f31" x="645.244031" y="485.28" style="stroke: #000000; stroke-width: 0.6"/>
      </g>
     </g>
    </g>
    <g id="xtick_28">
     <g id="line2d_32">
      <g>
       <use xlink:href="#m2adda84f31" x="713.546461" y="485.28" style="stroke: #000000; stroke-width: 0.6"/>
      </g>
     </g>
    </g>
    <g id="xtick_29">
     <g id="line2d_33">
      <g>
       <use xlink:href="#m2adda84f31" x="748.228973" y="485.28" style="stroke: #000000; stroke-width: 0.6"/>
      </g>
     </g>
    </g>
    <g id="xtick_30">
     <g id="line2d_34">
      <g>
       <use xlink:href="#m2adda84f31" x="772.836606" y="485.28" style="stroke: #000000; stroke-width: 0.6"/>
      </g>
     </g>
    </g>
    <g id="xtick_31">
     <g id="line2d_35">
      <g>
       <use xlink:href="#m2adda84f31" x="791.92377" y="485.28" style="stroke: #000000; stroke-width: 0.6"/>
      </g>
     </g>
    </g>
    <g id="xtick_32">
     <g id="line2d_36">
      <g>
       <use xlink:href="#m2adda84f31" x="807.519118" y="485.28" style="stroke: #000000; stroke-width: 0.6"/>
      </g>
     </g>
    </g>
    <g id="xtick_33">
     <g id="line2d_37">
      <g>
       <use xlink:href="#m2adda84f31" x="820.704796" y="485.28" style="stroke: #000000; stroke-width: 0.6"/>
      </g>
     </g>
    </g>
    <g id="xtick_34">
     <g id="line2d_38">
      <g>
       <use xlink:href="#m2adda84f31" x="832.126751" y="485.28" style="stroke: #000000; stroke-width: 0.6"/>
      </g>
     </g>
    </g>
    <g id="xtick_35">
     <g id="line2d_39">
      <g>
       <use xlink:href="#m2adda84f31" x="842.201629" y="485.28" style="stroke: #000000; stroke-width: 0.6"/>
      </g>
     </g>
    </g>
    <g id="xtick_36">
     <g id="line2d_40">
      <g>
       <use xlink:href="#m2adda84f31" x="910.504059" y="485.28" style="stroke: #000000; stroke-width: 0.6"/>
      </g>
     </g>
    </g>
    <g id="xtick_37">
     <g id="line2d_41">
      <g>
       <use xlink:href="#m2adda84f31" x="945.186571" y="485.28" style="stroke: #000000; stroke-width: 0.6"/>
      </g>
     </g>
    </g>
    <g id="xtick_38">
     <g id="line2d_42">
      <g>
       <use xlink:href="#m2adda84f31" x="969.794204" y="485.28" style="stroke: #000000; stroke-width: 0.6"/>
      </g>
     </g>
    </g>
    <g id="xtick_39">
     <g id="line2d_43">
      <g>
       <use xlink:href="#m2adda84f31" x="988.881367" y="485.28" style="stroke: #000000; stroke-width: 0.6"/>
      </g>
     </g>
    </g>
    <g id="xtick_40">
     <g id="line2d_44">
      <g>
       <use xlink:href="#m2adda84f31" x="1004.476715" y="485.28" style="stroke: #000000; stroke-width: 0.6"/>
      </g>
     </g>
    </g>
    <g id="xtick_41">
     <g id="line2d_45">
      <g>
       <use xlink:href="#m2adda84f31" x="1017.662394" y="485.28" style="stroke: #000000; stroke-width: 0.6"/>
      </g>
     </g>
    </g>
    <g id="text_5">
     <!-- $\frac{y}{a}$ -->
     <g transform="translate(570.417111 558.664646) scale(0.375 -0.375)">
      <defs>
       <path id="CMMI12-79" d="M 1683 -700 
C 1510 -939 1261 -1152 947 -1152 
C 870 -1152 563 -1152 467 -889 
C 486 -895 518 -895 531 -895 
C 723 -895 851 -729 851 -582 
C 851 -435 730 -384 634 -384 
C 531 -384 307 -458 307 -759 
C 307 -1071 582 -1286 947 -1286 
C 1587 -1286 2234 -700 2413 6 
L 3040 2485 
C 3046 2517 3059 2556 3059 2594 
C 3059 2689 2982 2753 2886 2753 
C 2829 2753 2694 2727 2643 2535 
L 2170 658 
C 2138 543 2138 530 2086 460 
C 1958 281 1747 64 1440 64 
C 1082 64 1050 415 1050 588 
C 1050 952 1222 1443 1395 1903 
C 1466 2088 1504 2178 1504 2305 
C 1504 2574 1312 2816 998 2816 
C 410 2816 173 1890 173 1839 
C 173 1814 198 1782 243 1782 
C 301 1782 307 1807 333 1897 
C 486 2433 730 2689 979 2689 
C 1037 2689 1146 2689 1146 2478 
C 1146 2312 1075 2127 979 1884 
C 666 1047 666 837 666 683 
C 666 77 1101 -64 1421 -64 
C 1606 -64 1837 -6 2061 230 
L 2067 224 
C 1971 -147 1907 -392 1683 -700 
z
" transform="scale(0.015625)"/>
       <path id="CMMI12-61" d="M 1926 760 
C 1894 651 1894 639 1805 517 
C 1664 338 1382 64 1082 64 
C 819 64 672 300 672 677 
C 672 1028 870 1743 992 2012 
C 1210 2459 1510 2689 1760 2689 
C 2182 2689 2266 2165 2266 2114 
C 2266 2108 2246 2024 2240 2012 
L 1926 760 
z
M 2336 2395 
C 2266 2561 2093 2816 1760 2816 
C 1037 2816 256 1884 256 939 
C 256 307 627 -64 1062 -64 
C 1414 -64 1715 211 1894 422 
C 1958 45 2259 -64 2451 -64 
C 2643 -64 2797 51 2912 281 
C 3014 498 3104 888 3104 913 
C 3104 945 3078 971 3040 971 
C 2982 971 2976 939 2950 843 
C 2854 466 2733 64 2470 64 
C 2285 64 2272 230 2272 358 
C 2272 505 2291 575 2349 824 
C 2394 984 2426 1124 2477 1309 
C 2714 2267 2771 2497 2771 2535 
C 2771 2625 2701 2695 2605 2695 
C 2400 2695 2349 2472 2336 2395 
z
" transform="scale(0.015625)"/>
      </defs>
      <use xlink:href="#CMMI12-79" transform="translate(0.024186 39.953917) scale(0.697382)"/>
      <use xlink:href="#CMMI12-61" transform="translate(0 -34.355253) scale(0.697382)"/>
      <path d="M 0 24.410885 
L 35.845347 24.410885 
L 35.845347 25.40233 
L 0 25.40233 
L 0 24.410885 
z
"/>
     </g>
    </g>
   </g>
   <g id="matplotlib.axis_2">
    <g id="ytick_1">
     <g id="line2d_46">
      <path d="M 130.738108 463.549091 
L 1023.538108 463.549091 
" clip-path="url(#pfbca6d7757)" style="fill: none; stroke: #b0b0b0; stroke-width: 0.8; stroke-linecap: square"/>
     </g>
     <g id="line2d_47">
      <defs>
       <path id="m126e0a28b0" d="M 0 0 
L -3.5 0 
" style="stroke: #000000; stroke-width: 0.8"/>
      </defs>
      <g>
       <use xlink:href="#m126e0a28b0" x="130.738108" y="463.549091" style="stroke: #000000; stroke-width: 0.8"/>
      </g>
     </g>
     <g id="text_6">
      <!-- $\mathdefault{0.000}$ -->
      <g transform="translate(80.266291 470.467589) scale(0.2 -0.2)">
       <defs>
        <path id="CMMI12-3a" d="M 1178 307 
C 1178 492 1024 619 870 619 
C 685 619 557 466 557 313 
C 557 128 710 0 864 0 
C 1050 0 1178 153 1178 307 
z
" transform="scale(0.015625)"/>
       </defs>
       <use xlink:href="#CMR17-30" transform="scale(0.996264)"/>
       <use xlink:href="#CMMI12-3a" transform="translate(45.690477 0) scale(0.996264)"/>
       <use xlink:href="#CMR17-30" transform="translate(72.787654 0) scale(0.996264)"/>
       <use xlink:href="#CMR17-30" transform="translate(118.478131 0) scale(0.996264)"/>
       <use xlink:href="#CMR17-30" transform="translate(164.168608 0) scale(0.996264)"/>
      </g>
     </g>
    </g>
    <g id="ytick_2">
     <g id="line2d_48">
      <path d="M 130.738108 385.176904 
L 1023.538108 385.176904 
" clip-path="url(#pfbca6d7757)" style="fill: none; stroke: #b0b0b0; stroke-width: 0.8; stroke-linecap: square"/>
     </g>
     <g id="line2d_49">
      <g>
       <use xlink:href="#m126e0a28b0" x="130.738108" y="385.176904" style="stroke: #000000; stroke-width: 0.8"/>
      </g>
     </g>
     <g id="text_7">
      <!-- $\mathdefault{0.002}$ -->
      <g transform="translate(80.266291 392.095403) scale(0.2 -0.2)">
       <use xlink:href="#CMR17-30" transform="scale(0.996264)"/>
       <use xlink:href="#CMMI12-3a" transform="translate(45.690477 0) scale(0.996264)"/>
       <use xlink:href="#CMR17-30" transform="translate(72.787654 0) scale(0.996264)"/>
       <use xlink:href="#CMR17-30" transform="translate(118.478131 0) scale(0.996264)"/>
       <use xlink:href="#CMR17-32" transform="translate(164.168608 0) scale(0.996264)"/>
      </g>
     </g>
    </g>
    <g id="ytick_3">
     <g id="line2d_50">
      <path d="M 130.738108 306.804718 
L 1023.538108 306.804718 
" clip-path="url(#pfbca6d7757)" style="fill: none; stroke: #b0b0b0; stroke-width: 0.8; stroke-linecap: square"/>
     </g>
     <g id="line2d_51">
      <g>
       <use xlink:href="#m126e0a28b0" x="130.738108" y="306.804718" style="stroke: #000000; stroke-width: 0.8"/>
      </g>
     </g>
     <g id="text_8">
      <!-- $\mathdefault{0.004}$ -->
      <g transform="translate(80.266291 313.723216) scale(0.2 -0.2)">
       <use xlink:href="#CMR17-30" transform="scale(0.996264)"/>
       <use xlink:href="#CMMI12-3a" transform="translate(45.690477 0) scale(0.996264)"/>
       <use xlink:href="#CMR17-30" transform="translate(72.787654 0) scale(0.996264)"/>
       <use xlink:href="#CMR17-30" transform="translate(118.478131 0) scale(0.996264)"/>
       <use xlink:href="#CMR17-34" transform="translate(164.168608 0) scale(0.996264)"/>
      </g>
     </g>
    </g>
    <g id="ytick_4">
     <g id="line2d_52">
      <path d="M 130.738108 228.432531 
L 1023.538108 228.432531 
" clip-path="url(#pfbca6d7757)" style="fill: none; stroke: #b0b0b0; stroke-width: 0.8; stroke-linecap: square"/>
     </g>
     <g id="line2d_53">
      <g>
       <use xlink:href="#m126e0a28b0" x="130.738108" y="228.432531" style="stroke: #000000; stroke-width: 0.8"/>
      </g>
     </g>
     <g id="text_9">
      <!-- $\mathdefault{0.006}$ -->
      <g transform="translate(80.266291 235.351029) scale(0.2 -0.2)">
       <defs>
        <path id="CMR17-36" d="M 678 2176 
C 678 3690 1395 4032 1811 4032 
C 1946 4032 2272 4009 2400 3776 
C 2298 3776 2106 3776 2106 3553 
C 2106 3381 2246 3323 2336 3323 
C 2394 3323 2566 3348 2566 3560 
C 2566 3954 2246 4179 1805 4179 
C 1043 4179 243 3390 243 1984 
C 243 253 966 -128 1478 -128 
C 2099 -128 2688 427 2688 1283 
C 2688 2081 2170 2662 1517 2662 
C 1126 2662 838 2407 678 1960 
L 678 2176 
z
M 1478 25 
C 691 25 691 1200 691 1436 
C 691 1896 909 2560 1504 2560 
C 1613 2560 1926 2560 2138 2120 
C 2253 1870 2253 1609 2253 1289 
C 2253 944 2253 690 2118 434 
C 1978 171 1773 25 1478 25 
z
" transform="scale(0.015625)"/>
       </defs>
       <use xlink:href="#CMR17-30" transform="scale(0.996264)"/>
       <use xlink:href="#CMMI12-3a" transform="translate(45.690477 0) scale(0.996264)"/>
       <use xlink:href="#CMR17-30" transform="translate(72.787654 0) scale(0.996264)"/>
       <use xlink:href="#CMR17-30" transform="translate(118.478131 0) scale(0.996264)"/>
       <use xlink:href="#CMR17-36" transform="translate(164.168608 0) scale(0.996264)"/>
      </g>
     </g>
    </g>
    <g id="ytick_5">
     <g id="line2d_54">
      <path d="M 130.738108 150.060344 
L 1023.538108 150.060344 
" clip-path="url(#pfbca6d7757)" style="fill: none; stroke: #b0b0b0; stroke-width: 0.8; stroke-linecap: square"/>
     </g>
     <g id="line2d_55">
      <g>
       <use xlink:href="#m126e0a28b0" x="130.738108" y="150.060344" style="stroke: #000000; stroke-width: 0.8"/>
      </g>
     </g>
     <g id="text_10">
      <!-- $\mathdefault{0.008}$ -->
      <g transform="translate(80.266291 156.978843) scale(0.2 -0.2)">
       <defs>
        <path id="CMR17-38" d="M 1741 2264 
C 2144 2467 2554 2773 2554 3263 
C 2554 3841 1990 4179 1472 4179 
C 890 4179 378 3759 378 3180 
C 378 3021 416 2747 666 2505 
C 730 2442 998 2251 1171 2130 
C 883 1983 211 1634 211 934 
C 211 279 838 -128 1459 -128 
C 2144 -128 2720 362 2720 1010 
C 2720 1590 2330 1857 2074 2029 
L 1741 2264 
z
M 902 2822 
C 851 2854 595 3051 595 3351 
C 595 3739 998 4032 1459 4032 
C 1965 4032 2336 3676 2336 3262 
C 2336 2669 1670 2331 1638 2331 
C 1632 2331 1626 2331 1574 2370 
L 902 2822 
z
M 2080 1519 
C 2176 1449 2483 1240 2483 851 
C 2483 381 2010 25 1472 25 
C 890 25 448 438 448 940 
C 448 1443 838 1862 1280 2060 
L 2080 1519 
z
" transform="scale(0.015625)"/>
       </defs>
       <use xlink:href="#CMR17-30" transform="scale(0.996264)"/>
       <use xlink:href="#CMMI12-3a" transform="translate(45.690477 0) scale(0.996264)"/>
       <use xlink:href="#CMR17-30" transform="translate(72.787654 0) scale(0.996264)"/>
       <use xlink:href="#CMR17-30" transform="translate(118.478131 0) scale(0.996264)"/>
       <use xlink:href="#CMR17-38" transform="translate(164.168608 0) scale(0.996264)"/>
      </g>
     </g>
    </g>
    <g id="ytick_6">
     <g id="line2d_56">
      <path d="M 130.738108 71.688158 
L 1023.538108 71.688158 
" clip-path="url(#pfbca6d7757)" style="fill: none; stroke: #b0b0b0; stroke-width: 0.8; stroke-linecap: square"/>
     </g>
     <g id="line2d_57">
      <g>
       <use xlink:href="#m126e0a28b0" x="130.738108" y="71.688158" style="stroke: #000000; stroke-width: 0.8"/>
      </g>
     </g>
     <g id="text_11">
      <!-- $\mathdefault{0.010}$ -->
      <g transform="translate(80.266291 78.606656) scale(0.2 -0.2)">
       <use xlink:href="#CMR17-30" transform="scale(0.996264)"/>
       <use xlink:href="#CMMI12-3a" transform="translate(45.690477 0) scale(0.996264)"/>
       <use xlink:href="#CMR17-30" transform="translate(72.787654 0) scale(0.996264)"/>
       <use xlink:href="#CMR17-31" transform="translate(118.478131 0) scale(0.996264)"/>
       <use xlink:href="#CMR17-30" transform="translate(164.168608 0) scale(0.996264)"/>
      </g>
     </g>
    </g>
    <g id="text_12">
     <!-- $\frac{k}{U_{0m}^2}$ -->
     <g transform="translate(40.070723 267.467518) rotate(-90) scale(0.375 -0.375)">
      <defs>
       <path id="CMMI12-6b" d="M 1798 4257 
C 1805 4283 1818 4321 1818 4352 
C 1818 4416 1754 4416 1741 4416 
C 1734 4416 1504 4393 1389 4377 
C 1280 4377 1184 4358 1069 4358 
C 915 4345 870 4339 870 4224 
C 870 4160 934 4160 998 4160 
C 1325 4160 1325 4103 1325 4040 
C 1325 4015 1325 4002 1293 3888 
L 378 248 
C 352 152 352 140 352 101 
C 352 -38 461 -64 525 -64 
C 704 -64 742 77 794 275 
L 1094 1469 
C 1555 1418 1830 1226 1830 920 
C 1830 881 1830 856 1811 760 
C 1786 664 1786 588 1786 556 
C 1786 185 2029 -64 2355 -64 
C 2650 -64 2803 204 2854 294 
C 2989 530 3072 888 3072 913 
C 3072 945 3046 971 3008 971 
C 2950 971 2944 945 2918 843 
C 2829 511 2694 64 2368 64 
C 2240 64 2157 128 2157 370 
C 2157 492 2182 632 2208 728 
C 2234 843 2234 849 2234 926 
C 2234 1303 1894 1514 1306 1590 
C 1536 1731 1766 1980 1856 2076 
C 2221 2484 2470 2689 2765 2689 
C 2912 2689 2950 2650 2995 2612 
C 2758 2586 2669 2420 2669 2293 
C 2669 2139 2790 2088 2880 2088 
C 3053 2088 3206 2235 3206 2440 
C 3206 2625 3059 2816 2771 2816 
C 2419 2816 2131 2567 1677 2056 
C 1613 1980 1376 1737 1139 1648 
L 1798 4257 
z
" transform="scale(0.015625)"/>
       <path id="CMMI12-55" d="M 3238 1474 
C 3014 581 2272 57 1670 57 
C 1210 57 896 363 896 891 
C 896 916 896 1107 966 1387 
L 1594 3887 
C 1651 4103 1664 4167 2118 4167 
C 2234 4167 2298 4167 2298 4282 
C 2298 4352 2240 4352 2202 4352 
C 2086 4352 1952 4352 1830 4352 
L 1075 4352 
C 954 4352 819 4352 698 4352 
C 653 4352 576 4352 576 4231 
C 576 4167 621 4167 742 4167 
C 1126 4167 1126 4116 1126 4046 
C 1126 4008 1082 3824 1050 3715 
L 493 1488 
C 474 1418 435 1246 435 1075 
C 435 374 941 -128 1638 -128 
C 2285 -128 3002 384 3328 1197 
C 3373 1305 3430 1530 3469 1702 
C 3533 1933 3667 2496 3712 2662 
L 3955 3623 
C 4038 3956 4090 4167 4653 4167 
C 4704 4173 4730 4224 4730 4282 
C 4730 4352 4672 4352 4646 4352 
C 4557 4352 4442 4352 4352 4352 
L 4051 4352 
C 3654 4352 3450 4352 3443 4352 
C 3405 4352 3328 4352 3328 4231 
C 3328 4167 3379 4167 3424 4167 
C 3808 4167 3834 4020 3834 3905 
C 3834 3848 3834 3828 3808 3739 
L 3238 1474 
z
" transform="scale(0.015625)"/>
       <path id="CMMI12-6d" d="M 1318 1871 
C 1331 1910 1491 2229 1728 2433 
C 1894 2586 2112 2689 2362 2689 
C 2618 2689 2707 2497 2707 2242 
C 2707 2203 2707 2076 2630 1775 
L 2470 1118 
C 2419 926 2298 453 2285 383 
C 2259 287 2221 121 2221 96 
C 2221 6 2291 -64 2387 -64 
C 2579 -64 2611 83 2669 313 
L 3053 1839 
C 3066 1890 3398 2689 4102 2689 
C 4358 2689 4448 2497 4448 2242 
C 4448 1884 4198 1188 4058 805 
C 4000 651 3968 568 3968 453 
C 3968 166 4166 -64 4474 -64 
C 5069 -64 5293 875 5293 913 
C 5293 945 5267 971 5229 971 
C 5171 971 5165 952 5133 843 
C 4986 332 4749 64 4493 64 
C 4429 64 4326 64 4326 269 
C 4326 436 4403 640 4429 710 
C 4544 1018 4832 1773 4832 2145 
C 4832 2528 4608 2816 4122 2816 
C 3693 2816 3347 2574 3091 2197 
C 3072 2542 2861 2816 2381 2816 
C 1811 2816 1510 2415 1395 2255 
C 1376 2618 1114 2816 832 2816 
C 646 2816 499 2727 378 2484 
C 262 2254 173 1865 173 1839 
C 173 1814 198 1782 243 1782 
C 294 1782 301 1788 339 1935 
C 435 2312 557 2689 813 2689 
C 960 2689 1011 2586 1011 2395 
C 1011 2254 947 2005 902 1807 
L 723 1118 
C 698 996 627 709 595 594 
C 550 428 480 128 480 96 
C 480 6 550 -64 646 -64 
C 723 -64 813 -26 864 70 
C 877 102 934 326 966 453 
L 1107 1028 
L 1318 1871 
z
" transform="scale(0.015625)"/>
      </defs>
      <use xlink:href="#CMMI12-6b" transform="translate(37.264008 39.226102) scale(0.697382)"/>
      <use xlink:href="#CMMI12-55" transform="translate(0 -34.355253) scale(0.697382)"/>
      <use xlink:href="#CMR17-32" transform="translate(53.660908 -14.20868) scale(0.498132)"/>
      <use xlink:href="#CMR17-30" transform="translate(46.376275 -51.595716) scale(0.498132)"/>
      <use xlink:href="#CMMI12-6d" transform="translate(69.221514 -51.595716) scale(0.498132)"/>
      <path d="M 0 24.410885 
L 112.38325 24.410885 
L 112.38325 25.40233 
L 0 25.40233 
L 0 24.410885 
z
"/>
     </g>
    </g>
   </g>
   <g id="line2d_58">
    <path d="M -1 459.882314 
L 171.319926 459.879085 
L 232.722218 455.528252 
L 269.533836 451.462624 
L 296.287526 446.674782 
L 317.537682 442.311323 
L 335.31294 437.401291 
L 350.695424 433.27051 
L 364.331054 428.932967 
L 376.636447 425.714865 
L 387.896053 422.471932 
L 398.312745 420.435848 
L 408.036304 418.329226 
L 417.180461 417.357098 
L 425.833607 416.18108 
L 434.065799 416.040993 
L 441.9335 415.557251 
L 449.482879 416.034375 
L 456.752166 416.040528 
L 463.773374 416.963779 
L 470.57357 417.300433 
L 477.175843 418.538019 
L 483.600047 419.081078 
L 489.863371 420.530442 
L 495.980796 421.18221 
L 501.965455 422.760699 
L 507.82892 423.441904 
L 513.581443 425.078729 
L 519.23214 425.722518 
L 524.789159 427.352707 
L 530.259803 427.901146 
L 535.650647 429.462323 
L 540.967627 429.865895 
L 546.216116 431.298711 
L 551.400999 431.518774 
L 556.526722 432.771202 
L 561.597343 432.783825 
L 566.616577 433.81735 
L 571.587831 433.616009 
L 576.514234 434.410541 
L 581.398668 434.005036 
L 586.243792 434.559178 
L 591.052062 433.970701 
L 595.82575 434.297736 
L 600.566962 433.552154 
L 605.277653 433.673642 
L 609.95964 432.795789 
L 614.614613 432.735558 
L 619.244146 431.745925 
L 623.849708 431.526097 
L 628.432671 430.439939 
L 632.994316 430.079109 
L 637.535842 428.906901 
L 642.05837 428.419703 
L 646.562953 427.167963 
L 651.050578 426.565341 
L 655.52217 425.237537 
L 659.978598 424.527297 
L 664.420681 423.124647 
L 668.849187 422.312076 
L 673.264839 420.834207 
L 677.66832 419.922648 
L 682.060269 418.368124 
L 686.441293 417.359494 
L 690.811963 415.726246 
L 695.172816 414.621489 
L 699.524362 412.907183 
L 703.86708 411.706685 
L 708.201424 409.90906 
L 712.527822 408.613032 
L 716.846681 406.730227 
L 721.158383 405.339089 
L 725.463291 403.369979 
L 729.761749 401.884742 
L 734.054082 399.829294 
L 738.340597 398.251962 
L 742.621587 396.111614 
L 746.897328 394.445602 
L 751.168081 392.223671 
L 755.434095 390.47425 
L 759.695605 388.176358 
L 763.952835 386.35111 
L 768.205996 383.985636 
L 772.45529 382.094916 
L 776.700907 379.673441 
L 780.943028 377.730846 
L 785.181826 375.26861 
L 789.417462 373.291432 
L 793.650092 370.807764 
L 797.879863 368.817431 
L 802.106915 366.336172 
L 806.331381 364.35867 
L 810.553386 361.908572 
L 814.773051 359.974846 
L 818.990489 357.589967 
L 823.205809 355.736326 
L 827.419113 353.45642 
L 831.630499 351.72493 
L 835.84006 349.595849 
L 840.047885 348.034746 
L 844.254058 346.108849 
L 848.458658 344.772939 
L 852.661761 343.109485 
L 856.86344 342.060495 
L 861.063763 340.725957 
L 865.262796 340.032738 
L 869.460601 339.100904 
L 873.657237 338.83933 
L 877.852761 338.39099 
L 882.047225 338.64327 
L 886.240681 338.765159 
L 894.62476 340.400611 
L 903.005358 343.474865 
L 911.382801 348.151962 
L 919.757384 354.560311 
L 928.129375 362.758831 
L 936.499017 372.687514 
L 944.866528 384.098917 
L 961.595938 408.893763 
L 965.777248 414.746163 
L 969.95818 419.976904 
L 974.138753 424.429421 
L 978.318983 427.760906 
L 982.498887 429.656028 
L 982.95629 429.677742 
L 982.95629 429.677742 
" clip-path="url(#pfbca6d7757)" style="fill: none; stroke: #000000; stroke-width: 1.2; stroke-linecap: square"/>
   </g>
   <g id="line2d_59">
    <path d="M -1 363.056319 
L 171.319926 362.967837 
L 232.722218 274.379893 
L 269.533836 210.904164 
L 296.287526 173.59875 
L 317.537682 148.196604 
L 335.31294 134.211065 
L 350.695424 124.303484 
L 364.331054 120.102022 
L 376.636447 116.912544 
L 387.896053 116.983129 
L 398.312745 116.762102 
L 408.036304 118.664271 
L 417.180461 119.721039 
L 425.833607 122.344706 
L 434.065799 123.905042 
L 441.9335 126.746195 
L 449.482879 128.460439 
L 456.752166 131.299831 
L 463.773374 133.019523 
L 470.57357 135.7731 
L 477.175843 137.445285 
L 483.600047 140.092386 
L 489.863371 141.708467 
L 495.980796 144.256934 
L 501.965455 145.827823 
L 507.82892 148.297134 
L 513.581443 149.841342 
L 519.23214 152.254685 
L 524.789159 153.792823 
L 530.259803 156.173581 
L 535.650647 157.726027 
L 540.967627 160.096417 
L 546.216116 161.682494 
L 551.400999 164.063228 
L 556.526722 165.701092 
L 561.597343 168.111482 
L 566.616577 169.818308 
L 571.587831 172.276551 
L 576.514234 174.068818 
L 581.398668 176.592323 
L 586.243792 178.486117 
L 591.052062 181.091817 
L 595.82575 183.103108 
L 600.566962 185.80773 
L 605.277653 187.952614 
L 609.95964 190.77291 
L 614.614613 193.067802 
L 619.244146 196.020729 
L 623.849708 198.482524 
L 628.432671 201.585383 
L 632.994316 204.231572 
L 637.535842 207.502103 
L 642.05837 210.350853 
L 646.562953 213.807286 
L 651.050578 216.877465 
L 655.52217 220.538505 
L 659.978598 223.849616 
L 664.420681 227.734317 
L 668.849187 231.306255 
L 673.264839 235.433745 
L 677.66832 239.286366 
L 682.060269 243.675413 
L 686.441293 247.828041 
L 690.811963 252.496271 
L 695.172816 256.967176 
L 703.86708 266.734832 
L 712.527822 277.152706 
L 721.158383 288.22806 
L 729.761749 299.946646 
L 738.340597 312.260951 
L 751.168081 331.645828 
L 772.45529 364.420736 
L 780.943028 376.63849 
L 785.181826 382.200072 
L 789.417462 387.570913 
L 793.650092 392.25727 
L 797.879863 396.68841 
L 802.106915 400.287499 
L 806.331381 403.61108 
L 810.553386 406.036126 
L 814.773051 408.227425 
L 818.990489 409.545057 
L 823.205809 410.721271 
L 831.630499 411.463472 
L 840.047885 410.870101 
L 844.254058 410.018918 
L 848.458658 409.311073 
L 852.661761 408.098102 
L 856.86344 407.089516 
L 861.063763 405.645035 
L 865.262796 404.454934 
L 869.460601 402.890348 
L 873.657237 401.624429 
L 877.852761 400.042361 
L 882.047225 398.801123 
L 886.240681 397.302538 
L 890.433177 396.186626 
L 894.62476 394.874792 
L 898.815473 393.987401 
L 903.005358 392.968935 
L 911.382801 391.798523 
L 919.757384 391.572607 
L 928.129375 392.479786 
L 932.314475 393.509978 
L 936.499017 394.66094 
L 940.683026 396.339209 
L 944.866528 398.164377 
L 953.232109 402.874783 
L 961.595938 408.406799 
L 965.777248 411.284489 
L 969.95818 413.965823 
L 974.138753 416.377204 
L 978.318983 418.231303 
L 982.95629 419.352202 
L 982.95629 419.352202 
" clip-path="url(#pfbca6d7757)" style="fill: none; stroke-dasharray: 4.44,1.92; stroke-dashoffset: 0; stroke: #000000; stroke-width: 1.2"/>
   </g>
   <g id="line2d_60">
    <path d="M -1 318.846273 
L 171.319926 318.718865 
L 232.722218 200.809125 
L 269.533836 127.851491 
L 296.287526 86.174124 
L 317.537682 59.907645 
L 335.31294 45.272234 
L 350.695424 35.864464 
L 364.331054 31.63116 
L 376.636447 28.967149 
L 398.312745 29.005593 
L 408.036304 30.61583 
L 417.180461 31.745061 
L 425.833607 33.91779 
L 434.065799 35.380321 
L 441.9335 37.655728 
L 449.482879 39.148489 
L 456.752166 41.341549 
L 463.773374 42.747118 
L 470.57357 44.794681 
L 477.175843 46.077721 
L 483.600047 47.969568 
L 489.863371 49.129788 
L 495.980796 50.877275 
L 501.965455 51.928081 
L 507.82892 53.550038 
L 513.581443 54.509048 
L 519.23214 56.025697 
L 524.789159 56.910767 
L 530.259803 58.341325 
L 535.650647 59.169098 
L 540.967627 60.531053 
L 546.216116 61.316628 
L 551.400999 62.62574 
L 556.526722 63.382806 
L 561.597343 64.653376 
L 566.616577 65.394511 
L 571.587831 66.639737 
L 576.514234 67.376744 
L 581.398668 68.609069 
L 586.243792 69.353289 
L 591.052062 70.584722 
L 595.82575 71.347316 
L 600.566962 72.589707 
L 605.277653 73.381897 
L 609.95964 74.647181 
L 614.614613 75.480466 
L 619.244146 76.780875 
L 623.849708 77.667222 
L 628.432671 79.015477 
L 632.994316 79.967496 
L 637.535842 81.376987 
L 642.05837 82.408094 
L 646.562953 83.893043 
L 651.050578 85.017621 
L 655.52217 86.593253 
L 659.978598 87.826807 
L 664.420681 89.509507 
L 668.849187 90.868829 
L 673.264839 92.676312 
L 677.66832 94.17964 
L 682.060269 96.131116 
L 686.441293 97.798305 
L 690.811963 99.914659 
L 695.172816 101.767354 
L 699.524362 104.071318 
L 703.86708 106.133133 
L 708.201424 108.649461 
L 712.527822 110.946161 
L 716.846681 113.701792 
L 721.158383 116.261457 
L 725.463291 119.285703 
L 729.761749 122.138886 
L 738.340597 128.643407 
L 746.897328 135.845183 
L 755.434095 143.819723 
L 763.952835 152.64765 
L 772.45529 162.413245 
L 780.943028 173.202717 
L 789.417462 185.104144 
L 797.879863 198.202059 
L 806.331381 212.569707 
L 814.773051 228.259642 
L 823.205809 245.290974 
L 831.630499 263.627715 
L 840.047885 283.149027 
L 848.458658 303.610545 
L 865.262796 345.481474 
L 869.460601 355.656471 
L 873.657237 365.395341 
L 877.852761 374.683791 
L 882.047225 383.288413 
L 886.240681 391.146285 
L 890.433177 398.106991 
L 894.62476 404.108453 
L 898.815473 409.125478 
L 903.005358 413.144104 
L 907.194454 416.276069 
L 911.382801 418.558436 
L 915.570432 420.192823 
L 919.757384 421.228024 
L 923.943688 421.887713 
L 928.129375 422.197539 
L 932.314475 422.361663 
L 944.866528 422.419796 
L 953.232109 422.732007 
L 961.595938 423.449344 
L 978.318983 425.35376 
L 982.95629 425.613608 
L 982.95629 425.613608 
" clip-path="url(#pfbca6d7757)" style="fill: none; stroke-dasharray: 8.32,2.08,1.3,2.08; stroke-dashoffset: 0; stroke: #000000; stroke-width: 1.3"/>
   </g>
   <g id="line2d_61">
    <path d="M -1 433.609649 
L 171.319926 433.583288 
L 232.722218 402.831423 
L 269.533836 374.14479 
L 296.287526 350.558263 
L 317.537682 332.590329 
L 335.31294 319.447241 
L 350.695424 309.9839 
L 364.331054 303.319135 
L 376.636447 298.695877 
L 387.896053 295.610974 
L 398.312745 293.617431 
L 408.036304 292.439323 
L 417.180461 291.808599 
L 425.833607 291.581951 
L 434.065799 291.596853 
L 449.482879 292.054477 
L 483.600047 293.461679 
L 495.980796 293.71478 
L 507.82892 293.728115 
L 519.23214 293.503815 
L 530.259803 293.054168 
L 540.967627 292.39448 
L 551.400999 291.53979 
L 561.597343 290.503578 
L 571.587831 289.297492 
L 581.398668 287.931528 
L 591.052062 286.414402 
L 605.277653 283.866963 
L 614.614613 282.005467 
L 623.849708 280.019069 
L 637.535842 276.827531 
L 651.050578 273.392445 
L 664.420681 269.768878 
L 682.060269 264.699198 
L 729.761749 250.576048 
L 742.621587 247.119532 
L 751.168081 245.033269 
L 759.695605 243.18262 
L 768.205996 241.625905 
L 776.700907 240.429089 
L 780.943028 239.985494 
L 785.181826 239.666558 
L 789.417462 239.471016 
L 793.650092 239.421924 
L 797.879863 239.519957 
L 802.106915 239.788786 
L 806.331381 240.231139 
L 810.553386 240.871288 
L 814.773051 241.714086 
L 818.990489 242.784331 
L 823.205809 244.089013 
L 827.419113 245.653278 
L 831.630499 247.486169 
L 835.84006 249.612856 
L 840.047885 252.044185 
L 844.254058 254.80481 
L 848.458658 257.906876 
L 852.661761 261.373643 
L 856.86344 265.217681 
L 861.063763 269.459495 
L 865.262796 274.110632 
L 869.460601 279.186799 
L 873.657237 284.69626 
L 877.852761 290.646929 
L 882.047225 297.04041 
L 886.240681 303.872571 
L 890.433177 311.133566 
L 894.62476 318.801478 
L 898.815473 326.848627 
L 903.005358 335.228196 
L 911.382801 352.746012 
L 923.943688 379.538466 
L 928.129375 388.11317 
L 932.314475 396.268759 
L 936.499017 403.84292 
L 940.683026 410.697134 
L 944.866528 416.704191 
L 949.049548 421.787122 
L 953.232109 425.913199 
L 957.414232 429.112879 
L 961.595938 431.471886 
L 965.777248 433.112346 
L 969.95818 434.18893 
L 974.138753 434.836613 
L 978.318983 435.197219 
L 982.95629 435.346285 
L 982.95629 435.346285 
" clip-path="url(#pfbca6d7757)" style="fill: none; stroke-dasharray: 1.8,2.97; stroke-dashoffset: 0; stroke: #000000; stroke-width: 1.8"/>
   </g>
   <g id="PathCollection_1">
    <defs>
     <path id="me376bcccc2" d="M -6.123724 0 
L 6.123724 0 
M 0 6.123724 
L 0 -6.123724 
" style="stroke: #000000; stroke-width: 1.2"/>
    </defs>
    <g clip-path="url(#pfbca6d7757)">
     <use xlink:href="#me376bcccc2" x="534.901926" y="413.237576" style="stroke: #000000; stroke-width: 1.2"/>
     <use xlink:href="#me376bcccc2" x="586.039467" y="403.61592" style="stroke: #000000; stroke-width: 1.2"/>
     <use xlink:href="#me376bcccc2" x="612.161079" y="405.086868" style="stroke: #000000; stroke-width: 1.2"/>
     <use xlink:href="#me376bcccc2" x="635.635748" y="403.456727" style="stroke: #000000; stroke-width: 1.2"/>
     <use xlink:href="#me376bcccc2" x="651.231096" y="384.487229" style="stroke: #000000; stroke-width: 1.2"/>
     <use xlink:href="#me376bcccc2" x="666.826444" y="382.844352" style="stroke: #000000; stroke-width: 1.2"/>
     <use xlink:href="#me376bcccc2" x="691.434077" y="369.60582" style="stroke: #000000; stroke-width: 1.2"/>
     <use xlink:href="#me376bcccc2" x="709.0836" y="374.999296" style="stroke: #000000; stroke-width: 1.2"/>
     <use xlink:href="#me376bcccc2" x="724.920239" y="372.433097" style="stroke: #000000; stroke-width: 1.2"/>
     <use xlink:href="#me376bcccc2" x="746.148929" y="344.567866" style="stroke: #000000; stroke-width: 1.2"/>
     <use xlink:href="#me376bcccc2" x="782.997065" y="322.223466" style="stroke: #000000; stroke-width: 1.2"/>
     <use xlink:href="#me376bcccc2" x="807.29866" y="315.397248" style="stroke: #000000; stroke-width: 1.2"/>
     <use xlink:href="#me376bcccc2" x="826.201673" y="313.716165" style="stroke: #000000; stroke-width: 1.2"/>
     <use xlink:href="#me376bcccc2" x="856.858143" y="342.995034" style="stroke: #000000; stroke-width: 1.2"/>
     <use xlink:href="#me376bcccc2" x="879.37939" y="329.036948" style="stroke: #000000; stroke-width: 1.2"/>
     <use xlink:href="#me376bcccc2" x="897.189849" y="333.010418" style="stroke: #000000; stroke-width: 1.2"/>
     <use xlink:href="#me376bcccc2" x="911.92335" y="306.743489" style="stroke: #000000; stroke-width: 1.2"/>
     <use xlink:href="#me376bcccc2" x="935.441318" y="354.883605" style="stroke: #000000; stroke-width: 1.2"/>
     <use xlink:href="#me376bcccc2" x="953.867956" y="381.010443" style="stroke: #000000; stroke-width: 1.2"/>
     <use xlink:href="#me376bcccc2" x="969.020103" y="383.079958" style="stroke: #000000; stroke-width: 1.2"/>
     <use xlink:href="#me376bcccc2" x="981.887798" y="391.281608" style="stroke: #000000; stroke-width: 1.2"/>
    </g>
   </g>
   <g id="PathCollection_2">
    <defs>
     <path id="m296689030a" d="M 0 0 
L 0 6.123724 
M 0 0 
L 4.898979 -3.061862 
M 0 0 
L -4.898979 -3.061862 
" style="stroke: #000000; stroke-width: 1.2"/>
    </defs>
    <g clip-path="url(#pfbca6d7757)">
     <use xlink:href="#m296689030a" x="534.901926" y="299.197717" style="stroke: #000000; stroke-width: 1.2"/>
     <use xlink:href="#m296689030a" x="586.039467" y="266.805023" style="stroke: #000000; stroke-width: 1.2"/>
     <use xlink:href="#m296689030a" x="612.161079" y="276.687756" style="stroke: #000000; stroke-width: 1.2"/>
     <use xlink:href="#m296689030a" x="635.635748" y="264.843759" style="stroke: #000000; stroke-width: 1.2"/>
     <use xlink:href="#m296689030a" x="651.231096" y="265.837127" style="stroke: #000000; stroke-width: 1.2"/>
     <use xlink:href="#m296689030a" x="666.826444" y="269.842435" style="stroke: #000000; stroke-width: 1.2"/>
     <use xlink:href="#m296689030a" x="691.434077" y="281.533606" style="stroke: #000000; stroke-width: 1.2"/>
     <use xlink:href="#m296689030a" x="709.0836" y="299.407853" style="stroke: #000000; stroke-width: 1.2"/>
     <use xlink:href="#m296689030a" x="724.920239" y="308.424573" style="stroke: #000000; stroke-width: 1.2"/>
     <use xlink:href="#m296689030a" x="746.148929" y="329.845651" style="stroke: #000000; stroke-width: 1.2"/>
     <use xlink:href="#m296689030a" x="782.997065" y="369.32564" style="stroke: #000000; stroke-width: 1.2"/>
     <use xlink:href="#m296689030a" x="807.29866" y="393.185562" style="stroke: #000000; stroke-width: 1.2"/>
     <use xlink:href="#m296689030a" x="826.201673" y="401.782011" style="stroke: #000000; stroke-width: 1.2"/>
     <use xlink:href="#m296689030a" x="856.858143" y="388.021325" style="stroke: #000000; stroke-width: 1.2"/>
     <use xlink:href="#m296689030a" x="879.37939" y="386.817822" style="stroke: #000000; stroke-width: 1.2"/>
     <use xlink:href="#m296689030a" x="897.189849" y="371.216859" style="stroke: #000000; stroke-width: 1.2"/>
     <use xlink:href="#m296689030a" x="911.92335" y="377.55276" style="stroke: #000000; stroke-width: 1.2"/>
     <use xlink:href="#m296689030a" x="935.441318" y="382.697894" style="stroke: #000000; stroke-width: 1.2"/>
     <use xlink:href="#m296689030a" x="953.867956" y="380.806675" style="stroke: #000000; stroke-width: 1.2"/>
     <use xlink:href="#m296689030a" x="969.020103" y="390.54295" style="stroke: #000000; stroke-width: 1.2"/>
     <use xlink:href="#m296689030a" x="981.887798" y="398.075987" style="stroke: #000000; stroke-width: 1.2"/>
    </g>
   </g>
   <g id="PathCollection_3">
    <defs>
     <path id="C0_0_0a83d937dc" d="M -4.242641 0 
L 0 -7.071068 
L 4.242641 -0 
L 0 7.071068 
z
M -4.242641 0 
L 4.242641 -0 
M 0 -7.071068 
L 0 7.071068 
"/>
    </defs>
    <g clip-path="url(#pfbca6d7757)">
     <use xlink:href="#C0_0_0a83d937dc" x="534.901926" y="203.312286" style="fill: none; stroke: #000000; stroke-width: 0.8"/>
    </g>
    <g clip-path="url(#pfbca6d7757)">
     <use xlink:href="#C0_0_0a83d937dc" x="586.039467" y="152.389468" style="fill: none; stroke: #000000; stroke-width: 0.8"/>
    </g>
    <g clip-path="url(#pfbca6d7757)">
     <use xlink:href="#C0_0_0a83d937dc" x="612.161079" y="115.965994" style="fill: none; stroke: #000000; stroke-width: 0.8"/>
    </g>
    <g clip-path="url(#pfbca6d7757)">
     <use xlink:href="#C0_0_0a83d937dc" x="635.635748" y="91.895936" style="fill: none; stroke: #000000; stroke-width: 0.8"/>
    </g>
    <g clip-path="url(#pfbca6d7757)">
     <use xlink:href="#C0_0_0a83d937dc" x="651.231096" y="72.060426" style="fill: none; stroke: #000000; stroke-width: 0.8"/>
    </g>
    <g clip-path="url(#pfbca6d7757)">
     <use xlink:href="#C0_0_0a83d937dc" x="666.826444" y="80.847907" style="fill: none; stroke: #000000; stroke-width: 0.8"/>
    </g>
    <g clip-path="url(#pfbca6d7757)">
     <use xlink:href="#C0_0_0a83d937dc" x="691.434077" y="58.0705" style="fill: none; stroke: #000000; stroke-width: 0.8"/>
    </g>
    <g clip-path="url(#pfbca6d7757)">
     <use xlink:href="#C0_0_0a83d937dc" x="709.0836" y="101.74683" style="fill: none; stroke: #000000; stroke-width: 0.8"/>
    </g>
    <g clip-path="url(#pfbca6d7757)">
     <use xlink:href="#C0_0_0a83d937dc" x="724.920239" y="97.652373" style="fill: none; stroke: #000000; stroke-width: 0.8"/>
    </g>
    <g clip-path="url(#pfbca6d7757)">
     <use xlink:href="#C0_0_0a83d937dc" x="746.148929" y="110.572518" style="fill: none; stroke: #000000; stroke-width: 0.8"/>
    </g>
    <g clip-path="url(#pfbca6d7757)">
     <use xlink:href="#C0_0_0a83d937dc" x="782.997065" y="148.237701" style="fill: none; stroke: #000000; stroke-width: 0.8"/>
    </g>
    <g clip-path="url(#pfbca6d7757)">
     <use xlink:href="#C0_0_0a83d937dc" x="807.29866" y="176.739706" style="fill: none; stroke: #000000; stroke-width: 0.8"/>
    </g>
    <g clip-path="url(#pfbca6d7757)">
     <use xlink:href="#C0_0_0a83d937dc" x="826.201673" y="240.168766" style="fill: none; stroke: #000000; stroke-width: 0.8"/>
    </g>
    <g clip-path="url(#pfbca6d7757)">
     <use xlink:href="#C0_0_0a83d937dc" x="856.858143" y="335.073565" style="fill: none; stroke: #000000; stroke-width: 0.8"/>
    </g>
    <g clip-path="url(#pfbca6d7757)">
     <use xlink:href="#C0_0_0a83d937dc" x="879.37939" y="391.657304" style="fill: none; stroke: #000000; stroke-width: 0.8"/>
    </g>
    <g clip-path="url(#pfbca6d7757)">
     <use xlink:href="#C0_0_0a83d937dc" x="897.189849" y="428.18903" style="fill: none; stroke: #000000; stroke-width: 0.8"/>
    </g>
    <g clip-path="url(#pfbca6d7757)">
     <use xlink:href="#C0_0_0a83d937dc" x="911.92335" y="432.652816" style="fill: none; stroke: #000000; stroke-width: 0.8"/>
    </g>
    <g clip-path="url(#pfbca6d7757)">
     <use xlink:href="#C0_0_0a83d937dc" x="935.441318" y="432.875687" style="fill: none; stroke: #000000; stroke-width: 0.8"/>
    </g>
    <g clip-path="url(#pfbca6d7757)">
     <use xlink:href="#C0_0_0a83d937dc" x="953.867956" y="425.138882" style="fill: none; stroke: #000000; stroke-width: 0.8"/>
    </g>
    <g clip-path="url(#pfbca6d7757)">
     <use xlink:href="#C0_0_0a83d937dc" x="969.020103" y="431.627609" style="fill: none; stroke: #000000; stroke-width: 0.8"/>
    </g>
    <g clip-path="url(#pfbca6d7757)">
     <use xlink:href="#C0_0_0a83d937dc" x="981.887798" y="435.855789" style="fill: none; stroke: #000000; stroke-width: 0.8"/>
    </g>
   </g>
   <g id="PathCollection_4">
    <defs>
     <path id="C1_0_40fe63f38a" d="M -4.12479 -1.767767 
L 4.12479 -1.767767 
L 0 7.071068 
z
M -4.12479 -1.767767 
L 0 2.268046 
M 4.12479 -1.767767 
L 0 2.268046 
M 0 7.071068 
L 0 2.268046 
"/>
    </defs>
    <g clip-path="url(#pfbca6d7757)">
     <use xlink:href="#C1_0_40fe63f38a" x="534.901926" y="328.521161" style="fill: none; stroke: #000000; stroke-width: 0.8"/>
    </g>
    <g clip-path="url(#pfbca6d7757)">
     <use xlink:href="#C1_0_40fe63f38a" x="586.039467" y="288.404398" style="fill: none; stroke: #000000; stroke-width: 0.8"/>
    </g>
    <g clip-path="url(#pfbca6d7757)">
     <use xlink:href="#C1_0_40fe63f38a" x="612.161079" y="281.119703" style="fill: none; stroke: #000000; stroke-width: 0.8"/>
    </g>
    <g clip-path="url(#pfbca6d7757)">
     <use xlink:href="#C1_0_40fe63f38a" x="635.635748" y="263.423753" style="fill: none; stroke: #000000; stroke-width: 0.8"/>
    </g>
    <g clip-path="url(#pfbca6d7757)">
     <use xlink:href="#C1_0_40fe63f38a" x="651.231096" y="245.861526" style="fill: none; stroke: #000000; stroke-width: 0.8"/>
    </g>
    <g clip-path="url(#pfbca6d7757)">
     <use xlink:href="#C1_0_40fe63f38a" x="666.826444" y="239.595669" style="fill: none; stroke: #000000; stroke-width: 0.8"/>
    </g>
    <g clip-path="url(#pfbca6d7757)">
     <use xlink:href="#C1_0_40fe63f38a" x="691.434077" y="225.720363" style="fill: none; stroke: #000000; stroke-width: 0.8"/>
    </g>
    <g clip-path="url(#pfbca6d7757)">
     <use xlink:href="#C1_0_40fe63f38a" x="709.0836" y="193.556908" style="fill: none; stroke: #000000; stroke-width: 0.8"/>
    </g>
    <g clip-path="url(#pfbca6d7757)">
     <use xlink:href="#C1_0_40fe63f38a" x="724.920239" y="190.494025" style="fill: none; stroke: #000000; stroke-width: 0.8"/>
    </g>
    <g clip-path="url(#pfbca6d7757)">
     <use xlink:href="#C1_0_40fe63f38a" x="746.148929" y="173.778707" style="fill: none; stroke: #000000; stroke-width: 0.8"/>
    </g>
    <g clip-path="url(#pfbca6d7757)">
     <use xlink:href="#C1_0_40fe63f38a" x="782.997065" y="182.744485" style="fill: none; stroke: #000000; stroke-width: 0.8"/>
    </g>
    <g clip-path="url(#pfbca6d7757)">
     <use xlink:href="#C1_0_40fe63f38a" x="807.29866" y="167.595631" style="fill: none; stroke: #000000; stroke-width: 0.8"/>
    </g>
    <g clip-path="url(#pfbca6d7757)">
     <use xlink:href="#C1_0_40fe63f38a" x="826.201673" y="177.758545" style="fill: none; stroke: #000000; stroke-width: 0.8"/>
    </g>
    <g clip-path="url(#pfbca6d7757)">
     <use xlink:href="#C1_0_40fe63f38a" x="856.858143" y="197.428494" style="fill: none; stroke: #000000; stroke-width: 0.8"/>
    </g>
    <g clip-path="url(#pfbca6d7757)">
     <use xlink:href="#C1_0_40fe63f38a" x="879.37939" y="209.291594" style="fill: none; stroke: #000000; stroke-width: 0.8"/>
    </g>
    <g clip-path="url(#pfbca6d7757)">
     <use xlink:href="#C1_0_40fe63f38a" x="897.189849" y="234.38049" style="fill: none; stroke: #000000; stroke-width: 0.8"/>
    </g>
    <g clip-path="url(#pfbca6d7757)">
     <use xlink:href="#C1_0_40fe63f38a" x="911.92335" y="304.291909" style="fill: none; stroke: #000000; stroke-width: 0.8"/>
    </g>
    <g clip-path="url(#pfbca6d7757)">
     <use xlink:href="#C1_0_40fe63f38a" x="935.441318" y="336.38532" style="fill: none; stroke: #000000; stroke-width: 0.8"/>
    </g>
    <g clip-path="url(#pfbca6d7757)">
     <use xlink:href="#C1_0_40fe63f38a" x="953.867956" y="384.378977" style="fill: none; stroke: #000000; stroke-width: 0.8"/>
    </g>
    <g clip-path="url(#pfbca6d7757)">
     <use xlink:href="#C1_0_40fe63f38a" x="969.020103" y="391.714614" style="fill: none; stroke: #000000; stroke-width: 0.8"/>
    </g>
    <g clip-path="url(#pfbca6d7757)">
     <use xlink:href="#C1_0_40fe63f38a" x="981.887798" y="413.08475" style="fill: none; stroke: #000000; stroke-width: 0.8"/>
    </g>
   </g>
   <g id="line2d_62">
    <path d="M 685.085942 485.28 
L 685.085942 7.2 
" clip-path="url(#pfbca6d7757)" style="fill: none; stroke-dasharray: 4.44,1.92; stroke-dashoffset: 0; stroke: #000000; stroke-width: 1.2"/>
   </g>
   <g id="patch_3">
    <path d="M 130.738108 485.28 
L 130.738108 7.2 
" style="fill: none; stroke: #000000; stroke-width: 0.8; stroke-linejoin: miter; stroke-linecap: square"/>
   </g>
   <g id="patch_4">
    <path d="M 1023.538108 485.28 
L 1023.538108 7.2 
" style="fill: none; stroke: #000000; stroke-width: 0.8; stroke-linejoin: miter; stroke-linecap: square"/>
   </g>
   <g id="patch_5">
    <path d="M 130.738108 485.28 
L 1023.538108 485.28 
" style="fill: none; stroke: #000000; stroke-width: 0.8; stroke-linejoin: miter; stroke-linecap: square"/>
   </g>
   <g id="patch_6">
    <path d="M 130.738108 7.2 
L 1023.538108 7.2 
" style="fill: none; stroke: #000000; stroke-width: 0.8; stroke-linejoin: miter; stroke-linecap: square"/>
   </g>
   <g id="legend_1">
    <g id="patch_7">
     <path d="M 474.062733 352.799267 
L 1009.538108 352.799267 
Q 1013.538108 352.799267 1013.538108 348.799267 
L 1013.538108 239.296733 
Q 1013.538108 235.296733 1009.538108 235.296733 
L 474.062733 235.296733 
Q 470.062733 235.296733 470.062733 239.296733 
L 470.062733 348.799267 
Q 470.062733 352.799267 474.062733 352.799267 
z
" style="fill: #ffffff; opacity: 0.8; stroke: #cccccc; stroke-linejoin: miter"/>
    </g>
    <g id="line2d_63">
     <path d="M 478.062733 250.296733 
L 498.062733 250.296733 
L 518.062733 250.296733 
" style="fill: none; stroke: #000000; stroke-width: 1.2; stroke-linecap: square"/>
    </g>
    <g id="text_13">
     <!-- $\omega t = 0\:\unit{\degree}$ - - Model -->
     <g transform="translate(534.062733 257.296733) scale(0.2 -0.2)">
      <defs>
       <path id="CMMI12-21" d="M 3802 2395 
C 3802 2580 3750 2816 3526 2816 
C 3398 2816 3251 2657 3251 2529 
C 3251 2472 3277 2434 3328 2376 
C 3424 2268 3546 2096 3546 1797 
C 3546 1567 3405 1204 3302 1007 
C 3123 656 2829 357 2496 357 
C 2093 357 1939 615 1869 975 
C 1939 1143 2086 1560 2086 1728 
C 2086 1798 2061 1856 1978 1856 
C 1933 1856 1882 1831 1850 1779 
C 1760 1638 1677 1129 1683 994 
C 1562 756 1216 357 806 357 
C 378 357 262 733 262 1096 
C 262 1758 678 2338 794 2497 
C 858 2593 902 2657 902 2669 
C 902 2714 877 2784 819 2784 
C 717 2784 685 2701 634 2625 
C 307 2121 77 1414 77 803 
C 77 408 224 -64 704 -64 
C 1235 -64 1568 391 1702 634 
C 1754 275 1946 -64 2413 -64 
C 2899 -64 3206 363 3437 879 
C 3603 1249 3802 2045 3802 2395 
z
" transform="scale(0.015625)"/>
       <path id="CMMI12-74" d="M 1286 2566 
L 1875 2566 
C 1997 2566 2061 2566 2061 2681 
C 2061 2752 2022 2752 1894 2752 
L 1331 2752 
L 1568 3692 
C 1594 3781 1594 3794 1594 3840 
C 1594 3943 1510 4000 1427 4000 
C 1376 4000 1229 3981 1178 3775 
L 928 2752 
L 326 2752 
C 198 2752 141 2752 141 2630 
C 141 2566 186 2566 307 2566 
L 877 2566 
L 454 881 
C 403 658 384 594 384 511 
C 384 211 595 -64 954 -64 
C 1600 -64 1946 868 1946 912 
C 1946 951 1920 970 1882 970 
C 1869 970 1843 970 1830 944 
C 1824 938 1818 931 1773 829 
C 1638 511 1344 64 973 64 
C 781 64 768 224 768 364 
C 768 370 768 492 787 568 
L 1286 2566 
z
" transform="scale(0.015625)"/>
       <path id="CMR17-3d" d="M 4115 2017 
C 4211 2017 4307 2017 4307 2125 
C 4307 2240 4198 2240 4090 2240 
L 512 2240 
C 403 2240 294 2240 294 2125 
C 294 2017 390 2017 486 2017 
L 4115 2017 
z
M 4090 896 
C 4198 896 4307 896 4307 1011 
C 4307 1119 4211 1119 4115 1119 
L 486 1119 
C 390 1119 294 1119 294 1011 
C 294 896 403 896 512 896 
L 4090 896 
z
" transform="scale(0.015625)"/>
       <path id="CMSY10-e" d="M 2842 1600 
C 2842 2277 2272 2828 1600 2828 
C 909 2828 352 2264 352 1600 
C 352 930 909 372 1600 372 
C 2272 372 2842 923 2842 1600 
z
M 1600 628 
C 1043 628 608 1070 608 1600 
C 608 2130 1050 2572 1600 2572 
C 2131 2572 2586 2142 2586 1600 
C 2586 1058 2131 628 1600 628 
z
" transform="scale(0.015625)"/>
       <path id="CMR17-7b" d="M 2970 1664 
L 2970 1766 
L -38 1766 
L -38 1664 
L 2970 1664 
z
" transform="scale(0.015625)"/>
       <path id="CMR17-4d" d="M 1338 4224 
C 1299 4320 1293 4320 1158 4320 
L 339 4320 
L 339 4160 
C 781 4160 851 4160 851 3875 
L 851 610 
C 851 451 851 153 339 153 
L 339 -13 
C 486 0 755 0 915 0 
C 1075 0 1344 0 1491 -13 
L 1491 153 
C 979 153 979 451 979 610 
L 979 4135 
L 986 4135 
L 2490 89 
C 2515 25 2528 -13 2579 -13 
C 2630 -13 2643 25 2669 89 
L 4186 4166 
L 4192 4166 
L 4192 438 
C 4192 153 4122 153 3680 153 
L 3680 -13 
C 3853 0 4198 0 4384 0 
C 4570 0 4922 0 5094 -13 
L 5094 153 
C 4653 153 4582 153 4582 438 
L 4582 3875 
C 4582 4160 4653 4160 5094 4160 
L 5094 4320 
L 4282 4320 
C 4147 4320 4141 4314 4102 4218 
L 2720 502 
L 1338 4224 
z
" transform="scale(0.015625)"/>
       <path id="CMR17-6f" d="M 2758 1356 
C 2758 2176 2163 2816 1466 2816 
C 768 2816 173 2176 173 1356 
C 173 551 768 -64 1466 -64 
C 2163 -64 2758 551 2758 1356 
z
M 1466 51 
C 1165 51 909 230 762 480 
C 602 767 582 1126 582 1408 
C 582 1677 595 2010 762 2298 
C 890 2509 1139 2714 1466 2714 
C 1754 2714 1997 2554 2150 2330 
C 2349 2029 2349 1607 2349 1408 
C 2349 1158 2336 775 2163 467 
C 1984 173 1709 51 1466 51 
z
" transform="scale(0.015625)"/>
       <path id="CMR17-64" d="M 1869 4326 
L 1869 4160 
C 2246 4160 2304 4122 2304 3820 
L 2304 2345 
C 2278 2377 2016 2790 1498 2790 
C 845 2790 211 2208 211 1364 
C 211 525 806 -64 1434 -64 
C 1978 -64 2259 337 2291 380 
L 2291 -63 
L 3066 -63 
L 3066 128 
C 2688 128 2630 166 2630 473 
L 2630 4396 
L 1869 4326 
z
M 2291 755 
C 2291 563 2176 390 2029 262 
C 1811 70 1594 38 1472 38 
C 1286 38 621 134 621 1356 
C 621 2612 1363 2688 1530 2688 
C 1824 2688 2061 2522 2208 2291 
C 2291 2157 2291 2138 2291 2023 
L 2291 755 
z
" transform="scale(0.015625)"/>
       <path id="CMR17-65" d="M 2438 1472 
C 2464 1498 2464 1511 2464 1576 
C 2464 2238 2118 2816 1389 2816 
C 710 2816 173 2169 173 1383 
C 173 551 781 -64 1459 -64 
C 2176 -64 2458 607 2458 740 
C 2458 784 2419 784 2406 784 
C 2362 784 2355 771 2330 696 
C 2189 265 1837 51 1504 51 
C 1229 51 954 203 781 480 
C 582 803 582 1176 582 1472 
L 2438 1472 
z
M 589 1568 
C 634 2505 1126 2714 1382 2714 
C 1818 2714 2112 2297 2118 1568 
L 589 1568 
z
" transform="scale(0.015625)"/>
       <path id="CMR17-6c" d="M 979 4396 
L 218 4326 
L 218 4160 
C 595 4160 653 4122 653 3817 
L 653 426 
C 653 184 627 153 218 153 
L 218 -13 
C 371 0 653 0 813 0 
C 979 0 1261 0 1414 -13 
L 1414 153 
C 1005 153 979 178 979 426 
L 979 4396 
z
" transform="scale(0.015625)"/>
      </defs>
      <use xlink:href="#CMMI12-21" transform="scale(0.996264)"/>
      <use xlink:href="#CMMI12-74" transform="translate(64.318346 0) scale(0.996264)"/>
      <use xlink:href="#CMR17-3d" transform="translate(127.218685 0) scale(0.996264)"/>
      <use xlink:href="#CMR17-30" transform="translate(226.607482 0) scale(0.996264)"/>
      <use xlink:href="#CMSY10-e" transform="translate(294.437166 36.153639) scale(0.697382)"/>
      <use xlink:href="#CMR17-7b" transform="translate(359.880474 0) scale(0.996264)"/>
      <use xlink:href="#CMR17-4d" transform="translate(435.646918 0) scale(0.996264)"/>
      <use xlink:href="#CMR17-6f" transform="translate(520.333859 0) scale(0.996264)"/>
      <use xlink:href="#CMR17-64" transform="translate(568.626774 0) scale(0.996264)"/>
      <use xlink:href="#CMR17-65" transform="translate(619.522144 0) scale(0.996264)"/>
      <use xlink:href="#CMR17-6c" transform="translate(660.007805 0) scale(0.996264)"/>
     </g>
    </g>
    <g id="line2d_64">
     <path d="M 478.062733 278.172366 
L 498.062733 278.172366 
L 518.062733 278.172366 
" style="fill: none; stroke-dasharray: 4.44,1.92; stroke-dashoffset: 0; stroke: #000000; stroke-width: 1.2"/>
    </g>
    <g id="text_14">
     <!-- $\omega t = 45\:\unit{\degree}$ - - Model -->
     <g transform="translate(534.062733 285.172366) scale(0.2 -0.2)">
      <use xlink:href="#CMMI12-21" transform="scale(0.996264)"/>
      <use xlink:href="#CMMI12-74" transform="translate(64.318346 0) scale(0.996264)"/>
      <use xlink:href="#CMR17-3d" transform="translate(127.218685 0) scale(0.996264)"/>
      <use xlink:href="#CMR17-34" transform="translate(226.607482 0) scale(0.996264)"/>
      <use xlink:href="#CMR17-35" transform="translate(272.297959 0) scale(0.996264)"/>
      <use xlink:href="#CMSY10-e" transform="translate(340.127643 36.153639) scale(0.697382)"/>
      <use xlink:href="#CMR17-7b" transform="translate(405.570952 0) scale(0.996264)"/>
      <use xlink:href="#CMR17-4d" transform="translate(481.337395 0) scale(0.996264)"/>
      <use xlink:href="#CMR17-6f" transform="translate(566.024336 0) scale(0.996264)"/>
      <use xlink:href="#CMR17-64" transform="translate(614.317251 0) scale(0.996264)"/>
      <use xlink:href="#CMR17-65" transform="translate(665.212621 0) scale(0.996264)"/>
      <use xlink:href="#CMR17-6c" transform="translate(705.698282 0) scale(0.996264)"/>
     </g>
    </g>
    <g id="line2d_65">
     <path d="M 478.062733 306.048 
L 498.062733 306.048 
L 518.062733 306.048 
" style="fill: none; stroke-dasharray: 8.32,2.08,1.3,2.08; stroke-dashoffset: 0; stroke: #000000; stroke-width: 1.3"/>
    </g>
    <g id="text_15">
     <!-- $\omega t = 90\:\unit{\degree}$ - - Model -->
     <g transform="translate(534.062733 313.048) scale(0.2 -0.2)">
      <defs>
       <path id="CMR17-39" d="M 2253 1864 
C 2253 464 1670 31 1190 31 
C 1043 31 685 31 538 294 
C 704 268 826 357 826 518 
C 826 692 685 749 595 749 
C 538 749 365 723 365 506 
C 365 71 742 -128 1203 -128 
C 1939 -128 2688 674 2688 2073 
C 2688 3817 1971 4179 1485 4179 
C 851 4179 243 3628 243 2778 
C 243 1991 762 1408 1414 1408 
C 1952 1408 2189 1903 2253 2112 
L 2253 1864 
z
M 1427 1510 
C 1254 1510 1011 1542 813 1922 
C 678 2169 678 2461 678 2771 
C 678 3146 678 3405 858 3684 
C 947 3817 1114 4032 1485 4032 
C 2240 4032 2240 2885 2240 2632 
C 2240 2182 2035 1510 1427 1510 
z
" transform="scale(0.015625)"/>
      </defs>
      <use xlink:href="#CMMI12-21" transform="scale(0.996264)"/>
      <use xlink:href="#CMMI12-74" transform="translate(64.318346 0) scale(0.996264)"/>
      <use xlink:href="#CMR17-3d" transform="translate(127.218685 0) scale(0.996264)"/>
      <use xlink:href="#CMR17-39" transform="translate(226.607482 0) scale(0.996264)"/>
      <use xlink:href="#CMR17-30" transform="translate(272.297959 0) scale(0.996264)"/>
      <use xlink:href="#CMSY10-e" transform="translate(340.127643 36.153639) scale(0.697382)"/>
      <use xlink:href="#CMR17-7b" transform="translate(405.570952 0) scale(0.996264)"/>
      <use xlink:href="#CMR17-4d" transform="translate(481.337395 0) scale(0.996264)"/>
      <use xlink:href="#CMR17-6f" transform="translate(566.024336 0) scale(0.996264)"/>
      <use xlink:href="#CMR17-64" transform="translate(614.317251 0) scale(0.996264)"/>
      <use xlink:href="#CMR17-65" transform="translate(665.212621 0) scale(0.996264)"/>
      <use xlink:href="#CMR17-6c" transform="translate(705.698282 0) scale(0.996264)"/>
     </g>
    </g>
    <g id="line2d_66">
     <path d="M 478.062733 333.923634 
L 498.062733 333.923634 
L 518.062733 333.923634 
" style="fill: none; stroke-dasharray: 1.8,2.97; stroke-dashoffset: 0; stroke: #000000; stroke-width: 1.8"/>
    </g>
    <g id="text_16">
     <!-- $\omega t = 135\:\unit{\degree}$ - - Model -->
     <g transform="translate(534.062733 340.923634) scale(0.2 -0.2)">
      <use xlink:href="#CMMI12-21" transform="scale(0.996264)"/>
      <use xlink:href="#CMMI12-74" transform="translate(64.318346 0) scale(0.996264)"/>
      <use xlink:href="#CMR17-3d" transform="translate(127.218685 0) scale(0.996264)"/>
      <use xlink:href="#CMR17-31" transform="translate(226.607482 0) scale(0.996264)"/>
      <use xlink:href="#CMR17-33" transform="translate(272.297959 0) scale(0.996264)"/>
      <use xlink:href="#CMR17-35" transform="translate(317.988436 0) scale(0.996264)"/>
      <use xlink:href="#CMSY10-e" transform="translate(385.81812 36.153639) scale(0.697382)"/>
      <use xlink:href="#CMR17-7b" transform="translate(451.261429 0) scale(0.996264)"/>
      <use xlink:href="#CMR17-4d" transform="translate(527.027872 0) scale(0.996264)"/>
      <use xlink:href="#CMR17-6f" transform="translate(611.714813 0) scale(0.996264)"/>
      <use xlink:href="#CMR17-64" transform="translate(660.007729 0) scale(0.996264)"/>
      <use xlink:href="#CMR17-65" transform="translate(710.903098 0) scale(0.996264)"/>
      <use xlink:href="#CMR17-6c" transform="translate(751.388759 0) scale(0.996264)"/>
     </g>
    </g>
    <g id="PathCollection_5">
     <g>
      <use xlink:href="#me376bcccc2" x="749.712977" y="252.046733" style="stroke: #000000; stroke-width: 1.2"/>
     </g>
    </g>
    <g id="text_17">
     <!-- $\omega t = 0\:\unit{\degree}$ - - Measurements -->
     <g transform="translate(785.712977 257.296733) scale(0.2 -0.2)">
      <defs>
       <path id="CMR17-61" d="M 2304 1653 
C 2304 2072 2304 2294 2035 2543 
C 1798 2752 1523 2816 1306 2816 
C 800 2816 435 2407 435 1971 
C 435 1728 627 1728 666 1728 
C 749 1728 896 1778 896 1954 
C 896 2112 774 2181 666 2181 
C 640 2181 608 2174 589 2168 
C 723 2592 1069 2714 1293 2714 
C 1613 2714 1965 2429 1965 1885 
L 1965 1600 
C 1587 1600 1133 1549 774 1357 
C 371 1133 256 813 256 570 
C 256 77 832 -64 1171 -64 
C 1523 -64 1850 139 1990 511 
C 2003 233 2182 -18 2464 -18 
C 2598 -18 2938 70 2938 567 
L 2938 920 
L 2822 920 
L 2822 562 
C 2822 178 2650 128 2566 128 
C 2304 128 2304 458 2304 738 
L 2304 1653 
z
M 1965 870 
C 1965 317 1568 38 1216 38 
C 896 38 646 275 646 570 
C 646 761 730 1100 1101 1305 
C 1408 1478 1760 1504 1965 1504 
L 1965 870 
z
" transform="scale(0.015625)"/>
       <path id="CMR17-73" d="M 1978 2697 
C 1978 2813 1971 2819 1933 2819 
C 1907 2819 1901 2813 1824 2717 
C 1805 2691 1747 2626 1728 2601 
C 1523 2819 1235 2819 1126 2819 
C 416 2819 160 2447 160 2076 
C 160 1498 813 1365 998 1325 
C 1402 1243 1542 1217 1677 1101 
C 1760 1025 1901 884 1901 654 
C 1901 384 1747 38 1158 38 
C 602 38 403 460 288 1021 
C 269 1110 269 1117 218 1117 
C 166 1117 160 1110 160 983 
L 160 63 
C 160 -51 166 -58 205 -58 
C 237 -58 243 -51 275 0 
C 314 57 410 211 448 276 
C 576 103 800 -64 1158 -64 
C 1792 -64 2131 283 2131 784 
C 2131 1112 1958 1285 1875 1362 
C 1683 1561 1459 1606 1190 1657 
C 838 1735 390 1825 390 2217 
C 390 2383 480 2737 1126 2737 
C 1811 2737 1850 2094 1862 1888 
C 1869 1856 1901 1849 1920 1849 
C 1978 1849 1978 1869 1978 1978 
L 1978 2697 
z
" transform="scale(0.015625)"/>
       <path id="CMR17-75" d="M 1882 2693 
L 1882 2528 
C 2259 2528 2317 2489 2317 2186 
L 2317 1032 
C 2317 500 2029 38 1555 38 
C 1030 38 986 348 986 678 
L 986 2763 
L 211 2693 
L 211 2528 
C 467 2528 640 2528 646 2274 
L 646 1058 
C 646 633 646 361 813 183 
C 896 101 1056 -64 1517 -64 
C 2061 -64 2272 377 2323 506 
L 2330 506 
L 2330 -63 
L 3091 -63 
L 3091 128 
C 2714 128 2656 166 2656 473 
L 2656 2763 
L 1882 2693 
z
" transform="scale(0.015625)"/>
       <path id="CMR17-72" d="M 960 1497 
C 960 2112 1222 2688 1702 2688 
C 1747 2688 1792 2682 1837 2662 
C 1837 2662 1696 2617 1696 2452 
C 1696 2298 1818 2234 1914 2234 
C 1990 2234 2131 2279 2131 2458 
C 2131 2663 1926 2790 1709 2790 
C 1222 2790 1011 2317 947 2093 
L 941 2093 
L 941 2790 
L 198 2720 
L 198 2554 
C 576 2554 634 2515 634 2208 
L 634 428 
C 634 184 608 153 198 153 
L 198 -13 
C 352 0 646 0 813 0 
C 998 0 1325 0 1498 -13 
L 1498 153 
C 1037 153 960 153 960 440 
L 960 1497 
z
" transform="scale(0.015625)"/>
       <path id="CMR17-6d" d="M 4326 1933 
C 4326 2252 4269 2790 3507 2790 
C 3072 2790 2771 2496 2656 2151 
L 2650 2151 
C 2573 2676 2195 2790 1837 2790 
C 1331 2790 1069 2400 973 2144 
L 966 2144 
L 966 2790 
L 211 2720 
L 211 2554 
C 589 2554 646 2515 646 2208 
L 646 428 
C 646 184 621 153 211 153 
L 211 -13 
C 365 0 646 0 813 0 
C 979 0 1267 0 1421 -13 
L 1421 153 
C 1011 153 986 178 986 428 
L 986 1658 
C 986 2247 1344 2688 1792 2688 
C 2266 2688 2317 2266 2317 1958 
L 2317 428 
C 2317 184 2291 153 1882 153 
L 1882 -13 
C 2035 0 2317 0 2483 0 
C 2650 0 2938 0 3091 -13 
L 3091 153 
C 2682 153 2656 178 2656 428 
L 2656 1658 
C 2656 2247 3014 2688 3462 2688 
C 3936 2688 3987 2266 3987 1958 
L 3987 428 
C 3987 184 3962 153 3552 153 
L 3552 -13 
C 3706 0 3987 0 4154 0 
C 4320 0 4608 0 4762 -13 
L 4762 153 
C 4352 153 4326 178 4326 428 
L 4326 1933 
z
" transform="scale(0.015625)"/>
       <path id="CMR17-6e" d="M 2656 1933 
C 2656 2259 2592 2790 1837 2790 
C 1331 2790 1069 2400 973 2144 
L 966 2144 
L 966 2790 
L 211 2720 
L 211 2554 
C 589 2554 646 2515 646 2208 
L 646 428 
C 646 184 621 153 211 153 
L 211 -13 
C 365 0 646 0 813 0 
C 979 0 1267 0 1421 -13 
L 1421 153 
C 1011 153 986 178 986 428 
L 986 1658 
C 986 2247 1344 2688 1792 2688 
C 2266 2688 2317 2266 2317 1958 
L 2317 428 
C 2317 184 2291 153 1882 153 
L 1882 -13 
C 2035 0 2317 0 2483 0 
C 2650 0 2938 0 3091 -13 
L 3091 153 
C 2682 153 2656 178 2656 428 
L 2656 1933 
z
" transform="scale(0.015625)"/>
       <path id="CMR17-74" d="M 966 2560 
L 1862 2560 
L 1862 2725 
L 966 2725 
L 966 3904 
L 851 3904 
C 838 3245 614 2668 70 2668 
L 70 2560 
L 627 2560 
L 627 771 
C 627 650 627 -64 1370 -64 
C 1747 -64 1965 306 1965 777 
L 1965 1140 
L 1850 1140 
L 1850 783 
C 1850 344 1677 51 1408 51 
C 1222 51 966 178 966 758 
L 966 2560 
z
" transform="scale(0.015625)"/>
      </defs>
      <use xlink:href="#CMMI12-21" transform="scale(0.996264)"/>
      <use xlink:href="#CMMI12-74" transform="translate(64.318346 0) scale(0.996264)"/>
      <use xlink:href="#CMR17-3d" transform="translate(127.218685 0) scale(0.996264)"/>
      <use xlink:href="#CMR17-30" transform="translate(226.607482 0) scale(0.996264)"/>
      <use xlink:href="#CMSY10-e" transform="translate(294.437166 36.153639) scale(0.697382)"/>
      <use xlink:href="#CMR17-7b" transform="translate(359.880474 0) scale(0.996264)"/>
      <use xlink:href="#CMR17-4d" transform="translate(435.646918 0) scale(0.996264)"/>
      <use xlink:href="#CMR17-65" transform="translate(520.333859 0) scale(0.996264)"/>
      <use xlink:href="#CMR17-61" transform="translate(560.819519 0) scale(0.996264)"/>
      <use xlink:href="#CMR17-73" transform="translate(606.509996 0) scale(0.996264)"/>
      <use xlink:href="#CMR17-75" transform="translate(642.311334 0) scale(0.996264)"/>
      <use xlink:href="#CMR17-72" transform="translate(693.206703 0) scale(0.996264)"/>
      <use xlink:href="#CMR17-65" transform="translate(728.487471 0) scale(0.996264)"/>
      <use xlink:href="#CMR17-6d" transform="translate(768.973132 0) scale(0.996264)"/>
      <use xlink:href="#CMR17-65" transform="translate(845.892722 0) scale(0.996264)"/>
      <use xlink:href="#CMR17-6e" transform="translate(886.378382 0) scale(0.996264)"/>
      <use xlink:href="#CMR17-74" transform="translate(934.671298 0) scale(0.996264)"/>
      <use xlink:href="#CMR17-73" transform="translate(969.952066 0) scale(0.996264)"/>
     </g>
    </g>
    <g id="PathCollection_6">
     <g>
      <use xlink:href="#m296689030a" x="749.712977" y="279.922366" style="stroke: #000000; stroke-width: 1.2"/>
     </g>
    </g>
    <g id="text_18">
     <!-- $\omega t = 45\:\unit{\degree}$ - - Measurements -->
     <g transform="translate(785.712977 285.172366) scale(0.2 -0.2)">
      <use xlink:href="#CMMI12-21" transform="scale(0.996264)"/>
      <use xlink:href="#CMMI12-74" transform="translate(64.318346 0) scale(0.996264)"/>
      <use xlink:href="#CMR17-3d" transform="translate(127.218685 0) scale(0.996264)"/>
      <use xlink:href="#CMR17-34" transform="translate(226.607482 0) scale(0.996264)"/>
      <use xlink:href="#CMR17-35" transform="translate(272.297959 0) scale(0.996264)"/>
      <use xlink:href="#CMSY10-e" transform="translate(340.127643 36.153639) scale(0.697382)"/>
      <use xlink:href="#CMR17-7b" transform="translate(405.570952 0) scale(0.996264)"/>
      <use xlink:href="#CMR17-4d" transform="translate(481.337395 0) scale(0.996264)"/>
      <use xlink:href="#CMR17-65" transform="translate(566.024336 0) scale(0.996264)"/>
      <use xlink:href="#CMR17-61" transform="translate(606.509996 0) scale(0.996264)"/>
      <use xlink:href="#CMR17-73" transform="translate(652.200473 0) scale(0.996264)"/>
      <use xlink:href="#CMR17-75" transform="translate(688.001811 0) scale(0.996264)"/>
      <use xlink:href="#CMR17-72" transform="translate(738.897181 0) scale(0.996264)"/>
      <use xlink:href="#CMR17-65" transform="translate(774.177948 0) scale(0.996264)"/>
      <use xlink:href="#CMR17-6d" transform="translate(814.663609 0) scale(0.996264)"/>
      <use xlink:href="#CMR17-65" transform="translate(891.583199 0) scale(0.996264)"/>
      <use xlink:href="#CMR17-6e" transform="translate(932.068859 0) scale(0.996264)"/>
      <use xlink:href="#CMR17-74" transform="translate(980.361775 0) scale(0.996264)"/>
      <use xlink:href="#CMR17-73" transform="translate(1015.642543 0) scale(0.996264)"/>
     </g>
    </g>
    <g id="PathCollection_7">
     <path d="M 745.470336 307.798 
L 749.712977 300.726932 
L 753.955618 307.798 
L 749.712977 314.869068 
L 745.470336 307.798 
z
M 745.470336 307.798 
L 753.955618 307.798 
M 749.712977 300.726932 
L 749.712977 314.869068 
" style="fill: none; stroke: #000000; stroke-width: 0.8"/>
    </g>
    <g id="text_19">
     <!-- $\omega t = 90\:\unit{\degree}$ - - Measurements -->
     <g transform="translate(785.712977 313.048) scale(0.2 -0.2)">
      <use xlink:href="#CMMI12-21" transform="scale(0.996264)"/>
      <use xlink:href="#CMMI12-74" transform="translate(64.318346 0) scale(0.996264)"/>
      <use xlink:href="#CMR17-3d" transform="translate(127.218685 0) scale(0.996264)"/>
      <use xlink:href="#CMR17-39" transform="translate(226.607482 0) scale(0.996264)"/>
      <use xlink:href="#CMR17-30" transform="translate(272.297959 0) scale(0.996264)"/>
      <use xlink:href="#CMSY10-e" transform="translate(340.127643 36.153639) scale(0.697382)"/>
      <use xlink:href="#CMR17-7b" transform="translate(405.570952 0) scale(0.996264)"/>
      <use xlink:href="#CMR17-4d" transform="translate(481.337395 0) scale(0.996264)"/>
      <use xlink:href="#CMR17-65" transform="translate(566.024336 0) scale(0.996264)"/>
      <use xlink:href="#CMR17-61" transform="translate(606.509996 0) scale(0.996264)"/>
      <use xlink:href="#CMR17-73" transform="translate(652.200473 0) scale(0.996264)"/>
      <use xlink:href="#CMR17-75" transform="translate(688.001811 0) scale(0.996264)"/>
      <use xlink:href="#CMR17-72" transform="translate(738.897181 0) scale(0.996264)"/>
      <use xlink:href="#CMR17-65" transform="translate(774.177948 0) scale(0.996264)"/>
      <use xlink:href="#CMR17-6d" transform="translate(814.663609 0) scale(0.996264)"/>
      <use xlink:href="#CMR17-65" transform="translate(891.583199 0) scale(0.996264)"/>
      <use xlink:href="#CMR17-6e" transform="translate(932.068859 0) scale(0.996264)"/>
      <use xlink:href="#CMR17-74" transform="translate(980.361775 0) scale(0.996264)"/>
      <use xlink:href="#CMR17-73" transform="translate(1015.642543 0) scale(0.996264)"/>
     </g>
    </g>
    <g id="PathCollection_8">
     <path d="M 745.588187 333.905867 
L 753.837767 333.905867 
L 749.712977 342.744701 
L 745.588187 333.905867 
z
M 745.588187 333.905867 
L 749.712977 337.94168 
M 753.837767 333.905867 
L 749.712977 337.94168 
M 749.712977 342.744701 
L 749.712977 337.94168 
" style="fill: none; stroke: #000000; stroke-width: 0.8"/>
    </g>
    <g id="text_20">
     <!-- $\omega t = 135\:\unit{\degree}$ - - Measurements -->
     <g transform="translate(785.712977 340.923634) scale(0.2 -0.2)">
      <use xlink:href="#CMMI12-21" transform="scale(0.996264)"/>
      <use xlink:href="#CMMI12-74" transform="translate(64.318346 0) scale(0.996264)"/>
      <use xlink:href="#CMR17-3d" transform="translate(127.218685 0) scale(0.996264)"/>
      <use xlink:href="#CMR17-31" transform="translate(226.607482 0) scale(0.996264)"/>
      <use xlink:href="#CMR17-33" transform="translate(272.297959 0) scale(0.996264)"/>
      <use xlink:href="#CMR17-35" transform="translate(317.988436 0) scale(0.996264)"/>
      <use xlink:href="#CMSY10-e" transform="translate(385.81812 36.153639) scale(0.697382)"/>
      <use xlink:href="#CMR17-7b" transform="translate(451.261429 0) scale(0.996264)"/>
      <use xlink:href="#CMR17-4d" transform="translate(527.027872 0) scale(0.996264)"/>
      <use xlink:href="#CMR17-65" transform="translate(611.714813 0) scale(0.996264)"/>
      <use xlink:href="#CMR17-61" transform="translate(652.200473 0) scale(0.996264)"/>
      <use xlink:href="#CMR17-73" transform="translate(697.89095 0) scale(0.996264)"/>
      <use xlink:href="#CMR17-75" transform="translate(733.692288 0) scale(0.996264)"/>
      <use xlink:href="#CMR17-72" transform="translate(784.587658 0) scale(0.996264)"/>
      <use xlink:href="#CMR17-65" transform="translate(819.868426 0) scale(0.996264)"/>
      <use xlink:href="#CMR17-6d" transform="translate(860.354086 0) scale(0.996264)"/>
      <use xlink:href="#CMR17-65" transform="translate(937.273676 0) scale(0.996264)"/>
      <use xlink:href="#CMR17-6e" transform="translate(977.759336 0) scale(0.996264)"/>
      <use xlink:href="#CMR17-74" transform="translate(1026.052252 0) scale(0.996264)"/>
      <use xlink:href="#CMR17-73" transform="translate(1061.33302 0) scale(0.996264)"/>
     </g>
    </g>
   </g>
  </g>
 </g>
 <defs>
  <clipPath id="pfbca6d7757">
   <rect x="130.738108" y="7.2" width="892.8" height="478.08"/>
  </clipPath>
 </defs>
</svg>
