<?xml version="1.0" encoding="utf-8" standalone="no"?>
<!DOCTYPE svg PUBLIC "-//W3C//DTD SVG 1.1//EN"
  "http://www.w3.org/Graphics/SVG/1.1/DTD/svg11.dtd">
<svg xmlns:xlink="http://www.w3.org/1999/xlink" width="993.440322pt" height="595.496492pt" viewBox="0 0 993.440322 595.496492" xmlns="http://www.w3.org/2000/svg" version="1.1">
 <metadata>
  <rdf:RDF xmlns:dc="http://purl.org/dc/elements/1.1/" xmlns:cc="http://creativecommons.org/ns#" xmlns:rdf="http://www.w3.org/1999/02/22-rdf-syntax-ns#">
   <cc:Work>
    <dc:type rdf:resource="http://purl.org/dc/dcmitype/StillImage"/>
    <dc:date>2024-10-22T14:46:40.115996</dc:date>
    <dc:format>image/svg+xml</dc:format>
    <dc:creator>
     <cc:Agent>
      <dc:title>Matplotlib v3.8.4, https://matplotlib.org/</dc:title>
     </cc:Agent>
    </dc:creator>
   </cc:Work>
  </rdf:RDF>
 </metadata>
 <defs>
  <style type="text/css">*{stroke-linejoin: round; stroke-linecap: butt}</style>
 </defs>
 <g id="figure_1">
  <g id="patch_1">
   <path d="M 0 595.496492 
L 993.440322 595.496492 
L 993.440322 0 
L 0 0 
z
" style="fill: #ffffff"/>
  </g>
  <g id="axes_1">
   <g id="patch_2">
    <path d="M 93.440322 485.28 
L 986.240322 485.28 
L 986.240322 7.2 
L 93.440322 7.2 
z
" style="fill: #ffffff"/>
   </g>
   <g id="matplotlib.axis_1">
    <g id="xtick_1">
     <g id="line2d_1">
      <path d="M 184.161661 485.28 
L 184.161661 7.2 
" clip-path="url(#p533eedb309)" style="fill: none; stroke: #b0b0b0; stroke-width: 0.8; stroke-linecap: square"/>
     </g>
     <g id="line2d_2">
      <defs>
       <path id="mfd8cbf53ac" d="M 0 0 
L 0 3.5 
" style="stroke: #000000; stroke-width: 0.8"/>
      </defs>
      <g>
       <use xlink:href="#mfd8cbf53ac" x="184.161661" y="485.28" style="stroke: #000000; stroke-width: 0.8"/>
      </g>
     </g>
     <g id="text_1">
      <!-- $\mathdefault{−0.001}$ -->
      <g transform="translate(155.427009 507.616997) scale(0.2 -0.2)">
       <defs>
        <path id="CMSY10-0" d="M 4218 1472 
C 4326 1472 4442 1472 4442 1600 
C 4442 1728 4326 1728 4218 1728 
L 755 1728 
C 646 1728 531 1728 531 1600 
C 531 1472 646 1472 755 1472 
L 4218 1472 
z
" transform="scale(0.015625)"/>
        <path id="CMR17-30" d="M 2688 2025 
C 2688 2416 2682 3080 2413 3591 
C 2176 4039 1798 4198 1466 4198 
C 1158 4198 768 4058 525 3597 
C 269 3118 243 2524 243 2025 
C 243 1661 250 1106 448 619 
C 723 -39 1216 -128 1466 -128 
C 1760 -128 2208 -7 2470 600 
C 2662 1042 2688 1559 2688 2025 
z
M 1466 -26 
C 1056 -26 813 325 723 812 
C 653 1188 653 1738 653 2096 
C 653 2588 653 2997 736 3387 
C 858 3929 1216 4096 1466 4096 
C 1728 4096 2067 3923 2189 3400 
C 2272 3036 2278 2607 2278 2096 
C 2278 1680 2278 1169 2202 792 
C 2067 95 1690 -26 1466 -26 
z
" transform="scale(0.015625)"/>
        <path id="CMMI12-3a" d="M 1178 307 
C 1178 492 1024 619 870 619 
C 685 619 557 466 557 313 
C 557 128 710 0 864 0 
C 1050 0 1178 153 1178 307 
z
" transform="scale(0.015625)"/>
        <path id="CMR17-31" d="M 1702 4058 
C 1702 4192 1696 4192 1606 4192 
C 1357 3916 979 3827 621 3827 
C 602 3827 570 3827 563 3808 
C 557 3795 557 3782 557 3648 
C 755 3648 1088 3686 1344 3839 
L 1344 461 
C 1344 236 1331 160 781 160 
L 589 160 
L 589 0 
C 896 0 1216 0 1523 0 
C 1830 0 2150 0 2458 0 
L 2458 160 
L 2266 160 
C 1715 160 1702 230 1702 458 
L 1702 4058 
z
" transform="scale(0.015625)"/>
       </defs>
       <use xlink:href="#CMSY10-0" transform="scale(0.996264)"/>
       <use xlink:href="#CMR17-30" transform="translate(77.487468 0) scale(0.996264)"/>
       <use xlink:href="#CMMI12-3a" transform="translate(123.177945 0) scale(0.996264)"/>
       <use xlink:href="#CMR17-30" transform="translate(150.275122 0) scale(0.996264)"/>
       <use xlink:href="#CMR17-30" transform="translate(195.965599 0) scale(0.996264)"/>
       <use xlink:href="#CMR17-31" transform="translate(241.656076 0) scale(0.996264)"/>
      </g>
     </g>
    </g>
    <g id="xtick_2">
     <g id="line2d_3">
      <path d="M 367.654876 485.28 
L 367.654876 7.2 
" clip-path="url(#p533eedb309)" style="fill: none; stroke: #b0b0b0; stroke-width: 0.8; stroke-linecap: square"/>
     </g>
     <g id="line2d_4">
      <g>
       <use xlink:href="#mfd8cbf53ac" x="367.654876" y="485.28" style="stroke: #000000; stroke-width: 0.8"/>
      </g>
     </g>
     <g id="text_2">
      <!-- $\mathdefault{0.000}$ -->
      <g transform="translate(346.668968 507.616997) scale(0.2 -0.2)">
       <use xlink:href="#CMR17-30" transform="scale(0.996264)"/>
       <use xlink:href="#CMMI12-3a" transform="translate(45.690477 0) scale(0.996264)"/>
       <use xlink:href="#CMR17-30" transform="translate(72.787654 0) scale(0.996264)"/>
       <use xlink:href="#CMR17-30" transform="translate(118.478131 0) scale(0.996264)"/>
       <use xlink:href="#CMR17-30" transform="translate(164.168608 0) scale(0.996264)"/>
      </g>
     </g>
    </g>
    <g id="xtick_3">
     <g id="line2d_5">
      <path d="M 551.148091 485.28 
L 551.148091 7.2 
" clip-path="url(#p533eedb309)" style="fill: none; stroke: #b0b0b0; stroke-width: 0.8; stroke-linecap: square"/>
     </g>
     <g id="line2d_6">
      <g>
       <use xlink:href="#mfd8cbf53ac" x="551.148091" y="485.28" style="stroke: #000000; stroke-width: 0.8"/>
      </g>
     </g>
     <g id="text_3">
      <!-- $\mathdefault{0.001}$ -->
      <g transform="translate(530.162183 507.616997) scale(0.2 -0.2)">
       <use xlink:href="#CMR17-30" transform="scale(0.996264)"/>
       <use xlink:href="#CMMI12-3a" transform="translate(45.690477 0) scale(0.996264)"/>
       <use xlink:href="#CMR17-30" transform="translate(72.787654 0) scale(0.996264)"/>
       <use xlink:href="#CMR17-30" transform="translate(118.478131 0) scale(0.996264)"/>
       <use xlink:href="#CMR17-31" transform="translate(164.168608 0) scale(0.996264)"/>
      </g>
     </g>
    </g>
    <g id="xtick_4">
     <g id="line2d_7">
      <path d="M 734.641306 485.28 
L 734.641306 7.2 
" clip-path="url(#p533eedb309)" style="fill: none; stroke: #b0b0b0; stroke-width: 0.8; stroke-linecap: square"/>
     </g>
     <g id="line2d_8">
      <g>
       <use xlink:href="#mfd8cbf53ac" x="734.641306" y="485.28" style="stroke: #000000; stroke-width: 0.8"/>
      </g>
     </g>
     <g id="text_4">
      <!-- $\mathdefault{0.002}$ -->
      <g transform="translate(713.655398 507.616997) scale(0.2 -0.2)">
       <defs>
        <path id="CMR17-32" d="M 2669 989 
L 2554 989 
C 2490 536 2438 459 2413 420 
C 2381 369 1920 369 1830 369 
L 602 369 
C 832 619 1280 1072 1824 1597 
C 2214 1967 2669 2402 2669 3035 
C 2669 3790 2067 4224 1395 4224 
C 691 4224 262 3604 262 3030 
C 262 2780 448 2748 525 2748 
C 589 2748 781 2787 781 3010 
C 781 3207 614 3264 525 3264 
C 486 3264 448 3258 422 3245 
C 544 3790 915 4058 1306 4058 
C 1862 4058 2227 3617 2227 3035 
C 2227 2479 1901 2000 1536 1584 
L 262 146 
L 262 0 
L 2515 0 
L 2669 989 
z
" transform="scale(0.015625)"/>
       </defs>
       <use xlink:href="#CMR17-30" transform="scale(0.996264)"/>
       <use xlink:href="#CMMI12-3a" transform="translate(45.690477 0) scale(0.996264)"/>
       <use xlink:href="#CMR17-30" transform="translate(72.787654 0) scale(0.996264)"/>
       <use xlink:href="#CMR17-30" transform="translate(118.478131 0) scale(0.996264)"/>
       <use xlink:href="#CMR17-32" transform="translate(164.168608 0) scale(0.996264)"/>
      </g>
     </g>
    </g>
    <g id="xtick_5">
     <g id="line2d_9">
      <path d="M 918.134521 485.28 
L 918.134521 7.2 
" clip-path="url(#p533eedb309)" style="fill: none; stroke: #b0b0b0; stroke-width: 0.8; stroke-linecap: square"/>
     </g>
     <g id="line2d_10">
      <g>
       <use xlink:href="#mfd8cbf53ac" x="918.134521" y="485.28" style="stroke: #000000; stroke-width: 0.8"/>
      </g>
     </g>
     <g id="text_5">
      <!-- $\mathdefault{0.003}$ -->
      <g transform="translate(897.148613 507.616997) scale(0.2 -0.2)">
       <defs>
        <path id="CMR17-33" d="M 1414 2157 
C 1984 2157 2234 1662 2234 1090 
C 2234 320 1824 25 1453 25 
C 1114 25 563 194 390 693 
C 422 680 454 680 486 680 
C 640 680 755 782 755 948 
C 755 1133 614 1216 486 1216 
C 378 1216 211 1165 211 926 
C 211 335 787 -128 1466 -128 
C 2176 -128 2720 430 2720 1085 
C 2720 1707 2208 2157 1600 2227 
C 2086 2328 2554 2756 2554 3329 
C 2554 3820 2048 4179 1472 4179 
C 890 4179 378 3829 378 3329 
C 378 3110 544 3072 627 3072 
C 762 3072 877 3155 877 3321 
C 877 3486 762 3569 627 3569 
C 602 3569 570 3569 544 3557 
C 730 3959 1235 4032 1459 4032 
C 1683 4032 2106 3925 2106 3320 
C 2106 3143 2080 2828 1862 2550 
C 1670 2304 1453 2304 1242 2284 
C 1210 2284 1062 2269 1037 2269 
C 992 2263 966 2257 966 2208 
C 966 2163 973 2157 1101 2157 
L 1414 2157 
z
" transform="scale(0.015625)"/>
       </defs>
       <use xlink:href="#CMR17-30" transform="scale(0.996264)"/>
       <use xlink:href="#CMMI12-3a" transform="translate(45.690477 0) scale(0.996264)"/>
       <use xlink:href="#CMR17-30" transform="translate(72.787654 0) scale(0.996264)"/>
       <use xlink:href="#CMR17-30" transform="translate(118.478131 0) scale(0.996264)"/>
       <use xlink:href="#CMR17-33" transform="translate(164.168608 0) scale(0.996264)"/>
      </g>
     </g>
    </g>
    <g id="text_6">
     <!-- $\frac{-\overline{u^\prime v^\prime}}{U_{0m}^2}$ -->
     <g transform="translate(510.089081 568.100924) scale(0.375 -0.375)">
      <defs>
       <path id="CMMI12-75" d="M 2182 370 
C 2266 13 2573 -64 2726 -64 
C 2931 -64 3085 70 3187 287 
C 3296 517 3379 894 3379 913 
C 3379 945 3354 971 3315 971 
C 3258 971 3251 939 3226 843 
C 3110 402 2995 64 2739 64 
C 2547 64 2547 275 2547 358 
C 2547 505 2566 568 2630 837 
C 2675 1009 2720 1181 2758 1360 
L 3021 2401 
C 3066 2561 3066 2574 3066 2593 
C 3066 2689 2989 2753 2893 2753 
C 2707 2753 2662 2593 2624 2433 
C 2560 2184 2214 811 2170 588 
C 2163 588 1914 64 1446 64 
C 1114 64 1050 351 1050 588 
C 1050 952 1229 1462 1395 1890 
C 1472 2095 1504 2178 1504 2305 
C 1504 2580 1306 2816 998 2816 
C 410 2816 173 1890 173 1839 
C 173 1814 198 1782 243 1782 
C 301 1782 307 1807 333 1896 
C 486 2441 736 2682 979 2682 
C 1043 2682 1146 2682 1146 2478 
C 1146 2312 1075 2127 979 1884 
C 698 1124 666 881 666 690 
C 666 38 1158 -64 1421 -64 
C 1830 -64 2054 217 2182 370 
z
" transform="scale(0.015625)"/>
       <path id="CMSY10-30" d="M 1619 3040 
C 1651 3117 1677 3174 1677 3238 
C 1677 3424 1510 3578 1312 3578 
C 1133 3578 1018 3456 973 3290 
L 211 493 
C 211 480 186 410 186 403 
C 186 333 352 288 403 288 
C 442 288 448 307 486 390 
L 1619 3040 
z
" transform="scale(0.015625)"/>
       <path id="CMMI12-76" d="M 2925 2389 
C 2925 2791 2720 2816 2669 2816 
C 2515 2816 2374 2663 2374 2535 
C 2374 2459 2419 2414 2445 2389 
C 2509 2331 2675 2159 2675 1827 
C 2675 1558 2291 64 1523 64 
C 1133 64 1056 390 1056 626 
C 1056 945 1203 1392 1376 1852 
C 1478 2114 1504 2178 1504 2305 
C 1504 2574 1312 2816 998 2816 
C 410 2816 173 1890 173 1839 
C 173 1814 198 1782 243 1782 
C 301 1782 307 1807 333 1897 
C 486 2446 736 2689 979 2689 
C 1037 2689 1146 2689 1146 2478 
C 1146 2312 1075 2127 979 1884 
C 672 1067 672 869 672 715 
C 672 575 691 313 890 134 
C 1120 -64 1440 -64 1498 -64 
C 2560 -64 2925 2024 2925 2389 
z
" transform="scale(0.015625)"/>
       <path id="CMMI12-55" d="M 3238 1474 
C 3014 581 2272 57 1670 57 
C 1210 57 896 363 896 891 
C 896 916 896 1107 966 1387 
L 1594 3887 
C 1651 4103 1664 4167 2118 4167 
C 2234 4167 2298 4167 2298 4282 
C 2298 4352 2240 4352 2202 4352 
C 2086 4352 1952 4352 1830 4352 
L 1075 4352 
C 954 4352 819 4352 698 4352 
C 653 4352 576 4352 576 4231 
C 576 4167 621 4167 742 4167 
C 1126 4167 1126 4116 1126 4046 
C 1126 4008 1082 3824 1050 3715 
L 493 1488 
C 474 1418 435 1246 435 1075 
C 435 374 941 -128 1638 -128 
C 2285 -128 3002 384 3328 1197 
C 3373 1305 3430 1530 3469 1702 
C 3533 1933 3667 2496 3712 2662 
L 3955 3623 
C 4038 3956 4090 4167 4653 4167 
C 4704 4173 4730 4224 4730 4282 
C 4730 4352 4672 4352 4646 4352 
C 4557 4352 4442 4352 4352 4352 
L 4051 4352 
C 3654 4352 3450 4352 3443 4352 
C 3405 4352 3328 4352 3328 4231 
C 3328 4167 3379 4167 3424 4167 
C 3808 4167 3834 4020 3834 3905 
C 3834 3848 3834 3828 3808 3739 
L 3238 1474 
z
" transform="scale(0.015625)"/>
       <path id="CMMI12-6d" d="M 1318 1871 
C 1331 1910 1491 2229 1728 2433 
C 1894 2586 2112 2689 2362 2689 
C 2618 2689 2707 2497 2707 2242 
C 2707 2203 2707 2076 2630 1775 
L 2470 1118 
C 2419 926 2298 453 2285 383 
C 2259 287 2221 121 2221 96 
C 2221 6 2291 -64 2387 -64 
C 2579 -64 2611 83 2669 313 
L 3053 1839 
C 3066 1890 3398 2689 4102 2689 
C 4358 2689 4448 2497 4448 2242 
C 4448 1884 4198 1188 4058 805 
C 4000 651 3968 568 3968 453 
C 3968 166 4166 -64 4474 -64 
C 5069 -64 5293 875 5293 913 
C 5293 945 5267 971 5229 971 
C 5171 971 5165 952 5133 843 
C 4986 332 4749 64 4493 64 
C 4429 64 4326 64 4326 269 
C 4326 436 4403 640 4429 710 
C 4544 1018 4832 1773 4832 2145 
C 4832 2528 4608 2816 4122 2816 
C 3693 2816 3347 2574 3091 2197 
C 3072 2542 2861 2816 2381 2816 
C 1811 2816 1510 2415 1395 2255 
C 1376 2618 1114 2816 832 2816 
C 646 2816 499 2727 378 2484 
C 262 2254 173 1865 173 1839 
C 173 1814 198 1782 243 1782 
C 294 1782 301 1788 339 1935 
C 435 2312 557 2689 813 2689 
C 960 2689 1011 2586 1011 2395 
C 1011 2254 947 2005 902 1807 
L 723 1118 
C 698 996 627 709 595 594 
C 550 428 480 128 480 96 
C 480 6 550 -64 646 -64 
C 723 -64 813 -26 864 70 
C 877 102 934 326 966 453 
L 1107 1028 
L 1318 1871 
z
" transform="scale(0.015625)"/>
      </defs>
      <use xlink:href="#CMSY10-0" transform="translate(0 39.226102) scale(0.697382)"/>
      <use xlink:href="#CMMI12-75" transform="translate(54.240993 39.226102) scale(0.697382)"/>
      <use xlink:href="#CMSY10-30" transform="translate(93.105049 59.372674) scale(0.498132)"/>
      <use xlink:href="#CMMI12-76" transform="translate(107.301781 39.226102) scale(0.697382)"/>
      <use xlink:href="#CMSY10-30" transform="translate(142.816231 59.372674) scale(0.498132)"/>
      <use xlink:href="#CMMI12-55" transform="translate(22.314864 -34.355253) scale(0.697382)"/>
      <use xlink:href="#CMR17-32" transform="translate(75.975772 -14.20868) scale(0.498132)"/>
      <use xlink:href="#CMR17-30" transform="translate(68.691139 -51.595716) scale(0.498132)"/>
      <use xlink:href="#CMMI12-6d" transform="translate(91.536377 -51.595716) scale(0.498132)"/>
      <path d="M 54.240993 90.021094 
L 157.012962 90.021094 
L 157.012962 91.012539 
L 54.240993 91.012539 
L 54.240993 90.021094 
z
"/>
      <path d="M 0 24.410885 
L 157.012962 24.410885 
L 157.012962 25.40233 
L 0 25.40233 
L 0 24.410885 
z
"/>
     </g>
    </g>
   </g>
   <g id="matplotlib.axis_2">
    <g id="ytick_1">
     <g id="line2d_11">
      <path d="M 93.440322 463.549091 
L 986.240322 463.549091 
" clip-path="url(#p533eedb309)" style="fill: none; stroke: #b0b0b0; stroke-width: 0.8; stroke-linecap: square"/>
     </g>
     <g id="line2d_12">
      <defs>
       <path id="m79eca57af7" d="M 0 0 
L -3.5 0 
" style="stroke: #000000; stroke-width: 0.8"/>
      </defs>
      <g>
       <use xlink:href="#m79eca57af7" x="93.440322" y="463.549091" style="stroke: #000000; stroke-width: 0.8"/>
      </g>
     </g>
     <g id="text_7">
      <!-- $\mathdefault{0.00}$ -->
      <g transform="translate(52.1066 470.467589) scale(0.2 -0.2)">
       <use xlink:href="#CMR17-30" transform="scale(0.996264)"/>
       <use xlink:href="#CMMI12-3a" transform="translate(45.690477 0) scale(0.996264)"/>
       <use xlink:href="#CMR17-30" transform="translate(72.787654 0) scale(0.996264)"/>
       <use xlink:href="#CMR17-30" transform="translate(118.478131 0) scale(0.996264)"/>
      </g>
     </g>
    </g>
    <g id="ytick_2">
     <g id="line2d_13">
      <path d="M 93.440322 370.390932 
L 986.240322 370.390932 
" clip-path="url(#p533eedb309)" style="fill: none; stroke: #b0b0b0; stroke-width: 0.8; stroke-linecap: square"/>
     </g>
     <g id="line2d_14">
      <g>
       <use xlink:href="#m79eca57af7" x="93.440322" y="370.390932" style="stroke: #000000; stroke-width: 0.8"/>
      </g>
     </g>
     <g id="text_8">
      <!-- $\mathdefault{0.01}$ -->
      <g transform="translate(52.1066 377.30943) scale(0.2 -0.2)">
       <use xlink:href="#CMR17-30" transform="scale(0.996264)"/>
       <use xlink:href="#CMMI12-3a" transform="translate(45.690477 0) scale(0.996264)"/>
       <use xlink:href="#CMR17-30" transform="translate(72.787654 0) scale(0.996264)"/>
       <use xlink:href="#CMR17-31" transform="translate(118.478131 0) scale(0.996264)"/>
      </g>
     </g>
    </g>
    <g id="ytick_3">
     <g id="line2d_15">
      <path d="M 93.440322 277.232772 
L 986.240322 277.232772 
" clip-path="url(#p533eedb309)" style="fill: none; stroke: #b0b0b0; stroke-width: 0.8; stroke-linecap: square"/>
     </g>
     <g id="line2d_16">
      <g>
       <use xlink:href="#m79eca57af7" x="93.440322" y="277.232772" style="stroke: #000000; stroke-width: 0.8"/>
      </g>
     </g>
     <g id="text_9">
      <!-- $\mathdefault{0.02}$ -->
      <g transform="translate(52.1066 284.151271) scale(0.2 -0.2)">
       <use xlink:href="#CMR17-30" transform="scale(0.996264)"/>
       <use xlink:href="#CMMI12-3a" transform="translate(45.690477 0) scale(0.996264)"/>
       <use xlink:href="#CMR17-30" transform="translate(72.787654 0) scale(0.996264)"/>
       <use xlink:href="#CMR17-32" transform="translate(118.478131 0) scale(0.996264)"/>
      </g>
     </g>
    </g>
    <g id="ytick_4">
     <g id="line2d_17">
      <path d="M 93.440322 184.074613 
L 986.240322 184.074613 
" clip-path="url(#p533eedb309)" style="fill: none; stroke: #b0b0b0; stroke-width: 0.8; stroke-linecap: square"/>
     </g>
     <g id="line2d_18">
      <g>
       <use xlink:href="#m79eca57af7" x="93.440322" y="184.074613" style="stroke: #000000; stroke-width: 0.8"/>
      </g>
     </g>
     <g id="text_10">
      <!-- $\mathdefault{0.03}$ -->
      <g transform="translate(52.1066 190.993112) scale(0.2 -0.2)">
       <use xlink:href="#CMR17-30" transform="scale(0.996264)"/>
       <use xlink:href="#CMMI12-3a" transform="translate(45.690477 0) scale(0.996264)"/>
       <use xlink:href="#CMR17-30" transform="translate(72.787654 0) scale(0.996264)"/>
       <use xlink:href="#CMR17-33" transform="translate(118.478131 0) scale(0.996264)"/>
      </g>
     </g>
    </g>
    <g id="ytick_5">
     <g id="line2d_19">
      <path d="M 93.440322 90.916454 
L 986.240322 90.916454 
" clip-path="url(#p533eedb309)" style="fill: none; stroke: #b0b0b0; stroke-width: 0.8; stroke-linecap: square"/>
     </g>
     <g id="line2d_20">
      <g>
       <use xlink:href="#m79eca57af7" x="93.440322" y="90.916454" style="stroke: #000000; stroke-width: 0.8"/>
      </g>
     </g>
     <g id="text_11">
      <!-- $\mathdefault{0.04}$ -->
      <g transform="translate(52.1066 97.834952) scale(0.2 -0.2)">
       <defs>
        <path id="CMR17-34" d="M 2150 4122 
C 2150 4256 2144 4256 2029 4256 
L 128 1254 
L 128 1088 
L 1779 1088 
L 1779 457 
C 1779 224 1766 160 1318 160 
L 1197 160 
L 1197 0 
C 1402 0 1747 0 1965 0 
C 2182 0 2528 0 2733 0 
L 2733 160 
L 2611 160 
C 2163 160 2150 224 2150 457 
L 2150 1088 
L 2803 1088 
L 2803 1254 
L 2150 1254 
L 2150 4122 
z
M 1798 3703 
L 1798 1254 
L 256 1254 
L 1798 3703 
z
" transform="scale(0.015625)"/>
       </defs>
       <use xlink:href="#CMR17-30" transform="scale(0.996264)"/>
       <use xlink:href="#CMMI12-3a" transform="translate(45.690477 0) scale(0.996264)"/>
       <use xlink:href="#CMR17-30" transform="translate(72.787654 0) scale(0.996264)"/>
       <use xlink:href="#CMR17-34" transform="translate(118.478131 0) scale(0.996264)"/>
      </g>
     </g>
    </g>
    <g id="text_12">
     <!-- $y/a$ -->
     <g transform="translate(25.87995 265.130183) rotate(-90) scale(0.25 -0.25)">
      <defs>
       <path id="CMMI12-79" d="M 1683 -700 
C 1510 -939 1261 -1152 947 -1152 
C 870 -1152 563 -1152 467 -889 
C 486 -895 518 -895 531 -895 
C 723 -895 851 -729 851 -582 
C 851 -435 730 -384 634 -384 
C 531 -384 307 -458 307 -759 
C 307 -1071 582 -1286 947 -1286 
C 1587 -1286 2234 -700 2413 6 
L 3040 2485 
C 3046 2517 3059 2556 3059 2594 
C 3059 2689 2982 2753 2886 2753 
C 2829 2753 2694 2727 2643 2535 
L 2170 658 
C 2138 543 2138 530 2086 460 
C 1958 281 1747 64 1440 64 
C 1082 64 1050 415 1050 588 
C 1050 952 1222 1443 1395 1903 
C 1466 2088 1504 2178 1504 2305 
C 1504 2574 1312 2816 998 2816 
C 410 2816 173 1890 173 1839 
C 173 1814 198 1782 243 1782 
C 301 1782 307 1807 333 1897 
C 486 2433 730 2689 979 2689 
C 1037 2689 1146 2689 1146 2478 
C 1146 2312 1075 2127 979 1884 
C 666 1047 666 837 666 683 
C 666 77 1101 -64 1421 -64 
C 1606 -64 1837 -6 2061 230 
L 2067 224 
C 1971 -147 1907 -392 1683 -700 
z
" transform="scale(0.015625)"/>
       <path id="CMMI12-3d" d="M 2746 4562 
C 2746 4569 2784 4666 2784 4678 
C 2784 4755 2720 4800 2669 4800 
C 2637 4800 2579 4800 2528 4659 
L 384 -1363 
C 384 -1370 346 -1465 346 -1478 
C 346 -1555 410 -1600 461 -1600 
C 499 -1600 557 -1593 602 -1459 
L 2746 4562 
z
" transform="scale(0.015625)"/>
       <path id="CMMI12-61" d="M 1926 760 
C 1894 651 1894 639 1805 517 
C 1664 338 1382 64 1082 64 
C 819 64 672 300 672 677 
C 672 1028 870 1743 992 2012 
C 1210 2459 1510 2689 1760 2689 
C 2182 2689 2266 2165 2266 2114 
C 2266 2108 2246 2024 2240 2012 
L 1926 760 
z
M 2336 2395 
C 2266 2561 2093 2816 1760 2816 
C 1037 2816 256 1884 256 939 
C 256 307 627 -64 1062 -64 
C 1414 -64 1715 211 1894 422 
C 1958 45 2259 -64 2451 -64 
C 2643 -64 2797 51 2912 281 
C 3014 498 3104 888 3104 913 
C 3104 945 3078 971 3040 971 
C 2982 971 2976 939 2950 843 
C 2854 466 2733 64 2470 64 
C 2285 64 2272 230 2272 358 
C 2272 505 2291 575 2349 824 
C 2394 984 2426 1124 2477 1309 
C 2714 2267 2771 2497 2771 2535 
C 2771 2625 2701 2695 2605 2695 
C 2400 2695 2349 2472 2336 2395 
z
" transform="scale(0.015625)"/>
      </defs>
      <use xlink:href="#CMMI12-79" transform="scale(0.996264)"/>
      <use xlink:href="#CMMI12-3d" transform="translate(51.138781 0) scale(0.996264)"/>
      <use xlink:href="#CMMI12-61" transform="translate(99.913699 0) scale(0.996264)"/>
     </g>
    </g>
   </g>
   <g id="line2d_21">
    <path d="M 367.654876 463.549091 
L 368.731586 463.481639 
L 376.333652 463.367279 
L 408.299855 463.025365 
L 413.561005 462.770682 
L 413.386051 462.698858 
L 414.128244 462.623443 
L 413.515911 462.544257 
L 413.928097 462.461112 
L 412.01896 462.185892 
L 412.071102 462.084829 
L 409.084876 461.750297 
L 408.979745 461.627454 
L 407.257887 461.498468 
L 407.107155 461.363034 
L 405.242079 461.220828 
L 405.046542 461.071511 
L 403.056083 460.914729 
L 402.799744 460.750108 
L 400.704955 460.577255 
L 400.356771 460.39576 
L 398.18459 460.20519 
L 397.70804 460.005092 
L 395.495782 459.794989 
L 394.855147 459.57438 
L 392.639995 459.342742 
L 391.814817 459.099521 
L 389.625436 458.844139 
L 388.612711 458.575988 
L 386.463945 458.29443 
L 385.272204 457.998793 
L 383.16383 457.688375 
L 381.806866 457.362436 
L 378.217812 456.660852 
L 374.495089 455.887356 
L 370.622951 455.034576 
L 364.419136 453.588748 
L 353.251686 450.655078 
L 343.170642 447.73452 
L 331.996396 444.184564 
L 319.664391 439.86957 
L 306.180945 434.624669 
L 291.648908 428.249457 
L 280.311842 422.581625 
L 276.295665 420.500348 
L 268.422957 416.020401 
L 260.500369 411.081258 
L 252.603064 405.635853 
L 244.818748 399.632295 
L 237.248561 393.013372 
L 230.008164 385.716009 
L 223.229109 377.670666 
L 220.14999 373.343841 
L 217.060496 368.800676 
L 214.340262 364.030351 
L 211.670888 359.021511 
L 209.400826 353.762229 
L 207.250302 348.239983 
L 205.53318 342.441624 
L 204.012005 336.353347 
L 202.962764 329.960657 
L 202.19108 323.248332 
L 201.938348 316.20039 
L 202.045126 308.800052 
L 202.727144 301.029697 
L 203.853787 292.870824 
L 205.616075 284.304007 
L 207.908382 275.30885 
L 210.898104 265.863934 
L 214.499264 255.946773 
L 218.856527 245.533754 
L 223.896803 234.600084 
L 229.742214 223.11973 
L 236.324858 211.065359 
L 243.743083 198.408269 
L 251.926837 185.118325 
L 260.947164 171.163883 
L 270.727721 156.511719 
L 281.305794 141.126948 
L 292.603454 124.972937 
L 330.587258 71.501143 
L 344.541251 51.865843 
L 365.972751 31.248777 
L 367.654876 28.930909 
L 367.654876 28.930909 
" clip-path="url(#p533eedb309)" style="fill: none; stroke: #000000; stroke-width: 1.2; stroke-linecap: square"/>
   </g>
   <g id="line2d_22">
    <path d="M 367.654876 463.549091 
L 742.417864 463.281192 
L 765.610677 462.966275 
L 775.167644 462.544257 
L 775.579515 462.461112 
L 776.80845 462.282143 
L 777.584064 462.185892 
L 777.413597 462.084829 
L 777.872762 461.978712 
L 777.452919 461.86729 
L 777.620773 461.750297 
L 775.998317 461.363034 
L 775.63463 461.220828 
L 770.320714 460.39576 
L 767.526561 460.005092 
L 762.670469 459.342742 
L 746.34752 457.362436 
L 730.703632 455.471366 
L 706.182198 452.500362 
L 674.35773 448.518932 
L 641.295657 444.184564 
L 610.103824 439.86957 
L 583.822254 436.033358 
L 555.530137 431.592463 
L 535.623592 428.249457 
L 525.291413 426.451572 
L 504.687097 422.581625 
L 484.057514 418.315008 
L 463.779097 413.611063 
L 444.183596 408.424963 
L 425.547821 402.707288 
L 408.082379 396.403552 
L 400.005973 393.013372 
L 391.874811 389.453682 
L 384.383692 385.716009 
L 376.907979 381.791451 
L 369.94938 377.670666 
L 363.062466 373.343841 
L 356.586158 368.800676 
L 350.226068 364.030351 
L 344.200075 359.021511 
L 338.331041 353.762229 
L 332.752125 348.239983 
L 327.37223 342.441624 
L 322.268583 336.353347 
L 317.410038 329.960657 
L 312.840031 323.248332 
L 308.566509 316.20039 
L 304.616128 308.800052 
L 301.019473 301.029697 
L 297.799604 292.870824 
L 294.996728 284.304007 
L 292.640607 275.30885 
L 290.77066 265.863934 
L 289.431295 255.946773 
L 288.652802 245.533754 
L 288.496733 234.600084 
L 288.983308 223.11973 
L 290.19063 211.065359 
L 292.125579 198.408269 
L 294.881773 185.118325 
L 298.448373 171.163883 
L 302.932505 156.511719 
L 308.298873 141.126948 
L 314.664345 124.972937 
L 321.958262 108.011226 
L 330.300204 90.20143 
L 339.567778 71.501143 
L 349.866674 51.865843 
L 366.341187 31.248777 
L 367.654876 28.930909 
L 367.654876 28.930909 
" clip-path="url(#p533eedb309)" style="fill: none; stroke-dasharray: 4.44,1.92; stroke-dashoffset: 0; stroke: #000000; stroke-width: 1.2"/>
   </g>
   <g id="line2d_23">
    <path d="M 367.654876 463.549091 
L 833.584017 463.367279 
L 873.048285 463.081641 
L 891.736465 462.698858 
L 902.284501 462.185892 
L 908.068567 461.498468 
L 908.434265 461.363034 
L 909.480468 461.071511 
L 910.142504 460.914729 
L 910.237058 460.750108 
L 910.751077 460.577255 
L 910.725714 460.39576 
L 911.100501 460.20519 
L 910.961086 460.005092 
L 911.202216 459.794989 
L 910.951785 459.57438 
L 911.062025 459.342742 
L 910.701114 459.099521 
L 910.680725 458.844139 
L 910.207603 458.575988 
L 910.054542 458.29443 
L 909.465365 457.998793 
L 909.175419 457.688375 
L 908.464314 457.362436 
L 908.031172 457.0202 
L 907.19027 456.660852 
L 906.605541 456.283537 
L 903.745936 455.034576 
L 902.82438 454.575947 
L 898.935103 453.057828 
L 897.616878 452.500362 
L 876.237299 445.138021 
L 851.015886 437.374968 
L 836.718878 433.145544 
L 799.617448 422.581625 
L 727.756772 402.707288 
L 680.118132 389.453682 
L 653.182698 381.791451 
L 624.275764 373.343841 
L 593.636068 364.030351 
L 577.788766 359.021511 
L 561.686059 353.762229 
L 545.417787 348.239983 
L 529.077966 342.441624 
L 512.811163 336.353347 
L 496.711552 329.960657 
L 480.977497 323.248332 
L 465.678695 316.20039 
L 451.049635 308.800052 
L 437.108939 301.029697 
L 424.108789 292.870824 
L 412.001575 284.304007 
L 401.019108 275.30885 
L 391.048469 265.863934 
L 382.259185 255.946773 
L 374.488059 245.533754 
L 367.849816 234.600084 
L 362.178422 223.11973 
L 357.560632 211.065359 
L 353.851734 198.408269 
L 351.131814 185.118325 
L 349.278789 171.163883 
L 348.371235 156.511719 
L 348.299265 141.126948 
L 349.13673 124.972937 
L 350.770584 108.011226 
L 353.258304 90.20143 
L 356.463029 71.501143 
L 360.40357 51.865843 
L 367.109404 31.248777 
L 367.654876 28.930909 
L 367.654876 28.930909 
" clip-path="url(#p533eedb309)" style="fill: none; stroke-dasharray: 8.32,2.08,1.3,2.08; stroke-dashoffset: 0; stroke: #000000; stroke-width: 1.3"/>
   </g>
   <g id="line2d_24">
    <path d="M 367.654876 463.549091 
L 404.362321 463.481639 
L 522.596066 463.281192 
L 547.021651 463.025365 
L 561.567834 462.623443 
L 572.457184 462.084829 
L 580.299404 461.498468 
L 587.660436 460.750108 
L 595.011512 459.794989 
L 602.616743 458.575988 
L 609.03555 457.362436 
L 615.810257 455.887356 
L 622.962354 454.094387 
L 628.570693 452.500362 
L 634.347821 450.655078 
L 640.273896 448.518932 
L 646.269422 446.046075 
L 650.272419 444.184564 
L 654.241436 442.132249 
L 658.138214 439.86957 
L 661.917296 437.374968 
L 665.525073 434.624669 
L 668.898789 431.592463 
L 670.477046 429.961729 
L 671.965507 428.249457 
L 673.358951 426.451572 
L 674.640843 424.563793 
L 675.802753 422.581625 
L 676.827815 420.500348 
L 677.703957 418.315008 
L 678.414731 416.020401 
L 678.945707 413.611063 
L 679.278415 411.081258 
L 679.395607 408.424963 
L 679.27777 405.635853 
L 678.904048 402.707288 
L 678.254164 399.632295 
L 677.303917 396.403552 
L 676.03228 393.013372 
L 674.411834 389.453682 
L 672.420943 385.716009 
L 670.029266 381.791451 
L 667.214869 377.670666 
L 663.945053 373.343841 
L 660.198155 368.800676 
L 655.940047 364.030351 
L 651.150303 359.021511 
L 645.794804 353.762229 
L 639.855896 348.239983 
L 633.301623 342.441624 
L 626.119439 336.353347 
L 618.282675 329.960657 
L 609.787323 323.248332 
L 600.616395 316.20039 
L 580.274607 301.029697 
L 532.232239 265.863934 
L 519.000236 255.946773 
L 505.453616 245.533754 
L 491.732296 234.600084 
L 477.976378 223.11973 
L 464.370238 211.065359 
L 451.091982 198.408269 
L 438.353775 185.118325 
L 426.34462 171.163883 
L 415.264502 156.511719 
L 405.262033 141.126948 
L 396.461829 124.972937 
L 388.90306 108.011226 
L 382.572591 90.20143 
L 377.35468 71.501143 
L 373.08059 51.865843 
L 368.013384 31.248777 
L 367.654876 28.930909 
L 367.654876 28.930909 
" clip-path="url(#p533eedb309)" style="fill: none; stroke-dasharray: 1.8,2.97; stroke-dashoffset: 0; stroke: #000000; stroke-width: 1.8"/>
   </g>
   <g id="PathCollection_1">
    <defs>
     <path id="m2f387bba0e" d="M -6.123724 0 
L 6.123724 0 
M 0 6.123724 
L 0 -6.123724 
" style="stroke: #000000; stroke-width: 1.2"/>
    </defs>
    <g clip-path="url(#p533eedb309)">
     <use xlink:href="#m2f387bba0e" x="381.692107" y="461.241118" style="stroke: #000000; stroke-width: 1.2"/>
     <use xlink:href="#m2f387bba0e" x="375.407465" y="459.352777" style="stroke: #000000; stroke-width: 1.2"/>
     <use xlink:href="#m2f387bba0e" x="397.197284" y="457.854094" style="stroke: #000000; stroke-width: 1.2"/>
     <use xlink:href="#m2f387bba0e" x="363.939139" y="456.055674" style="stroke: #000000; stroke-width: 1.2"/>
     <use xlink:href="#m2f387bba0e" x="365.774071" y="454.556991" style="stroke: #000000; stroke-width: 1.2"/>
     <use xlink:href="#m2f387bba0e" x="326.965256" y="452.758571" style="stroke: #000000; stroke-width: 1.2"/>
     <use xlink:href="#m2f387bba0e" x="352.516686" y="449.16173" style="stroke: #000000; stroke-width: 1.2"/>
     <use xlink:href="#m2f387bba0e" x="342.424559" y="445.864627" style="stroke: #000000; stroke-width: 1.2"/>
     <use xlink:href="#m2f387bba0e" x="341.277727" y="442.267787" style="stroke: #000000; stroke-width: 1.2"/>
     <use xlink:href="#m2f387bba0e" x="390.132795" y="436.273053" style="stroke: #000000; stroke-width: 1.2"/>
     <use xlink:href="#m2f387bba0e" x="297.101735" y="421.585956" style="stroke: #000000; stroke-width: 1.2"/>
     <use xlink:href="#m2f387bba0e" x="320.864106" y="407.798069" style="stroke: #000000; stroke-width: 1.2"/>
     <use xlink:href="#m2f387bba0e" x="200.997164" y="394.010182" style="stroke: #000000; stroke-width: 1.2"/>
     <use xlink:href="#m2f387bba0e" x="134.02214" y="364.036514" style="stroke: #000000; stroke-width: 1.2"/>
     <use xlink:href="#m2f387bba0e" x="164.115027" y="334.062846" style="stroke: #000000; stroke-width: 1.2"/>
     <use xlink:href="#m2f387bba0e" x="265.265662" y="304.089179" style="stroke: #000000; stroke-width: 1.2"/>
     <use xlink:href="#m2f387bba0e" x="242.787743" y="274.115511" style="stroke: #000000; stroke-width: 1.2"/>
     <use xlink:href="#m2f387bba0e" x="242.925363" y="214.168176" style="stroke: #000000; stroke-width: 1.2"/>
     <use xlink:href="#m2f387bba0e" x="283.385617" y="154.22084" style="stroke: #000000; stroke-width: 1.2"/>
     <use xlink:href="#m2f387bba0e" x="388.527229" y="94.273505" style="stroke: #000000; stroke-width: 1.2"/>
     <use xlink:href="#m2f387bba0e" x="354.489238" y="34.326169" style="stroke: #000000; stroke-width: 1.2"/>
    </g>
   </g>
   <g id="PathCollection_2">
    <defs>
     <path id="md3f00dfbaa" d="M 0 0 
L 0 6.123724 
M 0 0 
L 4.898979 -3.061862 
M 0 0 
L -4.898979 -3.061862 
" style="stroke: #000000; stroke-width: 1.2"/>
    </defs>
    <g clip-path="url(#p533eedb309)">
     <use xlink:href="#md3f00dfbaa" x="579.268427" y="461.241118" style="stroke: #000000; stroke-width: 1.2"/>
     <use xlink:href="#md3f00dfbaa" x="649.867441" y="459.352777" style="stroke: #000000; stroke-width: 1.2"/>
     <use xlink:href="#md3f00dfbaa" x="612.618318" y="457.854094" style="stroke: #000000; stroke-width: 1.2"/>
     <use xlink:href="#md3f00dfbaa" x="628.719848" y="456.055674" style="stroke: #000000; stroke-width: 1.2"/>
     <use xlink:href="#md3f00dfbaa" x="663.170699" y="454.556991" style="stroke: #000000; stroke-width: 1.2"/>
     <use xlink:href="#md3f00dfbaa" x="626.059196" y="452.758571" style="stroke: #000000; stroke-width: 1.2"/>
     <use xlink:href="#md3f00dfbaa" x="641.38088" y="449.16173" style="stroke: #000000; stroke-width: 1.2"/>
     <use xlink:href="#md3f00dfbaa" x="583.90163" y="445.864627" style="stroke: #000000; stroke-width: 1.2"/>
     <use xlink:href="#md3f00dfbaa" x="579.818906" y="442.267787" style="stroke: #000000; stroke-width: 1.2"/>
     <use xlink:href="#md3f00dfbaa" x="574.222363" y="436.273053" style="stroke: #000000; stroke-width: 1.2"/>
     <use xlink:href="#md3f00dfbaa" x="476.466353" y="421.585956" style="stroke: #000000; stroke-width: 1.2"/>
     <use xlink:href="#md3f00dfbaa" x="416.234705" y="407.798069" style="stroke: #000000; stroke-width: 1.2"/>
     <use xlink:href="#md3f00dfbaa" x="377.517637" y="394.010182" style="stroke: #000000; stroke-width: 1.2"/>
     <use xlink:href="#md3f00dfbaa" x="339.305174" y="364.036514" style="stroke: #000000; stroke-width: 1.2"/>
     <use xlink:href="#md3f00dfbaa" x="305.771789" y="334.062846" style="stroke: #000000; stroke-width: 1.2"/>
     <use xlink:href="#md3f00dfbaa" x="280.724966" y="304.089179" style="stroke: #000000; stroke-width: 1.2"/>
     <use xlink:href="#md3f00dfbaa" x="283.293871" y="274.115511" style="stroke: #000000; stroke-width: 1.2"/>
     <use xlink:href="#md3f00dfbaa" x="275.449536" y="214.168176" style="stroke: #000000; stroke-width: 1.2"/>
     <use xlink:href="#md3f00dfbaa" x="270.770459" y="154.22084" style="stroke: #000000; stroke-width: 1.2"/>
     <use xlink:href="#md3f00dfbaa" x="315.90979" y="94.273505" style="stroke: #000000; stroke-width: 1.2"/>
     <use xlink:href="#md3f00dfbaa" x="347.562369" y="34.326169" style="stroke: #000000; stroke-width: 1.2"/>
    </g>
   </g>
   <g id="PathCollection_3">
    <defs>
     <path id="C0_0_a0fcc6f224" d="M -4.242641 0 
L 0 -7.071068 
L 4.242641 -0 
L 0 7.071068 
z
M -4.242641 0 
L 4.242641 -0 
M 0 -7.071068 
L 0 7.071068 
"/>
    </defs>
    <g clip-path="url(#p533eedb309)">
     <use xlink:href="#C0_0_a0fcc6f224" x="710.970682" y="461.241118" style="fill: none; stroke: #000000; stroke-width: 0.8"/>
    </g>
    <g clip-path="url(#p533eedb309)">
     <use xlink:href="#C0_0_a0fcc6f224" x="752.944755" y="459.352777" style="fill: none; stroke: #000000; stroke-width: 0.8"/>
    </g>
    <g clip-path="url(#p533eedb309)">
     <use xlink:href="#C0_0_a0fcc6f224" x="780.285244" y="457.854094" style="fill: none; stroke: #000000; stroke-width: 0.8"/>
    </g>
    <g clip-path="url(#p533eedb309)">
     <use xlink:href="#C0_0_a0fcc6f224" x="880.289046" y="456.055674" style="fill: none; stroke: #000000; stroke-width: 0.8"/>
    </g>
    <g clip-path="url(#p533eedb309)">
     <use xlink:href="#C0_0_a0fcc6f224" x="894.463897" y="454.556991" style="fill: none; stroke: #000000; stroke-width: 0.8"/>
    </g>
    <g clip-path="url(#p533eedb309)">
     <use xlink:href="#C0_0_a0fcc6f224" x="875.105363" y="452.758571" style="fill: none; stroke: #000000; stroke-width: 0.8"/>
    </g>
    <g clip-path="url(#p533eedb309)">
     <use xlink:href="#C0_0_a0fcc6f224" x="945.658504" y="449.16173" style="fill: none; stroke: #000000; stroke-width: 0.8"/>
    </g>
    <g clip-path="url(#p533eedb309)">
     <use xlink:href="#C0_0_a0fcc6f224" x="898.867734" y="445.864627" style="fill: none; stroke: #000000; stroke-width: 0.8"/>
    </g>
    <g clip-path="url(#p533eedb309)">
     <use xlink:href="#C0_0_a0fcc6f224" x="877.720141" y="442.267787" style="fill: none; stroke: #000000; stroke-width: 0.8"/>
    </g>
    <g clip-path="url(#p533eedb309)">
     <use xlink:href="#C0_0_a0fcc6f224" x="891.161019" y="436.273053" style="fill: none; stroke: #000000; stroke-width: 0.8"/>
    </g>
    <g clip-path="url(#p533eedb309)">
     <use xlink:href="#C0_0_a0fcc6f224" x="841.663724" y="421.585956" style="fill: none; stroke: #000000; stroke-width: 0.8"/>
    </g>
    <g clip-path="url(#p533eedb309)">
     <use xlink:href="#C0_0_a0fcc6f224" x="802.075063" y="407.798069" style="fill: none; stroke: #000000; stroke-width: 0.8"/>
    </g>
    <g clip-path="url(#p533eedb309)">
     <use xlink:href="#C0_0_a0fcc6f224" x="698.217903" y="394.010182" style="fill: none; stroke: #000000; stroke-width: 0.8"/>
    </g>
    <g clip-path="url(#p533eedb309)">
     <use xlink:href="#C0_0_a0fcc6f224" x="545.689168" y="364.036514" style="fill: none; stroke: #000000; stroke-width: 0.8"/>
    </g>
    <g clip-path="url(#p533eedb309)">
     <use xlink:href="#C0_0_a0fcc6f224" x="428.758117" y="334.062846" style="fill: none; stroke: #000000; stroke-width: 0.8"/>
    </g>
    <g clip-path="url(#p533eedb309)">
     <use xlink:href="#C0_0_a0fcc6f224" x="359.581175" y="304.089179" style="fill: none; stroke: #000000; stroke-width: 0.8"/>
    </g>
    <g clip-path="url(#p533eedb309)">
     <use xlink:href="#C0_0_a0fcc6f224" x="328.983681" y="274.115511" style="fill: none; stroke: #000000; stroke-width: 0.8"/>
    </g>
    <g clip-path="url(#p533eedb309)">
     <use xlink:href="#C0_0_a0fcc6f224" x="313.157391" y="214.168176" style="fill: none; stroke: #000000; stroke-width: 0.8"/>
    </g>
    <g clip-path="url(#p533eedb309)">
     <use xlink:href="#C0_0_a0fcc6f224" x="318.753934" y="154.22084" style="fill: none; stroke: #000000; stroke-width: 0.8"/>
    </g>
    <g clip-path="url(#p533eedb309)">
     <use xlink:href="#C0_0_a0fcc6f224" x="338.892315" y="94.273505" style="fill: none; stroke: #000000; stroke-width: 0.8"/>
    </g>
    <g clip-path="url(#p533eedb309)">
     <use xlink:href="#C0_0_a0fcc6f224" x="352.746053" y="34.326169" style="fill: none; stroke: #000000; stroke-width: 0.8"/>
    </g>
   </g>
   <g id="PathCollection_4">
    <defs>
     <path id="C1_0_e5af7a14da" d="M -4.12479 -1.767767 
L 4.12479 -1.767767 
L 0 7.071068 
z
M -4.12479 -1.767767 
L 0 2.268046 
M 4.12479 -1.767767 
L 0 2.268046 
M 0 7.071068 
L 0 2.268046 
"/>
    </defs>
    <g clip-path="url(#p533eedb309)">
     <use xlink:href="#C1_0_e5af7a14da" x="499.403005" y="461.241118" style="fill: none; stroke: #000000; stroke-width: 0.8"/>
    </g>
    <g clip-path="url(#p533eedb309)">
     <use xlink:href="#C1_0_e5af7a14da" x="514.403575" y="459.352777" style="fill: none; stroke: #000000; stroke-width: 0.8"/>
    </g>
    <g clip-path="url(#p533eedb309)">
     <use xlink:href="#C1_0_e5af7a14da" x="542.93677" y="457.854094" style="fill: none; stroke: #000000; stroke-width: 0.8"/>
    </g>
    <g clip-path="url(#p533eedb309)">
     <use xlink:href="#C1_0_e5af7a14da" x="554.038109" y="456.055674" style="fill: none; stroke: #000000; stroke-width: 0.8"/>
    </g>
    <g clip-path="url(#p533eedb309)">
     <use xlink:href="#C1_0_e5af7a14da" x="568.258834" y="454.556991" style="fill: none; stroke: #000000; stroke-width: 0.8"/>
    </g>
    <g clip-path="url(#p533eedb309)">
     <use xlink:href="#C1_0_e5af7a14da" x="616.425803" y="452.758571" style="fill: none; stroke: #000000; stroke-width: 0.8"/>
    </g>
    <g clip-path="url(#p533eedb309)">
     <use xlink:href="#C1_0_e5af7a14da" x="634.775124" y="449.16173" style="fill: none; stroke: #000000; stroke-width: 0.8"/>
    </g>
    <g clip-path="url(#p533eedb309)">
     <use xlink:href="#C1_0_e5af7a14da" x="665.418491" y="445.864627" style="fill: none; stroke: #000000; stroke-width: 0.8"/>
    </g>
    <g clip-path="url(#p533eedb309)">
     <use xlink:href="#C1_0_e5af7a14da" x="682.391613" y="442.267787" style="fill: none; stroke: #000000; stroke-width: 0.8"/>
    </g>
    <g clip-path="url(#p533eedb309)">
     <use xlink:href="#C1_0_e5af7a14da" x="728.72365" y="436.273053" style="fill: none; stroke: #000000; stroke-width: 0.8"/>
    </g>
    <g clip-path="url(#p533eedb309)">
     <use xlink:href="#C1_0_e5af7a14da" x="765.37642" y="421.585956" style="fill: none; stroke: #000000; stroke-width: 0.8"/>
    </g>
    <g clip-path="url(#p533eedb309)">
     <use xlink:href="#C1_0_e5af7a14da" x="814.185615" y="407.798069" style="fill: none; stroke: #000000; stroke-width: 0.8"/>
    </g>
    <g clip-path="url(#p533eedb309)">
     <use xlink:href="#C1_0_e5af7a14da" x="815.470068" y="394.010182" style="fill: none; stroke: #000000; stroke-width: 0.8"/>
    </g>
    <g clip-path="url(#p533eedb309)">
     <use xlink:href="#C1_0_e5af7a14da" x="756.201759" y="364.036514" style="fill: none; stroke: #000000; stroke-width: 0.8"/>
    </g>
    <g clip-path="url(#p533eedb309)">
     <use xlink:href="#C1_0_e5af7a14da" x="727.072211" y="334.062846" style="fill: none; stroke: #000000; stroke-width: 0.8"/>
    </g>
    <g clip-path="url(#p533eedb309)">
     <use xlink:href="#C1_0_e5af7a14da" x="671.060907" y="304.089179" style="fill: none; stroke: #000000; stroke-width: 0.8"/>
    </g>
    <g clip-path="url(#p533eedb309)">
     <use xlink:href="#C1_0_e5af7a14da" x="587.663241" y="274.115511" style="fill: none; stroke: #000000; stroke-width: 0.8"/>
    </g>
    <g clip-path="url(#p533eedb309)">
     <use xlink:href="#C1_0_e5af7a14da" x="535.046562" y="214.168176" style="fill: none; stroke: #000000; stroke-width: 0.8"/>
    </g>
    <g clip-path="url(#p533eedb309)">
     <use xlink:href="#C1_0_e5af7a14da" x="419.904569" y="154.22084" style="fill: none; stroke: #000000; stroke-width: 0.8"/>
    </g>
    <g clip-path="url(#p533eedb309)">
     <use xlink:href="#C1_0_e5af7a14da" x="369.443935" y="94.273505" style="fill: none; stroke: #000000; stroke-width: 0.8"/>
    </g>
    <g clip-path="url(#p533eedb309)">
     <use xlink:href="#C1_0_e5af7a14da" x="381.462741" y="34.326169" style="fill: none; stroke: #000000; stroke-width: 0.8"/>
    </g>
   </g>
   <g id="patch_3">
    <path d="M 93.440322 485.28 
L 93.440322 7.2 
" style="fill: none; stroke: #000000; stroke-width: 0.8; stroke-linejoin: miter; stroke-linecap: square"/>
   </g>
   <g id="patch_4">
    <path d="M 986.240322 485.28 
L 986.240322 7.2 
" style="fill: none; stroke: #000000; stroke-width: 0.8; stroke-linejoin: miter; stroke-linecap: square"/>
   </g>
   <g id="patch_5">
    <path d="M 93.440322 485.28 
L 986.240322 485.28 
" style="fill: none; stroke: #000000; stroke-width: 0.8; stroke-linejoin: miter; stroke-linecap: square"/>
   </g>
   <g id="patch_6">
    <path d="M 93.440322 7.2 
L 986.240322 7.2 
" style="fill: none; stroke: #000000; stroke-width: 0.8; stroke-linejoin: miter; stroke-linecap: square"/>
   </g>
   <g id="legend_1">
    <g id="patch_7">
     <path d="M 436.764947 134.702534 
L 972.240322 134.702534 
Q 976.240322 134.702534 976.240322 130.702534 
L 976.240322 21.2 
Q 976.240322 17.2 972.240322 17.2 
L 436.764947 17.2 
Q 432.764947 17.2 432.764947 21.2 
L 432.764947 130.702534 
Q 432.764947 134.702534 436.764947 134.702534 
z
" style="fill: #ffffff; opacity: 0.8; stroke: #cccccc; stroke-linejoin: miter"/>
    </g>
    <g id="line2d_25">
     <path d="M 440.764947 32.2 
L 460.764947 32.2 
L 480.764947 32.2 
" style="fill: none; stroke: #000000; stroke-width: 1.2; stroke-linecap: square"/>
    </g>
    <g id="text_13">
     <!-- $\omega t = 0\:\unit{\degree}$ - - Model -->
     <g transform="translate(496.764947 39.2) scale(0.2 -0.2)">
      <defs>
       <path id="CMMI12-21" d="M 3802 2395 
C 3802 2580 3750 2816 3526 2816 
C 3398 2816 3251 2657 3251 2529 
C 3251 2472 3277 2434 3328 2376 
C 3424 2268 3546 2096 3546 1797 
C 3546 1567 3405 1204 3302 1007 
C 3123 656 2829 357 2496 357 
C 2093 357 1939 615 1869 975 
C 1939 1143 2086 1560 2086 1728 
C 2086 1798 2061 1856 1978 1856 
C 1933 1856 1882 1831 1850 1779 
C 1760 1638 1677 1129 1683 994 
C 1562 756 1216 357 806 357 
C 378 357 262 733 262 1096 
C 262 1758 678 2338 794 2497 
C 858 2593 902 2657 902 2669 
C 902 2714 877 2784 819 2784 
C 717 2784 685 2701 634 2625 
C 307 2121 77 1414 77 803 
C 77 408 224 -64 704 -64 
C 1235 -64 1568 391 1702 634 
C 1754 275 1946 -64 2413 -64 
C 2899 -64 3206 363 3437 879 
C 3603 1249 3802 2045 3802 2395 
z
" transform="scale(0.015625)"/>
       <path id="CMMI12-74" d="M 1286 2566 
L 1875 2566 
C 1997 2566 2061 2566 2061 2681 
C 2061 2752 2022 2752 1894 2752 
L 1331 2752 
L 1568 3692 
C 1594 3781 1594 3794 1594 3840 
C 1594 3943 1510 4000 1427 4000 
C 1376 4000 1229 3981 1178 3775 
L 928 2752 
L 326 2752 
C 198 2752 141 2752 141 2630 
C 141 2566 186 2566 307 2566 
L 877 2566 
L 454 881 
C 403 658 384 594 384 511 
C 384 211 595 -64 954 -64 
C 1600 -64 1946 868 1946 912 
C 1946 951 1920 970 1882 970 
C 1869 970 1843 970 1830 944 
C 1824 938 1818 931 1773 829 
C 1638 511 1344 64 973 64 
C 781 64 768 224 768 364 
C 768 370 768 492 787 568 
L 1286 2566 
z
" transform="scale(0.015625)"/>
       <path id="CMR17-3d" d="M 4115 2017 
C 4211 2017 4307 2017 4307 2125 
C 4307 2240 4198 2240 4090 2240 
L 512 2240 
C 403 2240 294 2240 294 2125 
C 294 2017 390 2017 486 2017 
L 4115 2017 
z
M 4090 896 
C 4198 896 4307 896 4307 1011 
C 4307 1119 4211 1119 4115 1119 
L 486 1119 
C 390 1119 294 1119 294 1011 
C 294 896 403 896 512 896 
L 4090 896 
z
" transform="scale(0.015625)"/>
       <path id="CMSY10-e" d="M 2842 1600 
C 2842 2277 2272 2828 1600 2828 
C 909 2828 352 2264 352 1600 
C 352 930 909 372 1600 372 
C 2272 372 2842 923 2842 1600 
z
M 1600 628 
C 1043 628 608 1070 608 1600 
C 608 2130 1050 2572 1600 2572 
C 2131 2572 2586 2142 2586 1600 
C 2586 1058 2131 628 1600 628 
z
" transform="scale(0.015625)"/>
       <path id="CMR17-7b" d="M 2970 1664 
L 2970 1766 
L -38 1766 
L -38 1664 
L 2970 1664 
z
" transform="scale(0.015625)"/>
       <path id="CMR17-4d" d="M 1338 4224 
C 1299 4320 1293 4320 1158 4320 
L 339 4320 
L 339 4160 
C 781 4160 851 4160 851 3875 
L 851 610 
C 851 451 851 153 339 153 
L 339 -13 
C 486 0 755 0 915 0 
C 1075 0 1344 0 1491 -13 
L 1491 153 
C 979 153 979 451 979 610 
L 979 4135 
L 986 4135 
L 2490 89 
C 2515 25 2528 -13 2579 -13 
C 2630 -13 2643 25 2669 89 
L 4186 4166 
L 4192 4166 
L 4192 438 
C 4192 153 4122 153 3680 153 
L 3680 -13 
C 3853 0 4198 0 4384 0 
C 4570 0 4922 0 5094 -13 
L 5094 153 
C 4653 153 4582 153 4582 438 
L 4582 3875 
C 4582 4160 4653 4160 5094 4160 
L 5094 4320 
L 4282 4320 
C 4147 4320 4141 4314 4102 4218 
L 2720 502 
L 1338 4224 
z
" transform="scale(0.015625)"/>
       <path id="CMR17-6f" d="M 2758 1356 
C 2758 2176 2163 2816 1466 2816 
C 768 2816 173 2176 173 1356 
C 173 551 768 -64 1466 -64 
C 2163 -64 2758 551 2758 1356 
z
M 1466 51 
C 1165 51 909 230 762 480 
C 602 767 582 1126 582 1408 
C 582 1677 595 2010 762 2298 
C 890 2509 1139 2714 1466 2714 
C 1754 2714 1997 2554 2150 2330 
C 2349 2029 2349 1607 2349 1408 
C 2349 1158 2336 775 2163 467 
C 1984 173 1709 51 1466 51 
z
" transform="scale(0.015625)"/>
       <path id="CMR17-64" d="M 1869 4326 
L 1869 4160 
C 2246 4160 2304 4122 2304 3820 
L 2304 2345 
C 2278 2377 2016 2790 1498 2790 
C 845 2790 211 2208 211 1364 
C 211 525 806 -64 1434 -64 
C 1978 -64 2259 337 2291 380 
L 2291 -63 
L 3066 -63 
L 3066 128 
C 2688 128 2630 166 2630 473 
L 2630 4396 
L 1869 4326 
z
M 2291 755 
C 2291 563 2176 390 2029 262 
C 1811 70 1594 38 1472 38 
C 1286 38 621 134 621 1356 
C 621 2612 1363 2688 1530 2688 
C 1824 2688 2061 2522 2208 2291 
C 2291 2157 2291 2138 2291 2023 
L 2291 755 
z
" transform="scale(0.015625)"/>
       <path id="CMR17-65" d="M 2438 1472 
C 2464 1498 2464 1511 2464 1576 
C 2464 2238 2118 2816 1389 2816 
C 710 2816 173 2169 173 1383 
C 173 551 781 -64 1459 -64 
C 2176 -64 2458 607 2458 740 
C 2458 784 2419 784 2406 784 
C 2362 784 2355 771 2330 696 
C 2189 265 1837 51 1504 51 
C 1229 51 954 203 781 480 
C 582 803 582 1176 582 1472 
L 2438 1472 
z
M 589 1568 
C 634 2505 1126 2714 1382 2714 
C 1818 2714 2112 2297 2118 1568 
L 589 1568 
z
" transform="scale(0.015625)"/>
       <path id="CMR17-6c" d="M 979 4396 
L 218 4326 
L 218 4160 
C 595 4160 653 4122 653 3817 
L 653 426 
C 653 184 627 153 218 153 
L 218 -13 
C 371 0 653 0 813 0 
C 979 0 1261 0 1414 -13 
L 1414 153 
C 1005 153 979 178 979 426 
L 979 4396 
z
" transform="scale(0.015625)"/>
      </defs>
      <use xlink:href="#CMMI12-21" transform="scale(0.996264)"/>
      <use xlink:href="#CMMI12-74" transform="translate(64.318346 0) scale(0.996264)"/>
      <use xlink:href="#CMR17-3d" transform="translate(127.218685 0) scale(0.996264)"/>
      <use xlink:href="#CMR17-30" transform="translate(226.607482 0) scale(0.996264)"/>
      <use xlink:href="#CMSY10-e" transform="translate(294.437166 36.153639) scale(0.697382)"/>
      <use xlink:href="#CMR17-7b" transform="translate(359.880474 0) scale(0.996264)"/>
      <use xlink:href="#CMR17-4d" transform="translate(435.646918 0) scale(0.996264)"/>
      <use xlink:href="#CMR17-6f" transform="translate(520.333859 0) scale(0.996264)"/>
      <use xlink:href="#CMR17-64" transform="translate(568.626774 0) scale(0.996264)"/>
      <use xlink:href="#CMR17-65" transform="translate(619.522144 0) scale(0.996264)"/>
      <use xlink:href="#CMR17-6c" transform="translate(660.007805 0) scale(0.996264)"/>
     </g>
    </g>
    <g id="line2d_26">
     <path d="M 440.764947 60.075634 
L 460.764947 60.075634 
L 480.764947 60.075634 
" style="fill: none; stroke-dasharray: 4.44,1.92; stroke-dashoffset: 0; stroke: #000000; stroke-width: 1.2"/>
    </g>
    <g id="text_14">
     <!-- $\omega t = 45\:\unit{\degree}$ - - Model -->
     <g transform="translate(496.764947 67.075634) scale(0.2 -0.2)">
      <defs>
       <path id="CMR17-35" d="M 730 3692 
C 794 3666 1056 3584 1325 3584 
C 1920 3584 2246 3911 2432 4100 
C 2432 4157 2432 4192 2394 4192 
C 2387 4192 2374 4192 2323 4163 
C 2099 4058 1837 3973 1517 3973 
C 1325 3973 1037 3999 723 4139 
C 653 4171 640 4171 634 4171 
C 602 4171 595 4164 595 4037 
L 595 2203 
C 595 2089 595 2057 659 2057 
C 691 2057 704 2070 736 2114 
C 941 2401 1222 2522 1542 2522 
C 1766 2522 2246 2382 2246 1289 
C 2246 1085 2246 715 2054 421 
C 1894 159 1645 25 1370 25 
C 947 25 518 320 403 814 
C 429 807 480 795 506 795 
C 589 795 749 840 749 1038 
C 749 1210 627 1280 506 1280 
C 358 1280 262 1190 262 1011 
C 262 454 704 -128 1382 -128 
C 2042 -128 2669 440 2669 1264 
C 2669 2030 2170 2624 1549 2624 
C 1222 2624 947 2503 730 2274 
L 730 3692 
z
" transform="scale(0.015625)"/>
      </defs>
      <use xlink:href="#CMMI12-21" transform="scale(0.996264)"/>
      <use xlink:href="#CMMI12-74" transform="translate(64.318346 0) scale(0.996264)"/>
      <use xlink:href="#CMR17-3d" transform="translate(127.218685 0) scale(0.996264)"/>
      <use xlink:href="#CMR17-34" transform="translate(226.607482 0) scale(0.996264)"/>
      <use xlink:href="#CMR17-35" transform="translate(272.297959 0) scale(0.996264)"/>
      <use xlink:href="#CMSY10-e" transform="translate(340.127643 36.153639) scale(0.697382)"/>
      <use xlink:href="#CMR17-7b" transform="translate(405.570952 0) scale(0.996264)"/>
      <use xlink:href="#CMR17-4d" transform="translate(481.337395 0) scale(0.996264)"/>
      <use xlink:href="#CMR17-6f" transform="translate(566.024336 0) scale(0.996264)"/>
      <use xlink:href="#CMR17-64" transform="translate(614.317251 0) scale(0.996264)"/>
      <use xlink:href="#CMR17-65" transform="translate(665.212621 0) scale(0.996264)"/>
      <use xlink:href="#CMR17-6c" transform="translate(705.698282 0) scale(0.996264)"/>
     </g>
    </g>
    <g id="line2d_27">
     <path d="M 440.764947 87.951267 
L 460.764947 87.951267 
L 480.764947 87.951267 
" style="fill: none; stroke-dasharray: 8.32,2.08,1.3,2.08; stroke-dashoffset: 0; stroke: #000000; stroke-width: 1.3"/>
    </g>
    <g id="text_15">
     <!-- $\omega t = 90\:\unit{\degree}$ - - Model -->
     <g transform="translate(496.764947 94.951267) scale(0.2 -0.2)">
      <defs>
       <path id="CMR17-39" d="M 2253 1864 
C 2253 464 1670 31 1190 31 
C 1043 31 685 31 538 294 
C 704 268 826 357 826 518 
C 826 692 685 749 595 749 
C 538 749 365 723 365 506 
C 365 71 742 -128 1203 -128 
C 1939 -128 2688 674 2688 2073 
C 2688 3817 1971 4179 1485 4179 
C 851 4179 243 3628 243 2778 
C 243 1991 762 1408 1414 1408 
C 1952 1408 2189 1903 2253 2112 
L 2253 1864 
z
M 1427 1510 
C 1254 1510 1011 1542 813 1922 
C 678 2169 678 2461 678 2771 
C 678 3146 678 3405 858 3684 
C 947 3817 1114 4032 1485 4032 
C 2240 4032 2240 2885 2240 2632 
C 2240 2182 2035 1510 1427 1510 
z
" transform="scale(0.015625)"/>
      </defs>
      <use xlink:href="#CMMI12-21" transform="scale(0.996264)"/>
      <use xlink:href="#CMMI12-74" transform="translate(64.318346 0) scale(0.996264)"/>
      <use xlink:href="#CMR17-3d" transform="translate(127.218685 0) scale(0.996264)"/>
      <use xlink:href="#CMR17-39" transform="translate(226.607482 0) scale(0.996264)"/>
      <use xlink:href="#CMR17-30" transform="translate(272.297959 0) scale(0.996264)"/>
      <use xlink:href="#CMSY10-e" transform="translate(340.127643 36.153639) scale(0.697382)"/>
      <use xlink:href="#CMR17-7b" transform="translate(405.570952 0) scale(0.996264)"/>
      <use xlink:href="#CMR17-4d" transform="translate(481.337395 0) scale(0.996264)"/>
      <use xlink:href="#CMR17-6f" transform="translate(566.024336 0) scale(0.996264)"/>
      <use xlink:href="#CMR17-64" transform="translate(614.317251 0) scale(0.996264)"/>
      <use xlink:href="#CMR17-65" transform="translate(665.212621 0) scale(0.996264)"/>
      <use xlink:href="#CMR17-6c" transform="translate(705.698282 0) scale(0.996264)"/>
     </g>
    </g>
    <g id="line2d_28">
     <path d="M 440.764947 115.826901 
L 460.764947 115.826901 
L 480.764947 115.826901 
" style="fill: none; stroke-dasharray: 1.8,2.97; stroke-dashoffset: 0; stroke: #000000; stroke-width: 1.8"/>
    </g>
    <g id="text_16">
     <!-- $\omega t = 135\:\unit{\degree}$ - - Model -->
     <g transform="translate(496.764947 122.826901) scale(0.2 -0.2)">
      <use xlink:href="#CMMI12-21" transform="scale(0.996264)"/>
      <use xlink:href="#CMMI12-74" transform="translate(64.318346 0) scale(0.996264)"/>
      <use xlink:href="#CMR17-3d" transform="translate(127.218685 0) scale(0.996264)"/>
      <use xlink:href="#CMR17-31" transform="translate(226.607482 0) scale(0.996264)"/>
      <use xlink:href="#CMR17-33" transform="translate(272.297959 0) scale(0.996264)"/>
      <use xlink:href="#CMR17-35" transform="translate(317.988436 0) scale(0.996264)"/>
      <use xlink:href="#CMSY10-e" transform="translate(385.81812 36.153639) scale(0.697382)"/>
      <use xlink:href="#CMR17-7b" transform="translate(451.261429 0) scale(0.996264)"/>
      <use xlink:href="#CMR17-4d" transform="translate(527.027872 0) scale(0.996264)"/>
      <use xlink:href="#CMR17-6f" transform="translate(611.714813 0) scale(0.996264)"/>
      <use xlink:href="#CMR17-64" transform="translate(660.007729 0) scale(0.996264)"/>
      <use xlink:href="#CMR17-65" transform="translate(710.903098 0) scale(0.996264)"/>
      <use xlink:href="#CMR17-6c" transform="translate(751.388759 0) scale(0.996264)"/>
     </g>
    </g>
    <g id="PathCollection_5">
     <g>
      <use xlink:href="#m2f387bba0e" x="712.415191" y="33.95" style="stroke: #000000; stroke-width: 1.2"/>
     </g>
    </g>
    <g id="text_17">
     <!-- $\omega t = 0\:\unit{\degree}$ - - Measurements -->
     <g transform="translate(748.415191 39.2) scale(0.2 -0.2)">
      <defs>
       <path id="CMR17-61" d="M 2304 1653 
C 2304 2072 2304 2294 2035 2543 
C 1798 2752 1523 2816 1306 2816 
C 800 2816 435 2407 435 1971 
C 435 1728 627 1728 666 1728 
C 749 1728 896 1778 896 1954 
C 896 2112 774 2181 666 2181 
C 640 2181 608 2174 589 2168 
C 723 2592 1069 2714 1293 2714 
C 1613 2714 1965 2429 1965 1885 
L 1965 1600 
C 1587 1600 1133 1549 774 1357 
C 371 1133 256 813 256 570 
C 256 77 832 -64 1171 -64 
C 1523 -64 1850 139 1990 511 
C 2003 233 2182 -18 2464 -18 
C 2598 -18 2938 70 2938 567 
L 2938 920 
L 2822 920 
L 2822 562 
C 2822 178 2650 128 2566 128 
C 2304 128 2304 458 2304 738 
L 2304 1653 
z
M 1965 870 
C 1965 317 1568 38 1216 38 
C 896 38 646 275 646 570 
C 646 761 730 1100 1101 1305 
C 1408 1478 1760 1504 1965 1504 
L 1965 870 
z
" transform="scale(0.015625)"/>
       <path id="CMR17-73" d="M 1978 2697 
C 1978 2813 1971 2819 1933 2819 
C 1907 2819 1901 2813 1824 2717 
C 1805 2691 1747 2626 1728 2601 
C 1523 2819 1235 2819 1126 2819 
C 416 2819 160 2447 160 2076 
C 160 1498 813 1365 998 1325 
C 1402 1243 1542 1217 1677 1101 
C 1760 1025 1901 884 1901 654 
C 1901 384 1747 38 1158 38 
C 602 38 403 460 288 1021 
C 269 1110 269 1117 218 1117 
C 166 1117 160 1110 160 983 
L 160 63 
C 160 -51 166 -58 205 -58 
C 237 -58 243 -51 275 0 
C 314 57 410 211 448 276 
C 576 103 800 -64 1158 -64 
C 1792 -64 2131 283 2131 784 
C 2131 1112 1958 1285 1875 1362 
C 1683 1561 1459 1606 1190 1657 
C 838 1735 390 1825 390 2217 
C 390 2383 480 2737 1126 2737 
C 1811 2737 1850 2094 1862 1888 
C 1869 1856 1901 1849 1920 1849 
C 1978 1849 1978 1869 1978 1978 
L 1978 2697 
z
" transform="scale(0.015625)"/>
       <path id="CMR17-75" d="M 1882 2693 
L 1882 2528 
C 2259 2528 2317 2489 2317 2186 
L 2317 1032 
C 2317 500 2029 38 1555 38 
C 1030 38 986 348 986 678 
L 986 2763 
L 211 2693 
L 211 2528 
C 467 2528 640 2528 646 2274 
L 646 1058 
C 646 633 646 361 813 183 
C 896 101 1056 -64 1517 -64 
C 2061 -64 2272 377 2323 506 
L 2330 506 
L 2330 -63 
L 3091 -63 
L 3091 128 
C 2714 128 2656 166 2656 473 
L 2656 2763 
L 1882 2693 
z
" transform="scale(0.015625)"/>
       <path id="CMR17-72" d="M 960 1497 
C 960 2112 1222 2688 1702 2688 
C 1747 2688 1792 2682 1837 2662 
C 1837 2662 1696 2617 1696 2452 
C 1696 2298 1818 2234 1914 2234 
C 1990 2234 2131 2279 2131 2458 
C 2131 2663 1926 2790 1709 2790 
C 1222 2790 1011 2317 947 2093 
L 941 2093 
L 941 2790 
L 198 2720 
L 198 2554 
C 576 2554 634 2515 634 2208 
L 634 428 
C 634 184 608 153 198 153 
L 198 -13 
C 352 0 646 0 813 0 
C 998 0 1325 0 1498 -13 
L 1498 153 
C 1037 153 960 153 960 440 
L 960 1497 
z
" transform="scale(0.015625)"/>
       <path id="CMR17-6d" d="M 4326 1933 
C 4326 2252 4269 2790 3507 2790 
C 3072 2790 2771 2496 2656 2151 
L 2650 2151 
C 2573 2676 2195 2790 1837 2790 
C 1331 2790 1069 2400 973 2144 
L 966 2144 
L 966 2790 
L 211 2720 
L 211 2554 
C 589 2554 646 2515 646 2208 
L 646 428 
C 646 184 621 153 211 153 
L 211 -13 
C 365 0 646 0 813 0 
C 979 0 1267 0 1421 -13 
L 1421 153 
C 1011 153 986 178 986 428 
L 986 1658 
C 986 2247 1344 2688 1792 2688 
C 2266 2688 2317 2266 2317 1958 
L 2317 428 
C 2317 184 2291 153 1882 153 
L 1882 -13 
C 2035 0 2317 0 2483 0 
C 2650 0 2938 0 3091 -13 
L 3091 153 
C 2682 153 2656 178 2656 428 
L 2656 1658 
C 2656 2247 3014 2688 3462 2688 
C 3936 2688 3987 2266 3987 1958 
L 3987 428 
C 3987 184 3962 153 3552 153 
L 3552 -13 
C 3706 0 3987 0 4154 0 
C 4320 0 4608 0 4762 -13 
L 4762 153 
C 4352 153 4326 178 4326 428 
L 4326 1933 
z
" transform="scale(0.015625)"/>
       <path id="CMR17-6e" d="M 2656 1933 
C 2656 2259 2592 2790 1837 2790 
C 1331 2790 1069 2400 973 2144 
L 966 2144 
L 966 2790 
L 211 2720 
L 211 2554 
C 589 2554 646 2515 646 2208 
L 646 428 
C 646 184 621 153 211 153 
L 211 -13 
C 365 0 646 0 813 0 
C 979 0 1267 0 1421 -13 
L 1421 153 
C 1011 153 986 178 986 428 
L 986 1658 
C 986 2247 1344 2688 1792 2688 
C 2266 2688 2317 2266 2317 1958 
L 2317 428 
C 2317 184 2291 153 1882 153 
L 1882 -13 
C 2035 0 2317 0 2483 0 
C 2650 0 2938 0 3091 -13 
L 3091 153 
C 2682 153 2656 178 2656 428 
L 2656 1933 
z
" transform="scale(0.015625)"/>
       <path id="CMR17-74" d="M 966 2560 
L 1862 2560 
L 1862 2725 
L 966 2725 
L 966 3904 
L 851 3904 
C 838 3245 614 2668 70 2668 
L 70 2560 
L 627 2560 
L 627 771 
C 627 650 627 -64 1370 -64 
C 1747 -64 1965 306 1965 777 
L 1965 1140 
L 1850 1140 
L 1850 783 
C 1850 344 1677 51 1408 51 
C 1222 51 966 178 966 758 
L 966 2560 
z
" transform="scale(0.015625)"/>
      </defs>
      <use xlink:href="#CMMI12-21" transform="scale(0.996264)"/>
      <use xlink:href="#CMMI12-74" transform="translate(64.318346 0) scale(0.996264)"/>
      <use xlink:href="#CMR17-3d" transform="translate(127.218685 0) scale(0.996264)"/>
      <use xlink:href="#CMR17-30" transform="translate(226.607482 0) scale(0.996264)"/>
      <use xlink:href="#CMSY10-e" transform="translate(294.437166 36.153639) scale(0.697382)"/>
      <use xlink:href="#CMR17-7b" transform="translate(359.880474 0) scale(0.996264)"/>
      <use xlink:href="#CMR17-4d" transform="translate(435.646918 0) scale(0.996264)"/>
      <use xlink:href="#CMR17-65" transform="translate(520.333859 0) scale(0.996264)"/>
      <use xlink:href="#CMR17-61" transform="translate(560.819519 0) scale(0.996264)"/>
      <use xlink:href="#CMR17-73" transform="translate(606.509996 0) scale(0.996264)"/>
      <use xlink:href="#CMR17-75" transform="translate(642.311334 0) scale(0.996264)"/>
      <use xlink:href="#CMR17-72" transform="translate(693.206703 0) scale(0.996264)"/>
      <use xlink:href="#CMR17-65" transform="translate(728.487471 0) scale(0.996264)"/>
      <use xlink:href="#CMR17-6d" transform="translate(768.973132 0) scale(0.996264)"/>
      <use xlink:href="#CMR17-65" transform="translate(845.892722 0) scale(0.996264)"/>
      <use xlink:href="#CMR17-6e" transform="translate(886.378382 0) scale(0.996264)"/>
      <use xlink:href="#CMR17-74" transform="translate(934.671298 0) scale(0.996264)"/>
      <use xlink:href="#CMR17-73" transform="translate(969.952066 0) scale(0.996264)"/>
     </g>
    </g>
    <g id="PathCollection_6">
     <g>
      <use xlink:href="#md3f00dfbaa" x="712.415191" y="61.825634" style="stroke: #000000; stroke-width: 1.2"/>
     </g>
    </g>
    <g id="text_18">
     <!-- $\omega t = 45\:\unit{\degree}$ - - Measurements -->
     <g transform="translate(748.415191 67.075634) scale(0.2 -0.2)">
      <use xlink:href="#CMMI12-21" transform="scale(0.996264)"/>
      <use xlink:href="#CMMI12-74" transform="translate(64.318346 0) scale(0.996264)"/>
      <use xlink:href="#CMR17-3d" transform="translate(127.218685 0) scale(0.996264)"/>
      <use xlink:href="#CMR17-34" transform="translate(226.607482 0) scale(0.996264)"/>
      <use xlink:href="#CMR17-35" transform="translate(272.297959 0) scale(0.996264)"/>
      <use xlink:href="#CMSY10-e" transform="translate(340.127643 36.153639) scale(0.697382)"/>
      <use xlink:href="#CMR17-7b" transform="translate(405.570952 0) scale(0.996264)"/>
      <use xlink:href="#CMR17-4d" transform="translate(481.337395 0) scale(0.996264)"/>
      <use xlink:href="#CMR17-65" transform="translate(566.024336 0) scale(0.996264)"/>
      <use xlink:href="#CMR17-61" transform="translate(606.509996 0) scale(0.996264)"/>
      <use xlink:href="#CMR17-73" transform="translate(652.200473 0) scale(0.996264)"/>
      <use xlink:href="#CMR17-75" transform="translate(688.001811 0) scale(0.996264)"/>
      <use xlink:href="#CMR17-72" transform="translate(738.897181 0) scale(0.996264)"/>
      <use xlink:href="#CMR17-65" transform="translate(774.177948 0) scale(0.996264)"/>
      <use xlink:href="#CMR17-6d" transform="translate(814.663609 0) scale(0.996264)"/>
      <use xlink:href="#CMR17-65" transform="translate(891.583199 0) scale(0.996264)"/>
      <use xlink:href="#CMR17-6e" transform="translate(932.068859 0) scale(0.996264)"/>
      <use xlink:href="#CMR17-74" transform="translate(980.361775 0) scale(0.996264)"/>
      <use xlink:href="#CMR17-73" transform="translate(1015.642543 0) scale(0.996264)"/>
     </g>
    </g>
    <g id="PathCollection_7">
     <path d="M 708.17255 89.701267 
L 712.415191 82.630199 
L 716.657832 89.701267 
L 712.415191 96.772335 
L 708.17255 89.701267 
z
M 708.17255 89.701267 
L 716.657832 89.701267 
M 712.415191 82.630199 
L 712.415191 96.772335 
" style="fill: none; stroke: #000000; stroke-width: 0.8"/>
    </g>
    <g id="text_19">
     <!-- $\omega t = 90\:\unit{\degree}$ - - Measurements -->
     <g transform="translate(748.415191 94.951267) scale(0.2 -0.2)">
      <use xlink:href="#CMMI12-21" transform="scale(0.996264)"/>
      <use xlink:href="#CMMI12-74" transform="translate(64.318346 0) scale(0.996264)"/>
      <use xlink:href="#CMR17-3d" transform="translate(127.218685 0) scale(0.996264)"/>
      <use xlink:href="#CMR17-39" transform="translate(226.607482 0) scale(0.996264)"/>
      <use xlink:href="#CMR17-30" transform="translate(272.297959 0) scale(0.996264)"/>
      <use xlink:href="#CMSY10-e" transform="translate(340.127643 36.153639) scale(0.697382)"/>
      <use xlink:href="#CMR17-7b" transform="translate(405.570952 0) scale(0.996264)"/>
      <use xlink:href="#CMR17-4d" transform="translate(481.337395 0) scale(0.996264)"/>
      <use xlink:href="#CMR17-65" transform="translate(566.024336 0) scale(0.996264)"/>
      <use xlink:href="#CMR17-61" transform="translate(606.509996 0) scale(0.996264)"/>
      <use xlink:href="#CMR17-73" transform="translate(652.200473 0) scale(0.996264)"/>
      <use xlink:href="#CMR17-75" transform="translate(688.001811 0) scale(0.996264)"/>
      <use xlink:href="#CMR17-72" transform="translate(738.897181 0) scale(0.996264)"/>
      <use xlink:href="#CMR17-65" transform="translate(774.177948 0) scale(0.996264)"/>
      <use xlink:href="#CMR17-6d" transform="translate(814.663609 0) scale(0.996264)"/>
      <use xlink:href="#CMR17-65" transform="translate(891.583199 0) scale(0.996264)"/>
      <use xlink:href="#CMR17-6e" transform="translate(932.068859 0) scale(0.996264)"/>
      <use xlink:href="#CMR17-74" transform="translate(980.361775 0) scale(0.996264)"/>
      <use xlink:href="#CMR17-73" transform="translate(1015.642543 0) scale(0.996264)"/>
     </g>
    </g>
    <g id="PathCollection_8">
     <path d="M 708.290402 115.809134 
L 716.539981 115.809134 
L 712.415191 124.647969 
L 708.290402 115.809134 
z
M 708.290402 115.809134 
L 712.415191 119.844947 
M 716.539981 115.809134 
L 712.415191 119.844947 
M 712.415191 124.647969 
L 712.415191 119.844947 
" style="fill: none; stroke: #000000; stroke-width: 0.8"/>
    </g>
    <g id="text_20">
     <!-- $\omega t = 135\:\unit{\degree}$ - - Measurements -->
     <g transform="translate(748.415191 122.826901) scale(0.2 -0.2)">
      <use xlink:href="#CMMI12-21" transform="scale(0.996264)"/>
      <use xlink:href="#CMMI12-74" transform="translate(64.318346 0) scale(0.996264)"/>
      <use xlink:href="#CMR17-3d" transform="translate(127.218685 0) scale(0.996264)"/>
      <use xlink:href="#CMR17-31" transform="translate(226.607482 0) scale(0.996264)"/>
      <use xlink:href="#CMR17-33" transform="translate(272.297959 0) scale(0.996264)"/>
      <use xlink:href="#CMR17-35" transform="translate(317.988436 0) scale(0.996264)"/>
      <use xlink:href="#CMSY10-e" transform="translate(385.81812 36.153639) scale(0.697382)"/>
      <use xlink:href="#CMR17-7b" transform="translate(451.261429 0) scale(0.996264)"/>
      <use xlink:href="#CMR17-4d" transform="translate(527.027872 0) scale(0.996264)"/>
      <use xlink:href="#CMR17-65" transform="translate(611.714813 0) scale(0.996264)"/>
      <use xlink:href="#CMR17-61" transform="translate(652.200473 0) scale(0.996264)"/>
      <use xlink:href="#CMR17-73" transform="translate(697.89095 0) scale(0.996264)"/>
      <use xlink:href="#CMR17-75" transform="translate(733.692288 0) scale(0.996264)"/>
      <use xlink:href="#CMR17-72" transform="translate(784.587658 0) scale(0.996264)"/>
      <use xlink:href="#CMR17-65" transform="translate(819.868426 0) scale(0.996264)"/>
      <use xlink:href="#CMR17-6d" transform="translate(860.354086 0) scale(0.996264)"/>
      <use xlink:href="#CMR17-65" transform="translate(937.273676 0) scale(0.996264)"/>
      <use xlink:href="#CMR17-6e" transform="translate(977.759336 0) scale(0.996264)"/>
      <use xlink:href="#CMR17-74" transform="translate(1026.052252 0) scale(0.996264)"/>
      <use xlink:href="#CMR17-73" transform="translate(1061.33302 0) scale(0.996264)"/>
     </g>
    </g>
   </g>
  </g>
 </g>
 <defs>
  <clipPath id="p533eedb309">
   <rect x="93.440322" y="7.2" width="892.8" height="478.08"/>
  </clipPath>
 </defs>
</svg>
