<?xml version="1.0" encoding="utf-8" standalone="no"?>
<!DOCTYPE svg PUBLIC "-//W3C//DTD SVG 1.1//EN"
  "http://www.w3.org/Graphics/SVG/1.1/DTD/svg11.dtd">
<svg xmlns:xlink="http://www.w3.org/1999/xlink" width="1256.39664pt" height="648.460041pt" viewBox="0 0 1256.39664 648.460041" xmlns="http://www.w3.org/2000/svg" version="1.1">
 <metadata>
  <rdf:RDF xmlns:dc="http://purl.org/dc/elements/1.1/" xmlns:cc="http://creativecommons.org/ns#" xmlns:rdf="http://www.w3.org/1999/02/22-rdf-syntax-ns#">
   <cc:Work>
    <dc:type rdf:resource="http://purl.org/dc/dcmitype/StillImage"/>
    <dc:date>2024-10-27T18:17:43.164438</dc:date>
    <dc:format>image/svg+xml</dc:format>
    <dc:creator>
     <cc:Agent>
      <dc:title>Matplotlib v3.8.4, https://matplotlib.org/</dc:title>
     </cc:Agent>
    </dc:creator>
   </cc:Work>
  </rdf:RDF>
 </metadata>
 <defs>
  <style type="text/css">*{stroke-linejoin: round; stroke-linecap: butt}</style>
 </defs>
 <g id="figure_1">
  <g id="patch_1">
   <path d="M 0 648.460041 
L 1256.39664 648.460041 
L 1256.39664 0 
L 0 0 
z
" style="fill: #ffffff"/>
  </g>
  <g id="axes_1">
   <g id="patch_2">
    <path d="M 69.744696 531.158695 
L 263.831652 531.158695 
L 263.831652 53.078695 
L 69.744696 53.078695 
z
" style="fill: #ffffff"/>
   </g>
   <g id="matplotlib.axis_1">
    <g id="xtick_1">
     <g id="line2d_1">
      <path d="M 81.6522 531.158695 
L 81.6522 53.078695 
" clip-path="url(#p71c0e892b1)" style="fill: none; stroke: #b0b0b0; stroke-width: 0.8; stroke-linecap: square"/>
     </g>
     <g id="line2d_2">
      <defs>
       <path id="m97fd29a15b" d="M 0 0 
L 0 3.5 
" style="stroke: #000000; stroke-width: 0.8"/>
      </defs>
      <g>
       <use xlink:href="#m97fd29a15b" x="81.6522" y="531.158695" style="stroke: #000000; stroke-width: 0.8"/>
      </g>
     </g>
     <g id="text_1">
      <!-- $\mathdefault{0.0}$ -->
      <g transform="translate(69.804387 553.495692) scale(0.2 -0.2)">
       <defs>
        <path id="CMR17-30" d="M 2688 2025 
C 2688 2416 2682 3080 2413 3591 
C 2176 4039 1798 4198 1466 4198 
C 1158 4198 768 4058 525 3597 
C 269 3118 243 2524 243 2025 
C 243 1661 250 1106 448 619 
C 723 -39 1216 -128 1466 -128 
C 1760 -128 2208 -7 2470 600 
C 2662 1042 2688 1559 2688 2025 
z
M 1466 -26 
C 1056 -26 813 325 723 812 
C 653 1188 653 1738 653 2096 
C 653 2588 653 2997 736 3387 
C 858 3929 1216 4096 1466 4096 
C 1728 4096 2067 3923 2189 3400 
C 2272 3036 2278 2607 2278 2096 
C 2278 1680 2278 1169 2202 792 
C 2067 95 1690 -26 1466 -26 
z
" transform="scale(0.015625)"/>
        <path id="CMMI12-3a" d="M 1178 307 
C 1178 492 1024 619 870 619 
C 685 619 557 466 557 313 
C 557 128 710 0 864 0 
C 1050 0 1178 153 1178 307 
z
" transform="scale(0.015625)"/>
       </defs>
       <use xlink:href="#CMR17-30" transform="scale(0.996264)"/>
       <use xlink:href="#CMMI12-3a" transform="translate(45.690477 0) scale(0.996264)"/>
       <use xlink:href="#CMR17-30" transform="translate(72.787654 0) scale(0.996264)"/>
      </g>
     </g>
    </g>
    <g id="xtick_2">
     <g id="line2d_3">
      <path d="M 162.660293 531.158695 
L 162.660293 53.078695 
" clip-path="url(#p71c0e892b1)" style="fill: none; stroke: #b0b0b0; stroke-width: 0.8; stroke-linecap: square"/>
     </g>
     <g id="line2d_4">
      <g>
       <use xlink:href="#m97fd29a15b" x="162.660293" y="531.158695" style="stroke: #000000; stroke-width: 0.8"/>
      </g>
     </g>
     <g id="text_2">
      <!-- $\mathdefault{0.5}$ -->
      <g transform="translate(150.812479 553.495692) scale(0.2 -0.2)">
       <defs>
        <path id="CMR17-35" d="M 730 3692 
C 794 3666 1056 3584 1325 3584 
C 1920 3584 2246 3911 2432 4100 
C 2432 4157 2432 4192 2394 4192 
C 2387 4192 2374 4192 2323 4163 
C 2099 4058 1837 3973 1517 3973 
C 1325 3973 1037 3999 723 4139 
C 653 4171 640 4171 634 4171 
C 602 4171 595 4164 595 4037 
L 595 2203 
C 595 2089 595 2057 659 2057 
C 691 2057 704 2070 736 2114 
C 941 2401 1222 2522 1542 2522 
C 1766 2522 2246 2382 2246 1289 
C 2246 1085 2246 715 2054 421 
C 1894 159 1645 25 1370 25 
C 947 25 518 320 403 814 
C 429 807 480 795 506 795 
C 589 795 749 840 749 1038 
C 749 1210 627 1280 506 1280 
C 358 1280 262 1190 262 1011 
C 262 454 704 -128 1382 -128 
C 2042 -128 2669 440 2669 1264 
C 2669 2030 2170 2624 1549 2624 
C 1222 2624 947 2503 730 2274 
L 730 3692 
z
" transform="scale(0.015625)"/>
       </defs>
       <use xlink:href="#CMR17-30" transform="scale(0.996264)"/>
       <use xlink:href="#CMMI12-3a" transform="translate(45.690477 0) scale(0.996264)"/>
       <use xlink:href="#CMR17-35" transform="translate(72.787654 0) scale(0.996264)"/>
      </g>
     </g>
    </g>
    <g id="xtick_3">
     <g id="line2d_5">
      <path d="M 243.668385 531.158695 
L 243.668385 53.078695 
" clip-path="url(#p71c0e892b1)" style="fill: none; stroke: #b0b0b0; stroke-width: 0.8; stroke-linecap: square"/>
     </g>
     <g id="line2d_6">
      <g>
       <use xlink:href="#m97fd29a15b" x="243.668385" y="531.158695" style="stroke: #000000; stroke-width: 0.8"/>
      </g>
     </g>
     <g id="text_3">
      <!-- $\mathdefault{1.0}$ -->
      <g transform="translate(231.820572 553.495692) scale(0.2 -0.2)">
       <defs>
        <path id="CMR17-31" d="M 1702 4058 
C 1702 4192 1696 4192 1606 4192 
C 1357 3916 979 3827 621 3827 
C 602 3827 570 3827 563 3808 
C 557 3795 557 3782 557 3648 
C 755 3648 1088 3686 1344 3839 
L 1344 461 
C 1344 236 1331 160 781 160 
L 589 160 
L 589 0 
C 896 0 1216 0 1523 0 
C 1830 0 2150 0 2458 0 
L 2458 160 
L 2266 160 
C 1715 160 1702 230 1702 458 
L 1702 4058 
z
" transform="scale(0.015625)"/>
       </defs>
       <use xlink:href="#CMR17-31" transform="scale(0.996264)"/>
       <use xlink:href="#CMMI12-3a" transform="translate(45.690477 0) scale(0.996264)"/>
       <use xlink:href="#CMR17-30" transform="translate(72.787654 0) scale(0.996264)"/>
      </g>
     </g>
    </g>
   </g>
   <g id="matplotlib.axis_2">
    <g id="ytick_1">
     <g id="line2d_7">
      <path d="M 69.744696 531.158695 
L 263.831652 531.158695 
" clip-path="url(#p71c0e892b1)" style="fill: none; stroke: #b0b0b0; stroke-width: 0.8; stroke-linecap: square"/>
     </g>
     <g id="line2d_8">
      <defs>
       <path id="m52054f6c32" d="M 0 0 
L -3.5 0 
" style="stroke: #000000; stroke-width: 0.8"/>
      </defs>
      <g>
       <use xlink:href="#m52054f6c32" x="69.744696" y="531.158695" style="stroke: #000000; stroke-width: 0.8"/>
      </g>
     </g>
     <g id="text_4">
      <!-- $\mathdefault{0}$ -->
      <g transform="translate(52.1066 538.077194) scale(0.2 -0.2)">
       <use xlink:href="#CMR17-30" transform="scale(0.996264)"/>
      </g>
     </g>
    </g>
    <g id="ytick_2">
     <g id="line2d_9">
      <path d="M 69.744696 435.542695 
L 263.831652 435.542695 
" clip-path="url(#p71c0e892b1)" style="fill: none; stroke: #b0b0b0; stroke-width: 0.8; stroke-linecap: square"/>
     </g>
     <g id="line2d_10">
      <g>
       <use xlink:href="#m52054f6c32" x="69.744696" y="435.542695" style="stroke: #000000; stroke-width: 0.8"/>
      </g>
     </g>
     <g id="text_5">
      <!-- $\mathdefault{1}$ -->
      <g transform="translate(52.1066 442.461194) scale(0.2 -0.2)">
       <use xlink:href="#CMR17-31" transform="scale(0.996264)"/>
      </g>
     </g>
    </g>
    <g id="ytick_3">
     <g id="line2d_11">
      <path d="M 69.744696 339.926695 
L 263.831652 339.926695 
" clip-path="url(#p71c0e892b1)" style="fill: none; stroke: #b0b0b0; stroke-width: 0.8; stroke-linecap: square"/>
     </g>
     <g id="line2d_12">
      <g>
       <use xlink:href="#m52054f6c32" x="69.744696" y="339.926695" style="stroke: #000000; stroke-width: 0.8"/>
      </g>
     </g>
     <g id="text_6">
      <!-- $\mathdefault{2}$ -->
      <g transform="translate(52.1066 346.845194) scale(0.2 -0.2)">
       <defs>
        <path id="CMR17-32" d="M 2669 989 
L 2554 989 
C 2490 536 2438 459 2413 420 
C 2381 369 1920 369 1830 369 
L 602 369 
C 832 619 1280 1072 1824 1597 
C 2214 1967 2669 2402 2669 3035 
C 2669 3790 2067 4224 1395 4224 
C 691 4224 262 3604 262 3030 
C 262 2780 448 2748 525 2748 
C 589 2748 781 2787 781 3010 
C 781 3207 614 3264 525 3264 
C 486 3264 448 3258 422 3245 
C 544 3790 915 4058 1306 4058 
C 1862 4058 2227 3617 2227 3035 
C 2227 2479 1901 2000 1536 1584 
L 262 146 
L 262 0 
L 2515 0 
L 2669 989 
z
" transform="scale(0.015625)"/>
       </defs>
       <use xlink:href="#CMR17-32" transform="scale(0.996264)"/>
      </g>
     </g>
    </g>
    <g id="ytick_4">
     <g id="line2d_13">
      <path d="M 69.744696 244.310695 
L 263.831652 244.310695 
" clip-path="url(#p71c0e892b1)" style="fill: none; stroke: #b0b0b0; stroke-width: 0.8; stroke-linecap: square"/>
     </g>
     <g id="line2d_14">
      <g>
       <use xlink:href="#m52054f6c32" x="69.744696" y="244.310695" style="stroke: #000000; stroke-width: 0.8"/>
      </g>
     </g>
     <g id="text_7">
      <!-- $\mathdefault{3}$ -->
      <g transform="translate(52.1066 251.229194) scale(0.2 -0.2)">
       <defs>
        <path id="CMR17-33" d="M 1414 2157 
C 1984 2157 2234 1662 2234 1090 
C 2234 320 1824 25 1453 25 
C 1114 25 563 194 390 693 
C 422 680 454 680 486 680 
C 640 680 755 782 755 948 
C 755 1133 614 1216 486 1216 
C 378 1216 211 1165 211 926 
C 211 335 787 -128 1466 -128 
C 2176 -128 2720 430 2720 1085 
C 2720 1707 2208 2157 1600 2227 
C 2086 2328 2554 2756 2554 3329 
C 2554 3820 2048 4179 1472 4179 
C 890 4179 378 3829 378 3329 
C 378 3110 544 3072 627 3072 
C 762 3072 877 3155 877 3321 
C 877 3486 762 3569 627 3569 
C 602 3569 570 3569 544 3557 
C 730 3959 1235 4032 1459 4032 
C 1683 4032 2106 3925 2106 3320 
C 2106 3143 2080 2828 1862 2550 
C 1670 2304 1453 2304 1242 2284 
C 1210 2284 1062 2269 1037 2269 
C 992 2263 966 2257 966 2208 
C 966 2163 973 2157 1101 2157 
L 1414 2157 
z
" transform="scale(0.015625)"/>
       </defs>
       <use xlink:href="#CMR17-33" transform="scale(0.996264)"/>
      </g>
     </g>
    </g>
    <g id="ytick_5">
     <g id="line2d_15">
      <path d="M 69.744696 148.694695 
L 263.831652 148.694695 
" clip-path="url(#p71c0e892b1)" style="fill: none; stroke: #b0b0b0; stroke-width: 0.8; stroke-linecap: square"/>
     </g>
     <g id="line2d_16">
      <g>
       <use xlink:href="#m52054f6c32" x="69.744696" y="148.694695" style="stroke: #000000; stroke-width: 0.8"/>
      </g>
     </g>
     <g id="text_8">
      <!-- $\mathdefault{4}$ -->
      <g transform="translate(52.1066 155.613194) scale(0.2 -0.2)">
       <defs>
        <path id="CMR17-34" d="M 2150 4122 
C 2150 4256 2144 4256 2029 4256 
L 128 1254 
L 128 1088 
L 1779 1088 
L 1779 457 
C 1779 224 1766 160 1318 160 
L 1197 160 
L 1197 0 
C 1402 0 1747 0 1965 0 
C 2182 0 2528 0 2733 0 
L 2733 160 
L 2611 160 
C 2163 160 2150 224 2150 457 
L 2150 1088 
L 2803 1088 
L 2803 1254 
L 2150 1254 
L 2150 4122 
z
M 1798 3703 
L 1798 1254 
L 256 1254 
L 1798 3703 
z
" transform="scale(0.015625)"/>
       </defs>
       <use xlink:href="#CMR17-34" transform="scale(0.996264)"/>
      </g>
     </g>
    </g>
    <g id="ytick_6">
     <g id="line2d_17">
      <path d="M 69.744696 53.078695 
L 263.831652 53.078695 
" clip-path="url(#p71c0e892b1)" style="fill: none; stroke: #b0b0b0; stroke-width: 0.8; stroke-linecap: square"/>
     </g>
     <g id="line2d_18">
      <g>
       <use xlink:href="#m52054f6c32" x="69.744696" y="53.078695" style="stroke: #000000; stroke-width: 0.8"/>
      </g>
     </g>
     <g id="text_9">
      <!-- $\mathdefault{5}$ -->
      <g transform="translate(52.1066 59.997194) scale(0.2 -0.2)">
       <use xlink:href="#CMR17-35" transform="scale(0.996264)"/>
      </g>
     </g>
    </g>
    <g id="text_10">
     <!-- $y/a$ -->
     <g transform="translate(25.87995 311.008878) rotate(-90) scale(0.25 -0.25)">
      <defs>
       <path id="CMMI12-79" d="M 1683 -700 
C 1510 -939 1261 -1152 947 -1152 
C 870 -1152 563 -1152 467 -889 
C 486 -895 518 -895 531 -895 
C 723 -895 851 -729 851 -582 
C 851 -435 730 -384 634 -384 
C 531 -384 307 -458 307 -759 
C 307 -1071 582 -1286 947 -1286 
C 1587 -1286 2234 -700 2413 6 
L 3040 2485 
C 3046 2517 3059 2556 3059 2594 
C 3059 2689 2982 2753 2886 2753 
C 2829 2753 2694 2727 2643 2535 
L 2170 658 
C 2138 543 2138 530 2086 460 
C 1958 281 1747 64 1440 64 
C 1082 64 1050 415 1050 588 
C 1050 952 1222 1443 1395 1903 
C 1466 2088 1504 2178 1504 2305 
C 1504 2574 1312 2816 998 2816 
C 410 2816 173 1890 173 1839 
C 173 1814 198 1782 243 1782 
C 301 1782 307 1807 333 1897 
C 486 2433 730 2689 979 2689 
C 1037 2689 1146 2689 1146 2478 
C 1146 2312 1075 2127 979 1884 
C 666 1047 666 837 666 683 
C 666 77 1101 -64 1421 -64 
C 1606 -64 1837 -6 2061 230 
L 2067 224 
C 1971 -147 1907 -392 1683 -700 
z
" transform="scale(0.015625)"/>
       <path id="CMMI12-3d" d="M 2746 4562 
C 2746 4569 2784 4666 2784 4678 
C 2784 4755 2720 4800 2669 4800 
C 2637 4800 2579 4800 2528 4659 
L 384 -1363 
C 384 -1370 346 -1465 346 -1478 
C 346 -1555 410 -1600 461 -1600 
C 499 -1600 557 -1593 602 -1459 
L 2746 4562 
z
" transform="scale(0.015625)"/>
       <path id="CMMI12-61" d="M 1926 760 
C 1894 651 1894 639 1805 517 
C 1664 338 1382 64 1082 64 
C 819 64 672 300 672 677 
C 672 1028 870 1743 992 2012 
C 1210 2459 1510 2689 1760 2689 
C 2182 2689 2266 2165 2266 2114 
C 2266 2108 2246 2024 2240 2012 
L 1926 760 
z
M 2336 2395 
C 2266 2561 2093 2816 1760 2816 
C 1037 2816 256 1884 256 939 
C 256 307 627 -64 1062 -64 
C 1414 -64 1715 211 1894 422 
C 1958 45 2259 -64 2451 -64 
C 2643 -64 2797 51 2912 281 
C 3014 498 3104 888 3104 913 
C 3104 945 3078 971 3040 971 
C 2982 971 2976 939 2950 843 
C 2854 466 2733 64 2470 64 
C 2285 64 2272 230 2272 358 
C 2272 505 2291 575 2349 824 
C 2394 984 2426 1124 2477 1309 
C 2714 2267 2771 2497 2771 2535 
C 2771 2625 2701 2695 2605 2695 
C 2400 2695 2349 2472 2336 2395 
z
" transform="scale(0.015625)"/>
      </defs>
      <use xlink:href="#CMMI12-79" transform="scale(0.996264)"/>
      <use xlink:href="#CMMI12-3d" transform="translate(51.138781 0) scale(0.996264)"/>
      <use xlink:href="#CMMI12-61" transform="translate(99.913699 0) scale(0.996264)"/>
     </g>
    </g>
    <g id="text_11">
     <!-- $\times\mathdefault{10^{−2}}\mathdefault{}$ -->
     <g transform="translate(69.744696 50.078695) scale(0.2 -0.2)">
      <defs>
       <path id="CMSY10-2" d="M 2490 1785 
L 1210 3059 
C 1133 3136 1120 3148 1069 3148 
C 1005 3148 941 3091 941 3020 
C 941 2976 954 2963 1024 2892 
L 2304 1606 
L 1024 320 
C 954 249 941 236 941 192 
C 941 121 1005 64 1069 64 
C 1120 64 1133 76 1210 153 
L 2483 1427 
L 3808 102 
C 3821 96 3866 64 3904 64 
C 3981 64 4032 121 4032 192 
C 4032 204 4032 230 4013 262 
C 4006 275 2989 1280 2669 1606 
L 3840 2777 
C 3872 2816 3968 2899 4000 2937 
C 4006 2950 4032 2976 4032 3020 
C 4032 3091 3981 3148 3904 3148 
C 3853 3148 3827 3123 3757 3052 
L 2490 1785 
z
" transform="scale(0.015625)"/>
       <path id="CMSY10-0" d="M 4218 1472 
C 4326 1472 4442 1472 4442 1600 
C 4442 1728 4326 1728 4218 1728 
L 755 1728 
C 646 1728 531 1728 531 1600 
C 531 1472 646 1472 755 1472 
L 4218 1472 
z
" transform="scale(0.015625)"/>
      </defs>
      <use xlink:href="#CMSY10-2" transform="scale(0.996264)"/>
      <use xlink:href="#CMR17-31" transform="translate(77.487468 0) scale(0.996264)"/>
      <use xlink:href="#CMR17-30" transform="translate(123.177945 0) scale(0.996264)"/>
      <use xlink:href="#CMSY10-0" transform="translate(168.868422 36.153639) scale(0.697382)"/>
      <use xlink:href="#CMR17-32" transform="translate(223.109415 36.153639) scale(0.697382)"/>
     </g>
    </g>
   </g>
   <g id="line2d_19">
    <path d="M 81.6522 531.158695 
L 92.173153 530.501475 
L 99.25757 529.857263 
L 102.021759 529.377406 
L 103.160688 528.950792 
L 103.813181 528.456933 
L 104.163004 527.88523 
L 104.3411 527.223413 
L 104.404226 525.880546 
L 104.245218 523.770807 
L 103.633668 519.187556 
L 97.324746 476.346593 
L 94.924958 457.390572 
L 92.565172 436.754179 
L 90.446951 416.210025 
L 88.739994 397.945403 
L 86.95719 376.80182 
L 85.142446 352.32548 
L 83.946201 333.90024 
L 82.791785 313.586414 
L 81.712679 291.19042 
L 80.747629 266.498837 
L 79.936973 239.276366 
L 79.314584 209.263592 
L 78.894884 176.174509 
L 78.660711 139.693795 
L 78.56683 80.725947 
L 78.56683 80.725947 
" clip-path="url(#p71c0e892b1)" style="fill: none; stroke: #000000; stroke-width: 1.2; stroke-linecap: square"/>
   </g>
   <g id="PathCollection_1">
    <defs>
     <path id="mf7154995fb" d="M -6.123724 0 
L 6.123724 0 
M 0 6.123724 
L 0 -6.123724 
" style="stroke: #000000; stroke-width: 1.2"/>
    </defs>
    <g clip-path="url(#p71c0e892b1)">
     <use xlink:href="#mf7154995fb" x="98.339867" y="530.164637" style="stroke: #000000; stroke-width: 1.2"/>
     <use xlink:href="#mf7154995fb" x="95.018535" y="529.512286" style="stroke: #000000; stroke-width: 1.2"/>
     <use xlink:href="#mf7154995fb" x="98.987932" y="529.419093" style="stroke: #000000; stroke-width: 1.2"/>
     <use xlink:href="#mf7154995fb" x="100.932126" y="529.201643" style="stroke: #000000; stroke-width: 1.2"/>
     <use xlink:href="#mf7154995fb" x="100.932126" y="528.797806" style="stroke: #000000; stroke-width: 1.2"/>
     <use xlink:href="#mf7154995fb" x="101.256159" y="528.238648" style="stroke: #000000; stroke-width: 1.2"/>
     <use xlink:href="#mf7154995fb" x="102.633296" y="528.207584" style="stroke: #000000; stroke-width: 1.2"/>
     <use xlink:href="#mf7154995fb" x="102.228256" y="527.24459" style="stroke: #000000; stroke-width: 1.2"/>
     <use xlink:href="#mf7154995fb" x="101.985231" y="527.058204" style="stroke: #000000; stroke-width: 1.2"/>
     <use xlink:href="#mf7154995fb" x="104.739507" y="525.877759" style="stroke: #000000; stroke-width: 1.2"/>
     <use xlink:href="#mf7154995fb" x="104.091442" y="524.635186" style="stroke: #000000; stroke-width: 1.2"/>
     <use xlink:href="#mf7154995fb" x="103.686401" y="523.392613" style="stroke: #000000; stroke-width: 1.2"/>
     <use xlink:href="#mf7154995fb" x="104.57749" y="521.839397" style="stroke: #000000; stroke-width: 1.2"/>
     <use xlink:href="#mf7154995fb" x="101.904223" y="519.975537" style="stroke: #000000; stroke-width: 1.2"/>
     <use xlink:href="#mf7154995fb" x="103.119345" y="517.801034" style="stroke: #000000; stroke-width: 1.2"/>
     <use xlink:href="#mf7154995fb" x="102.552288" y="514.694602" style="stroke: #000000; stroke-width: 1.2"/>
     <use xlink:href="#mf7154995fb" x="103.119345" y="511.898812" style="stroke: #000000; stroke-width: 1.2"/>
     <use xlink:href="#mf7154995fb" x="103.119345" y="508.792379" style="stroke: #000000; stroke-width: 1.2"/>
     <use xlink:href="#mf7154995fb" x="99.635997" y="505.99659" style="stroke: #000000; stroke-width: 1.2"/>
     <use xlink:href="#mf7154995fb" x="100.041037" y="500.094368" style="stroke: #000000; stroke-width: 1.2"/>
     <use xlink:href="#mf7154995fb" x="100.608094" y="488.289923" style="stroke: #000000; stroke-width: 1.2"/>
     <use xlink:href="#mf7154995fb" x="98.339867" y="470.8939" style="stroke: #000000; stroke-width: 1.2"/>
     <use xlink:href="#mf7154995fb" x="92.831317" y="462.195888" style="stroke: #000000; stroke-width: 1.2"/>
     <use xlink:href="#mf7154995fb" x="93.803414" y="418.70583" style="stroke: #000000; stroke-width: 1.2"/>
     <use xlink:href="#mf7154995fb" x="90.401074" y="387.641502" style="stroke: #000000; stroke-width: 1.2"/>
     <use xlink:href="#mf7154995fb" x="89.753009" y="356.577175" style="stroke: #000000; stroke-width: 1.2"/>
     <use xlink:href="#mf7154995fb" x="80.680103" y="325.512847" style="stroke: #000000; stroke-width: 1.2"/>
     <use xlink:href="#mf7154995fb" x="85.864621" y="294.44852" style="stroke: #000000; stroke-width: 1.2"/>
     <use xlink:href="#mf7154995fb" x="83.920427" y="263.384192" style="stroke: #000000; stroke-width: 1.2"/>
     <use xlink:href="#mf7154995fb" x="84.6495" y="232.319865" style="stroke: #000000; stroke-width: 1.2"/>
     <use xlink:href="#mf7154995fb" x="82.300265" y="201.255537" style="stroke: #000000; stroke-width: 1.2"/>
     <use xlink:href="#mf7154995fb" x="83.596394" y="170.19121" style="stroke: #000000; stroke-width: 1.2"/>
     <use xlink:href="#mf7154995fb" x="82.786313" y="139.126882" style="stroke: #000000; stroke-width: 1.2"/>
     <use xlink:href="#mf7154995fb" x="86.431678" y="108.062555" style="stroke: #000000; stroke-width: 1.2"/>
     <use xlink:href="#mf7154995fb" x="81.6522" y="76.998227" style="stroke: #000000; stroke-width: 1.2"/>
    </g>
   </g>
   <g id="patch_3">
    <path d="M 69.744696 531.158695 
L 69.744696 53.078695 
" style="fill: none; stroke: #000000; stroke-width: 0.8; stroke-linejoin: miter; stroke-linecap: square"/>
   </g>
   <g id="patch_4">
    <path d="M 263.831652 531.158695 
L 263.831652 53.078695 
" style="fill: none; stroke: #000000; stroke-width: 0.8; stroke-linejoin: miter; stroke-linecap: square"/>
   </g>
   <g id="patch_5">
    <path d="M 69.744696 531.158695 
L 263.831652 531.158695 
" style="fill: none; stroke: #000000; stroke-width: 0.8; stroke-linejoin: miter; stroke-linecap: square"/>
   </g>
   <g id="patch_6">
    <path d="M 69.744696 53.078695 
L 263.831652 53.078695 
" style="fill: none; stroke: #000000; stroke-width: 0.8; stroke-linejoin: miter; stroke-linecap: square"/>
   </g>
   <g id="text_12">
    <!-- $\omega t = 0\:\unit{\degree}$ -->
    <g transform="translate(117.3923 27.955495) scale(0.3 -0.3)">
     <defs>
      <path id="CMMI12-21" d="M 3802 2395 
C 3802 2580 3750 2816 3526 2816 
C 3398 2816 3251 2657 3251 2529 
C 3251 2472 3277 2434 3328 2376 
C 3424 2268 3546 2096 3546 1797 
C 3546 1567 3405 1204 3302 1007 
C 3123 656 2829 357 2496 357 
C 2093 357 1939 615 1869 975 
C 1939 1143 2086 1560 2086 1728 
C 2086 1798 2061 1856 1978 1856 
C 1933 1856 1882 1831 1850 1779 
C 1760 1638 1677 1129 1683 994 
C 1562 756 1216 357 806 357 
C 378 357 262 733 262 1096 
C 262 1758 678 2338 794 2497 
C 858 2593 902 2657 902 2669 
C 902 2714 877 2784 819 2784 
C 717 2784 685 2701 634 2625 
C 307 2121 77 1414 77 803 
C 77 408 224 -64 704 -64 
C 1235 -64 1568 391 1702 634 
C 1754 275 1946 -64 2413 -64 
C 2899 -64 3206 363 3437 879 
C 3603 1249 3802 2045 3802 2395 
z
" transform="scale(0.015625)"/>
      <path id="CMMI12-74" d="M 1286 2566 
L 1875 2566 
C 1997 2566 2061 2566 2061 2681 
C 2061 2752 2022 2752 1894 2752 
L 1331 2752 
L 1568 3692 
C 1594 3781 1594 3794 1594 3840 
C 1594 3943 1510 4000 1427 4000 
C 1376 4000 1229 3981 1178 3775 
L 928 2752 
L 326 2752 
C 198 2752 141 2752 141 2630 
C 141 2566 186 2566 307 2566 
L 877 2566 
L 454 881 
C 403 658 384 594 384 511 
C 384 211 595 -64 954 -64 
C 1600 -64 1946 868 1946 912 
C 1946 951 1920 970 1882 970 
C 1869 970 1843 970 1830 944 
C 1824 938 1818 931 1773 829 
C 1638 511 1344 64 973 64 
C 781 64 768 224 768 364 
C 768 370 768 492 787 568 
L 1286 2566 
z
" transform="scale(0.015625)"/>
      <path id="CMR17-3d" d="M 4115 2017 
C 4211 2017 4307 2017 4307 2125 
C 4307 2240 4198 2240 4090 2240 
L 512 2240 
C 403 2240 294 2240 294 2125 
C 294 2017 390 2017 486 2017 
L 4115 2017 
z
M 4090 896 
C 4198 896 4307 896 4307 1011 
C 4307 1119 4211 1119 4115 1119 
L 486 1119 
C 390 1119 294 1119 294 1011 
C 294 896 403 896 512 896 
L 4090 896 
z
" transform="scale(0.015625)"/>
      <path id="CMSY10-e" d="M 2842 1600 
C 2842 2277 2272 2828 1600 2828 
C 909 2828 352 2264 352 1600 
C 352 930 909 372 1600 372 
C 2272 372 2842 923 2842 1600 
z
M 1600 628 
C 1043 628 608 1070 608 1600 
C 608 2130 1050 2572 1600 2572 
C 2131 2572 2586 2142 2586 1600 
C 2586 1058 2131 628 1600 628 
z
" transform="scale(0.015625)"/>
     </defs>
     <use xlink:href="#CMMI12-21" transform="scale(0.996264)"/>
     <use xlink:href="#CMMI12-74" transform="translate(64.318346 0) scale(0.996264)"/>
     <use xlink:href="#CMR17-3d" transform="translate(127.218685 0) scale(0.996264)"/>
     <use xlink:href="#CMR17-30" transform="translate(226.607482 0) scale(0.996264)"/>
     <use xlink:href="#CMSY10-e" transform="translate(294.437166 36.153639) scale(0.697382)"/>
    </g>
   </g>
  </g>
  <g id="axes_2">
   <g id="patch_7">
    <path d="M 302.649043 531.158695 
L 496.736 531.158695 
L 496.736 53.078695 
L 302.649043 53.078695 
z
" style="fill: #ffffff"/>
   </g>
   <g id="matplotlib.axis_3">
    <g id="xtick_4">
     <g id="line2d_20">
      <path d="M 314.556548 531.158695 
L 314.556548 53.078695 
" clip-path="url(#p5393060c27)" style="fill: none; stroke: #b0b0b0; stroke-width: 0.8; stroke-linecap: square"/>
     </g>
     <g id="line2d_21">
      <g>
       <use xlink:href="#m97fd29a15b" x="314.556548" y="531.158695" style="stroke: #000000; stroke-width: 0.8"/>
      </g>
     </g>
     <g id="text_13">
      <!-- $\mathdefault{0.0}$ -->
      <g transform="translate(302.708735 553.495692) scale(0.2 -0.2)">
       <use xlink:href="#CMR17-30" transform="scale(0.996264)"/>
       <use xlink:href="#CMMI12-3a" transform="translate(45.690477 0) scale(0.996264)"/>
       <use xlink:href="#CMR17-30" transform="translate(72.787654 0) scale(0.996264)"/>
      </g>
     </g>
    </g>
    <g id="xtick_5">
     <g id="line2d_22">
      <path d="M 395.56464 531.158695 
L 395.56464 53.078695 
" clip-path="url(#p5393060c27)" style="fill: none; stroke: #b0b0b0; stroke-width: 0.8; stroke-linecap: square"/>
     </g>
     <g id="line2d_23">
      <g>
       <use xlink:href="#m97fd29a15b" x="395.56464" y="531.158695" style="stroke: #000000; stroke-width: 0.8"/>
      </g>
     </g>
     <g id="text_14">
      <!-- $\mathdefault{0.5}$ -->
      <g transform="translate(383.716827 553.495692) scale(0.2 -0.2)">
       <use xlink:href="#CMR17-30" transform="scale(0.996264)"/>
       <use xlink:href="#CMMI12-3a" transform="translate(45.690477 0) scale(0.996264)"/>
       <use xlink:href="#CMR17-35" transform="translate(72.787654 0) scale(0.996264)"/>
      </g>
     </g>
    </g>
    <g id="xtick_6">
     <g id="line2d_24">
      <path d="M 476.572733 531.158695 
L 476.572733 53.078695 
" clip-path="url(#p5393060c27)" style="fill: none; stroke: #b0b0b0; stroke-width: 0.8; stroke-linecap: square"/>
     </g>
     <g id="line2d_25">
      <g>
       <use xlink:href="#m97fd29a15b" x="476.572733" y="531.158695" style="stroke: #000000; stroke-width: 0.8"/>
      </g>
     </g>
     <g id="text_15">
      <!-- $\mathdefault{1.0}$ -->
      <g transform="translate(464.72492 553.495692) scale(0.2 -0.2)">
       <use xlink:href="#CMR17-31" transform="scale(0.996264)"/>
       <use xlink:href="#CMMI12-3a" transform="translate(45.690477 0) scale(0.996264)"/>
       <use xlink:href="#CMR17-30" transform="translate(72.787654 0) scale(0.996264)"/>
      </g>
     </g>
    </g>
   </g>
   <g id="matplotlib.axis_4">
    <g id="ytick_7">
     <g id="line2d_26">
      <path d="M 302.649043 531.158695 
L 496.736 531.158695 
" clip-path="url(#p5393060c27)" style="fill: none; stroke: #b0b0b0; stroke-width: 0.8; stroke-linecap: square"/>
     </g>
     <g id="line2d_27">
      <g>
       <use xlink:href="#m52054f6c32" x="302.649043" y="531.158695" style="stroke: #000000; stroke-width: 0.8"/>
      </g>
     </g>
    </g>
    <g id="ytick_8">
     <g id="line2d_28">
      <path d="M 302.649043 435.542695 
L 496.736 435.542695 
" clip-path="url(#p5393060c27)" style="fill: none; stroke: #b0b0b0; stroke-width: 0.8; stroke-linecap: square"/>
     </g>
     <g id="line2d_29">
      <g>
       <use xlink:href="#m52054f6c32" x="302.649043" y="435.542695" style="stroke: #000000; stroke-width: 0.8"/>
      </g>
     </g>
    </g>
    <g id="ytick_9">
     <g id="line2d_30">
      <path d="M 302.649043 339.926695 
L 496.736 339.926695 
" clip-path="url(#p5393060c27)" style="fill: none; stroke: #b0b0b0; stroke-width: 0.8; stroke-linecap: square"/>
     </g>
     <g id="line2d_31">
      <g>
       <use xlink:href="#m52054f6c32" x="302.649043" y="339.926695" style="stroke: #000000; stroke-width: 0.8"/>
      </g>
     </g>
    </g>
    <g id="ytick_10">
     <g id="line2d_32">
      <path d="M 302.649043 244.310695 
L 496.736 244.310695 
" clip-path="url(#p5393060c27)" style="fill: none; stroke: #b0b0b0; stroke-width: 0.8; stroke-linecap: square"/>
     </g>
     <g id="line2d_33">
      <g>
       <use xlink:href="#m52054f6c32" x="302.649043" y="244.310695" style="stroke: #000000; stroke-width: 0.8"/>
      </g>
     </g>
    </g>
    <g id="ytick_11">
     <g id="line2d_34">
      <path d="M 302.649043 148.694695 
L 496.736 148.694695 
" clip-path="url(#p5393060c27)" style="fill: none; stroke: #b0b0b0; stroke-width: 0.8; stroke-linecap: square"/>
     </g>
     <g id="line2d_35">
      <g>
       <use xlink:href="#m52054f6c32" x="302.649043" y="148.694695" style="stroke: #000000; stroke-width: 0.8"/>
      </g>
     </g>
    </g>
    <g id="ytick_12">
     <g id="line2d_36">
      <path d="M 302.649043 53.078695 
L 496.736 53.078695 
" clip-path="url(#p5393060c27)" style="fill: none; stroke: #b0b0b0; stroke-width: 0.8; stroke-linecap: square"/>
     </g>
     <g id="line2d_37">
      <g>
       <use xlink:href="#m52054f6c32" x="302.649043" y="53.078695" style="stroke: #000000; stroke-width: 0.8"/>
      </g>
     </g>
    </g>
   </g>
   <g id="line2d_38">
    <path d="M 314.556548 531.158695 
L 371.542942 530.576829 
L 380.499079 530.252043 
L 388.057413 529.74593 
L 394.210501 529.099988 
L 398.581072 528.456933 
L 402.623797 527.675296 
L 406.434542 526.725211 
L 410.078677 525.570377 
L 412.736694 524.543681 
L 416.187509 522.918713 
L 418.71466 521.474048 
L 421.214072 519.801668 
L 423.651413 517.865679 
L 426.049888 515.624529 
L 428.354429 513.030119 
L 429.840088 511.077104 
L 431.265391 508.923906 
L 432.613676 506.550006 
L 433.864709 503.93278 
L 434.995489 501.047288 
L 435.982565 497.866034 
L 436.806367 494.358701 
L 437.456525 490.491867 
L 437.936015 486.228682 
L 438.259543 481.528521 
L 438.447821 476.346593 
L 438.529188 467.560997 
L 438.296924 453.655905 
L 437.540344 431.987692 
L 436.594778 410.416331 
L 435.005486 376.80182 
L 432.984187 333.90024 
L 430.74549 279.145745 
L 429.842756 253.219583 
L 428.984093 224.635989 
L 428.210331 193.122576 
L 427.842694 176.174509 
L 427.290661 139.693795 
L 426.975225 99.473808 
L 426.975225 80.725947 
L 426.975225 80.725947 
" clip-path="url(#p5393060c27)" style="fill: none; stroke: #000000; stroke-width: 1.2; stroke-linecap: square"/>
   </g>
   <g id="PathCollection_2">
    <g clip-path="url(#p5393060c27)">
     <use xlink:href="#mf7154995fb" x="369.156002" y="530.164637" style="stroke: #000000; stroke-width: 1.2"/>
     <use xlink:href="#mf7154995fb" x="387.301815" y="529.512286" style="stroke: #000000; stroke-width: 1.2"/>
     <use xlink:href="#mf7154995fb" x="382.360321" y="529.419093" style="stroke: #000000; stroke-width: 1.2"/>
     <use xlink:href="#mf7154995fb" x="394.754559" y="529.201643" style="stroke: #000000; stroke-width: 1.2"/>
     <use xlink:href="#mf7154995fb" x="397.103794" y="528.797806" style="stroke: #000000; stroke-width: 1.2"/>
     <use xlink:href="#mf7154995fb" x="400.992183" y="528.238648" style="stroke: #000000; stroke-width: 1.2"/>
     <use xlink:href="#mf7154995fb" x="398.885972" y="528.207584" style="stroke: #000000; stroke-width: 1.2"/>
     <use xlink:href="#mf7154995fb" x="404.637547" y="527.24459" style="stroke: #000000; stroke-width: 1.2"/>
     <use xlink:href="#mf7154995fb" x="404.151498" y="527.058204" style="stroke: #000000; stroke-width: 1.2"/>
     <use xlink:href="#mf7154995fb" x="407.715854" y="525.877759" style="stroke: #000000; stroke-width: 1.2"/>
     <use xlink:href="#mf7154995fb" x="412.333315" y="524.635186" style="stroke: #000000; stroke-width: 1.2"/>
     <use xlink:href="#mf7154995fb" x="414.925574" y="523.392613" style="stroke: #000000; stroke-width: 1.2"/>
     <use xlink:href="#mf7154995fb" x="416.950777" y="521.839397" style="stroke: #000000; stroke-width: 1.2"/>
     <use xlink:href="#mf7154995fb" x="421.649246" y="519.975537" style="stroke: #000000; stroke-width: 1.2"/>
     <use xlink:href="#mf7154995fb" x="425.132594" y="517.801034" style="stroke: #000000; stroke-width: 1.2"/>
     <use xlink:href="#mf7154995fb" x="428.69695" y="514.694602" style="stroke: #000000; stroke-width: 1.2"/>
     <use xlink:href="#mf7154995fb" x="432.180298" y="511.898812" style="stroke: #000000; stroke-width: 1.2"/>
     <use xlink:href="#mf7154995fb" x="434.286508" y="508.792379" style="stroke: #000000; stroke-width: 1.2"/>
     <use xlink:href="#mf7154995fb" x="437.850865" y="505.99659" style="stroke: #000000; stroke-width: 1.2"/>
     <use xlink:href="#mf7154995fb" x="440.038083" y="500.094368" style="stroke: #000000; stroke-width: 1.2"/>
     <use xlink:href="#mf7154995fb" x="444.736552" y="488.289923" style="stroke: #000000; stroke-width: 1.2"/>
     <use xlink:href="#mf7154995fb" x="446.51873" y="470.8939" style="stroke: #000000; stroke-width: 1.2"/>
     <use xlink:href="#mf7154995fb" x="446.923771" y="462.195888" style="stroke: #000000; stroke-width: 1.2"/>
     <use xlink:href="#mf7154995fb" x="444.979577" y="418.70583" style="stroke: #000000; stroke-width: 1.2"/>
     <use xlink:href="#mf7154995fb" x="445.384617" y="387.641502" style="stroke: #000000; stroke-width: 1.2"/>
     <use xlink:href="#mf7154995fb" x="443.764455" y="356.577175" style="stroke: #000000; stroke-width: 1.2"/>
     <use xlink:href="#mf7154995fb" x="442.387318" y="325.512847" style="stroke: #000000; stroke-width: 1.2"/>
     <use xlink:href="#mf7154995fb" x="436.716751" y="294.44852" style="stroke: #000000; stroke-width: 1.2"/>
     <use xlink:href="#mf7154995fb" x="438.255905" y="263.384192" style="stroke: #000000; stroke-width: 1.2"/>
     <use xlink:href="#mf7154995fb" x="440.119091" y="232.319865" style="stroke: #000000; stroke-width: 1.2"/>
     <use xlink:href="#mf7154995fb" x="438.822962" y="201.255537" style="stroke: #000000; stroke-width: 1.2"/>
     <use xlink:href="#mf7154995fb" x="436.797759" y="170.19121" style="stroke: #000000; stroke-width: 1.2"/>
     <use xlink:href="#mf7154995fb" x="436.635743" y="139.126882" style="stroke: #000000; stroke-width: 1.2"/>
     <use xlink:href="#mf7154995fb" x="437.850865" y="108.062555" style="stroke: #000000; stroke-width: 1.2"/>
     <use xlink:href="#mf7154995fb" x="441.172196" y="76.998227" style="stroke: #000000; stroke-width: 1.2"/>
    </g>
   </g>
   <g id="patch_8">
    <path d="M 302.649043 531.158695 
L 302.649043 53.078695 
" style="fill: none; stroke: #000000; stroke-width: 0.8; stroke-linejoin: miter; stroke-linecap: square"/>
   </g>
   <g id="patch_9">
    <path d="M 496.736 531.158695 
L 496.736 53.078695 
" style="fill: none; stroke: #000000; stroke-width: 0.8; stroke-linejoin: miter; stroke-linecap: square"/>
   </g>
   <g id="patch_10">
    <path d="M 302.649043 531.158695 
L 496.736 531.158695 
" style="fill: none; stroke: #000000; stroke-width: 0.8; stroke-linejoin: miter; stroke-linecap: square"/>
   </g>
   <g id="patch_11">
    <path d="M 302.649043 53.078695 
L 496.736 53.078695 
" style="fill: none; stroke: #000000; stroke-width: 0.8; stroke-linejoin: miter; stroke-linecap: square"/>
   </g>
   <g id="text_16">
    <!-- $45\:\unit{\degree}$ -->
    <g transform="translate(377.43414 27.955495) scale(0.3 -0.3)">
     <use xlink:href="#CMR17-34" transform="scale(0.996264)"/>
     <use xlink:href="#CMR17-35" transform="translate(45.690477 0) scale(0.996264)"/>
     <use xlink:href="#CMSY10-e" transform="translate(113.520161 36.153639) scale(0.697382)"/>
    </g>
   </g>
  </g>
  <g id="axes_3">
   <g id="patch_12">
    <path d="M 535.553391 531.158695 
L 729.640348 531.158695 
L 729.640348 53.078695 
L 535.553391 53.078695 
z
" style="fill: #ffffff"/>
   </g>
   <g id="matplotlib.axis_5">
    <g id="xtick_7">
     <g id="line2d_39">
      <path d="M 547.460896 531.158695 
L 547.460896 53.078695 
" clip-path="url(#pede67e857a)" style="fill: none; stroke: #b0b0b0; stroke-width: 0.8; stroke-linecap: square"/>
     </g>
     <g id="line2d_40">
      <g>
       <use xlink:href="#m97fd29a15b" x="547.460896" y="531.158695" style="stroke: #000000; stroke-width: 0.8"/>
      </g>
     </g>
     <g id="text_17">
      <!-- $\mathdefault{0.0}$ -->
      <g transform="translate(535.613083 553.495692) scale(0.2 -0.2)">
       <use xlink:href="#CMR17-30" transform="scale(0.996264)"/>
       <use xlink:href="#CMMI12-3a" transform="translate(45.690477 0) scale(0.996264)"/>
       <use xlink:href="#CMR17-30" transform="translate(72.787654 0) scale(0.996264)"/>
      </g>
     </g>
    </g>
    <g id="xtick_8">
     <g id="line2d_41">
      <path d="M 628.468988 531.158695 
L 628.468988 53.078695 
" clip-path="url(#pede67e857a)" style="fill: none; stroke: #b0b0b0; stroke-width: 0.8; stroke-linecap: square"/>
     </g>
     <g id="line2d_42">
      <g>
       <use xlink:href="#m97fd29a15b" x="628.468988" y="531.158695" style="stroke: #000000; stroke-width: 0.8"/>
      </g>
     </g>
     <g id="text_18">
      <!-- $\mathdefault{0.5}$ -->
      <g transform="translate(616.621175 553.495692) scale(0.2 -0.2)">
       <use xlink:href="#CMR17-30" transform="scale(0.996264)"/>
       <use xlink:href="#CMMI12-3a" transform="translate(45.690477 0) scale(0.996264)"/>
       <use xlink:href="#CMR17-35" transform="translate(72.787654 0) scale(0.996264)"/>
      </g>
     </g>
    </g>
    <g id="xtick_9">
     <g id="line2d_43">
      <path d="M 709.477081 531.158695 
L 709.477081 53.078695 
" clip-path="url(#pede67e857a)" style="fill: none; stroke: #b0b0b0; stroke-width: 0.8; stroke-linecap: square"/>
     </g>
     <g id="line2d_44">
      <g>
       <use xlink:href="#m97fd29a15b" x="709.477081" y="531.158695" style="stroke: #000000; stroke-width: 0.8"/>
      </g>
     </g>
     <g id="text_19">
      <!-- $\mathdefault{1.0}$ -->
      <g transform="translate(697.629267 553.495692) scale(0.2 -0.2)">
       <use xlink:href="#CMR17-31" transform="scale(0.996264)"/>
       <use xlink:href="#CMMI12-3a" transform="translate(45.690477 0) scale(0.996264)"/>
       <use xlink:href="#CMR17-30" transform="translate(72.787654 0) scale(0.996264)"/>
      </g>
     </g>
    </g>
   </g>
   <g id="matplotlib.axis_6">
    <g id="ytick_13">
     <g id="line2d_45">
      <path d="M 535.553391 531.158695 
L 729.640348 531.158695 
" clip-path="url(#pede67e857a)" style="fill: none; stroke: #b0b0b0; stroke-width: 0.8; stroke-linecap: square"/>
     </g>
     <g id="line2d_46">
      <g>
       <use xlink:href="#m52054f6c32" x="535.553391" y="531.158695" style="stroke: #000000; stroke-width: 0.8"/>
      </g>
     </g>
    </g>
    <g id="ytick_14">
     <g id="line2d_47">
      <path d="M 535.553391 435.542695 
L 729.640348 435.542695 
" clip-path="url(#pede67e857a)" style="fill: none; stroke: #b0b0b0; stroke-width: 0.8; stroke-linecap: square"/>
     </g>
     <g id="line2d_48">
      <g>
       <use xlink:href="#m52054f6c32" x="535.553391" y="435.542695" style="stroke: #000000; stroke-width: 0.8"/>
      </g>
     </g>
    </g>
    <g id="ytick_15">
     <g id="line2d_49">
      <path d="M 535.553391 339.926695 
L 729.640348 339.926695 
" clip-path="url(#pede67e857a)" style="fill: none; stroke: #b0b0b0; stroke-width: 0.8; stroke-linecap: square"/>
     </g>
     <g id="line2d_50">
      <g>
       <use xlink:href="#m52054f6c32" x="535.553391" y="339.926695" style="stroke: #000000; stroke-width: 0.8"/>
      </g>
     </g>
    </g>
    <g id="ytick_16">
     <g id="line2d_51">
      <path d="M 535.553391 244.310695 
L 729.640348 244.310695 
" clip-path="url(#pede67e857a)" style="fill: none; stroke: #b0b0b0; stroke-width: 0.8; stroke-linecap: square"/>
     </g>
     <g id="line2d_52">
      <g>
       <use xlink:href="#m52054f6c32" x="535.553391" y="244.310695" style="stroke: #000000; stroke-width: 0.8"/>
      </g>
     </g>
    </g>
    <g id="ytick_17">
     <g id="line2d_53">
      <path d="M 535.553391 148.694695 
L 729.640348 148.694695 
" clip-path="url(#pede67e857a)" style="fill: none; stroke: #b0b0b0; stroke-width: 0.8; stroke-linecap: square"/>
     </g>
     <g id="line2d_54">
      <g>
       <use xlink:href="#m52054f6c32" x="535.553391" y="148.694695" style="stroke: #000000; stroke-width: 0.8"/>
      </g>
     </g>
    </g>
    <g id="ytick_18">
     <g id="line2d_55">
      <path d="M 535.553391 53.078695 
L 729.640348 53.078695 
" clip-path="url(#pede67e857a)" style="fill: none; stroke: #b0b0b0; stroke-width: 0.8; stroke-linecap: square"/>
     </g>
     <g id="line2d_56">
      <g>
       <use xlink:href="#m52054f6c32" x="535.553391" y="53.078695" style="stroke: #000000; stroke-width: 0.8"/>
      </g>
     </g>
    </g>
   </g>
   <g id="line2d_57">
    <path d="M 547.460896 531.158695 
L 614.473653 530.648595 
L 625.610371 530.339275 
L 634.637983 529.857263 
L 641.825688 529.24208 
L 648.003066 528.456933 
L 652.49357 527.675296 
L 656.711004 526.725211 
L 660.736194 525.570377 
L 663.669614 524.543681 
L 666.535312 523.355151 
L 669.370233 521.97928 
L 672.164523 520.386537 
L 674.951432 518.542738 
L 677.716066 516.40831 
L 680.489856 513.937442 
L 683.253131 511.077104 
L 685.102907 508.923906 
L 686.956175 506.550006 
L 688.813127 503.93278 
L 690.673317 501.047288 
L 692.535501 497.866034 
L 694.397407 494.358701 
L 696.255457 490.491867 
L 698.104354 486.228682 
L 699.936565 481.528521 
L 701.741688 476.346593 
L 703.505671 470.633517 
L 705.209929 464.334851 
L 706.830452 457.390572 
L 708.337193 449.734505 
L 709.694347 441.29369 
L 710.321395 436.754179 
L 711.382364 426.982881 
L 712.20364 416.210025 
L 712.772125 404.332951 
L 713.099339 391.238477 
L 713.214445 376.80182 
L 713.041907 352.32548 
L 712.762996 333.90024 
L 712.158744 302.661539 
L 710.734687 239.276366 
L 709.566956 176.174509 
L 708.968179 120.074289 
L 708.823429 99.473808 
L 708.823429 80.725947 
L 708.823429 80.725947 
" clip-path="url(#pede67e857a)" style="fill: none; stroke: #000000; stroke-width: 1.2; stroke-linecap: square"/>
   </g>
   <g id="PathCollection_3">
    <g clip-path="url(#pede67e857a)">
     <use xlink:href="#mf7154995fb" x="620.611203" y="530.164637" style="stroke: #000000; stroke-width: 1.2"/>
     <use xlink:href="#mf7154995fb" x="630.818223" y="529.512286" style="stroke: #000000; stroke-width: 1.2"/>
     <use xlink:href="#mf7154995fb" x="625.714713" y="529.419093" style="stroke: #000000; stroke-width: 1.2"/>
     <use xlink:href="#mf7154995fb" x="639.00004" y="529.201643" style="stroke: #000000; stroke-width: 1.2"/>
     <use xlink:href="#mf7154995fb" x="641.349275" y="528.797806" style="stroke: #000000; stroke-width: 1.2"/>
     <use xlink:href="#mf7154995fb" x="645.723712" y="528.238648" style="stroke: #000000; stroke-width: 1.2"/>
     <use xlink:href="#mf7154995fb" x="642.078348" y="528.207584" style="stroke: #000000; stroke-width: 1.2"/>
     <use xlink:href="#mf7154995fb" x="649.531092" y="527.24459" style="stroke: #000000; stroke-width: 1.2"/>
     <use xlink:href="#mf7154995fb" x="651.151254" y="527.058204" style="stroke: #000000; stroke-width: 1.2"/>
     <use xlink:href="#mf7154995fb" x="654.877626" y="525.877759" style="stroke: #000000; stroke-width: 1.2"/>
     <use xlink:href="#mf7154995fb" x="658.766015" y="524.635186" style="stroke: #000000; stroke-width: 1.2"/>
     <use xlink:href="#mf7154995fb" x="661.844322" y="523.392613" style="stroke: #000000; stroke-width: 1.2"/>
     <use xlink:href="#mf7154995fb" x="663.545492" y="521.839397" style="stroke: #000000; stroke-width: 1.2"/>
     <use xlink:href="#mf7154995fb" x="667.352873" y="519.975537" style="stroke: #000000; stroke-width: 1.2"/>
     <use xlink:href="#mf7154995fb" x="672.213358" y="517.801034" style="stroke: #000000; stroke-width: 1.2"/>
     <use xlink:href="#mf7154995fb" x="676.911827" y="514.694602" style="stroke: #000000; stroke-width: 1.2"/>
     <use xlink:href="#mf7154995fb" x="679.34207" y="511.898812" style="stroke: #000000; stroke-width: 1.2"/>
     <use xlink:href="#mf7154995fb" x="682.33937" y="508.792379" style="stroke: #000000; stroke-width: 1.2"/>
     <use xlink:href="#mf7154995fb" x="684.607596" y="505.99659" style="stroke: #000000; stroke-width: 1.2"/>
     <use xlink:href="#mf7154995fb" x="689.54909" y="500.094368" style="stroke: #000000; stroke-width: 1.2"/>
     <use xlink:href="#mf7154995fb" x="696.434778" y="488.289923" style="stroke: #000000; stroke-width: 1.2"/>
     <use xlink:href="#mf7154995fb" x="706.398773" y="470.8939" style="stroke: #000000; stroke-width: 1.2"/>
     <use xlink:href="#mf7154995fb" x="709.639097" y="462.195888" style="stroke: #000000; stroke-width: 1.2"/>
     <use xlink:href="#mf7154995fb" x="719.6841" y="418.70583" style="stroke: #000000; stroke-width: 1.2"/>
     <use xlink:href="#mf7154995fb" x="719.6841" y="387.641502" style="stroke: #000000; stroke-width: 1.2"/>
     <use xlink:href="#mf7154995fb" x="720.818213" y="356.577175" style="stroke: #000000; stroke-width: 1.2"/>
     <use xlink:href="#mf7154995fb" x="718.063938" y="325.512847" style="stroke: #000000; stroke-width: 1.2"/>
     <use xlink:href="#mf7154995fb" x="716.119744" y="294.44852" style="stroke: #000000; stroke-width: 1.2"/>
     <use xlink:href="#mf7154995fb" x="715.633696" y="263.384192" style="stroke: #000000; stroke-width: 1.2"/>
     <use xlink:href="#mf7154995fb" x="715.309663" y="232.319865" style="stroke: #000000; stroke-width: 1.2"/>
     <use xlink:href="#mf7154995fb" x="712.47438" y="201.255537" style="stroke: #000000; stroke-width: 1.2"/>
     <use xlink:href="#mf7154995fb" x="710.77321" y="170.19121" style="stroke: #000000; stroke-width: 1.2"/>
     <use xlink:href="#mf7154995fb" x="711.097242" y="139.126882" style="stroke: #000000; stroke-width: 1.2"/>
     <use xlink:href="#mf7154995fb" x="712.150348" y="108.062555" style="stroke: #000000; stroke-width: 1.2"/>
     <use xlink:href="#mf7154995fb" x="716.200752" y="76.998227" style="stroke: #000000; stroke-width: 1.2"/>
    </g>
   </g>
   <g id="patch_13">
    <path d="M 535.553391 531.158695 
L 535.553391 53.078695 
" style="fill: none; stroke: #000000; stroke-width: 0.8; stroke-linejoin: miter; stroke-linecap: square"/>
   </g>
   <g id="patch_14">
    <path d="M 729.640348 531.158695 
L 729.640348 53.078695 
" style="fill: none; stroke: #000000; stroke-width: 0.8; stroke-linejoin: miter; stroke-linecap: square"/>
   </g>
   <g id="patch_15">
    <path d="M 535.553391 531.158695 
L 729.640348 531.158695 
" style="fill: none; stroke: #000000; stroke-width: 0.8; stroke-linejoin: miter; stroke-linecap: square"/>
   </g>
   <g id="patch_16">
    <path d="M 535.553391 53.078695 
L 729.640348 53.078695 
" style="fill: none; stroke: #000000; stroke-width: 0.8; stroke-linejoin: miter; stroke-linecap: square"/>
   </g>
   <g id="text_20">
    <!-- $90\:\unit{\degree}$ -->
    <g transform="translate(610.338488 27.955495) scale(0.3 -0.3)">
     <defs>
      <path id="CMR17-39" d="M 2253 1864 
C 2253 464 1670 31 1190 31 
C 1043 31 685 31 538 294 
C 704 268 826 357 826 518 
C 826 692 685 749 595 749 
C 538 749 365 723 365 506 
C 365 71 742 -128 1203 -128 
C 1939 -128 2688 674 2688 2073 
C 2688 3817 1971 4179 1485 4179 
C 851 4179 243 3628 243 2778 
C 243 1991 762 1408 1414 1408 
C 1952 1408 2189 1903 2253 2112 
L 2253 1864 
z
M 1427 1510 
C 1254 1510 1011 1542 813 1922 
C 678 2169 678 2461 678 2771 
C 678 3146 678 3405 858 3684 
C 947 3817 1114 4032 1485 4032 
C 2240 4032 2240 2885 2240 2632 
C 2240 2182 2035 1510 1427 1510 
z
" transform="scale(0.015625)"/>
     </defs>
     <use xlink:href="#CMR17-39" transform="scale(0.996264)"/>
     <use xlink:href="#CMR17-30" transform="translate(45.690477 0) scale(0.996264)"/>
     <use xlink:href="#CMSY10-e" transform="translate(113.520161 36.153639) scale(0.697382)"/>
    </g>
   </g>
  </g>
  <g id="axes_4">
   <g id="patch_17">
    <path d="M 768.457739 531.158695 
L 962.544696 531.158695 
L 962.544696 53.078695 
L 768.457739 53.078695 
z
" style="fill: #ffffff"/>
   </g>
   <g id="matplotlib.axis_7">
    <g id="xtick_10">
     <g id="line2d_58">
      <path d="M 780.365244 531.158695 
L 780.365244 53.078695 
" clip-path="url(#p350439b944)" style="fill: none; stroke: #b0b0b0; stroke-width: 0.8; stroke-linecap: square"/>
     </g>
     <g id="line2d_59">
      <g>
       <use xlink:href="#m97fd29a15b" x="780.365244" y="531.158695" style="stroke: #000000; stroke-width: 0.8"/>
      </g>
     </g>
     <g id="text_21">
      <!-- $\mathdefault{0.0}$ -->
      <g transform="translate(768.517431 553.495692) scale(0.2 -0.2)">
       <use xlink:href="#CMR17-30" transform="scale(0.996264)"/>
       <use xlink:href="#CMMI12-3a" transform="translate(45.690477 0) scale(0.996264)"/>
       <use xlink:href="#CMR17-30" transform="translate(72.787654 0) scale(0.996264)"/>
      </g>
     </g>
    </g>
    <g id="xtick_11">
     <g id="line2d_60">
      <path d="M 861.373336 531.158695 
L 861.373336 53.078695 
" clip-path="url(#p350439b944)" style="fill: none; stroke: #b0b0b0; stroke-width: 0.8; stroke-linecap: square"/>
     </g>
     <g id="line2d_61">
      <g>
       <use xlink:href="#m97fd29a15b" x="861.373336" y="531.158695" style="stroke: #000000; stroke-width: 0.8"/>
      </g>
     </g>
     <g id="text_22">
      <!-- $\mathdefault{0.5}$ -->
      <g transform="translate(849.525523 553.495692) scale(0.2 -0.2)">
       <use xlink:href="#CMR17-30" transform="scale(0.996264)"/>
       <use xlink:href="#CMMI12-3a" transform="translate(45.690477 0) scale(0.996264)"/>
       <use xlink:href="#CMR17-35" transform="translate(72.787654 0) scale(0.996264)"/>
      </g>
     </g>
    </g>
    <g id="xtick_12">
     <g id="line2d_62">
      <path d="M 942.381428 531.158695 
L 942.381428 53.078695 
" clip-path="url(#p350439b944)" style="fill: none; stroke: #b0b0b0; stroke-width: 0.8; stroke-linecap: square"/>
     </g>
     <g id="line2d_63">
      <g>
       <use xlink:href="#m97fd29a15b" x="942.381428" y="531.158695" style="stroke: #000000; stroke-width: 0.8"/>
      </g>
     </g>
     <g id="text_23">
      <!-- $\mathdefault{1.0}$ -->
      <g transform="translate(930.533615 553.495692) scale(0.2 -0.2)">
       <use xlink:href="#CMR17-31" transform="scale(0.996264)"/>
       <use xlink:href="#CMMI12-3a" transform="translate(45.690477 0) scale(0.996264)"/>
       <use xlink:href="#CMR17-30" transform="translate(72.787654 0) scale(0.996264)"/>
      </g>
     </g>
    </g>
   </g>
   <g id="matplotlib.axis_8">
    <g id="ytick_19">
     <g id="line2d_64">
      <path d="M 768.457739 531.158695 
L 962.544696 531.158695 
" clip-path="url(#p350439b944)" style="fill: none; stroke: #b0b0b0; stroke-width: 0.8; stroke-linecap: square"/>
     </g>
     <g id="line2d_65">
      <g>
       <use xlink:href="#m52054f6c32" x="768.457739" y="531.158695" style="stroke: #000000; stroke-width: 0.8"/>
      </g>
     </g>
    </g>
    <g id="ytick_20">
     <g id="line2d_66">
      <path d="M 768.457739 435.542695 
L 962.544696 435.542695 
" clip-path="url(#p350439b944)" style="fill: none; stroke: #b0b0b0; stroke-width: 0.8; stroke-linecap: square"/>
     </g>
     <g id="line2d_67">
      <g>
       <use xlink:href="#m52054f6c32" x="768.457739" y="435.542695" style="stroke: #000000; stroke-width: 0.8"/>
      </g>
     </g>
    </g>
    <g id="ytick_21">
     <g id="line2d_68">
      <path d="M 768.457739 339.926695 
L 962.544696 339.926695 
" clip-path="url(#p350439b944)" style="fill: none; stroke: #b0b0b0; stroke-width: 0.8; stroke-linecap: square"/>
     </g>
     <g id="line2d_69">
      <g>
       <use xlink:href="#m52054f6c32" x="768.457739" y="339.926695" style="stroke: #000000; stroke-width: 0.8"/>
      </g>
     </g>
    </g>
    <g id="ytick_22">
     <g id="line2d_70">
      <path d="M 768.457739 244.310695 
L 962.544696 244.310695 
" clip-path="url(#p350439b944)" style="fill: none; stroke: #b0b0b0; stroke-width: 0.8; stroke-linecap: square"/>
     </g>
     <g id="line2d_71">
      <g>
       <use xlink:href="#m52054f6c32" x="768.457739" y="244.310695" style="stroke: #000000; stroke-width: 0.8"/>
      </g>
     </g>
    </g>
    <g id="ytick_23">
     <g id="line2d_72">
      <path d="M 768.457739 148.694695 
L 962.544696 148.694695 
" clip-path="url(#p350439b944)" style="fill: none; stroke: #b0b0b0; stroke-width: 0.8; stroke-linecap: square"/>
     </g>
     <g id="line2d_73">
      <g>
       <use xlink:href="#m52054f6c32" x="768.457739" y="148.694695" style="stroke: #000000; stroke-width: 0.8"/>
      </g>
     </g>
    </g>
    <g id="ytick_24">
     <g id="line2d_74">
      <path d="M 768.457739 53.078695 
L 962.544696 53.078695 
" clip-path="url(#p350439b944)" style="fill: none; stroke: #b0b0b0; stroke-width: 0.8; stroke-linecap: square"/>
     </g>
     <g id="line2d_75">
      <g>
       <use xlink:href="#m52054f6c32" x="768.457739" y="53.078695" style="stroke: #000000; stroke-width: 0.8"/>
      </g>
     </g>
    </g>
   </g>
   <g id="line2d_76">
    <path d="M 780.365244 531.158695 
L 819.621484 530.501475 
L 826.467189 530.160449 
L 832.089444 529.629031 
L 836.630355 528.950792 
L 839.824056 528.275584 
L 842.756898 527.454865 
L 845.506425 526.457276 
L 848.129479 525.2447 
L 850.669165 523.770807 
L 853.159323 521.97928 
L 855.007534 520.386537 
L 856.860957 518.542738 
L 858.713764 516.40831 
L 860.589633 513.937442 
L 862.480812 511.077104 
L 864.41083 507.765906 
L 866.370199 503.93278 
L 868.382672 499.495457 
L 870.436513 494.358701 
L 872.555394 488.412265 
L 874.723658 481.528521 
L 876.962976 473.559727 
L 879.249218 464.334851 
L 880.805493 457.390572 
L 882.37948 449.734505 
L 883.964371 441.29369 
L 885.550391 431.987692 
L 887.123952 421.727829 
L 888.666671 410.416331 
L 890.154333 397.945403 
L 891.55601 384.196206 
L 892.833861 369.037715 
L 893.944638 352.32548 
L 894.844695 333.90024 
L 895.500339 313.586414 
L 895.90159 291.19042 
L 896.069683 266.498837 
L 896.050826 239.276366 
L 895.818923 193.122576 
L 895.480356 139.693795 
L 895.3416 80.725947 
L 895.3416 80.725947 
" clip-path="url(#p350439b944)" style="fill: none; stroke: #000000; stroke-width: 1.2; stroke-linecap: square"/>
   </g>
   <g id="PathCollection_4">
    <g clip-path="url(#p350439b944)">
     <use xlink:href="#mf7154995fb" x="808.55606" y="530.164637" style="stroke: #000000; stroke-width: 1.2"/>
     <use xlink:href="#mf7154995fb" x="822.246427" y="529.512286" style="stroke: #000000; stroke-width: 1.2"/>
     <use xlink:href="#mf7154995fb" x="825.324735" y="529.419093" style="stroke: #000000; stroke-width: 1.2"/>
     <use xlink:href="#mf7154995fb" x="831.076309" y="529.201643" style="stroke: #000000; stroke-width: 1.2"/>
     <use xlink:href="#mf7154995fb" x="831.48135" y="528.797806" style="stroke: #000000; stroke-width: 1.2"/>
     <use xlink:href="#mf7154995fb" x="834.721674" y="528.238648" style="stroke: #000000; stroke-width: 1.2"/>
     <use xlink:href="#mf7154995fb" x="833.58756" y="528.207584" style="stroke: #000000; stroke-width: 1.2"/>
     <use xlink:href="#mf7154995fb" x="838.69107" y="527.24459" style="stroke: #000000; stroke-width: 1.2"/>
     <use xlink:href="#mf7154995fb" x="839.9872" y="527.058204" style="stroke: #000000; stroke-width: 1.2"/>
     <use xlink:href="#mf7154995fb" x="841.850386" y="525.877759" style="stroke: #000000; stroke-width: 1.2"/>
     <use xlink:href="#mf7154995fb" x="842.336434" y="524.635186" style="stroke: #000000; stroke-width: 1.2"/>
     <use xlink:href="#mf7154995fb" x="844.523653" y="523.392613" style="stroke: #000000; stroke-width: 1.2"/>
     <use xlink:href="#mf7154995fb" x="845.252726" y="521.839397" style="stroke: #000000; stroke-width: 1.2"/>
     <use xlink:href="#mf7154995fb" x="847.520952" y="519.975537" style="stroke: #000000; stroke-width: 1.2"/>
     <use xlink:href="#mf7154995fb" x="850.680268" y="517.801034" style="stroke: #000000; stroke-width: 1.2"/>
     <use xlink:href="#mf7154995fb" x="854.082608" y="514.694602" style="stroke: #000000; stroke-width: 1.2"/>
     <use xlink:href="#mf7154995fb" x="855.054705" y="511.898812" style="stroke: #000000; stroke-width: 1.2"/>
     <use xlink:href="#mf7154995fb" x="857.079907" y="508.792379" style="stroke: #000000; stroke-width: 1.2"/>
     <use xlink:href="#mf7154995fb" x="857.646964" y="505.99659" style="stroke: #000000; stroke-width: 1.2"/>
     <use xlink:href="#mf7154995fb" x="862.183417" y="500.094368" style="stroke: #000000; stroke-width: 1.2"/>
     <use xlink:href="#mf7154995fb" x="865.099708" y="488.289923" style="stroke: #000000; stroke-width: 1.2"/>
     <use xlink:href="#mf7154995fb" x="871.904388" y="470.8939" style="stroke: #000000; stroke-width: 1.2"/>
     <use xlink:href="#mf7154995fb" x="873.281526" y="462.195888" style="stroke: #000000; stroke-width: 1.2"/>
     <use xlink:href="#mf7154995fb" x="883.164513" y="418.70583" style="stroke: #000000; stroke-width: 1.2"/>
     <use xlink:href="#mf7154995fb" x="883.083505" y="387.641502" style="stroke: #000000; stroke-width: 1.2"/>
     <use xlink:href="#mf7154995fb" x="890.374233" y="356.577175" style="stroke: #000000; stroke-width: 1.2"/>
     <use xlink:href="#mf7154995fb" x="891.508346" y="325.512847" style="stroke: #000000; stroke-width: 1.2"/>
     <use xlink:href="#mf7154995fb" x="897.016897" y="294.44852" style="stroke: #000000; stroke-width: 1.2"/>
     <use xlink:href="#mf7154995fb" x="894.019597" y="263.384192" style="stroke: #000000; stroke-width: 1.2"/>
     <use xlink:href="#mf7154995fb" x="892.480443" y="232.319865" style="stroke: #000000; stroke-width: 1.2"/>
     <use xlink:href="#mf7154995fb" x="893.128508" y="201.255537" style="stroke: #000000; stroke-width: 1.2"/>
     <use xlink:href="#mf7154995fb" x="893.857581" y="170.19121" style="stroke: #000000; stroke-width: 1.2"/>
     <use xlink:href="#mf7154995fb" x="893.452541" y="139.126882" style="stroke: #000000; stroke-width: 1.2"/>
     <use xlink:href="#mf7154995fb" x="893.452541" y="108.062555" style="stroke: #000000; stroke-width: 1.2"/>
     <use xlink:href="#mf7154995fb" x="891.508346" y="76.998227" style="stroke: #000000; stroke-width: 1.2"/>
    </g>
   </g>
   <g id="patch_18">
    <path d="M 768.457739 531.158695 
L 768.457739 53.078695 
" style="fill: none; stroke: #000000; stroke-width: 0.8; stroke-linejoin: miter; stroke-linecap: square"/>
   </g>
   <g id="patch_19">
    <path d="M 962.544696 531.158695 
L 962.544696 53.078695 
" style="fill: none; stroke: #000000; stroke-width: 0.8; stroke-linejoin: miter; stroke-linecap: square"/>
   </g>
   <g id="patch_20">
    <path d="M 768.457739 531.158695 
L 962.544696 531.158695 
" style="fill: none; stroke: #000000; stroke-width: 0.8; stroke-linejoin: miter; stroke-linecap: square"/>
   </g>
   <g id="patch_21">
    <path d="M 768.457739 53.078695 
L 962.544696 53.078695 
" style="fill: none; stroke: #000000; stroke-width: 0.8; stroke-linejoin: miter; stroke-linecap: square"/>
   </g>
   <g id="text_24">
    <!-- $135\:\unit{\degree}$ -->
    <g transform="translate(836.389264 27.955495) scale(0.3 -0.3)">
     <use xlink:href="#CMR17-31" transform="scale(0.996264)"/>
     <use xlink:href="#CMR17-33" transform="translate(45.690477 0) scale(0.996264)"/>
     <use xlink:href="#CMR17-35" transform="translate(91.380954 0) scale(0.996264)"/>
     <use xlink:href="#CMSY10-e" transform="translate(159.210638 36.153639) scale(0.697382)"/>
    </g>
   </g>
   <g id="legend_1">
    <g id="patch_22">
     <path d="M 986.249043 124.829962 
L 1245.19664 124.829962 
Q 1249.19664 124.829962 1249.19664 120.829962 
L 1249.19664 67.078695 
Q 1249.19664 63.078695 1245.19664 63.078695 
L 986.249043 63.078695 
Q 982.249043 63.078695 982.249043 67.078695 
L 982.249043 120.829962 
Q 982.249043 124.829962 986.249043 124.829962 
z
" style="fill: #ffffff; opacity: 0.8; stroke: #cccccc; stroke-linejoin: miter"/>
    </g>
    <g id="line2d_77">
     <path d="M 990.249043 78.078695 
L 1010.249043 78.078695 
L 1030.249043 78.078695 
" style="fill: none; stroke: #000000; stroke-width: 1.2; stroke-linecap: square"/>
    </g>
    <g id="text_25">
     <!-- Model -->
     <g transform="translate(1046.249043 85.078695) scale(0.2 -0.2)">
      <defs>
       <path id="CMR17-4d" d="M 1338 4224 
C 1299 4320 1293 4320 1158 4320 
L 339 4320 
L 339 4160 
C 781 4160 851 4160 851 3875 
L 851 610 
C 851 451 851 153 339 153 
L 339 -13 
C 486 0 755 0 915 0 
C 1075 0 1344 0 1491 -13 
L 1491 153 
C 979 153 979 451 979 610 
L 979 4135 
L 986 4135 
L 2490 89 
C 2515 25 2528 -13 2579 -13 
C 2630 -13 2643 25 2669 89 
L 4186 4166 
L 4192 4166 
L 4192 438 
C 4192 153 4122 153 3680 153 
L 3680 -13 
C 3853 0 4198 0 4384 0 
C 4570 0 4922 0 5094 -13 
L 5094 153 
C 4653 153 4582 153 4582 438 
L 4582 3875 
C 4582 4160 4653 4160 5094 4160 
L 5094 4320 
L 4282 4320 
C 4147 4320 4141 4314 4102 4218 
L 2720 502 
L 1338 4224 
z
" transform="scale(0.015625)"/>
       <path id="CMR17-6f" d="M 2758 1356 
C 2758 2176 2163 2816 1466 2816 
C 768 2816 173 2176 173 1356 
C 173 551 768 -64 1466 -64 
C 2163 -64 2758 551 2758 1356 
z
M 1466 51 
C 1165 51 909 230 762 480 
C 602 767 582 1126 582 1408 
C 582 1677 595 2010 762 2298 
C 890 2509 1139 2714 1466 2714 
C 1754 2714 1997 2554 2150 2330 
C 2349 2029 2349 1607 2349 1408 
C 2349 1158 2336 775 2163 467 
C 1984 173 1709 51 1466 51 
z
" transform="scale(0.015625)"/>
       <path id="CMR17-64" d="M 1869 4326 
L 1869 4160 
C 2246 4160 2304 4122 2304 3820 
L 2304 2345 
C 2278 2377 2016 2790 1498 2790 
C 845 2790 211 2208 211 1364 
C 211 525 806 -64 1434 -64 
C 1978 -64 2259 337 2291 380 
L 2291 -63 
L 3066 -63 
L 3066 128 
C 2688 128 2630 166 2630 473 
L 2630 4396 
L 1869 4326 
z
M 2291 755 
C 2291 563 2176 390 2029 262 
C 1811 70 1594 38 1472 38 
C 1286 38 621 134 621 1356 
C 621 2612 1363 2688 1530 2688 
C 1824 2688 2061 2522 2208 2291 
C 2291 2157 2291 2138 2291 2023 
L 2291 755 
z
" transform="scale(0.015625)"/>
       <path id="CMR17-65" d="M 2438 1472 
C 2464 1498 2464 1511 2464 1576 
C 2464 2238 2118 2816 1389 2816 
C 710 2816 173 2169 173 1383 
C 173 551 781 -64 1459 -64 
C 2176 -64 2458 607 2458 740 
C 2458 784 2419 784 2406 784 
C 2362 784 2355 771 2330 696 
C 2189 265 1837 51 1504 51 
C 1229 51 954 203 781 480 
C 582 803 582 1176 582 1472 
L 2438 1472 
z
M 589 1568 
C 634 2505 1126 2714 1382 2714 
C 1818 2714 2112 2297 2118 1568 
L 589 1568 
z
" transform="scale(0.015625)"/>
       <path id="CMR17-6c" d="M 979 4396 
L 218 4326 
L 218 4160 
C 595 4160 653 4122 653 3817 
L 653 426 
C 653 184 627 153 218 153 
L 218 -13 
C 371 0 653 0 813 0 
C 979 0 1261 0 1414 -13 
L 1414 153 
C 1005 153 979 178 979 426 
L 979 4396 
z
" transform="scale(0.015625)"/>
      </defs>
      <use xlink:href="#CMR17-4d" transform="scale(0.996264)"/>
      <use xlink:href="#CMR17-6f" transform="translate(84.686941 0) scale(0.996264)"/>
      <use xlink:href="#CMR17-64" transform="translate(132.979856 0) scale(0.996264)"/>
      <use xlink:href="#CMR17-65" transform="translate(183.875226 0) scale(0.996264)"/>
      <use xlink:href="#CMR17-6c" transform="translate(224.360887 0) scale(0.996264)"/>
     </g>
    </g>
    <g id="PathCollection_5">
     <g>
      <use xlink:href="#mf7154995fb" x="1010.249043" y="107.704329" style="stroke: #000000; stroke-width: 1.2"/>
     </g>
    </g>
    <g id="text_26">
     <!-- Data from Jensen et. al. -->
     <g transform="translate(1046.249043 112.954329) scale(0.2 -0.2)">
      <defs>
       <path id="CMR17-44" d="M 333 4352 
L 333 4186 
C 774 4186 845 4186 845 3900 
L 845 452 
C 845 166 774 166 333 166 
L 333 0 
L 2368 0 
C 3398 0 4224 943 4224 2141 
C 4224 3346 3411 4352 2368 4352 
L 333 4352 
z
M 1523 166 
C 1267 166 1254 197 1254 414 
L 1254 3938 
C 1254 4155 1267 4186 1523 4186 
L 2240 4186 
C 2771 4186 3750 3874 3750 2141 
C 3750 1242 3488 879 3366 707 
C 3213 510 2848 166 2240 166 
L 1523 166 
z
" transform="scale(0.015625)"/>
       <path id="CMR17-61" d="M 2304 1653 
C 2304 2072 2304 2294 2035 2543 
C 1798 2752 1523 2816 1306 2816 
C 800 2816 435 2407 435 1971 
C 435 1728 627 1728 666 1728 
C 749 1728 896 1778 896 1954 
C 896 2112 774 2181 666 2181 
C 640 2181 608 2174 589 2168 
C 723 2592 1069 2714 1293 2714 
C 1613 2714 1965 2429 1965 1885 
L 1965 1600 
C 1587 1600 1133 1549 774 1357 
C 371 1133 256 813 256 570 
C 256 77 832 -64 1171 -64 
C 1523 -64 1850 139 1990 511 
C 2003 233 2182 -18 2464 -18 
C 2598 -18 2938 70 2938 567 
L 2938 920 
L 2822 920 
L 2822 562 
C 2822 178 2650 128 2566 128 
C 2304 128 2304 458 2304 738 
L 2304 1653 
z
M 1965 870 
C 1965 317 1568 38 1216 38 
C 896 38 646 275 646 570 
C 646 761 730 1100 1101 1305 
C 1408 1478 1760 1504 1965 1504 
L 1965 870 
z
" transform="scale(0.015625)"/>
       <path id="CMR17-74" d="M 966 2560 
L 1862 2560 
L 1862 2725 
L 966 2725 
L 966 3904 
L 851 3904 
C 838 3245 614 2668 70 2668 
L 70 2560 
L 627 2560 
L 627 771 
C 627 650 627 -64 1370 -64 
C 1747 -64 1965 306 1965 777 
L 1965 1140 
L 1850 1140 
L 1850 783 
C 1850 344 1677 51 1408 51 
C 1222 51 966 178 966 758 
L 966 2560 
z
" transform="scale(0.015625)"/>
       <path id="CMR17-66" d="M 979 2560 
L 1709 2560 
L 1709 2725 
L 966 2725 
L 966 3494 
C 966 4022 1235 4352 1510 4352 
C 1594 4352 1690 4327 1754 4282 
C 1702 4269 1568 4225 1568 4067 
C 1568 3901 1696 3850 1786 3850 
C 1875 3850 2003 3901 2003 4067 
C 2003 4308 1773 4454 1517 4454 
C 1152 4454 653 4156 653 3481 
L 653 2725 
L 141 2725 
L 141 2560 
L 653 2560 
L 653 427 
C 653 184 627 153 218 153 
L 218 -13 
C 371 0 666 0 832 0 
C 1018 0 1344 0 1517 -13 
L 1517 153 
C 1056 153 979 153 979 439 
L 979 2560 
z
" transform="scale(0.015625)"/>
       <path id="CMR17-72" d="M 960 1497 
C 960 2112 1222 2688 1702 2688 
C 1747 2688 1792 2682 1837 2662 
C 1837 2662 1696 2617 1696 2452 
C 1696 2298 1818 2234 1914 2234 
C 1990 2234 2131 2279 2131 2458 
C 2131 2663 1926 2790 1709 2790 
C 1222 2790 1011 2317 947 2093 
L 941 2093 
L 941 2790 
L 198 2720 
L 198 2554 
C 576 2554 634 2515 634 2208 
L 634 428 
C 634 184 608 153 198 153 
L 198 -13 
C 352 0 646 0 813 0 
C 998 0 1325 0 1498 -13 
L 1498 153 
C 1037 153 960 153 960 440 
L 960 1497 
z
" transform="scale(0.015625)"/>
       <path id="CMR17-6d" d="M 4326 1933 
C 4326 2252 4269 2790 3507 2790 
C 3072 2790 2771 2496 2656 2151 
L 2650 2151 
C 2573 2676 2195 2790 1837 2790 
C 1331 2790 1069 2400 973 2144 
L 966 2144 
L 966 2790 
L 211 2720 
L 211 2554 
C 589 2554 646 2515 646 2208 
L 646 428 
C 646 184 621 153 211 153 
L 211 -13 
C 365 0 646 0 813 0 
C 979 0 1267 0 1421 -13 
L 1421 153 
C 1011 153 986 178 986 428 
L 986 1658 
C 986 2247 1344 2688 1792 2688 
C 2266 2688 2317 2266 2317 1958 
L 2317 428 
C 2317 184 2291 153 1882 153 
L 1882 -13 
C 2035 0 2317 0 2483 0 
C 2650 0 2938 0 3091 -13 
L 3091 153 
C 2682 153 2656 178 2656 428 
L 2656 1658 
C 2656 2247 3014 2688 3462 2688 
C 3936 2688 3987 2266 3987 1958 
L 3987 428 
C 3987 184 3962 153 3552 153 
L 3552 -13 
C 3706 0 3987 0 4154 0 
C 4320 0 4608 0 4762 -13 
L 4762 153 
C 4352 153 4326 178 4326 428 
L 4326 1933 
z
" transform="scale(0.015625)"/>
       <path id="CMR17-4a" d="M 1888 910 
C 1888 324 1568 -26 1242 -26 
C 1075 -26 691 49 525 431 
C 550 425 582 418 608 418 
C 730 418 883 501 883 692 
C 883 845 774 960 614 960 
C 461 960 339 865 339 682 
C 339 258 730 -128 1254 -128 
C 1754 -128 2214 229 2291 764 
C 2298 809 2298 821 2298 1038 
L 2298 3715 
C 2298 3823 2298 4001 2310 4039 
C 2336 4160 2483 4160 2682 4160 
L 2682 4320 
C 2669 4320 2214 4320 2054 4320 
C 1786 4320 1491 4320 1222 4320 
L 1222 4160 
L 1376 4160 
C 1875 4160 1888 4090 1888 3861 
L 1888 910 
z
" transform="scale(0.015625)"/>
       <path id="CMR17-6e" d="M 2656 1933 
C 2656 2259 2592 2790 1837 2790 
C 1331 2790 1069 2400 973 2144 
L 966 2144 
L 966 2790 
L 211 2720 
L 211 2554 
C 589 2554 646 2515 646 2208 
L 646 428 
C 646 184 621 153 211 153 
L 211 -13 
C 365 0 646 0 813 0 
C 979 0 1267 0 1421 -13 
L 1421 153 
C 1011 153 986 178 986 428 
L 986 1658 
C 986 2247 1344 2688 1792 2688 
C 2266 2688 2317 2266 2317 1958 
L 2317 428 
C 2317 184 2291 153 1882 153 
L 1882 -13 
C 2035 0 2317 0 2483 0 
C 2650 0 2938 0 3091 -13 
L 3091 153 
C 2682 153 2656 178 2656 428 
L 2656 1933 
z
" transform="scale(0.015625)"/>
       <path id="CMR17-73" d="M 1978 2697 
C 1978 2813 1971 2819 1933 2819 
C 1907 2819 1901 2813 1824 2717 
C 1805 2691 1747 2626 1728 2601 
C 1523 2819 1235 2819 1126 2819 
C 416 2819 160 2447 160 2076 
C 160 1498 813 1365 998 1325 
C 1402 1243 1542 1217 1677 1101 
C 1760 1025 1901 884 1901 654 
C 1901 384 1747 38 1158 38 
C 602 38 403 460 288 1021 
C 269 1110 269 1117 218 1117 
C 166 1117 160 1110 160 983 
L 160 63 
C 160 -51 166 -58 205 -58 
C 237 -58 243 -51 275 0 
C 314 57 410 211 448 276 
C 576 103 800 -64 1158 -64 
C 1792 -64 2131 283 2131 784 
C 2131 1112 1958 1285 1875 1362 
C 1683 1561 1459 1606 1190 1657 
C 838 1735 390 1825 390 2217 
C 390 2383 480 2737 1126 2737 
C 1811 2737 1850 2094 1862 1888 
C 1869 1856 1901 1849 1920 1849 
C 1978 1849 1978 1869 1978 1978 
L 1978 2697 
z
" transform="scale(0.015625)"/>
       <path id="CMR17-2e" d="M 1062 261 
C 1062 420 934 522 800 522 
C 672 522 538 420 538 261 
C 538 102 666 0 800 0 
C 928 0 1062 102 1062 261 
z
" transform="scale(0.015625)"/>
      </defs>
      <use xlink:href="#CMR17-44" transform="scale(0.996264)"/>
      <use xlink:href="#CMR17-61" transform="translate(70.393556 0) scale(0.996264)"/>
      <use xlink:href="#CMR17-74" transform="translate(116.084033 0) scale(0.996264)"/>
      <use xlink:href="#CMR17-61" transform="translate(151.364801 0) scale(0.996264)"/>
      <use xlink:href="#CMR17-66" transform="translate(227.131244 0) scale(0.996264)"/>
      <use xlink:href="#CMR17-72" transform="translate(254.604757 0) scale(0.996264)"/>
      <use xlink:href="#CMR17-6f" transform="translate(289.885524 0) scale(0.996264)"/>
      <use xlink:href="#CMR17-6d" transform="translate(335.576002 0) scale(0.996264)"/>
      <use xlink:href="#CMR17-4a" transform="translate(442.571558 0) scale(0.996264)"/>
      <use xlink:href="#CMR17-65" transform="translate(489.543348 0) scale(0.996264)"/>
      <use xlink:href="#CMR17-6e" transform="translate(530.029008 0) scale(0.996264)"/>
      <use xlink:href="#CMR17-73" transform="translate(580.924378 0) scale(0.996264)"/>
      <use xlink:href="#CMR17-65" transform="translate(616.725715 0) scale(0.996264)"/>
      <use xlink:href="#CMR17-6e" transform="translate(657.211376 0) scale(0.996264)"/>
      <use xlink:href="#CMR17-65" transform="translate(738.182712 0) scale(0.996264)"/>
      <use xlink:href="#CMR17-74" transform="translate(778.668373 0) scale(0.996264)"/>
      <use xlink:href="#CMR17-2e" transform="translate(813.94914 0) scale(0.996264)"/>
      <use xlink:href="#CMR17-61" transform="translate(879.305859 0) scale(0.996264)"/>
      <use xlink:href="#CMR17-6c" transform="translate(924.996336 0) scale(0.996264)"/>
      <use xlink:href="#CMR17-2e" transform="translate(949.867395 0) scale(0.996264)"/>
     </g>
    </g>
   </g>
  </g>
  <g id="text_27">
   <!-- $\frac{\overline{u}}{U_{0m}}$ -->
   <g transform="translate(480.517178 624.454075) scale(0.375 -0.375)">
    <defs>
     <path id="CMMI12-75" d="M 2182 370 
C 2266 13 2573 -64 2726 -64 
C 2931 -64 3085 70 3187 287 
C 3296 517 3379 894 3379 913 
C 3379 945 3354 971 3315 971 
C 3258 971 3251 939 3226 843 
C 3110 402 2995 64 2739 64 
C 2547 64 2547 275 2547 358 
C 2547 505 2566 568 2630 837 
C 2675 1009 2720 1181 2758 1360 
L 3021 2401 
C 3066 2561 3066 2574 3066 2593 
C 3066 2689 2989 2753 2893 2753 
C 2707 2753 2662 2593 2624 2433 
C 2560 2184 2214 811 2170 588 
C 2163 588 1914 64 1446 64 
C 1114 64 1050 351 1050 588 
C 1050 952 1229 1462 1395 1890 
C 1472 2095 1504 2178 1504 2305 
C 1504 2580 1306 2816 998 2816 
C 410 2816 173 1890 173 1839 
C 173 1814 198 1782 243 1782 
C 301 1782 307 1807 333 1896 
C 486 2441 736 2682 979 2682 
C 1043 2682 1146 2682 1146 2478 
C 1146 2312 1075 2127 979 1884 
C 698 1124 666 881 666 690 
C 666 38 1158 -64 1421 -64 
C 1830 -64 2054 217 2182 370 
z
" transform="scale(0.015625)"/>
     <path id="CMMI12-55" d="M 3238 1474 
C 3014 581 2272 57 1670 57 
C 1210 57 896 363 896 891 
C 896 916 896 1107 966 1387 
L 1594 3887 
C 1651 4103 1664 4167 2118 4167 
C 2234 4167 2298 4167 2298 4282 
C 2298 4352 2240 4352 2202 4352 
C 2086 4352 1952 4352 1830 4352 
L 1075 4352 
C 954 4352 819 4352 698 4352 
C 653 4352 576 4352 576 4231 
C 576 4167 621 4167 742 4167 
C 1126 4167 1126 4116 1126 4046 
C 1126 4008 1082 3824 1050 3715 
L 493 1488 
C 474 1418 435 1246 435 1075 
C 435 374 941 -128 1638 -128 
C 2285 -128 3002 384 3328 1197 
C 3373 1305 3430 1530 3469 1702 
C 3533 1933 3667 2496 3712 2662 
L 3955 3623 
C 4038 3956 4090 4167 4653 4167 
C 4704 4173 4730 4224 4730 4282 
C 4730 4352 4672 4352 4646 4352 
C 4557 4352 4442 4352 4352 4352 
L 4051 4352 
C 3654 4352 3450 4352 3443 4352 
C 3405 4352 3328 4352 3328 4231 
C 3328 4167 3379 4167 3424 4167 
C 3808 4167 3834 4020 3834 3905 
C 3834 3848 3834 3828 3808 3739 
L 3238 1474 
z
" transform="scale(0.015625)"/>
     <path id="CMMI12-6d" d="M 1318 1871 
C 1331 1910 1491 2229 1728 2433 
C 1894 2586 2112 2689 2362 2689 
C 2618 2689 2707 2497 2707 2242 
C 2707 2203 2707 2076 2630 1775 
L 2470 1118 
C 2419 926 2298 453 2285 383 
C 2259 287 2221 121 2221 96 
C 2221 6 2291 -64 2387 -64 
C 2579 -64 2611 83 2669 313 
L 3053 1839 
C 3066 1890 3398 2689 4102 2689 
C 4358 2689 4448 2497 4448 2242 
C 4448 1884 4198 1188 4058 805 
C 4000 651 3968 568 3968 453 
C 3968 166 4166 -64 4474 -64 
C 5069 -64 5293 875 5293 913 
C 5293 945 5267 971 5229 971 
C 5171 971 5165 952 5133 843 
C 4986 332 4749 64 4493 64 
C 4429 64 4326 64 4326 269 
C 4326 436 4403 640 4429 710 
C 4544 1018 4832 1773 4832 2145 
C 4832 2528 4608 2816 4122 2816 
C 3693 2816 3347 2574 3091 2197 
C 3072 2542 2861 2816 2381 2816 
C 1811 2816 1510 2415 1395 2255 
C 1376 2618 1114 2816 832 2816 
C 646 2816 499 2727 378 2484 
C 262 2254 173 1865 173 1839 
C 173 1814 198 1782 243 1782 
C 294 1782 301 1788 339 1935 
C 435 2312 557 2689 813 2689 
C 960 2689 1011 2586 1011 2395 
C 1011 2254 947 2005 902 1807 
L 723 1118 
C 698 996 627 709 595 594 
C 550 428 480 128 480 96 
C 480 6 550 -64 646 -64 
C 723 -64 813 -26 864 70 
C 877 102 934 326 966 453 
L 1107 1028 
L 1318 1871 
z
" transform="scale(0.015625)"/>
    </defs>
    <use xlink:href="#CMMI12-75" transform="translate(36.759597 39.226102) scale(0.697382)"/>
    <use xlink:href="#CMMI12-55" transform="translate(0 -34.355253) scale(0.697382)"/>
    <use xlink:href="#CMR17-30" transform="translate(46.376275 -44.815949) scale(0.498132)"/>
    <use xlink:href="#CMMI12-6d" transform="translate(69.221514 -44.815949) scale(0.498132)"/>
    <path d="M 36.759597 72.226648 
L 75.623653 72.226648 
L 75.623653 73.218093 
L 36.759597 73.218093 
L 36.759597 72.226648 
z
"/>
    <path d="M 0 24.410885 
L 112.38325 24.410885 
L 112.38325 25.40233 
L 0 25.40233 
L 0 24.410885 
z
"/>
   </g>
  </g>
 </g>
 <defs>
  <clipPath id="p71c0e892b1">
   <rect x="69.744696" y="53.078695" width="194.086957" height="478.08"/>
  </clipPath>
  <clipPath id="p5393060c27">
   <rect x="302.649043" y="53.078695" width="194.086957" height="478.08"/>
  </clipPath>
  <clipPath id="pede67e857a">
   <rect x="535.553391" y="53.078695" width="194.086957" height="478.08"/>
  </clipPath>
  <clipPath id="p350439b944">
   <rect x="768.457739" y="53.078695" width="194.086957" height="478.08"/>
  </clipPath>
 </defs>
</svg>
