<?xml version="1.0" encoding="utf-8" standalone="no"?>
<!DOCTYPE svg PUBLIC "-//W3C//DTD SVG 1.1//EN"
  "http://www.w3.org/Graphics/SVG/1.1/DTD/svg11.dtd">
<svg xmlns:xlink="http://www.w3.org/1999/xlink" width="1002.171192pt" height="578.747852pt" viewBox="0 0 1002.171192 578.747852" xmlns="http://www.w3.org/2000/svg" version="1.1">
 <metadata>
  <rdf:RDF xmlns:dc="http://purl.org/dc/elements/1.1/" xmlns:cc="http://creativecommons.org/ns#" xmlns:rdf="http://www.w3.org/1999/02/22-rdf-syntax-ns#">
   <cc:Work>
    <dc:type rdf:resource="http://purl.org/dc/dcmitype/StillImage"/>
    <dc:date>2024-10-09T14:15:07.762880</dc:date>
    <dc:format>image/svg+xml</dc:format>
    <dc:creator>
     <cc:Agent>
      <dc:title>Matplotlib v3.8.4, https://matplotlib.org/</dc:title>
     </cc:Agent>
    </dc:creator>
   </cc:Work>
  </rdf:RDF>
 </metadata>
 <defs>
  <style type="text/css">*{stroke-linejoin: round; stroke-linecap: butt}</style>
 </defs>
 <g id="figure_1">
  <g id="patch_1">
   <path d="M 0 578.747852 
L 1002.171192 578.747852 
L 1002.171192 0 
L 0 0 
z
" style="fill: #ffffff"/>
  </g>
  <g id="axes_1">
   <g id="patch_2">
    <path d="M 102.171192 485.28 
L 994.971192 485.28 
L 994.971192 7.2 
L 102.171192 7.2 
z
" style="fill: #ffffff"/>
   </g>
   <g id="matplotlib.axis_1">
    <g id="xtick_1">
     <g id="line2d_1">
      <path d="M 142.75301 485.28 
L 142.75301 7.2 
" clip-path="url(#p11f49e451c)" style="fill: none; stroke: #b0b0b0; stroke-width: 0.8; stroke-linecap: square"/>
     </g>
     <g id="line2d_2">
      <defs>
       <path id="m8fe1414aea" d="M 0 0 
L 0 3.5 
" style="stroke: #000000; stroke-width: 0.8"/>
      </defs>
      <g>
       <use xlink:href="#m8fe1414aea" x="142.75301" y="485.28" style="stroke: #000000; stroke-width: 0.8"/>
      </g>
     </g>
     <g id="text_1">
      <!-- $\mathdefault{0.00}$ -->
      <g transform="translate(126.336149 507.616997) scale(0.2 -0.2)">
       <defs>
        <path id="CMR17-30" d="M 2688 2025 
C 2688 2416 2682 3080 2413 3591 
C 2176 4039 1798 4198 1466 4198 
C 1158 4198 768 4058 525 3597 
C 269 3118 243 2524 243 2025 
C 243 1661 250 1106 448 619 
C 723 -39 1216 -128 1466 -128 
C 1760 -128 2208 -7 2470 600 
C 2662 1042 2688 1559 2688 2025 
z
M 1466 -26 
C 1056 -26 813 325 723 812 
C 653 1188 653 1738 653 2096 
C 653 2588 653 2997 736 3387 
C 858 3929 1216 4096 1466 4096 
C 1728 4096 2067 3923 2189 3400 
C 2272 3036 2278 2607 2278 2096 
C 2278 1680 2278 1169 2202 792 
C 2067 95 1690 -26 1466 -26 
z
" transform="scale(0.015625)"/>
        <path id="CMMI12-3a" d="M 1178 307 
C 1178 492 1024 619 870 619 
C 685 619 557 466 557 313 
C 557 128 710 0 864 0 
C 1050 0 1178 153 1178 307 
z
" transform="scale(0.015625)"/>
       </defs>
       <use xlink:href="#CMR17-30" transform="scale(0.996264)"/>
       <use xlink:href="#CMMI12-3a" transform="translate(45.690477 0) scale(0.996264)"/>
       <use xlink:href="#CMR17-30" transform="translate(72.787654 0) scale(0.996264)"/>
       <use xlink:href="#CMR17-30" transform="translate(118.478131 0) scale(0.996264)"/>
      </g>
     </g>
    </g>
    <g id="xtick_2">
     <g id="line2d_3">
      <path d="M 242.63174 485.28 
L 242.63174 7.2 
" clip-path="url(#p11f49e451c)" style="fill: none; stroke: #b0b0b0; stroke-width: 0.8; stroke-linecap: square"/>
     </g>
     <g id="line2d_4">
      <g>
       <use xlink:href="#m8fe1414aea" x="242.63174" y="485.28" style="stroke: #000000; stroke-width: 0.8"/>
      </g>
     </g>
     <g id="text_2">
      <!-- $\mathdefault{0.05}$ -->
      <g transform="translate(226.214879 507.616997) scale(0.2 -0.2)">
       <defs>
        <path id="CMR17-35" d="M 730 3692 
C 794 3666 1056 3584 1325 3584 
C 1920 3584 2246 3911 2432 4100 
C 2432 4157 2432 4192 2394 4192 
C 2387 4192 2374 4192 2323 4163 
C 2099 4058 1837 3973 1517 3973 
C 1325 3973 1037 3999 723 4139 
C 653 4171 640 4171 634 4171 
C 602 4171 595 4164 595 4037 
L 595 2203 
C 595 2089 595 2057 659 2057 
C 691 2057 704 2070 736 2114 
C 941 2401 1222 2522 1542 2522 
C 1766 2522 2246 2382 2246 1289 
C 2246 1085 2246 715 2054 421 
C 1894 159 1645 25 1370 25 
C 947 25 518 320 403 814 
C 429 807 480 795 506 795 
C 589 795 749 840 749 1038 
C 749 1210 627 1280 506 1280 
C 358 1280 262 1190 262 1011 
C 262 454 704 -128 1382 -128 
C 2042 -128 2669 440 2669 1264 
C 2669 2030 2170 2624 1549 2624 
C 1222 2624 947 2503 730 2274 
L 730 3692 
z
" transform="scale(0.015625)"/>
       </defs>
       <use xlink:href="#CMR17-30" transform="scale(0.996264)"/>
       <use xlink:href="#CMMI12-3a" transform="translate(45.690477 0) scale(0.996264)"/>
       <use xlink:href="#CMR17-30" transform="translate(72.787654 0) scale(0.996264)"/>
       <use xlink:href="#CMR17-35" transform="translate(118.478131 0) scale(0.996264)"/>
      </g>
     </g>
    </g>
    <g id="xtick_3">
     <g id="line2d_5">
      <path d="M 342.51047 485.28 
L 342.51047 7.2 
" clip-path="url(#p11f49e451c)" style="fill: none; stroke: #b0b0b0; stroke-width: 0.8; stroke-linecap: square"/>
     </g>
     <g id="line2d_6">
      <g>
       <use xlink:href="#m8fe1414aea" x="342.51047" y="485.28" style="stroke: #000000; stroke-width: 0.8"/>
      </g>
     </g>
     <g id="text_3">
      <!-- $\mathdefault{0.10}$ -->
      <g transform="translate(326.093609 507.616997) scale(0.2 -0.2)">
       <defs>
        <path id="CMR17-31" d="M 1702 4058 
C 1702 4192 1696 4192 1606 4192 
C 1357 3916 979 3827 621 3827 
C 602 3827 570 3827 563 3808 
C 557 3795 557 3782 557 3648 
C 755 3648 1088 3686 1344 3839 
L 1344 461 
C 1344 236 1331 160 781 160 
L 589 160 
L 589 0 
C 896 0 1216 0 1523 0 
C 1830 0 2150 0 2458 0 
L 2458 160 
L 2266 160 
C 1715 160 1702 230 1702 458 
L 1702 4058 
z
" transform="scale(0.015625)"/>
       </defs>
       <use xlink:href="#CMR17-30" transform="scale(0.996264)"/>
       <use xlink:href="#CMMI12-3a" transform="translate(45.690477 0) scale(0.996264)"/>
       <use xlink:href="#CMR17-31" transform="translate(72.787654 0) scale(0.996264)"/>
       <use xlink:href="#CMR17-30" transform="translate(118.478131 0) scale(0.996264)"/>
      </g>
     </g>
    </g>
    <g id="xtick_4">
     <g id="line2d_7">
      <path d="M 442.389199 485.28 
L 442.389199 7.2 
" clip-path="url(#p11f49e451c)" style="fill: none; stroke: #b0b0b0; stroke-width: 0.8; stroke-linecap: square"/>
     </g>
     <g id="line2d_8">
      <g>
       <use xlink:href="#m8fe1414aea" x="442.389199" y="485.28" style="stroke: #000000; stroke-width: 0.8"/>
      </g>
     </g>
     <g id="text_4">
      <!-- $\mathdefault{0.15}$ -->
      <g transform="translate(425.972339 507.616997) scale(0.2 -0.2)">
       <use xlink:href="#CMR17-30" transform="scale(0.996264)"/>
       <use xlink:href="#CMMI12-3a" transform="translate(45.690477 0) scale(0.996264)"/>
       <use xlink:href="#CMR17-31" transform="translate(72.787654 0) scale(0.996264)"/>
       <use xlink:href="#CMR17-35" transform="translate(118.478131 0) scale(0.996264)"/>
      </g>
     </g>
    </g>
    <g id="xtick_5">
     <g id="line2d_9">
      <path d="M 542.267929 485.28 
L 542.267929 7.2 
" clip-path="url(#p11f49e451c)" style="fill: none; stroke: #b0b0b0; stroke-width: 0.8; stroke-linecap: square"/>
     </g>
     <g id="line2d_10">
      <g>
       <use xlink:href="#m8fe1414aea" x="542.267929" y="485.28" style="stroke: #000000; stroke-width: 0.8"/>
      </g>
     </g>
     <g id="text_5">
      <!-- $\mathdefault{0.20}$ -->
      <g transform="translate(525.851068 507.616997) scale(0.2 -0.2)">
       <defs>
        <path id="CMR17-32" d="M 2669 989 
L 2554 989 
C 2490 536 2438 459 2413 420 
C 2381 369 1920 369 1830 369 
L 602 369 
C 832 619 1280 1072 1824 1597 
C 2214 1967 2669 2402 2669 3035 
C 2669 3790 2067 4224 1395 4224 
C 691 4224 262 3604 262 3030 
C 262 2780 448 2748 525 2748 
C 589 2748 781 2787 781 3010 
C 781 3207 614 3264 525 3264 
C 486 3264 448 3258 422 3245 
C 544 3790 915 4058 1306 4058 
C 1862 4058 2227 3617 2227 3035 
C 2227 2479 1901 2000 1536 1584 
L 262 146 
L 262 0 
L 2515 0 
L 2669 989 
z
" transform="scale(0.015625)"/>
       </defs>
       <use xlink:href="#CMR17-30" transform="scale(0.996264)"/>
       <use xlink:href="#CMMI12-3a" transform="translate(45.690477 0) scale(0.996264)"/>
       <use xlink:href="#CMR17-32" transform="translate(72.787654 0) scale(0.996264)"/>
       <use xlink:href="#CMR17-30" transform="translate(118.478131 0) scale(0.996264)"/>
      </g>
     </g>
    </g>
    <g id="xtick_6">
     <g id="line2d_11">
      <path d="M 642.146659 485.28 
L 642.146659 7.2 
" clip-path="url(#p11f49e451c)" style="fill: none; stroke: #b0b0b0; stroke-width: 0.8; stroke-linecap: square"/>
     </g>
     <g id="line2d_12">
      <g>
       <use xlink:href="#m8fe1414aea" x="642.146659" y="485.28" style="stroke: #000000; stroke-width: 0.8"/>
      </g>
     </g>
     <g id="text_6">
      <!-- $\mathdefault{0.25}$ -->
      <g transform="translate(625.729798 507.616997) scale(0.2 -0.2)">
       <use xlink:href="#CMR17-30" transform="scale(0.996264)"/>
       <use xlink:href="#CMMI12-3a" transform="translate(45.690477 0) scale(0.996264)"/>
       <use xlink:href="#CMR17-32" transform="translate(72.787654 0) scale(0.996264)"/>
       <use xlink:href="#CMR17-35" transform="translate(118.478131 0) scale(0.996264)"/>
      </g>
     </g>
    </g>
    <g id="xtick_7">
     <g id="line2d_13">
      <path d="M 742.025389 485.28 
L 742.025389 7.2 
" clip-path="url(#p11f49e451c)" style="fill: none; stroke: #b0b0b0; stroke-width: 0.8; stroke-linecap: square"/>
     </g>
     <g id="line2d_14">
      <g>
       <use xlink:href="#m8fe1414aea" x="742.025389" y="485.28" style="stroke: #000000; stroke-width: 0.8"/>
      </g>
     </g>
     <g id="text_7">
      <!-- $\mathdefault{0.30}$ -->
      <g transform="translate(725.608528 507.616997) scale(0.2 -0.2)">
       <defs>
        <path id="CMR17-33" d="M 1414 2157 
C 1984 2157 2234 1662 2234 1090 
C 2234 320 1824 25 1453 25 
C 1114 25 563 194 390 693 
C 422 680 454 680 486 680 
C 640 680 755 782 755 948 
C 755 1133 614 1216 486 1216 
C 378 1216 211 1165 211 926 
C 211 335 787 -128 1466 -128 
C 2176 -128 2720 430 2720 1085 
C 2720 1707 2208 2157 1600 2227 
C 2086 2328 2554 2756 2554 3329 
C 2554 3820 2048 4179 1472 4179 
C 890 4179 378 3829 378 3329 
C 378 3110 544 3072 627 3072 
C 762 3072 877 3155 877 3321 
C 877 3486 762 3569 627 3569 
C 602 3569 570 3569 544 3557 
C 730 3959 1235 4032 1459 4032 
C 1683 4032 2106 3925 2106 3320 
C 2106 3143 2080 2828 1862 2550 
C 1670 2304 1453 2304 1242 2284 
C 1210 2284 1062 2269 1037 2269 
C 992 2263 966 2257 966 2208 
C 966 2163 973 2157 1101 2157 
L 1414 2157 
z
" transform="scale(0.015625)"/>
       </defs>
       <use xlink:href="#CMR17-30" transform="scale(0.996264)"/>
       <use xlink:href="#CMMI12-3a" transform="translate(45.690477 0) scale(0.996264)"/>
       <use xlink:href="#CMR17-33" transform="translate(72.787654 0) scale(0.996264)"/>
       <use xlink:href="#CMR17-30" transform="translate(118.478131 0) scale(0.996264)"/>
      </g>
     </g>
    </g>
    <g id="xtick_8">
     <g id="line2d_15">
      <path d="M 841.904118 485.28 
L 841.904118 7.2 
" clip-path="url(#p11f49e451c)" style="fill: none; stroke: #b0b0b0; stroke-width: 0.8; stroke-linecap: square"/>
     </g>
     <g id="line2d_16">
      <g>
       <use xlink:href="#m8fe1414aea" x="841.904118" y="485.28" style="stroke: #000000; stroke-width: 0.8"/>
      </g>
     </g>
     <g id="text_8">
      <!-- $\mathdefault{0.35}$ -->
      <g transform="translate(825.487257 507.616997) scale(0.2 -0.2)">
       <use xlink:href="#CMR17-30" transform="scale(0.996264)"/>
       <use xlink:href="#CMMI12-3a" transform="translate(45.690477 0) scale(0.996264)"/>
       <use xlink:href="#CMR17-33" transform="translate(72.787654 0) scale(0.996264)"/>
       <use xlink:href="#CMR17-35" transform="translate(118.478131 0) scale(0.996264)"/>
      </g>
     </g>
    </g>
    <g id="xtick_9">
     <g id="line2d_17">
      <path d="M 941.782848 485.28 
L 941.782848 7.2 
" clip-path="url(#p11f49e451c)" style="fill: none; stroke: #b0b0b0; stroke-width: 0.8; stroke-linecap: square"/>
     </g>
     <g id="line2d_18">
      <g>
       <use xlink:href="#m8fe1414aea" x="941.782848" y="485.28" style="stroke: #000000; stroke-width: 0.8"/>
      </g>
     </g>
     <g id="text_9">
      <!-- $\mathdefault{0.40}$ -->
      <g transform="translate(925.365987 507.616997) scale(0.2 -0.2)">
       <defs>
        <path id="CMR17-34" d="M 2150 4122 
C 2150 4256 2144 4256 2029 4256 
L 128 1254 
L 128 1088 
L 1779 1088 
L 1779 457 
C 1779 224 1766 160 1318 160 
L 1197 160 
L 1197 0 
C 1402 0 1747 0 1965 0 
C 2182 0 2528 0 2733 0 
L 2733 160 
L 2611 160 
C 2163 160 2150 224 2150 457 
L 2150 1088 
L 2803 1088 
L 2803 1254 
L 2150 1254 
L 2150 4122 
z
M 1798 3703 
L 1798 1254 
L 256 1254 
L 1798 3703 
z
" transform="scale(0.015625)"/>
       </defs>
       <use xlink:href="#CMR17-30" transform="scale(0.996264)"/>
       <use xlink:href="#CMMI12-3a" transform="translate(45.690477 0) scale(0.996264)"/>
       <use xlink:href="#CMR17-34" transform="translate(72.787654 0) scale(0.996264)"/>
       <use xlink:href="#CMR17-30" transform="translate(118.478131 0) scale(0.996264)"/>
      </g>
     </g>
    </g>
    <g id="text_10">
     <!-- $\frac{y}{a}$ -->
     <g transform="translate(541.850195 558.664646) scale(0.375 -0.375)">
      <defs>
       <path id="CMMI12-79" d="M 1683 -700 
C 1510 -939 1261 -1152 947 -1152 
C 870 -1152 563 -1152 467 -889 
C 486 -895 518 -895 531 -895 
C 723 -895 851 -729 851 -582 
C 851 -435 730 -384 634 -384 
C 531 -384 307 -458 307 -759 
C 307 -1071 582 -1286 947 -1286 
C 1587 -1286 2234 -700 2413 6 
L 3040 2485 
C 3046 2517 3059 2556 3059 2594 
C 3059 2689 2982 2753 2886 2753 
C 2829 2753 2694 2727 2643 2535 
L 2170 658 
C 2138 543 2138 530 2086 460 
C 1958 281 1747 64 1440 64 
C 1082 64 1050 415 1050 588 
C 1050 952 1222 1443 1395 1903 
C 1466 2088 1504 2178 1504 2305 
C 1504 2574 1312 2816 998 2816 
C 410 2816 173 1890 173 1839 
C 173 1814 198 1782 243 1782 
C 301 1782 307 1807 333 1897 
C 486 2433 730 2689 979 2689 
C 1037 2689 1146 2689 1146 2478 
C 1146 2312 1075 2127 979 1884 
C 666 1047 666 837 666 683 
C 666 77 1101 -64 1421 -64 
C 1606 -64 1837 -6 2061 230 
L 2067 224 
C 1971 -147 1907 -392 1683 -700 
z
" transform="scale(0.015625)"/>
       <path id="CMMI12-61" d="M 1926 760 
C 1894 651 1894 639 1805 517 
C 1664 338 1382 64 1082 64 
C 819 64 672 300 672 677 
C 672 1028 870 1743 992 2012 
C 1210 2459 1510 2689 1760 2689 
C 2182 2689 2266 2165 2266 2114 
C 2266 2108 2246 2024 2240 2012 
L 1926 760 
z
M 2336 2395 
C 2266 2561 2093 2816 1760 2816 
C 1037 2816 256 1884 256 939 
C 256 307 627 -64 1062 -64 
C 1414 -64 1715 211 1894 422 
C 1958 45 2259 -64 2451 -64 
C 2643 -64 2797 51 2912 281 
C 3014 498 3104 888 3104 913 
C 3104 945 3078 971 3040 971 
C 2982 971 2976 939 2950 843 
C 2854 466 2733 64 2470 64 
C 2285 64 2272 230 2272 358 
C 2272 505 2291 575 2349 824 
C 2394 984 2426 1124 2477 1309 
C 2714 2267 2771 2497 2771 2535 
C 2771 2625 2701 2695 2605 2695 
C 2400 2695 2349 2472 2336 2395 
z
" transform="scale(0.015625)"/>
      </defs>
      <use xlink:href="#CMMI12-79" transform="translate(0.024186 39.953917) scale(0.697382)"/>
      <use xlink:href="#CMMI12-61" transform="translate(0 -34.355253) scale(0.697382)"/>
      <path d="M 0 24.410885 
L 35.845347 24.410885 
L 35.845347 25.40233 
L 0 25.40233 
L 0 24.410885 
z
"/>
     </g>
    </g>
   </g>
   <g id="matplotlib.axis_2">
    <g id="ytick_1">
     <g id="line2d_19">
      <path d="M 102.171192 458.004598 
L 994.971192 458.004598 
" clip-path="url(#p11f49e451c)" style="fill: none; stroke: #b0b0b0; stroke-width: 0.8; stroke-linecap: square"/>
     </g>
     <g id="line2d_20">
      <defs>
       <path id="mfff642aa2e" d="M 0 0 
L -3.5 0 
" style="stroke: #000000; stroke-width: 0.8"/>
      </defs>
      <g>
       <use xlink:href="#mfff642aa2e" x="102.171192" y="458.004598" style="stroke: #000000; stroke-width: 0.8"/>
      </g>
     </g>
     <g id="text_11">
      <!-- $\mathdefault{0.0}$ -->
      <g transform="translate(69.975566 464.923096) scale(0.2 -0.2)">
       <use xlink:href="#CMR17-30" transform="scale(0.996264)"/>
       <use xlink:href="#CMMI12-3a" transform="translate(45.690477 0) scale(0.996264)"/>
       <use xlink:href="#CMR17-30" transform="translate(72.787654 0) scale(0.996264)"/>
      </g>
     </g>
    </g>
    <g id="ytick_2">
     <g id="line2d_21">
      <path d="M 102.171192 378.330316 
L 994.971192 378.330316 
" clip-path="url(#p11f49e451c)" style="fill: none; stroke: #b0b0b0; stroke-width: 0.8; stroke-linecap: square"/>
     </g>
     <g id="line2d_22">
      <g>
       <use xlink:href="#mfff642aa2e" x="102.171192" y="378.330316" style="stroke: #000000; stroke-width: 0.8"/>
      </g>
     </g>
     <g id="text_12">
      <!-- $\mathdefault{0.2}$ -->
      <g transform="translate(69.975566 385.248814) scale(0.2 -0.2)">
       <use xlink:href="#CMR17-30" transform="scale(0.996264)"/>
       <use xlink:href="#CMMI12-3a" transform="translate(45.690477 0) scale(0.996264)"/>
       <use xlink:href="#CMR17-32" transform="translate(72.787654 0) scale(0.996264)"/>
      </g>
     </g>
    </g>
    <g id="ytick_3">
     <g id="line2d_23">
      <path d="M 102.171192 298.656034 
L 994.971192 298.656034 
" clip-path="url(#p11f49e451c)" style="fill: none; stroke: #b0b0b0; stroke-width: 0.8; stroke-linecap: square"/>
     </g>
     <g id="line2d_24">
      <g>
       <use xlink:href="#mfff642aa2e" x="102.171192" y="298.656034" style="stroke: #000000; stroke-width: 0.8"/>
      </g>
     </g>
     <g id="text_13">
      <!-- $\mathdefault{0.4}$ -->
      <g transform="translate(69.975566 305.574533) scale(0.2 -0.2)">
       <use xlink:href="#CMR17-30" transform="scale(0.996264)"/>
       <use xlink:href="#CMMI12-3a" transform="translate(45.690477 0) scale(0.996264)"/>
       <use xlink:href="#CMR17-34" transform="translate(72.787654 0) scale(0.996264)"/>
      </g>
     </g>
    </g>
    <g id="ytick_4">
     <g id="line2d_25">
      <path d="M 102.171192 218.981753 
L 994.971192 218.981753 
" clip-path="url(#p11f49e451c)" style="fill: none; stroke: #b0b0b0; stroke-width: 0.8; stroke-linecap: square"/>
     </g>
     <g id="line2d_26">
      <g>
       <use xlink:href="#mfff642aa2e" x="102.171192" y="218.981753" style="stroke: #000000; stroke-width: 0.8"/>
      </g>
     </g>
     <g id="text_14">
      <!-- $\mathdefault{0.6}$ -->
      <g transform="translate(69.975566 225.900251) scale(0.2 -0.2)">
       <defs>
        <path id="CMR17-36" d="M 678 2176 
C 678 3690 1395 4032 1811 4032 
C 1946 4032 2272 4009 2400 3776 
C 2298 3776 2106 3776 2106 3553 
C 2106 3381 2246 3323 2336 3323 
C 2394 3323 2566 3348 2566 3560 
C 2566 3954 2246 4179 1805 4179 
C 1043 4179 243 3390 243 1984 
C 243 253 966 -128 1478 -128 
C 2099 -128 2688 427 2688 1283 
C 2688 2081 2170 2662 1517 2662 
C 1126 2662 838 2407 678 1960 
L 678 2176 
z
M 1478 25 
C 691 25 691 1200 691 1436 
C 691 1896 909 2560 1504 2560 
C 1613 2560 1926 2560 2138 2120 
C 2253 1870 2253 1609 2253 1289 
C 2253 944 2253 690 2118 434 
C 1978 171 1773 25 1478 25 
z
" transform="scale(0.015625)"/>
       </defs>
       <use xlink:href="#CMR17-30" transform="scale(0.996264)"/>
       <use xlink:href="#CMMI12-3a" transform="translate(45.690477 0) scale(0.996264)"/>
       <use xlink:href="#CMR17-36" transform="translate(72.787654 0) scale(0.996264)"/>
      </g>
     </g>
    </g>
    <g id="ytick_5">
     <g id="line2d_27">
      <path d="M 102.171192 139.307471 
L 994.971192 139.307471 
" clip-path="url(#p11f49e451c)" style="fill: none; stroke: #b0b0b0; stroke-width: 0.8; stroke-linecap: square"/>
     </g>
     <g id="line2d_28">
      <g>
       <use xlink:href="#mfff642aa2e" x="102.171192" y="139.307471" style="stroke: #000000; stroke-width: 0.8"/>
      </g>
     </g>
     <g id="text_15">
      <!-- $\mathdefault{0.8}$ -->
      <g transform="translate(69.975566 146.225969) scale(0.2 -0.2)">
       <defs>
        <path id="CMR17-38" d="M 1741 2264 
C 2144 2467 2554 2773 2554 3263 
C 2554 3841 1990 4179 1472 4179 
C 890 4179 378 3759 378 3180 
C 378 3021 416 2747 666 2505 
C 730 2442 998 2251 1171 2130 
C 883 1983 211 1634 211 934 
C 211 279 838 -128 1459 -128 
C 2144 -128 2720 362 2720 1010 
C 2720 1590 2330 1857 2074 2029 
L 1741 2264 
z
M 902 2822 
C 851 2854 595 3051 595 3351 
C 595 3739 998 4032 1459 4032 
C 1965 4032 2336 3676 2336 3262 
C 2336 2669 1670 2331 1638 2331 
C 1632 2331 1626 2331 1574 2370 
L 902 2822 
z
M 2080 1519 
C 2176 1449 2483 1240 2483 851 
C 2483 381 2010 25 1472 25 
C 890 25 448 438 448 940 
C 448 1443 838 1862 1280 2060 
L 2080 1519 
z
" transform="scale(0.015625)"/>
       </defs>
       <use xlink:href="#CMR17-30" transform="scale(0.996264)"/>
       <use xlink:href="#CMMI12-3a" transform="translate(45.690477 0) scale(0.996264)"/>
       <use xlink:href="#CMR17-38" transform="translate(72.787654 0) scale(0.996264)"/>
      </g>
     </g>
    </g>
    <g id="ytick_6">
     <g id="line2d_29">
      <path d="M 102.171192 59.633189 
L 994.971192 59.633189 
" clip-path="url(#p11f49e451c)" style="fill: none; stroke: #b0b0b0; stroke-width: 0.8; stroke-linecap: square"/>
     </g>
     <g id="line2d_30">
      <g>
       <use xlink:href="#mfff642aa2e" x="102.171192" y="59.633189" style="stroke: #000000; stroke-width: 0.8"/>
      </g>
     </g>
     <g id="text_16">
      <!-- $\mathdefault{1.0}$ -->
      <g transform="translate(69.975566 66.551688) scale(0.2 -0.2)">
       <use xlink:href="#CMR17-31" transform="scale(0.996264)"/>
       <use xlink:href="#CMMI12-3a" transform="translate(45.690477 0) scale(0.996264)"/>
       <use xlink:href="#CMR17-30" transform="translate(72.787654 0) scale(0.996264)"/>
      </g>
     </g>
    </g>
    <g id="text_17">
     <!-- $\frac{u}{U_{0m}}$ -->
     <g transform="translate(33.1696 267.467518) rotate(-90) scale(0.375 -0.375)">
      <defs>
       <path id="CMMI12-75" d="M 2182 370 
C 2266 13 2573 -64 2726 -64 
C 2931 -64 3085 70 3187 287 
C 3296 517 3379 894 3379 913 
C 3379 945 3354 971 3315 971 
C 3258 971 3251 939 3226 843 
C 3110 402 2995 64 2739 64 
C 2547 64 2547 275 2547 358 
C 2547 505 2566 568 2630 837 
C 2675 1009 2720 1181 2758 1360 
L 3021 2401 
C 3066 2561 3066 2574 3066 2593 
C 3066 2689 2989 2753 2893 2753 
C 2707 2753 2662 2593 2624 2433 
C 2560 2184 2214 811 2170 588 
C 2163 588 1914 64 1446 64 
C 1114 64 1050 351 1050 588 
C 1050 952 1229 1462 1395 1890 
C 1472 2095 1504 2178 1504 2305 
C 1504 2580 1306 2816 998 2816 
C 410 2816 173 1890 173 1839 
C 173 1814 198 1782 243 1782 
C 301 1782 307 1807 333 1896 
C 486 2441 736 2682 979 2682 
C 1043 2682 1146 2682 1146 2478 
C 1146 2312 1075 2127 979 1884 
C 698 1124 666 881 666 690 
C 666 38 1158 -64 1421 -64 
C 1830 -64 2054 217 2182 370 
z
" transform="scale(0.015625)"/>
       <path id="CMMI12-55" d="M 3238 1474 
C 3014 581 2272 57 1670 57 
C 1210 57 896 363 896 891 
C 896 916 896 1107 966 1387 
L 1594 3887 
C 1651 4103 1664 4167 2118 4167 
C 2234 4167 2298 4167 2298 4282 
C 2298 4352 2240 4352 2202 4352 
C 2086 4352 1952 4352 1830 4352 
L 1075 4352 
C 954 4352 819 4352 698 4352 
C 653 4352 576 4352 576 4231 
C 576 4167 621 4167 742 4167 
C 1126 4167 1126 4116 1126 4046 
C 1126 4008 1082 3824 1050 3715 
L 493 1488 
C 474 1418 435 1246 435 1075 
C 435 374 941 -128 1638 -128 
C 2285 -128 3002 384 3328 1197 
C 3373 1305 3430 1530 3469 1702 
C 3533 1933 3667 2496 3712 2662 
L 3955 3623 
C 4038 3956 4090 4167 4653 4167 
C 4704 4173 4730 4224 4730 4282 
C 4730 4352 4672 4352 4646 4352 
C 4557 4352 4442 4352 4352 4352 
L 4051 4352 
C 3654 4352 3450 4352 3443 4352 
C 3405 4352 3328 4352 3328 4231 
C 3328 4167 3379 4167 3424 4167 
C 3808 4167 3834 4020 3834 3905 
C 3834 3848 3834 3828 3808 3739 
L 3238 1474 
z
" transform="scale(0.015625)"/>
       <path id="CMMI12-6d" d="M 1318 1871 
C 1331 1910 1491 2229 1728 2433 
C 1894 2586 2112 2689 2362 2689 
C 2618 2689 2707 2497 2707 2242 
C 2707 2203 2707 2076 2630 1775 
L 2470 1118 
C 2419 926 2298 453 2285 383 
C 2259 287 2221 121 2221 96 
C 2221 6 2291 -64 2387 -64 
C 2579 -64 2611 83 2669 313 
L 3053 1839 
C 3066 1890 3398 2689 4102 2689 
C 4358 2689 4448 2497 4448 2242 
C 4448 1884 4198 1188 4058 805 
C 4000 651 3968 568 3968 453 
C 3968 166 4166 -64 4474 -64 
C 5069 -64 5293 875 5293 913 
C 5293 945 5267 971 5229 971 
C 5171 971 5165 952 5133 843 
C 4986 332 4749 64 4493 64 
C 4429 64 4326 64 4326 269 
C 4326 436 4403 640 4429 710 
C 4544 1018 4832 1773 4832 2145 
C 4832 2528 4608 2816 4122 2816 
C 3693 2816 3347 2574 3091 2197 
C 3072 2542 2861 2816 2381 2816 
C 1811 2816 1510 2415 1395 2255 
C 1376 2618 1114 2816 832 2816 
C 646 2816 499 2727 378 2484 
C 262 2254 173 1865 173 1839 
C 173 1814 198 1782 243 1782 
C 294 1782 301 1788 339 1935 
C 435 2312 557 2689 813 2689 
C 960 2689 1011 2586 1011 2395 
C 1011 2254 947 2005 902 1807 
L 723 1118 
C 698 996 627 709 595 594 
C 550 428 480 128 480 96 
C 480 6 550 -64 646 -64 
C 723 -64 813 -26 864 70 
C 877 102 934 326 966 453 
L 1107 1028 
L 1318 1871 
z
" transform="scale(0.015625)"/>
      </defs>
      <use xlink:href="#CMMI12-75" transform="translate(36.759597 39.226102) scale(0.697382)"/>
      <use xlink:href="#CMMI12-55" transform="translate(0 -34.355253) scale(0.697382)"/>
      <use xlink:href="#CMR17-30" transform="translate(46.376275 -44.815949) scale(0.498132)"/>
      <use xlink:href="#CMMI12-6d" transform="translate(69.221514 -44.815949) scale(0.498132)"/>
      <path d="M 0 24.410885 
L 112.38325 24.410885 
L 112.38325 25.40233 
L 0 25.40233 
L 0 24.410885 
z
"/>
     </g>
    </g>
   </g>
   <g id="line2d_31">
    <path d="M 142.75301 458.004598 
L 143.206407 441.55342 
L 143.682474 425.804878 
L 144.182344 410.871113 
L 144.707207 396.865964 
L 145.258314 383.903336 
L 145.836976 372.095271 
L 146.444571 361.549718 
L 147.082546 352.368009 
L 147.75242 344.642066 
L 148.455787 338.451363 
L 149.194323 333.859722 
L 149.969785 330.911999 
L 150.784021 329.630794 
L 151.638969 330.013293 
L 152.536663 332.02843 
L 153.479243 335.614535 
L 154.468951 340.677694 
L 155.508145 347.091031 
L 156.599299 354.695135 
L 157.74501 363.299849 
L 158.948007 372.687576 
L 160.211154 382.618229 
L 161.537458 392.835844 
L 162.930077 403.076768 
L 164.392327 413.079201 
L 165.92769 422.593727 
L 167.539821 431.39428 
L 169.232558 439.288877 
L 171.009932 446.129297 
L 172.876175 451.81886 
L 174.835731 456.317428 
L 176.893263 459.642915 
L 179.053673 461.868774 
L 181.322103 463.117311 
L 183.703954 463.549091 
L 186.204898 463.349176 
L 188.83089 462.711423 
L 191.588181 461.822437 
L 194.483336 460.846956 
L 197.523249 459.916407 
L 200.715158 459.122008 
L 204.066662 458.513186 
L 207.585742 458.101249 
L 211.280775 457.867422 
L 215.16056 457.773583 
L 219.234335 457.773665 
L 223.511798 457.823668 
L 228.003134 457.8887 
L 232.719037 457.946299 
L 237.670735 457.986191 
L 242.870018 458.007473 
L 248.329266 458.014639 
L 254.061475 458.013819 
L 260.080295 458.010186 
L 266.400056 458.006835 
L 273.035806 458.004883 
L 280.003342 458.004197 
L 287.319256 458.004204 
L 295.000965 458.004405 
L 303.066759 458.004556 
L 311.535844 458.004612 
L 320.428382 458.004615 
L 329.765548 458.004604 
L 339.569572 458.004598 
L 349.863796 458.004597 
L 360.672733 458.004597 
L 372.022116 458.004598 
L 383.938968 458.004598 
L 396.451663 458.004598 
L 409.589992 458.004598 
L 423.385238 458.004598 
L 437.870246 458.004598 
L 453.079505 458.004598 
L 469.049227 458.004598 
L 485.817434 458.004598 
L 503.424052 458.004598 
L 521.911001 458.004598 
L 541.322298 458.004598 
L 561.704159 458.004598 
L 583.105113 458.004598 
L 605.576115 458.004598 
L 629.170667 458.004598 
L 653.944947 458.004598 
L 679.957941 458.004598 
L 707.271584 458.004598 
L 735.95091 458.004598 
L 766.064202 458.004598 
L 797.683158 458.004598 
L 830.883062 458.004598 
L 865.742962 458.004598 
L 902.345856 458.004598 
L 940.778895 458.004598 
L 954.389374 458.004598 
" clip-path="url(#p11f49e451c)" style="fill: none; stroke: #000000; stroke-opacity: 0.5; stroke-width: 1.2; stroke-linecap: square"/>
   </g>
   <g id="line2d_32">
    <path d="M 142.75301 458.004598 
L 143.206407 434.230034 
L 143.682474 410.392185 
L 144.182344 386.596255 
L 144.707207 362.957694 
L 145.258314 339.601798 
L 145.836976 316.663002 
L 146.444571 294.283815 
L 147.082546 272.613353 
L 147.75242 251.805433 
L 148.455787 232.016192 
L 149.194323 213.401211 
L 149.969785 196.112154 
L 150.784021 180.292926 
L 151.638969 166.075419 
L 152.536663 153.574926 
L 153.479243 142.885359 
L 154.468951 134.074426 
L 155.508145 127.179012 
L 156.599299 122.201001 
L 157.74501 119.103857 
L 158.948007 117.810289 
L 160.211154 118.201316 
L 161.537458 120.117083 
L 162.930077 123.359661 
L 164.392327 127.698044 
L 165.92769 132.875379 
L 167.539821 138.618323 
L 169.232558 144.648231 
L 171.009932 150.693622 
L 172.876175 156.503196 
L 174.835731 161.858448 
L 176.893263 166.584812 
L 179.053673 170.560232 
L 181.322103 173.720157 
L 183.703954 176.05818 
L 186.204898 177.621965 
L 188.83089 178.504606 
L 191.588181 178.832136 
L 194.483336 178.748499 
L 197.523249 178.399718 
L 200.715158 177.919228 
L 204.066662 177.416238 
L 207.585742 176.968565 
L 211.280775 176.620649 
L 215.16056 176.38655 
L 219.234335 176.256855 
L 223.511798 176.207732 
L 228.003134 176.210118 
L 232.719037 176.237241 
L 237.670735 176.269299 
L 242.870018 176.295015 
L 248.329266 176.31059 
L 254.061475 176.317181 
L 260.080295 176.318084 
L 266.400056 176.316578 
L 273.035806 176.314825 
L 280.003342 176.313722 
L 287.319256 176.313308 
L 295.000965 176.313288 
L 303.066759 176.313383 
L 311.535844 176.313455 
L 320.428382 176.313481 
L 329.765548 176.313481 
L 339.569572 176.313476 
L 349.863796 176.313473 
L 360.672733 176.313473 
L 372.022116 176.313473 
L 383.938968 176.313473 
L 396.451663 176.313473 
L 409.589992 176.313473 
L 423.385238 176.313473 
L 437.870246 176.313473 
L 453.079505 176.313473 
L 469.049227 176.313473 
L 485.817434 176.313473 
L 503.424052 176.313473 
L 521.911001 176.313473 
L 541.322298 176.313473 
L 561.704159 176.313473 
L 583.105113 176.313473 
L 605.576115 176.313473 
L 629.170667 176.313473 
L 653.944947 176.313473 
L 679.957941 176.313473 
L 707.271584 176.313473 
L 735.95091 176.313473 
L 766.064202 176.313473 
L 797.683158 176.313473 
L 830.883062 176.313473 
L 865.742962 176.313473 
L 902.345856 176.313473 
L 940.778895 176.313473 
L 954.389374 176.313473 
" clip-path="url(#p11f49e451c)" style="fill: none; stroke-dasharray: 4.44,1.92; stroke-dashoffset: 0; stroke: #000000; stroke-opacity: 0.5; stroke-width: 1.2"/>
   </g>
   <g id="line2d_33">
    <path d="M 142.75301 458.004598 
L 143.206407 440.833465 
L 143.682474 422.870198 
L 144.182344 404.151436 
L 144.707207 384.726611 
L 145.258314 364.659014 
L 145.836976 344.026723 
L 146.444571 322.923327 
L 147.082546 301.458374 
L 147.75242 279.757475 
L 148.455787 257.961964 
L 149.194323 236.228047 
L 149.969785 214.725351 
L 150.784021 193.634789 
L 151.638969 173.145698 
L 152.536663 153.452196 
L 153.479243 134.74876 
L 154.468951 117.22506 
L 155.508145 101.060135 
L 156.599299 86.416059 
L 157.74501 73.431324 
L 158.948007 62.214214 
L 160.211154 52.836557 
L 161.537458 45.328244 
L 162.930077 39.673019 
L 164.392327 35.805987 
L 165.92769 33.613318 
L 167.539821 32.934514 
L 169.232558 33.567495 
L 171.009932 35.276549 
L 172.876175 37.802965 
L 174.835731 40.877866 
L 176.893263 44.236466 
L 179.053673 47.632702 
L 181.322103 50.852973 
L 183.703954 53.727656 
L 186.204898 56.139098 
L 188.83089 58.025094 
L 191.588181 59.377277 
L 194.483336 60.234477 
L 197.523249 60.671776 
L 200.715158 60.786659 
L 204.066662 60.684146 
L 207.585742 60.462978 
L 211.280775 60.204777 
L 215.16056 59.967551 
L 219.234335 59.784052 
L 223.511798 59.664579 
L 228.003134 59.602921 
L 232.719037 59.583679 
L 237.670735 59.589125 
L 242.870018 59.60421 
L 248.329266 59.61907 
L 254.061475 59.62921 
L 260.080295 59.634121 
L 266.400056 59.635343 
L 273.035806 59.634816 
L 280.003342 59.633941 
L 287.319256 59.633349 
L 295.000965 59.63312 
L 303.066759 59.633104 
L 311.535844 59.633149 
L 320.428382 59.633182 
L 329.765548 59.633193 
L 339.569572 59.633192 
L 349.863796 59.63319 
L 360.672733 59.633189 
L 372.022116 59.633189 
L 383.938968 59.633189 
L 396.451663 59.633189 
L 409.589992 59.633189 
L 423.385238 59.633189 
L 437.870246 59.633189 
L 453.079505 59.633189 
L 469.049227 59.633189 
L 485.817434 59.633189 
L 503.424052 59.633189 
L 521.911001 59.633189 
L 541.322298 59.633189 
L 561.704159 59.633189 
L 583.105113 59.633189 
L 605.576115 59.633189 
L 629.170667 59.633189 
L 653.944947 59.633189 
L 679.957941 59.633189 
L 707.271584 59.633189 
L 735.95091 59.633189 
L 766.064202 59.633189 
L 797.683158 59.633189 
L 830.883062 59.633189 
L 865.742962 59.633189 
L 902.345856 59.633189 
L 940.778895 59.633189 
L 954.389374 59.633189 
" clip-path="url(#p11f49e451c)" style="fill: none; stroke-dasharray: 8.32,2.08,1.3,2.08; stroke-dashoffset: 0; stroke: #000000; stroke-opacity: 0.5; stroke-width: 1.3"/>
   </g>
   <g id="line2d_34">
    <path d="M 142.75301 458.004598 
L 143.206407 457.495513 
L 143.682474 455.929465 
L 144.182344 453.253068 
L 144.707207 449.420779 
L 145.258314 444.396807 
L 145.836976 438.157137 
L 146.444571 430.691615 
L 147.082546 422.00605 
L 147.75242 412.124264 
L 148.455787 401.089998 
L 149.194323 388.968579 
L 149.969785 375.848231 
L 150.784021 361.8409 
L 151.638969 347.082457 
L 152.536663 331.732132 
L 153.479243 315.971046 
L 154.468951 299.999725 
L 155.508145 284.034483 
L 156.599299 268.302644 
L 157.74501 253.036598 
L 158.948007 238.466779 
L 160.211154 224.813741 
L 161.537458 212.279617 
L 162.930077 201.039343 
L 164.392327 191.232151 
L 165.92769 182.953913 
L 167.539821 176.250995 
L 169.232558 171.116257 
L 171.009932 167.487833 
L 172.876175 165.251151 
L 174.835731 164.244466 
L 176.893263 164.267881 
L 179.053673 165.095462 
L 181.322103 166.489689 
L 183.703954 168.217082 
L 186.204898 170.06359 
L 188.83089 171.84815 
L 191.588181 173.432896 
L 194.483336 174.728797 
L 197.523249 175.696012 
L 200.715158 176.338971 
L 204.066662 176.696986 
L 207.585742 176.83188 
L 211.280775 176.814645 
L 215.16056 176.713255 
L 219.234335 176.583444 
L 223.511798 176.463606 
L 228.003134 176.374022 
L 232.719037 176.319688 
L 237.670735 176.295331 
L 242.870018 176.290949 
L 248.329266 176.29639 
L 254.061475 176.304139 
L 260.080295 176.310181 
L 266.400056 176.313414 
L 273.035806 176.314423 
L 280.003342 176.314288 
L 287.319256 176.313864 
L 295.000965 176.31356 
L 303.066759 176.313443 
L 311.535844 176.313435 
L 320.428382 176.313457 
L 329.765548 176.313471 
L 339.569572 176.313475 
L 349.863796 176.313474 
L 360.672733 176.313473 
L 372.022116 176.313473 
L 383.938968 176.313473 
L 396.451663 176.313473 
L 409.589992 176.313473 
L 423.385238 176.313473 
L 437.870246 176.313473 
L 453.079505 176.313473 
L 469.049227 176.313473 
L 485.817434 176.313473 
L 503.424052 176.313473 
L 521.911001 176.313473 
L 541.322298 176.313473 
L 561.704159 176.313473 
L 583.105113 176.313473 
L 605.576115 176.313473 
L 629.170667 176.313473 
L 653.944947 176.313473 
L 679.957941 176.313473 
L 707.271584 176.313473 
L 735.95091 176.313473 
L 766.064202 176.313473 
L 797.683158 176.313473 
L 830.883062 176.313473 
L 865.742962 176.313473 
L 902.345856 176.313473 
L 940.778895 176.313473 
L 954.389374 176.313473 
" clip-path="url(#p11f49e451c)" style="fill: none; stroke-dasharray: 1.8,2.97; stroke-dashoffset: 0; stroke: #000000; stroke-opacity: 0.5; stroke-width: 1.8"/>
   </g>
   <g id="patch_3">
    <path d="M 102.171192 485.28 
L 102.171192 7.2 
" style="fill: none; stroke: #000000; stroke-width: 0.8; stroke-linejoin: miter; stroke-linecap: square"/>
   </g>
   <g id="patch_4">
    <path d="M 994.971192 485.28 
L 994.971192 7.2 
" style="fill: none; stroke: #000000; stroke-width: 0.8; stroke-linejoin: miter; stroke-linecap: square"/>
   </g>
   <g id="patch_5">
    <path d="M 102.171192 485.28 
L 994.971192 485.28 
" style="fill: none; stroke: #000000; stroke-width: 0.8; stroke-linejoin: miter; stroke-linecap: square"/>
   </g>
   <g id="patch_6">
    <path d="M 102.171192 7.2 
L 994.971192 7.2 
" style="fill: none; stroke: #000000; stroke-width: 0.8; stroke-linejoin: miter; stroke-linecap: square"/>
   </g>
   <g id="line2d_35">
    <path d="M 142.75301 458.004598 
L 143.206407 441.55342 
L 143.682474 425.804878 
L 144.182344 410.871113 
L 144.707207 396.865964 
L 145.258314 383.903336 
L 145.836976 372.095271 
L 146.444571 361.549718 
L 147.082546 352.368009 
L 147.75242 344.642066 
L 148.455787 338.451363 
L 149.194323 333.859722 
L 149.969785 330.911999 
L 150.784021 329.630794 
L 151.638969 330.013293 
L 152.536663 332.02843 
L 153.479243 335.614535 
L 154.468951 340.677694 
L 155.508145 347.091031 
L 156.599299 354.695135 
L 157.74501 363.299849 
L 158.948007 372.687576 
L 160.211154 382.618229 
L 161.537458 392.835844 
L 162.930077 403.076768 
L 164.392327 413.079201 
L 165.92769 422.593727 
L 167.539821 431.39428 
L 169.232558 439.288877 
L 171.009932 446.129297 
L 172.876175 451.81886 
L 174.835731 456.317428 
L 176.893263 459.642915 
L 179.053673 461.868774 
L 181.322103 463.117311 
L 183.703954 463.549091 
L 186.204898 463.349176 
L 188.83089 462.711423 
L 191.588181 461.822437 
L 194.483336 460.846956 
L 197.523249 459.916407 
L 200.715158 459.122008 
L 204.066662 458.513186 
L 207.585742 458.101249 
L 211.280775 457.867422 
L 215.16056 457.773583 
L 219.234335 457.773665 
L 223.511798 457.823668 
L 228.003134 457.8887 
L 232.719037 457.946299 
L 237.670735 457.986191 
L 242.870018 458.007473 
L 248.329266 458.014639 
L 254.061475 458.013819 
L 260.080295 458.010186 
L 266.400056 458.006835 
L 273.035806 458.004883 
L 280.003342 458.004197 
L 287.319256 458.004204 
L 295.000965 458.004405 
L 303.066759 458.004556 
L 311.535844 458.004612 
L 320.428382 458.004615 
L 329.765548 458.004604 
L 339.569572 458.004598 
L 349.863796 458.004597 
L 360.672733 458.004597 
L 372.022116 458.004598 
L 383.938968 458.004598 
L 396.451663 458.004598 
L 409.589992 458.004598 
L 423.385238 458.004598 
L 437.870246 458.004598 
L 453.079505 458.004598 
L 469.049227 458.004598 
L 485.817434 458.004598 
L 503.424052 458.004598 
L 521.911001 458.004598 
L 541.322298 458.004598 
L 561.704159 458.004598 
L 583.105113 458.004598 
L 605.576115 458.004598 
L 629.170667 458.004598 
L 653.944947 458.004598 
L 679.957941 458.004598 
L 707.271584 458.004598 
L 735.95091 458.004598 
L 766.064202 458.004598 
L 797.683158 458.004598 
L 830.883062 458.004598 
L 865.742962 458.004598 
L 902.345856 458.004598 
L 940.778895 458.004598 
L 954.389374 458.004598 
" clip-path="url(#p11f49e451c)" style="fill: none; stroke: #000000; stroke-width: 1.2; stroke-linecap: square"/>
   </g>
   <g id="line2d_36">
    <path d="M 142.75301 458.004598 
L 143.206407 434.160753 
L 143.682474 410.225416 
L 144.182344 386.303078 
L 144.707207 362.509015 
L 145.258314 338.968997 
L 145.836976 315.818694 
L 146.444571 293.202722 
L 147.082546 271.273275 
L 147.75242 250.188302 
L 148.455787 230.109178 
L 149.194323 211.197846 
L 149.969785 193.613415 
L 150.784021 177.508222 
L 151.638969 163.023402 
L 152.536663 150.284051 
L 153.479243 139.394089 
L 154.468951 130.431016 
L 155.508145 123.440765 
L 156.599299 118.43296 
L 157.74501 115.376884 
L 158.948007 114.198532 
L 160.211154 114.779143 
L 161.537458 116.955578 
L 162.930077 120.52288 
L 164.392327 125.239258 
L 165.92769 130.833612 
L 167.539821 137.015501 
L 169.232558 143.487256 
L 171.009932 149.957674 
L 172.876175 156.156457 
L 174.835731 161.848339 
L 176.893263 166.845683 
L 179.053673 171.018274 
L 181.322103 174.299116 
L 183.703954 176.685337 
L 186.204898 178.233724 
L 188.83089 179.051022 
L 191.588181 179.279818 
L 194.483336 179.081502 
L 197.523249 178.618317 
L 200.715158 178.036819 
L 204.066662 177.454904 
L 207.585742 176.954093 
L 211.280775 176.577861 
L 215.16056 176.335724 
L 219.234335 176.211728 
L 223.511798 176.1752 
L 228.003134 176.191365 
L 232.719037 176.229719 
L 237.670735 176.268892 
L 242.870018 176.297778 
L 248.329266 176.313761 
L 254.061475 176.319412 
L 260.080295 176.319137 
L 266.400056 176.316796 
L 273.035806 176.314667 
L 280.003342 176.313508 
L 287.319256 176.313169 
L 295.000965 176.313226 
L 303.066759 176.313359 
L 311.535844 176.313437 
L 320.428382 176.313457 
L 329.765548 176.313453 
L 339.569572 176.313447 
L 349.863796 176.313445 
L 360.672733 176.313445 
L 372.022116 176.313445 
L 383.938968 176.313445 
L 396.451663 176.313445 
L 409.589992 176.313445 
L 423.385238 176.313445 
L 437.870246 176.313445 
L 453.079505 176.313445 
L 469.049227 176.313445 
L 485.817434 176.313445 
L 503.424052 176.313445 
L 521.911001 176.313445 
L 541.322298 176.313445 
L 561.704159 176.313445 
L 583.105113 176.313445 
L 605.576115 176.313445 
L 629.170667 176.313445 
L 653.944947 176.313445 
L 679.957941 176.313445 
L 707.271584 176.313445 
L 735.95091 176.313445 
L 766.064202 176.313445 
L 797.683158 176.313445 
L 830.883062 176.313445 
L 865.742962 176.313445 
L 902.345856 176.313445 
L 940.778895 176.313445 
L 954.389374 176.313445 
" clip-path="url(#p11f49e451c)" style="fill: none; stroke-dasharray: 4.44,1.92; stroke-dashoffset: 0; stroke: #000000; stroke-width: 1.2"/>
   </g>
   <g id="line2d_37">
    <path d="M 142.75301 458.004598 
L 143.206407 440.932333 
L 143.682474 423.038874 
L 144.182344 404.357037 
L 144.707207 384.932543 
L 145.258314 364.825223 
L 145.836976 344.110109 
L 146.444571 322.878341 
L 147.082546 301.237827 
L 147.75242 279.313566 
L 148.455787 257.247554 
L 149.194323 235.198166 
L 149.969785 213.338928 
L 150.784021 191.856584 
L 151.638969 170.948372 
L 152.536663 150.818455 
L 153.479243 131.673465 
L 154.468951 113.717173 
L 155.508145 97.144349 
L 156.599299 82.133938 
L 157.74501 68.841751 
L 158.948007 57.392979 
L 160.211154 47.874897 
L 161.537458 40.330229 
L 162.930077 34.751715 
L 164.392327 31.078452 
L 165.92769 29.194589 
L 167.539821 28.930909 
L 169.232558 30.069672 
L 171.009932 32.352925 
L 172.876175 35.494174 
L 174.835731 39.192958 
L 176.893263 43.151493 
L 179.053673 47.092151 
L 181.322103 50.77422 
L 183.703954 54.008224 
L 186.204898 56.666099 
L 188.83089 58.685813 
L 191.588181 60.069581 
L 194.483336 60.875627 
L 197.523249 61.204372 
L 200.715158 61.180877 
L 204.066662 60.936005 
L 207.585742 60.589152 
L 211.280775 60.235083 
L 215.16056 59.936694 
L 219.234335 59.724281 
L 223.511798 59.60056 
L 228.003134 59.549514 
L 232.719037 59.546473 
L 237.670735 59.566935 
L 242.870018 59.592354 
L 248.329266 59.612304 
L 254.061475 59.623578 
L 260.080295 59.627573 
L 266.400056 59.62741 
L 273.035806 59.62588 
L 280.003342 59.624566 
L 287.319256 59.623923 
L 295.000965 59.623785 
L 303.066759 59.623852 
L 311.535844 59.623932 
L 320.428382 59.623967 
L 329.765548 59.623971 
L 339.569572 59.623967 
L 349.863796 59.623964 
L 360.672733 59.623964 
L 372.022116 59.623964 
L 383.938968 59.623964 
L 396.451663 59.623964 
L 409.589992 59.623964 
L 423.385238 59.623964 
L 437.870246 59.623964 
L 453.079505 59.623964 
L 469.049227 59.623964 
L 485.817434 59.623964 
L 503.424052 59.623964 
L 521.911001 59.623964 
L 541.322298 59.623964 
L 561.704159 59.623964 
L 583.105113 59.623964 
L 605.576115 59.623964 
L 629.170667 59.623964 
L 653.944947 59.623964 
L 679.957941 59.623964 
L 707.271584 59.623964 
L 735.95091 59.623964 
L 766.064202 59.623964 
L 797.683158 59.623964 
L 830.883062 59.623964 
L 865.742962 59.623964 
L 902.345856 59.623964 
L 940.778895 59.623964 
L 954.389374 59.623964 
" clip-path="url(#p11f49e451c)" style="fill: none; stroke-dasharray: 8.32,2.08,1.3,2.08; stroke-dashoffset: 0; stroke: #000000; stroke-width: 1.3"/>
   </g>
   <g id="line2d_38">
    <path d="M 142.75301 458.004598 
L 143.206407 457.744515 
L 143.682474 456.416434 
L 144.182344 453.962027 
L 144.707207 450.330337 
L 145.258314 445.479762 
L 145.836976 439.380162 
L 146.444571 432.015091 
L 147.082546 423.384068 
L 147.75242 413.504855 
L 148.455787 402.415628 
L 149.194323 390.176963 
L 149.969785 376.873505 
L 150.784021 362.615184 
L 151.638969 347.53783 
L 152.536663 331.80302 
L 153.479243 315.596991 
L 154.468951 299.128471 
L 155.508145 282.625281 
L 156.599299 266.329612 
L 157.74501 250.491952 
L 158.948007 235.363668 
L 160.211154 221.188408 
L 161.537458 208.192574 
L 162.930077 196.575236 
L 164.392327 186.498049 
L 165.92769 178.075808 
L 167.539821 171.36843 
L 169.232558 166.375182 
L 171.009932 163.031993 
L 172.876175 161.212546 
L 174.835731 160.73367 
L 176.893263 161.3652 
L 179.053673 162.844006 
L 181.322103 164.891411 
L 183.703954 167.232636 
L 186.204898 169.616452 
L 188.83089 171.83289 
L 191.588181 173.726837 
L 194.483336 175.205629 
L 197.523249 176.239455 
L 200.715158 176.854403 
L 204.066662 177.119173 
L 207.585742 177.127617 
L 211.280775 176.980118 
L 215.16056 176.767014 
L 219.234335 176.556839 
L 223.511798 176.390978 
L 228.003134 176.2848 
L 232.719037 176.233825 
L 237.670735 176.222406 
L 242.870018 176.232181 
L 248.329266 176.248151 
L 254.061475 176.261423 
L 260.080295 176.268953 
L 266.400056 176.271514 
L 273.035806 176.271315 
L 280.003342 176.27031 
L 287.319256 176.269532 
L 295.000965 176.269206 
L 303.066759 176.269172 
L 311.535844 176.269227 
L 320.428382 176.26927 
L 329.765548 176.269282 
L 339.569572 176.269281 
L 349.863796 176.269278 
L 360.672733 176.269277 
L 372.022116 176.269277 
L 383.938968 176.269277 
L 396.451663 176.269277 
L 409.589992 176.269277 
L 423.385238 176.269277 
L 437.870246 176.269277 
L 453.079505 176.269277 
L 469.049227 176.269277 
L 485.817434 176.269277 
L 503.424052 176.269277 
L 521.911001 176.269277 
L 541.322298 176.269277 
L 561.704159 176.269277 
L 583.105113 176.269277 
L 605.576115 176.269277 
L 629.170667 176.269277 
L 653.944947 176.269277 
L 679.957941 176.269277 
L 707.271584 176.269277 
L 735.95091 176.269277 
L 766.064202 176.269277 
L 797.683158 176.269277 
L 830.883062 176.269277 
L 865.742962 176.269277 
L 902.345856 176.269277 
L 940.778895 176.269277 
L 954.389374 176.269277 
" clip-path="url(#p11f49e451c)" style="fill: none; stroke-dasharray: 1.8,2.97; stroke-dashoffset: 0; stroke: #000000; stroke-width: 1.8"/>
   </g>
   <g id="legend_1">
    <g id="patch_7">
     <path d="M 477.207039 304.991267 
L 980.971192 304.991267 
Q 984.971192 304.991267 984.971192 300.991267 
L 984.971192 191.488733 
Q 984.971192 187.488733 980.971192 187.488733 
L 477.207039 187.488733 
Q 473.207039 187.488733 473.207039 191.488733 
L 473.207039 300.991267 
Q 473.207039 304.991267 477.207039 304.991267 
z
" style="fill: #ffffff; opacity: 0.8; stroke: #cccccc; stroke-linejoin: miter"/>
    </g>
    <g id="line2d_39">
     <path d="M 481.207039 202.488733 
L 501.207039 202.488733 
L 521.207039 202.488733 
" style="fill: none; stroke: #000000; stroke-width: 1.2; stroke-linecap: square"/>
    </g>
    <g id="text_18">
     <!-- $\omega t = 0\:\unit{\degree}$ - - model -->
     <g transform="translate(537.207039 209.488733) scale(0.2 -0.2)">
      <defs>
       <path id="CMMI12-21" d="M 3802 2395 
C 3802 2580 3750 2816 3526 2816 
C 3398 2816 3251 2657 3251 2529 
C 3251 2472 3277 2434 3328 2376 
C 3424 2268 3546 2096 3546 1797 
C 3546 1567 3405 1204 3302 1007 
C 3123 656 2829 357 2496 357 
C 2093 357 1939 615 1869 975 
C 1939 1143 2086 1560 2086 1728 
C 2086 1798 2061 1856 1978 1856 
C 1933 1856 1882 1831 1850 1779 
C 1760 1638 1677 1129 1683 994 
C 1562 756 1216 357 806 357 
C 378 357 262 733 262 1096 
C 262 1758 678 2338 794 2497 
C 858 2593 902 2657 902 2669 
C 902 2714 877 2784 819 2784 
C 717 2784 685 2701 634 2625 
C 307 2121 77 1414 77 803 
C 77 408 224 -64 704 -64 
C 1235 -64 1568 391 1702 634 
C 1754 275 1946 -64 2413 -64 
C 2899 -64 3206 363 3437 879 
C 3603 1249 3802 2045 3802 2395 
z
" transform="scale(0.015625)"/>
       <path id="CMMI12-74" d="M 1286 2566 
L 1875 2566 
C 1997 2566 2061 2566 2061 2681 
C 2061 2752 2022 2752 1894 2752 
L 1331 2752 
L 1568 3692 
C 1594 3781 1594 3794 1594 3840 
C 1594 3943 1510 4000 1427 4000 
C 1376 4000 1229 3981 1178 3775 
L 928 2752 
L 326 2752 
C 198 2752 141 2752 141 2630 
C 141 2566 186 2566 307 2566 
L 877 2566 
L 454 881 
C 403 658 384 594 384 511 
C 384 211 595 -64 954 -64 
C 1600 -64 1946 868 1946 912 
C 1946 951 1920 970 1882 970 
C 1869 970 1843 970 1830 944 
C 1824 938 1818 931 1773 829 
C 1638 511 1344 64 973 64 
C 781 64 768 224 768 364 
C 768 370 768 492 787 568 
L 1286 2566 
z
" transform="scale(0.015625)"/>
       <path id="CMR17-3d" d="M 4115 2017 
C 4211 2017 4307 2017 4307 2125 
C 4307 2240 4198 2240 4090 2240 
L 512 2240 
C 403 2240 294 2240 294 2125 
C 294 2017 390 2017 486 2017 
L 4115 2017 
z
M 4090 896 
C 4198 896 4307 896 4307 1011 
C 4307 1119 4211 1119 4115 1119 
L 486 1119 
C 390 1119 294 1119 294 1011 
C 294 896 403 896 512 896 
L 4090 896 
z
" transform="scale(0.015625)"/>
       <path id="CMSY10-e" d="M 2842 1600 
C 2842 2277 2272 2828 1600 2828 
C 909 2828 352 2264 352 1600 
C 352 930 909 372 1600 372 
C 2272 372 2842 923 2842 1600 
z
M 1600 628 
C 1043 628 608 1070 608 1600 
C 608 2130 1050 2572 1600 2572 
C 2131 2572 2586 2142 2586 1600 
C 2586 1058 2131 628 1600 628 
z
" transform="scale(0.015625)"/>
       <path id="CMR17-7b" d="M 2970 1664 
L 2970 1766 
L -38 1766 
L -38 1664 
L 2970 1664 
z
" transform="scale(0.015625)"/>
       <path id="CMR17-6d" d="M 4326 1933 
C 4326 2252 4269 2790 3507 2790 
C 3072 2790 2771 2496 2656 2151 
L 2650 2151 
C 2573 2676 2195 2790 1837 2790 
C 1331 2790 1069 2400 973 2144 
L 966 2144 
L 966 2790 
L 211 2720 
L 211 2554 
C 589 2554 646 2515 646 2208 
L 646 428 
C 646 184 621 153 211 153 
L 211 -13 
C 365 0 646 0 813 0 
C 979 0 1267 0 1421 -13 
L 1421 153 
C 1011 153 986 178 986 428 
L 986 1658 
C 986 2247 1344 2688 1792 2688 
C 2266 2688 2317 2266 2317 1958 
L 2317 428 
C 2317 184 2291 153 1882 153 
L 1882 -13 
C 2035 0 2317 0 2483 0 
C 2650 0 2938 0 3091 -13 
L 3091 153 
C 2682 153 2656 178 2656 428 
L 2656 1658 
C 2656 2247 3014 2688 3462 2688 
C 3936 2688 3987 2266 3987 1958 
L 3987 428 
C 3987 184 3962 153 3552 153 
L 3552 -13 
C 3706 0 3987 0 4154 0 
C 4320 0 4608 0 4762 -13 
L 4762 153 
C 4352 153 4326 178 4326 428 
L 4326 1933 
z
" transform="scale(0.015625)"/>
       <path id="CMR17-6f" d="M 2758 1356 
C 2758 2176 2163 2816 1466 2816 
C 768 2816 173 2176 173 1356 
C 173 551 768 -64 1466 -64 
C 2163 -64 2758 551 2758 1356 
z
M 1466 51 
C 1165 51 909 230 762 480 
C 602 767 582 1126 582 1408 
C 582 1677 595 2010 762 2298 
C 890 2509 1139 2714 1466 2714 
C 1754 2714 1997 2554 2150 2330 
C 2349 2029 2349 1607 2349 1408 
C 2349 1158 2336 775 2163 467 
C 1984 173 1709 51 1466 51 
z
" transform="scale(0.015625)"/>
       <path id="CMR17-64" d="M 1869 4326 
L 1869 4160 
C 2246 4160 2304 4122 2304 3820 
L 2304 2345 
C 2278 2377 2016 2790 1498 2790 
C 845 2790 211 2208 211 1364 
C 211 525 806 -64 1434 -64 
C 1978 -64 2259 337 2291 380 
L 2291 -63 
L 3066 -63 
L 3066 128 
C 2688 128 2630 166 2630 473 
L 2630 4396 
L 1869 4326 
z
M 2291 755 
C 2291 563 2176 390 2029 262 
C 1811 70 1594 38 1472 38 
C 1286 38 621 134 621 1356 
C 621 2612 1363 2688 1530 2688 
C 1824 2688 2061 2522 2208 2291 
C 2291 2157 2291 2138 2291 2023 
L 2291 755 
z
" transform="scale(0.015625)"/>
       <path id="CMR17-65" d="M 2438 1472 
C 2464 1498 2464 1511 2464 1576 
C 2464 2238 2118 2816 1389 2816 
C 710 2816 173 2169 173 1383 
C 173 551 781 -64 1459 -64 
C 2176 -64 2458 607 2458 740 
C 2458 784 2419 784 2406 784 
C 2362 784 2355 771 2330 696 
C 2189 265 1837 51 1504 51 
C 1229 51 954 203 781 480 
C 582 803 582 1176 582 1472 
L 2438 1472 
z
M 589 1568 
C 634 2505 1126 2714 1382 2714 
C 1818 2714 2112 2297 2118 1568 
L 589 1568 
z
" transform="scale(0.015625)"/>
       <path id="CMR17-6c" d="M 979 4396 
L 218 4326 
L 218 4160 
C 595 4160 653 4122 653 3817 
L 653 426 
C 653 184 627 153 218 153 
L 218 -13 
C 371 0 653 0 813 0 
C 979 0 1261 0 1414 -13 
L 1414 153 
C 1005 153 979 178 979 426 
L 979 4396 
z
" transform="scale(0.015625)"/>
      </defs>
      <use xlink:href="#CMMI12-21" transform="scale(0.996264)"/>
      <use xlink:href="#CMMI12-74" transform="translate(64.318346 0) scale(0.996264)"/>
      <use xlink:href="#CMR17-3d" transform="translate(127.218685 0) scale(0.996264)"/>
      <use xlink:href="#CMR17-30" transform="translate(226.607482 0) scale(0.996264)"/>
      <use xlink:href="#CMSY10-e" transform="translate(294.437166 36.153639) scale(0.697382)"/>
      <use xlink:href="#CMR17-7b" transform="translate(359.880474 0) scale(0.996264)"/>
      <use xlink:href="#CMR17-6d" transform="translate(435.646918 0) scale(0.996264)"/>
      <use xlink:href="#CMR17-6f" transform="translate(512.566508 0) scale(0.996264)"/>
      <use xlink:href="#CMR17-64" transform="translate(560.859424 0) scale(0.996264)"/>
      <use xlink:href="#CMR17-65" transform="translate(611.754793 0) scale(0.996264)"/>
      <use xlink:href="#CMR17-6c" transform="translate(652.240454 0) scale(0.996264)"/>
     </g>
    </g>
    <g id="line2d_40">
     <path d="M 481.207039 230.364366 
L 501.207039 230.364366 
L 521.207039 230.364366 
" style="fill: none; stroke-dasharray: 4.44,1.92; stroke-dashoffset: 0; stroke: #000000; stroke-width: 1.2"/>
    </g>
    <g id="text_19">
     <!-- $\omega t = 45\:\unit{\degree}$ - - model -->
     <g transform="translate(537.207039 237.364366) scale(0.2 -0.2)">
      <use xlink:href="#CMMI12-21" transform="scale(0.996264)"/>
      <use xlink:href="#CMMI12-74" transform="translate(64.318346 0) scale(0.996264)"/>
      <use xlink:href="#CMR17-3d" transform="translate(127.218685 0) scale(0.996264)"/>
      <use xlink:href="#CMR17-34" transform="translate(226.607482 0) scale(0.996264)"/>
      <use xlink:href="#CMR17-35" transform="translate(272.297959 0) scale(0.996264)"/>
      <use xlink:href="#CMSY10-e" transform="translate(340.127643 36.153639) scale(0.697382)"/>
      <use xlink:href="#CMR17-7b" transform="translate(405.570952 0) scale(0.996264)"/>
      <use xlink:href="#CMR17-6d" transform="translate(481.337395 0) scale(0.996264)"/>
      <use xlink:href="#CMR17-6f" transform="translate(558.256985 0) scale(0.996264)"/>
      <use xlink:href="#CMR17-64" transform="translate(606.549901 0) scale(0.996264)"/>
      <use xlink:href="#CMR17-65" transform="translate(657.445271 0) scale(0.996264)"/>
      <use xlink:href="#CMR17-6c" transform="translate(697.930931 0) scale(0.996264)"/>
     </g>
    </g>
    <g id="line2d_41">
     <path d="M 481.207039 258.24 
L 501.207039 258.24 
L 521.207039 258.24 
" style="fill: none; stroke-dasharray: 8.32,2.08,1.3,2.08; stroke-dashoffset: 0; stroke: #000000; stroke-width: 1.3"/>
    </g>
    <g id="text_20">
     <!-- $\omega t = 90\:\unit{\degree}$ - - model -->
     <g transform="translate(537.207039 265.24) scale(0.2 -0.2)">
      <defs>
       <path id="CMR17-39" d="M 2253 1864 
C 2253 464 1670 31 1190 31 
C 1043 31 685 31 538 294 
C 704 268 826 357 826 518 
C 826 692 685 749 595 749 
C 538 749 365 723 365 506 
C 365 71 742 -128 1203 -128 
C 1939 -128 2688 674 2688 2073 
C 2688 3817 1971 4179 1485 4179 
C 851 4179 243 3628 243 2778 
C 243 1991 762 1408 1414 1408 
C 1952 1408 2189 1903 2253 2112 
L 2253 1864 
z
M 1427 1510 
C 1254 1510 1011 1542 813 1922 
C 678 2169 678 2461 678 2771 
C 678 3146 678 3405 858 3684 
C 947 3817 1114 4032 1485 4032 
C 2240 4032 2240 2885 2240 2632 
C 2240 2182 2035 1510 1427 1510 
z
" transform="scale(0.015625)"/>
      </defs>
      <use xlink:href="#CMMI12-21" transform="scale(0.996264)"/>
      <use xlink:href="#CMMI12-74" transform="translate(64.318346 0) scale(0.996264)"/>
      <use xlink:href="#CMR17-3d" transform="translate(127.218685 0) scale(0.996264)"/>
      <use xlink:href="#CMR17-39" transform="translate(226.607482 0) scale(0.996264)"/>
      <use xlink:href="#CMR17-30" transform="translate(272.297959 0) scale(0.996264)"/>
      <use xlink:href="#CMSY10-e" transform="translate(340.127643 36.153639) scale(0.697382)"/>
      <use xlink:href="#CMR17-7b" transform="translate(405.570952 0) scale(0.996264)"/>
      <use xlink:href="#CMR17-6d" transform="translate(481.337395 0) scale(0.996264)"/>
      <use xlink:href="#CMR17-6f" transform="translate(558.256985 0) scale(0.996264)"/>
      <use xlink:href="#CMR17-64" transform="translate(606.549901 0) scale(0.996264)"/>
      <use xlink:href="#CMR17-65" transform="translate(657.445271 0) scale(0.996264)"/>
      <use xlink:href="#CMR17-6c" transform="translate(697.930931 0) scale(0.996264)"/>
     </g>
    </g>
    <g id="line2d_42">
     <path d="M 481.207039 286.115634 
L 501.207039 286.115634 
L 521.207039 286.115634 
" style="fill: none; stroke-dasharray: 1.8,2.97; stroke-dashoffset: 0; stroke: #000000; stroke-width: 1.8"/>
    </g>
    <g id="text_21">
     <!-- $\omega t = 135\:\unit{\degree}$ - - model -->
     <g transform="translate(537.207039 293.115634) scale(0.2 -0.2)">
      <use xlink:href="#CMMI12-21" transform="scale(0.996264)"/>
      <use xlink:href="#CMMI12-74" transform="translate(64.318346 0) scale(0.996264)"/>
      <use xlink:href="#CMR17-3d" transform="translate(127.218685 0) scale(0.996264)"/>
      <use xlink:href="#CMR17-31" transform="translate(226.607482 0) scale(0.996264)"/>
      <use xlink:href="#CMR17-33" transform="translate(272.297959 0) scale(0.996264)"/>
      <use xlink:href="#CMR17-35" transform="translate(317.988436 0) scale(0.996264)"/>
      <use xlink:href="#CMSY10-e" transform="translate(385.81812 36.153639) scale(0.697382)"/>
      <use xlink:href="#CMR17-7b" transform="translate(451.261429 0) scale(0.996264)"/>
      <use xlink:href="#CMR17-6d" transform="translate(527.027872 0) scale(0.996264)"/>
      <use xlink:href="#CMR17-6f" transform="translate(603.947462 0) scale(0.996264)"/>
      <use xlink:href="#CMR17-64" transform="translate(652.240378 0) scale(0.996264)"/>
      <use xlink:href="#CMR17-65" transform="translate(703.135748 0) scale(0.996264)"/>
      <use xlink:href="#CMR17-6c" transform="translate(743.621408 0) scale(0.996264)"/>
     </g>
    </g>
    <g id="line2d_43">
     <path d="M 731.303813 202.488733 
L 751.303813 202.488733 
L 771.303813 202.488733 
" style="fill: none; stroke: #000000; stroke-opacity: 0.5; stroke-width: 1.2; stroke-linecap: square"/>
    </g>
    <g id="text_22">
     <!-- $\omega t = 0\:\unit{\degree}$ - - theoretical -->
     <g transform="translate(787.303813 209.488733) scale(0.2 -0.2)">
      <defs>
       <path id="CMR17-74" d="M 966 2560 
L 1862 2560 
L 1862 2725 
L 966 2725 
L 966 3904 
L 851 3904 
C 838 3245 614 2668 70 2668 
L 70 2560 
L 627 2560 
L 627 771 
C 627 650 627 -64 1370 -64 
C 1747 -64 1965 306 1965 777 
L 1965 1140 
L 1850 1140 
L 1850 783 
C 1850 344 1677 51 1408 51 
C 1222 51 966 178 966 758 
L 966 2560 
z
" transform="scale(0.015625)"/>
       <path id="CMR17-68" d="M 2656 1933 
C 2656 2259 2592 2790 1837 2790 
C 1312 2790 1056 2368 979 2157 
L 973 2157 
L 973 4396 
L 211 4326 
L 211 4160 
C 589 4160 646 4122 646 3817 
L 646 426 
C 646 184 621 153 211 153 
L 211 -13 
C 365 0 646 0 813 0 
C 979 0 1267 0 1421 -13 
L 1421 153 
C 1011 153 986 178 986 428 
L 986 1658 
C 986 2247 1344 2688 1792 2688 
C 2266 2688 2317 2266 2317 1958 
L 2317 428 
C 2317 184 2291 153 1882 153 
L 1882 -13 
C 2035 0 2317 0 2483 0 
C 2650 0 2938 0 3091 -13 
L 3091 153 
C 2682 153 2656 178 2656 428 
L 2656 1933 
z
" transform="scale(0.015625)"/>
       <path id="CMR17-72" d="M 960 1497 
C 960 2112 1222 2688 1702 2688 
C 1747 2688 1792 2682 1837 2662 
C 1837 2662 1696 2617 1696 2452 
C 1696 2298 1818 2234 1914 2234 
C 1990 2234 2131 2279 2131 2458 
C 2131 2663 1926 2790 1709 2790 
C 1222 2790 1011 2317 947 2093 
L 941 2093 
L 941 2790 
L 198 2720 
L 198 2554 
C 576 2554 634 2515 634 2208 
L 634 428 
C 634 184 608 153 198 153 
L 198 -13 
C 352 0 646 0 813 0 
C 998 0 1325 0 1498 -13 
L 1498 153 
C 1037 153 960 153 960 440 
L 960 1497 
z
" transform="scale(0.015625)"/>
       <path id="CMR17-69" d="M 992 3909 
C 992 4049 877 4170 730 4170 
C 589 4170 467 4056 467 3909 
C 467 3769 582 3648 730 3648 
C 870 3648 992 3763 992 3909 
z
M 243 2706 
L 243 2541 
C 602 2541 653 2502 653 2197 
L 653 427 
C 653 184 627 153 218 153 
L 218 -13 
C 371 0 646 0 806 0 
C 960 0 1222 0 1370 -13 
L 1370 153 
C 992 153 979 191 979 420 
L 979 2776 
L 243 2706 
z
" transform="scale(0.015625)"/>
       <path id="CMR17-63" d="M 2234 2240 
C 2112 2240 1933 2240 1933 2017 
C 1933 1838 2080 1787 2163 1787 
C 2208 1787 2394 1807 2394 2024 
C 2394 2467 1958 2803 1466 2803 
C 787 2803 211 2178 211 1363 
C 211 516 813 -64 1466 -64 
C 2259 -64 2458 677 2458 748 
C 2458 774 2451 793 2406 793 
C 2362 793 2355 787 2330 703 
C 2163 180 1798 51 1523 51 
C 1114 51 621 427 621 1369 
C 621 2338 1094 2688 1472 2688 
C 1722 2688 2093 2573 2234 2240 
z
" transform="scale(0.015625)"/>
       <path id="CMR17-61" d="M 2304 1653 
C 2304 2072 2304 2294 2035 2543 
C 1798 2752 1523 2816 1306 2816 
C 800 2816 435 2407 435 1971 
C 435 1728 627 1728 666 1728 
C 749 1728 896 1778 896 1954 
C 896 2112 774 2181 666 2181 
C 640 2181 608 2174 589 2168 
C 723 2592 1069 2714 1293 2714 
C 1613 2714 1965 2429 1965 1885 
L 1965 1600 
C 1587 1600 1133 1549 774 1357 
C 371 1133 256 813 256 570 
C 256 77 832 -64 1171 -64 
C 1523 -64 1850 139 1990 511 
C 2003 233 2182 -18 2464 -18 
C 2598 -18 2938 70 2938 567 
L 2938 920 
L 2822 920 
L 2822 562 
C 2822 178 2650 128 2566 128 
C 2304 128 2304 458 2304 738 
L 2304 1653 
z
M 1965 870 
C 1965 317 1568 38 1216 38 
C 896 38 646 275 646 570 
C 646 761 730 1100 1101 1305 
C 1408 1478 1760 1504 1965 1504 
L 1965 870 
z
" transform="scale(0.015625)"/>
      </defs>
      <use xlink:href="#CMMI12-21" transform="scale(0.996264)"/>
      <use xlink:href="#CMMI12-74" transform="translate(64.318346 0) scale(0.996264)"/>
      <use xlink:href="#CMR17-3d" transform="translate(127.218685 0) scale(0.996264)"/>
      <use xlink:href="#CMR17-30" transform="translate(226.607482 0) scale(0.996264)"/>
      <use xlink:href="#CMSY10-e" transform="translate(294.437166 36.153639) scale(0.697382)"/>
      <use xlink:href="#CMR17-7b" transform="translate(359.880474 0) scale(0.996264)"/>
      <use xlink:href="#CMR17-74" transform="translate(435.646918 0) scale(0.996264)"/>
      <use xlink:href="#CMR17-68" transform="translate(470.927686 0) scale(0.996264)"/>
      <use xlink:href="#CMR17-65" transform="translate(521.823056 0) scale(0.996264)"/>
      <use xlink:href="#CMR17-6f" transform="translate(562.308716 0) scale(0.996264)"/>
      <use xlink:href="#CMR17-72" transform="translate(607.999193 0) scale(0.996264)"/>
      <use xlink:href="#CMR17-65" transform="translate(643.279961 0) scale(0.996264)"/>
      <use xlink:href="#CMR17-74" transform="translate(683.765621 0) scale(0.996264)"/>
      <use xlink:href="#CMR17-69" transform="translate(719.046389 0) scale(0.996264)"/>
      <use xlink:href="#CMR17-63" transform="translate(743.917448 0) scale(0.996264)"/>
      <use xlink:href="#CMR17-61" transform="translate(784.403108 0) scale(0.996264)"/>
      <use xlink:href="#CMR17-6c" transform="translate(830.093585 0) scale(0.996264)"/>
     </g>
    </g>
    <g id="line2d_44">
     <path d="M 731.303813 230.364366 
L 751.303813 230.364366 
L 771.303813 230.364366 
" style="fill: none; stroke-dasharray: 4.44,1.92; stroke-dashoffset: 0; stroke: #000000; stroke-opacity: 0.5; stroke-width: 1.2"/>
    </g>
    <g id="text_23">
     <!-- $\omega t = 45\:\unit{\degree}$ - - theoretical -->
     <g transform="translate(787.303813 237.364366) scale(0.2 -0.2)">
      <use xlink:href="#CMMI12-21" transform="scale(0.996264)"/>
      <use xlink:href="#CMMI12-74" transform="translate(64.318346 0) scale(0.996264)"/>
      <use xlink:href="#CMR17-3d" transform="translate(127.218685 0) scale(0.996264)"/>
      <use xlink:href="#CMR17-34" transform="translate(226.607482 0) scale(0.996264)"/>
      <use xlink:href="#CMR17-35" transform="translate(272.297959 0) scale(0.996264)"/>
      <use xlink:href="#CMSY10-e" transform="translate(340.127643 36.153639) scale(0.697382)"/>
      <use xlink:href="#CMR17-7b" transform="translate(405.570952 0) scale(0.996264)"/>
      <use xlink:href="#CMR17-74" transform="translate(481.337395 0) scale(0.996264)"/>
      <use xlink:href="#CMR17-68" transform="translate(516.618163 0) scale(0.996264)"/>
      <use xlink:href="#CMR17-65" transform="translate(567.513533 0) scale(0.996264)"/>
      <use xlink:href="#CMR17-6f" transform="translate(607.999193 0) scale(0.996264)"/>
      <use xlink:href="#CMR17-72" transform="translate(653.68967 0) scale(0.996264)"/>
      <use xlink:href="#CMR17-65" transform="translate(688.970438 0) scale(0.996264)"/>
      <use xlink:href="#CMR17-74" transform="translate(729.456098 0) scale(0.996264)"/>
      <use xlink:href="#CMR17-69" transform="translate(764.736866 0) scale(0.996264)"/>
      <use xlink:href="#CMR17-63" transform="translate(789.607925 0) scale(0.996264)"/>
      <use xlink:href="#CMR17-61" transform="translate(830.093585 0) scale(0.996264)"/>
      <use xlink:href="#CMR17-6c" transform="translate(875.784062 0) scale(0.996264)"/>
     </g>
    </g>
    <g id="line2d_45">
     <path d="M 731.303813 258.24 
L 751.303813 258.24 
L 771.303813 258.24 
" style="fill: none; stroke-dasharray: 8.32,2.08,1.3,2.08; stroke-dashoffset: 0; stroke: #000000; stroke-opacity: 0.5; stroke-width: 1.3"/>
    </g>
    <g id="text_24">
     <!-- $\omega t = 90\:\unit{\degree}$ - - theoretical -->
     <g transform="translate(787.303813 265.24) scale(0.2 -0.2)">
      <use xlink:href="#CMMI12-21" transform="scale(0.996264)"/>
      <use xlink:href="#CMMI12-74" transform="translate(64.318346 0) scale(0.996264)"/>
      <use xlink:href="#CMR17-3d" transform="translate(127.218685 0) scale(0.996264)"/>
      <use xlink:href="#CMR17-39" transform="translate(226.607482 0) scale(0.996264)"/>
      <use xlink:href="#CMR17-30" transform="translate(272.297959 0) scale(0.996264)"/>
      <use xlink:href="#CMSY10-e" transform="translate(340.127643 36.153639) scale(0.697382)"/>
      <use xlink:href="#CMR17-7b" transform="translate(405.570952 0) scale(0.996264)"/>
      <use xlink:href="#CMR17-74" transform="translate(481.337395 0) scale(0.996264)"/>
      <use xlink:href="#CMR17-68" transform="translate(516.618163 0) scale(0.996264)"/>
      <use xlink:href="#CMR17-65" transform="translate(567.513533 0) scale(0.996264)"/>
      <use xlink:href="#CMR17-6f" transform="translate(607.999193 0) scale(0.996264)"/>
      <use xlink:href="#CMR17-72" transform="translate(653.68967 0) scale(0.996264)"/>
      <use xlink:href="#CMR17-65" transform="translate(688.970438 0) scale(0.996264)"/>
      <use xlink:href="#CMR17-74" transform="translate(729.456098 0) scale(0.996264)"/>
      <use xlink:href="#CMR17-69" transform="translate(764.736866 0) scale(0.996264)"/>
      <use xlink:href="#CMR17-63" transform="translate(789.607925 0) scale(0.996264)"/>
      <use xlink:href="#CMR17-61" transform="translate(830.093585 0) scale(0.996264)"/>
      <use xlink:href="#CMR17-6c" transform="translate(875.784062 0) scale(0.996264)"/>
     </g>
    </g>
    <g id="line2d_46">
     <path d="M 731.303813 286.115634 
L 751.303813 286.115634 
L 771.303813 286.115634 
" style="fill: none; stroke-dasharray: 1.8,2.97; stroke-dashoffset: 0; stroke: #000000; stroke-opacity: 0.5; stroke-width: 1.8"/>
    </g>
    <g id="text_25">
     <!-- $\omega t = 135\:\unit{\degree}$ - - theoretical -->
     <g transform="translate(787.303813 293.115634) scale(0.2 -0.2)">
      <use xlink:href="#CMMI12-21" transform="scale(0.996264)"/>
      <use xlink:href="#CMMI12-74" transform="translate(64.318346 0) scale(0.996264)"/>
      <use xlink:href="#CMR17-3d" transform="translate(127.218685 0) scale(0.996264)"/>
      <use xlink:href="#CMR17-31" transform="translate(226.607482 0) scale(0.996264)"/>
      <use xlink:href="#CMR17-33" transform="translate(272.297959 0) scale(0.996264)"/>
      <use xlink:href="#CMR17-35" transform="translate(317.988436 0) scale(0.996264)"/>
      <use xlink:href="#CMSY10-e" transform="translate(385.81812 36.153639) scale(0.697382)"/>
      <use xlink:href="#CMR17-7b" transform="translate(451.261429 0) scale(0.996264)"/>
      <use xlink:href="#CMR17-74" transform="translate(527.027872 0) scale(0.996264)"/>
      <use xlink:href="#CMR17-68" transform="translate(562.30864 0) scale(0.996264)"/>
      <use xlink:href="#CMR17-65" transform="translate(613.20401 0) scale(0.996264)"/>
      <use xlink:href="#CMR17-6f" transform="translate(653.68967 0) scale(0.996264)"/>
      <use xlink:href="#CMR17-72" transform="translate(699.380147 0) scale(0.996264)"/>
      <use xlink:href="#CMR17-65" transform="translate(734.660915 0) scale(0.996264)"/>
      <use xlink:href="#CMR17-74" transform="translate(775.146576 0) scale(0.996264)"/>
      <use xlink:href="#CMR17-69" transform="translate(810.427343 0) scale(0.996264)"/>
      <use xlink:href="#CMR17-63" transform="translate(835.298402 0) scale(0.996264)"/>
      <use xlink:href="#CMR17-61" transform="translate(875.784062 0) scale(0.996264)"/>
      <use xlink:href="#CMR17-6c" transform="translate(921.474539 0) scale(0.996264)"/>
     </g>
    </g>
   </g>
  </g>
 </g>
 <defs>
  <clipPath id="p11f49e451c">
   <rect x="102.171192" y="7.2" width="892.8" height="478.08"/>
  </clipPath>
 </defs>
</svg>
