<?xml version="1.0" encoding="utf-8" standalone="no"?>
<!DOCTYPE svg PUBLIC "-//W3C//DTD SVG 1.1//EN"
  "http://www.w3.org/Graphics/SVG/1.1/DTD/svg11.dtd">
<svg xmlns:xlink="http://www.w3.org/1999/xlink" width="1208.304475pt" height="700.988196pt" viewBox="0 0 1208.304475 700.988196" xmlns="http://www.w3.org/2000/svg" version="1.1">
 <metadata>
  <rdf:RDF xmlns:dc="http://purl.org/dc/elements/1.1/" xmlns:cc="http://creativecommons.org/ns#" xmlns:rdf="http://www.w3.org/1999/02/22-rdf-syntax-ns#">
   <cc:Work>
    <dc:type rdf:resource="http://purl.org/dc/dcmitype/StillImage"/>
    <dc:date>2024-10-22T14:46:28.852278</dc:date>
    <dc:format>image/svg+xml</dc:format>
    <dc:creator>
     <cc:Agent>
      <dc:title>Matplotlib v3.8.4, https://matplotlib.org/</dc:title>
     </cc:Agent>
    </dc:creator>
   </cc:Work>
  </rdf:RDF>
 </metadata>
 <defs>
  <style type="text/css">*{stroke-linejoin: round; stroke-linecap: butt}</style>
 </defs>
 <g id="figure_1">
  <g id="patch_1">
   <path d="M -0 700.988196 
L 1208.304475 700.988196 
L 1208.304475 0 
L -0 0 
z
" style="fill: #ffffff"/>
  </g>
  <g id="axes_1">
   <g id="patch_2">
    <path d="M 93.440322 604.8 
L 651.440322 604.8 
L 651.440322 7.2 
L 93.440322 7.2 
z
" style="fill: #ffffff"/>
   </g>
   <g id="matplotlib.axis_1">
    <g id="xtick_1">
     <g id="line2d_1">
      <path d="M 126.873179 604.8 
L 126.873179 7.2 
" clip-path="url(#pb42923b522)" style="fill: none; stroke: #b0b0b0; stroke-width: 0.8; stroke-linecap: square"/>
     </g>
     <g id="line2d_2">
      <defs>
       <path id="m8759b4d564" d="M 0 0 
L 0 3.5 
" style="stroke: #000000; stroke-width: 0.8"/>
      </defs>
      <g>
       <use xlink:href="#m8759b4d564" x="126.873179" y="604.8" style="stroke: #000000; stroke-width: 0.8"/>
      </g>
     </g>
     <g id="text_1">
      <!-- $\mathdefault{0.0}$ -->
      <g transform="translate(115.025366 627.136997) scale(0.2 -0.2)">
       <defs>
        <path id="CMR17-30" d="M 2688 2025 
C 2688 2416 2682 3080 2413 3591 
C 2176 4039 1798 4198 1466 4198 
C 1158 4198 768 4058 525 3597 
C 269 3118 243 2524 243 2025 
C 243 1661 250 1106 448 619 
C 723 -39 1216 -128 1466 -128 
C 1760 -128 2208 -7 2470 600 
C 2662 1042 2688 1559 2688 2025 
z
M 1466 -26 
C 1056 -26 813 325 723 812 
C 653 1188 653 1738 653 2096 
C 653 2588 653 2997 736 3387 
C 858 3929 1216 4096 1466 4096 
C 1728 4096 2067 3923 2189 3400 
C 2272 3036 2278 2607 2278 2096 
C 2278 1680 2278 1169 2202 792 
C 2067 95 1690 -26 1466 -26 
z
" transform="scale(0.015625)"/>
        <path id="CMMI12-3a" d="M 1178 307 
C 1178 492 1024 619 870 619 
C 685 619 557 466 557 313 
C 557 128 710 0 864 0 
C 1050 0 1178 153 1178 307 
z
" transform="scale(0.015625)"/>
       </defs>
       <use xlink:href="#CMR17-30" transform="scale(0.996264)"/>
       <use xlink:href="#CMMI12-3a" transform="translate(45.690477 0) scale(0.996264)"/>
       <use xlink:href="#CMR17-30" transform="translate(72.787654 0) scale(0.996264)"/>
      </g>
     </g>
    </g>
    <g id="xtick_2">
     <g id="line2d_3">
      <path d="M 219.744885 604.8 
L 219.744885 7.2 
" clip-path="url(#pb42923b522)" style="fill: none; stroke: #b0b0b0; stroke-width: 0.8; stroke-linecap: square"/>
     </g>
     <g id="line2d_4">
      <g>
       <use xlink:href="#m8759b4d564" x="219.744885" y="604.8" style="stroke: #000000; stroke-width: 0.8"/>
      </g>
     </g>
     <g id="text_2">
      <!-- $\mathdefault{0.2}$ -->
      <g transform="translate(207.897072 627.136997) scale(0.2 -0.2)">
       <defs>
        <path id="CMR17-32" d="M 2669 989 
L 2554 989 
C 2490 536 2438 459 2413 420 
C 2381 369 1920 369 1830 369 
L 602 369 
C 832 619 1280 1072 1824 1597 
C 2214 1967 2669 2402 2669 3035 
C 2669 3790 2067 4224 1395 4224 
C 691 4224 262 3604 262 3030 
C 262 2780 448 2748 525 2748 
C 589 2748 781 2787 781 3010 
C 781 3207 614 3264 525 3264 
C 486 3264 448 3258 422 3245 
C 544 3790 915 4058 1306 4058 
C 1862 4058 2227 3617 2227 3035 
C 2227 2479 1901 2000 1536 1584 
L 262 146 
L 262 0 
L 2515 0 
L 2669 989 
z
" transform="scale(0.015625)"/>
       </defs>
       <use xlink:href="#CMR17-30" transform="scale(0.996264)"/>
       <use xlink:href="#CMMI12-3a" transform="translate(45.690477 0) scale(0.996264)"/>
       <use xlink:href="#CMR17-32" transform="translate(72.787654 0) scale(0.996264)"/>
      </g>
     </g>
    </g>
    <g id="xtick_3">
     <g id="line2d_5">
      <path d="M 312.616591 604.8 
L 312.616591 7.2 
" clip-path="url(#pb42923b522)" style="fill: none; stroke: #b0b0b0; stroke-width: 0.8; stroke-linecap: square"/>
     </g>
     <g id="line2d_6">
      <g>
       <use xlink:href="#m8759b4d564" x="312.616591" y="604.8" style="stroke: #000000; stroke-width: 0.8"/>
      </g>
     </g>
     <g id="text_3">
      <!-- $\mathdefault{0.4}$ -->
      <g transform="translate(300.768778 627.136997) scale(0.2 -0.2)">
       <defs>
        <path id="CMR17-34" d="M 2150 4122 
C 2150 4256 2144 4256 2029 4256 
L 128 1254 
L 128 1088 
L 1779 1088 
L 1779 457 
C 1779 224 1766 160 1318 160 
L 1197 160 
L 1197 0 
C 1402 0 1747 0 1965 0 
C 2182 0 2528 0 2733 0 
L 2733 160 
L 2611 160 
C 2163 160 2150 224 2150 457 
L 2150 1088 
L 2803 1088 
L 2803 1254 
L 2150 1254 
L 2150 4122 
z
M 1798 3703 
L 1798 1254 
L 256 1254 
L 1798 3703 
z
" transform="scale(0.015625)"/>
       </defs>
       <use xlink:href="#CMR17-30" transform="scale(0.996264)"/>
       <use xlink:href="#CMMI12-3a" transform="translate(45.690477 0) scale(0.996264)"/>
       <use xlink:href="#CMR17-34" transform="translate(72.787654 0) scale(0.996264)"/>
      </g>
     </g>
    </g>
    <g id="xtick_4">
     <g id="line2d_7">
      <path d="M 405.488296 604.8 
L 405.488296 7.2 
" clip-path="url(#pb42923b522)" style="fill: none; stroke: #b0b0b0; stroke-width: 0.8; stroke-linecap: square"/>
     </g>
     <g id="line2d_8">
      <g>
       <use xlink:href="#m8759b4d564" x="405.488296" y="604.8" style="stroke: #000000; stroke-width: 0.8"/>
      </g>
     </g>
     <g id="text_4">
      <!-- $\mathdefault{0.6}$ -->
      <g transform="translate(393.640483 627.136997) scale(0.2 -0.2)">
       <defs>
        <path id="CMR17-36" d="M 678 2176 
C 678 3690 1395 4032 1811 4032 
C 1946 4032 2272 4009 2400 3776 
C 2298 3776 2106 3776 2106 3553 
C 2106 3381 2246 3323 2336 3323 
C 2394 3323 2566 3348 2566 3560 
C 2566 3954 2246 4179 1805 4179 
C 1043 4179 243 3390 243 1984 
C 243 253 966 -128 1478 -128 
C 2099 -128 2688 427 2688 1283 
C 2688 2081 2170 2662 1517 2662 
C 1126 2662 838 2407 678 1960 
L 678 2176 
z
M 1478 25 
C 691 25 691 1200 691 1436 
C 691 1896 909 2560 1504 2560 
C 1613 2560 1926 2560 2138 2120 
C 2253 1870 2253 1609 2253 1289 
C 2253 944 2253 690 2118 434 
C 1978 171 1773 25 1478 25 
z
" transform="scale(0.015625)"/>
       </defs>
       <use xlink:href="#CMR17-30" transform="scale(0.996264)"/>
       <use xlink:href="#CMMI12-3a" transform="translate(45.690477 0) scale(0.996264)"/>
       <use xlink:href="#CMR17-36" transform="translate(72.787654 0) scale(0.996264)"/>
      </g>
     </g>
    </g>
    <g id="xtick_5">
     <g id="line2d_9">
      <path d="M 498.360002 604.8 
L 498.360002 7.2 
" clip-path="url(#pb42923b522)" style="fill: none; stroke: #b0b0b0; stroke-width: 0.8; stroke-linecap: square"/>
     </g>
     <g id="line2d_10">
      <g>
       <use xlink:href="#m8759b4d564" x="498.360002" y="604.8" style="stroke: #000000; stroke-width: 0.8"/>
      </g>
     </g>
     <g id="text_5">
      <!-- $\mathdefault{0.8}$ -->
      <g transform="translate(486.512189 627.136997) scale(0.2 -0.2)">
       <defs>
        <path id="CMR17-38" d="M 1741 2264 
C 2144 2467 2554 2773 2554 3263 
C 2554 3841 1990 4179 1472 4179 
C 890 4179 378 3759 378 3180 
C 378 3021 416 2747 666 2505 
C 730 2442 998 2251 1171 2130 
C 883 1983 211 1634 211 934 
C 211 279 838 -128 1459 -128 
C 2144 -128 2720 362 2720 1010 
C 2720 1590 2330 1857 2074 2029 
L 1741 2264 
z
M 902 2822 
C 851 2854 595 3051 595 3351 
C 595 3739 998 4032 1459 4032 
C 1965 4032 2336 3676 2336 3262 
C 2336 2669 1670 2331 1638 2331 
C 1632 2331 1626 2331 1574 2370 
L 902 2822 
z
M 2080 1519 
C 2176 1449 2483 1240 2483 851 
C 2483 381 2010 25 1472 25 
C 890 25 448 438 448 940 
C 448 1443 838 1862 1280 2060 
L 2080 1519 
z
" transform="scale(0.015625)"/>
       </defs>
       <use xlink:href="#CMR17-30" transform="scale(0.996264)"/>
       <use xlink:href="#CMMI12-3a" transform="translate(45.690477 0) scale(0.996264)"/>
       <use xlink:href="#CMR17-38" transform="translate(72.787654 0) scale(0.996264)"/>
      </g>
     </g>
    </g>
    <g id="xtick_6">
     <g id="line2d_11">
      <path d="M 591.231708 604.8 
L 591.231708 7.2 
" clip-path="url(#pb42923b522)" style="fill: none; stroke: #b0b0b0; stroke-width: 0.8; stroke-linecap: square"/>
     </g>
     <g id="line2d_12">
      <g>
       <use xlink:href="#m8759b4d564" x="591.231708" y="604.8" style="stroke: #000000; stroke-width: 0.8"/>
      </g>
     </g>
     <g id="text_6">
      <!-- $\mathdefault{1.0}$ -->
      <g transform="translate(579.383895 627.136997) scale(0.2 -0.2)">
       <defs>
        <path id="CMR17-31" d="M 1702 4058 
C 1702 4192 1696 4192 1606 4192 
C 1357 3916 979 3827 621 3827 
C 602 3827 570 3827 563 3808 
C 557 3795 557 3782 557 3648 
C 755 3648 1088 3686 1344 3839 
L 1344 461 
C 1344 236 1331 160 781 160 
L 589 160 
L 589 0 
C 896 0 1216 0 1523 0 
C 1830 0 2150 0 2458 0 
L 2458 160 
L 2266 160 
C 1715 160 1702 230 1702 458 
L 1702 4058 
z
" transform="scale(0.015625)"/>
       </defs>
       <use xlink:href="#CMR17-31" transform="scale(0.996264)"/>
       <use xlink:href="#CMMI12-3a" transform="translate(45.690477 0) scale(0.996264)"/>
       <use xlink:href="#CMR17-30" transform="translate(72.787654 0) scale(0.996264)"/>
      </g>
     </g>
    </g>
    <g id="text_7">
     <!-- $\frac{u}{U_{0m}}$ -->
     <g transform="translate(351.212804 676.98223) scale(0.375 -0.375)">
      <defs>
       <path id="CMMI12-75" d="M 2182 370 
C 2266 13 2573 -64 2726 -64 
C 2931 -64 3085 70 3187 287 
C 3296 517 3379 894 3379 913 
C 3379 945 3354 971 3315 971 
C 3258 971 3251 939 3226 843 
C 3110 402 2995 64 2739 64 
C 2547 64 2547 275 2547 358 
C 2547 505 2566 568 2630 837 
C 2675 1009 2720 1181 2758 1360 
L 3021 2401 
C 3066 2561 3066 2574 3066 2593 
C 3066 2689 2989 2753 2893 2753 
C 2707 2753 2662 2593 2624 2433 
C 2560 2184 2214 811 2170 588 
C 2163 588 1914 64 1446 64 
C 1114 64 1050 351 1050 588 
C 1050 952 1229 1462 1395 1890 
C 1472 2095 1504 2178 1504 2305 
C 1504 2580 1306 2816 998 2816 
C 410 2816 173 1890 173 1839 
C 173 1814 198 1782 243 1782 
C 301 1782 307 1807 333 1896 
C 486 2441 736 2682 979 2682 
C 1043 2682 1146 2682 1146 2478 
C 1146 2312 1075 2127 979 1884 
C 698 1124 666 881 666 690 
C 666 38 1158 -64 1421 -64 
C 1830 -64 2054 217 2182 370 
z
" transform="scale(0.015625)"/>
       <path id="CMMI12-55" d="M 3238 1474 
C 3014 581 2272 57 1670 57 
C 1210 57 896 363 896 891 
C 896 916 896 1107 966 1387 
L 1594 3887 
C 1651 4103 1664 4167 2118 4167 
C 2234 4167 2298 4167 2298 4282 
C 2298 4352 2240 4352 2202 4352 
C 2086 4352 1952 4352 1830 4352 
L 1075 4352 
C 954 4352 819 4352 698 4352 
C 653 4352 576 4352 576 4231 
C 576 4167 621 4167 742 4167 
C 1126 4167 1126 4116 1126 4046 
C 1126 4008 1082 3824 1050 3715 
L 493 1488 
C 474 1418 435 1246 435 1075 
C 435 374 941 -128 1638 -128 
C 2285 -128 3002 384 3328 1197 
C 3373 1305 3430 1530 3469 1702 
C 3533 1933 3667 2496 3712 2662 
L 3955 3623 
C 4038 3956 4090 4167 4653 4167 
C 4704 4173 4730 4224 4730 4282 
C 4730 4352 4672 4352 4646 4352 
C 4557 4352 4442 4352 4352 4352 
L 4051 4352 
C 3654 4352 3450 4352 3443 4352 
C 3405 4352 3328 4352 3328 4231 
C 3328 4167 3379 4167 3424 4167 
C 3808 4167 3834 4020 3834 3905 
C 3834 3848 3834 3828 3808 3739 
L 3238 1474 
z
" transform="scale(0.015625)"/>
       <path id="CMMI12-6d" d="M 1318 1871 
C 1331 1910 1491 2229 1728 2433 
C 1894 2586 2112 2689 2362 2689 
C 2618 2689 2707 2497 2707 2242 
C 2707 2203 2707 2076 2630 1775 
L 2470 1118 
C 2419 926 2298 453 2285 383 
C 2259 287 2221 121 2221 96 
C 2221 6 2291 -64 2387 -64 
C 2579 -64 2611 83 2669 313 
L 3053 1839 
C 3066 1890 3398 2689 4102 2689 
C 4358 2689 4448 2497 4448 2242 
C 4448 1884 4198 1188 4058 805 
C 4000 651 3968 568 3968 453 
C 3968 166 4166 -64 4474 -64 
C 5069 -64 5293 875 5293 913 
C 5293 945 5267 971 5229 971 
C 5171 971 5165 952 5133 843 
C 4986 332 4749 64 4493 64 
C 4429 64 4326 64 4326 269 
C 4326 436 4403 640 4429 710 
C 4544 1018 4832 1773 4832 2145 
C 4832 2528 4608 2816 4122 2816 
C 3693 2816 3347 2574 3091 2197 
C 3072 2542 2861 2816 2381 2816 
C 1811 2816 1510 2415 1395 2255 
C 1376 2618 1114 2816 832 2816 
C 646 2816 499 2727 378 2484 
C 262 2254 173 1865 173 1839 
C 173 1814 198 1782 243 1782 
C 294 1782 301 1788 339 1935 
C 435 2312 557 2689 813 2689 
C 960 2689 1011 2586 1011 2395 
C 1011 2254 947 2005 902 1807 
L 723 1118 
C 698 996 627 709 595 594 
C 550 428 480 128 480 96 
C 480 6 550 -64 646 -64 
C 723 -64 813 -26 864 70 
C 877 102 934 326 966 453 
L 1107 1028 
L 1318 1871 
z
" transform="scale(0.015625)"/>
      </defs>
      <use xlink:href="#CMMI12-75" transform="translate(36.759597 39.226102) scale(0.697382)"/>
      <use xlink:href="#CMMI12-55" transform="translate(0 -34.355253) scale(0.697382)"/>
      <use xlink:href="#CMR17-30" transform="translate(46.376275 -44.815949) scale(0.498132)"/>
      <use xlink:href="#CMMI12-6d" transform="translate(69.221514 -44.815949) scale(0.498132)"/>
      <path d="M 0 24.410885 
L 112.38325 24.410885 
L 112.38325 25.40233 
L 0 25.40233 
L 0 24.410885 
z
"/>
     </g>
    </g>
   </g>
   <g id="matplotlib.axis_2">
    <g id="ytick_1">
     <g id="line2d_13">
      <path d="M 93.440322 577.636364 
L 651.440322 577.636364 
" clip-path="url(#pb42923b522)" style="fill: none; stroke: #b0b0b0; stroke-width: 0.8; stroke-linecap: square"/>
     </g>
     <g id="line2d_14">
      <defs>
       <path id="m00fdea3abe" d="M 0 0 
L -3.5 0 
" style="stroke: #000000; stroke-width: 0.8"/>
      </defs>
      <g>
       <use xlink:href="#m00fdea3abe" x="93.440322" y="577.636364" style="stroke: #000000; stroke-width: 0.8"/>
      </g>
     </g>
     <g id="text_8">
      <!-- $\mathdefault{0.00}$ -->
      <g transform="translate(52.1066 584.554862) scale(0.2 -0.2)">
       <use xlink:href="#CMR17-30" transform="scale(0.996264)"/>
       <use xlink:href="#CMMI12-3a" transform="translate(45.690477 0) scale(0.996264)"/>
       <use xlink:href="#CMR17-30" transform="translate(72.787654 0) scale(0.996264)"/>
       <use xlink:href="#CMR17-30" transform="translate(118.478131 0) scale(0.996264)"/>
      </g>
     </g>
    </g>
    <g id="ytick_2">
     <g id="line2d_15">
      <path d="M 93.440322 510.782053 
L 651.440322 510.782053 
" clip-path="url(#pb42923b522)" style="fill: none; stroke: #b0b0b0; stroke-width: 0.8; stroke-linecap: square"/>
     </g>
     <g id="line2d_16">
      <g>
       <use xlink:href="#m00fdea3abe" x="93.440322" y="510.782053" style="stroke: #000000; stroke-width: 0.8"/>
      </g>
     </g>
     <g id="text_9">
      <!-- $\mathdefault{0.05}$ -->
      <g transform="translate(52.1066 517.700551) scale(0.2 -0.2)">
       <defs>
        <path id="CMR17-35" d="M 730 3692 
C 794 3666 1056 3584 1325 3584 
C 1920 3584 2246 3911 2432 4100 
C 2432 4157 2432 4192 2394 4192 
C 2387 4192 2374 4192 2323 4163 
C 2099 4058 1837 3973 1517 3973 
C 1325 3973 1037 3999 723 4139 
C 653 4171 640 4171 634 4171 
C 602 4171 595 4164 595 4037 
L 595 2203 
C 595 2089 595 2057 659 2057 
C 691 2057 704 2070 736 2114 
C 941 2401 1222 2522 1542 2522 
C 1766 2522 2246 2382 2246 1289 
C 2246 1085 2246 715 2054 421 
C 1894 159 1645 25 1370 25 
C 947 25 518 320 403 814 
C 429 807 480 795 506 795 
C 589 795 749 840 749 1038 
C 749 1210 627 1280 506 1280 
C 358 1280 262 1190 262 1011 
C 262 454 704 -128 1382 -128 
C 2042 -128 2669 440 2669 1264 
C 2669 2030 2170 2624 1549 2624 
C 1222 2624 947 2503 730 2274 
L 730 3692 
z
" transform="scale(0.015625)"/>
       </defs>
       <use xlink:href="#CMR17-30" transform="scale(0.996264)"/>
       <use xlink:href="#CMMI12-3a" transform="translate(45.690477 0) scale(0.996264)"/>
       <use xlink:href="#CMR17-30" transform="translate(72.787654 0) scale(0.996264)"/>
       <use xlink:href="#CMR17-35" transform="translate(118.478131 0) scale(0.996264)"/>
      </g>
     </g>
    </g>
    <g id="ytick_3">
     <g id="line2d_17">
      <path d="M 93.440322 443.927742 
L 651.440322 443.927742 
" clip-path="url(#pb42923b522)" style="fill: none; stroke: #b0b0b0; stroke-width: 0.8; stroke-linecap: square"/>
     </g>
     <g id="line2d_18">
      <g>
       <use xlink:href="#m00fdea3abe" x="93.440322" y="443.927742" style="stroke: #000000; stroke-width: 0.8"/>
      </g>
     </g>
     <g id="text_10">
      <!-- $\mathdefault{0.10}$ -->
      <g transform="translate(52.1066 450.84624) scale(0.2 -0.2)">
       <use xlink:href="#CMR17-30" transform="scale(0.996264)"/>
       <use xlink:href="#CMMI12-3a" transform="translate(45.690477 0) scale(0.996264)"/>
       <use xlink:href="#CMR17-31" transform="translate(72.787654 0) scale(0.996264)"/>
       <use xlink:href="#CMR17-30" transform="translate(118.478131 0) scale(0.996264)"/>
      </g>
     </g>
    </g>
    <g id="ytick_4">
     <g id="line2d_19">
      <path d="M 93.440322 377.073431 
L 651.440322 377.073431 
" clip-path="url(#pb42923b522)" style="fill: none; stroke: #b0b0b0; stroke-width: 0.8; stroke-linecap: square"/>
     </g>
     <g id="line2d_20">
      <g>
       <use xlink:href="#m00fdea3abe" x="93.440322" y="377.073431" style="stroke: #000000; stroke-width: 0.8"/>
      </g>
     </g>
     <g id="text_11">
      <!-- $\mathdefault{0.15}$ -->
      <g transform="translate(52.1066 383.991929) scale(0.2 -0.2)">
       <use xlink:href="#CMR17-30" transform="scale(0.996264)"/>
       <use xlink:href="#CMMI12-3a" transform="translate(45.690477 0) scale(0.996264)"/>
       <use xlink:href="#CMR17-31" transform="translate(72.787654 0) scale(0.996264)"/>
       <use xlink:href="#CMR17-35" transform="translate(118.478131 0) scale(0.996264)"/>
      </g>
     </g>
    </g>
    <g id="ytick_5">
     <g id="line2d_21">
      <path d="M 93.440322 310.21912 
L 651.440322 310.21912 
" clip-path="url(#pb42923b522)" style="fill: none; stroke: #b0b0b0; stroke-width: 0.8; stroke-linecap: square"/>
     </g>
     <g id="line2d_22">
      <g>
       <use xlink:href="#m00fdea3abe" x="93.440322" y="310.21912" style="stroke: #000000; stroke-width: 0.8"/>
      </g>
     </g>
     <g id="text_12">
      <!-- $\mathdefault{0.20}$ -->
      <g transform="translate(52.1066 317.137618) scale(0.2 -0.2)">
       <use xlink:href="#CMR17-30" transform="scale(0.996264)"/>
       <use xlink:href="#CMMI12-3a" transform="translate(45.690477 0) scale(0.996264)"/>
       <use xlink:href="#CMR17-32" transform="translate(72.787654 0) scale(0.996264)"/>
       <use xlink:href="#CMR17-30" transform="translate(118.478131 0) scale(0.996264)"/>
      </g>
     </g>
    </g>
    <g id="ytick_6">
     <g id="line2d_23">
      <path d="M 93.440322 243.364809 
L 651.440322 243.364809 
" clip-path="url(#pb42923b522)" style="fill: none; stroke: #b0b0b0; stroke-width: 0.8; stroke-linecap: square"/>
     </g>
     <g id="line2d_24">
      <g>
       <use xlink:href="#m00fdea3abe" x="93.440322" y="243.364809" style="stroke: #000000; stroke-width: 0.8"/>
      </g>
     </g>
     <g id="text_13">
      <!-- $\mathdefault{0.25}$ -->
      <g transform="translate(52.1066 250.283307) scale(0.2 -0.2)">
       <use xlink:href="#CMR17-30" transform="scale(0.996264)"/>
       <use xlink:href="#CMMI12-3a" transform="translate(45.690477 0) scale(0.996264)"/>
       <use xlink:href="#CMR17-32" transform="translate(72.787654 0) scale(0.996264)"/>
       <use xlink:href="#CMR17-35" transform="translate(118.478131 0) scale(0.996264)"/>
      </g>
     </g>
    </g>
    <g id="ytick_7">
     <g id="line2d_25">
      <path d="M 93.440322 176.510497 
L 651.440322 176.510497 
" clip-path="url(#pb42923b522)" style="fill: none; stroke: #b0b0b0; stroke-width: 0.8; stroke-linecap: square"/>
     </g>
     <g id="line2d_26">
      <g>
       <use xlink:href="#m00fdea3abe" x="93.440322" y="176.510497" style="stroke: #000000; stroke-width: 0.8"/>
      </g>
     </g>
     <g id="text_14">
      <!-- $\mathdefault{0.30}$ -->
      <g transform="translate(52.1066 183.428996) scale(0.2 -0.2)">
       <defs>
        <path id="CMR17-33" d="M 1414 2157 
C 1984 2157 2234 1662 2234 1090 
C 2234 320 1824 25 1453 25 
C 1114 25 563 194 390 693 
C 422 680 454 680 486 680 
C 640 680 755 782 755 948 
C 755 1133 614 1216 486 1216 
C 378 1216 211 1165 211 926 
C 211 335 787 -128 1466 -128 
C 2176 -128 2720 430 2720 1085 
C 2720 1707 2208 2157 1600 2227 
C 2086 2328 2554 2756 2554 3329 
C 2554 3820 2048 4179 1472 4179 
C 890 4179 378 3829 378 3329 
C 378 3110 544 3072 627 3072 
C 762 3072 877 3155 877 3321 
C 877 3486 762 3569 627 3569 
C 602 3569 570 3569 544 3557 
C 730 3959 1235 4032 1459 4032 
C 1683 4032 2106 3925 2106 3320 
C 2106 3143 2080 2828 1862 2550 
C 1670 2304 1453 2304 1242 2284 
C 1210 2284 1062 2269 1037 2269 
C 992 2263 966 2257 966 2208 
C 966 2163 973 2157 1101 2157 
L 1414 2157 
z
" transform="scale(0.015625)"/>
       </defs>
       <use xlink:href="#CMR17-30" transform="scale(0.996264)"/>
       <use xlink:href="#CMMI12-3a" transform="translate(45.690477 0) scale(0.996264)"/>
       <use xlink:href="#CMR17-33" transform="translate(72.787654 0) scale(0.996264)"/>
       <use xlink:href="#CMR17-30" transform="translate(118.478131 0) scale(0.996264)"/>
      </g>
     </g>
    </g>
    <g id="ytick_8">
     <g id="line2d_27">
      <path d="M 93.440322 109.656186 
L 651.440322 109.656186 
" clip-path="url(#pb42923b522)" style="fill: none; stroke: #b0b0b0; stroke-width: 0.8; stroke-linecap: square"/>
     </g>
     <g id="line2d_28">
      <g>
       <use xlink:href="#m00fdea3abe" x="93.440322" y="109.656186" style="stroke: #000000; stroke-width: 0.8"/>
      </g>
     </g>
     <g id="text_15">
      <!-- $\mathdefault{0.35}$ -->
      <g transform="translate(52.1066 116.574685) scale(0.2 -0.2)">
       <use xlink:href="#CMR17-30" transform="scale(0.996264)"/>
       <use xlink:href="#CMMI12-3a" transform="translate(45.690477 0) scale(0.996264)"/>
       <use xlink:href="#CMR17-33" transform="translate(72.787654 0) scale(0.996264)"/>
       <use xlink:href="#CMR17-35" transform="translate(118.478131 0) scale(0.996264)"/>
      </g>
     </g>
    </g>
    <g id="ytick_9">
     <g id="line2d_29">
      <path d="M 93.440322 42.801875 
L 651.440322 42.801875 
" clip-path="url(#pb42923b522)" style="fill: none; stroke: #b0b0b0; stroke-width: 0.8; stroke-linecap: square"/>
     </g>
     <g id="line2d_30">
      <g>
       <use xlink:href="#m00fdea3abe" x="93.440322" y="42.801875" style="stroke: #000000; stroke-width: 0.8"/>
      </g>
     </g>
     <g id="text_16">
      <!-- $\mathdefault{0.40}$ -->
      <g transform="translate(52.1066 49.720374) scale(0.2 -0.2)">
       <use xlink:href="#CMR17-30" transform="scale(0.996264)"/>
       <use xlink:href="#CMMI12-3a" transform="translate(45.690477 0) scale(0.996264)"/>
       <use xlink:href="#CMR17-34" transform="translate(72.787654 0) scale(0.996264)"/>
       <use xlink:href="#CMR17-30" transform="translate(118.478131 0) scale(0.996264)"/>
      </g>
     </g>
    </g>
    <g id="text_17">
     <!-- $y/a$ -->
     <g transform="translate(25.87995 324.890183) rotate(-90) scale(0.25 -0.25)">
      <defs>
       <path id="CMMI12-79" d="M 1683 -700 
C 1510 -939 1261 -1152 947 -1152 
C 870 -1152 563 -1152 467 -889 
C 486 -895 518 -895 531 -895 
C 723 -895 851 -729 851 -582 
C 851 -435 730 -384 634 -384 
C 531 -384 307 -458 307 -759 
C 307 -1071 582 -1286 947 -1286 
C 1587 -1286 2234 -700 2413 6 
L 3040 2485 
C 3046 2517 3059 2556 3059 2594 
C 3059 2689 2982 2753 2886 2753 
C 2829 2753 2694 2727 2643 2535 
L 2170 658 
C 2138 543 2138 530 2086 460 
C 1958 281 1747 64 1440 64 
C 1082 64 1050 415 1050 588 
C 1050 952 1222 1443 1395 1903 
C 1466 2088 1504 2178 1504 2305 
C 1504 2574 1312 2816 998 2816 
C 410 2816 173 1890 173 1839 
C 173 1814 198 1782 243 1782 
C 301 1782 307 1807 333 1897 
C 486 2433 730 2689 979 2689 
C 1037 2689 1146 2689 1146 2478 
C 1146 2312 1075 2127 979 1884 
C 666 1047 666 837 666 683 
C 666 77 1101 -64 1421 -64 
C 1606 -64 1837 -6 2061 230 
L 2067 224 
C 1971 -147 1907 -392 1683 -700 
z
" transform="scale(0.015625)"/>
       <path id="CMMI12-3d" d="M 2746 4562 
C 2746 4569 2784 4666 2784 4678 
C 2784 4755 2720 4800 2669 4800 
C 2637 4800 2579 4800 2528 4659 
L 384 -1363 
C 384 -1370 346 -1465 346 -1478 
C 346 -1555 410 -1600 461 -1600 
C 499 -1600 557 -1593 602 -1459 
L 2746 4562 
z
" transform="scale(0.015625)"/>
       <path id="CMMI12-61" d="M 1926 760 
C 1894 651 1894 639 1805 517 
C 1664 338 1382 64 1082 64 
C 819 64 672 300 672 677 
C 672 1028 870 1743 992 2012 
C 1210 2459 1510 2689 1760 2689 
C 2182 2689 2266 2165 2266 2114 
C 2266 2108 2246 2024 2240 2012 
L 1926 760 
z
M 2336 2395 
C 2266 2561 2093 2816 1760 2816 
C 1037 2816 256 1884 256 939 
C 256 307 627 -64 1062 -64 
C 1414 -64 1715 211 1894 422 
C 1958 45 2259 -64 2451 -64 
C 2643 -64 2797 51 2912 281 
C 3014 498 3104 888 3104 913 
C 3104 945 3078 971 3040 971 
C 2982 971 2976 939 2950 843 
C 2854 466 2733 64 2470 64 
C 2285 64 2272 230 2272 358 
C 2272 505 2291 575 2349 824 
C 2394 984 2426 1124 2477 1309 
C 2714 2267 2771 2497 2771 2535 
C 2771 2625 2701 2695 2605 2695 
C 2400 2695 2349 2472 2336 2395 
z
" transform="scale(0.015625)"/>
      </defs>
      <use xlink:href="#CMMI12-79" transform="scale(0.996264)"/>
      <use xlink:href="#CMMI12-3d" transform="translate(51.138781 0) scale(0.996264)"/>
      <use xlink:href="#CMMI12-61" transform="translate(99.913699 0) scale(0.996264)"/>
     </g>
    </g>
   </g>
   <g id="line2d_31">
    <path d="M 126.873179 577.636364 
L 146.049367 577.33288 
L 164.406531 577.014223 
L 181.813958 576.679632 
L 198.138951 576.328312 
L 213.248738 575.959426 
L 227.012717 575.572096 
L 239.305059 575.165399 
L 250.007646 574.738368 
L 259.013332 574.289985 
L 266.229476 573.819182 
L 271.581687 573.32484 
L 275.017676 572.80578 
L 276.511103 572.260768 
L 276.065246 571.688504 
L 273.716318 571.087628 
L 269.536203 570.456708 
L 263.63437 569.794242 
L 256.158714 569.098652 
L 247.29505 568.368283 
L 237.265032 567.601396 
L 226.322302 566.796164 
L 214.746713 565.950671 
L 202.836629 565.062903 
L 190.899377 564.130746 
L 179.240119 563.151982 
L 168.149585 562.12428 
L 157.891288 561.045192 
L 148.689013 559.91215 
L 140.715531 558.722456 
L 134.083537 557.473277 
L 128.839815 556.16164 
L 124.963487 554.78442 
L 122.368933 553.338339 
L 120.913585 551.819955 
L 120.410284 550.225651 
L 120.643314 548.551632 
L 121.386705 546.793912 
L 122.422944 544.948306 
L 123.560006 543.01042 
L 124.644693 540.975639 
L 125.570678 538.83912 
L 126.280348 536.595774 
L 126.760518 534.240261 
L 127.033077 531.766973 
L 127.14246 529.17002 
L 127.142364 526.443219 
L 127.084079 523.580078 
L 127.008275 520.573781 
L 126.941134 517.417168 
L 126.894635 514.102725 
L 126.869828 510.62256 
L 126.861475 506.968386 
L 126.86243 503.131504 
L 126.866665 499.102778 
L 126.870571 494.872615 
L 126.872847 490.430944 
L 126.873646 485.76719 
L 126.873638 480.870248 
L 126.873403 475.728458 
L 126.873228 470.32958 
L 126.873162 464.660757 
L 126.873159 458.708494 
L 126.873172 452.458617 
L 126.873179 445.896246 
L 126.87318 439.005757 
L 126.87318 431.770743 
L 126.873179 424.173979 
L 126.873179 416.197376 
L 126.873179 407.821943 
L 126.873179 399.027739 
L 126.873179 389.793824 
L 126.873179 380.098214 
L 126.873179 369.917823 
L 126.873179 359.228412 
L 126.873179 348.004531 
L 126.873179 336.219456 
L 126.873179 323.845128 
L 126.873179 310.852083 
L 126.873179 297.209385 
L 126.873179 282.884553 
L 126.873179 267.843479 
L 126.873179 252.050351 
L 126.873179 235.467567 
L 126.873179 218.055644 
L 126.873179 199.773125 
L 126.873179 180.576479 
L 126.873179 160.420002 
L 126.873179 139.2557 
L 126.873179 117.033184 
L 126.873179 93.699541 
L 126.873179 69.199217 
L 126.873179 43.473876 
L 126.873179 34.363636 
" clip-path="url(#pb42923b522)" style="fill: none; stroke: #000000; stroke-opacity: 0.5; stroke-width: 1.2; stroke-linecap: square"/>
   </g>
   <g id="line2d_32">
    <path d="M 126.873179 577.636364 
L 154.585815 577.33288 
L 182.372217 577.014223 
L 210.109757 576.679632 
L 237.663862 576.328312 
L 264.88848 575.959426 
L 291.626909 575.572096 
L 317.713034 575.165399 
L 342.973039 574.738368 
L 367.227629 574.289985 
L 390.294804 573.819182 
L 411.993211 573.32484 
L 432.146065 572.80578 
L 450.585626 572.260768 
L 467.158152 571.688504 
L 481.729254 571.087628 
L 494.189465 570.456708 
L 504.45986 569.794242 
L 512.497446 569.098652 
L 518.300026 568.368283 
L 521.910187 567.601396 
L 523.418025 566.796164 
L 522.962227 565.950671 
L 520.729129 565.062903 
L 516.949443 564.130746 
L 511.89244 563.151982 
L 505.85752 562.12428 
L 499.163302 561.045192 
L 492.134587 559.91215 
L 485.087824 558.722456 
L 478.315939 557.473277 
L 472.073631 556.16164 
L 466.564383 554.78442 
L 461.930464 553.338339 
L 458.247123 551.819955 
L 455.521825 550.225651 
L 453.699011 548.551632 
L 452.670167 546.793912 
L 452.288384 544.948306 
L 452.385875 543.01042 
L 452.792428 540.975639 
L 453.352508 538.83912 
L 453.938815 536.595774 
L 454.460641 534.240261 
L 454.866187 531.766973 
L 455.139062 529.17002 
L 455.29024 526.443219 
L 455.3475 523.580078 
L 455.344719 520.573781 
L 455.313103 517.417168 
L 455.275735 514.102725 
L 455.24576 510.62256 
L 455.227605 506.968386 
L 455.219923 503.131504 
L 455.21887 499.102778 
L 455.220625 494.872615 
L 455.222668 490.430944 
L 455.223954 485.76719 
L 455.224437 480.870248 
L 455.224459 475.728458 
L 455.224349 470.32958 
L 455.224265 464.660757 
L 455.224235 458.708494 
L 455.224235 452.458617 
L 455.224241 445.896246 
L 455.224244 439.005757 
L 455.224244 431.770743 
L 455.224244 424.173979 
L 455.224244 416.197376 
L 455.224244 407.821943 
L 455.224244 399.027739 
L 455.224244 389.793824 
L 455.224244 380.098214 
L 455.224244 369.917823 
L 455.224244 359.228412 
L 455.224244 348.004531 
L 455.224244 336.219456 
L 455.224244 323.845128 
L 455.224244 310.852083 
L 455.224244 297.209385 
L 455.224244 282.884553 
L 455.224244 267.843479 
L 455.224244 252.050351 
L 455.224244 235.467567 
L 455.224244 218.055644 
L 455.224244 199.773125 
L 455.224244 180.576479 
L 455.224244 160.420002 
L 455.224244 139.2557 
L 455.224244 117.033184 
L 455.224244 93.699541 
L 455.224244 69.199217 
L 455.224244 43.473876 
L 455.224244 34.363636 
" clip-path="url(#pb42923b522)" style="fill: none; stroke-dasharray: 4.44,1.92; stroke-dashoffset: 0; stroke: #000000; stroke-opacity: 0.5; stroke-width: 1.2"/>
   </g>
   <g id="line2d_33">
    <path d="M 126.873179 577.636364 
L 146.888577 577.33288 
L 167.827319 577.014223 
L 189.646698 576.679632 
L 212.289094 576.328312 
L 235.680732 575.959426 
L 259.730601 575.572096 
L 284.329611 575.165399 
L 309.350065 574.738368 
L 334.645549 574.289985 
L 360.051317 573.819182 
L 385.385288 573.32484 
L 410.449738 572.80578 
L 435.033787 572.260768 
L 458.916737 571.688504 
L 481.872314 571.087628 
L 503.673828 570.456708 
L 524.100193 569.794242 
L 542.942712 569.098652 
L 560.012464 568.368283 
L 575.14802 567.601396 
L 588.223156 566.796164 
L 599.154149 565.950671 
L 607.906155 565.062903 
L 614.498124 564.130746 
L 619.0057 563.151982 
L 621.561568 562.12428 
L 622.35281 561.045192 
L 621.614981 559.91215 
L 619.622836 558.722456 
L 616.677939 557.473277 
L 613.093704 556.16164 
L 609.178778 554.78442 
L 605.219983 553.338339 
L 601.466298 551.819955 
L 598.115447 550.225651 
L 595.304568 548.551632 
L 593.106172 546.793912 
L 591.53001 544.948306 
L 590.530821 543.01042 
L 590.021088 540.975639 
L 589.887175 538.83912 
L 590.006668 536.595774 
L 590.264471 534.240261 
L 590.56544 531.766973 
L 590.841962 529.17002 
L 591.055856 526.443219 
L 591.195119 523.580078 
L 591.26699 520.573781 
L 591.289419 517.417168 
L 591.283071 514.102725 
L 591.265488 510.62256 
L 591.248166 506.968386 
L 591.236346 503.131504 
L 591.230622 499.102778 
L 591.229197 494.872615 
L 591.229811 490.430944 
L 591.230832 485.76719 
L 591.231522 480.870248 
L 591.231789 475.728458 
L 591.231807 470.32958 
L 591.231754 464.660757 
L 591.231716 458.708494 
L 591.231704 452.458617 
L 591.231705 445.896246 
L 591.231707 439.005757 
L 591.231708 431.770743 
L 591.231708 424.173979 
L 591.231708 416.197376 
L 591.231708 407.821943 
L 591.231708 399.027739 
L 591.231708 389.793824 
L 591.231708 380.098214 
L 591.231708 369.917823 
L 591.231708 359.228412 
L 591.231708 348.004531 
L 591.231708 336.219456 
L 591.231708 323.845128 
L 591.231708 310.852083 
L 591.231708 297.209385 
L 591.231708 282.884553 
L 591.231708 267.843479 
L 591.231708 252.050351 
L 591.231708 235.467567 
L 591.231708 218.055644 
L 591.231708 199.773125 
L 591.231708 180.576479 
L 591.231708 160.420002 
L 591.231708 139.2557 
L 591.231708 117.033184 
L 591.231708 93.699541 
L 591.231708 69.199217 
L 591.231708 43.473876 
L 591.231708 34.363636 
" clip-path="url(#pb42923b522)" style="fill: none; stroke-dasharray: 8.32,2.08,1.3,2.08; stroke-dashoffset: 0; stroke: #000000; stroke-opacity: 0.5; stroke-width: 1.3"/>
   </g>
   <g id="line2d_34">
    <path d="M 126.873179 577.636364 
L 127.46659 577.33288 
L 129.292041 577.014223 
L 132.411763 576.679632 
L 136.878841 576.328312 
L 142.734994 575.959426 
L 150.008217 575.572096 
L 158.710345 575.165399 
L 168.834606 574.738368 
L 180.353233 574.289985 
L 193.215239 573.819182 
L 207.344477 573.32484 
L 222.638109 572.80578 
L 238.965644 572.260768 
L 256.168708 571.688504 
L 274.061696 571.087628 
L 292.433482 570.456708 
L 311.050328 569.794242 
L 329.660088 569.098652 
L 347.997784 568.368283 
L 365.792531 567.601396 
L 382.775727 566.796164 
L 398.690284 565.950671 
L 413.300588 565.062903 
L 426.402726 564.130746 
L 437.834404 563.151982 
L 447.483867 562.12428 
L 455.297071 561.045192 
L 461.282338 559.91215 
L 465.511782 558.722456 
L 468.118954 557.473277 
L 469.292388 556.16164 
L 469.265095 554.78442 
L 468.300431 553.338339 
L 466.675261 551.819955 
L 464.661739 550.225651 
L 462.509371 548.551632 
L 460.429213 546.793912 
L 458.581966 544.948306 
L 457.071409 543.01042 
L 455.943983 540.975639 
L 455.194523 538.83912 
L 454.777205 536.595774 
L 454.619967 534.240261 
L 454.640056 531.766973 
L 454.758241 529.17002 
L 454.909555 526.443219 
L 455.049243 523.580078 
L 455.153665 520.573781 
L 455.217 517.417168 
L 455.245391 514.102725 
L 455.250499 510.62256 
L 455.244157 506.968386 
L 455.235124 503.131504 
L 455.228082 499.102778 
L 455.224313 494.872615 
L 455.223137 490.430944 
L 455.223294 485.76719 
L 455.223788 480.870248 
L 455.224142 475.728458 
L 455.224279 470.32958 
L 455.224289 464.660757 
L 455.224263 458.708494 
L 455.224246 452.458617 
L 455.224242 445.896246 
L 455.224243 439.005757 
L 455.224244 431.770743 
L 455.224244 424.173979 
L 455.224244 416.197376 
L 455.224244 407.821943 
L 455.224244 399.027739 
L 455.224244 389.793824 
L 455.224244 380.098214 
L 455.224244 369.917823 
L 455.224244 359.228412 
L 455.224244 348.004531 
L 455.224244 336.219456 
L 455.224244 323.845128 
L 455.224244 310.852083 
L 455.224244 297.209385 
L 455.224244 282.884553 
L 455.224244 267.843479 
L 455.224244 252.050351 
L 455.224244 235.467567 
L 455.224244 218.055644 
L 455.224244 199.773125 
L 455.224244 180.576479 
L 455.224244 160.420002 
L 455.224244 139.2557 
L 455.224244 117.033184 
L 455.224244 93.699541 
L 455.224244 69.199217 
L 455.224244 43.473876 
L 455.224244 34.363636 
" clip-path="url(#pb42923b522)" style="fill: none; stroke-dasharray: 1.8,2.97; stroke-dashoffset: 0; stroke: #000000; stroke-opacity: 0.5; stroke-width: 1.8"/>
   </g>
   <g id="patch_3">
    <path d="M 93.440322 604.8 
L 93.440322 7.2 
" style="fill: none; stroke: #000000; stroke-width: 0.8; stroke-linejoin: miter; stroke-linecap: square"/>
   </g>
   <g id="patch_4">
    <path d="M 651.440322 604.8 
L 651.440322 7.2 
" style="fill: none; stroke: #000000; stroke-width: 0.8; stroke-linejoin: miter; stroke-linecap: square"/>
   </g>
   <g id="patch_5">
    <path d="M 93.440322 604.8 
L 651.440322 604.8 
" style="fill: none; stroke: #000000; stroke-width: 0.8; stroke-linejoin: miter; stroke-linecap: square"/>
   </g>
   <g id="patch_6">
    <path d="M 93.440322 7.2 
L 651.440322 7.2 
" style="fill: none; stroke: #000000; stroke-width: 0.8; stroke-linejoin: miter; stroke-linecap: square"/>
   </g>
   <g id="line2d_35">
    <path d="M 126.873179 577.636364 
L 146.36936 577.33288 
L 165.063415 577.014223 
L 182.820919 576.679632 
L 199.504532 576.328312 
L 214.975855 575.959426 
L 229.097637 575.572096 
L 241.736376 575.165399 
L 252.765307 574.738368 
L 262.067752 574.289985 
L 269.540821 573.819182 
L 275.099392 573.32484 
L 278.680294 572.80578 
L 280.246565 572.260768 
L 279.79164 571.688504 
L 277.343269 571.087628 
L 272.966938 570.456708 
L 266.768519 569.794242 
L 258.895867 569.098652 
L 249.539034 568.368283 
L 238.928813 567.601396 
L 227.333324 566.796164 
L 215.052412 565.950671 
L 202.409749 565.062903 
L 189.742641 564.130746 
L 177.389718 563.151982 
L 165.676937 562.12428 
L 154.902514 561.045192 
L 145.321686 559.91215 
L 137.13242 558.722456 
L 130.463353 557.473277 
L 125.365306 556.16164 
L 121.807662 554.78442 
L 119.680632 553.338339 
L 118.803958 551.819955 
L 118.941993 550.225651 
L 119.824233 548.551632 
L 121.169574 546.793912 
L 122.711729 544.948306 
L 124.222729 543.01042 
L 125.531313 540.975639 
L 126.533446 538.83912 
L 127.193267 536.595774 
L 127.534334 534.240261 
L 127.622872 531.766973 
L 127.546406 529.17002 
L 127.392218 526.443219 
L 127.230124 523.580078 
L 127.102876 520.573781 
L 127.025355 517.417168 
L 126.991166 514.102725 
L 126.983201 510.62256 
L 126.983915 506.968386 
L 126.981926 503.131504 
L 126.973636 499.102778 
L 126.960926 494.872615 
L 126.947427 490.430944 
L 126.935765 485.76719 
L 126.926774 480.870248 
L 126.920163 475.728458 
L 126.915414 470.32958 
L 126.912171 464.660757 
L 126.910155 458.708494 
L 126.909052 452.458617 
L 126.908532 445.896246 
L 126.908326 439.005757 
L 126.908259 431.770743 
L 126.908242 424.173979 
L 126.908238 416.197376 
L 126.908238 407.821943 
L 126.908238 399.027739 
L 126.908237 389.793824 
L 126.908237 380.098214 
L 126.908237 369.917823 
L 126.908237 359.228412 
L 126.908237 348.004531 
L 126.908237 336.219456 
L 126.908237 323.845128 
L 126.908237 310.852083 
L 126.908237 297.209385 
L 126.908237 282.884553 
L 126.908237 267.843479 
L 126.908237 252.050351 
L 126.908237 235.467567 
L 126.908237 218.055644 
L 126.908237 199.773125 
L 126.908237 180.576479 
L 126.908237 160.420002 
L 126.908237 139.2557 
L 126.908237 117.033184 
L 126.908237 93.699541 
L 126.908237 69.199217 
L 126.908237 43.473876 
L 126.908237 34.363636 
" clip-path="url(#pb42923b522)" style="fill: none; stroke: #000000; stroke-width: 1.2; stroke-linecap: square"/>
   </g>
   <g id="line2d_36">
    <path d="M 126.873179 577.636364 
L 154.742066 577.33288 
L 182.721144 577.014223 
L 210.688212 576.679632 
L 238.508339 576.328312 
L 266.034167 575.959426 
L 293.106574 575.572096 
L 319.555755 575.165399 
L 345.202775 574.738368 
L 369.861673 574.289985 
L 393.342144 573.819182 
L 415.452857 573.32484 
L 436.005417 572.80578 
L 454.818971 572.260768 
L 471.725416 571.688504 
L 486.575123 571.087628 
L 499.243048 570.456708 
L 509.635029 569.794242 
L 517.694019 569.098652 
L 523.405933 568.368283 
L 526.804722 567.601396 
L 527.976233 566.796164 
L 527.060391 565.950671 
L 524.251222 565.062903 
L 519.794284 564.130746 
L 513.981131 563.151982 
L 507.140626 562.12428 
L 499.627084 561.045192 
L 491.805516 559.91215 
L 484.034593 558.722456 
L 476.648254 557.473277 
L 469.937267 556.16164 
L 464.132333 554.78442 
L 459.390472 553.338339 
L 455.786425 551.819955 
L 453.310556 550.225651 
L 451.874177 548.551632 
L 451.322439 546.793912 
L 451.453894 544.948306 
L 452.044766 543.01042 
L 452.87497 540.975639 
L 453.752323 538.83912 
L 454.531306 536.595774 
L 455.123439 534.240261 
L 455.497716 531.766973 
L 455.671478 529.17002 
L 455.694162 526.443219 
L 455.627982 523.580078 
L 455.530224 520.573781 
L 455.441206 517.417168 
L 455.380004 514.102725 
L 455.347524 510.62256 
L 455.334166 506.968386 
L 455.328224 503.131504 
L 455.321667 499.102778 
L 455.311881 494.872615 
L 455.300109 490.430944 
L 455.288719 485.76719 
L 455.279281 480.870248 
L 455.272149 475.728458 
L 455.267012 470.32958 
L 455.263473 464.660757 
L 455.261209 458.708494 
L 455.259913 452.458617 
L 455.259266 445.896246 
L 455.258992 439.005757 
L 455.258895 431.770743 
L 455.258868 424.173979 
L 455.258861 416.197376 
L 455.25886 407.821943 
L 455.25886 399.027739 
L 455.25886 389.793824 
L 455.25886 380.098214 
L 455.25886 369.917823 
L 455.25886 359.228412 
L 455.25886 348.004531 
L 455.25886 336.219456 
L 455.25886 323.845128 
L 455.25886 310.852083 
L 455.25886 297.209385 
L 455.25886 282.884553 
L 455.25886 267.843479 
L 455.25886 252.050351 
L 455.25886 235.467567 
L 455.25886 218.055644 
L 455.25886 199.773125 
L 455.25886 180.576479 
L 455.25886 160.420002 
L 455.25886 139.2557 
L 455.25886 117.033184 
L 455.25886 93.699541 
L 455.25886 69.199217 
L 455.25886 43.473876 
L 455.25886 34.363636 
" clip-path="url(#pb42923b522)" style="fill: none; stroke-dasharray: 4.44,1.92; stroke-dashoffset: 0; stroke: #000000; stroke-width: 1.2"/>
   </g>
   <g id="line2d_37">
    <path d="M 126.873179 577.636364 
L 146.791211 577.33288 
L 167.667283 577.014223 
L 189.463008 576.679632 
L 212.124902 576.328312 
L 235.582975 575.959426 
L 259.749448 575.572096 
L 284.517681 575.165399 
L 309.761393 574.738368 
L 335.334275 574.289985 
L 361.070086 573.819182 
L 386.783366 573.32484 
L 412.270858 572.80578 
L 437.313761 572.260768 
L 461.680909 571.688504 
L 485.132946 571.087628 
L 507.427549 570.456708 
L 528.325683 569.794242 
L 547.59882 569.098652 
L 565.036994 568.368283 
L 580.457421 567.601396 
L 593.713387 566.796164 
L 604.702924 565.950671 
L 613.376746 565.062903 
L 619.744806 564.130746 
L 623.880784 563.151982 
L 625.923793 562.12428 
L 626.076686 561.045192 
L 624.60042 559.91215 
L 621.804249 558.722456 
L 618.031774 557.473277 
L 613.643348 556.16164 
L 608.995796 554.78442 
L 604.420908 553.338339 
L 600.204571 551.819955 
L 596.568734 550.225651 
L 593.658409 548.551632 
L 591.535638 546.793912 
L 590.181751 544.948306 
L 589.508174 543.01042 
L 589.374845 540.975639 
L 589.613929 538.83912 
L 590.055416 536.595774 
L 590.550547 534.240261 
L 590.989192 531.766973 
L 591.308312 529.17002 
L 591.490523 526.443219 
L 591.554004 523.580078 
L 591.537068 520.573781 
L 591.481939 517.417168 
L 591.422118 514.102725 
L 591.376166 510.62256 
L 591.348264 506.968386 
L 591.33348 503.131504 
L 591.324315 499.102778 
L 591.315452 494.872615 
L 591.305257 490.430944 
L 591.294654 485.76719 
L 591.28516 480.870248 
L 591.27762 475.728458 
L 591.272081 470.32958 
L 591.268227 464.660757 
L 591.265712 458.708494 
L 591.264219 452.458617 
L 591.263437 445.896246 
L 591.263085 439.005757 
L 591.262951 431.770743 
L 591.26291 424.173979 
L 591.262899 416.197376 
L 591.262897 407.821943 
L 591.262897 399.027739 
L 591.262897 389.793824 
L 591.262897 380.098214 
L 591.262897 369.917823 
L 591.262897 359.228412 
L 591.262897 348.004531 
L 591.262897 336.219456 
L 591.262897 323.845128 
L 591.262897 310.852083 
L 591.262897 297.209385 
L 591.262897 282.884553 
L 591.262897 267.843479 
L 591.262897 252.050351 
L 591.262897 235.467567 
L 591.262897 218.055644 
L 591.262897 199.773125 
L 591.262897 180.576479 
L 591.262897 160.420002 
L 591.262897 139.2557 
L 591.262897 117.033184 
L 591.262897 93.699541 
L 591.262897 69.199217 
L 591.262897 43.473876 
L 591.262897 34.363636 
" clip-path="url(#pb42923b522)" style="fill: none; stroke-dasharray: 8.32,2.08,1.3,2.08; stroke-dashoffset: 0; stroke: #000000; stroke-width: 1.3"/>
   </g>
   <g id="line2d_38">
    <path d="M 126.873179 577.636364 
L 127.174165 577.33288 
L 128.719912 577.014223 
L 131.578333 576.679632 
L 135.80873 576.328312 
L 141.459483 575.959426 
L 148.565579 575.572096 
L 157.146018 575.165399 
L 167.201152 574.738368 
L 178.710032 574.289985 
L 191.627869 573.819182 
L 205.883717 573.32484 
L 221.378527 572.80578 
L 237.983721 572.260768 
L 255.540485 571.688504 
L 273.859947 571.087628 
L 292.724454 570.456708 
L 311.890118 569.794242 
L 331.090801 569.098652 
L 350.043645 568.368283 
L 368.456207 567.601396 
L 386.035156 566.796164 
L 402.496361 565.950671 
L 417.576092 565.062903 
L 431.042866 564.130746 
L 442.709309 563.151982 
L 452.44328 562.12428 
L 460.177309 561.045192 
L 465.915406 559.91215 
L 469.736218 558.722456 
L 471.791701 557.473277 
L 472.300676 556.16164 
L 471.537044 554.78442 
L 469.812975 553.338339 
L 467.457992 551.819955 
L 464.795558 550.225651 
L 462.119368 548.551632 
L 459.671937 546.793912 
L 457.628227 544.948306 
L 456.086673 543.01042 
L 455.069205 540.975639 
L 454.530581 538.83912 
L 454.375818 536.595774 
L 454.482953 534.240261 
L 454.727184 531.766973 
L 455.001976 529.17002 
L 455.233284 526.443219 
L 455.38461 523.580078 
L 455.452887 520.573781 
L 455.457585 517.417168 
L 455.427119 514.102725 
L 455.38699 510.62256 
L 455.352905 506.968386 
L 455.329821 503.131504 
L 455.315414 499.102778 
L 455.305031 494.872615 
L 455.295359 490.430944 
L 455.285538 485.76719 
L 455.276292 480.870248 
L 455.268536 475.728458 
L 455.262637 470.32958 
L 455.258459 464.660757 
L 455.255685 458.708494 
L 455.253992 452.458617 
L 455.253067 445.896246 
L 455.252627 439.005757 
L 455.25245 431.770743 
L 455.25239 424.173979 
L 455.252374 416.197376 
L 455.25237 407.821943 
L 455.252369 399.027739 
L 455.252369 389.793824 
L 455.252369 380.098214 
L 455.252369 369.917823 
L 455.252369 359.228412 
L 455.252369 348.004531 
L 455.252369 336.219456 
L 455.252369 323.845128 
L 455.252369 310.852083 
L 455.252369 297.209385 
L 455.252369 282.884553 
L 455.252369 267.843479 
L 455.252369 252.050351 
L 455.252369 235.467567 
L 455.252369 218.055644 
L 455.252369 199.773125 
L 455.252369 180.576479 
L 455.252369 160.420002 
L 455.252369 139.2557 
L 455.252369 117.033184 
L 455.252369 93.699541 
L 455.252369 69.199217 
L 455.252369 43.473876 
L 455.252369 34.363636 
" clip-path="url(#pb42923b522)" style="fill: none; stroke-dasharray: 1.8,2.97; stroke-dashoffset: 0; stroke: #000000; stroke-width: 1.8"/>
   </g>
   <g id="legend_1">
    <g id="patch_7">
     <path d="M 693.340322 134.702534 
L 1197.104475 134.702534 
Q 1201.104475 134.702534 1201.104475 130.702534 
L 1201.104475 21.2 
Q 1201.104475 17.2 1197.104475 17.2 
L 693.340322 17.2 
Q 689.340322 17.2 689.340322 21.2 
L 689.340322 130.702534 
Q 689.340322 134.702534 693.340322 134.702534 
z
" style="fill: #ffffff; opacity: 0.8; stroke: #cccccc; stroke-linejoin: miter"/>
    </g>
    <g id="line2d_39">
     <path d="M 697.340322 32.2 
L 717.340322 32.2 
L 737.340322 32.2 
" style="fill: none; stroke: #000000; stroke-width: 1.2; stroke-linecap: square"/>
    </g>
    <g id="text_18">
     <!-- $\omega t = 0\:\unit{\degree}$ - - model -->
     <g transform="translate(753.340322 39.2) scale(0.2 -0.2)">
      <defs>
       <path id="CMMI12-21" d="M 3802 2395 
C 3802 2580 3750 2816 3526 2816 
C 3398 2816 3251 2657 3251 2529 
C 3251 2472 3277 2434 3328 2376 
C 3424 2268 3546 2096 3546 1797 
C 3546 1567 3405 1204 3302 1007 
C 3123 656 2829 357 2496 357 
C 2093 357 1939 615 1869 975 
C 1939 1143 2086 1560 2086 1728 
C 2086 1798 2061 1856 1978 1856 
C 1933 1856 1882 1831 1850 1779 
C 1760 1638 1677 1129 1683 994 
C 1562 756 1216 357 806 357 
C 378 357 262 733 262 1096 
C 262 1758 678 2338 794 2497 
C 858 2593 902 2657 902 2669 
C 902 2714 877 2784 819 2784 
C 717 2784 685 2701 634 2625 
C 307 2121 77 1414 77 803 
C 77 408 224 -64 704 -64 
C 1235 -64 1568 391 1702 634 
C 1754 275 1946 -64 2413 -64 
C 2899 -64 3206 363 3437 879 
C 3603 1249 3802 2045 3802 2395 
z
" transform="scale(0.015625)"/>
       <path id="CMMI12-74" d="M 1286 2566 
L 1875 2566 
C 1997 2566 2061 2566 2061 2681 
C 2061 2752 2022 2752 1894 2752 
L 1331 2752 
L 1568 3692 
C 1594 3781 1594 3794 1594 3840 
C 1594 3943 1510 4000 1427 4000 
C 1376 4000 1229 3981 1178 3775 
L 928 2752 
L 326 2752 
C 198 2752 141 2752 141 2630 
C 141 2566 186 2566 307 2566 
L 877 2566 
L 454 881 
C 403 658 384 594 384 511 
C 384 211 595 -64 954 -64 
C 1600 -64 1946 868 1946 912 
C 1946 951 1920 970 1882 970 
C 1869 970 1843 970 1830 944 
C 1824 938 1818 931 1773 829 
C 1638 511 1344 64 973 64 
C 781 64 768 224 768 364 
C 768 370 768 492 787 568 
L 1286 2566 
z
" transform="scale(0.015625)"/>
       <path id="CMR17-3d" d="M 4115 2017 
C 4211 2017 4307 2017 4307 2125 
C 4307 2240 4198 2240 4090 2240 
L 512 2240 
C 403 2240 294 2240 294 2125 
C 294 2017 390 2017 486 2017 
L 4115 2017 
z
M 4090 896 
C 4198 896 4307 896 4307 1011 
C 4307 1119 4211 1119 4115 1119 
L 486 1119 
C 390 1119 294 1119 294 1011 
C 294 896 403 896 512 896 
L 4090 896 
z
" transform="scale(0.015625)"/>
       <path id="CMSY10-e" d="M 2842 1600 
C 2842 2277 2272 2828 1600 2828 
C 909 2828 352 2264 352 1600 
C 352 930 909 372 1600 372 
C 2272 372 2842 923 2842 1600 
z
M 1600 628 
C 1043 628 608 1070 608 1600 
C 608 2130 1050 2572 1600 2572 
C 2131 2572 2586 2142 2586 1600 
C 2586 1058 2131 628 1600 628 
z
" transform="scale(0.015625)"/>
       <path id="CMR17-7b" d="M 2970 1664 
L 2970 1766 
L -38 1766 
L -38 1664 
L 2970 1664 
z
" transform="scale(0.015625)"/>
       <path id="CMR17-6d" d="M 4326 1933 
C 4326 2252 4269 2790 3507 2790 
C 3072 2790 2771 2496 2656 2151 
L 2650 2151 
C 2573 2676 2195 2790 1837 2790 
C 1331 2790 1069 2400 973 2144 
L 966 2144 
L 966 2790 
L 211 2720 
L 211 2554 
C 589 2554 646 2515 646 2208 
L 646 428 
C 646 184 621 153 211 153 
L 211 -13 
C 365 0 646 0 813 0 
C 979 0 1267 0 1421 -13 
L 1421 153 
C 1011 153 986 178 986 428 
L 986 1658 
C 986 2247 1344 2688 1792 2688 
C 2266 2688 2317 2266 2317 1958 
L 2317 428 
C 2317 184 2291 153 1882 153 
L 1882 -13 
C 2035 0 2317 0 2483 0 
C 2650 0 2938 0 3091 -13 
L 3091 153 
C 2682 153 2656 178 2656 428 
L 2656 1658 
C 2656 2247 3014 2688 3462 2688 
C 3936 2688 3987 2266 3987 1958 
L 3987 428 
C 3987 184 3962 153 3552 153 
L 3552 -13 
C 3706 0 3987 0 4154 0 
C 4320 0 4608 0 4762 -13 
L 4762 153 
C 4352 153 4326 178 4326 428 
L 4326 1933 
z
" transform="scale(0.015625)"/>
       <path id="CMR17-6f" d="M 2758 1356 
C 2758 2176 2163 2816 1466 2816 
C 768 2816 173 2176 173 1356 
C 173 551 768 -64 1466 -64 
C 2163 -64 2758 551 2758 1356 
z
M 1466 51 
C 1165 51 909 230 762 480 
C 602 767 582 1126 582 1408 
C 582 1677 595 2010 762 2298 
C 890 2509 1139 2714 1466 2714 
C 1754 2714 1997 2554 2150 2330 
C 2349 2029 2349 1607 2349 1408 
C 2349 1158 2336 775 2163 467 
C 1984 173 1709 51 1466 51 
z
" transform="scale(0.015625)"/>
       <path id="CMR17-64" d="M 1869 4326 
L 1869 4160 
C 2246 4160 2304 4122 2304 3820 
L 2304 2345 
C 2278 2377 2016 2790 1498 2790 
C 845 2790 211 2208 211 1364 
C 211 525 806 -64 1434 -64 
C 1978 -64 2259 337 2291 380 
L 2291 -63 
L 3066 -63 
L 3066 128 
C 2688 128 2630 166 2630 473 
L 2630 4396 
L 1869 4326 
z
M 2291 755 
C 2291 563 2176 390 2029 262 
C 1811 70 1594 38 1472 38 
C 1286 38 621 134 621 1356 
C 621 2612 1363 2688 1530 2688 
C 1824 2688 2061 2522 2208 2291 
C 2291 2157 2291 2138 2291 2023 
L 2291 755 
z
" transform="scale(0.015625)"/>
       <path id="CMR17-65" d="M 2438 1472 
C 2464 1498 2464 1511 2464 1576 
C 2464 2238 2118 2816 1389 2816 
C 710 2816 173 2169 173 1383 
C 173 551 781 -64 1459 -64 
C 2176 -64 2458 607 2458 740 
C 2458 784 2419 784 2406 784 
C 2362 784 2355 771 2330 696 
C 2189 265 1837 51 1504 51 
C 1229 51 954 203 781 480 
C 582 803 582 1176 582 1472 
L 2438 1472 
z
M 589 1568 
C 634 2505 1126 2714 1382 2714 
C 1818 2714 2112 2297 2118 1568 
L 589 1568 
z
" transform="scale(0.015625)"/>
       <path id="CMR17-6c" d="M 979 4396 
L 218 4326 
L 218 4160 
C 595 4160 653 4122 653 3817 
L 653 426 
C 653 184 627 153 218 153 
L 218 -13 
C 371 0 653 0 813 0 
C 979 0 1261 0 1414 -13 
L 1414 153 
C 1005 153 979 178 979 426 
L 979 4396 
z
" transform="scale(0.015625)"/>
      </defs>
      <use xlink:href="#CMMI12-21" transform="scale(0.996264)"/>
      <use xlink:href="#CMMI12-74" transform="translate(64.318346 0) scale(0.996264)"/>
      <use xlink:href="#CMR17-3d" transform="translate(127.218685 0) scale(0.996264)"/>
      <use xlink:href="#CMR17-30" transform="translate(226.607482 0) scale(0.996264)"/>
      <use xlink:href="#CMSY10-e" transform="translate(294.437166 36.153639) scale(0.697382)"/>
      <use xlink:href="#CMR17-7b" transform="translate(359.880474 0) scale(0.996264)"/>
      <use xlink:href="#CMR17-6d" transform="translate(435.646918 0) scale(0.996264)"/>
      <use xlink:href="#CMR17-6f" transform="translate(512.566508 0) scale(0.996264)"/>
      <use xlink:href="#CMR17-64" transform="translate(560.859424 0) scale(0.996264)"/>
      <use xlink:href="#CMR17-65" transform="translate(611.754793 0) scale(0.996264)"/>
      <use xlink:href="#CMR17-6c" transform="translate(652.240454 0) scale(0.996264)"/>
     </g>
    </g>
    <g id="line2d_40">
     <path d="M 697.340322 60.075634 
L 717.340322 60.075634 
L 737.340322 60.075634 
" style="fill: none; stroke-dasharray: 4.44,1.92; stroke-dashoffset: 0; stroke: #000000; stroke-width: 1.2"/>
    </g>
    <g id="text_19">
     <!-- $\omega t = 45\:\unit{\degree}$ - - model -->
     <g transform="translate(753.340322 67.075634) scale(0.2 -0.2)">
      <use xlink:href="#CMMI12-21" transform="scale(0.996264)"/>
      <use xlink:href="#CMMI12-74" transform="translate(64.318346 0) scale(0.996264)"/>
      <use xlink:href="#CMR17-3d" transform="translate(127.218685 0) scale(0.996264)"/>
      <use xlink:href="#CMR17-34" transform="translate(226.607482 0) scale(0.996264)"/>
      <use xlink:href="#CMR17-35" transform="translate(272.297959 0) scale(0.996264)"/>
      <use xlink:href="#CMSY10-e" transform="translate(340.127643 36.153639) scale(0.697382)"/>
      <use xlink:href="#CMR17-7b" transform="translate(405.570952 0) scale(0.996264)"/>
      <use xlink:href="#CMR17-6d" transform="translate(481.337395 0) scale(0.996264)"/>
      <use xlink:href="#CMR17-6f" transform="translate(558.256985 0) scale(0.996264)"/>
      <use xlink:href="#CMR17-64" transform="translate(606.549901 0) scale(0.996264)"/>
      <use xlink:href="#CMR17-65" transform="translate(657.445271 0) scale(0.996264)"/>
      <use xlink:href="#CMR17-6c" transform="translate(697.930931 0) scale(0.996264)"/>
     </g>
    </g>
    <g id="line2d_41">
     <path d="M 697.340322 87.951267 
L 717.340322 87.951267 
L 737.340322 87.951267 
" style="fill: none; stroke-dasharray: 8.32,2.08,1.3,2.08; stroke-dashoffset: 0; stroke: #000000; stroke-width: 1.3"/>
    </g>
    <g id="text_20">
     <!-- $\omega t = 90\:\unit{\degree}$ - - model -->
     <g transform="translate(753.340322 94.951267) scale(0.2 -0.2)">
      <defs>
       <path id="CMR17-39" d="M 2253 1864 
C 2253 464 1670 31 1190 31 
C 1043 31 685 31 538 294 
C 704 268 826 357 826 518 
C 826 692 685 749 595 749 
C 538 749 365 723 365 506 
C 365 71 742 -128 1203 -128 
C 1939 -128 2688 674 2688 2073 
C 2688 3817 1971 4179 1485 4179 
C 851 4179 243 3628 243 2778 
C 243 1991 762 1408 1414 1408 
C 1952 1408 2189 1903 2253 2112 
L 2253 1864 
z
M 1427 1510 
C 1254 1510 1011 1542 813 1922 
C 678 2169 678 2461 678 2771 
C 678 3146 678 3405 858 3684 
C 947 3817 1114 4032 1485 4032 
C 2240 4032 2240 2885 2240 2632 
C 2240 2182 2035 1510 1427 1510 
z
" transform="scale(0.015625)"/>
      </defs>
      <use xlink:href="#CMMI12-21" transform="scale(0.996264)"/>
      <use xlink:href="#CMMI12-74" transform="translate(64.318346 0) scale(0.996264)"/>
      <use xlink:href="#CMR17-3d" transform="translate(127.218685 0) scale(0.996264)"/>
      <use xlink:href="#CMR17-39" transform="translate(226.607482 0) scale(0.996264)"/>
      <use xlink:href="#CMR17-30" transform="translate(272.297959 0) scale(0.996264)"/>
      <use xlink:href="#CMSY10-e" transform="translate(340.127643 36.153639) scale(0.697382)"/>
      <use xlink:href="#CMR17-7b" transform="translate(405.570952 0) scale(0.996264)"/>
      <use xlink:href="#CMR17-6d" transform="translate(481.337395 0) scale(0.996264)"/>
      <use xlink:href="#CMR17-6f" transform="translate(558.256985 0) scale(0.996264)"/>
      <use xlink:href="#CMR17-64" transform="translate(606.549901 0) scale(0.996264)"/>
      <use xlink:href="#CMR17-65" transform="translate(657.445271 0) scale(0.996264)"/>
      <use xlink:href="#CMR17-6c" transform="translate(697.930931 0) scale(0.996264)"/>
     </g>
    </g>
    <g id="line2d_42">
     <path d="M 697.340322 115.826901 
L 717.340322 115.826901 
L 737.340322 115.826901 
" style="fill: none; stroke-dasharray: 1.8,2.97; stroke-dashoffset: 0; stroke: #000000; stroke-width: 1.8"/>
    </g>
    <g id="text_21">
     <!-- $\omega t = 135\:\unit{\degree}$ - - model -->
     <g transform="translate(753.340322 122.826901) scale(0.2 -0.2)">
      <use xlink:href="#CMMI12-21" transform="scale(0.996264)"/>
      <use xlink:href="#CMMI12-74" transform="translate(64.318346 0) scale(0.996264)"/>
      <use xlink:href="#CMR17-3d" transform="translate(127.218685 0) scale(0.996264)"/>
      <use xlink:href="#CMR17-31" transform="translate(226.607482 0) scale(0.996264)"/>
      <use xlink:href="#CMR17-33" transform="translate(272.297959 0) scale(0.996264)"/>
      <use xlink:href="#CMR17-35" transform="translate(317.988436 0) scale(0.996264)"/>
      <use xlink:href="#CMSY10-e" transform="translate(385.81812 36.153639) scale(0.697382)"/>
      <use xlink:href="#CMR17-7b" transform="translate(451.261429 0) scale(0.996264)"/>
      <use xlink:href="#CMR17-6d" transform="translate(527.027872 0) scale(0.996264)"/>
      <use xlink:href="#CMR17-6f" transform="translate(603.947462 0) scale(0.996264)"/>
      <use xlink:href="#CMR17-64" transform="translate(652.240378 0) scale(0.996264)"/>
      <use xlink:href="#CMR17-65" transform="translate(703.135748 0) scale(0.996264)"/>
      <use xlink:href="#CMR17-6c" transform="translate(743.621408 0) scale(0.996264)"/>
     </g>
    </g>
    <g id="line2d_43">
     <path d="M 947.437096 32.2 
L 967.437096 32.2 
L 987.437096 32.2 
" style="fill: none; stroke: #000000; stroke-opacity: 0.5; stroke-width: 1.2; stroke-linecap: square"/>
    </g>
    <g id="text_22">
     <!-- $\omega t = 0\:\unit{\degree}$ - - theoretical -->
     <g transform="translate(1003.437096 39.2) scale(0.2 -0.2)">
      <defs>
       <path id="CMR17-74" d="M 966 2560 
L 1862 2560 
L 1862 2725 
L 966 2725 
L 966 3904 
L 851 3904 
C 838 3245 614 2668 70 2668 
L 70 2560 
L 627 2560 
L 627 771 
C 627 650 627 -64 1370 -64 
C 1747 -64 1965 306 1965 777 
L 1965 1140 
L 1850 1140 
L 1850 783 
C 1850 344 1677 51 1408 51 
C 1222 51 966 178 966 758 
L 966 2560 
z
" transform="scale(0.015625)"/>
       <path id="CMR17-68" d="M 2656 1933 
C 2656 2259 2592 2790 1837 2790 
C 1312 2790 1056 2368 979 2157 
L 973 2157 
L 973 4396 
L 211 4326 
L 211 4160 
C 589 4160 646 4122 646 3817 
L 646 426 
C 646 184 621 153 211 153 
L 211 -13 
C 365 0 646 0 813 0 
C 979 0 1267 0 1421 -13 
L 1421 153 
C 1011 153 986 178 986 428 
L 986 1658 
C 986 2247 1344 2688 1792 2688 
C 2266 2688 2317 2266 2317 1958 
L 2317 428 
C 2317 184 2291 153 1882 153 
L 1882 -13 
C 2035 0 2317 0 2483 0 
C 2650 0 2938 0 3091 -13 
L 3091 153 
C 2682 153 2656 178 2656 428 
L 2656 1933 
z
" transform="scale(0.015625)"/>
       <path id="CMR17-72" d="M 960 1497 
C 960 2112 1222 2688 1702 2688 
C 1747 2688 1792 2682 1837 2662 
C 1837 2662 1696 2617 1696 2452 
C 1696 2298 1818 2234 1914 2234 
C 1990 2234 2131 2279 2131 2458 
C 2131 2663 1926 2790 1709 2790 
C 1222 2790 1011 2317 947 2093 
L 941 2093 
L 941 2790 
L 198 2720 
L 198 2554 
C 576 2554 634 2515 634 2208 
L 634 428 
C 634 184 608 153 198 153 
L 198 -13 
C 352 0 646 0 813 0 
C 998 0 1325 0 1498 -13 
L 1498 153 
C 1037 153 960 153 960 440 
L 960 1497 
z
" transform="scale(0.015625)"/>
       <path id="CMR17-69" d="M 992 3909 
C 992 4049 877 4170 730 4170 
C 589 4170 467 4056 467 3909 
C 467 3769 582 3648 730 3648 
C 870 3648 992 3763 992 3909 
z
M 243 2706 
L 243 2541 
C 602 2541 653 2502 653 2197 
L 653 427 
C 653 184 627 153 218 153 
L 218 -13 
C 371 0 646 0 806 0 
C 960 0 1222 0 1370 -13 
L 1370 153 
C 992 153 979 191 979 420 
L 979 2776 
L 243 2706 
z
" transform="scale(0.015625)"/>
       <path id="CMR17-63" d="M 2234 2240 
C 2112 2240 1933 2240 1933 2017 
C 1933 1838 2080 1787 2163 1787 
C 2208 1787 2394 1807 2394 2024 
C 2394 2467 1958 2803 1466 2803 
C 787 2803 211 2178 211 1363 
C 211 516 813 -64 1466 -64 
C 2259 -64 2458 677 2458 748 
C 2458 774 2451 793 2406 793 
C 2362 793 2355 787 2330 703 
C 2163 180 1798 51 1523 51 
C 1114 51 621 427 621 1369 
C 621 2338 1094 2688 1472 2688 
C 1722 2688 2093 2573 2234 2240 
z
" transform="scale(0.015625)"/>
       <path id="CMR17-61" d="M 2304 1653 
C 2304 2072 2304 2294 2035 2543 
C 1798 2752 1523 2816 1306 2816 
C 800 2816 435 2407 435 1971 
C 435 1728 627 1728 666 1728 
C 749 1728 896 1778 896 1954 
C 896 2112 774 2181 666 2181 
C 640 2181 608 2174 589 2168 
C 723 2592 1069 2714 1293 2714 
C 1613 2714 1965 2429 1965 1885 
L 1965 1600 
C 1587 1600 1133 1549 774 1357 
C 371 1133 256 813 256 570 
C 256 77 832 -64 1171 -64 
C 1523 -64 1850 139 1990 511 
C 2003 233 2182 -18 2464 -18 
C 2598 -18 2938 70 2938 567 
L 2938 920 
L 2822 920 
L 2822 562 
C 2822 178 2650 128 2566 128 
C 2304 128 2304 458 2304 738 
L 2304 1653 
z
M 1965 870 
C 1965 317 1568 38 1216 38 
C 896 38 646 275 646 570 
C 646 761 730 1100 1101 1305 
C 1408 1478 1760 1504 1965 1504 
L 1965 870 
z
" transform="scale(0.015625)"/>
      </defs>
      <use xlink:href="#CMMI12-21" transform="scale(0.996264)"/>
      <use xlink:href="#CMMI12-74" transform="translate(64.318346 0) scale(0.996264)"/>
      <use xlink:href="#CMR17-3d" transform="translate(127.218685 0) scale(0.996264)"/>
      <use xlink:href="#CMR17-30" transform="translate(226.607482 0) scale(0.996264)"/>
      <use xlink:href="#CMSY10-e" transform="translate(294.437166 36.153639) scale(0.697382)"/>
      <use xlink:href="#CMR17-7b" transform="translate(359.880474 0) scale(0.996264)"/>
      <use xlink:href="#CMR17-74" transform="translate(435.646918 0) scale(0.996264)"/>
      <use xlink:href="#CMR17-68" transform="translate(470.927686 0) scale(0.996264)"/>
      <use xlink:href="#CMR17-65" transform="translate(521.823056 0) scale(0.996264)"/>
      <use xlink:href="#CMR17-6f" transform="translate(562.308716 0) scale(0.996264)"/>
      <use xlink:href="#CMR17-72" transform="translate(607.999193 0) scale(0.996264)"/>
      <use xlink:href="#CMR17-65" transform="translate(643.279961 0) scale(0.996264)"/>
      <use xlink:href="#CMR17-74" transform="translate(683.765621 0) scale(0.996264)"/>
      <use xlink:href="#CMR17-69" transform="translate(719.046389 0) scale(0.996264)"/>
      <use xlink:href="#CMR17-63" transform="translate(743.917448 0) scale(0.996264)"/>
      <use xlink:href="#CMR17-61" transform="translate(784.403108 0) scale(0.996264)"/>
      <use xlink:href="#CMR17-6c" transform="translate(830.093585 0) scale(0.996264)"/>
     </g>
    </g>
    <g id="line2d_44">
     <path d="M 947.437096 60.075634 
L 967.437096 60.075634 
L 987.437096 60.075634 
" style="fill: none; stroke-dasharray: 4.44,1.92; stroke-dashoffset: 0; stroke: #000000; stroke-opacity: 0.5; stroke-width: 1.2"/>
    </g>
    <g id="text_23">
     <!-- $\omega t = 45\:\unit{\degree}$ - - theoretical -->
     <g transform="translate(1003.437096 67.075634) scale(0.2 -0.2)">
      <use xlink:href="#CMMI12-21" transform="scale(0.996264)"/>
      <use xlink:href="#CMMI12-74" transform="translate(64.318346 0) scale(0.996264)"/>
      <use xlink:href="#CMR17-3d" transform="translate(127.218685 0) scale(0.996264)"/>
      <use xlink:href="#CMR17-34" transform="translate(226.607482 0) scale(0.996264)"/>
      <use xlink:href="#CMR17-35" transform="translate(272.297959 0) scale(0.996264)"/>
      <use xlink:href="#CMSY10-e" transform="translate(340.127643 36.153639) scale(0.697382)"/>
      <use xlink:href="#CMR17-7b" transform="translate(405.570952 0) scale(0.996264)"/>
      <use xlink:href="#CMR17-74" transform="translate(481.337395 0) scale(0.996264)"/>
      <use xlink:href="#CMR17-68" transform="translate(516.618163 0) scale(0.996264)"/>
      <use xlink:href="#CMR17-65" transform="translate(567.513533 0) scale(0.996264)"/>
      <use xlink:href="#CMR17-6f" transform="translate(607.999193 0) scale(0.996264)"/>
      <use xlink:href="#CMR17-72" transform="translate(653.68967 0) scale(0.996264)"/>
      <use xlink:href="#CMR17-65" transform="translate(688.970438 0) scale(0.996264)"/>
      <use xlink:href="#CMR17-74" transform="translate(729.456098 0) scale(0.996264)"/>
      <use xlink:href="#CMR17-69" transform="translate(764.736866 0) scale(0.996264)"/>
      <use xlink:href="#CMR17-63" transform="translate(789.607925 0) scale(0.996264)"/>
      <use xlink:href="#CMR17-61" transform="translate(830.093585 0) scale(0.996264)"/>
      <use xlink:href="#CMR17-6c" transform="translate(875.784062 0) scale(0.996264)"/>
     </g>
    </g>
    <g id="line2d_45">
     <path d="M 947.437096 87.951267 
L 967.437096 87.951267 
L 987.437096 87.951267 
" style="fill: none; stroke-dasharray: 8.32,2.08,1.3,2.08; stroke-dashoffset: 0; stroke: #000000; stroke-opacity: 0.5; stroke-width: 1.3"/>
    </g>
    <g id="text_24">
     <!-- $\omega t = 90\:\unit{\degree}$ - - theoretical -->
     <g transform="translate(1003.437096 94.951267) scale(0.2 -0.2)">
      <use xlink:href="#CMMI12-21" transform="scale(0.996264)"/>
      <use xlink:href="#CMMI12-74" transform="translate(64.318346 0) scale(0.996264)"/>
      <use xlink:href="#CMR17-3d" transform="translate(127.218685 0) scale(0.996264)"/>
      <use xlink:href="#CMR17-39" transform="translate(226.607482 0) scale(0.996264)"/>
      <use xlink:href="#CMR17-30" transform="translate(272.297959 0) scale(0.996264)"/>
      <use xlink:href="#CMSY10-e" transform="translate(340.127643 36.153639) scale(0.697382)"/>
      <use xlink:href="#CMR17-7b" transform="translate(405.570952 0) scale(0.996264)"/>
      <use xlink:href="#CMR17-74" transform="translate(481.337395 0) scale(0.996264)"/>
      <use xlink:href="#CMR17-68" transform="translate(516.618163 0) scale(0.996264)"/>
      <use xlink:href="#CMR17-65" transform="translate(567.513533 0) scale(0.996264)"/>
      <use xlink:href="#CMR17-6f" transform="translate(607.999193 0) scale(0.996264)"/>
      <use xlink:href="#CMR17-72" transform="translate(653.68967 0) scale(0.996264)"/>
      <use xlink:href="#CMR17-65" transform="translate(688.970438 0) scale(0.996264)"/>
      <use xlink:href="#CMR17-74" transform="translate(729.456098 0) scale(0.996264)"/>
      <use xlink:href="#CMR17-69" transform="translate(764.736866 0) scale(0.996264)"/>
      <use xlink:href="#CMR17-63" transform="translate(789.607925 0) scale(0.996264)"/>
      <use xlink:href="#CMR17-61" transform="translate(830.093585 0) scale(0.996264)"/>
      <use xlink:href="#CMR17-6c" transform="translate(875.784062 0) scale(0.996264)"/>
     </g>
    </g>
    <g id="line2d_46">
     <path d="M 947.437096 115.826901 
L 967.437096 115.826901 
L 987.437096 115.826901 
" style="fill: none; stroke-dasharray: 1.8,2.97; stroke-dashoffset: 0; stroke: #000000; stroke-opacity: 0.5; stroke-width: 1.8"/>
    </g>
    <g id="text_25">
     <!-- $\omega t = 135\:\unit{\degree}$ - - theoretical -->
     <g transform="translate(1003.437096 122.826901) scale(0.2 -0.2)">
      <use xlink:href="#CMMI12-21" transform="scale(0.996264)"/>
      <use xlink:href="#CMMI12-74" transform="translate(64.318346 0) scale(0.996264)"/>
      <use xlink:href="#CMR17-3d" transform="translate(127.218685 0) scale(0.996264)"/>
      <use xlink:href="#CMR17-31" transform="translate(226.607482 0) scale(0.996264)"/>
      <use xlink:href="#CMR17-33" transform="translate(272.297959 0) scale(0.996264)"/>
      <use xlink:href="#CMR17-35" transform="translate(317.988436 0) scale(0.996264)"/>
      <use xlink:href="#CMSY10-e" transform="translate(385.81812 36.153639) scale(0.697382)"/>
      <use xlink:href="#CMR17-7b" transform="translate(451.261429 0) scale(0.996264)"/>
      <use xlink:href="#CMR17-74" transform="translate(527.027872 0) scale(0.996264)"/>
      <use xlink:href="#CMR17-68" transform="translate(562.30864 0) scale(0.996264)"/>
      <use xlink:href="#CMR17-65" transform="translate(613.20401 0) scale(0.996264)"/>
      <use xlink:href="#CMR17-6f" transform="translate(653.68967 0) scale(0.996264)"/>
      <use xlink:href="#CMR17-72" transform="translate(699.380147 0) scale(0.996264)"/>
      <use xlink:href="#CMR17-65" transform="translate(734.660915 0) scale(0.996264)"/>
      <use xlink:href="#CMR17-74" transform="translate(775.146576 0) scale(0.996264)"/>
      <use xlink:href="#CMR17-69" transform="translate(810.427343 0) scale(0.996264)"/>
      <use xlink:href="#CMR17-63" transform="translate(835.298402 0) scale(0.996264)"/>
      <use xlink:href="#CMR17-61" transform="translate(875.784062 0) scale(0.996264)"/>
      <use xlink:href="#CMR17-6c" transform="translate(921.474539 0) scale(0.996264)"/>
     </g>
    </g>
   </g>
  </g>
 </g>
 <defs>
  <clipPath id="pb42923b522">
   <rect x="93.440322" y="7.2" width="558" height="597.6"/>
  </clipPath>
 </defs>
</svg>
