<?xml version="1.0" encoding="utf-8" standalone="no"?>
<!DOCTYPE svg PUBLIC "-//W3C//DTD SVG 1.1//EN"
  "http://www.w3.org/Graphics/SVG/1.1/DTD/svg11.dtd">
<svg xmlns:xlink="http://www.w3.org/1999/xlink" width="1030.738108pt" height="578.747852pt" viewBox="0 0 1030.738108 578.747852" xmlns="http://www.w3.org/2000/svg" version="1.1">
 <metadata>
  <rdf:RDF xmlns:dc="http://purl.org/dc/elements/1.1/" xmlns:cc="http://creativecommons.org/ns#" xmlns:rdf="http://www.w3.org/1999/02/22-rdf-syntax-ns#">
   <cc:Work>
    <dc:type rdf:resource="http://purl.org/dc/dcmitype/StillImage"/>
    <dc:date>2024-10-14T18:05:31.162993</dc:date>
    <dc:format>image/svg+xml</dc:format>
    <dc:creator>
     <cc:Agent>
      <dc:title>Matplotlib v3.8.4, https://matplotlib.org/</dc:title>
     </cc:Agent>
    </dc:creator>
   </cc:Work>
  </rdf:RDF>
 </metadata>
 <defs>
  <style type="text/css">*{stroke-linejoin: round; stroke-linecap: butt}</style>
 </defs>
 <g id="figure_1">
  <g id="patch_1">
   <path d="M 0 578.747852 
L 1030.738108 578.747852 
L 1030.738108 0 
L 0 0 
z
" style="fill: #ffffff"/>
  </g>
  <g id="axes_1">
   <g id="patch_2">
    <path d="M 130.738108 485.28 
L 1023.538108 485.28 
L 1023.538108 7.2 
L 130.738108 7.2 
z
" style="fill: #ffffff"/>
   </g>
   <g id="matplotlib.axis_1">
    <g id="xtick_1">
     <g id="line2d_1">
      <path d="M 235.438182 485.28 
L 235.438182 7.2 
" clip-path="url(#pfff3c9d78e)" style="fill: none; stroke: #b0b0b0; stroke-width: 0.8; stroke-linecap: square"/>
     </g>
     <g id="line2d_2">
      <defs>
       <path id="mf71f5b493a" d="M 0 0 
L 0 3.5 
" style="stroke: #000000; stroke-width: 0.8"/>
      </defs>
      <g>
       <use xlink:href="#mf71f5b493a" x="235.438182" y="485.28" style="stroke: #000000; stroke-width: 0.8"/>
      </g>
     </g>
     <g id="text_1">
      <!-- $\mathdefault{10^{-5}}$ -->
      <g transform="translate(217.461763 507.616997) scale(0.2 -0.2)">
       <defs>
        <path id="CMR17-31" d="M 1702 4058 
C 1702 4192 1696 4192 1606 4192 
C 1357 3916 979 3827 621 3827 
C 602 3827 570 3827 563 3808 
C 557 3795 557 3782 557 3648 
C 755 3648 1088 3686 1344 3839 
L 1344 461 
C 1344 236 1331 160 781 160 
L 589 160 
L 589 0 
C 896 0 1216 0 1523 0 
C 1830 0 2150 0 2458 0 
L 2458 160 
L 2266 160 
C 1715 160 1702 230 1702 458 
L 1702 4058 
z
" transform="scale(0.015625)"/>
        <path id="CMR17-30" d="M 2688 2025 
C 2688 2416 2682 3080 2413 3591 
C 2176 4039 1798 4198 1466 4198 
C 1158 4198 768 4058 525 3597 
C 269 3118 243 2524 243 2025 
C 243 1661 250 1106 448 619 
C 723 -39 1216 -128 1466 -128 
C 1760 -128 2208 -7 2470 600 
C 2662 1042 2688 1559 2688 2025 
z
M 1466 -26 
C 1056 -26 813 325 723 812 
C 653 1188 653 1738 653 2096 
C 653 2588 653 2997 736 3387 
C 858 3929 1216 4096 1466 4096 
C 1728 4096 2067 3923 2189 3400 
C 2272 3036 2278 2607 2278 2096 
C 2278 1680 2278 1169 2202 792 
C 2067 95 1690 -26 1466 -26 
z
" transform="scale(0.015625)"/>
        <path id="CMSY10-0" d="M 4218 1472 
C 4326 1472 4442 1472 4442 1600 
C 4442 1728 4326 1728 4218 1728 
L 755 1728 
C 646 1728 531 1728 531 1600 
C 531 1472 646 1472 755 1472 
L 4218 1472 
z
" transform="scale(0.015625)"/>
        <path id="CMR17-35" d="M 730 3692 
C 794 3666 1056 3584 1325 3584 
C 1920 3584 2246 3911 2432 4100 
C 2432 4157 2432 4192 2394 4192 
C 2387 4192 2374 4192 2323 4163 
C 2099 4058 1837 3973 1517 3973 
C 1325 3973 1037 3999 723 4139 
C 653 4171 640 4171 634 4171 
C 602 4171 595 4164 595 4037 
L 595 2203 
C 595 2089 595 2057 659 2057 
C 691 2057 704 2070 736 2114 
C 941 2401 1222 2522 1542 2522 
C 1766 2522 2246 2382 2246 1289 
C 2246 1085 2246 715 2054 421 
C 1894 159 1645 25 1370 25 
C 947 25 518 320 403 814 
C 429 807 480 795 506 795 
C 589 795 749 840 749 1038 
C 749 1210 627 1280 506 1280 
C 358 1280 262 1190 262 1011 
C 262 454 704 -128 1382 -128 
C 2042 -128 2669 440 2669 1264 
C 2669 2030 2170 2624 1549 2624 
C 1222 2624 947 2503 730 2274 
L 730 3692 
z
" transform="scale(0.015625)"/>
       </defs>
       <use xlink:href="#CMR17-31" transform="scale(0.996264)"/>
       <use xlink:href="#CMR17-30" transform="translate(45.690477 0) scale(0.996264)"/>
       <use xlink:href="#CMSY10-0" transform="translate(91.380954 36.153639) scale(0.697382)"/>
       <use xlink:href="#CMR17-35" transform="translate(145.621947 36.153639) scale(0.697382)"/>
      </g>
     </g>
    </g>
    <g id="xtick_2">
     <g id="line2d_3">
      <path d="M 438.784476 485.28 
L 438.784476 7.2 
" clip-path="url(#pfff3c9d78e)" style="fill: none; stroke: #b0b0b0; stroke-width: 0.8; stroke-linecap: square"/>
     </g>
     <g id="line2d_4">
      <g>
       <use xlink:href="#mf71f5b493a" x="438.784476" y="485.28" style="stroke: #000000; stroke-width: 0.8"/>
      </g>
     </g>
     <g id="text_2">
      <!-- $\mathdefault{10^{-4}}$ -->
      <g transform="translate(420.808057 507.616997) scale(0.2 -0.2)">
       <defs>
        <path id="CMR17-34" d="M 2150 4122 
C 2150 4256 2144 4256 2029 4256 
L 128 1254 
L 128 1088 
L 1779 1088 
L 1779 457 
C 1779 224 1766 160 1318 160 
L 1197 160 
L 1197 0 
C 1402 0 1747 0 1965 0 
C 2182 0 2528 0 2733 0 
L 2733 160 
L 2611 160 
C 2163 160 2150 224 2150 457 
L 2150 1088 
L 2803 1088 
L 2803 1254 
L 2150 1254 
L 2150 4122 
z
M 1798 3703 
L 1798 1254 
L 256 1254 
L 1798 3703 
z
" transform="scale(0.015625)"/>
       </defs>
       <use xlink:href="#CMR17-31" transform="scale(0.996264)"/>
       <use xlink:href="#CMR17-30" transform="translate(45.690477 0) scale(0.996264)"/>
       <use xlink:href="#CMSY10-0" transform="translate(91.380954 36.153639) scale(0.697382)"/>
       <use xlink:href="#CMR17-34" transform="translate(145.621947 36.153639) scale(0.697382)"/>
      </g>
     </g>
    </g>
    <g id="xtick_3">
     <g id="line2d_5">
      <path d="M 642.130771 485.28 
L 642.130771 7.2 
" clip-path="url(#pfff3c9d78e)" style="fill: none; stroke: #b0b0b0; stroke-width: 0.8; stroke-linecap: square"/>
     </g>
     <g id="line2d_6">
      <g>
       <use xlink:href="#mf71f5b493a" x="642.130771" y="485.28" style="stroke: #000000; stroke-width: 0.8"/>
      </g>
     </g>
     <g id="text_3">
      <!-- $\mathdefault{10^{-3}}$ -->
      <g transform="translate(624.154351 507.616997) scale(0.2 -0.2)">
       <defs>
        <path id="CMR17-33" d="M 1414 2157 
C 1984 2157 2234 1662 2234 1090 
C 2234 320 1824 25 1453 25 
C 1114 25 563 194 390 693 
C 422 680 454 680 486 680 
C 640 680 755 782 755 948 
C 755 1133 614 1216 486 1216 
C 378 1216 211 1165 211 926 
C 211 335 787 -128 1466 -128 
C 2176 -128 2720 430 2720 1085 
C 2720 1707 2208 2157 1600 2227 
C 2086 2328 2554 2756 2554 3329 
C 2554 3820 2048 4179 1472 4179 
C 890 4179 378 3829 378 3329 
C 378 3110 544 3072 627 3072 
C 762 3072 877 3155 877 3321 
C 877 3486 762 3569 627 3569 
C 602 3569 570 3569 544 3557 
C 730 3959 1235 4032 1459 4032 
C 1683 4032 2106 3925 2106 3320 
C 2106 3143 2080 2828 1862 2550 
C 1670 2304 1453 2304 1242 2284 
C 1210 2284 1062 2269 1037 2269 
C 992 2263 966 2257 966 2208 
C 966 2163 973 2157 1101 2157 
L 1414 2157 
z
" transform="scale(0.015625)"/>
       </defs>
       <use xlink:href="#CMR17-31" transform="scale(0.996264)"/>
       <use xlink:href="#CMR17-30" transform="translate(45.690477 0) scale(0.996264)"/>
       <use xlink:href="#CMSY10-0" transform="translate(91.380954 36.153639) scale(0.697382)"/>
       <use xlink:href="#CMR17-33" transform="translate(145.621947 36.153639) scale(0.697382)"/>
      </g>
     </g>
    </g>
    <g id="xtick_4">
     <g id="line2d_7">
      <path d="M 845.477065 485.28 
L 845.477065 7.2 
" clip-path="url(#pfff3c9d78e)" style="fill: none; stroke: #b0b0b0; stroke-width: 0.8; stroke-linecap: square"/>
     </g>
     <g id="line2d_8">
      <g>
       <use xlink:href="#mf71f5b493a" x="845.477065" y="485.28" style="stroke: #000000; stroke-width: 0.8"/>
      </g>
     </g>
     <g id="text_4">
      <!-- $\mathdefault{10^{-2}}$ -->
      <g transform="translate(827.500646 507.616997) scale(0.2 -0.2)">
       <defs>
        <path id="CMR17-32" d="M 2669 989 
L 2554 989 
C 2490 536 2438 459 2413 420 
C 2381 369 1920 369 1830 369 
L 602 369 
C 832 619 1280 1072 1824 1597 
C 2214 1967 2669 2402 2669 3035 
C 2669 3790 2067 4224 1395 4224 
C 691 4224 262 3604 262 3030 
C 262 2780 448 2748 525 2748 
C 589 2748 781 2787 781 3010 
C 781 3207 614 3264 525 3264 
C 486 3264 448 3258 422 3245 
C 544 3790 915 4058 1306 4058 
C 1862 4058 2227 3617 2227 3035 
C 2227 2479 1901 2000 1536 1584 
L 262 146 
L 262 0 
L 2515 0 
L 2669 989 
z
" transform="scale(0.015625)"/>
       </defs>
       <use xlink:href="#CMR17-31" transform="scale(0.996264)"/>
       <use xlink:href="#CMR17-30" transform="translate(45.690477 0) scale(0.996264)"/>
       <use xlink:href="#CMSY10-0" transform="translate(91.380954 36.153639) scale(0.697382)"/>
       <use xlink:href="#CMR17-32" transform="translate(145.621947 36.153639) scale(0.697382)"/>
      </g>
     </g>
    </g>
    <g id="xtick_5">
     <g id="line2d_9">
      <defs>
       <path id="mdf71ebfc71" d="M 0 0 
L 0 2 
" style="stroke: #000000; stroke-width: 0.6"/>
      </defs>
      <g>
       <use xlink:href="#mdf71ebfc71" x="154.518556" y="485.28" style="stroke: #000000; stroke-width: 0.6"/>
      </g>
     </g>
    </g>
    <g id="xtick_6">
     <g id="line2d_10">
      <g>
       <use xlink:href="#mdf71ebfc71" x="174.224848" y="485.28" style="stroke: #000000; stroke-width: 0.6"/>
      </g>
     </g>
    </g>
    <g id="xtick_7">
     <g id="line2d_11">
      <g>
       <use xlink:href="#mdf71ebfc71" x="190.326061" y="485.28" style="stroke: #000000; stroke-width: 0.6"/>
      </g>
     </g>
    </g>
    <g id="xtick_8">
     <g id="line2d_12">
      <g>
       <use xlink:href="#mdf71ebfc71" x="203.939443" y="485.28" style="stroke: #000000; stroke-width: 0.6"/>
      </g>
     </g>
    </g>
    <g id="xtick_9">
     <g id="line2d_13">
      <g>
       <use xlink:href="#mdf71ebfc71" x="215.73189" y="485.28" style="stroke: #000000; stroke-width: 0.6"/>
      </g>
     </g>
    </g>
    <g id="xtick_10">
     <g id="line2d_14">
      <g>
       <use xlink:href="#mdf71ebfc71" x="226.133566" y="485.28" style="stroke: #000000; stroke-width: 0.6"/>
      </g>
     </g>
    </g>
    <g id="xtick_11">
     <g id="line2d_15">
      <g>
       <use xlink:href="#mdf71ebfc71" x="296.651516" y="485.28" style="stroke: #000000; stroke-width: 0.6"/>
      </g>
     </g>
    </g>
    <g id="xtick_12">
     <g id="line2d_16">
      <g>
       <use xlink:href="#mdf71ebfc71" x="332.459021" y="485.28" style="stroke: #000000; stroke-width: 0.6"/>
      </g>
     </g>
    </g>
    <g id="xtick_13">
     <g id="line2d_17">
      <g>
       <use xlink:href="#mdf71ebfc71" x="357.86485" y="485.28" style="stroke: #000000; stroke-width: 0.6"/>
      </g>
     </g>
    </g>
    <g id="xtick_14">
     <g id="line2d_18">
      <g>
       <use xlink:href="#mdf71ebfc71" x="377.571142" y="485.28" style="stroke: #000000; stroke-width: 0.6"/>
      </g>
     </g>
    </g>
    <g id="xtick_15">
     <g id="line2d_19">
      <g>
       <use xlink:href="#mdf71ebfc71" x="393.672355" y="485.28" style="stroke: #000000; stroke-width: 0.6"/>
      </g>
     </g>
    </g>
    <g id="xtick_16">
     <g id="line2d_20">
      <g>
       <use xlink:href="#mdf71ebfc71" x="407.285737" y="485.28" style="stroke: #000000; stroke-width: 0.6"/>
      </g>
     </g>
    </g>
    <g id="xtick_17">
     <g id="line2d_21">
      <g>
       <use xlink:href="#mdf71ebfc71" x="419.078184" y="485.28" style="stroke: #000000; stroke-width: 0.6"/>
      </g>
     </g>
    </g>
    <g id="xtick_18">
     <g id="line2d_22">
      <g>
       <use xlink:href="#mdf71ebfc71" x="429.47986" y="485.28" style="stroke: #000000; stroke-width: 0.6"/>
      </g>
     </g>
    </g>
    <g id="xtick_19">
     <g id="line2d_23">
      <g>
       <use xlink:href="#mdf71ebfc71" x="499.997811" y="485.28" style="stroke: #000000; stroke-width: 0.6"/>
      </g>
     </g>
    </g>
    <g id="xtick_20">
     <g id="line2d_24">
      <g>
       <use xlink:href="#mdf71ebfc71" x="535.805316" y="485.28" style="stroke: #000000; stroke-width: 0.6"/>
      </g>
     </g>
    </g>
    <g id="xtick_21">
     <g id="line2d_25">
      <g>
       <use xlink:href="#mdf71ebfc71" x="561.211145" y="485.28" style="stroke: #000000; stroke-width: 0.6"/>
      </g>
     </g>
    </g>
    <g id="xtick_22">
     <g id="line2d_26">
      <g>
       <use xlink:href="#mdf71ebfc71" x="580.917437" y="485.28" style="stroke: #000000; stroke-width: 0.6"/>
      </g>
     </g>
    </g>
    <g id="xtick_23">
     <g id="line2d_27">
      <g>
       <use xlink:href="#mdf71ebfc71" x="597.01865" y="485.28" style="stroke: #000000; stroke-width: 0.6"/>
      </g>
     </g>
    </g>
    <g id="xtick_24">
     <g id="line2d_28">
      <g>
       <use xlink:href="#mdf71ebfc71" x="610.632031" y="485.28" style="stroke: #000000; stroke-width: 0.6"/>
      </g>
     </g>
    </g>
    <g id="xtick_25">
     <g id="line2d_29">
      <g>
       <use xlink:href="#mdf71ebfc71" x="622.424479" y="485.28" style="stroke: #000000; stroke-width: 0.6"/>
      </g>
     </g>
    </g>
    <g id="xtick_26">
     <g id="line2d_30">
      <g>
       <use xlink:href="#mdf71ebfc71" x="632.826155" y="485.28" style="stroke: #000000; stroke-width: 0.6"/>
      </g>
     </g>
    </g>
    <g id="xtick_27">
     <g id="line2d_31">
      <g>
       <use xlink:href="#mdf71ebfc71" x="703.344105" y="485.28" style="stroke: #000000; stroke-width: 0.6"/>
      </g>
     </g>
    </g>
    <g id="xtick_28">
     <g id="line2d_32">
      <g>
       <use xlink:href="#mdf71ebfc71" x="739.15161" y="485.28" style="stroke: #000000; stroke-width: 0.6"/>
      </g>
     </g>
    </g>
    <g id="xtick_29">
     <g id="line2d_33">
      <g>
       <use xlink:href="#mdf71ebfc71" x="764.557439" y="485.28" style="stroke: #000000; stroke-width: 0.6"/>
      </g>
     </g>
    </g>
    <g id="xtick_30">
     <g id="line2d_34">
      <g>
       <use xlink:href="#mdf71ebfc71" x="784.263731" y="485.28" style="stroke: #000000; stroke-width: 0.6"/>
      </g>
     </g>
    </g>
    <g id="xtick_31">
     <g id="line2d_35">
      <g>
       <use xlink:href="#mdf71ebfc71" x="800.364944" y="485.28" style="stroke: #000000; stroke-width: 0.6"/>
      </g>
     </g>
    </g>
    <g id="xtick_32">
     <g id="line2d_36">
      <g>
       <use xlink:href="#mdf71ebfc71" x="813.978325" y="485.28" style="stroke: #000000; stroke-width: 0.6"/>
      </g>
     </g>
    </g>
    <g id="xtick_33">
     <g id="line2d_37">
      <g>
       <use xlink:href="#mdf71ebfc71" x="825.770773" y="485.28" style="stroke: #000000; stroke-width: 0.6"/>
      </g>
     </g>
    </g>
    <g id="xtick_34">
     <g id="line2d_38">
      <g>
       <use xlink:href="#mdf71ebfc71" x="836.172449" y="485.28" style="stroke: #000000; stroke-width: 0.6"/>
      </g>
     </g>
    </g>
    <g id="xtick_35">
     <g id="line2d_39">
      <g>
       <use xlink:href="#mdf71ebfc71" x="906.690399" y="485.28" style="stroke: #000000; stroke-width: 0.6"/>
      </g>
     </g>
    </g>
    <g id="xtick_36">
     <g id="line2d_40">
      <g>
       <use xlink:href="#mdf71ebfc71" x="942.497904" y="485.28" style="stroke: #000000; stroke-width: 0.6"/>
      </g>
     </g>
    </g>
    <g id="xtick_37">
     <g id="line2d_41">
      <g>
       <use xlink:href="#mdf71ebfc71" x="967.903733" y="485.28" style="stroke: #000000; stroke-width: 0.6"/>
      </g>
     </g>
    </g>
    <g id="xtick_38">
     <g id="line2d_42">
      <g>
       <use xlink:href="#mdf71ebfc71" x="987.610025" y="485.28" style="stroke: #000000; stroke-width: 0.6"/>
      </g>
     </g>
    </g>
    <g id="xtick_39">
     <g id="line2d_43">
      <g>
       <use xlink:href="#mdf71ebfc71" x="1003.711238" y="485.28" style="stroke: #000000; stroke-width: 0.6"/>
      </g>
     </g>
    </g>
    <g id="xtick_40">
     <g id="line2d_44">
      <g>
       <use xlink:href="#mdf71ebfc71" x="1017.324619" y="485.28" style="stroke: #000000; stroke-width: 0.6"/>
      </g>
     </g>
    </g>
    <g id="text_5">
     <!-- $\frac{y}{a}$ -->
     <g transform="translate(570.417111 558.664646) scale(0.375 -0.375)">
      <defs>
       <path id="CMMI12-79" d="M 1683 -700 
C 1510 -939 1261 -1152 947 -1152 
C 870 -1152 563 -1152 467 -889 
C 486 -895 518 -895 531 -895 
C 723 -895 851 -729 851 -582 
C 851 -435 730 -384 634 -384 
C 531 -384 307 -458 307 -759 
C 307 -1071 582 -1286 947 -1286 
C 1587 -1286 2234 -700 2413 6 
L 3040 2485 
C 3046 2517 3059 2556 3059 2594 
C 3059 2689 2982 2753 2886 2753 
C 2829 2753 2694 2727 2643 2535 
L 2170 658 
C 2138 543 2138 530 2086 460 
C 1958 281 1747 64 1440 64 
C 1082 64 1050 415 1050 588 
C 1050 952 1222 1443 1395 1903 
C 1466 2088 1504 2178 1504 2305 
C 1504 2574 1312 2816 998 2816 
C 410 2816 173 1890 173 1839 
C 173 1814 198 1782 243 1782 
C 301 1782 307 1807 333 1897 
C 486 2433 730 2689 979 2689 
C 1037 2689 1146 2689 1146 2478 
C 1146 2312 1075 2127 979 1884 
C 666 1047 666 837 666 683 
C 666 77 1101 -64 1421 -64 
C 1606 -64 1837 -6 2061 230 
L 2067 224 
C 1971 -147 1907 -392 1683 -700 
z
" transform="scale(0.015625)"/>
       <path id="CMMI12-61" d="M 1926 760 
C 1894 651 1894 639 1805 517 
C 1664 338 1382 64 1082 64 
C 819 64 672 300 672 677 
C 672 1028 870 1743 992 2012 
C 1210 2459 1510 2689 1760 2689 
C 2182 2689 2266 2165 2266 2114 
C 2266 2108 2246 2024 2240 2012 
L 1926 760 
z
M 2336 2395 
C 2266 2561 2093 2816 1760 2816 
C 1037 2816 256 1884 256 939 
C 256 307 627 -64 1062 -64 
C 1414 -64 1715 211 1894 422 
C 1958 45 2259 -64 2451 -64 
C 2643 -64 2797 51 2912 281 
C 3014 498 3104 888 3104 913 
C 3104 945 3078 971 3040 971 
C 2982 971 2976 939 2950 843 
C 2854 466 2733 64 2470 64 
C 2285 64 2272 230 2272 358 
C 2272 505 2291 575 2349 824 
C 2394 984 2426 1124 2477 1309 
C 2714 2267 2771 2497 2771 2535 
C 2771 2625 2701 2695 2605 2695 
C 2400 2695 2349 2472 2336 2395 
z
" transform="scale(0.015625)"/>
      </defs>
      <use xlink:href="#CMMI12-79" transform="translate(0.024186 39.953917) scale(0.697382)"/>
      <use xlink:href="#CMMI12-61" transform="translate(0 -34.355253) scale(0.697382)"/>
      <path d="M 0 24.410885 
L 35.845347 24.410885 
L 35.845347 25.40233 
L 0 25.40233 
L 0 24.410885 
z
"/>
     </g>
    </g>
   </g>
   <g id="matplotlib.axis_2">
    <g id="ytick_1">
     <g id="line2d_45">
      <path d="M 130.738108 463.549091 
L 1023.538108 463.549091 
" clip-path="url(#pfff3c9d78e)" style="fill: none; stroke: #b0b0b0; stroke-width: 0.8; stroke-linecap: square"/>
     </g>
     <g id="line2d_46">
      <defs>
       <path id="m095df975fc" d="M 0 0 
L -3.5 0 
" style="stroke: #000000; stroke-width: 0.8"/>
      </defs>
      <g>
       <use xlink:href="#m095df975fc" x="130.738108" y="463.549091" style="stroke: #000000; stroke-width: 0.8"/>
      </g>
     </g>
     <g id="text_6">
      <!-- $\mathdefault{0.000}$ -->
      <g transform="translate(80.266291 470.467589) scale(0.2 -0.2)">
       <defs>
        <path id="CMMI12-3a" d="M 1178 307 
C 1178 492 1024 619 870 619 
C 685 619 557 466 557 313 
C 557 128 710 0 864 0 
C 1050 0 1178 153 1178 307 
z
" transform="scale(0.015625)"/>
       </defs>
       <use xlink:href="#CMR17-30" transform="scale(0.996264)"/>
       <use xlink:href="#CMMI12-3a" transform="translate(45.690477 0) scale(0.996264)"/>
       <use xlink:href="#CMR17-30" transform="translate(72.787654 0) scale(0.996264)"/>
       <use xlink:href="#CMR17-30" transform="translate(118.478131 0) scale(0.996264)"/>
       <use xlink:href="#CMR17-30" transform="translate(164.168608 0) scale(0.996264)"/>
      </g>
     </g>
    </g>
    <g id="ytick_2">
     <g id="line2d_47">
      <path d="M 130.738108 401.256521 
L 1023.538108 401.256521 
" clip-path="url(#pfff3c9d78e)" style="fill: none; stroke: #b0b0b0; stroke-width: 0.8; stroke-linecap: square"/>
     </g>
     <g id="line2d_48">
      <g>
       <use xlink:href="#m095df975fc" x="130.738108" y="401.256521" style="stroke: #000000; stroke-width: 0.8"/>
      </g>
     </g>
     <g id="text_7">
      <!-- $\mathdefault{0.001}$ -->
      <g transform="translate(80.266291 408.175019) scale(0.2 -0.2)">
       <use xlink:href="#CMR17-30" transform="scale(0.996264)"/>
       <use xlink:href="#CMMI12-3a" transform="translate(45.690477 0) scale(0.996264)"/>
       <use xlink:href="#CMR17-30" transform="translate(72.787654 0) scale(0.996264)"/>
       <use xlink:href="#CMR17-30" transform="translate(118.478131 0) scale(0.996264)"/>
       <use xlink:href="#CMR17-31" transform="translate(164.168608 0) scale(0.996264)"/>
      </g>
     </g>
    </g>
    <g id="ytick_3">
     <g id="line2d_49">
      <path d="M 130.738108 338.963951 
L 1023.538108 338.963951 
" clip-path="url(#pfff3c9d78e)" style="fill: none; stroke: #b0b0b0; stroke-width: 0.8; stroke-linecap: square"/>
     </g>
     <g id="line2d_50">
      <g>
       <use xlink:href="#m095df975fc" x="130.738108" y="338.963951" style="stroke: #000000; stroke-width: 0.8"/>
      </g>
     </g>
     <g id="text_8">
      <!-- $\mathdefault{0.002}$ -->
      <g transform="translate(80.266291 345.882449) scale(0.2 -0.2)">
       <use xlink:href="#CMR17-30" transform="scale(0.996264)"/>
       <use xlink:href="#CMMI12-3a" transform="translate(45.690477 0) scale(0.996264)"/>
       <use xlink:href="#CMR17-30" transform="translate(72.787654 0) scale(0.996264)"/>
       <use xlink:href="#CMR17-30" transform="translate(118.478131 0) scale(0.996264)"/>
       <use xlink:href="#CMR17-32" transform="translate(164.168608 0) scale(0.996264)"/>
      </g>
     </g>
    </g>
    <g id="ytick_4">
     <g id="line2d_51">
      <path d="M 130.738108 276.67138 
L 1023.538108 276.67138 
" clip-path="url(#pfff3c9d78e)" style="fill: none; stroke: #b0b0b0; stroke-width: 0.8; stroke-linecap: square"/>
     </g>
     <g id="line2d_52">
      <g>
       <use xlink:href="#m095df975fc" x="130.738108" y="276.67138" style="stroke: #000000; stroke-width: 0.8"/>
      </g>
     </g>
     <g id="text_9">
      <!-- $\mathdefault{0.003}$ -->
      <g transform="translate(80.266291 283.589879) scale(0.2 -0.2)">
       <use xlink:href="#CMR17-30" transform="scale(0.996264)"/>
       <use xlink:href="#CMMI12-3a" transform="translate(45.690477 0) scale(0.996264)"/>
       <use xlink:href="#CMR17-30" transform="translate(72.787654 0) scale(0.996264)"/>
       <use xlink:href="#CMR17-30" transform="translate(118.478131 0) scale(0.996264)"/>
       <use xlink:href="#CMR17-33" transform="translate(164.168608 0) scale(0.996264)"/>
      </g>
     </g>
    </g>
    <g id="ytick_5">
     <g id="line2d_53">
      <path d="M 130.738108 214.37881 
L 1023.538108 214.37881 
" clip-path="url(#pfff3c9d78e)" style="fill: none; stroke: #b0b0b0; stroke-width: 0.8; stroke-linecap: square"/>
     </g>
     <g id="line2d_54">
      <g>
       <use xlink:href="#m095df975fc" x="130.738108" y="214.37881" style="stroke: #000000; stroke-width: 0.8"/>
      </g>
     </g>
     <g id="text_10">
      <!-- $\mathdefault{0.004}$ -->
      <g transform="translate(80.266291 221.297308) scale(0.2 -0.2)">
       <use xlink:href="#CMR17-30" transform="scale(0.996264)"/>
       <use xlink:href="#CMMI12-3a" transform="translate(45.690477 0) scale(0.996264)"/>
       <use xlink:href="#CMR17-30" transform="translate(72.787654 0) scale(0.996264)"/>
       <use xlink:href="#CMR17-30" transform="translate(118.478131 0) scale(0.996264)"/>
       <use xlink:href="#CMR17-34" transform="translate(164.168608 0) scale(0.996264)"/>
      </g>
     </g>
    </g>
    <g id="ytick_6">
     <g id="line2d_55">
      <path d="M 130.738108 152.08624 
L 1023.538108 152.08624 
" clip-path="url(#pfff3c9d78e)" style="fill: none; stroke: #b0b0b0; stroke-width: 0.8; stroke-linecap: square"/>
     </g>
     <g id="line2d_56">
      <g>
       <use xlink:href="#m095df975fc" x="130.738108" y="152.08624" style="stroke: #000000; stroke-width: 0.8"/>
      </g>
     </g>
     <g id="text_11">
      <!-- $\mathdefault{0.005}$ -->
      <g transform="translate(80.266291 159.004738) scale(0.2 -0.2)">
       <use xlink:href="#CMR17-30" transform="scale(0.996264)"/>
       <use xlink:href="#CMMI12-3a" transform="translate(45.690477 0) scale(0.996264)"/>
       <use xlink:href="#CMR17-30" transform="translate(72.787654 0) scale(0.996264)"/>
       <use xlink:href="#CMR17-30" transform="translate(118.478131 0) scale(0.996264)"/>
       <use xlink:href="#CMR17-35" transform="translate(164.168608 0) scale(0.996264)"/>
      </g>
     </g>
    </g>
    <g id="ytick_7">
     <g id="line2d_57">
      <path d="M 130.738108 89.79367 
L 1023.538108 89.79367 
" clip-path="url(#pfff3c9d78e)" style="fill: none; stroke: #b0b0b0; stroke-width: 0.8; stroke-linecap: square"/>
     </g>
     <g id="line2d_58">
      <g>
       <use xlink:href="#m095df975fc" x="130.738108" y="89.79367" style="stroke: #000000; stroke-width: 0.8"/>
      </g>
     </g>
     <g id="text_12">
      <!-- $\mathdefault{0.006}$ -->
      <g transform="translate(80.266291 96.712168) scale(0.2 -0.2)">
       <defs>
        <path id="CMR17-36" d="M 678 2176 
C 678 3690 1395 4032 1811 4032 
C 1946 4032 2272 4009 2400 3776 
C 2298 3776 2106 3776 2106 3553 
C 2106 3381 2246 3323 2336 3323 
C 2394 3323 2566 3348 2566 3560 
C 2566 3954 2246 4179 1805 4179 
C 1043 4179 243 3390 243 1984 
C 243 253 966 -128 1478 -128 
C 2099 -128 2688 427 2688 1283 
C 2688 2081 2170 2662 1517 2662 
C 1126 2662 838 2407 678 1960 
L 678 2176 
z
M 1478 25 
C 691 25 691 1200 691 1436 
C 691 1896 909 2560 1504 2560 
C 1613 2560 1926 2560 2138 2120 
C 2253 1870 2253 1609 2253 1289 
C 2253 944 2253 690 2118 434 
C 1978 171 1773 25 1478 25 
z
" transform="scale(0.015625)"/>
       </defs>
       <use xlink:href="#CMR17-30" transform="scale(0.996264)"/>
       <use xlink:href="#CMMI12-3a" transform="translate(45.690477 0) scale(0.996264)"/>
       <use xlink:href="#CMR17-30" transform="translate(72.787654 0) scale(0.996264)"/>
       <use xlink:href="#CMR17-30" transform="translate(118.478131 0) scale(0.996264)"/>
       <use xlink:href="#CMR17-36" transform="translate(164.168608 0) scale(0.996264)"/>
      </g>
     </g>
    </g>
    <g id="ytick_8">
     <g id="line2d_59">
      <path d="M 130.738108 27.501099 
L 1023.538108 27.501099 
" clip-path="url(#pfff3c9d78e)" style="fill: none; stroke: #b0b0b0; stroke-width: 0.8; stroke-linecap: square"/>
     </g>
     <g id="line2d_60">
      <g>
       <use xlink:href="#m095df975fc" x="130.738108" y="27.501099" style="stroke: #000000; stroke-width: 0.8"/>
      </g>
     </g>
     <g id="text_13">
      <!-- $\mathdefault{0.007}$ -->
      <g transform="translate(80.266291 34.419598) scale(0.2 -0.2)">
       <defs>
        <path id="CMR17-37" d="M 2886 3941 
L 2886 4081 
L 1382 4081 
C 634 4081 621 4165 595 4288 
L 480 4288 
L 294 3094 
L 410 3094 
C 429 3215 474 3540 550 3661 
C 589 3712 1062 3712 1171 3712 
L 2579 3712 
L 1869 2661 
C 1395 1954 1069 999 1069 165 
C 1069 89 1069 -128 1299 -128 
C 1530 -128 1530 89 1530 171 
L 1530 465 
C 1530 1508 1709 2196 2003 2636 
L 2886 3941 
z
" transform="scale(0.015625)"/>
       </defs>
       <use xlink:href="#CMR17-30" transform="scale(0.996264)"/>
       <use xlink:href="#CMMI12-3a" transform="translate(45.690477 0) scale(0.996264)"/>
       <use xlink:href="#CMR17-30" transform="translate(72.787654 0) scale(0.996264)"/>
       <use xlink:href="#CMR17-30" transform="translate(118.478131 0) scale(0.996264)"/>
       <use xlink:href="#CMR17-37" transform="translate(164.168608 0) scale(0.996264)"/>
      </g>
     </g>
    </g>
    <g id="text_14">
     <!-- $\frac{k}{U_{0m}^2}$ -->
     <g transform="translate(40.070723 267.467518) rotate(-90) scale(0.375 -0.375)">
      <defs>
       <path id="CMMI12-6b" d="M 1798 4257 
C 1805 4283 1818 4321 1818 4352 
C 1818 4416 1754 4416 1741 4416 
C 1734 4416 1504 4393 1389 4377 
C 1280 4377 1184 4358 1069 4358 
C 915 4345 870 4339 870 4224 
C 870 4160 934 4160 998 4160 
C 1325 4160 1325 4103 1325 4040 
C 1325 4015 1325 4002 1293 3888 
L 378 248 
C 352 152 352 140 352 101 
C 352 -38 461 -64 525 -64 
C 704 -64 742 77 794 275 
L 1094 1469 
C 1555 1418 1830 1226 1830 920 
C 1830 881 1830 856 1811 760 
C 1786 664 1786 588 1786 556 
C 1786 185 2029 -64 2355 -64 
C 2650 -64 2803 204 2854 294 
C 2989 530 3072 888 3072 913 
C 3072 945 3046 971 3008 971 
C 2950 971 2944 945 2918 843 
C 2829 511 2694 64 2368 64 
C 2240 64 2157 128 2157 370 
C 2157 492 2182 632 2208 728 
C 2234 843 2234 849 2234 926 
C 2234 1303 1894 1514 1306 1590 
C 1536 1731 1766 1980 1856 2076 
C 2221 2484 2470 2689 2765 2689 
C 2912 2689 2950 2650 2995 2612 
C 2758 2586 2669 2420 2669 2293 
C 2669 2139 2790 2088 2880 2088 
C 3053 2088 3206 2235 3206 2440 
C 3206 2625 3059 2816 2771 2816 
C 2419 2816 2131 2567 1677 2056 
C 1613 1980 1376 1737 1139 1648 
L 1798 4257 
z
" transform="scale(0.015625)"/>
       <path id="CMMI12-55" d="M 3238 1474 
C 3014 581 2272 57 1670 57 
C 1210 57 896 363 896 891 
C 896 916 896 1107 966 1387 
L 1594 3887 
C 1651 4103 1664 4167 2118 4167 
C 2234 4167 2298 4167 2298 4282 
C 2298 4352 2240 4352 2202 4352 
C 2086 4352 1952 4352 1830 4352 
L 1075 4352 
C 954 4352 819 4352 698 4352 
C 653 4352 576 4352 576 4231 
C 576 4167 621 4167 742 4167 
C 1126 4167 1126 4116 1126 4046 
C 1126 4008 1082 3824 1050 3715 
L 493 1488 
C 474 1418 435 1246 435 1075 
C 435 374 941 -128 1638 -128 
C 2285 -128 3002 384 3328 1197 
C 3373 1305 3430 1530 3469 1702 
C 3533 1933 3667 2496 3712 2662 
L 3955 3623 
C 4038 3956 4090 4167 4653 4167 
C 4704 4173 4730 4224 4730 4282 
C 4730 4352 4672 4352 4646 4352 
C 4557 4352 4442 4352 4352 4352 
L 4051 4352 
C 3654 4352 3450 4352 3443 4352 
C 3405 4352 3328 4352 3328 4231 
C 3328 4167 3379 4167 3424 4167 
C 3808 4167 3834 4020 3834 3905 
C 3834 3848 3834 3828 3808 3739 
L 3238 1474 
z
" transform="scale(0.015625)"/>
       <path id="CMMI12-6d" d="M 1318 1871 
C 1331 1910 1491 2229 1728 2433 
C 1894 2586 2112 2689 2362 2689 
C 2618 2689 2707 2497 2707 2242 
C 2707 2203 2707 2076 2630 1775 
L 2470 1118 
C 2419 926 2298 453 2285 383 
C 2259 287 2221 121 2221 96 
C 2221 6 2291 -64 2387 -64 
C 2579 -64 2611 83 2669 313 
L 3053 1839 
C 3066 1890 3398 2689 4102 2689 
C 4358 2689 4448 2497 4448 2242 
C 4448 1884 4198 1188 4058 805 
C 4000 651 3968 568 3968 453 
C 3968 166 4166 -64 4474 -64 
C 5069 -64 5293 875 5293 913 
C 5293 945 5267 971 5229 971 
C 5171 971 5165 952 5133 843 
C 4986 332 4749 64 4493 64 
C 4429 64 4326 64 4326 269 
C 4326 436 4403 640 4429 710 
C 4544 1018 4832 1773 4832 2145 
C 4832 2528 4608 2816 4122 2816 
C 3693 2816 3347 2574 3091 2197 
C 3072 2542 2861 2816 2381 2816 
C 1811 2816 1510 2415 1395 2255 
C 1376 2618 1114 2816 832 2816 
C 646 2816 499 2727 378 2484 
C 262 2254 173 1865 173 1839 
C 173 1814 198 1782 243 1782 
C 294 1782 301 1788 339 1935 
C 435 2312 557 2689 813 2689 
C 960 2689 1011 2586 1011 2395 
C 1011 2254 947 2005 902 1807 
L 723 1118 
C 698 996 627 709 595 594 
C 550 428 480 128 480 96 
C 480 6 550 -64 646 -64 
C 723 -64 813 -26 864 70 
C 877 102 934 326 966 453 
L 1107 1028 
L 1318 1871 
z
" transform="scale(0.015625)"/>
      </defs>
      <use xlink:href="#CMMI12-6b" transform="translate(37.264008 39.226102) scale(0.697382)"/>
      <use xlink:href="#CMMI12-55" transform="translate(0 -34.355253) scale(0.697382)"/>
      <use xlink:href="#CMR17-32" transform="translate(53.660908 -14.20868) scale(0.498132)"/>
      <use xlink:href="#CMR17-30" transform="translate(46.376275 -51.595716) scale(0.498132)"/>
      <use xlink:href="#CMMI12-6d" transform="translate(69.221514 -51.595716) scale(0.498132)"/>
      <path d="M 0 24.410885 
L 112.38325 24.410885 
L 112.38325 25.40233 
L 0 25.40233 
L 0 24.410885 
z
"/>
     </g>
    </g>
   </g>
   <g id="line2d_61">
    <path d="M -1 463.549091 
L 272.719592 463.549091 
L 300.341089 463.202695 
L 322.280534 463.297868 
L 340.632367 462.682057 
L 356.513811 462.697252 
L 370.591739 461.829037 
L 383.296281 461.711825 
L 394.921113 460.556654 
L 405.675691 460.253895 
L 415.714652 458.758139 
L 425.155418 458.211367 
L 434.089245 456.323512 
L 442.588464 455.49325 
L 450.711369 453.233996 
L 458.505626 452.193159 
L 466.010707 449.806995 
L 473.259661 448.85613 
L 480.280434 446.801722 
L 487.096865 446.26251 
L 493.72945 444.781042 
L 500.195937 444.643291 
L 506.511792 443.609073 
L 512.690575 443.657997 
L 518.744233 442.841813 
L 524.683349 442.88007 
L 530.517338 442.103083 
L 536.254609 442.008882 
L 541.902704 441.171233 
L 547.468411 440.898188 
L 552.957856 439.969893 
L 558.376591 439.525859 
L 563.729656 438.513376 
L 569.021641 437.925921 
L 574.256737 436.842937 
L 579.43878 436.138016 
L 584.571285 434.99447 
L 589.657486 434.19067 
L 594.700356 432.991624 
L 599.702641 432.100811 
L 604.666876 430.847818 
L 609.595408 429.877042 
L 614.49041 428.569541 
L 619.353902 427.522692 
L 624.187758 426.158987 
L 628.993723 425.037985 
L 633.773424 423.615885 
L 638.528377 422.421501 
L 643.259997 420.938749 
L 647.969608 419.671186 
L 652.658446 418.125775 
L 657.327671 416.785103 
L 661.97837 415.175519 
L 666.611559 413.762028 
L 671.228195 412.087477 
L 675.829177 410.601976 
L 680.415347 408.862598 
L 684.9875 407.306695 
L 689.546382 405.503785 
L 694.092698 403.880158 
L 698.627109 402.016393 
L 703.15024 400.329054 
L 707.66268 398.408734 
L 712.164986 396.663308 
L 716.657683 394.692608 
L 721.141265 392.89661 
L 725.616202 390.883854 
L 730.082935 389.046981 
L 734.541884 387.00292 
L 738.993445 385.137362 
L 743.437991 383.075481 
L 747.875877 381.196235 
L 752.30744 379.133074 
L 756.732997 377.258288 
L 761.152849 375.213787 
L 765.567281 373.365126 
L 769.976564 371.362997 
L 774.380955 369.566028 
L 778.780695 367.634152 
L 796.337597 360.801486 
L 805.09361 357.852555 
L 813.836561 355.336999 
L 822.567697 353.361023 
L 831.288146 352.043066 
L 839.998922 351.513324 
L 844.350974 351.650029 
L 848.700944 351.912129 
L 853.048935 352.563534 
L 857.395041 353.386433 
L 861.739355 354.626076 
L 866.081963 356.083122 
L 870.422947 357.980589 
L 874.762386 360.137759 
L 879.100354 362.750807 
L 883.436923 365.656938 
L 887.77216 369.019617 
L 892.106129 372.692006 
L 896.438891 376.797614 
L 900.770504 381.201966 
L 905.101024 385.980246 
L 909.430502 391.00509 
L 918.086535 401.723992 
L 926.738974 412.74097 
L 931.063952 418.100361 
L 935.388155 423.202364 
L 939.71162 427.913484 
L 944.034384 432.136939 
L 948.356478 435.756963 
L 952.677937 438.746587 
L 956.998789 441.070486 
L 961.319063 442.799608 
L 965.638789 443.997659 
L 969.957991 444.792262 
L 974.276695 445.280905 
L 978.594925 445.556602 
L 982.349331 445.658548 
L 982.349331 445.658548 
" clip-path="url(#pfff3c9d78e)" style="fill: none; stroke: #000000; stroke-width: 1.2; stroke-linecap: square"/>
   </g>
   <g id="line2d_62">
    <path d="M -1 463.519672 
L 171.319926 463.519647 
L 234.713918 461.102598 
L 272.719592 452.83104 
L 300.341089 424.605899 
L 322.280534 395.632578 
L 340.632367 338.680905 
L 356.513811 286.336608 
L 370.591739 216.348631 
L 383.296281 179.85491 
L 394.921113 152.180922 
L 405.675691 146.909805 
L 415.714652 141.668124 
L 425.155418 147.033279 
L 434.089245 148.648469 
L 442.588464 156.52981 
L 450.711369 159.727684 
L 458.505626 167.53254 
L 466.010707 170.684986 
L 473.259661 177.724414 
L 480.280434 180.43267 
L 487.096865 186.64742 
L 493.72945 188.910272 
L 500.195937 194.426134 
L 506.511792 196.351082 
L 512.690575 201.32601 
L 518.744233 203.032062 
L 524.683349 207.608234 
L 530.517338 209.197548 
L 536.254609 213.490824 
L 541.902704 215.044338 
L 547.468411 219.146046 
L 552.957856 220.726502 
L 558.376591 224.708346 
L 563.729656 226.364754 
L 569.021641 230.283706 
L 574.256737 232.055361 
L 579.43878 235.957648 
L 584.571285 237.877252 
L 589.657486 241.801357 
L 594.700356 243.897303 
L 599.702641 247.876121 
L 604.666876 250.174085 
L 609.595408 254.236409 
L 614.49041 256.760409 
L 619.353902 260.931879 
L 624.187758 263.704913 
L 628.993723 268.008517 
L 633.773424 271.052818 
L 638.528377 275.508971 
L 643.259997 278.845909 
L 647.969608 283.472105 
L 652.658446 287.121661 
L 657.327671 291.931632 
L 661.97837 295.911332 
L 666.611559 300.913551 
L 671.228195 305.23663 
L 675.829177 310.431938 
L 680.415347 315.104543 
L 684.9875 320.482652 
L 689.546382 325.499773 
L 694.092698 331.034388 
L 698.627109 336.374024 
L 712.164986 353.302418 
L 716.657683 359.111586 
L 721.141265 364.691997 
L 725.616202 370.568187 
L 730.082935 375.892953 
L 734.541884 381.65658 
L 738.993445 386.515293 
L 743.437991 391.937776 
L 747.875877 396.093907 
L 752.30744 400.922949 
L 756.732997 404.158125 
L 761.152849 408.171706 
L 765.567281 410.348361 
L 769.976564 413.417587 
L 774.380955 414.531187 
L 778.780695 416.661084 
L 783.176016 416.833184 
L 787.567137 418.139743 
L 791.954265 417.560854 
L 796.337597 418.210606 
L 800.717319 417.072972 
L 805.09361 417.229352 
L 809.466637 415.693807 
L 813.836561 415.495909 
L 818.203533 413.688328 
L 822.567697 413.250125 
L 826.929191 411.271367 
L 831.288146 410.68931 
L 835.644683 408.626575 
L 839.998922 407.987652 
L 844.350974 405.923216 
L 848.700944 405.311087 
L 853.048935 403.327918 
L 857.395041 402.826685 
L 861.739355 401.011324 
L 866.081963 400.707136 
L 870.422947 399.150359 
L 874.762386 399.1311 
L 879.100354 397.926681 
L 883.436923 398.279894 
L 887.77216 397.52161 
L 892.106129 398.330542 
L 896.438891 398.10734 
L 900.770504 399.444799 
L 905.101024 399.833537 
L 909.430502 401.752987 
L 913.75899 402.808033 
L 918.086535 405.330888 
L 922.413182 407.069512 
L 926.738974 410.168014 
L 931.063952 412.55116 
L 935.388155 416.127066 
L 939.71162 419.03646 
L 944.034384 422.898397 
L 948.356478 426.114684 
L 952.677937 429.962595 
L 956.998789 433.155875 
L 961.319063 436.589258 
L 965.638789 439.340544 
L 969.957991 441.912705 
L 974.276695 443.781391 
L 978.594925 445.109698 
L 982.349331 445.644634 
L 982.349331 445.644634 
" clip-path="url(#pfff3c9d78e)" style="fill: none; stroke-dasharray: 4.44,1.92; stroke-dashoffset: 0; stroke: #000000; stroke-width: 1.2"/>
   </g>
   <g id="line2d_63">
    <path d="M -1 463.497239 
L 171.319926 463.497195 
L 234.713918 459.335311 
L 272.719592 444.75624 
L 300.341089 396.149264 
L 322.280534 345.345664 
L 356.513811 164.570444 
L 370.591739 78.213564 
L 383.296281 50.595442 
L 394.921113 28.930909 
L 405.675691 32.942007 
L 415.714652 30.919361 
L 425.155418 42.057018 
L 434.089245 44.261762 
L 442.588464 55.620223 
L 450.711369 57.930452 
L 458.505626 67.893399 
L 466.010707 69.418284 
L 473.259661 77.867903 
L 480.280434 78.605723 
L 487.096865 85.792733 
L 493.72945 85.938132 
L 500.195937 92.150133 
L 506.511792 91.898005 
L 512.690575 97.375176 
L 518.744233 96.87717 
L 524.683349 101.80259 
L 530.517338 101.167569 
L 536.254609 105.677155 
L 541.902704 104.981356 
L 547.468411 109.176174 
L 552.957856 108.473178 
L 558.376591 112.429589 
L 563.729656 111.757936 
L 569.021641 115.535084 
L 574.256737 114.923617 
L 579.43878 118.56872 
L 584.571285 118.040212 
L 589.657486 121.592264 
L 594.700356 121.165859 
L 599.702641 124.658225 
L 604.666876 124.351081 
L 609.595408 127.813341 
L 614.49041 127.641759 
L 619.353902 131.101036 
L 624.187758 131.081255 
L 628.993723 134.563209 
L 633.773424 134.711979 
L 638.528377 138.241558 
L 643.259997 138.576585 
L 647.969608 142.178565 
L 652.658446 142.718845 
L 657.327671 146.418291 
L 661.97837 147.184393 
L 666.611559 151.007027 
L 671.228195 152.021332 
L 675.829177 155.993836 
L 680.415347 157.280739 
L 684.9875 161.430985 
L 689.546382 163.017076 
L 694.092698 167.374304 
L 698.627109 169.288514 
L 703.15024 173.883451 
L 707.66268 176.157167 
L 712.164986 181.022056 
L 716.657683 183.689161 
L 721.141265 188.857708 
L 725.616202 191.954493 
L 730.082935 197.461527 
L 734.541884 201.026074 
L 738.993445 206.906709 
L 743.437991 210.978042 
L 747.875877 217.266944 
L 752.30744 221.884293 
L 756.732997 228.613252 
L 761.152849 233.814631 
L 765.567281 241.009996 
L 769.976564 246.82806 
L 774.380955 254.506835 
L 778.780695 260.963993 
L 783.176016 269.127313 
L 787.567137 276.229035 
L 791.954265 284.853009 
L 796.337597 292.576918 
L 800.717319 301.599886 
L 805.09361 309.881054 
L 809.466637 319.186622 
L 813.836561 327.898147 
L 818.203533 337.294761 
L 822.567697 346.225237 
L 826.929191 355.426074 
L 835.644683 372.873667 
L 839.998922 381.189393 
L 844.350974 388.742863 
L 848.700944 396.055124 
L 857.395041 407.951355 
L 866.081963 416.349558 
L 870.422947 418.693909 
L 874.762386 421.362105 
L 879.100354 422.196952 
L 883.436923 423.683283 
L 887.77216 423.497064 
L 892.106129 424.243691 
L 896.438891 423.510172 
L 900.770504 423.909863 
L 905.101024 423.016012 
L 909.430502 423.377137 
L 913.75899 422.619512 
L 918.086535 423.170081 
L 922.413182 422.768018 
L 926.738974 423.66448 
L 931.063952 423.768343 
L 935.388155 425.097586 
L 939.71162 425.786573 
L 944.034384 427.55797 
L 948.356478 428.82539 
L 952.677937 430.951241 
L 956.998789 432.675358 
L 961.319063 434.93999 
L 965.638789 436.840887 
L 969.957991 438.866181 
L 974.276695 440.462558 
L 978.594925 441.706613 
L 982.349331 442.251882 
L 982.349331 442.251882 
" clip-path="url(#pfff3c9d78e)" style="fill: none; stroke-dasharray: 8.32,2.08,1.3,2.08; stroke-dashoffset: 0; stroke: #000000; stroke-width: 1.3"/>
   </g>
   <g id="line2d_64">
    <path d="M -1 463.541774 
L 171.319926 463.541767 
L 234.713918 462.31741 
L 272.719592 460.260048 
L 300.341089 446.043082 
L 322.280534 437.682461 
L 340.632367 410.262084 
L 356.513811 392.360672 
L 370.591739 352.826574 
L 383.296281 328.787202 
L 394.921113 294.313133 
L 405.675691 282.784791 
L 415.714652 267.30703 
L 425.155418 266.751845 
L 434.089245 260.966441 
L 442.588464 264.712139 
L 450.711369 262.538392 
L 458.505626 267.423657 
L 466.010707 266.310963 
L 473.259661 271.075858 
L 480.280434 270.064707 
L 487.096865 274.292821 
L 493.72945 273.081671 
L 500.195937 276.700234 
L 506.511792 275.239994 
L 512.690575 278.299948 
L 518.744233 276.625237 
L 524.683349 279.209901 
L 530.517338 277.373039 
L 536.254609 279.563655 
L 541.902704 277.611983 
L 547.468411 279.477292 
L 552.957856 277.447681 
L 558.376591 279.042834 
L 563.729656 276.962287 
L 569.021641 278.330822 
L 574.256737 276.218707 
L 579.43878 277.395129 
L 584.571285 275.265443 
L 589.657486 276.277556 
L 594.700356 274.140782 
L 599.702641 275.011571 
L 604.666876 272.876062 
L 609.595408 273.625137 
L 614.49041 271.498132 
L 619.353902 272.142832 
L 624.187758 270.03118 
L 628.993723 270.587417 
L 633.773424 268.49812 
L 638.528377 268.981028 
L 643.259997 266.921647 
L 647.969608 267.34611 
L 652.658446 265.325089 
L 657.327671 265.706173 
L 661.97837 263.733114 
L 666.611559 264.086439 
L 671.228195 262.172352 
L 675.829177 262.514429 
L 680.415347 260.671969 
L 684.9875 261.020509 
L 689.546382 259.264213 
L 694.092698 259.638433 
L 698.627109 257.984968 
L 703.15024 258.405887 
L 707.66268 256.874307 
L 712.164986 257.365052 
L 716.657683 255.977078 
L 721.141265 256.563187 
L 725.616202 255.343499 
L 730.082935 256.053241 
L 734.541884 255.02979 
L 738.993445 255.894477 
L 743.437991 255.098801 
L 747.875877 256.153098 
L 752.30744 255.620642 
L 756.732997 256.902855 
L 761.152849 256.673264 
L 765.567281 258.225568 
L 769.976564 258.342923 
L 774.380955 260.211509 
L 778.780695 260.724458 
L 783.176016 262.959474 
L 787.567137 263.921121 
L 791.954265 266.576298 
L 796.337597 268.043749 
L 800.717319 271.175606 
L 805.09361 273.208982 
L 809.466637 276.875346 
L 813.836561 279.535977 
L 818.203533 283.793458 
L 822.567697 287.140827 
L 826.929191 292.040745 
L 831.288146 296.127572 
L 835.644683 301.70963 
L 839.998922 306.574257 
L 844.350974 312.857029 
L 848.700944 318.512058 
L 853.048935 325.479182 
L 857.395041 331.895206 
L 861.739355 339.476289 
L 866.081963 346.559902 
L 870.422947 354.606137 
L 874.762386 362.172999 
L 879.100354 370.43024 
L 883.436923 378.178351 
L 887.77216 386.266872 
L 896.438891 401.186452 
L 900.770504 407.901419 
L 905.101024 414.113433 
L 909.430502 419.526941 
L 913.75899 424.104659 
L 918.086535 427.912217 
L 922.413182 430.769164 
L 926.738974 433.063635 
L 931.063952 434.539736 
L 935.388155 435.773895 
L 944.034384 437.182425 
L 948.356478 437.612806 
L 952.677937 438.242576 
L 956.998789 438.744841 
L 969.957991 440.812359 
L 974.276695 441.425101 
L 978.594925 441.920258 
L 982.349331 442.147885 
L 982.349331 442.147885 
" clip-path="url(#pfff3c9d78e)" style="fill: none; stroke-dasharray: 1.8,2.97; stroke-dashoffset: 0; stroke: #000000; stroke-width: 1.8"/>
   </g>
   <g id="PathCollection_1">
    <defs>
     <path id="m75acb3e402" d="M -6.123724 0 
L 6.123724 0 
M 0 6.123724 
L 0 -6.123724 
" style="stroke: #000000; stroke-width: 1.2"/>
    </defs>
    <g clip-path="url(#pfff3c9d78e)">
     <use xlink:href="#m75acb3e402" x="490.046872" y="381.900662" style="stroke: #000000; stroke-width: 1.2"/>
     <use xlink:href="#m75acb3e402" x="526.387987" y="393.379625" style="stroke: #000000; stroke-width: 1.2"/>
     <use xlink:href="#m75acb3e402" x="551.260206" y="377.659316" style="stroke: #000000; stroke-width: 1.2"/>
     <use xlink:href="#m75acb3e402" x="578.650662" y="376.981106" style="stroke: #000000; stroke-width: 1.2"/>
     <use xlink:href="#m75acb3e402" x="594.751875" y="363.599105" style="stroke: #000000; stroke-width: 1.2"/>
     <use xlink:href="#m75acb3e402" x="612.47354" y="355.997075" style="stroke: #000000; stroke-width: 1.2"/>
     <use xlink:href="#m75acb3e402" x="633.771086" y="346.481885" style="stroke: #000000; stroke-width: 1.2"/>
     <use xlink:href="#m75acb3e402" x="648.281045" y="357.09031" style="stroke: #000000; stroke-width: 1.2"/>
     <use xlink:href="#m75acb3e402" x="663.033955" y="301.244242" style="stroke: #000000; stroke-width: 1.2"/>
     <use xlink:href="#m75acb3e402" x="673.686874" y="333.616133" style="stroke: #000000; stroke-width: 1.2"/>
     <use xlink:href="#m75acb3e402" x="684.976117" y="325.507977" style="stroke: #000000; stroke-width: 1.2"/>
     <use xlink:href="#m75acb3e402" x="694.98442" y="304.625171" style="stroke: #000000; stroke-width: 1.2"/>
     <use xlink:href="#m75acb3e402" x="709.494379" y="265.582524" style="stroke: #000000; stroke-width: 1.2"/>
     <use xlink:href="#m75acb3e402" x="734.900208" y="337.017308" style="stroke: #000000; stroke-width: 1.2"/>
     <use xlink:href="#m75acb3e402" x="754.6065" y="362.870282" style="stroke: #000000; stroke-width: 1.2"/>
     <use xlink:href="#m75acb3e402" x="770.707713" y="339.001326" style="stroke: #000000; stroke-width: 1.2"/>
     <use xlink:href="#m75acb3e402" x="798.098169" y="299.057773" style="stroke: #000000; stroke-width: 1.2"/>
     <use xlink:href="#m75acb3e402" x="815.819834" y="321.793004" style="stroke: #000000; stroke-width: 1.2"/>
     <use xlink:href="#m75acb3e402" x="835.526127" y="331.09562" style="stroke: #000000; stroke-width: 1.2"/>
     <use xlink:href="#m75acb3e402" x="850.279036" y="337.371597" style="stroke: #000000; stroke-width: 1.2"/>
     <use xlink:href="#m75acb3e402" x="862.916582" y="345.378528" style="stroke: #000000; stroke-width: 1.2"/>
     <use xlink:href="#m75acb3e402" x="873.970012" y="261.401914" style="stroke: #000000; stroke-width: 1.2"/>
     <use xlink:href="#m75acb3e402" x="908.028703" y="273.002348" style="stroke: #000000; stroke-width: 1.2"/>
     <use xlink:href="#m75acb3e402" x="920.524837" y="291.465866" style="stroke: #000000; stroke-width: 1.2"/>
     <use xlink:href="#m75acb3e402" x="932.010112" y="303.349731" style="stroke: #000000; stroke-width: 1.2"/>
     <use xlink:href="#m75acb3e402" x="951.284559" y="336.440323" style="stroke: #000000; stroke-width: 1.2"/>
     <use xlink:href="#m75acb3e402" x="967.096697" y="348.941663" style="stroke: #000000; stroke-width: 1.2"/>
     <use xlink:href="#m75acb3e402" x="982.95629" y="348.101492" style="stroke: #000000; stroke-width: 1.2"/>
    </g>
   </g>
   <g id="PathCollection_2">
    <defs>
     <path id="mdf6ea656f1" d="M 0 0 
L 0 6.123724 
M 0 0 
L 4.898979 -3.061862 
M 0 0 
L -4.898979 -3.061862 
" style="stroke: #000000; stroke-width: 1.2"/>
    </defs>
    <g clip-path="url(#pfff3c9d78e)">
     <use xlink:href="#mdf6ea656f1" x="490.046872" y="267.607033" style="stroke: #000000; stroke-width: 1.2"/>
     <use xlink:href="#mdf6ea656f1" x="526.387987" y="291.982115" style="stroke: #000000; stroke-width: 1.2"/>
     <use xlink:href="#mdf6ea656f1" x="551.260206" y="284.896336" style="stroke: #000000; stroke-width: 1.2"/>
     <use xlink:href="#mdf6ea656f1" x="578.650662" y="286.040183" style="stroke: #000000; stroke-width: 1.2"/>
     <use xlink:href="#mdf6ea656f1" x="594.751875" y="290.929371" style="stroke: #000000; stroke-width: 1.2"/>
     <use xlink:href="#mdf6ea656f1" x="612.47354" y="282.547906" style="stroke: #000000; stroke-width: 1.2"/>
     <use xlink:href="#mdf6ea656f1" x="633.771086" y="282.547906" style="stroke: #000000; stroke-width: 1.2"/>
     <use xlink:href="#mdf6ea656f1" x="648.281045" y="292.093463" style="stroke: #000000; stroke-width: 1.2"/>
     <use xlink:href="#mdf6ea656f1" x="663.033955" y="303.683775" style="stroke: #000000; stroke-width: 1.2"/>
     <use xlink:href="#mdf6ea656f1" x="673.686874" y="310.39502" style="stroke: #000000; stroke-width: 1.2"/>
     <use xlink:href="#mdf6ea656f1" x="684.976117" y="305.941102" style="stroke: #000000; stroke-width: 1.2"/>
     <use xlink:href="#mdf6ea656f1" x="694.98442" y="297.93417" style="stroke: #000000; stroke-width: 1.2"/>
     <use xlink:href="#mdf6ea656f1" x="709.494379" y="332.917678" style="stroke: #000000; stroke-width: 1.2"/>
     <use xlink:href="#mdf6ea656f1" x="734.900208" y="364.651849" style="stroke: #000000; stroke-width: 1.2"/>
     <use xlink:href="#mdf6ea656f1" x="754.6065" y="379.289046" style="stroke: #000000; stroke-width: 1.2"/>
     <use xlink:href="#mdf6ea656f1" x="770.707713" y="384.147866" style="stroke: #000000; stroke-width: 1.2"/>
     <use xlink:href="#mdf6ea656f1" x="798.098169" y="389.593794" style="stroke: #000000; stroke-width: 1.2"/>
     <use xlink:href="#mdf6ea656f1" x="815.819834" y="391.102053" style="stroke: #000000; stroke-width: 1.2"/>
     <use xlink:href="#mdf6ea656f1" x="835.526127" y="385.67637" style="stroke: #000000; stroke-width: 1.2"/>
     <use xlink:href="#mdf6ea656f1" x="850.279036" y="366.818073" style="stroke: #000000; stroke-width: 1.2"/>
     <use xlink:href="#mdf6ea656f1" x="862.916582" y="365.360427" style="stroke: #000000; stroke-width: 1.2"/>
     <use xlink:href="#mdf6ea656f1" x="873.970012" y="360.602832" style="stroke: #000000; stroke-width: 1.2"/>
     <use xlink:href="#mdf6ea656f1" x="908.028703" y="360.248543" style="stroke: #000000; stroke-width: 1.2"/>
     <use xlink:href="#mdf6ea656f1" x="920.524837" y="350.480289" style="stroke: #000000; stroke-width: 1.2"/>
     <use xlink:href="#mdf6ea656f1" x="932.010112" y="367.617754" style="stroke: #000000; stroke-width: 1.2"/>
     <use xlink:href="#mdf6ea656f1" x="951.284559" y="372.446207" style="stroke: #000000; stroke-width: 1.2"/>
     <use xlink:href="#mdf6ea656f1" x="967.096697" y="392.347126" style="stroke: #000000; stroke-width: 1.2"/>
     <use xlink:href="#mdf6ea656f1" x="982.95629" y="402.803712" style="stroke: #000000; stroke-width: 1.2"/>
    </g>
   </g>
   <g id="PathCollection_3">
    <defs>
     <path id="C0_0_7888ec76cd" d="M -4.242641 0 
L 0 -7.071068 
L 4.242641 -0 
L 0 7.071068 
z
M -4.242641 0 
L 4.242641 -0 
M 0 -7.071068 
L 0 7.071068 
"/>
    </defs>
    <g clip-path="url(#pfff3c9d78e)">
     <use xlink:href="#C0_0_7888ec76cd" x="490.046872" y="168.730036" style="fill: none; stroke: #000000; stroke-width: 0.8"/>
    </g>
    <g clip-path="url(#pfff3c9d78e)">
     <use xlink:href="#C0_0_7888ec76cd" x="526.387987" y="167.464718" style="fill: none; stroke: #000000; stroke-width: 0.8"/>
    </g>
    <g clip-path="url(#pfff3c9d78e)">
     <use xlink:href="#C0_0_7888ec76cd" x="551.260206" y="171.270794" style="fill: none; stroke: #000000; stroke-width: 0.8"/>
    </g>
    <g clip-path="url(#pfff3c9d78e)">
     <use xlink:href="#C0_0_7888ec76cd" x="578.650662" y="175.744958" style="fill: none; stroke: #000000; stroke-width: 0.8"/>
    </g>
    <g clip-path="url(#pfff3c9d78e)">
     <use xlink:href="#C0_0_7888ec76cd" x="594.751875" y="158.971905" style="fill: none; stroke: #000000; stroke-width: 0.8"/>
    </g>
    <g clip-path="url(#pfff3c9d78e)">
     <use xlink:href="#C0_0_7888ec76cd" x="612.47354" y="109.563774" style="fill: none; stroke: #000000; stroke-width: 0.8"/>
    </g>
    <g clip-path="url(#pfff3c9d78e)">
     <use xlink:href="#C0_0_7888ec76cd" x="633.771086" y="109.563774" style="fill: none; stroke: #000000; stroke-width: 0.8"/>
    </g>
    <g clip-path="url(#pfff3c9d78e)">
     <use xlink:href="#C0_0_7888ec76cd" x="648.281045" y="132.137044" style="fill: none; stroke: #000000; stroke-width: 0.8"/>
    </g>
    <g clip-path="url(#pfff3c9d78e)">
     <use xlink:href="#C0_0_7888ec76cd" x="663.033955" y="140.660225" style="fill: none; stroke: #000000; stroke-width: 0.8"/>
    </g>
    <g clip-path="url(#pfff3c9d78e)">
     <use xlink:href="#C0_0_7888ec76cd" x="673.686874" y="131.428466" style="fill: none; stroke: #000000; stroke-width: 0.8"/>
    </g>
    <g clip-path="url(#pfff3c9d78e)">
     <use xlink:href="#C0_0_7888ec76cd" x="684.976117" y="136.307532" style="fill: none; stroke: #000000; stroke-width: 0.8"/>
    </g>
    <g clip-path="url(#pfff3c9d78e)">
     <use xlink:href="#C0_0_7888ec76cd" x="694.98442" y="141.146107" style="fill: none; stroke: #000000; stroke-width: 0.8"/>
    </g>
    <g clip-path="url(#pfff3c9d78e)">
     <use xlink:href="#C0_0_7888ec76cd" x="709.494379" y="166.573934" style="fill: none; stroke: #000000; stroke-width: 0.8"/>
    </g>
    <g clip-path="url(#pfff3c9d78e)">
     <use xlink:href="#C0_0_7888ec76cd" x="734.900208" y="168.122683" style="fill: none; stroke: #000000; stroke-width: 0.8"/>
    </g>
    <g clip-path="url(#pfff3c9d78e)">
     <use xlink:href="#C0_0_7888ec76cd" x="754.6065" y="181.879219" style="fill: none; stroke: #000000; stroke-width: 0.8"/>
    </g>
    <g clip-path="url(#pfff3c9d78e)">
     <use xlink:href="#C0_0_7888ec76cd" x="770.707713" y="193.783329" style="fill: none; stroke: #000000; stroke-width: 0.8"/>
    </g>
    <g clip-path="url(#pfff3c9d78e)">
     <use xlink:href="#C0_0_7888ec76cd" x="798.098169" y="259.944268" style="fill: none; stroke: #000000; stroke-width: 0.8"/>
    </g>
    <g clip-path="url(#pfff3c9d78e)">
     <use xlink:href="#C0_0_7888ec76cd" x="815.819834" y="305.61718" style="fill: none; stroke: #000000; stroke-width: 0.8"/>
    </g>
    <g clip-path="url(#pfff3c9d78e)">
     <use xlink:href="#C0_0_7888ec76cd" x="835.526127" y="355.642786" style="fill: none; stroke: #000000; stroke-width: 0.8"/>
    </g>
    <g clip-path="url(#pfff3c9d78e)">
     <use xlink:href="#C0_0_7888ec76cd" x="850.279036" y="383.28745" style="fill: none; stroke: #000000; stroke-width: 0.8"/>
    </g>
    <g clip-path="url(#pfff3c9d78e)">
     <use xlink:href="#C0_0_7888ec76cd" x="862.916582" y="407.510695" style="fill: none; stroke: #000000; stroke-width: 0.8"/>
    </g>
    <g clip-path="url(#pfff3c9d78e)">
     <use xlink:href="#C0_0_7888ec76cd" x="873.970012" y="420.497917" style="fill: none; stroke: #000000; stroke-width: 0.8"/>
    </g>
    <g clip-path="url(#pfff3c9d78e)">
     <use xlink:href="#C0_0_7888ec76cd" x="908.028703" y="412.207555" style="fill: none; stroke: #000000; stroke-width: 0.8"/>
    </g>
    <g clip-path="url(#pfff3c9d78e)">
     <use xlink:href="#C0_0_7888ec76cd" x="920.524837" y="415.315175" style="fill: none; stroke: #000000; stroke-width: 0.8"/>
    </g>
    <g clip-path="url(#pfff3c9d78e)">
     <use xlink:href="#C0_0_7888ec76cd" x="932.010112" y="411.944368" style="fill: none; stroke: #000000; stroke-width: 0.8"/>
    </g>
    <g clip-path="url(#pfff3c9d78e)">
     <use xlink:href="#C0_0_7888ec76cd" x="951.284559" y="413.331157" style="fill: none; stroke: #000000; stroke-width: 0.8"/>
    </g>
    <g clip-path="url(#pfff3c9d78e)">
     <use xlink:href="#C0_0_7888ec76cd" x="967.096697" y="428.069579" style="fill: none; stroke: #000000; stroke-width: 0.8"/>
    </g>
    <g clip-path="url(#pfff3c9d78e)">
     <use xlink:href="#C0_0_7888ec76cd" x="982.95629" y="436.329574" style="fill: none; stroke: #000000; stroke-width: 0.8"/>
    </g>
   </g>
   <g id="PathCollection_4">
    <defs>
     <path id="C1_0_267f0854d8" d="M -4.12479 -1.767767 
L 4.12479 -1.767767 
L 0 7.071068 
z
M -4.12479 -1.767767 
L 0 2.268046 
M 4.12479 -1.767767 
L 0 2.268046 
M 0 7.071068 
L 0 2.268046 
"/>
    </defs>
    <g clip-path="url(#pfff3c9d78e)">
     <use xlink:href="#C1_0_267f0854d8" x="490.046872" y="240.600089" style="fill: none; stroke: #000000; stroke-width: 0.8"/>
    </g>
    <g clip-path="url(#pfff3c9d78e)">
     <use xlink:href="#C1_0_267f0854d8" x="526.387987" y="234.931465" style="fill: none; stroke: #000000; stroke-width: 0.8"/>
    </g>
    <g clip-path="url(#pfff3c9d78e)">
     <use xlink:href="#C1_0_267f0854d8" x="551.260206" y="233.230878" style="fill: none; stroke: #000000; stroke-width: 0.8"/>
    </g>
    <g clip-path="url(#pfff3c9d78e)">
     <use xlink:href="#C1_0_267f0854d8" x="578.650662" y="207.074228" style="fill: none; stroke: #000000; stroke-width: 0.8"/>
    </g>
    <g clip-path="url(#pfff3c9d78e)">
     <use xlink:href="#C1_0_267f0854d8" x="594.751875" y="228.34169" style="fill: none; stroke: #000000; stroke-width: 0.8"/>
    </g>
    <g clip-path="url(#pfff3c9d78e)">
     <use xlink:href="#C1_0_267f0854d8" x="612.47354" y="205.900013" style="fill: none; stroke: #000000; stroke-width: 0.8"/>
    </g>
    <g clip-path="url(#pfff3c9d78e)">
     <use xlink:href="#C1_0_267f0854d8" x="633.771086" y="202.124304" style="fill: none; stroke: #000000; stroke-width: 0.8"/>
    </g>
    <g clip-path="url(#pfff3c9d78e)">
     <use xlink:href="#C1_0_267f0854d8" x="648.281045" y="198.64215" style="fill: none; stroke: #000000; stroke-width: 0.8"/>
    </g>
    <g clip-path="url(#pfff3c9d78e)">
     <use xlink:href="#C1_0_267f0854d8" x="663.033955" y="190.594728" style="fill: none; stroke: #000000; stroke-width: 0.8"/>
    </g>
    <g clip-path="url(#pfff3c9d78e)">
     <use xlink:href="#C1_0_267f0854d8" x="673.686874" y="187.304902" style="fill: none; stroke: #000000; stroke-width: 0.8"/>
    </g>
    <g clip-path="url(#pfff3c9d78e)">
     <use xlink:href="#C1_0_267f0854d8" x="684.976117" y="178.295839" style="fill: none; stroke: #000000; stroke-width: 0.8"/>
    </g>
    <g clip-path="url(#pfff3c9d78e)">
     <use xlink:href="#C1_0_267f0854d8" x="694.98442" y="188.924509" style="fill: none; stroke: #000000; stroke-width: 0.8"/>
    </g>
    <g clip-path="url(#pfff3c9d78e)">
     <use xlink:href="#C1_0_267f0854d8" x="709.494379" y="159.700728" style="fill: none; stroke: #000000; stroke-width: 0.8"/>
    </g>
    <g clip-path="url(#pfff3c9d78e)">
     <use xlink:href="#C1_0_267f0854d8" x="734.900208" y="71.148725" style="fill: none; stroke: #000000; stroke-width: 0.8"/>
    </g>
    <g clip-path="url(#pfff3c9d78e)">
     <use xlink:href="#C1_0_267f0854d8" x="754.6065" y="69.802427" style="fill: none; stroke: #000000; stroke-width: 0.8"/>
    </g>
    <g clip-path="url(#pfff3c9d78e)">
     <use xlink:href="#C1_0_267f0854d8" x="770.707713" y="106.375173" style="fill: none; stroke: #000000; stroke-width: 0.8"/>
    </g>
    <g clip-path="url(#pfff3c9d78e)">
     <use xlink:href="#C1_0_267f0854d8" x="798.098169" y="120.911144" style="fill: none; stroke: #000000; stroke-width: 0.8"/>
    </g>
    <g clip-path="url(#pfff3c9d78e)">
     <use xlink:href="#C1_0_267f0854d8" x="815.819834" y="134.353881" style="fill: none; stroke: #000000; stroke-width: 0.8"/>
    </g>
    <g clip-path="url(#pfff3c9d78e)">
     <use xlink:href="#C1_0_267f0854d8" x="835.526127" y="97.821625" style="fill: none; stroke: #000000; stroke-width: 0.8"/>
    </g>
    <g clip-path="url(#pfff3c9d78e)">
     <use xlink:href="#C1_0_267f0854d8" x="850.279036" y="146.05554" style="fill: none; stroke: #000000; stroke-width: 0.8"/>
    </g>
    <g clip-path="url(#pfff3c9d78e)">
     <use xlink:href="#C1_0_267f0854d8" x="862.916582" y="172.404519" style="fill: none; stroke: #000000; stroke-width: 0.8"/>
    </g>
    <g clip-path="url(#pfff3c9d78e)">
     <use xlink:href="#C1_0_267f0854d8" x="873.970012" y="181.808361" style="fill: none; stroke: #000000; stroke-width: 0.8"/>
    </g>
    <g clip-path="url(#pfff3c9d78e)">
     <use xlink:href="#C1_0_267f0854d8" x="908.028703" y="245.904301" style="fill: none; stroke: #000000; stroke-width: 0.8"/>
    </g>
    <g clip-path="url(#pfff3c9d78e)">
     <use xlink:href="#C1_0_267f0854d8" x="920.524837" y="267.171763" style="fill: none; stroke: #000000; stroke-width: 0.8"/>
    </g>
    <g clip-path="url(#pfff3c9d78e)">
     <use xlink:href="#C1_0_267f0854d8" x="932.010112" y="326.753049" style="fill: none; stroke: #000000; stroke-width: 0.8"/>
    </g>
    <g clip-path="url(#pfff3c9d78e)">
     <use xlink:href="#C1_0_267f0854d8" x="951.284559" y="347.008257" style="fill: none; stroke: #000000; stroke-width: 0.8"/>
    </g>
    <g clip-path="url(#pfff3c9d78e)">
     <use xlink:href="#C1_0_267f0854d8" x="967.096697" y="364.024251" style="fill: none; stroke: #000000; stroke-width: 0.8"/>
    </g>
    <g clip-path="url(#pfff3c9d78e)">
     <use xlink:href="#C1_0_267f0854d8" x="982.95629" y="350.935804" style="fill: none; stroke: #000000; stroke-width: 0.8"/>
    </g>
   </g>
   <g id="line2d_65">
    <path d="M 673.960414 485.28 
L 673.960414 7.2 
" clip-path="url(#pfff3c9d78e)" style="fill: none; stroke-dasharray: 4.44,1.92; stroke-dashoffset: 0; stroke: #000000; stroke-width: 1.2"/>
   </g>
   <g id="patch_3">
    <path d="M 130.738108 485.28 
L 130.738108 7.2 
" style="fill: none; stroke: #000000; stroke-width: 0.8; stroke-linejoin: miter; stroke-linecap: square"/>
   </g>
   <g id="patch_4">
    <path d="M 1023.538108 485.28 
L 1023.538108 7.2 
" style="fill: none; stroke: #000000; stroke-width: 0.8; stroke-linejoin: miter; stroke-linecap: square"/>
   </g>
   <g id="patch_5">
    <path d="M 130.738108 485.28 
L 1023.538108 485.28 
" style="fill: none; stroke: #000000; stroke-width: 0.8; stroke-linejoin: miter; stroke-linecap: square"/>
   </g>
   <g id="patch_6">
    <path d="M 130.738108 7.2 
L 1023.538108 7.2 
" style="fill: none; stroke: #000000; stroke-width: 0.8; stroke-linejoin: miter; stroke-linecap: square"/>
   </g>
   <g id="legend_1">
    <g id="patch_7">
     <path d="M 474.062733 352.799267 
L 1009.538108 352.799267 
Q 1013.538108 352.799267 1013.538108 348.799267 
L 1013.538108 239.296733 
Q 1013.538108 235.296733 1009.538108 235.296733 
L 474.062733 235.296733 
Q 470.062733 235.296733 470.062733 239.296733 
L 470.062733 348.799267 
Q 470.062733 352.799267 474.062733 352.799267 
z
" style="fill: #ffffff; opacity: 0.8; stroke: #cccccc; stroke-linejoin: miter"/>
    </g>
    <g id="line2d_66">
     <path d="M 478.062733 250.296733 
L 498.062733 250.296733 
L 518.062733 250.296733 
" style="fill: none; stroke: #000000; stroke-width: 1.2; stroke-linecap: square"/>
    </g>
    <g id="text_15">
     <!-- $\omega t = 0\:\unit{\degree}$ - - Model -->
     <g transform="translate(534.062733 257.296733) scale(0.2 -0.2)">
      <defs>
       <path id="CMMI12-21" d="M 3802 2395 
C 3802 2580 3750 2816 3526 2816 
C 3398 2816 3251 2657 3251 2529 
C 3251 2472 3277 2434 3328 2376 
C 3424 2268 3546 2096 3546 1797 
C 3546 1567 3405 1204 3302 1007 
C 3123 656 2829 357 2496 357 
C 2093 357 1939 615 1869 975 
C 1939 1143 2086 1560 2086 1728 
C 2086 1798 2061 1856 1978 1856 
C 1933 1856 1882 1831 1850 1779 
C 1760 1638 1677 1129 1683 994 
C 1562 756 1216 357 806 357 
C 378 357 262 733 262 1096 
C 262 1758 678 2338 794 2497 
C 858 2593 902 2657 902 2669 
C 902 2714 877 2784 819 2784 
C 717 2784 685 2701 634 2625 
C 307 2121 77 1414 77 803 
C 77 408 224 -64 704 -64 
C 1235 -64 1568 391 1702 634 
C 1754 275 1946 -64 2413 -64 
C 2899 -64 3206 363 3437 879 
C 3603 1249 3802 2045 3802 2395 
z
" transform="scale(0.015625)"/>
       <path id="CMMI12-74" d="M 1286 2566 
L 1875 2566 
C 1997 2566 2061 2566 2061 2681 
C 2061 2752 2022 2752 1894 2752 
L 1331 2752 
L 1568 3692 
C 1594 3781 1594 3794 1594 3840 
C 1594 3943 1510 4000 1427 4000 
C 1376 4000 1229 3981 1178 3775 
L 928 2752 
L 326 2752 
C 198 2752 141 2752 141 2630 
C 141 2566 186 2566 307 2566 
L 877 2566 
L 454 881 
C 403 658 384 594 384 511 
C 384 211 595 -64 954 -64 
C 1600 -64 1946 868 1946 912 
C 1946 951 1920 970 1882 970 
C 1869 970 1843 970 1830 944 
C 1824 938 1818 931 1773 829 
C 1638 511 1344 64 973 64 
C 781 64 768 224 768 364 
C 768 370 768 492 787 568 
L 1286 2566 
z
" transform="scale(0.015625)"/>
       <path id="CMR17-3d" d="M 4115 2017 
C 4211 2017 4307 2017 4307 2125 
C 4307 2240 4198 2240 4090 2240 
L 512 2240 
C 403 2240 294 2240 294 2125 
C 294 2017 390 2017 486 2017 
L 4115 2017 
z
M 4090 896 
C 4198 896 4307 896 4307 1011 
C 4307 1119 4211 1119 4115 1119 
L 486 1119 
C 390 1119 294 1119 294 1011 
C 294 896 403 896 512 896 
L 4090 896 
z
" transform="scale(0.015625)"/>
       <path id="CMSY10-e" d="M 2842 1600 
C 2842 2277 2272 2828 1600 2828 
C 909 2828 352 2264 352 1600 
C 352 930 909 372 1600 372 
C 2272 372 2842 923 2842 1600 
z
M 1600 628 
C 1043 628 608 1070 608 1600 
C 608 2130 1050 2572 1600 2572 
C 2131 2572 2586 2142 2586 1600 
C 2586 1058 2131 628 1600 628 
z
" transform="scale(0.015625)"/>
       <path id="CMR17-7b" d="M 2970 1664 
L 2970 1766 
L -38 1766 
L -38 1664 
L 2970 1664 
z
" transform="scale(0.015625)"/>
       <path id="CMR17-4d" d="M 1338 4224 
C 1299 4320 1293 4320 1158 4320 
L 339 4320 
L 339 4160 
C 781 4160 851 4160 851 3875 
L 851 610 
C 851 451 851 153 339 153 
L 339 -13 
C 486 0 755 0 915 0 
C 1075 0 1344 0 1491 -13 
L 1491 153 
C 979 153 979 451 979 610 
L 979 4135 
L 986 4135 
L 2490 89 
C 2515 25 2528 -13 2579 -13 
C 2630 -13 2643 25 2669 89 
L 4186 4166 
L 4192 4166 
L 4192 438 
C 4192 153 4122 153 3680 153 
L 3680 -13 
C 3853 0 4198 0 4384 0 
C 4570 0 4922 0 5094 -13 
L 5094 153 
C 4653 153 4582 153 4582 438 
L 4582 3875 
C 4582 4160 4653 4160 5094 4160 
L 5094 4320 
L 4282 4320 
C 4147 4320 4141 4314 4102 4218 
L 2720 502 
L 1338 4224 
z
" transform="scale(0.015625)"/>
       <path id="CMR17-6f" d="M 2758 1356 
C 2758 2176 2163 2816 1466 2816 
C 768 2816 173 2176 173 1356 
C 173 551 768 -64 1466 -64 
C 2163 -64 2758 551 2758 1356 
z
M 1466 51 
C 1165 51 909 230 762 480 
C 602 767 582 1126 582 1408 
C 582 1677 595 2010 762 2298 
C 890 2509 1139 2714 1466 2714 
C 1754 2714 1997 2554 2150 2330 
C 2349 2029 2349 1607 2349 1408 
C 2349 1158 2336 775 2163 467 
C 1984 173 1709 51 1466 51 
z
" transform="scale(0.015625)"/>
       <path id="CMR17-64" d="M 1869 4326 
L 1869 4160 
C 2246 4160 2304 4122 2304 3820 
L 2304 2345 
C 2278 2377 2016 2790 1498 2790 
C 845 2790 211 2208 211 1364 
C 211 525 806 -64 1434 -64 
C 1978 -64 2259 337 2291 380 
L 2291 -63 
L 3066 -63 
L 3066 128 
C 2688 128 2630 166 2630 473 
L 2630 4396 
L 1869 4326 
z
M 2291 755 
C 2291 563 2176 390 2029 262 
C 1811 70 1594 38 1472 38 
C 1286 38 621 134 621 1356 
C 621 2612 1363 2688 1530 2688 
C 1824 2688 2061 2522 2208 2291 
C 2291 2157 2291 2138 2291 2023 
L 2291 755 
z
" transform="scale(0.015625)"/>
       <path id="CMR17-65" d="M 2438 1472 
C 2464 1498 2464 1511 2464 1576 
C 2464 2238 2118 2816 1389 2816 
C 710 2816 173 2169 173 1383 
C 173 551 781 -64 1459 -64 
C 2176 -64 2458 607 2458 740 
C 2458 784 2419 784 2406 784 
C 2362 784 2355 771 2330 696 
C 2189 265 1837 51 1504 51 
C 1229 51 954 203 781 480 
C 582 803 582 1176 582 1472 
L 2438 1472 
z
M 589 1568 
C 634 2505 1126 2714 1382 2714 
C 1818 2714 2112 2297 2118 1568 
L 589 1568 
z
" transform="scale(0.015625)"/>
       <path id="CMR17-6c" d="M 979 4396 
L 218 4326 
L 218 4160 
C 595 4160 653 4122 653 3817 
L 653 426 
C 653 184 627 153 218 153 
L 218 -13 
C 371 0 653 0 813 0 
C 979 0 1261 0 1414 -13 
L 1414 153 
C 1005 153 979 178 979 426 
L 979 4396 
z
" transform="scale(0.015625)"/>
      </defs>
      <use xlink:href="#CMMI12-21" transform="scale(0.996264)"/>
      <use xlink:href="#CMMI12-74" transform="translate(64.318346 0) scale(0.996264)"/>
      <use xlink:href="#CMR17-3d" transform="translate(127.218685 0) scale(0.996264)"/>
      <use xlink:href="#CMR17-30" transform="translate(226.607482 0) scale(0.996264)"/>
      <use xlink:href="#CMSY10-e" transform="translate(294.437166 36.153639) scale(0.697382)"/>
      <use xlink:href="#CMR17-7b" transform="translate(359.880474 0) scale(0.996264)"/>
      <use xlink:href="#CMR17-4d" transform="translate(435.646918 0) scale(0.996264)"/>
      <use xlink:href="#CMR17-6f" transform="translate(520.333859 0) scale(0.996264)"/>
      <use xlink:href="#CMR17-64" transform="translate(568.626774 0) scale(0.996264)"/>
      <use xlink:href="#CMR17-65" transform="translate(619.522144 0) scale(0.996264)"/>
      <use xlink:href="#CMR17-6c" transform="translate(660.007805 0) scale(0.996264)"/>
     </g>
    </g>
    <g id="line2d_67">
     <path d="M 478.062733 278.172366 
L 498.062733 278.172366 
L 518.062733 278.172366 
" style="fill: none; stroke-dasharray: 4.44,1.92; stroke-dashoffset: 0; stroke: #000000; stroke-width: 1.2"/>
    </g>
    <g id="text_16">
     <!-- $\omega t = 45\:\unit{\degree}$ - - Model -->
     <g transform="translate(534.062733 285.172366) scale(0.2 -0.2)">
      <use xlink:href="#CMMI12-21" transform="scale(0.996264)"/>
      <use xlink:href="#CMMI12-74" transform="translate(64.318346 0) scale(0.996264)"/>
      <use xlink:href="#CMR17-3d" transform="translate(127.218685 0) scale(0.996264)"/>
      <use xlink:href="#CMR17-34" transform="translate(226.607482 0) scale(0.996264)"/>
      <use xlink:href="#CMR17-35" transform="translate(272.297959 0) scale(0.996264)"/>
      <use xlink:href="#CMSY10-e" transform="translate(340.127643 36.153639) scale(0.697382)"/>
      <use xlink:href="#CMR17-7b" transform="translate(405.570952 0) scale(0.996264)"/>
      <use xlink:href="#CMR17-4d" transform="translate(481.337395 0) scale(0.996264)"/>
      <use xlink:href="#CMR17-6f" transform="translate(566.024336 0) scale(0.996264)"/>
      <use xlink:href="#CMR17-64" transform="translate(614.317251 0) scale(0.996264)"/>
      <use xlink:href="#CMR17-65" transform="translate(665.212621 0) scale(0.996264)"/>
      <use xlink:href="#CMR17-6c" transform="translate(705.698282 0) scale(0.996264)"/>
     </g>
    </g>
    <g id="line2d_68">
     <path d="M 478.062733 306.048 
L 498.062733 306.048 
L 518.062733 306.048 
" style="fill: none; stroke-dasharray: 8.32,2.08,1.3,2.08; stroke-dashoffset: 0; stroke: #000000; stroke-width: 1.3"/>
    </g>
    <g id="text_17">
     <!-- $\omega t = 90\:\unit{\degree}$ - - Model -->
     <g transform="translate(534.062733 313.048) scale(0.2 -0.2)">
      <defs>
       <path id="CMR17-39" d="M 2253 1864 
C 2253 464 1670 31 1190 31 
C 1043 31 685 31 538 294 
C 704 268 826 357 826 518 
C 826 692 685 749 595 749 
C 538 749 365 723 365 506 
C 365 71 742 -128 1203 -128 
C 1939 -128 2688 674 2688 2073 
C 2688 3817 1971 4179 1485 4179 
C 851 4179 243 3628 243 2778 
C 243 1991 762 1408 1414 1408 
C 1952 1408 2189 1903 2253 2112 
L 2253 1864 
z
M 1427 1510 
C 1254 1510 1011 1542 813 1922 
C 678 2169 678 2461 678 2771 
C 678 3146 678 3405 858 3684 
C 947 3817 1114 4032 1485 4032 
C 2240 4032 2240 2885 2240 2632 
C 2240 2182 2035 1510 1427 1510 
z
" transform="scale(0.015625)"/>
      </defs>
      <use xlink:href="#CMMI12-21" transform="scale(0.996264)"/>
      <use xlink:href="#CMMI12-74" transform="translate(64.318346 0) scale(0.996264)"/>
      <use xlink:href="#CMR17-3d" transform="translate(127.218685 0) scale(0.996264)"/>
      <use xlink:href="#CMR17-39" transform="translate(226.607482 0) scale(0.996264)"/>
      <use xlink:href="#CMR17-30" transform="translate(272.297959 0) scale(0.996264)"/>
      <use xlink:href="#CMSY10-e" transform="translate(340.127643 36.153639) scale(0.697382)"/>
      <use xlink:href="#CMR17-7b" transform="translate(405.570952 0) scale(0.996264)"/>
      <use xlink:href="#CMR17-4d" transform="translate(481.337395 0) scale(0.996264)"/>
      <use xlink:href="#CMR17-6f" transform="translate(566.024336 0) scale(0.996264)"/>
      <use xlink:href="#CMR17-64" transform="translate(614.317251 0) scale(0.996264)"/>
      <use xlink:href="#CMR17-65" transform="translate(665.212621 0) scale(0.996264)"/>
      <use xlink:href="#CMR17-6c" transform="translate(705.698282 0) scale(0.996264)"/>
     </g>
    </g>
    <g id="line2d_69">
     <path d="M 478.062733 333.923634 
L 498.062733 333.923634 
L 518.062733 333.923634 
" style="fill: none; stroke-dasharray: 1.8,2.97; stroke-dashoffset: 0; stroke: #000000; stroke-width: 1.8"/>
    </g>
    <g id="text_18">
     <!-- $\omega t = 135\:\unit{\degree}$ - - Model -->
     <g transform="translate(534.062733 340.923634) scale(0.2 -0.2)">
      <use xlink:href="#CMMI12-21" transform="scale(0.996264)"/>
      <use xlink:href="#CMMI12-74" transform="translate(64.318346 0) scale(0.996264)"/>
      <use xlink:href="#CMR17-3d" transform="translate(127.218685 0) scale(0.996264)"/>
      <use xlink:href="#CMR17-31" transform="translate(226.607482 0) scale(0.996264)"/>
      <use xlink:href="#CMR17-33" transform="translate(272.297959 0) scale(0.996264)"/>
      <use xlink:href="#CMR17-35" transform="translate(317.988436 0) scale(0.996264)"/>
      <use xlink:href="#CMSY10-e" transform="translate(385.81812 36.153639) scale(0.697382)"/>
      <use xlink:href="#CMR17-7b" transform="translate(451.261429 0) scale(0.996264)"/>
      <use xlink:href="#CMR17-4d" transform="translate(527.027872 0) scale(0.996264)"/>
      <use xlink:href="#CMR17-6f" transform="translate(611.714813 0) scale(0.996264)"/>
      <use xlink:href="#CMR17-64" transform="translate(660.007729 0) scale(0.996264)"/>
      <use xlink:href="#CMR17-65" transform="translate(710.903098 0) scale(0.996264)"/>
      <use xlink:href="#CMR17-6c" transform="translate(751.388759 0) scale(0.996264)"/>
     </g>
    </g>
    <g id="PathCollection_5">
     <g>
      <use xlink:href="#m75acb3e402" x="749.712977" y="252.046733" style="stroke: #000000; stroke-width: 1.2"/>
     </g>
    </g>
    <g id="text_19">
     <!-- $\omega t = 0\:\unit{\degree}$ - - Measurements -->
     <g transform="translate(785.712977 257.296733) scale(0.2 -0.2)">
      <defs>
       <path id="CMR17-61" d="M 2304 1653 
C 2304 2072 2304 2294 2035 2543 
C 1798 2752 1523 2816 1306 2816 
C 800 2816 435 2407 435 1971 
C 435 1728 627 1728 666 1728 
C 749 1728 896 1778 896 1954 
C 896 2112 774 2181 666 2181 
C 640 2181 608 2174 589 2168 
C 723 2592 1069 2714 1293 2714 
C 1613 2714 1965 2429 1965 1885 
L 1965 1600 
C 1587 1600 1133 1549 774 1357 
C 371 1133 256 813 256 570 
C 256 77 832 -64 1171 -64 
C 1523 -64 1850 139 1990 511 
C 2003 233 2182 -18 2464 -18 
C 2598 -18 2938 70 2938 567 
L 2938 920 
L 2822 920 
L 2822 562 
C 2822 178 2650 128 2566 128 
C 2304 128 2304 458 2304 738 
L 2304 1653 
z
M 1965 870 
C 1965 317 1568 38 1216 38 
C 896 38 646 275 646 570 
C 646 761 730 1100 1101 1305 
C 1408 1478 1760 1504 1965 1504 
L 1965 870 
z
" transform="scale(0.015625)"/>
       <path id="CMR17-73" d="M 1978 2697 
C 1978 2813 1971 2819 1933 2819 
C 1907 2819 1901 2813 1824 2717 
C 1805 2691 1747 2626 1728 2601 
C 1523 2819 1235 2819 1126 2819 
C 416 2819 160 2447 160 2076 
C 160 1498 813 1365 998 1325 
C 1402 1243 1542 1217 1677 1101 
C 1760 1025 1901 884 1901 654 
C 1901 384 1747 38 1158 38 
C 602 38 403 460 288 1021 
C 269 1110 269 1117 218 1117 
C 166 1117 160 1110 160 983 
L 160 63 
C 160 -51 166 -58 205 -58 
C 237 -58 243 -51 275 0 
C 314 57 410 211 448 276 
C 576 103 800 -64 1158 -64 
C 1792 -64 2131 283 2131 784 
C 2131 1112 1958 1285 1875 1362 
C 1683 1561 1459 1606 1190 1657 
C 838 1735 390 1825 390 2217 
C 390 2383 480 2737 1126 2737 
C 1811 2737 1850 2094 1862 1888 
C 1869 1856 1901 1849 1920 1849 
C 1978 1849 1978 1869 1978 1978 
L 1978 2697 
z
" transform="scale(0.015625)"/>
       <path id="CMR17-75" d="M 1882 2693 
L 1882 2528 
C 2259 2528 2317 2489 2317 2186 
L 2317 1032 
C 2317 500 2029 38 1555 38 
C 1030 38 986 348 986 678 
L 986 2763 
L 211 2693 
L 211 2528 
C 467 2528 640 2528 646 2274 
L 646 1058 
C 646 633 646 361 813 183 
C 896 101 1056 -64 1517 -64 
C 2061 -64 2272 377 2323 506 
L 2330 506 
L 2330 -63 
L 3091 -63 
L 3091 128 
C 2714 128 2656 166 2656 473 
L 2656 2763 
L 1882 2693 
z
" transform="scale(0.015625)"/>
       <path id="CMR17-72" d="M 960 1497 
C 960 2112 1222 2688 1702 2688 
C 1747 2688 1792 2682 1837 2662 
C 1837 2662 1696 2617 1696 2452 
C 1696 2298 1818 2234 1914 2234 
C 1990 2234 2131 2279 2131 2458 
C 2131 2663 1926 2790 1709 2790 
C 1222 2790 1011 2317 947 2093 
L 941 2093 
L 941 2790 
L 198 2720 
L 198 2554 
C 576 2554 634 2515 634 2208 
L 634 428 
C 634 184 608 153 198 153 
L 198 -13 
C 352 0 646 0 813 0 
C 998 0 1325 0 1498 -13 
L 1498 153 
C 1037 153 960 153 960 440 
L 960 1497 
z
" transform="scale(0.015625)"/>
       <path id="CMR17-6d" d="M 4326 1933 
C 4326 2252 4269 2790 3507 2790 
C 3072 2790 2771 2496 2656 2151 
L 2650 2151 
C 2573 2676 2195 2790 1837 2790 
C 1331 2790 1069 2400 973 2144 
L 966 2144 
L 966 2790 
L 211 2720 
L 211 2554 
C 589 2554 646 2515 646 2208 
L 646 428 
C 646 184 621 153 211 153 
L 211 -13 
C 365 0 646 0 813 0 
C 979 0 1267 0 1421 -13 
L 1421 153 
C 1011 153 986 178 986 428 
L 986 1658 
C 986 2247 1344 2688 1792 2688 
C 2266 2688 2317 2266 2317 1958 
L 2317 428 
C 2317 184 2291 153 1882 153 
L 1882 -13 
C 2035 0 2317 0 2483 0 
C 2650 0 2938 0 3091 -13 
L 3091 153 
C 2682 153 2656 178 2656 428 
L 2656 1658 
C 2656 2247 3014 2688 3462 2688 
C 3936 2688 3987 2266 3987 1958 
L 3987 428 
C 3987 184 3962 153 3552 153 
L 3552 -13 
C 3706 0 3987 0 4154 0 
C 4320 0 4608 0 4762 -13 
L 4762 153 
C 4352 153 4326 178 4326 428 
L 4326 1933 
z
" transform="scale(0.015625)"/>
       <path id="CMR17-6e" d="M 2656 1933 
C 2656 2259 2592 2790 1837 2790 
C 1331 2790 1069 2400 973 2144 
L 966 2144 
L 966 2790 
L 211 2720 
L 211 2554 
C 589 2554 646 2515 646 2208 
L 646 428 
C 646 184 621 153 211 153 
L 211 -13 
C 365 0 646 0 813 0 
C 979 0 1267 0 1421 -13 
L 1421 153 
C 1011 153 986 178 986 428 
L 986 1658 
C 986 2247 1344 2688 1792 2688 
C 2266 2688 2317 2266 2317 1958 
L 2317 428 
C 2317 184 2291 153 1882 153 
L 1882 -13 
C 2035 0 2317 0 2483 0 
C 2650 0 2938 0 3091 -13 
L 3091 153 
C 2682 153 2656 178 2656 428 
L 2656 1933 
z
" transform="scale(0.015625)"/>
       <path id="CMR17-74" d="M 966 2560 
L 1862 2560 
L 1862 2725 
L 966 2725 
L 966 3904 
L 851 3904 
C 838 3245 614 2668 70 2668 
L 70 2560 
L 627 2560 
L 627 771 
C 627 650 627 -64 1370 -64 
C 1747 -64 1965 306 1965 777 
L 1965 1140 
L 1850 1140 
L 1850 783 
C 1850 344 1677 51 1408 51 
C 1222 51 966 178 966 758 
L 966 2560 
z
" transform="scale(0.015625)"/>
      </defs>
      <use xlink:href="#CMMI12-21" transform="scale(0.996264)"/>
      <use xlink:href="#CMMI12-74" transform="translate(64.318346 0) scale(0.996264)"/>
      <use xlink:href="#CMR17-3d" transform="translate(127.218685 0) scale(0.996264)"/>
      <use xlink:href="#CMR17-30" transform="translate(226.607482 0) scale(0.996264)"/>
      <use xlink:href="#CMSY10-e" transform="translate(294.437166 36.153639) scale(0.697382)"/>
      <use xlink:href="#CMR17-7b" transform="translate(359.880474 0) scale(0.996264)"/>
      <use xlink:href="#CMR17-4d" transform="translate(435.646918 0) scale(0.996264)"/>
      <use xlink:href="#CMR17-65" transform="translate(520.333859 0) scale(0.996264)"/>
      <use xlink:href="#CMR17-61" transform="translate(560.819519 0) scale(0.996264)"/>
      <use xlink:href="#CMR17-73" transform="translate(606.509996 0) scale(0.996264)"/>
      <use xlink:href="#CMR17-75" transform="translate(642.311334 0) scale(0.996264)"/>
      <use xlink:href="#CMR17-72" transform="translate(693.206703 0) scale(0.996264)"/>
      <use xlink:href="#CMR17-65" transform="translate(728.487471 0) scale(0.996264)"/>
      <use xlink:href="#CMR17-6d" transform="translate(768.973132 0) scale(0.996264)"/>
      <use xlink:href="#CMR17-65" transform="translate(845.892722 0) scale(0.996264)"/>
      <use xlink:href="#CMR17-6e" transform="translate(886.378382 0) scale(0.996264)"/>
      <use xlink:href="#CMR17-74" transform="translate(934.671298 0) scale(0.996264)"/>
      <use xlink:href="#CMR17-73" transform="translate(969.952066 0) scale(0.996264)"/>
     </g>
    </g>
    <g id="PathCollection_6">
     <g>
      <use xlink:href="#mdf6ea656f1" x="749.712977" y="279.922366" style="stroke: #000000; stroke-width: 1.2"/>
     </g>
    </g>
    <g id="text_20">
     <!-- $\omega t = 45\:\unit{\degree}$ - - Measurements -->
     <g transform="translate(785.712977 285.172366) scale(0.2 -0.2)">
      <use xlink:href="#CMMI12-21" transform="scale(0.996264)"/>
      <use xlink:href="#CMMI12-74" transform="translate(64.318346 0) scale(0.996264)"/>
      <use xlink:href="#CMR17-3d" transform="translate(127.218685 0) scale(0.996264)"/>
      <use xlink:href="#CMR17-34" transform="translate(226.607482 0) scale(0.996264)"/>
      <use xlink:href="#CMR17-35" transform="translate(272.297959 0) scale(0.996264)"/>
      <use xlink:href="#CMSY10-e" transform="translate(340.127643 36.153639) scale(0.697382)"/>
      <use xlink:href="#CMR17-7b" transform="translate(405.570952 0) scale(0.996264)"/>
      <use xlink:href="#CMR17-4d" transform="translate(481.337395 0) scale(0.996264)"/>
      <use xlink:href="#CMR17-65" transform="translate(566.024336 0) scale(0.996264)"/>
      <use xlink:href="#CMR17-61" transform="translate(606.509996 0) scale(0.996264)"/>
      <use xlink:href="#CMR17-73" transform="translate(652.200473 0) scale(0.996264)"/>
      <use xlink:href="#CMR17-75" transform="translate(688.001811 0) scale(0.996264)"/>
      <use xlink:href="#CMR17-72" transform="translate(738.897181 0) scale(0.996264)"/>
      <use xlink:href="#CMR17-65" transform="translate(774.177948 0) scale(0.996264)"/>
      <use xlink:href="#CMR17-6d" transform="translate(814.663609 0) scale(0.996264)"/>
      <use xlink:href="#CMR17-65" transform="translate(891.583199 0) scale(0.996264)"/>
      <use xlink:href="#CMR17-6e" transform="translate(932.068859 0) scale(0.996264)"/>
      <use xlink:href="#CMR17-74" transform="translate(980.361775 0) scale(0.996264)"/>
      <use xlink:href="#CMR17-73" transform="translate(1015.642543 0) scale(0.996264)"/>
     </g>
    </g>
    <g id="PathCollection_7">
     <path d="M 745.470336 307.798 
L 749.712977 300.726932 
L 753.955618 307.798 
L 749.712977 314.869068 
L 745.470336 307.798 
z
M 745.470336 307.798 
L 753.955618 307.798 
M 749.712977 300.726932 
L 749.712977 314.869068 
" style="fill: none; stroke: #000000; stroke-width: 0.8"/>
    </g>
    <g id="text_21">
     <!-- $\omega t = 90\:\unit{\degree}$ - - Measurements -->
     <g transform="translate(785.712977 313.048) scale(0.2 -0.2)">
      <use xlink:href="#CMMI12-21" transform="scale(0.996264)"/>
      <use xlink:href="#CMMI12-74" transform="translate(64.318346 0) scale(0.996264)"/>
      <use xlink:href="#CMR17-3d" transform="translate(127.218685 0) scale(0.996264)"/>
      <use xlink:href="#CMR17-39" transform="translate(226.607482 0) scale(0.996264)"/>
      <use xlink:href="#CMR17-30" transform="translate(272.297959 0) scale(0.996264)"/>
      <use xlink:href="#CMSY10-e" transform="translate(340.127643 36.153639) scale(0.697382)"/>
      <use xlink:href="#CMR17-7b" transform="translate(405.570952 0) scale(0.996264)"/>
      <use xlink:href="#CMR17-4d" transform="translate(481.337395 0) scale(0.996264)"/>
      <use xlink:href="#CMR17-65" transform="translate(566.024336 0) scale(0.996264)"/>
      <use xlink:href="#CMR17-61" transform="translate(606.509996 0) scale(0.996264)"/>
      <use xlink:href="#CMR17-73" transform="translate(652.200473 0) scale(0.996264)"/>
      <use xlink:href="#CMR17-75" transform="translate(688.001811 0) scale(0.996264)"/>
      <use xlink:href="#CMR17-72" transform="translate(738.897181 0) scale(0.996264)"/>
      <use xlink:href="#CMR17-65" transform="translate(774.177948 0) scale(0.996264)"/>
      <use xlink:href="#CMR17-6d" transform="translate(814.663609 0) scale(0.996264)"/>
      <use xlink:href="#CMR17-65" transform="translate(891.583199 0) scale(0.996264)"/>
      <use xlink:href="#CMR17-6e" transform="translate(932.068859 0) scale(0.996264)"/>
      <use xlink:href="#CMR17-74" transform="translate(980.361775 0) scale(0.996264)"/>
      <use xlink:href="#CMR17-73" transform="translate(1015.642543 0) scale(0.996264)"/>
     </g>
    </g>
    <g id="PathCollection_8">
     <path d="M 745.588187 333.905867 
L 753.837767 333.905867 
L 749.712977 342.744701 
L 745.588187 333.905867 
z
M 745.588187 333.905867 
L 749.712977 337.94168 
M 753.837767 333.905867 
L 749.712977 337.94168 
M 749.712977 342.744701 
L 749.712977 337.94168 
" style="fill: none; stroke: #000000; stroke-width: 0.8"/>
    </g>
    <g id="text_22">
     <!-- $\omega t = 135\:\unit{\degree}$ - - Measurements -->
     <g transform="translate(785.712977 340.923634) scale(0.2 -0.2)">
      <use xlink:href="#CMMI12-21" transform="scale(0.996264)"/>
      <use xlink:href="#CMMI12-74" transform="translate(64.318346 0) scale(0.996264)"/>
      <use xlink:href="#CMR17-3d" transform="translate(127.218685 0) scale(0.996264)"/>
      <use xlink:href="#CMR17-31" transform="translate(226.607482 0) scale(0.996264)"/>
      <use xlink:href="#CMR17-33" transform="translate(272.297959 0) scale(0.996264)"/>
      <use xlink:href="#CMR17-35" transform="translate(317.988436 0) scale(0.996264)"/>
      <use xlink:href="#CMSY10-e" transform="translate(385.81812 36.153639) scale(0.697382)"/>
      <use xlink:href="#CMR17-7b" transform="translate(451.261429 0) scale(0.996264)"/>
      <use xlink:href="#CMR17-4d" transform="translate(527.027872 0) scale(0.996264)"/>
      <use xlink:href="#CMR17-65" transform="translate(611.714813 0) scale(0.996264)"/>
      <use xlink:href="#CMR17-61" transform="translate(652.200473 0) scale(0.996264)"/>
      <use xlink:href="#CMR17-73" transform="translate(697.89095 0) scale(0.996264)"/>
      <use xlink:href="#CMR17-75" transform="translate(733.692288 0) scale(0.996264)"/>
      <use xlink:href="#CMR17-72" transform="translate(784.587658 0) scale(0.996264)"/>
      <use xlink:href="#CMR17-65" transform="translate(819.868426 0) scale(0.996264)"/>
      <use xlink:href="#CMR17-6d" transform="translate(860.354086 0) scale(0.996264)"/>
      <use xlink:href="#CMR17-65" transform="translate(937.273676 0) scale(0.996264)"/>
      <use xlink:href="#CMR17-6e" transform="translate(977.759336 0) scale(0.996264)"/>
      <use xlink:href="#CMR17-74" transform="translate(1026.052252 0) scale(0.996264)"/>
      <use xlink:href="#CMR17-73" transform="translate(1061.33302 0) scale(0.996264)"/>
     </g>
    </g>
   </g>
  </g>
 </g>
 <defs>
  <clipPath id="pfff3c9d78e">
   <rect x="130.738108" y="7.2" width="892.8" height="478.08"/>
  </clipPath>
 </defs>
</svg>
